<svg class="svg svg--default top-bar__wordmark top-bar__wordmark--stag" width="100%" height="100%" viewBox="0 0 644 135"
	fill="none" xmlns="http://www.w3.org/2000/svg" logo-styles="default" data-v-5e520a86="" data-v-4198906e="">
	<path
		d="M609.192 72.6188C610.534 65.0854 615.117 61.1363 622.201 61.1363C629.65 61.1363 634.308 65.7078 634.855 72.6188H609.192ZM623.102 100.788C634.222 100.788 642.39 94.6931 644.011 85.3569H635.306C634.05 90.4757 629.746 93.341 623.102 93.341C615.203 93.341 609.643 87.5139 608.924 78.9932H643.463C643.549 78.1883 643.646 76.7503 643.646 75.5806C643.646 64.0981 636.197 54.1395 622.201 54.1395C608.204 54.1395 600.401 64.5488 600.401 77.1903C600.401 89.8318 609.106 100.778 623.102 100.778M574.029 100.778C585.6 100.778 593.586 94.3175 595.024 84.8096H586.416C584.977 89.9177 580.491 93.1478 574.309 93.1478C565.335 93.1478 560.763 86.151 560.763 77.4479C560.763 68.7448 565.25 61.748 574.223 61.748C580.416 61.748 585.525 65.5147 586.33 70.6335H595.035C593.779 60.4065 584.623 54.1287 574.04 54.1287C559.861 54.1287 551.704 64.9781 551.704 77.4479C551.704 89.9177 559.872 100.767 574.04 100.767M513.3 86.9558C513.3 82.2019 517.153 79.1542 523.078 79.1542H534.745V80.2273C534.745 88.5655 529.991 93.8561 521.737 93.8561C516.713 93.8561 513.3 91.0767 513.3 86.9451M520.03 100.756C526.846 100.756 532.588 97.612 534.745 92.6864V100.037H543.45V70.8803C543.45 60.8358 535.733 54.1073 524.076 54.1073C513.397 54.1073 505.325 60.7499 504.606 69.6247H512.678C512.946 65.0532 517.518 61.1041 523.797 61.1041C530.796 61.1041 534.745 64.8708 534.745 70.3437C534.745 71.9534 533.758 73.0373 531.697 73.0373H522.273C511.594 73.0373 504.692 78.4244 504.692 87.1168C504.692 95.1868 510.789 100.746 520.03 100.746M461.179 77.4264C461.179 68.0043 466.653 61.7265 475.09 61.7265C483.526 61.7265 489 68.0043 489 77.4264C489 86.8485 483.44 93.1263 475.09 93.1263C466.739 93.1263 461.179 86.8485 461.179 77.4264ZM453.194 118.334H461.898V93.6629C464.496 97.9662 469.884 100.746 475.895 100.746C489.622 100.746 497.791 90.8835 497.791 77.4264C497.791 63.9693 489.987 54.1073 476.345 54.1073C470.066 54.1073 464.592 57.0691 461.898 61.5548V54.8263H453.194V118.334ZM421.079 100.756C434.539 100.756 444.317 94.0278 444.317 82.5453C444.317 58.593 408.425 68.734 408.425 53.4848C408.425 48.1943 412.997 44.7817 420.629 44.7817C428.26 44.7817 433.283 48.9991 433.992 55.4594H442.965C442.246 43.9769 433.369 36.5294 420.629 36.5294C407.888 36.5294 399.183 43.4403 399.183 53.4848C399.183 76.6323 434.711 67.5643 434.711 82.6418C434.711 89.4562 429.054 92.5039 421.069 92.5039C412.278 92.5039 406.89 87.2992 406.171 79.2293H397.112C397.831 92.2356 406.976 100.756 421.069 100.756M354.05 77.4372C354.05 68.1975 359.878 61.7372 368.497 61.7372C377.116 61.7372 382.858 68.1975 382.858 77.4372C382.858 86.6768 377.03 93.1371 368.497 93.1371C359.964 93.1371 354.05 86.6768 354.05 77.4372ZM368.497 100.756C382.042 100.756 391.734 90.9801 391.734 77.4372C391.734 63.8942 382.042 54.118 368.497 54.118C354.951 54.118 345.173 63.8942 345.173 77.4372C345.173 90.9801 354.951 100.756 368.497 100.756ZM327.227 46.8422H336.919V35.8962H327.227V46.8422ZM327.764 100.037H336.469V54.8263H327.764V100.037ZM280.129 77.4372C280.129 68.0151 285.603 61.7372 294.04 61.7372C302.476 61.7372 307.95 68.0151 307.95 77.4372C307.95 86.8593 302.39 93.1371 294.04 93.1371C285.689 93.1371 280.129 86.8593 280.129 77.4372ZM293.052 100.756C298.977 100.756 304.537 97.7945 307.231 93.3088V100.037H315.936V35.8962H307.231V61.4582C304.537 57.0584 299.159 54.1073 292.966 54.1073C279.153 54.1073 271.349 63.9693 271.349 77.4264C271.349 90.8835 279.153 100.746 293.063 100.746M262.473 54.8155H253.768V79.3044C253.768 87.2027 248.659 92.9332 241.564 92.9332C235.189 92.9332 230.981 88.0933 230.981 80.9141V54.8155H222.277V82.6204C222.277 93.3839 228.921 100.735 239.149 100.735C245.879 100.735 251.353 97.6871 253.768 92.0317V100.016H262.473V54.8048V54.8155ZM193.125 40.6394V54.8155H183.883V62.3489H193.125V85.2174C193.125 94.457 199.05 100.016 208.194 100.016H215.193V92.4825H208.828C204.524 92.4825 201.83 89.7889 201.83 84.9491V62.3489H215.193V54.8155H201.83V40.6394H193.125ZM157.243 100.735C170.703 100.735 180.481 94.0063 180.481 82.5238C180.481 58.5715 144.589 68.7126 144.589 53.4634C144.589 48.1728 149.161 44.7603 156.793 44.7603C164.424 44.7603 169.447 48.9777 170.156 55.4379H179.129C178.409 43.9554 169.533 36.5079 156.793 36.5079C144.052 36.5079 135.347 43.4189 135.347 53.4634C135.347 76.6108 170.875 67.5429 170.875 82.6204C170.875 89.4348 165.218 92.4825 157.243 92.4825C148.453 92.4825 143.065 87.2778 142.345 79.2078H133.287C134.006 92.2142 143.161 100.735 157.243 100.735ZM55.9743 125.352L79.1369 102.194C91.931 89.4026 91.931 68.6589 79.1369 55.8672L55.9743 79.0254C43.1802 91.8171 22.4327 91.8171 9.63853 79.0254C-3.1556 91.8171 -3.1556 112.561 9.63853 125.352C22.4327 138.144 43.1802 138.144 55.9743 125.352ZM79.1369 55.8672C91.931 43.0755 91.931 22.3318 79.1369 9.54009C66.3427 -3.25164 45.5952 -3.25164 32.8011 9.54009L9.5956 32.7519C-3.19853 45.5437 -3.19853 66.2873 9.5956 79.079L32.7581 55.9208C45.5523 43.1291 66.2998 43.1291 79.0939 55.9208"
		fill="#121212" data-v-5e520a86=""></path>
</svg>