<svg width="25" height="24" viewBox="0 0 25 24" fill="none" xmlns="http://www.w3.org/2000/svg">
<path d="M17.2544 19.6662L17.2566 21H7.66666L7.66877 19.6662C7.72643 18.5327 8.52167 17.5603 9.61854 17.2797C9.17275 17.0104 9.02792 16.4655 8.99768 15.8932C8.44152 15.8221 8.41338 15.0332 8.88518 14.8631C7.63432 12.3571 11.844 10.6485 12.1364 7.93376C12.1476 7.8304 12.0928 7.54775 12.0492 7.42117C11.9873 7.62578 11.9479 7.88593 11.7046 8.08071C11.3847 8.33595 10.5754 8.504 10.2056 8.52017C9.59172 8.54548 9.59876 9.0215 9.2029 9.12977C8.5272 9.30907 7.91055 8.56447 8.0097 7.92251C8.04626 7.67641 9.45111 6.19352 9.74571 5.79562C9.92712 5.54742 9.9665 5.45532 10.1022 5.24156C10.2583 4.99126 10.5508 4.81406 10.6359 4.6854C10.6816 4.61649 10.6408 4.48571 10.6155 4.38165C10.4938 3.86695 10.5536 3.48235 10.5923 3C11.2265 3.24116 11.5577 3.4943 12.0773 3.9218C12.452 4.2368 12.2524 4.11024 12.2678 3.9886C12.3044 3.6968 12.5322 3.57445 12.8451 3.58851C15.0593 3.67851 16.7446 6.26044 17.0364 8.26708C17.3099 10.1592 16.701 11.3573 16.2707 13.0792C16.1259 13.6565 16.0984 14.2584 15.9923 14.8497C16.521 14.9805 16.4887 15.8179 15.9255 15.8938C15.8952 16.4662 15.7504 17.0111 15.3046 17.2804C16.4015 17.5609 17.1968 18.5334 17.2544 19.6668L17.2544 19.6662Z" fill="white"/>
</svg>
