<svg width="25" height="24" viewBox="0 0 25 24" fill="none" xmlns="http://www.w3.org/2000/svg">
<path fill-rule="evenodd" clip-rule="evenodd" d="M11.2107 14.6999H13.0112V9.30009H11.2107V14.6999ZM17.5108 8.39983V8.70103C17.5108 9.86115 17.1277 11.0102 16.4308 11.9409L15.5305 13.1399C15.0665 13.7592 14.8108 14.5261 14.8108 15.2989V16.4996H9.41102V15.2989C9.41102 14.5261 9.15537 13.7592 8.69133 13.139L7.79107 11.9409C7.09415 11.0103 6.71111 9.86115 6.71111 8.70103V8.39983C6.71111 5.42236 9.1326 3 12.1109 3C15.0893 3 17.5108 5.42236 17.5108 8.39983ZM9.41102 18.3001H14.8108C14.8108 19.7884 13.5993 21 12.1109 21C10.6226 21 9.41102 19.7884 9.41102 18.3001Z" fill="white"/>
</svg>
