<svg width="25" height="24" viewBox="0 0 25 24" fill="none" xmlns="http://www.w3.org/2000/svg">
<path fill-rule="evenodd" clip-rule="evenodd" d="M10.0541 14.5013C9.77854 14.2265 9.6239 13.8532 9.6239 13.4638C9.6239 13.0744 9.77854 12.7012 10.0541 12.4264C10.634 11.8711 11.5491 11.8711 12.129 12.4264C12.4045 12.7012 12.5591 13.0744 12.5591 13.4638C12.5591 13.8532 12.4045 14.2265 12.129 14.5013C11.5491 15.0566 10.6339 15.0566 10.0541 14.5013Z" fill="white"/>
<path fill-rule="evenodd" clip-rule="evenodd" d="M18.1363 12.6822L17.2267 16.0012C17.0011 16.8236 16.3432 17.4569 15.5124 17.6509L5.37524 20L9.66916 15.7061C10.0874 15.9725 10.5731 16.1131 11.0686 16.111C11.8502 16.1117 12.5911 15.7631 13.0901 15.1614C13.5884 14.559 13.7929 13.7661 13.6475 12.9985C13.502 12.2302 13.0212 11.5674 12.3366 11.1892C11.6526 10.8117 10.8352 10.759 10.1076 11.0451C9.38084 11.3312 8.81853 11.9272 8.57534 12.6695C8.33213 13.4124 8.43265 14.225 8.84946 14.8864L4.55554 19.1803C5.05529 16.9008 6.31487 11.5524 6.89963 9.04387V9.04316C7.09151 8.20954 7.72764 7.54951 8.55423 7.32882L11.888 6.41927L18.1363 12.6822Z" fill="white"/>
<path fill-rule="evenodd" clip-rule="evenodd" d="M20.5505 10.0424C20.5175 10.3847 20.3347 10.6939 20.0508 10.8872L18.801 11.7068L12.8427 5.75401C13.0528 5.41943 13.3776 4.94919 13.6678 4.50427C13.8632 4.22101 14.1746 4.03826 14.5176 4.00452C14.8628 3.9743 15.2044 4.0966 15.4518 4.33981L20.2103 9.09833V9.09763C20.4598 9.34575 20.5849 9.69298 20.5505 10.0423V10.0424Z" fill="white"/>
</svg>
