<svg width="25" height="24" viewBox="0 0 25 24" fill="none" xmlns="http://www.w3.org/2000/svg">
<path d="M6.06468 11.2716L8.04543 12.0925C7.82202 12.6561 7.64395 13.2369 7.51258 13.8291L7.43722 14.1706L10.2769 17.0116L10.6183 16.9383V16.9376C11.2099 16.8069 11.7907 16.6288 12.3543 16.4054L13.1752 18.3862L13.1759 18.3855C13.1919 18.4255 13.2272 18.4549 13.2692 18.4629C13.3119 18.4709 13.3553 18.4575 13.3853 18.4268L14.6264 17.1858H14.627C15.0365 16.7763 15.2532 16.2121 15.2246 15.6339L15.1799 14.8363C17.478 13.1391 19.8028 10.1634 20.4363 4.97029C20.473 4.7062 20.3843 4.44011 20.1963 4.25139C20.0082 4.06265 19.7428 3.97263 19.4787 4.0073C14.2869 4.64552 11.3092 6.97296 9.61267 9.26374L8.81706 9.22306C8.23954 9.19172 7.67601 9.40512 7.26521 9.81193L6.02413 11.053C5.98878 11.083 5.97278 11.129 5.98078 11.1744C5.98945 11.2197 6.02146 11.2564 6.06481 11.2718L6.06468 11.2716ZM14.0275 8.24584C14.4676 7.80769 15.1278 7.67765 15.7014 7.91572C16.2749 8.1538 16.6483 8.71333 16.6483 9.33421C16.6483 9.95575 16.2749 10.5153 15.7014 10.7534C15.1278 10.9914 14.4676 10.8614 14.0275 10.4226C13.738 10.1345 13.5753 9.74301 13.5753 9.33421C13.5753 8.92607 13.738 8.5346 14.0275 8.24584ZM5.69455 17.2382C5.36577 17.1229 5.01299 17.0949 4.6702 17.1562C4.60818 17.1696 4.54349 17.1502 4.49948 17.1049C4.44413 17.0502 4.42879 16.9662 4.46147 16.8948C4.82559 16.1132 5.78991 14.5407 7.53656 15.8111C7.55523 15.8278 7.56523 15.8511 7.56523 15.8758C7.56523 15.9004 7.55523 15.9245 7.53656 15.9405C7.0624 16.3139 6.7943 16.8908 6.81431 17.4943C6.81698 17.567 6.875 17.625 6.94769 17.6277C7.54789 17.6517 8.12475 17.3896 8.50089 16.9208C8.51756 16.9001 8.54224 16.8888 8.56824 16.8888C8.59492 16.8888 8.61959 16.9001 8.63627 16.9208C8.87902 17.2096 9.54591 18.1519 8.80699 19.0615C8.48422 19.4496 8.02139 19.6951 7.51922 19.7444C6.80231 19.8211 5.47786 20.0552 4.93632 20.6734C4.89231 20.7254 4.82228 20.7494 4.75559 20.7354C4.68824 20.7207 4.63422 20.6707 4.61555 20.6047C4.42415 19.9525 4.12738 18.4947 5.69458 17.2382L5.69455 17.2382Z" fill="white"/>
</svg>
