<svg width="25" height="24" viewBox="0 0 25 24" fill="none" xmlns="http://www.w3.org/2000/svg">
<path fill-rule="evenodd" clip-rule="evenodd" d="M10.7772 8C10.7772 9.105 9.88221 10 8.77721 10C7.67304 10 6.77721 9.105 6.77721 8C6.77721 6.89583 7.67304 6 8.77721 6C9.88221 6 10.7772 6.89583 10.7772 8ZM16.9997 13.1118V12.2226C16.9997 11.4668 16.4223 10.8893 15.6664 10.8893H7.22225C6.46641 10.8893 5.88892 11.4668 5.88892 12.2226V16.6668C5.88892 17.3776 6.46641 18.0001 7.22225 18.0001H15.6664C16.4223 18.0001 16.9997 17.3776 16.9997 16.6668V15.7776L20.1106 18.0001V10.8893L16.9997 13.1118ZM14.1106 10C15.2156 10 16.1106 9.105 16.1106 8C16.1106 6.89583 15.2156 6 14.1106 6C13.0064 6 12.1106 6.89583 12.1106 8C12.1106 9.105 13.0064 10 14.1106 10Z" fill="white"/>
</svg>
