<svg width="25" height="24" viewBox="0 0 25 24" fill="none" xmlns="http://www.w3.org/2000/svg">
<path d="M14.2011 16.9679L13.1614 15.1856L10.2533 15.4675C10.0847 15.4838 9.92022 15.4606 9.76979 15.4049C9.74631 15.4245 9.72212 15.4435 9.6969 15.4613L11.1608 18.0983C11.2822 18.3171 11.5371 18.4252 11.7788 18.3604L13.8863 17.7957C13.8865 17.7956 13.8867 17.7956 13.887 17.7955C14.178 17.7175 14.3507 17.4184 14.2727 17.1275C14.2571 17.0692 14.2326 17.0156 14.2011 16.9679Z" fill="white"/>
<path d="M16.049 4.79271L14.4684 5.21623L14.6096 5.74311L14.6783 5.99927L14.7508 6.26998L14.7979 6.44561L14.8214 6.53343L14.9645 7.06757L16.4194 12.4974L16.5625 13.0315L16.5861 13.1193L16.6331 13.2949L16.7057 13.5657L16.7743 13.8218L16.9155 14.3487L18.4961 13.9252C18.7871 13.8472 18.9597 13.5481 18.8818 13.2571L16.7171 5.17841C16.6391 4.88743 16.34 4.71474 16.049 4.79271Z" fill="white"/>
<path d="M8.59119 8.57159L8.61666 8.66668L8.73431 9.10574L8.75784 9.19355L8.87743 9.63988L8.89901 9.72041L9.84017 13.2329L9.86175 13.3134L9.98134 13.7597L10.0049 13.8475L10.1225 14.2866L10.148 14.3817L12.5563 14.1482L15.652 13.8481L15.5795 13.5774L15.5324 13.4017L15.5089 13.3139L15.3657 12.7798L13.9108 7.35002L13.7677 6.81587L13.7442 6.72806L13.6971 6.55243L13.6246 6.28173L8.59119 8.57159Z" fill="white"/>
<path d="M5.98232 9.37247C5.69134 9.45043 5.51865 9.74954 5.59662 10.0405L6.82013 14.6067C6.89808 14.8976 7.1972 15.0704 7.48818 14.9924L9.06878 14.5689L8.95113 14.1298L8.9276 14.042L8.80801 13.5957L8.78642 13.5151L7.84527 10.0027L7.82368 9.92212L7.70409 9.4758L7.68057 9.388L7.56292 8.94894L5.98232 9.37247Z" fill="white"/>
</svg>
