<svg width="25" height="24" viewBox="0 0 25 24" fill="none" xmlns="http://www.w3.org/2000/svg">
<path d="M12.7778 3C7.81375 3 3.77777 7.03598 3.77777 12C3.77777 16.964 7.81375 21 12.7778 21C17.7418 21 21.7778 16.964 21.7778 12C21.7778 7.03598 17.7418 3 12.7778 3ZM12.7778 19.7684C8.49529 19.7684 5.00935 16.2825 5.00935 12C5.00935 7.71752 8.49529 4.23158 12.7778 4.23158C17.0603 4.23158 20.5462 7.71752 20.5462 12C20.5462 16.2825 17.0603 19.7684 12.7778 19.7684Z" fill="white"/>
<path d="M17.2305 14.0648C17.1165 13.3447 16.5673 12.7763 15.8664 12.6245L14.5971 12.3403L15.0708 13.3069C15.1085 13.3824 15.0515 13.4772 14.9761 13.4772L14.2182 13.5342C14.1804 13.5342 14.1427 13.5534 14.1234 13.5912L12.8156 15.4104C12.7964 15.4482 12.7586 15.4482 12.7209 15.4104L11.4138 13.5727C11.3946 13.5349 11.3568 13.5349 11.3191 13.5157L10.5612 13.4587C10.4857 13.4587 10.4287 13.3639 10.4664 13.2885L10.9401 12.3218L9.67081 12.606C8.95066 12.7578 8.41998 13.3262 8.30675 14.0463L8.09802 15.3157C8.02253 15.7894 8.32524 16.2438 8.78043 16.3385C9.95502 16.6035 11.319 16.7552 12.7401 16.7552C14.1804 16.7552 15.5251 16.6035 16.6997 16.3385C17.1734 16.2245 17.4768 15.7894 17.3821 15.3157L17.2305 14.0648Z" fill="white"/>
<path d="M9.55671 11.5641C9.97341 11.678 10.5611 11.7913 11.2427 11.7535C11.3182 11.8483 11.3945 11.943 11.4892 12.0185L12.74 15.1448C12.7593 15.1826 12.8155 15.1826 12.8348 15.1448L14.0856 12.0185C14.1611 11.943 14.2558 11.8483 14.3321 11.7535C14.9952 11.8105 15.6014 11.6965 16.0181 11.5641C16.2645 11.4886 16.3593 11.1851 16.2075 10.9764C15.9426 10.5974 15.6014 9.8588 15.4304 8.47553C15.1654 6.22117 13.0813 6.23955 12.7778 6.23955C12.4742 6.23955 10.3716 6.22031 10.1251 8.47553C9.97341 9.87733 9.6322 10.6168 9.34799 10.9764C9.197 11.1851 9.31024 11.4886 9.55671 11.5641Z" fill="white"/>
</svg>
