<svg width="25" height="24" viewBox="0 0 25 24" fill="none" xmlns="http://www.w3.org/2000/svg">
<path fill-rule="evenodd" clip-rule="evenodd" d="M15.2325 7.28767C15.2325 5.48971 13.7855 4 11.9448 4C10.1468 4 8.65713 5.44692 8.65713 7.28767C8.65713 9.12842 10.1041 10.5753 11.9448 10.5753C13.7428 10.5308 15.2325 9.08392 15.2325 7.28767ZM17.4687 13.4246C15.6708 13.4246 14.181 14.8715 14.181 16.7122C14.181 18.553 15.628 19.9999 17.4687 19.9999C19.3095 19.9999 20.7564 18.553 20.7564 16.7122C20.7564 14.8715 19.2667 13.4246 17.4687 13.4246ZM3.22223 16.7122C3.22223 14.8715 4.71194 13.4246 6.5099 13.4246C8.30786 13.4246 9.79757 14.8715 9.79757 16.7122C9.79757 18.553 8.35064 19.9999 6.5099 19.9999C4.66915 19.9999 3.22223 18.553 3.22223 16.7122Z" fill="white"/>
</svg>
