<svg width="370" height="63" viewBox="0 0 370 63" fill="none" xmlns="http://www.w3.org/2000/svg">
<path d="M4.1968 59.18C3.6528 59.18 3.1768 59.112 2.7688 58.976C2.3688 58.84 2.0328 58.688 1.7608 58.52C1.4408 58.328 1.1728 58.108 0.956797 57.86L2.1568 56.66C2.3008 56.828 2.4728 56.98 2.6728 57.116C2.8408 57.228 3.0448 57.332 3.2848 57.428C3.5328 57.516 3.8168 57.56 4.1368 57.56C4.6168 57.56 4.9648 57.468 5.1808 57.284C5.4048 57.1 5.5168 56.872 5.5168 56.6C5.5168 56.36 5.4128 56.172 5.2048 56.036C4.9968 55.892 4.7368 55.764 4.4248 55.652C4.1128 55.54 3.7768 55.424 3.4168 55.304C3.0568 55.184 2.7208 55.028 2.4088 54.836C2.0968 54.636 1.8368 54.384 1.6288 54.08C1.4208 53.768 1.3168 53.368 1.3168 52.88C1.3168 52.552 1.3848 52.24 1.5208 51.944C1.6648 51.64 1.8648 51.376 2.1208 51.152C2.3848 50.928 2.7048 50.752 3.0808 50.624C3.4648 50.488 3.8968 50.42 4.3768 50.42C4.8408 50.42 5.2488 50.48 5.6008 50.6C5.9608 50.72 6.2568 50.852 6.4888 50.996C6.7608 51.164 6.9968 51.352 7.1968 51.56L5.9968 52.76C5.8688 52.624 5.7288 52.504 5.5768 52.4C5.4408 52.312 5.2768 52.232 5.0848 52.16C4.8928 52.08 4.6768 52.04 4.4368 52.04C3.9808 52.04 3.6568 52.12 3.4648 52.28C3.2728 52.44 3.1768 52.64 3.1768 52.88C3.1768 53.12 3.2808 53.312 3.4888 53.456C3.6968 53.592 3.9568 53.716 4.2688 53.828C4.5808 53.94 4.9168 54.056 5.2768 54.176C5.6368 54.296 5.9728 54.456 6.2848 54.656C6.5968 54.848 6.8568 55.1 7.0648 55.412C7.2728 55.716 7.3768 56.112 7.3768 56.6C7.3768 56.944 7.3048 57.272 7.1608 57.584C7.0168 57.896 6.8048 58.172 6.5248 58.412C6.2528 58.644 5.9208 58.832 5.5288 58.976C5.1368 59.112 4.6928 59.18 4.1968 59.18ZM8.51633 53.12H10.1363V59H8.51633V53.12ZM9.32033 52.34C9.06433 52.34 8.84433 52.252 8.66033 52.076C8.48433 51.892 8.39633 51.68 8.39633 51.44C8.39633 51.2 8.48833 50.992 8.67233 50.816C8.85633 50.632 9.07633 50.54 9.33233 50.54C9.58833 50.54 9.80433 50.632 9.98033 50.816C10.1643 50.992 10.2563 51.2 10.2563 51.44C10.2563 51.68 10.1643 51.892 9.98033 52.076C9.79633 52.252 9.57633 52.34 9.32033 52.34ZM14.1521 61.52C13.7121 61.52 13.3321 61.456 13.0121 61.328C12.6921 61.208 12.4241 61.072 12.2081 60.92C11.9521 60.744 11.7401 60.544 11.5721 60.32L12.5921 59.3C12.7121 59.436 12.8521 59.556 13.0121 59.66C13.1481 59.748 13.3121 59.828 13.5041 59.9C13.6961 59.98 13.9121 60.02 14.1521 60.02C14.3761 60.02 14.5841 59.98 14.7761 59.9C14.9681 59.82 15.1321 59.708 15.2681 59.564C15.4041 59.428 15.5121 59.26 15.5921 59.06C15.6721 58.86 15.7121 58.64 15.7121 58.4V57.92H15.6521C15.5321 58.096 15.3881 58.256 15.2201 58.4C15.0761 58.52 14.8881 58.632 14.6561 58.736C14.4321 58.832 14.1641 58.88 13.8521 58.88C13.5241 58.88 13.2081 58.808 12.9041 58.664C12.6001 58.52 12.3321 58.32 12.1001 58.064C11.8681 57.808 11.6801 57.5 11.5361 57.14C11.4001 56.772 11.3321 56.372 11.3321 55.94C11.3321 55.508 11.4001 55.112 11.5361 54.752C11.6801 54.384 11.8681 54.072 12.1001 53.816C12.3321 53.56 12.6001 53.36 12.9041 53.216C13.2081 53.072 13.5241 53 13.8521 53C14.1641 53 14.4321 53.052 14.6561 53.156C14.8881 53.252 15.0761 53.36 15.2201 53.48C15.3881 53.624 15.5321 53.784 15.6521 53.96H15.7121V53.12H17.3321V58.4C17.3321 58.848 17.2521 59.264 17.0921 59.648C16.9401 60.032 16.7201 60.36 16.4321 60.632C16.1521 60.912 15.8161 61.128 15.4241 61.28C15.0401 61.44 14.6161 61.52 14.1521 61.52ZM14.3321 57.38C14.7241 57.38 15.0521 57.248 15.3161 56.984C15.5801 56.712 15.7121 56.364 15.7121 55.94C15.7121 55.516 15.5801 55.172 15.3161 54.908C15.0521 54.636 14.7241 54.5 14.3321 54.5C13.9401 54.5 13.6121 54.636 13.3481 54.908C13.0841 55.172 12.9521 55.516 12.9521 55.94C12.9521 56.364 13.0841 56.712 13.3481 56.984C13.6121 57.248 13.9401 57.38 14.3321 57.38ZM18.8874 53.12H20.5074V53.96H20.5674C20.6954 53.784 20.8434 53.624 21.0114 53.48C21.1554 53.36 21.3354 53.252 21.5514 53.156C21.7674 53.052 22.0194 53 22.3074 53C22.6034 53 22.8834 53.06 23.1474 53.18C23.4114 53.292 23.6394 53.456 23.8314 53.672C24.0314 53.88 24.1874 54.136 24.2994 54.44C24.4114 54.744 24.4674 55.084 24.4674 55.46V59H22.8474V55.7C22.8474 55.34 22.7514 55.06 22.5594 54.86C22.3674 54.66 22.1034 54.56 21.7674 54.56C21.4074 54.56 21.1074 54.684 20.8674 54.932C20.6274 55.172 20.5074 55.488 20.5074 55.88V59H18.8874V53.12ZM30.7037 59.12C30.3997 59.12 30.1157 59.064 29.8517 58.952C29.5957 58.832 29.3677 58.668 29.1677 58.46C28.9757 58.244 28.8237 57.984 28.7117 57.68C28.5997 57.376 28.5437 57.036 28.5437 56.66V53.12H30.1637V56.42C30.1637 56.78 30.2597 57.06 30.4517 57.26C30.6437 57.46 30.9077 57.56 31.2437 57.56C31.6037 57.56 31.9037 57.44 32.1437 57.2C32.3837 56.952 32.5037 56.632 32.5037 56.24V53.12H34.1237V59H32.5037V58.16H32.4437C32.3157 58.336 32.1677 58.496 31.9997 58.64C31.8557 58.76 31.6717 58.872 31.4477 58.976C31.2317 59.072 30.9837 59.12 30.7037 59.12ZM35.6804 53.12H37.3004V53.96H37.3604C37.4804 53.784 37.6324 53.624 37.8164 53.48C37.9764 53.36 38.1684 53.252 38.3924 53.156C38.6244 53.052 38.9004 53 39.2204 53C39.5644 53 39.8964 53.076 40.2164 53.228C40.5364 53.38 40.8164 53.592 41.0564 53.864C41.3044 54.128 41.5004 54.448 41.6444 54.824C41.7884 55.2 41.8604 55.612 41.8604 56.06C41.8604 56.508 41.7884 56.92 41.6444 57.296C41.5004 57.672 41.3044 57.996 41.0564 58.268C40.8164 58.54 40.5364 58.752 40.2164 58.904C39.8964 59.048 39.5644 59.12 39.2204 59.12C38.9004 59.12 38.6244 59.072 38.3924 58.976C38.1684 58.872 37.9764 58.76 37.8164 58.64C37.6324 58.496 37.4804 58.336 37.3604 58.16H37.3004V61.52H35.6804V53.12ZM38.7404 57.62C38.9484 57.62 39.1444 57.58 39.3284 57.5C39.5124 57.42 39.6724 57.312 39.8084 57.176C39.9444 57.04 40.0484 56.876 40.1204 56.684C40.2004 56.492 40.2404 56.284 40.2404 56.06C40.2404 55.836 40.2004 55.628 40.1204 55.436C40.0484 55.244 39.9444 55.08 39.8084 54.944C39.6724 54.808 39.5124 54.7 39.3284 54.62C39.1444 54.54 38.9484 54.5 38.7404 54.5C38.5324 54.5 38.3364 54.54 38.1524 54.62C37.9684 54.7 37.8084 54.808 37.6724 54.944C37.5364 55.08 37.4284 55.244 37.3484 55.436C37.2764 55.628 37.2404 55.836 37.2404 56.06C37.2404 56.284 37.2764 56.492 37.3484 56.684C37.4284 56.876 37.5364 57.04 37.6724 57.176C37.8084 57.312 37.9684 57.42 38.1524 57.5C38.3364 57.58 38.5324 57.62 38.7404 57.62Z" fill="black"/>
<path d="M142.296 50.6H144.336L147.576 59H145.656L144.936 57.08H141.696L140.976 59H139.056L142.296 50.6ZM144.336 55.46L143.34 52.7H143.292L142.296 55.46H144.336ZM150.873 61.52C150.433 61.52 150.053 61.456 149.733 61.328C149.413 61.208 149.145 61.072 148.929 60.92C148.673 60.744 148.461 60.544 148.293 60.32L149.313 59.3C149.433 59.436 149.573 59.556 149.733 59.66C149.869 59.748 150.033 59.828 150.225 59.9C150.417 59.98 150.633 60.02 150.873 60.02C151.097 60.02 151.305 59.98 151.497 59.9C151.689 59.82 151.853 59.708 151.989 59.564C152.125 59.428 152.233 59.26 152.313 59.06C152.393 58.86 152.433 58.64 152.433 58.4V57.92H152.373C152.253 58.096 152.109 58.256 151.941 58.4C151.797 58.52 151.609 58.632 151.377 58.736C151.153 58.832 150.885 58.88 150.573 58.88C150.245 58.88 149.929 58.808 149.625 58.664C149.321 58.52 149.053 58.32 148.821 58.064C148.589 57.808 148.401 57.5 148.257 57.14C148.121 56.772 148.053 56.372 148.053 55.94C148.053 55.508 148.121 55.112 148.257 54.752C148.401 54.384 148.589 54.072 148.821 53.816C149.053 53.56 149.321 53.36 149.625 53.216C149.929 53.072 150.245 53 150.573 53C150.885 53 151.153 53.052 151.377 53.156C151.609 53.252 151.797 53.36 151.941 53.48C152.109 53.624 152.253 53.784 152.373 53.96H152.433V53.12H154.053V58.4C154.053 58.848 153.973 59.264 153.813 59.648C153.661 60.032 153.441 60.36 153.153 60.632C152.873 60.912 152.537 61.128 152.145 61.28C151.761 61.44 151.337 61.52 150.873 61.52ZM151.053 57.38C151.445 57.38 151.773 57.248 152.037 56.984C152.301 56.712 152.433 56.364 152.433 55.94C152.433 55.516 152.301 55.172 152.037 54.908C151.773 54.636 151.445 54.5 151.053 54.5C150.661 54.5 150.333 54.636 150.069 54.908C149.805 55.172 149.673 55.516 149.673 55.94C149.673 56.364 149.805 56.712 150.069 56.984C150.333 57.248 150.661 57.38 151.053 57.38ZM158.368 59.12C157.936 59.12 157.528 59.04 157.144 58.88C156.768 58.72 156.436 58.5 156.148 58.22C155.868 57.94 155.648 57.616 155.488 57.248C155.328 56.88 155.248 56.484 155.248 56.06C155.248 55.644 155.328 55.252 155.488 54.884C155.648 54.508 155.868 54.18 156.148 53.9C156.428 53.62 156.752 53.4 157.12 53.24C157.488 53.08 157.884 53 158.308 53C158.716 53 159.096 53.08 159.448 53.24C159.808 53.392 160.12 53.6 160.384 53.864C160.648 54.128 160.856 54.44 161.008 54.8C161.168 55.152 161.248 55.532 161.248 55.94C161.248 56.052 161.244 56.152 161.236 56.24C161.228 56.32 161.22 56.392 161.212 56.456C161.204 56.536 161.196 56.604 161.188 56.66H156.928C157.016 56.932 157.184 57.172 157.432 57.38C157.688 57.58 158.04 57.68 158.488 57.68C158.744 57.68 158.968 57.648 159.16 57.584C159.352 57.52 159.516 57.444 159.652 57.356C159.804 57.26 159.936 57.148 160.048 57.02L160.888 58.16C160.712 58.336 160.496 58.496 160.24 58.64C160.024 58.76 159.76 58.872 159.448 58.976C159.136 59.072 158.776 59.12 158.368 59.12ZM159.568 55.46C159.48 55.188 159.32 54.952 159.088 54.752C158.864 54.544 158.584 54.44 158.248 54.44C157.912 54.44 157.628 54.544 157.396 54.752C157.172 54.952 157.016 55.188 156.928 55.46H159.568ZM162.452 53.12H164.072V53.96H164.132C164.26 53.784 164.408 53.624 164.576 53.48C164.72 53.36 164.9 53.252 165.116 53.156C165.332 53.052 165.584 53 165.872 53C166.168 53 166.448 53.06 166.712 53.18C166.976 53.292 167.204 53.456 167.396 53.672C167.596 53.88 167.752 54.136 167.864 54.44C167.976 54.744 168.032 55.084 168.032 55.46V59H166.412V55.7C166.412 55.34 166.316 55.06 166.124 54.86C165.932 54.66 165.668 54.56 165.332 54.56C164.972 54.56 164.672 54.684 164.432 54.932C164.192 55.172 164.072 55.488 164.072 55.88V59H162.452V53.12ZM172.349 59.12C171.917 59.12 171.509 59.04 171.125 58.88C170.749 58.72 170.417 58.5 170.129 58.22C169.849 57.94 169.629 57.616 169.469 57.248C169.309 56.88 169.229 56.484 169.229 56.06C169.229 55.644 169.309 55.252 169.469 54.884C169.629 54.508 169.849 54.18 170.129 53.9C170.417 53.62 170.749 53.4 171.125 53.24C171.509 53.08 171.917 53 172.349 53C172.773 53 173.137 53.064 173.441 53.192C173.745 53.312 174.001 53.448 174.209 53.6C174.449 53.776 174.649 53.976 174.809 54.2L173.789 55.22C173.677 55.084 173.549 54.964 173.405 54.86C173.277 54.772 173.125 54.692 172.949 54.62C172.773 54.54 172.573 54.5 172.349 54.5C172.141 54.5 171.945 54.54 171.761 54.62C171.577 54.7 171.417 54.808 171.281 54.944C171.145 55.08 171.037 55.244 170.957 55.436C170.885 55.628 170.849 55.836 170.849 56.06C170.849 56.284 170.885 56.492 170.957 56.684C171.037 56.876 171.145 57.04 171.281 57.176C171.417 57.312 171.577 57.42 171.761 57.5C171.945 57.58 172.141 57.62 172.349 57.62C172.573 57.62 172.773 57.584 172.949 57.512C173.125 57.432 173.277 57.348 173.405 57.26C173.549 57.156 173.677 57.036 173.789 56.9L174.809 57.92C174.649 58.144 174.449 58.344 174.209 58.52C174.001 58.672 173.745 58.812 173.441 58.94C173.137 59.06 172.773 59.12 172.349 59.12ZM176.543 61.52C176.391 61.52 176.247 61.512 176.111 61.496C175.983 61.48 175.871 61.46 175.775 61.436C175.663 61.404 175.559 61.372 175.463 61.34V59.84C175.519 59.864 175.583 59.884 175.655 59.9C175.791 59.94 175.947 59.96 176.123 59.96C176.395 59.96 176.611 59.892 176.771 59.756C176.931 59.62 177.055 59.448 177.143 59.24L177.263 58.94L174.983 53.12H176.723L178.103 57.02H178.163L179.483 53.12H181.223L178.823 59.48C178.575 60.144 178.267 60.648 177.899 60.992C177.539 61.344 177.087 61.52 176.543 61.52ZM184.525 50.6H188.245C188.693 50.6 189.097 50.668 189.457 50.804C189.825 50.94 190.137 51.132 190.393 51.38C190.649 51.628 190.845 51.928 190.981 52.28C191.117 52.624 191.185 53.004 191.185 53.42C191.185 53.9 191.109 54.3 190.957 54.62C190.813 54.94 190.649 55.192 190.465 55.376C190.257 55.592 190.017 55.76 189.745 55.88L191.485 59H189.505L188.005 56.24H186.325V59H184.525V50.6ZM188.185 54.56C188.521 54.56 188.793 54.456 189.001 54.248C189.217 54.032 189.325 53.756 189.325 53.42C189.325 53.084 189.217 52.812 189.001 52.604C188.793 52.388 188.521 52.28 188.185 52.28H186.325V54.56H188.185ZM195.329 59.12C194.897 59.12 194.489 59.04 194.105 58.88C193.729 58.72 193.397 58.5 193.109 58.22C192.829 57.94 192.609 57.616 192.449 57.248C192.289 56.88 192.209 56.484 192.209 56.06C192.209 55.644 192.289 55.252 192.449 54.884C192.609 54.508 192.829 54.18 193.109 53.9C193.389 53.62 193.713 53.4 194.081 53.24C194.449 53.08 194.845 53 195.269 53C195.677 53 196.057 53.08 196.409 53.24C196.769 53.392 197.081 53.6 197.345 53.864C197.609 54.128 197.817 54.44 197.969 54.8C198.129 55.152 198.209 55.532 198.209 55.94C198.209 56.052 198.205 56.152 198.197 56.24C198.189 56.32 198.181 56.392 198.173 56.456C198.165 56.536 198.157 56.604 198.149 56.66H193.889C193.977 56.932 194.145 57.172 194.393 57.38C194.649 57.58 195.001 57.68 195.449 57.68C195.705 57.68 195.929 57.648 196.121 57.584C196.313 57.52 196.477 57.444 196.613 57.356C196.765 57.26 196.897 57.148 197.009 57.02L197.849 58.16C197.673 58.336 197.457 58.496 197.201 58.64C196.985 58.76 196.721 58.872 196.409 58.976C196.097 59.072 195.737 59.12 195.329 59.12ZM196.529 55.46C196.441 55.188 196.281 54.952 196.049 54.752C195.825 54.544 195.545 54.44 195.209 54.44C194.873 54.44 194.589 54.544 194.357 54.752C194.133 54.952 193.977 55.188 193.889 55.46H196.529ZM198.573 53.12H200.313L201.669 57.08H201.717L203.073 53.12H204.813L202.593 59H200.793L198.573 53.12ZM205.53 53.12H207.15V59H205.53V53.12ZM206.334 52.34C206.078 52.34 205.858 52.252 205.674 52.076C205.498 51.892 205.41 51.68 205.41 51.44C205.41 51.2 205.502 50.992 205.686 50.816C205.87 50.632 206.09 50.54 206.346 50.54C206.602 50.54 206.818 50.632 206.994 50.816C207.178 50.992 207.27 51.2 207.27 51.44C207.27 51.68 207.178 51.892 206.994 52.076C206.81 52.252 206.59 52.34 206.334 52.34ZM211.466 59.12C211.034 59.12 210.626 59.04 210.242 58.88C209.866 58.72 209.534 58.5 209.246 58.22C208.966 57.94 208.746 57.616 208.586 57.248C208.426 56.88 208.346 56.484 208.346 56.06C208.346 55.644 208.426 55.252 208.586 54.884C208.746 54.508 208.966 54.18 209.246 53.9C209.526 53.62 209.85 53.4 210.218 53.24C210.586 53.08 210.982 53 211.406 53C211.814 53 212.194 53.08 212.546 53.24C212.906 53.392 213.218 53.6 213.482 53.864C213.746 54.128 213.954 54.44 214.106 54.8C214.266 55.152 214.346 55.532 214.346 55.94C214.346 56.052 214.342 56.152 214.334 56.24C214.326 56.32 214.318 56.392 214.31 56.456C214.302 56.536 214.294 56.604 214.286 56.66H210.026C210.114 56.932 210.282 57.172 210.53 57.38C210.786 57.58 211.138 57.68 211.586 57.68C211.842 57.68 212.066 57.648 212.258 57.584C212.45 57.52 212.614 57.444 212.75 57.356C212.902 57.26 213.034 57.148 213.146 57.02L213.986 58.16C213.81 58.336 213.594 58.496 213.338 58.64C213.122 58.76 212.858 58.872 212.546 58.976C212.234 59.072 211.874 59.12 211.466 59.12ZM212.666 55.46C212.578 55.188 212.418 54.952 212.186 54.752C211.962 54.544 211.682 54.44 211.346 54.44C211.01 54.44 210.726 54.544 210.494 54.752C210.27 54.952 210.114 55.188 210.026 55.46H212.666ZM214.71 53.12H216.45L217.53 56.6H217.59L218.73 53.12H220.05L221.19 56.6H221.25L222.33 53.12H224.07L222.006 59H220.53L219.414 55.58H219.366L218.25 59H216.774L214.71 53.12Z" fill="black"/>
<path d="M317.138 50.6H319.178L322.418 59H320.498L319.778 57.08H316.538L315.818 59H313.898L317.138 50.6ZM319.178 55.46L318.182 52.7H318.134L317.138 55.46H319.178ZM323.255 53.12H324.875V53.96H324.935C325.055 53.784 325.207 53.624 325.391 53.48C325.551 53.36 325.743 53.252 325.967 53.156C326.199 53.052 326.475 53 326.795 53C327.139 53 327.471 53.076 327.791 53.228C328.111 53.38 328.391 53.592 328.631 53.864C328.879 54.128 329.075 54.448 329.219 54.824C329.363 55.2 329.435 55.612 329.435 56.06C329.435 56.508 329.363 56.92 329.219 57.296C329.075 57.672 328.879 57.996 328.631 58.268C328.391 58.54 328.111 58.752 327.791 58.904C327.471 59.048 327.139 59.12 326.795 59.12C326.475 59.12 326.199 59.072 325.967 58.976C325.743 58.872 325.551 58.76 325.391 58.64C325.207 58.496 325.055 58.336 324.935 58.16H324.875V61.52H323.255V53.12ZM326.315 57.62C326.523 57.62 326.719 57.58 326.903 57.5C327.087 57.42 327.247 57.312 327.383 57.176C327.519 57.04 327.623 56.876 327.695 56.684C327.775 56.492 327.815 56.284 327.815 56.06C327.815 55.836 327.775 55.628 327.695 55.436C327.623 55.244 327.519 55.08 327.383 54.944C327.247 54.808 327.087 54.7 326.903 54.62C326.719 54.54 326.523 54.5 326.315 54.5C326.107 54.5 325.911 54.54 325.727 54.62C325.543 54.7 325.383 54.808 325.247 54.944C325.111 55.08 325.003 55.244 324.923 55.436C324.851 55.628 324.815 55.836 324.815 56.06C324.815 56.284 324.851 56.492 324.923 56.684C325.003 56.876 325.111 57.04 325.247 57.176C325.383 57.312 325.543 57.42 325.727 57.5C325.911 57.58 326.107 57.62 326.315 57.62ZM330.637 53.12H332.257V53.96H332.317C332.437 53.784 332.589 53.624 332.773 53.48C332.933 53.36 333.125 53.252 333.349 53.156C333.581 53.052 333.857 53 334.177 53C334.521 53 334.853 53.076 335.173 53.228C335.493 53.38 335.773 53.592 336.013 53.864C336.261 54.128 336.457 54.448 336.601 54.824C336.745 55.2 336.817 55.612 336.817 56.06C336.817 56.508 336.745 56.92 336.601 57.296C336.457 57.672 336.261 57.996 336.013 58.268C335.773 58.54 335.493 58.752 335.173 58.904C334.853 59.048 334.521 59.12 334.177 59.12C333.857 59.12 333.581 59.072 333.349 58.976C333.125 58.872 332.933 58.76 332.773 58.64C332.589 58.496 332.437 58.336 332.317 58.16H332.257V61.52H330.637V53.12ZM333.697 57.62C333.905 57.62 334.101 57.58 334.285 57.5C334.469 57.42 334.629 57.312 334.765 57.176C334.901 57.04 335.005 56.876 335.077 56.684C335.157 56.492 335.197 56.284 335.197 56.06C335.197 55.836 335.157 55.628 335.077 55.436C335.005 55.244 334.901 55.08 334.765 54.944C334.629 54.808 334.469 54.7 334.285 54.62C334.101 54.54 333.905 54.5 333.697 54.5C333.489 54.5 333.293 54.54 333.109 54.62C332.925 54.7 332.765 54.808 332.629 54.944C332.493 55.08 332.385 55.244 332.305 55.436C332.233 55.628 332.197 55.836 332.197 56.06C332.197 56.284 332.233 56.492 332.305 56.684C332.385 56.876 332.493 57.04 332.629 57.176C332.765 57.312 332.925 57.42 333.109 57.5C333.293 57.58 333.489 57.62 333.697 57.62ZM338.02 53.12H339.64V53.96H339.7C339.828 53.784 339.976 53.624 340.144 53.48C340.288 53.36 340.468 53.252 340.684 53.156C340.9 53.052 341.152 53 341.44 53H341.56V54.74C341.52 54.732 341.476 54.724 341.428 54.716C341.38 54.708 341.32 54.7 341.248 54.692C341.184 54.684 341.108 54.68 341.02 54.68C340.628 54.68 340.3 54.82 340.036 55.1C339.772 55.38 339.64 55.76 339.64 56.24V59H338.02V53.12ZM345.222 59.12C344.79 59.12 344.382 59.04 343.998 58.88C343.622 58.72 343.29 58.5 343.002 58.22C342.722 57.94 342.502 57.616 342.342 57.248C342.182 56.88 342.102 56.484 342.102 56.06C342.102 55.644 342.182 55.252 342.342 54.884C342.502 54.508 342.722 54.18 343.002 53.9C343.29 53.62 343.622 53.4 343.998 53.24C344.382 53.08 344.79 53 345.222 53C345.654 53 346.058 53.08 346.434 53.24C346.818 53.4 347.15 53.62 347.43 53.9C347.718 54.18 347.942 54.508 348.102 54.884C348.262 55.252 348.342 55.644 348.342 56.06C348.342 56.484 348.262 56.88 348.102 57.248C347.942 57.616 347.718 57.94 347.43 58.22C347.15 58.5 346.818 58.72 346.434 58.88C346.058 59.04 345.654 59.12 345.222 59.12ZM345.222 57.62C345.43 57.62 345.626 57.58 345.81 57.5C345.994 57.42 346.154 57.312 346.29 57.176C346.426 57.04 346.53 56.876 346.602 56.684C346.682 56.492 346.722 56.284 346.722 56.06C346.722 55.836 346.682 55.628 346.602 55.436C346.53 55.244 346.426 55.08 346.29 54.944C346.154 54.808 345.994 54.7 345.81 54.62C345.626 54.54 345.43 54.5 345.222 54.5C345.014 54.5 344.818 54.54 344.634 54.62C344.45 54.7 344.29 54.808 344.154 54.944C344.018 55.08 343.91 55.244 343.83 55.436C343.758 55.628 343.722 55.836 343.722 56.06C343.722 56.284 343.758 56.492 343.83 56.684C343.91 56.876 344.018 57.04 344.154 57.176C344.29 57.312 344.45 57.42 344.634 57.5C344.818 57.58 345.014 57.62 345.222 57.62ZM348.7 53.12H350.44L351.796 57.08H351.844L353.2 53.12H354.94L352.72 59H350.92L348.7 53.12ZM358.417 59.12C357.985 59.12 357.577 59.04 357.193 58.88C356.817 58.72 356.485 58.5 356.197 58.22C355.917 57.94 355.697 57.616 355.537 57.248C355.377 56.88 355.297 56.484 355.297 56.06C355.297 55.644 355.377 55.252 355.537 54.884C355.697 54.508 355.917 54.18 356.197 53.9C356.477 53.62 356.801 53.4 357.169 53.24C357.537 53.08 357.933 53 358.357 53C358.765 53 359.145 53.08 359.497 53.24C359.857 53.392 360.169 53.6 360.433 53.864C360.697 54.128 360.905 54.44 361.057 54.8C361.217 55.152 361.297 55.532 361.297 55.94C361.297 56.052 361.293 56.152 361.285 56.24C361.277 56.32 361.269 56.392 361.261 56.456C361.253 56.536 361.245 56.604 361.237 56.66H356.977C357.065 56.932 357.233 57.172 357.481 57.38C357.737 57.58 358.089 57.68 358.537 57.68C358.793 57.68 359.017 57.648 359.209 57.584C359.401 57.52 359.565 57.444 359.701 57.356C359.853 57.26 359.985 57.148 360.097 57.02L360.937 58.16C360.761 58.336 360.545 58.496 360.289 58.64C360.073 58.76 359.809 58.872 359.497 58.976C359.185 59.072 358.825 59.12 358.417 59.12ZM359.617 55.46C359.529 55.188 359.369 54.952 359.137 54.752C358.913 54.544 358.633 54.44 358.297 54.44C357.961 54.44 357.677 54.544 357.445 54.752C357.221 54.952 357.065 55.188 356.977 55.46H359.617ZM364.781 59.12C364.437 59.12 364.105 59.048 363.785 58.904C363.465 58.752 363.181 58.54 362.933 58.268C362.693 57.996 362.501 57.672 362.357 57.296C362.213 56.92 362.141 56.508 362.141 56.06C362.141 55.612 362.213 55.2 362.357 54.824C362.501 54.448 362.693 54.128 362.933 53.864C363.181 53.592 363.465 53.38 363.785 53.228C364.105 53.076 364.437 53 364.781 53C365.093 53 365.365 53.052 365.597 53.156C365.829 53.252 366.025 53.36 366.185 53.48C366.369 53.624 366.521 53.784 366.641 53.96H366.701V50.6H368.321V59H366.701V58.16H366.641C366.521 58.336 366.369 58.496 366.185 58.64C366.025 58.76 365.829 58.872 365.597 58.976C365.365 59.072 365.093 59.12 364.781 59.12ZM365.261 57.62C365.469 57.62 365.665 57.58 365.849 57.5C366.033 57.42 366.193 57.312 366.329 57.176C366.465 57.04 366.569 56.876 366.641 56.684C366.721 56.492 366.761 56.284 366.761 56.06C366.761 55.836 366.721 55.628 366.641 55.436C366.569 55.244 366.465 55.08 366.329 54.944C366.193 54.808 366.033 54.7 365.849 54.62C365.665 54.54 365.469 54.5 365.261 54.5C365.053 54.5 364.857 54.54 364.673 54.62C364.489 54.7 364.329 54.808 364.193 54.944C364.057 55.08 363.949 55.244 363.869 55.436C363.797 55.628 363.761 55.836 363.761 56.06C363.761 56.284 363.797 56.492 363.869 56.684C363.949 56.876 364.057 57.04 364.193 57.176C364.329 57.312 364.489 57.42 364.673 57.5C364.857 57.58 365.053 57.62 365.261 57.62Z" fill="black"/>
<circle cx="22" cy="20" r="20" fill="#2FC497"/>
<path d="M180.954 40.0142C191.422 40.0142 199.908 31.5282 199.908 21.0601C199.908 10.5921 191.422 2.10601 180.954 2.10601C170.486 2.10601 162 10.5921 162 21.0601C162 31.5282 170.486 40.0142 180.954 40.0142Z" fill="#F3A446"/>
<path d="M183.046 37.9082C193.514 37.9082 202 29.4221 202 18.9541C202 8.48604 193.514 0 183.046 0C172.578 0 164.092 8.48604 164.092 18.9541C164.092 29.4221 172.578 37.9082 183.046 37.9082Z" fill="#FFE5B6"/>
<path d="M169.584 19.2956C168.73 18.7691 168.218 19.2529 167.919 19.9787C167.691 20.5336 167.634 21.1313 167.706 21.7289C167.791 22.4689 167.891 23.1946 168.061 23.9203C168.246 24.7456 168.602 26.5386 169.683 26.6524C171.363 26.809 171.178 24.1338 171.106 23.1234C171.007 21.8143 170.808 20.064 169.584 19.2956Z" fill="#FFD99C"/>
<path d="M198.328 23.223C197.717 24.1053 197.475 25.2294 197.019 26.1971C196.436 27.435 195.611 28.2746 194.415 28.9576C193.746 29.3418 193.063 29.6976 192.508 30.2526C191.783 30.9925 191.313 32.0882 191.27 33.127C191.242 34.0377 191.541 34.8772 191.982 35.6883C196.436 33.2977 199.823 29.1995 201.246 24.2618C200.449 23.2373 199.196 21.9566 198.328 23.223Z" fill="#FFD99C"/>
<path d="M167.905 11.2842C168.873 12.4938 170.04 13.6606 171.505 14.2583C174.494 15.4678 177.169 13.1341 178.805 10.8289C179.559 9.77587 180.214 8.62326 181.125 7.68409C182.092 6.67378 183.273 6.07613 184.654 5.84845C186.375 5.57808 188.097 5.62077 189.677 4.78121C190.758 4.21202 191.683 3.40092 192.537 2.53291C189.748 0.924937 186.518 0 183.06 0C176.03 0 169.897 3.82782 166.639 9.50551C167.023 10.1174 167.436 10.715 167.905 11.2842Z" fill="#FFD99C"/>
<path d="M198.187 10.4162C196.608 8.83669 195.028 7.25718 193.449 5.67768C193.249 5.47846 192.95 5.79151 193.15 5.9765C194.729 7.55601 196.309 9.13552 197.888 10.715C198.087 10.9142 198.386 10.6154 198.187 10.4162Z" fill="white"/>
<path d="M196.664 11.8392L195.056 10.2312C194.857 10.032 194.558 10.3451 194.757 10.5301L196.365 12.138C196.564 12.3372 196.863 12.0384 196.664 11.8392Z" fill="#FFD99C"/>
<path d="M172.559 31.5617C171.805 30.8075 171.05 30.0533 170.296 29.2992C170.097 29.0999 169.798 29.413 169.997 29.598C170.666 30.2668 171.321 30.9214 171.99 31.5902L172.26 31.8605C172.445 32.0597 172.758 31.7467 172.559 31.5617Z" fill="#FFD99C"/>
<path d="M166.881 16.2077L165.643 14.9697C165.444 14.7705 165.145 15.0836 165.344 15.2686C165.757 15.6812 166.169 16.0939 166.582 16.5066C166.781 16.7058 167.08 16.3927 166.881 16.2077Z" fill="#FFD99C"/>
<path d="M189.948 31.3198L189.094 30.466C188.895 30.2668 188.596 30.5798 188.795 30.7648L189.649 31.6186C189.834 31.8178 190.133 31.519 189.948 31.3198Z" fill="#FFD99C"/>
<path d="M173.526 8.23906C172.544 7.2572 171.562 6.27534 170.58 5.29349C170.381 5.09427 170.082 5.40732 170.282 5.59231C171.263 6.57417 172.245 7.55602 173.227 8.53788C173.412 8.7371 173.711 8.42404 173.526 8.23906Z" fill="#FFE5B6"/>
<path d="M173.612 5.86269C173.014 5.26504 172.417 4.66739 171.805 4.05551C171.606 3.85629 171.307 4.16934 171.506 4.35433C172.104 4.95198 172.701 5.54963 173.313 6.16152C173.513 6.36073 173.811 6.06191 173.612 5.86269Z" fill="#FFE5B6"/>
<path d="M196.378 31.3767L195.525 30.5229C195.325 30.3237 195.027 30.6368 195.226 30.8218L196.08 31.6755C196.279 31.8748 196.578 31.5759 196.378 31.3767Z" fill="#FFE5B6"/>
<path d="M173.897 26.5386L168.02 20.6617C167.821 20.4625 167.522 20.7755 167.721 20.9605L173.598 26.8374C173.797 27.0366 174.096 26.7378 173.897 26.5386Z" fill="#FFE5B6"/>
<path d="M172.146 36.3144L169.584 33.7531C169.385 33.5539 169.086 33.8669 169.285 34.0519L171.847 36.6133C172.046 36.8125 172.345 36.5137 172.146 36.3144Z" fill="#FFE5B6"/>
<path d="M174.607 37.1682C174.294 36.8552 173.981 36.5421 173.654 36.2149C173.454 36.0156 173.156 36.3287 173.355 36.5137C173.668 36.8267 173.981 37.1398 174.308 37.4671C174.507 37.6663 174.806 37.3675 174.607 37.1682Z" fill="#FFE5B6"/>
<path d="M191.798 13.0345C191.798 15.6813 190.603 18.0576 188.738 19.6514C187.657 20.5763 186.348 21.2309 184.896 21.5297V25.6706C184.896 26.4248 184.427 27.0651 183.772 27.3212C183.573 27.4066 183.345 27.4493 183.118 27.4493C182.136 27.4493 181.339 26.6524 181.339 25.6706V19.936C181.339 19.7083 181.382 19.4806 181.467 19.2814C181.723 18.6268 182.363 18.1573 183.118 18.1573C184.285 18.1573 185.352 17.7731 186.206 17.1185C187.444 16.1793 188.24 14.6994 188.24 13.0345C188.24 10.217 185.949 7.9118 183.118 7.9118C181.453 7.9118 179.973 8.70867 179.034 9.94666C178.379 10.8005 177.995 11.8819 177.995 13.0345C177.995 13.7887 177.525 14.429 176.871 14.6852C176.672 14.7706 176.444 14.8133 176.216 14.8133C175.234 14.8133 174.438 14.0164 174.438 13.0345C174.438 10.9001 175.22 8.93635 176.501 7.41376C178.095 5.53542 180.471 4.35435 183.118 4.35435C187.899 4.35435 191.798 8.25332 191.798 13.0345Z" fill="#0E1E36"/>
<path d="M184.896 31.6471C184.896 32.4013 184.427 33.0416 183.772 33.2977C183.573 33.3831 183.345 33.4258 183.118 33.4258C182.136 33.4258 181.339 32.6289 181.339 31.6471C181.339 31.4194 181.382 31.1917 181.467 30.9925C181.723 30.3379 182.363 29.8684 183.118 29.8684C184.099 29.8684 184.896 30.6652 184.896 31.6471Z" fill="#0E1E36"/>
<path d="M190.802 14.0306C190.802 16.1651 190.019 18.1288 188.738 19.6514C187.657 20.5763 186.348 21.2309 184.896 21.5297V22.2554C184.569 22.3693 184.242 22.4546 183.9 22.5258V26.6667C183.9 26.8943 183.858 27.122 183.772 27.3212C183.573 27.4066 183.345 27.4493 183.118 27.4493C182.136 27.4493 181.339 26.6524 181.339 25.6706V19.936C181.339 19.7083 181.382 19.4806 181.467 19.2814C181.666 19.196 181.894 19.1533 182.122 19.1533C183.786 19.1533 185.266 18.3565 186.206 17.1185C187.444 16.1793 188.24 14.6994 188.24 13.0345C188.24 10.217 185.949 7.91179 183.118 7.91179C181.453 7.91179 179.973 8.70866 179.034 9.94665C177.796 10.8858 176.999 12.3657 176.999 14.0306C176.999 14.2583 176.956 14.486 176.871 14.6852C176.672 14.7705 176.444 14.8132 176.216 14.8132C175.234 14.8132 174.438 14.0164 174.438 13.0345C174.438 10.9 175.22 8.93633 176.501 7.41374C178.023 6.11883 179.973 5.35042 182.122 5.35042C186.903 5.35042 190.802 9.24939 190.802 14.0306Z" fill="#4A57F6"/>
<path d="M183.9 32.6432C183.9 32.8708 183.858 33.0985 183.772 33.2977C183.573 33.3831 183.345 33.4258 183.118 33.4258C182.136 33.4258 181.339 32.6289 181.339 31.6471C181.339 31.4194 181.382 31.1917 181.467 30.9925C181.666 30.9071 181.894 30.8644 182.122 30.8644C183.103 30.8644 183.9 31.6613 183.9 32.6432Z" fill="#4A57F6"/>
<path d="M184.896 21.5297V23.0238L183.9 22.5258L184.896 21.5297Z" fill="#0E1E36"/>
<path d="M189.493 9.84702C189.023 9.37744 188.539 8.89363 188.07 8.42404C187.87 8.22483 187.572 8.53788 187.771 8.72287C188.24 9.19245 188.724 9.67627 189.194 10.1459C189.393 10.3451 189.692 10.032 189.493 9.84702Z" fill="#0E1E36"/>
<path d="M190.843 11.7823C190.587 11.5261 190.331 11.27 190.089 11.0281C189.89 10.8289 189.591 11.1419 189.79 11.3269C190.046 11.5831 190.303 11.8392 190.544 12.0811C190.744 12.2803 191.043 11.9815 190.843 11.7823Z" fill="#0E1E36"/>
<path d="M177.227 11.3839C176.814 10.9712 176.401 10.5585 175.989 10.1459C175.789 9.94665 175.491 10.2597 175.69 10.4447C176.102 10.8574 176.515 11.27 176.928 11.6827C177.127 11.8819 177.426 11.5831 177.227 11.3839Z" fill="#0E1E36"/>
<path d="M184.255 22.0135C183.657 21.4158 183.059 20.8182 182.448 20.2063C182.248 20.0071 181.949 20.3202 182.149 20.5051C182.746 21.1028 183.344 21.7004 183.956 22.3123C184.141 22.5115 184.44 22.1985 184.255 22.0135Z" fill="#0E1E36"/>
<path d="M183.501 23.8492C183.244 23.593 182.988 23.3369 182.746 23.095C182.547 22.8958 182.248 23.2088 182.448 23.3938C182.704 23.6499 182.96 23.9061 183.202 24.148C183.401 24.3472 183.7 24.0484 183.501 23.8492Z" fill="#0E1E36"/>
<path d="M171.264 18.9399C171.691 18.9256 172.047 18.5984 172.047 18.1572C172.047 17.6165 172.047 9.73319 172.047 9.19246C172.047 8.7798 171.691 8.39559 171.264 8.40982C170.837 8.42405 170.481 8.75134 170.481 9.19246C170.481 9.73319 170.481 17.6165 170.481 18.1572C170.496 18.5699 170.851 18.9541 171.264 18.9399Z" fill="white"/>
<path d="M194.258 8.82248L191.412 5.97652C191.213 5.7773 190.914 6.09036 191.114 6.27534C192.067 7.22874 193.006 8.16791 193.96 9.1213C194.144 9.32052 194.443 9.0217 194.258 8.82248Z" fill="white"/>
<circle cx="342" cy="20" r="20" fill="#E7E9EB"/>
<path d="M354.757 17.2356L345.107 26.8863L341.08 30.9127C339.994 31.9992 338.247 31.9992 337.16 30.9127L333.134 26.8863L339.12 20.8998L348.771 11.2598C349.847 10.1733 351.604 10.1733 352.691 11.2598L354.757 13.3263C355.833 14.4021 355.833 16.1597 354.757 17.2356Z" fill="#3E4B5E"/>
<path d="M345.106 26.8863L341.079 30.9127C339.993 31.9992 338.246 31.9992 337.159 30.9127L333.133 26.8863L327.807 21.5603C326.731 20.4738 326.731 18.7268 327.807 17.6403L329.873 15.5738C330.96 14.4873 332.707 14.4873 333.793 15.5738L345.106 26.8863Z" fill="#3E4B5E"/>
<path d="M356.194 15.7975L346.543 25.4482L342.517 29.4747C341.984 30.0073 341.281 30.2736 340.589 30.2842C339.875 30.2949 339.151 30.0179 338.607 29.4747L334.57 25.4482L340.557 19.4618L342.368 17.651L350.197 9.82177C350.804 9.2146 351.613 8.9483 352.412 9.02287C353.03 9.07613 353.637 9.34243 354.117 9.82177L356.183 11.8883C357.27 12.9641 357.27 14.7217 356.194 15.7975Z" fill="#3E4B5E"/>
<path d="M346.544 25.4483L342.518 29.4747C341.431 30.5612 339.684 30.5612 338.598 29.4747L334.571 25.4483L329.245 20.1223C328.17 19.0358 328.17 17.2888 329.245 16.2023L331.312 14.1358C332.398 13.0493 334.145 13.0493 335.232 14.1358L346.544 25.4483Z" fill="#3E4B5E"/>
<path d="M352.424 9.01222C352.402 9.1507 352.381 9.28917 352.36 9.4383C352.232 10.3437 352.339 11.1533 351.518 11.7391C350.996 12.1119 350.411 12.3782 349.995 12.9002C349.697 13.273 349.505 13.7204 349.324 14.1678C348.823 15.3715 348.472 16.7243 347.609 17.7469C347.194 18.2475 346.64 18.6097 345.979 18.6736C345.202 18.7481 344.882 18.1729 344.456 17.6403C344.158 17.2569 343.753 16.916 343.252 17.1503C343.135 17.2036 343.029 17.2888 342.933 17.3634C342.837 17.4379 342.752 17.5125 342.656 17.5764C342.571 17.6297 342.475 17.651 342.379 17.651L350.208 9.82177C350.815 9.20396 351.625 8.93766 352.424 9.01222Z" fill="#868E9A"/>
<path d="M344.083 27.9088L342.517 29.4747C341.984 30.0073 341.281 30.2736 340.589 30.2842C340.578 30.2203 340.578 30.1564 340.578 30.0925C340.557 29.6984 340.578 29.2297 340.887 28.9421C341.185 28.6651 341.622 28.6758 341.974 28.516C342.57 28.2284 342.89 27.3336 343.678 27.6532C343.816 27.7171 343.955 27.8023 344.083 27.9088Z" fill="#868E9A"/>
<path d="M346.501 22.9344C347.481 21.9544 348.45 20.9851 349.43 20.0051C349.931 19.5044 349.153 18.7162 348.653 19.2275C347.673 20.2075 346.703 21.1768 345.723 22.1568C345.212 22.6574 346 23.435 346.501 22.9344Z" fill="white"/>
<path d="M331.29 19.2381C331.087 19.4618 331.077 19.8027 331.29 20.0157C331.556 20.282 331.833 20.559 332.099 20.8253C332.302 21.0277 332.674 21.049 332.877 20.8253C333.079 20.6016 333.09 20.2607 332.877 20.0477C332.61 19.7814 332.333 19.5044 332.067 19.2381C331.865 19.0357 331.492 19.0251 331.29 19.2381Z" fill="white"/>
<path d="M348.142 13.9334C348.121 13.8695 348.078 13.8269 348.014 13.8056C347.961 13.795 347.908 13.8056 347.865 13.8482L347.449 14.2637L347.396 14.3063L346.033 15.6697C345.99 15.7123 345.98 15.7656 345.99 15.8188C346.001 15.8721 346.054 15.9254 346.118 15.9467C346.129 15.9467 346.15 15.9467 346.161 15.9467C346.203 15.9467 346.246 15.9254 346.267 15.8934L347.694 14.466L347.748 14.4234L348.099 14.0719C348.142 14.04 348.153 13.9867 348.142 13.9334Z" fill="#3E4B5E"/>
<path d="M348.92 11.9841C348.888 11.9522 348.856 11.9415 348.813 11.9309C348.77 11.9309 348.728 11.9415 348.685 11.9841L348.131 12.538C348.057 12.6126 348.078 12.7084 348.131 12.7617C348.163 12.7937 348.206 12.815 348.248 12.815C348.291 12.815 348.323 12.8043 348.355 12.7617L348.909 12.2078C348.941 12.1758 348.962 12.1332 348.962 12.08C348.973 12.048 348.951 12.0054 348.92 11.9841Z" fill="#3E4B5E"/>
<path d="M338.001 29.7303L336.681 28.4095C336.531 28.2604 336.297 28.4947 336.446 28.6438L337.767 29.9647C337.916 30.1245 338.151 29.8901 338.001 29.7303Z" fill="#868E9A"/>
<path d="M353.606 16.8095C353.585 16.7562 353.542 16.703 353.478 16.6923C353.425 16.6817 353.372 16.6923 353.329 16.7349L351.231 18.8334C351.156 18.9079 351.178 19.0038 351.231 19.0677C351.263 19.0997 351.305 19.121 351.348 19.121C351.391 19.121 351.423 19.1103 351.455 19.0677L353.553 16.9693C353.606 16.9266 353.617 16.8627 353.606 16.8095Z" fill="#868E9A"/>
<path d="M353.83 15.5419C353.809 15.4886 353.766 15.4354 353.702 15.4141C353.649 15.4034 353.596 15.4141 353.553 15.4567L352.616 16.394C352.541 16.4686 352.562 16.5645 352.616 16.6284C352.648 16.6603 352.68 16.671 352.722 16.6817H352.733C352.775 16.6817 352.818 16.6603 352.839 16.6284L353.777 15.691C353.83 15.6484 353.841 15.5952 353.83 15.5419Z" fill="#3E4B5E"/>
<path d="M343.242 17.619C343.2 17.5764 343.136 17.5551 343.082 17.5764C343.061 17.5871 343.04 17.5977 343.018 17.619L342.134 18.5032C342.092 18.5458 342.081 18.599 342.092 18.6523C342.102 18.7055 342.156 18.7588 342.209 18.7801C342.22 18.7801 342.241 18.7801 342.252 18.7801C342.294 18.7801 342.337 18.7588 342.358 18.7268L343.242 17.8427C343.317 17.7682 343.295 17.6723 343.242 17.619Z" fill="#868E9A"/>
<path d="M342.688 19.334C342.645 19.334 342.603 19.3447 342.56 19.3873L342.23 19.7175C342.187 19.7601 342.177 19.8133 342.187 19.8666C342.209 19.9199 342.251 19.9731 342.315 19.9944C342.326 19.9944 342.347 19.9944 342.358 19.9944C342.4 19.9944 342.443 19.9731 342.464 19.9412L342.795 19.611C342.869 19.5364 342.848 19.4405 342.795 19.3873C342.763 19.3553 342.731 19.334 342.688 19.334Z" fill="#868E9A"/>
<path d="M337.713 17.7788L336.392 16.458C336.318 16.3834 336.222 16.4047 336.168 16.458C336.115 16.5219 336.094 16.6177 336.168 16.6923L337.489 18.0132C337.521 18.0451 337.564 18.0664 337.596 18.0664H337.606C337.649 18.0664 337.681 18.0451 337.713 18.0132C337.745 17.9812 337.756 17.9492 337.766 17.9066C337.766 17.864 337.756 17.8108 337.713 17.7788Z" fill="#868E9A"/>
<path d="M335.508 22.7533L334.347 21.5922C334.315 21.5603 334.273 21.539 334.219 21.5496C334.177 21.5496 334.145 21.5709 334.113 21.6029C334.102 21.6135 334.102 21.6242 334.092 21.6348C334.07 21.6561 334.06 21.6881 334.06 21.7094C334.06 21.752 334.07 21.7946 334.102 21.8372L334.933 22.6681L335.263 22.9983C335.295 23.0302 335.338 23.0515 335.37 23.0515C335.412 23.0515 335.455 23.0302 335.487 22.9983C335.562 22.9237 335.583 22.8279 335.508 22.7533Z" fill="#868E9A"/>
<path d="M339.652 27.0567L338.938 26.343C338.895 26.3004 338.842 26.2897 338.789 26.3004C338.725 26.311 338.682 26.3643 338.661 26.4176C338.65 26.4708 338.661 26.5241 338.704 26.5667L339.417 27.2804C339.449 27.3123 339.492 27.323 339.524 27.323H339.535C339.577 27.323 339.609 27.3017 339.641 27.2697C339.705 27.2271 339.726 27.1313 339.652 27.0567Z" fill="#868E9A"/>
<path d="M339.759 28.3775L339.258 27.8769C339.248 27.8662 339.237 27.8662 339.237 27.8556C339.162 27.813 339.088 27.8236 339.035 27.8769C338.981 27.9301 338.96 28.0367 339.035 28.1006L339.535 28.6012C339.567 28.6332 339.61 28.6438 339.642 28.6438C339.652 28.6438 339.674 28.6438 339.684 28.6438C339.738 28.6332 339.78 28.5906 339.802 28.5373V28.5267C339.823 28.4734 339.802 28.4201 339.759 28.3775Z" fill="#3E4B5E"/>
<path d="M330.322 19.2168L329.938 18.8333C329.896 18.7907 329.842 18.7801 329.789 18.7907C329.736 18.8014 329.682 18.8547 329.672 18.9186C329.661 18.9718 329.672 19.0251 329.714 19.0677L330.098 19.4512C330.13 19.4831 330.172 19.5044 330.204 19.5044C330.247 19.5044 330.29 19.4831 330.322 19.4512C330.375 19.3873 330.396 19.2914 330.322 19.2168Z" fill="#868E9A"/>
<path d="M335.179 20.8679L332.143 17.8321C332.068 17.7575 331.973 17.7788 331.919 17.8321C331.866 17.8853 331.845 17.9918 331.919 18.0664L334.955 21.1022C334.987 21.1342 335.03 21.1555 335.062 21.1555C335.072 21.1555 335.094 21.1555 335.104 21.1555C335.158 21.1342 335.211 21.0916 335.221 21.0277C335.232 20.9744 335.221 20.9105 335.179 20.8679Z" fill="#3E4B5E"/>
<path d="M353.041 12.7084C353.03 12.6978 353.009 12.6978 352.988 12.6978C352.956 12.6978 352.913 12.7084 352.881 12.7297L352.221 13.1984C352.168 13.2304 352.146 13.2837 352.157 13.3476C352.168 13.4115 352.2 13.4647 352.253 13.486C352.274 13.4967 352.295 13.4967 352.317 13.4967C352.349 13.4967 352.381 13.486 352.413 13.4647L353.073 12.996C353.094 12.9747 353.116 12.9641 353.126 12.9321C353.137 12.9002 353.148 12.8789 353.137 12.8469C353.126 12.7937 353.094 12.7297 353.041 12.7084Z" fill="white"/>
<path d="M351.476 13.7417C351.423 13.7204 351.369 13.7204 351.327 13.763L350.666 14.2317C350.581 14.2956 350.581 14.3915 350.634 14.466C350.666 14.5086 350.709 14.5406 350.762 14.5406C350.794 14.5406 350.826 14.5299 350.858 14.5086L351.518 14.0399C351.572 14.008 351.593 13.9547 351.582 13.8908C351.572 13.8162 351.529 13.763 351.476 13.7417Z" fill="white"/>
<path d="M352.285 13.9654C352.253 13.9121 352.2 13.8908 352.136 13.9015C352.072 13.9121 352.019 13.9441 351.997 13.9973C351.976 14.0506 351.976 14.1039 352.019 14.1465L352.487 14.8069C352.519 14.8495 352.562 14.8814 352.615 14.8814H352.626C352.69 14.8814 352.743 14.8388 352.764 14.7856C352.786 14.7323 352.786 14.6791 352.743 14.6365L352.285 13.9654Z" fill="white"/>
<path d="M351.253 12.4102C351.221 12.3569 351.167 12.3356 351.104 12.3356C351.04 12.3463 350.986 12.3782 350.965 12.4315C350.944 12.4848 350.944 12.538 350.976 12.5806L351.444 13.2411C351.476 13.2837 351.519 13.3156 351.572 13.3156H351.583C351.647 13.3156 351.7 13.273 351.721 13.2197C351.743 13.1665 351.743 13.1132 351.711 13.0706L351.253 12.4102Z" fill="white"/>
<line x1="53.5" y1="20" x2="149.5" y2="20" stroke="#2FC497" stroke-width="4" stroke-linecap="round"/>
<line x1="214" y1="20" x2="310" y2="20" stroke="#D9D9D9" stroke-width="4" stroke-linecap="round"/>
<path d="M10.787 10.694L8.77734 12.7037C8.77734 12.7037 10.8388 14.6822 10.7559 14.5061C10.673 14.33 10.787 10.694 10.787 10.694Z" fill="#0E1E36"/>
<path d="M31.4421 30.8938H10.6933C9.20163 30.8938 8 29.6922 8 28.2005V14.5683C8 13.0766 9.20163 11.875 10.6933 11.875H31.4318C32.9235 11.875 34.1251 13.0766 34.1251 14.5683V28.2005C34.1354 29.6922 32.9235 30.8938 31.4421 30.8938Z" fill="#0E1E36"/>
<path d="M36.0001 12.7037V26.336C36.0001 27.8276 34.7985 29.0293 33.3068 29.0293H12.5683C11.0766 29.0293 9.875 27.8276 9.875 26.336V12.7037C9.875 11.9786 10.1651 11.3156 10.6312 10.8391C10.7141 10.7458 10.8073 10.663 10.9005 10.5905C11.0559 10.4662 11.232 10.3522 11.4081 10.2693C11.7603 10.1036 12.154 10.0104 12.5579 10.0104H33.2964C33.7108 10.0104 34.1044 10.1036 34.4463 10.2693C34.6327 10.3522 34.7985 10.4662 34.9538 10.5905C35.5961 11.0773 36.0001 11.8439 36.0001 12.7037Z" fill="#EAF9F5"/>
<path d="M19.9754 20.017C17.0645 22.9279 14.1537 25.8387 11.2429 28.7496C11.0978 28.8946 11.3257 29.1121 11.4604 28.9671L20.1929 20.2346C20.3379 20.0896 20.1204 19.872 19.9754 20.017Z" fill="#0E1E36"/>
<path d="M34.2909 28.7496C31.38 25.8387 28.4692 22.9279 25.5583 20.017C25.4133 19.872 25.1958 20.0999 25.3408 20.2346L34.0733 28.9671C34.208 29.1121 34.4255 28.8946 34.2909 28.7496Z" fill="#0E1E36"/>
<path d="M13.6242 12.6519C13.9557 12.6001 14.2975 12.5276 14.5461 12.2893C14.7326 12.1132 14.8362 11.8853 15.033 11.7196C15.9446 10.9219 17.3845 11.2431 18.4721 11.2534C19.7152 11.2638 20.9997 11.3467 22.222 11.1188C23.1233 10.953 23.8795 10.5801 24.4906 10H12.5676C12.1532 10 11.7596 10.0932 11.4177 10.259C11.2313 10.3418 11.0655 10.4558 10.9102 10.5801L13.0441 12.714C13.2305 12.714 13.4274 12.6829 13.6242 12.6519Z" fill="#EAF9F5"/>
<path d="M22.9375 21.6641C22.1813 21.6641 21.4562 21.3637 20.9279 20.825L10.7969 10.694L11.0144 10.4765L21.1454 20.6075C21.6219 21.084 22.2642 21.3533 22.9375 21.3533C23.6108 21.3533 24.2531 21.0944 24.7296 20.6075L34.8605 10.4765L35.0781 10.694L24.9471 20.825C24.4084 21.374 23.6937 21.6641 22.9375 21.6641Z" fill="#0E1E36"/>
<path d="M14.2566 19.6545H11.9777C11.7809 19.6545 11.7809 19.9652 11.9777 19.9652H14.2566C14.4535 19.9652 14.4535 19.6545 14.2566 19.6545Z" fill="#2FC497"/>
<path d="M20.1923 26.5638H19.1564C18.9596 26.5638 18.9596 26.8746 19.1564 26.8746H20.1923C20.3891 26.8746 20.3891 26.5638 20.1923 26.5638Z" fill="#EAF9F5"/>
<path d="M24.0571 27.6722H21.0841C20.8873 27.6722 20.8873 27.983 21.0841 27.983H24.0571C24.2643 27.983 24.2643 27.6722 24.0571 27.6722Z" fill="#EAF9F5"/>
<path d="M35.1096 15.4488H33.3175C33.1207 15.4488 33.1207 15.7596 33.3175 15.7596H35.1096C35.3064 15.7596 35.3064 15.4488 35.1096 15.4488Z" fill="#2FC497"/>
<path d="M18.7731 15.9874L14.7849 12.0303C14.6399 11.8853 14.4223 12.1132 14.5674 12.2479L18.5555 16.205C18.6902 16.35 18.9181 16.1221 18.7731 15.9874Z" fill="#EAF9F5"/>
<path d="M19.2601 14.185C18.9804 13.9053 18.7111 13.6256 18.4314 13.3563C18.2864 13.2113 18.0688 13.4288 18.2138 13.5738C18.4935 13.8535 18.7629 14.1332 19.0426 14.4025C19.1772 14.5476 19.4051 14.33 19.2601 14.185Z" fill="#EAF9F5"/>
<path d="M27.2053 14.8687L25.4753 13.1491C25.3303 13.0041 25.1128 13.232 25.2578 13.3666C25.8379 13.9467 26.4076 14.5165 26.9877 15.0966C27.1327 15.2312 27.3503 15.0137 27.2053 14.8687Z" fill="#EAF9F5"/>
<path d="M24.7294 19.2194C24.543 19.0329 24.3565 18.8465 24.1804 18.6704C24.0354 18.5254 23.8178 18.7533 23.9629 18.8879C24.1493 19.0744 24.3358 19.2608 24.5119 19.4369C24.6466 19.5716 24.8744 19.3541 24.7294 19.2194Z" fill="#EAF9F5"/>
<path d="M17.1159 26.9471H12.1437C12.0608 26.9471 11.9883 26.8746 11.9883 26.7917V21.8195C11.9883 21.7366 12.0608 21.6641 12.1437 21.6641H17.1159C17.1988 21.6641 17.2713 21.7366 17.2713 21.8195V26.7917C17.2713 26.8746 17.2092 26.9471 17.1159 26.9471ZM12.299 26.6363H16.9605V21.9749H12.299V26.6363Z" fill="#2FC497"/>
<path d="M20.3279 23.5287H18.1525C17.9557 23.5287 17.9557 23.8395 18.1525 23.8395H20.3279C20.535 23.8395 20.535 23.5287 20.3279 23.5287Z" fill="#2FC497"/>
<path d="M25.7026 17.7381C25.9305 17.9453 26.2827 17.966 26.5106 17.7381C26.7903 17.4584 29.2765 14.9723 29.5561 14.6926C29.7633 14.4854 29.784 14.1021 29.5561 13.8846C29.3282 13.6774 28.9968 13.6774 28.7482 13.8846C28.1059 14.4129 25.8373 16.754 25.7026 16.9301C25.5162 17.1683 25.4747 17.5309 25.7026 17.7381Z" fill="#2FC497"/>
</svg>
