<svg width="16" height="16" viewBox="0 0 16 16" fill="none" xmlns="http://www.w3.org/2000/svg">
<path fill-rule="evenodd" clip-rule="evenodd" d="M7 2C7 1.44772 7.44772 1 8 1C8.55228 1 9 1.44772 9 2V7H9.0002V7.0002L14.0002 7.0002C14.5525 7.0002 15.0002 7.44791 15.0002 8.0002C15.0002 8.55248 14.5525 9.0002 14.0002 9.0002H9.0002V14.0002C9.0002 14.5525 8.55248 15.0002 8.0002 15.0002C7.44791 15.0002 7.0002 14.5525 7.0002 14.0002L7.0002 9.0002H7V9H2C1.44772 9 1 8.55228 1 8C1 7.44772 1.44772 7 2 7H7V2Z" fill="white"/>
</svg>
