<svg width="158" height="72" viewBox="0 0 158 72" fill="none" xmlns="http://www.w3.org/2000/svg">
<path d="M28.7817 34.5069C27.9662 34.5069 27.1609 34.4226 26.3657 34.2542C25.5772 34.0857 24.8965 33.8835 24.3237 33.6476L24.0811 29.6344H24.2327C24.7584 31.0699 25.4087 32.1515 26.1837 32.8794C26.9587 33.6005 27.8483 33.961 28.8524 33.961C29.7285 33.961 30.4058 33.7555 30.8843 33.3444C31.3628 32.9265 31.602 32.2998 31.602 31.4641C31.602 30.9991 31.4605 30.5779 31.1774 30.2005C30.9011 29.8231 30.5338 29.4794 30.0756 29.1694C29.6173 28.8527 29.0074 28.4888 28.2459 28.0777L27.6394 27.7542C26.9183 27.3633 26.2983 26.9792 25.7793 26.6018C25.2672 26.2177 24.8392 25.7661 24.4955 25.2472C24.1586 24.7216 23.9935 24.1285 24.0002 23.4681C24.0002 22.592 24.2361 21.8574 24.7078 21.2644C25.1796 20.6646 25.8265 20.2198 26.6487 19.93C27.4776 19.6335 28.4245 19.4852 29.4893 19.4852C30.143 19.4852 30.8304 19.5695 31.5515 19.7379C32.2726 19.8997 32.9195 20.1019 33.4924 20.3445L33.7956 24.3577H33.6541C33.1487 22.9761 32.5286 21.9113 31.7941 21.1633C31.0662 20.4085 30.1666 20.0311 29.095 20.0311C28.63 20.0311 28.2257 20.1221 27.882 20.304C27.545 20.486 27.2856 20.7387 27.1036 21.0622C26.9216 21.3857 26.8307 21.7597 26.8307 22.1843C26.8307 22.6156 26.9385 22.993 27.1541 23.3165C27.3765 23.6399 27.6731 23.9264 28.0437 24.1757C28.4144 24.4183 28.9131 24.698 29.5398 25.0147L30.298 25.3888C31.1134 25.7864 31.8177 26.2042 32.4107 26.6422C33.0105 27.0803 33.4991 27.6059 33.8765 28.2192C34.2606 28.8257 34.4527 29.5232 34.4527 30.3117C34.4527 31.262 34.2033 32.0504 33.7046 32.6772C33.2059 33.3039 32.5286 33.7656 31.6728 34.0621C30.8236 34.3586 29.8599 34.5069 28.7817 34.5069Z" fill="white"/>
<path d="M38.886 34.5069C38.3132 34.5069 37.7976 34.3991 37.3394 34.1834C36.8878 33.9677 36.5306 33.6443 36.2678 33.213C36.005 32.7816 35.8736 32.256 35.8736 31.636V24.4183H34.5797V24.297L38.7748 21.5575H38.9568V24.0342H42.0399V24.4183H38.9669V31.636C38.9669 32.1684 39.0848 32.5727 39.3207 32.849C39.5565 33.1253 39.8969 33.2635 40.3417 33.2635C40.7191 33.2635 41.0695 33.2197 41.393 33.1321C41.7232 33.0445 42.0029 32.9198 42.232 32.7581L42.3331 32.9097C41.9692 33.368 41.4873 33.7487 40.8875 34.052C40.2878 34.3553 39.6206 34.5069 38.886 34.5069Z" fill="white"/>
<path d="M46.1296 34.5069C45.5972 34.5069 45.1018 34.3957 44.6436 34.1733C44.192 33.9442 43.8281 33.6005 43.5518 33.1422C43.2755 32.6839 43.1373 32.1246 43.1373 31.4641V25.783L41.9951 24.8429V24.671L46.1194 23.7713L46.2306 23.8825V30.7666C46.2306 31.454 46.3519 32.0134 46.5946 32.4447C46.8439 32.8693 47.2516 33.0815 47.8177 33.0815C48.2086 33.0815 48.6062 33.0074 49.0106 32.8591C49.4149 32.7041 49.7283 32.502 49.9507 32.2526V25.783L48.8185 24.8429V24.671L52.9429 23.7713L53.044 23.8825V32.4649L54.1054 33.5769V33.6982L50.3854 34.5069L50.0214 32.7783C49.7586 33.0546 49.4183 33.3275 49.0004 33.5971C48.5826 33.8599 48.121 34.0789 47.6155 34.2542C47.1101 34.4226 46.6148 34.5069 46.1296 34.5069Z" fill="white"/>
<path d="M58.3668 34.5069C57.5514 34.5069 56.8371 34.298 56.2238 33.8801C55.6173 33.4623 55.1489 32.8794 54.8187 32.1313C54.4884 31.3833 54.3233 30.5274 54.3233 29.5637C54.3233 28.445 54.5491 27.4476 55.0006 26.5715C55.4521 25.6886 56.0957 25.0013 56.9314 24.5093C57.7671 24.0173 58.7375 23.7713 59.8427 23.7713C60.5706 23.7713 61.2142 23.9499 61.7735 24.3071V21.0116L60.8132 20.0614V19.8997L64.7253 19L64.8668 19.1112V32.4548L65.9181 33.5769V33.6982L62.2082 34.5069L61.8342 32.9097C61.3557 33.3882 60.8401 33.7757 60.2875 34.0722C59.7416 34.362 59.1014 34.5069 58.3668 34.5069ZM60.0651 33.0917C60.6919 33.0917 61.2613 32.8827 61.7735 32.4649V25.9346C61.6859 25.3685 61.5006 24.9406 61.2175 24.6508C60.9345 24.361 60.584 24.2161 60.1662 24.2161C59.6271 24.2161 59.1621 24.3981 58.7712 24.762C58.3871 25.1259 58.0905 25.6516 57.8816 26.339C57.6795 27.0264 57.5784 27.8519 57.5784 28.8156C57.5784 30.2039 57.794 31.2653 58.2253 31.9999C58.6566 32.7277 59.2699 33.0917 60.0651 33.0917Z" fill="white"/>
<path d="M68.8351 22.3561C68.5049 22.3561 68.2084 22.2887 67.9455 22.1539C67.6894 22.0124 67.4873 21.8204 67.339 21.5777C67.1907 21.3284 67.1166 21.0453 67.1166 20.7286C67.1166 20.4253 67.1907 20.149 67.339 19.8997C67.4873 19.6503 67.6928 19.4549 67.9556 19.3134C68.2185 19.1718 68.5116 19.1011 68.8351 19.1011C69.1721 19.1011 69.472 19.1718 69.7348 19.3134C70.0044 19.4549 70.2133 19.6503 70.3615 19.8997C70.5098 20.149 70.5839 20.4253 70.5839 20.7286C70.5839 21.2071 70.4188 21.598 70.0886 21.9012C69.7651 22.2045 69.3473 22.3561 68.8351 22.3561ZM71.7667 34.2643H66.1866V34.1126L67.43 32.8591V25.783L66.2978 24.8429V24.671L70.4222 23.7713L70.5233 23.8825V32.849L71.7667 34.1126V34.2643Z" fill="white"/>
<path d="M77.3726 34.5069C76.328 34.5069 75.3812 34.2778 74.532 33.8195C73.6896 33.3545 73.0258 32.7143 72.5406 31.8988C72.0554 31.0766 71.8128 30.1567 71.8128 29.1391C71.8128 28.1282 72.0554 27.2151 72.5406 26.3996C73.0258 25.5842 73.693 24.944 74.5421 24.479C75.3913 24.0072 76.3348 23.7713 77.3726 23.7713C78.4172 23.7713 79.364 24.0039 80.2132 24.4689C81.0623 24.9339 81.7295 25.5775 82.2147 26.3996C82.6999 27.2151 82.9425 28.1282 82.9425 29.1391C82.9425 30.1567 82.6999 31.0766 82.2147 31.8988C81.7295 32.7143 81.0623 33.3545 80.2132 33.8195C79.3708 34.2778 78.4239 34.5069 77.3726 34.5069ZM77.3827 34.1329C78.124 34.1329 78.6935 33.7015 79.0911 32.8389C79.4954 31.9696 79.6976 30.7363 79.6976 29.1391C79.6976 27.5554 79.4954 26.3289 79.0911 25.4595C78.6867 24.5902 78.1139 24.1555 77.3726 24.1555C76.6245 24.1555 76.0517 24.5902 75.6541 25.4595C75.2632 26.3221 75.0678 27.5487 75.0678 29.1391C75.0678 30.743 75.2666 31.9763 75.6642 32.8389C76.0618 33.7015 76.6346 34.1329 77.3827 34.1329Z" fill="white"/>
<path d="M87.2444 34.5069C86.584 34.5069 85.8865 34.426 85.1519 34.2643C84.4241 34.1093 83.858 33.9273 83.4536 33.7184L84.1006 30.9587H84.3028C84.5858 31.5787 84.9194 32.1886 85.3035 32.7884C85.6877 33.3882 86.0718 33.8094 86.4559 34.052C86.7659 34.1059 87.0524 34.1329 87.3152 34.1329C88.0093 34.1329 88.508 33.9846 88.8113 33.6881C89.1146 33.3848 89.2662 32.9973 89.2662 32.5256C89.2662 32.2021 89.1718 31.919 88.9831 31.6764C88.7944 31.4338 88.5485 31.2215 88.2452 31.0396C87.9419 30.8509 87.5308 30.6352 87.0119 30.3926L86.4054 30.0995C85.8393 29.8366 85.3541 29.5671 84.9497 29.2907C84.5454 29.0077 84.2118 28.664 83.949 28.2597C83.6861 27.8486 83.5547 27.3667 83.5547 26.8141C83.5547 25.81 83.9456 25.0518 84.7273 24.5396C85.5091 24.0274 86.5638 23.7713 87.8914 23.7713C88.3901 23.7713 88.9326 23.8286 89.5189 23.9432C90.112 24.051 90.6376 24.1858 91.0959 24.3475L90.641 27.0163H90.4792C90.021 26.2884 89.6335 25.7055 89.3167 25.2674C89.0067 24.8294 88.7102 24.479 88.4272 24.2161C88.3058 24.1757 88.1138 24.1555 87.851 24.1555C87.2781 24.1555 86.8401 24.3037 86.5368 24.6003C86.2335 24.8901 86.0819 25.254 86.0819 25.692C86.0819 26.1031 86.2437 26.4603 86.5671 26.7636C86.8974 27.0668 87.3758 27.3667 88.0026 27.6632L88.7405 28.017C89.3336 28.3001 89.8424 28.5831 90.267 28.8662C90.6915 29.1492 91.0487 29.503 91.3385 29.9276C91.6283 30.3454 91.7732 30.8307 91.7732 31.3833C91.7732 32.0504 91.5744 32.6199 91.1767 33.0917C90.7859 33.5567 90.2467 33.9105 89.5593 34.1531C88.8787 34.3889 88.107 34.5069 87.2444 34.5069Z" fill="white"/>
<path d="M91.9406 38.4695V38.3179L93.1839 37.0543V25.783L92.0416 24.8328V24.671L96.166 23.7713L96.2772 23.8825V25.2573C96.6883 24.7856 97.1634 24.4217 97.7026 24.1656C98.2484 23.9028 98.8348 23.7713 99.4615 23.7713C100.297 23.7713 101.035 23.9803 101.675 24.3981C102.316 24.8159 102.814 25.409 103.171 26.1772C103.529 26.9388 103.707 27.8216 103.707 28.8257C103.707 29.9175 103.492 30.8947 103.06 31.7573C102.629 32.6132 102.002 33.2871 101.18 33.779C100.365 34.2643 99.3941 34.5069 98.2687 34.5069C97.8643 34.5069 97.4903 34.453 97.1466 34.3451C96.8096 34.2373 96.5198 34.1025 96.2772 33.9408V37.0543L97.6621 38.3179V38.4695H91.9406ZM97.8845 34.1329C98.4304 34.1329 98.8954 33.9408 99.2795 33.5567C99.6704 33.1658 99.9636 32.6233 100.159 31.9291C100.361 31.2283 100.462 30.4196 100.462 29.503C100.462 28.0811 100.237 26.9826 99.785 26.2076C99.3335 25.4326 98.6865 25.0451 97.8441 25.0451C97.2443 25.0451 96.722 25.2573 96.2772 25.6819V32.9602C96.4659 33.3444 96.6984 33.6375 96.9747 33.8397C97.2578 34.0351 97.561 34.1329 97.8845 34.1329Z" fill="white"/>
<path d="M106.857 34.5069C106.331 34.5069 105.863 34.4193 105.452 34.2441C105.047 34.0621 104.73 33.8026 104.501 33.4657C104.272 33.1287 104.158 32.7277 104.158 32.2627C104.158 31.5416 104.42 30.9115 104.946 30.3724C105.479 29.8333 106.186 29.4053 107.069 29.0886C107.959 28.7718 108.942 28.5697 110.021 28.482V27.2083C110.021 26.5412 109.825 26.0222 109.434 25.6516C109.044 25.2742 108.437 25.0855 107.615 25.0855C107.143 25.0855 106.695 25.1428 106.27 25.2573C105.846 25.3719 105.415 25.5539 104.976 25.8032L104.845 25.6111C105.398 25.0518 106.072 24.6104 106.867 24.2869C107.669 23.9567 108.535 23.7916 109.465 23.7916C110.402 23.7916 111.136 23.9365 111.668 24.2262C112.208 24.516 112.582 24.9204 112.791 25.4393C113.006 25.9515 113.114 26.5816 113.114 27.3296V32.4548L114.175 33.5769V33.6982L110.466 34.5069L110.112 32.9703C109.68 33.4421 109.182 33.8161 108.616 34.0924C108.056 34.3687 107.47 34.5069 106.857 34.5069ZM108.555 33.0411C109.135 33.0411 109.623 32.8861 110.021 32.5761V28.8662C109.124 29.0144 108.417 29.3177 107.898 29.776C107.386 30.2342 107.13 30.8037 107.13 31.4844C107.13 31.9763 107.244 32.3604 107.473 32.6368C107.709 32.9063 108.07 33.0411 108.555 33.0411Z" fill="white"/>
<path d="M119.337 34.5069C118.38 34.5069 117.53 34.2946 116.789 33.87C116.048 33.4455 115.468 32.8457 115.05 32.0707C114.639 31.2889 114.434 30.3892 114.434 29.3716C114.434 28.2731 114.676 27.2993 115.162 26.4502C115.654 25.601 116.334 24.944 117.204 24.479C118.073 24.0072 119.06 23.7713 120.166 23.7713C120.725 23.7713 121.315 23.832 121.935 23.9533C122.561 24.0679 123.07 24.1993 123.461 24.3475L122.986 27.3499H122.784C122.366 26.6018 121.995 25.9818 121.672 25.4898C121.355 24.9911 121.038 24.5733 120.722 24.2364C120.715 24.2364 120.654 24.2229 120.54 24.1959C120.432 24.169 120.3 24.1555 120.145 24.1555C119.35 24.1757 118.74 24.5699 118.316 25.3382C117.898 26.0997 117.689 27.1342 117.689 28.4416C117.689 29.3581 117.817 30.15 118.073 30.8172C118.336 31.4776 118.71 31.9831 119.195 32.3335C119.687 32.6839 120.267 32.8591 120.934 32.8591C121.473 32.8591 122.002 32.7682 122.521 32.5862C123.047 32.4043 123.468 32.1684 123.784 31.8786L123.926 32.01C123.441 32.8052 122.817 33.4219 122.056 33.8599C121.294 34.2912 120.388 34.5069 119.337 34.5069Z" fill="white"/>
<path d="M130.765 32.8591C131.338 32.8591 131.874 32.7682 132.372 32.5862C132.871 32.3975 133.286 32.1616 133.616 31.8786L133.768 32.01C133.262 32.8187 132.632 33.4387 131.877 33.87C131.129 34.2946 130.226 34.5069 129.168 34.5069C128.184 34.5069 127.318 34.2879 126.57 33.8498C125.822 33.4118 125.242 32.8019 124.831 32.0201C124.427 31.2316 124.225 30.3353 124.225 29.3312C124.225 28.2462 124.444 27.2825 124.882 26.4401C125.327 25.5977 125.947 24.944 126.742 24.479C127.537 24.0072 128.44 23.7713 129.451 23.7713C130.388 23.7713 131.2 23.9803 131.887 24.3981C132.575 24.8092 133.097 25.3719 133.454 26.0863C133.818 26.7939 134 27.5857 134 28.4618H127.389V28.7348C127.389 29.5569 127.524 30.2814 127.793 30.9082C128.063 31.5282 128.45 32.01 128.956 32.3537C129.468 32.6907 130.071 32.8591 130.765 32.8591ZM129.299 24.2161C128.625 24.2161 128.15 24.6306 127.874 25.4595C127.605 26.2817 127.446 27.1881 127.399 28.1788L130.947 27.9564C130.947 26.649 130.812 25.6988 130.543 25.1057C130.28 24.5127 129.866 24.2161 129.299 24.2161Z" fill="white"/>
<path d="M53.8363 43.6H55.8763L59.1163 52H57.1963L56.4763 50.08H53.2363L52.5163 52H50.5963L53.8363 43.6ZM55.8763 48.46L54.8803 45.7H54.8323L53.8363 48.46H55.8763ZM63.853 43.6H66.913C67.561 43.6 68.153 43.712 68.689 43.936C69.233 44.152 69.701 44.448 70.093 44.824C70.493 45.2 70.801 45.644 71.017 46.156C71.241 46.668 71.353 47.216 71.353 47.8C71.353 48.384 71.241 48.932 71.017 49.444C70.801 49.956 70.493 50.4 70.093 50.776C69.701 51.152 69.233 51.452 68.689 51.676C68.153 51.892 67.561 52 66.913 52H63.853V43.6ZM66.913 50.32C67.289 50.32 67.633 50.256 67.945 50.128C68.265 50 68.537 49.824 68.761 49.6C68.993 49.376 69.173 49.112 69.301 48.808C69.429 48.496 69.493 48.16 69.493 47.8C69.493 47.44 69.429 47.108 69.301 46.804C69.173 46.492 68.993 46.224 68.761 46C68.537 45.776 68.265 45.6 67.945 45.472C67.633 45.344 67.289 45.28 66.913 45.28H65.653V50.32H66.913ZM76.5702 43.6H78.1902L81.0702 47.2L83.9502 43.6H85.5702V52H83.7702V46.48L81.0702 49.84L78.3702 46.48V52H76.5702V43.6ZM91.3265 43.6H93.1265V52H91.3265V43.6ZM98.8874 43.6H100.507L104.587 48.82V43.6H106.387V52H104.767L100.687 46.78V52H98.8874V43.6Z" fill="white"/>
</svg>
