<svg width="110" height="72" viewBox="0 0 110 72" fill="none" xmlns="http://www.w3.org/2000/svg">
<path d="M4.78166 34.5069C3.96621 34.5069 3.16088 34.4226 2.36565 34.2542C1.57717 34.0857 0.896511 33.8835 0.323679 33.6476L0.0810685 29.6344H0.2327C0.758357 31.0699 1.40869 32.1515 2.1837 32.8794C2.9587 33.6005 3.84828 33.961 4.85242 33.961C5.72851 33.961 6.4058 33.7555 6.88428 33.3444C7.36277 32.9265 7.60201 32.2998 7.60201 31.4641C7.60201 30.9991 7.46048 30.5779 7.17744 30.2005C6.90113 29.8231 6.53385 29.4794 6.07558 29.1694C5.61732 28.8527 5.00742 28.4888 4.24589 28.0777L3.63936 27.7542C2.91827 27.3633 2.29826 26.9792 1.77935 26.6018C1.26717 26.2177 0.839228 25.7661 0.495529 25.2472C0.158569 24.7216 -0.00654098 24.1285 0.000198212 23.4681C0.000198212 22.592 0.23607 21.8574 0.707813 21.2644C1.17956 20.6646 1.82652 20.2198 2.6487 19.93C3.47762 19.6335 4.42448 19.4852 5.48927 19.4852C6.14297 19.4852 6.83037 19.5695 7.55146 19.7379C8.27256 19.8997 8.91952 20.1019 9.49235 20.3445L9.79562 24.3577H9.65409C9.14865 22.9761 8.52865 21.9113 7.79407 21.1633C7.06624 20.4085 6.16656 20.0311 5.09503 20.0311C4.63002 20.0311 4.22567 20.1221 3.88197 20.304C3.54501 20.486 3.28555 20.7387 3.1036 21.0622C2.92164 21.3857 2.83066 21.7597 2.83066 22.1843C2.83066 22.6156 2.93849 22.993 3.15414 23.3165C3.37653 23.6399 3.67306 23.9263 4.04371 24.1757C4.41437 24.4183 4.91307 24.698 5.53981 25.0147L6.29797 25.3888C7.11342 25.7864 7.81766 26.2042 8.41071 26.6422C9.0105 27.0803 9.49909 27.6059 9.87649 28.2192C10.2606 28.8257 10.4527 29.5232 10.4527 30.3117C10.4527 31.262 10.2033 32.0504 9.70464 32.6772C9.20594 33.3039 8.52865 33.7656 7.67277 34.0621C6.82363 34.3586 5.85993 34.5069 4.78166 34.5069Z" fill="white"/>
<path d="M14.886 34.5069C14.3132 34.5069 13.7976 34.3991 13.3394 34.1834C12.8878 33.9677 12.5306 33.6443 12.2678 33.213C12.005 32.7816 11.8736 32.256 11.8736 31.636V24.4183H10.5797V24.297L14.7748 21.5575H14.9568V24.0342H18.0399V24.4183H14.9669V31.636C14.9669 32.1684 15.0848 32.5727 15.3207 32.849C15.5565 33.1253 15.8969 33.2635 16.3417 33.2635C16.7191 33.2635 17.0695 33.2197 17.393 33.1321C17.7232 33.0445 18.0029 32.9198 18.232 32.7581L18.3331 32.9097C17.9692 33.368 17.4873 33.7487 16.8875 34.052C16.2877 34.3553 15.6206 34.5069 14.886 34.5069Z" fill="white"/>
<path d="M22.1296 34.5069C21.5972 34.5069 21.1018 34.3957 20.6436 34.1733C20.192 33.9442 19.8281 33.6005 19.5518 33.1422C19.2755 32.6839 19.1373 32.1246 19.1373 31.4641V25.783L17.9951 24.8429V24.671L22.1194 23.7713L22.2306 23.8825V30.7666C22.2306 31.454 22.3519 32.0134 22.5946 32.4447C22.8439 32.8693 23.2516 33.0815 23.8177 33.0815C24.2086 33.0815 24.6062 33.0074 25.0106 32.8591C25.4149 32.7041 25.7283 32.502 25.9507 32.2526V25.783L24.8185 24.8429V24.671L28.9429 23.7713L29.044 23.8825V32.4649L30.1054 33.5769V33.6982L26.3854 34.5069L26.0214 32.7783C25.7586 33.0546 25.4183 33.3275 25.0004 33.5971C24.5826 33.8599 24.121 34.0789 23.6155 34.2542C23.1101 34.4226 22.6148 34.5069 22.1296 34.5069Z" fill="white"/>
<path d="M34.3668 34.5069C33.5514 34.5069 32.8371 34.298 32.2238 33.8801C31.6173 33.4623 31.1489 32.8794 30.8187 32.1313C30.4884 31.3833 30.3233 30.5274 30.3233 29.5637C30.3233 28.445 30.5491 27.4476 31.0006 26.5715C31.4521 25.6886 32.0957 25.0013 32.9314 24.5093C33.7671 24.0173 34.7375 23.7713 35.8427 23.7713C36.5706 23.7713 37.2142 23.9499 37.7735 24.3071V21.0116L36.8132 20.0614V19.8997L40.7253 19L40.8668 19.1112V32.4548L41.9181 33.5769V33.6982L38.2082 34.5069L37.8342 32.9097C37.3557 33.3882 36.8401 33.7757 36.2875 34.0722C35.7416 34.362 35.1014 34.5069 34.3668 34.5069ZM36.0651 33.0917C36.6919 33.0917 37.2613 32.8827 37.7735 32.4649V25.9346C37.6859 25.3685 37.5006 24.9406 37.2175 24.6508C36.9345 24.361 36.584 24.2161 36.1662 24.2161C35.6271 24.2161 35.1621 24.3981 34.7712 24.762C34.3871 25.1259 34.0905 25.6516 33.8816 26.339C33.6794 27.0264 33.5784 27.8519 33.5784 28.8156C33.5784 30.2039 33.794 31.2653 34.2253 31.9999C34.6566 32.7277 35.2699 33.0917 36.0651 33.0917Z" fill="white"/>
<path d="M44.8351 22.3561C44.5049 22.3561 44.2084 22.2887 43.9455 22.1539C43.6894 22.0124 43.4873 21.8204 43.339 21.5777C43.1907 21.3284 43.1166 21.0453 43.1166 20.7286C43.1166 20.4253 43.1907 20.149 43.339 19.8997C43.4873 19.6503 43.6928 19.4549 43.9556 19.3134C44.2185 19.1718 44.5116 19.1011 44.8351 19.1011C45.1721 19.1011 45.472 19.1718 45.7348 19.3134C46.0044 19.4549 46.2133 19.6503 46.3615 19.8997C46.5098 20.149 46.5839 20.4253 46.5839 20.7286C46.5839 21.2071 46.4188 21.598 46.0886 21.9012C45.7651 22.2045 45.3473 22.3561 44.8351 22.3561ZM47.7667 34.2643H42.1866V34.1126L43.43 32.8591V25.783L42.2978 24.8429V24.671L46.4222 23.7713L46.5233 23.8825V32.849L47.7667 34.1126V34.2643Z" fill="white"/>
<path d="M53.3726 34.5069C52.328 34.5069 51.3812 34.2778 50.532 33.8195C49.6896 33.3545 49.0258 32.7143 48.5406 31.8988C48.0554 31.0766 47.8128 30.1567 47.8128 29.1391C47.8128 28.1282 48.0554 27.2151 48.5406 26.3996C49.0258 25.5842 49.693 24.944 50.5421 24.479C51.3913 24.0072 52.3348 23.7713 53.3726 23.7713C54.4172 23.7713 55.364 24.0039 56.2132 24.4689C57.0623 24.9339 57.7295 25.5775 58.2147 26.3996C58.6999 27.2151 58.9425 28.1282 58.9425 29.1391C58.9425 30.1567 58.6999 31.0766 58.2147 31.8988C57.7295 32.7143 57.0623 33.3545 56.2132 33.8195C55.3708 34.2778 54.4239 34.5069 53.3726 34.5069ZM53.3827 34.1329C54.124 34.1329 54.6935 33.7015 55.0911 32.8389C55.4954 31.9696 55.6976 30.7363 55.6976 29.1391C55.6976 27.5554 55.4954 26.3289 55.0911 25.4595C54.6867 24.5902 54.1139 24.1555 53.3726 24.1555C52.6245 24.1555 52.0517 24.5902 51.6541 25.4595C51.2632 26.3221 51.0678 27.5487 51.0678 29.1391C51.0678 30.743 51.2666 31.9763 51.6642 32.8389C52.0618 33.7015 52.6346 34.1329 53.3827 34.1329Z" fill="white"/>
<path d="M63.2444 34.5069C62.584 34.5069 61.8865 34.426 61.1519 34.2643C60.4241 34.1093 59.858 33.9273 59.4536 33.7184L60.1006 30.9587H60.3028C60.5858 31.5787 60.9194 32.1886 61.3035 32.7884C61.6877 33.3882 62.0718 33.8094 62.4559 34.052C62.7659 34.1059 63.0524 34.1329 63.3152 34.1329C64.0093 34.1329 64.508 33.9846 64.8113 33.6881C65.1146 33.3848 65.2662 32.9973 65.2662 32.5256C65.2662 32.2021 65.1718 31.919 64.9831 31.6764C64.7944 31.4338 64.5485 31.2215 64.2452 31.0396C63.9419 30.8509 63.5308 30.6352 63.0119 30.3926L62.4054 30.0995C61.8393 29.8366 61.3541 29.5671 60.9497 29.2907C60.5454 29.0077 60.2118 28.664 59.949 28.2597C59.6861 27.8486 59.5547 27.3667 59.5547 26.8141C59.5547 25.81 59.9456 25.0518 60.7273 24.5396C61.5091 24.0274 62.5638 23.7713 63.8914 23.7713C64.3901 23.7713 64.9326 23.8286 65.5189 23.9432C66.112 24.051 66.6376 24.1858 67.0959 24.3475L66.641 27.0163H66.4792C66.021 26.2884 65.6335 25.7055 65.3167 25.2674C65.0067 24.8294 64.7102 24.479 64.4272 24.2161C64.3058 24.1757 64.1138 24.1555 63.851 24.1555C63.2781 24.1555 62.8401 24.3037 62.5368 24.6003C62.2335 24.8901 62.0819 25.254 62.0819 25.692C62.0819 26.1031 62.2437 26.4603 62.5671 26.7636C62.8974 27.0668 63.3758 27.3667 64.0026 27.6632L64.7405 28.017C65.3336 28.3001 65.8424 28.5831 66.267 28.8662C66.6915 29.1492 67.0487 29.503 67.3385 29.9276C67.6283 30.3454 67.7732 30.8307 67.7732 31.3833C67.7732 32.0504 67.5744 32.6199 67.1767 33.0917C66.7859 33.5567 66.2467 33.9105 65.5593 34.1531C64.8787 34.3889 64.107 34.5069 63.2444 34.5069Z" fill="white"/>
<path d="M67.9406 38.4695V38.3179L69.1839 37.0543V25.783L68.0416 24.8328V24.671L72.166 23.7713L72.2772 23.8825V25.2573C72.6883 24.7856 73.1634 24.4217 73.7026 24.1656C74.2484 23.9028 74.8348 23.7713 75.4615 23.7713C76.2972 23.7713 77.0351 23.9803 77.6753 24.3981C78.3155 24.8159 78.8142 25.409 79.1714 26.1772C79.5286 26.9388 79.7072 27.8216 79.7072 28.8257C79.7072 29.9175 79.4915 30.8947 79.0602 31.7573C78.6289 32.6132 78.0022 33.2871 77.18 33.779C76.3645 34.2643 75.3941 34.5069 74.2687 34.5069C73.8643 34.5069 73.4903 34.453 73.1466 34.3451C72.8096 34.2373 72.5198 34.1025 72.2772 33.9408V37.0543L73.6621 38.3179V38.4695H67.9406ZM73.8845 34.1329C74.4304 34.1329 74.8954 33.9408 75.2795 33.5567C75.6704 33.1658 75.9636 32.6233 76.159 31.9291C76.3612 31.2283 76.4623 30.4196 76.4623 29.503C76.4623 28.0811 76.2365 26.9826 75.785 26.2076C75.3335 25.4326 74.6865 25.0451 73.8441 25.0451C73.2443 25.0451 72.722 25.2573 72.2772 25.6819V32.9602C72.4659 33.3444 72.6984 33.6375 72.9747 33.8397C73.2578 34.0351 73.561 34.1329 73.8845 34.1329Z" fill="white"/>
<path d="M82.8567 34.5069C82.331 34.5069 81.8627 34.4193 81.4516 34.2441C81.0472 34.0621 80.7305 33.8026 80.5013 33.4657C80.2722 33.1287 80.1576 32.7277 80.1576 32.2627C80.1576 31.5416 80.4205 30.9115 80.9461 30.3724C81.4785 29.8333 82.1861 29.4053 83.069 29.0886C83.9585 28.7718 84.9425 28.5697 86.0207 28.482V27.2083C86.0207 26.5412 85.8253 26.0222 85.4344 25.6516C85.0436 25.2742 84.437 25.0855 83.6148 25.0855C83.1431 25.0855 82.695 25.1428 82.2704 25.2573C81.8458 25.3719 81.4145 25.5539 80.9765 25.8032L80.845 25.6111C81.3977 25.0518 82.0716 24.6104 82.8668 24.2869C83.6688 23.9567 84.5347 23.7916 85.4648 23.7916C86.4015 23.7916 87.1361 23.9365 87.6685 24.2262C88.2076 24.516 88.5816 24.9204 88.7905 25.4393C89.0062 25.9515 89.114 26.5816 89.114 27.3296V32.4548L90.1755 33.5769V33.6982L86.4655 34.5069L86.1117 32.9703C85.6804 33.4421 85.1817 33.8161 84.6156 34.0924C84.0563 34.3687 83.47 34.5069 82.8567 34.5069ZM84.555 33.0411C85.1345 33.0411 85.6231 32.8861 86.0207 32.5761V28.8662C85.1244 29.0144 84.4168 29.3177 83.8979 29.776C83.3857 30.2342 83.1296 30.8037 83.1296 31.4844C83.1296 31.9763 83.2442 32.3604 83.4733 32.6368C83.7092 32.9063 84.0697 33.0411 84.555 33.0411Z" fill="white"/>
<path d="M95.3366 34.5069C94.3796 34.5069 93.5305 34.2946 92.7892 33.87C92.0479 33.4455 91.4683 32.8457 91.0505 32.0707C90.6394 31.2889 90.4338 30.3892 90.4338 29.3716C90.4338 28.2731 90.6764 27.2993 91.1617 26.4502C91.6536 25.601 92.3343 24.944 93.2036 24.479C94.073 24.0072 95.0603 23.7713 96.1655 23.7713C96.7249 23.7713 97.3146 23.832 97.9346 23.9533C98.5613 24.0679 99.0701 24.1993 99.461 24.3475L98.9859 27.3499H98.7837C98.3659 26.6018 97.9952 25.9818 97.6717 25.4898C97.355 24.9911 97.0382 24.5733 96.7215 24.2364C96.7148 24.2364 96.6541 24.2229 96.5395 24.1959C96.4317 24.169 96.3003 24.1555 96.1453 24.1555C95.3501 24.1757 94.7402 24.5699 94.3156 25.3382C93.8978 26.0997 93.6889 27.1342 93.6889 28.4416C93.6889 29.3581 93.8169 30.15 94.073 30.8172C94.3358 31.4776 94.7099 31.9831 95.1951 32.3335C95.687 32.6839 96.2666 32.8591 96.9338 32.8591C97.4729 32.8591 98.0019 32.7682 98.5209 32.5862C99.0465 32.4043 99.4677 32.1684 99.7845 31.8786L99.926 32.01C99.4408 32.8052 98.8174 33.4219 98.0559 33.8599C97.2943 34.2912 96.3879 34.5069 95.3366 34.5069Z" fill="white"/>
<path d="M106.765 32.8591C107.338 32.8591 107.874 32.7682 108.372 32.5862C108.871 32.3975 109.286 32.1616 109.616 31.8786L109.768 32.01C109.262 32.8187 108.632 33.4387 107.877 33.87C107.129 34.2946 106.226 34.5069 105.168 34.5069C104.184 34.5069 103.318 34.2879 102.57 33.8498C101.822 33.4118 101.242 32.8019 100.831 32.0201C100.427 31.2316 100.225 30.3353 100.225 29.3312C100.225 28.2462 100.444 27.2825 100.882 26.4401C101.327 25.5977 101.947 24.944 102.742 24.479C103.537 24.0072 104.44 23.7713 105.451 23.7713C106.388 23.7713 107.2 23.9803 107.887 24.3981C108.575 24.8092 109.097 25.3719 109.454 26.0863C109.818 26.7939 110 27.5857 110 28.4618H103.389V28.7348C103.389 29.5569 103.524 30.2814 103.793 30.9082C104.063 31.5282 104.45 32.01 104.956 32.3537C105.468 32.6907 106.071 32.8591 106.765 32.8591ZM105.299 24.2161C104.625 24.2161 104.15 24.6306 103.874 25.4595C103.605 26.2817 103.446 27.1881 103.399 28.1788L106.947 27.9564C106.947 26.649 106.812 25.6988 106.543 25.1057C106.28 24.5127 105.866 24.2161 105.299 24.2161Z" fill="white"/>
<path d="M3.3 43.6H5.34L8.58 52H6.66L5.94 50.08H2.7L1.98 52H0.06L3.3 43.6ZM5.34 48.46L4.344 45.7H4.296L3.3 48.46H5.34ZM13.3167 43.6H16.3767C17.0247 43.6 17.6167 43.712 18.1527 43.936C18.6967 44.152 19.1647 44.448 19.5567 44.824C19.9567 45.2 20.2647 45.644 20.4807 46.156C20.7047 46.668 20.8167 47.216 20.8167 47.8C20.8167 48.384 20.7047 48.932 20.4807 49.444C20.2647 49.956 19.9567 50.4 19.5567 50.776C19.1647 51.152 18.6967 51.452 18.1527 51.676C17.6167 51.892 17.0247 52 16.3767 52H13.3167V43.6ZM16.3767 50.32C16.7527 50.32 17.0967 50.256 17.4087 50.128C17.7287 50 18.0007 49.824 18.2247 49.6C18.4567 49.376 18.6367 49.112 18.7647 48.808C18.8927 48.496 18.9567 48.16 18.9567 47.8C18.9567 47.44 18.8927 47.108 18.7647 46.804C18.6367 46.492 18.4567 46.224 18.2247 46C18.0007 45.776 17.7287 45.6 17.4087 45.472C17.0967 45.344 16.7527 45.28 16.3767 45.28H15.1167V50.32H16.3767ZM26.0339 43.6H27.6539L30.5339 47.2L33.4139 43.6H35.0339V52H33.2339V46.48L30.5339 49.84L27.8339 46.48V52H26.0339V43.6ZM40.7902 43.6H42.5902V52H40.7902V43.6ZM48.3511 43.6H49.9711L54.0511 48.82V43.6H55.8511V52H54.2311L50.1511 46.78V52H48.3511V43.6Z" fill="white"/>
</svg>
