<svg width="162" height="156" viewBox="0 0 162 156" fill="none" xmlns="http://www.w3.org/2000/svg">
<path d="M112.986 32.9803C113.889 32.9322 114.768 32.7035 115.586 32.3063C116.417 31.9091 117.175 31.3675 117.813 30.6935C118.523 29.9592 119.065 29.0806 119.402 28.1056C119.582 27.5881 119.642 27.0464 119.582 26.5048C119.522 26.0474 119.317 25.6262 119.005 25.3012C118.439 24.7234 117.5 24.5068 116.814 25.0243C116.092 25.6021 115.839 26.5891 116.2 27.4436C116.561 28.2501 117.5 28.5991 118.331 28.551C119.33 28.4908 120.208 27.9131 120.894 27.227C121.64 26.4807 122.278 25.6382 122.796 24.7234C123.326 23.8087 123.747 22.8217 124.048 21.8107C124.12 21.5699 124.18 21.3292 124.24 21.0885C124.264 21.0283 124.264 20.9561 124.24 20.8959C124.216 20.8477 124.156 20.8357 124.108 20.8598C123.951 20.932 123.843 21.0764 123.795 21.2449C123.687 21.7144 123.554 22.1838 123.386 22.6291C123.362 22.6893 123.35 22.7374 123.326 22.7976C123.326 22.8097 123.314 22.8217 123.314 22.8337C123.314 22.8337 123.338 22.7736 123.326 22.8097C123.314 22.8458 123.302 22.8698 123.289 22.906C123.241 23.0263 123.193 23.1346 123.145 23.255C123.049 23.4717 122.952 23.6883 122.844 23.905C122.796 24.0133 122.736 24.1216 122.676 24.23L122.652 24.2781L122.664 24.254L122.615 24.3383C122.591 24.3864 122.555 24.4466 122.531 24.4947C122.411 24.7114 122.278 24.916 122.146 25.1206C122.086 25.2169 122.014 25.3253 121.941 25.4215L121.893 25.4938L121.857 25.5419C121.881 25.5058 121.857 25.5419 121.857 25.5419C121.857 25.5419 121.833 25.566 121.833 25.578L121.785 25.6502C121.64 25.8428 121.496 26.0354 121.328 26.228C121.255 26.3122 121.183 26.4085 121.099 26.4928C121.063 26.5409 121.027 26.577 120.978 26.6252C120.93 26.6733 121.015 26.5891 120.966 26.6372L120.894 26.7094C120.726 26.8779 120.557 27.0344 120.377 27.1909L120.304 27.2511C120.341 27.215 120.304 27.2511 120.292 27.2631L120.148 27.3714C120.052 27.4316 119.955 27.5038 119.859 27.552L119.715 27.6362L119.679 27.6603L119.594 27.6964C119.486 27.7446 119.39 27.7807 119.281 27.8168C119.185 27.8529 119.089 27.877 118.98 27.901C118.944 27.9131 118.896 27.9131 118.86 27.9251C118.812 27.9371 118.764 27.9371 118.704 27.9492C118.499 27.9732 118.282 27.9612 118.078 27.9371C117.681 27.889 117.307 27.7325 116.994 27.4677C116.922 27.4075 116.862 27.3474 116.814 27.2872C116.754 27.215 116.706 27.1427 116.669 27.0705C116.621 26.9983 116.585 26.914 116.561 26.8298C116.549 26.8057 116.549 26.7937 116.537 26.7696C116.537 26.7576 116.525 26.7576 116.525 26.7455C116.537 26.7816 116.525 26.7455 116.525 26.7455C116.513 26.7094 116.501 26.6613 116.501 26.6131C116.489 26.5289 116.477 26.4326 116.477 26.3483C116.477 26.3243 116.477 26.3002 116.477 26.2882C116.477 26.3363 116.477 26.3002 116.477 26.2761C116.477 26.228 116.477 26.1798 116.489 26.1317C116.501 26.0956 116.501 26.0474 116.513 26.0113C116.513 26.0474 116.501 26.0595 116.513 26.0354L116.525 26.0113C116.525 25.9873 116.537 25.9632 116.549 25.9391C116.561 25.915 116.561 25.903 116.573 25.8789C116.597 25.8187 116.537 25.9632 116.573 25.8789C116.585 25.8428 116.609 25.7947 116.633 25.7586C116.633 25.7586 116.585 25.8428 116.609 25.8067L116.621 25.7826L116.657 25.7345C116.694 25.6743 116.609 25.7947 116.645 25.7465C116.657 25.7225 116.669 25.7104 116.694 25.6863L116.718 25.6623C116.742 25.6382 116.682 25.6984 116.694 25.6984C116.706 25.6984 116.718 25.6743 116.742 25.6502L116.79 25.6141C116.802 25.6021 116.826 25.5901 116.79 25.6141C116.754 25.6382 116.79 25.6141 116.802 25.6021C116.838 25.578 116.874 25.5539 116.91 25.5299C116.946 25.5058 116.958 25.5058 116.922 25.5299L116.994 25.4938C117.031 25.4817 117.079 25.4577 117.115 25.4456L117.175 25.4336C117.187 25.4336 117.259 25.4215 117.211 25.4215C117.56 25.3734 117.921 25.4456 118.222 25.6382C118.547 25.8187 118.8 26.0956 118.956 26.4326C119.053 26.6372 119.101 26.8539 119.125 27.0826C119.125 27.1427 119.137 27.1909 119.137 27.2511C119.137 27.2751 119.137 27.3112 119.137 27.3353C119.137 27.3474 119.137 27.3594 119.137 27.3714C119.137 27.3353 119.137 27.3835 119.137 27.3955C119.137 27.5159 119.125 27.6362 119.101 27.7566C119.089 27.8168 119.077 27.877 119.065 27.9371C119.065 27.9732 119.065 27.9251 119.065 27.9251C119.065 27.9371 119.053 27.9612 119.053 27.9732L119.029 28.0575C118.993 28.1779 118.956 28.2982 118.92 28.4186C118.908 28.4427 118.908 28.4667 118.896 28.4908C118.932 28.4186 118.896 28.5028 118.884 28.5149C118.86 28.5751 118.836 28.6352 118.812 28.6954C118.764 28.8037 118.716 28.9121 118.655 29.0084L118.631 29.0445L118.655 29.0084C118.643 29.0324 118.631 29.0565 118.619 29.0806C118.595 29.1287 118.571 29.1769 118.535 29.213C118.475 29.3093 118.427 29.3935 118.367 29.4898L118.282 29.6102L118.258 29.6463L118.222 29.6944C118.162 29.7787 118.102 29.8629 118.03 29.9352C117.957 30.0074 117.897 30.0916 117.825 30.1759L117.717 30.2963L117.741 30.2722C117.729 30.2842 117.717 30.2963 117.705 30.3083L117.644 30.3685C117.5 30.5129 117.344 30.6573 117.187 30.7897C117.151 30.8259 117.103 30.862 117.067 30.886L117.019 30.9221L116.982 30.9462C116.994 30.9342 117.019 30.9221 116.994 30.9342C116.91 30.9944 116.826 31.0545 116.742 31.1147C116.573 31.2351 116.381 31.3554 116.2 31.4517C116.104 31.4999 116.02 31.5601 115.923 31.6082L115.851 31.6443C115.899 31.6202 115.839 31.6564 115.815 31.6564L115.67 31.7286C115.478 31.8128 115.273 31.8971 115.081 31.9693C114.876 32.0415 114.684 32.1017 114.479 32.1498C114.274 32.198 114.07 32.2461 113.889 32.2702C113.709 32.2943 113.48 32.3184 113.275 32.3304C113.119 32.3424 112.998 32.5109 112.938 32.6433C112.902 32.7156 112.818 32.9924 112.986 32.9803Z" fill="#0E1E36"/>
<path d="M117.488 34.5812L117.536 34.5331C117.536 34.5331 117.596 34.4729 117.56 34.509C117.524 34.5451 117.572 34.4969 117.584 34.4849C117.596 34.4729 117.608 34.4608 117.62 34.4488C117.681 34.3886 117.753 34.3284 117.813 34.2683L117.849 34.2442C117.861 34.2321 117.921 34.184 117.861 34.2321C117.885 34.2081 117.921 34.184 117.957 34.1599C118.03 34.1118 118.102 34.0636 118.174 34.0155C118.246 33.9673 118.306 33.9312 118.379 33.8951L118.439 33.859C118.427 33.859 118.403 33.8831 118.439 33.859L118.571 33.7988C118.716 33.7387 118.872 33.6785 119.029 33.6303C119.342 33.534 119.654 33.4859 119.979 33.4859C120.304 33.4859 120.617 33.522 120.918 33.6183C121.52 33.7988 122.062 34.1359 122.507 34.5812C122.952 35.0386 123.338 35.6765 123.35 36.3265C123.35 36.4107 123.35 36.2783 123.35 36.3626V36.4107C123.35 36.4348 123.35 36.4589 123.338 36.4829C123.338 36.4829 123.326 36.5672 123.338 36.519C123.35 36.4709 123.326 36.5551 123.326 36.5551C123.314 36.5792 123.314 36.5913 123.301 36.6153C123.277 36.6755 123.277 36.6153 123.301 36.6033C123.289 36.6033 123.277 36.6635 123.277 36.6755C123.253 36.7237 123.326 36.5913 123.289 36.6514C123.277 36.6635 123.265 36.6875 123.253 36.7116C123.253 36.7116 123.314 36.6394 123.277 36.6875L123.241 36.7357C123.217 36.7718 123.229 36.7237 123.253 36.7237C123.241 36.7237 123.217 36.7598 123.205 36.7718L123.169 36.7959C123.145 36.8199 123.145 36.8199 123.181 36.7838L123.145 36.8079C123.121 36.832 123.085 36.844 123.061 36.8681C123.037 36.8922 123.061 36.8681 123.061 36.8681L123.001 36.8922C122.94 36.9162 122.88 36.9283 122.82 36.9403C122.688 36.9523 122.543 36.9283 122.435 36.844C122.315 36.7718 122.218 36.6635 122.146 36.5431C122.11 36.4829 122.086 36.4107 122.062 36.3385C122.062 36.3505 122.074 36.3626 122.062 36.3265C122.062 36.3024 122.05 36.2904 122.05 36.2663C122.038 36.2181 122.038 36.182 122.038 36.1339C122.038 36.1218 122.038 36.0978 122.038 36.0857C122.038 36.0015 122.038 36.1218 122.038 36.0496C122.038 36.0015 122.05 35.9654 122.05 35.9172C122.05 35.8932 122.062 35.8691 122.062 35.857C122.062 35.8089 122.038 35.9172 122.062 35.845C122.074 35.7969 122.086 35.7487 122.11 35.6885C122.11 35.6885 122.134 35.6043 122.122 35.6524C122.11 35.7006 122.134 35.6163 122.134 35.6163C122.158 35.5802 122.17 35.5321 122.194 35.496C122.218 35.4598 122.242 35.4237 122.254 35.3756L122.23 35.4117L122.254 35.3636L122.29 35.3034C122.327 35.2432 122.363 35.195 122.399 35.1349L122.459 35.0386C122.471 35.0145 122.507 34.9784 122.447 35.0626C122.459 35.0386 122.471 35.0265 122.483 35.0025C122.567 34.8941 122.652 34.7858 122.748 34.6775L122.772 34.6534C122.712 34.7377 122.748 34.6775 122.76 34.6654L122.832 34.5932C122.88 34.5451 122.94 34.4969 122.989 34.4488C123.037 34.4007 123.085 34.3645 123.133 34.3164C123.157 34.3044 123.181 34.2562 123.205 34.2562L123.181 34.2803L123.217 34.2562L123.265 34.2201C123.374 34.1359 123.494 34.0636 123.602 33.9914C123.663 33.9553 123.723 33.9192 123.795 33.8831L123.879 33.8349L123.915 33.8109L123.939 33.7988C124.192 33.6785 124.445 33.5701 124.71 33.4859C124.842 33.4498 124.975 33.4137 125.107 33.3776L125.215 33.3535L125.263 33.3415H125.287C125.36 33.3294 125.432 33.3174 125.504 33.3053C125.781 33.2692 126.058 33.2572 126.335 33.2692C126.888 33.2813 127.43 33.4137 127.935 33.6303C128.068 33.6905 128.188 33.7507 128.309 33.8229C128.429 33.8951 128.585 33.6905 128.646 33.6063C128.694 33.534 128.73 33.4498 128.742 33.3655C128.742 33.3174 128.754 33.2452 128.694 33.2091C127.623 32.6072 126.335 32.4989 125.143 32.7998C123.891 33.1128 122.808 33.8831 122.086 34.9543C121.833 35.3154 121.665 35.7126 121.568 36.1459C121.484 36.519 121.556 36.9042 121.785 37.2171C121.99 37.494 122.339 37.6264 122.688 37.5542C123.073 37.4699 123.398 37.157 123.59 36.8199C123.819 36.4228 123.891 35.9533 123.783 35.508C123.699 35.1349 123.542 34.7858 123.326 34.4729C122.94 33.9072 122.399 33.4498 121.785 33.1729C121.147 32.8841 120.437 32.7758 119.751 32.8841C119.005 33.0044 118.306 33.3174 117.741 33.8109C117.596 33.9433 117.464 34.0757 117.331 34.2201C117.271 34.2923 117.223 34.3766 117.199 34.4608C117.175 34.521 117.175 34.5932 117.199 34.6534C117.259 34.834 117.44 34.6534 117.488 34.5812Z" fill="#0E1E36"/>
<path d="M112.746 28.5751C113.287 27.8529 113.648 27.0103 113.817 26.1197C113.973 25.3012 113.949 24.4586 113.733 23.6643C113.612 23.2069 113.444 22.7736 113.203 22.3643C113.083 22.1477 112.637 22.7013 112.758 22.906C113.143 23.568 113.372 24.3142 113.42 25.0845C113.432 25.1808 113.432 25.2771 113.432 25.3734V25.5299C113.432 25.554 113.432 25.578 113.432 25.6141C113.42 25.8067 113.408 25.9993 113.384 26.1919C113.372 26.2882 113.347 26.3845 113.335 26.4807C113.335 26.4928 113.335 26.5048 113.323 26.5169C113.323 26.5169 113.335 26.4687 113.323 26.4928C113.311 26.5169 113.311 26.5409 113.311 26.565C113.299 26.6131 113.287 26.6613 113.275 26.7094C113.251 26.8057 113.227 26.902 113.191 26.9983C113.179 27.0465 113.167 27.0826 113.143 27.1307C113.131 27.1548 113.131 27.1789 113.119 27.1909L113.107 27.227C113.095 27.2751 113.131 27.1668 113.119 27.2029C113.083 27.3113 113.035 27.4075 112.986 27.5038C112.962 27.552 112.938 27.6001 112.914 27.6483L112.878 27.7205C112.842 27.7927 112.902 27.6723 112.878 27.7205C112.83 27.8168 112.77 27.9131 112.71 28.0094C112.685 28.0575 112.649 28.0936 112.625 28.1418L112.601 28.1658C112.577 28.2019 112.601 28.1538 112.613 28.1418C112.589 28.1658 112.577 28.1899 112.553 28.214C112.493 28.2862 112.445 28.3705 112.421 28.4547C112.397 28.5149 112.397 28.5871 112.421 28.6473C112.505 28.8038 112.698 28.6352 112.746 28.5751Z" fill="#0E1E36"/>
<path d="M1.21723 83.3644C0.771883 75.276 1.53017 67.1515 3.61245 59.3279C5.57437 52.0459 8.60752 45.1009 12.6397 38.7337C16.5394 32.5711 21.2697 26.9622 26.6861 22.0755C31.9459 17.3091 37.7956 13.2288 44.0785 9.91879C50.3374 6.62084 57.0537 4.08117 63.9745 2.60071C71.4371 0.999877 79.1403 0.626752 86.7111 1.34893C94.3301 2.08315 101.805 3.88859 108.918 6.71713C115.971 9.50955 122.591 13.289 128.585 17.947C134.616 22.6532 139.924 28.2742 144.197 34.6293C149.42 42.4409 153.188 51.1432 155.282 60.3148C157.172 68.5236 157.665 76.9972 156.75 85.3865C154.933 101.623 148.205 116.91 137.468 129.211C132.052 135.397 125.637 140.633 118.499 144.713C111.253 148.842 103.309 151.743 95.1366 153.404C86.9278 155.065 78.5144 155.45 70.1853 154.559C61.8923 153.668 53.7316 151.466 46.1728 147.939C39.0594 144.629 32.4996 140.152 26.7342 134.844C20.9207 129.475 15.9136 123.277 11.8814 116.464C7.84923 109.664 4.85219 102.31 2.9986 94.6183C2.11995 90.9111 1.53017 87.1558 1.21723 83.3644C1.19315 83.0153 0.639484 83.6171 0.663556 83.8699C1.32555 91.8259 3.22729 99.6254 6.30859 106.992C9.40192 114.418 13.5906 121.351 18.718 127.562C23.7733 133.7 29.7192 139.044 36.3633 143.426C43.248 147.939 50.8429 151.273 58.823 153.307C67.0799 155.402 75.6016 156.16 84.0993 155.582C92.5006 155.017 100.758 153.163 108.581 150.082C116.345 147.024 123.542 142.703 129.885 137.299C136.06 132.015 141.368 125.72 145.629 118.811C149.902 111.878 153.128 104.344 155.186 96.4599C157.22 88.6603 158.099 80.5479 157.641 72.4956C157.136 63.36 154.909 54.3087 151.25 45.9314C147.807 38.0838 143.077 30.8259 137.167 24.6151C131.823 19.0062 125.588 14.2519 118.824 10.4965C112.096 6.76527 104.886 3.99692 97.3873 2.28776C89.8165 0.530461 82.029 -0.0833909 74.2776 0.458243C66.8151 0.999877 59.485 2.68496 52.528 5.44128C39.1557 10.7132 27.336 19.3071 18.1764 30.3926C13.4461 36.1339 9.54635 42.5252 6.60949 49.3618C3.55227 56.5354 1.61442 64.1303 0.88021 71.8938C0.507084 75.8778 0.434866 79.8859 0.663556 83.8819C0.675593 84.2189 1.22926 83.6171 1.21723 83.3644Z" fill="#F5B3A6"/>
<path d="M147.145 58.5936C147.145 58.5094 147.133 58.4371 147.133 58.3529C147.133 58.3168 147.133 58.2686 147.133 58.2325C147.133 58.2325 147.133 58.1483 147.133 58.2085C147.133 58.1844 147.133 58.1603 147.133 58.1362C147.133 57.9798 147.145 57.8113 147.169 57.6548C147.194 57.4983 147.206 57.3418 147.242 57.1974C147.242 57.1613 147.254 57.1252 147.266 57.0891C147.278 57.053 147.266 57.0891 147.266 57.1011C147.266 57.077 147.278 57.053 147.278 57.0409C147.29 56.9567 147.314 56.8845 147.338 56.8122C147.374 56.6678 147.422 56.5354 147.47 56.403C147.482 56.3669 147.494 56.3308 147.506 56.3067C147.494 56.391 147.494 56.3428 147.506 56.3067C147.506 56.2947 147.519 56.2826 147.519 56.2706C147.543 56.1984 147.579 56.1262 147.615 56.054C147.675 55.9216 147.747 55.7892 147.807 55.6568C147.747 55.7651 147.807 55.6568 147.819 55.6327C147.831 55.6086 147.856 55.5725 147.868 55.5364C147.904 55.4762 147.952 55.404 147.988 55.3438C148.024 55.2836 148.06 55.2235 148.108 55.1753C148.132 55.1512 148.144 55.1151 148.168 55.0911C148.096 55.1994 148.181 55.079 148.193 55.0549C148.277 54.9466 148.361 54.8383 148.457 54.73C148.506 54.6818 148.554 54.6216 148.59 54.5735L148.626 54.5374C148.674 54.4892 148.578 54.5855 148.614 54.5494L148.698 54.4652C148.794 54.3689 148.903 54.2605 149.011 54.1763C149.107 54.08 149.216 53.9837 149.336 53.8995C149.264 53.9476 149.36 53.8874 149.372 53.8754L149.456 53.8152C149.517 53.7671 149.577 53.7309 149.637 53.6828C149.866 53.5263 150.094 53.3939 150.335 53.2615C150.347 53.2495 150.431 53.2134 150.383 53.2375C150.407 53.2254 150.443 53.2134 150.467 53.1893C150.528 53.1532 150.6 53.1291 150.66 53.093C150.78 53.0328 150.913 52.9847 151.045 52.9366C151.31 52.8403 151.587 52.756 151.876 52.6958C152.153 52.6356 152.429 52.6116 152.718 52.5995C153.019 52.5875 153.32 52.5875 153.621 52.6236C154.801 52.744 155.932 53.1893 156.871 53.9235C157.906 54.742 158.628 55.8975 158.929 57.1854C159.001 57.5224 159.049 57.8594 159.073 58.1964C159.073 58.2686 159.073 58.3529 159.085 58.4251V58.5334C159.085 58.5816 159.085 58.4733 159.085 58.5455C159.085 58.5695 159.085 58.5936 159.085 58.6177C159.085 58.7742 159.073 58.9306 159.049 59.0871C159.025 59.2436 159.013 59.4 158.977 59.5565C158.965 59.5926 158.965 59.6287 158.953 59.6648C158.977 59.5806 158.941 59.701 158.941 59.725C158.917 59.8093 158.905 59.8815 158.881 59.9658C158.845 60.1222 158.797 60.2667 158.736 60.4231C158.724 60.4592 158.712 60.4954 158.7 60.5315C158.7 60.5194 158.724 60.4592 158.712 60.5074L158.688 60.5676C158.664 60.6398 158.628 60.712 158.592 60.7842C158.532 60.9287 158.46 61.0611 158.387 61.2055C158.351 61.2777 158.423 61.1333 158.387 61.2055L158.363 61.2416L158.303 61.3379C158.267 61.4101 158.219 61.4823 158.171 61.5545C158.123 61.6268 158.086 61.6749 158.05 61.7471C158.038 61.7712 157.954 61.8675 158.026 61.7832C158.002 61.8193 157.978 61.8555 157.942 61.8916C157.846 62.0119 157.749 62.1443 157.641 62.2647L157.569 62.3489C157.557 62.361 157.545 62.373 157.533 62.385C157.593 62.3128 157.545 62.373 157.533 62.385C157.473 62.4452 157.424 62.5054 157.364 62.5536C157.256 62.6619 157.136 62.7702 157.015 62.8665L156.931 62.9387C156.991 62.8906 156.931 62.9387 156.919 62.9508L156.883 62.9748C156.811 63.023 156.738 63.0711 156.678 63.1193C156.546 63.2156 156.401 63.2998 156.257 63.3841C156.185 63.4202 156.125 63.4563 156.052 63.4924C155.98 63.5285 156.076 63.4804 156.04 63.5044L155.992 63.5285L155.86 63.5887C155.715 63.6609 155.559 63.7211 155.402 63.7813C154.801 63.9979 154.163 64.1303 153.525 64.1544C153.2 64.1664 152.875 64.1544 152.55 64.1183C151.286 63.9738 150.106 63.4322 149.168 62.5776C148.722 62.1684 148.337 61.6869 148.024 61.1694C147.711 60.6518 147.482 60.0861 147.338 59.4963C147.266 59.2075 147.218 58.9066 147.194 58.6177C147.182 58.4612 147.001 58.5334 146.929 58.6057C146.796 58.714 146.724 58.8825 146.712 59.063C146.832 60.3509 147.326 61.5666 148.156 62.5536C148.566 63.047 149.047 63.4804 149.577 63.8414C150.13 64.2025 150.756 64.4673 151.394 64.6358C154.151 65.3219 157.039 64.1424 158.508 61.711C159.242 60.5435 159.603 59.1714 159.543 57.7872C159.459 56.3428 158.869 54.9827 157.882 53.9356C157.015 53.0449 155.908 52.431 154.692 52.1662C153.501 51.8894 152.249 51.9736 151.105 52.419C149.986 52.8643 148.987 53.5865 148.229 54.5133C147.386 55.5244 146.869 56.7521 146.724 58.064C146.688 58.401 146.688 58.7381 146.7 59.0751C146.712 59.2436 146.893 59.1593 146.965 59.0871C147.097 58.9788 147.169 58.8103 147.182 58.6297L147.145 58.5936Z" fill="#0E1E36"/>
<path d="M158.195 67.8375V67.7653C158.195 67.693 158.195 67.7893 158.195 67.7532C158.195 67.7171 158.195 67.669 158.207 67.6329C158.219 67.5968 158.219 67.5607 158.219 67.5245C158.219 67.5005 158.219 67.4764 158.219 67.5366C158.219 67.5125 158.231 67.4764 158.243 67.4523C158.255 67.4283 158.279 67.3801 158.279 67.356C158.279 67.3921 158.255 67.4162 158.267 67.3801L158.291 67.3199L158.315 67.2718C158.327 67.2477 158.363 67.2116 158.303 67.2959C158.327 67.2597 158.339 67.2236 158.363 67.1875C158.363 67.1755 158.412 67.1153 158.375 67.1755C158.339 67.2357 158.375 67.1755 158.387 67.1635C158.412 67.1394 158.424 67.1153 158.448 67.0792C158.472 67.0431 158.52 67.019 158.448 67.0792L158.472 67.0551C158.496 67.0311 158.532 66.9949 158.556 66.9709C158.568 66.9588 158.592 66.9348 158.604 66.9348C158.58 66.9348 158.556 66.9709 158.592 66.9468C158.628 66.9227 158.652 66.8987 158.676 66.8866C158.7 66.8746 158.736 66.8505 158.773 66.8264L158.809 66.8024L158.845 66.7783L158.833 66.7903C158.893 66.7663 158.953 66.7422 159.025 66.7181C159.061 66.7061 159.086 66.694 159.122 66.694L159.17 66.682C159.182 66.682 159.242 66.67 159.206 66.67C159.35 66.6459 159.507 66.6459 159.651 66.6579C159.952 66.694 160.229 66.8144 160.47 67.007C160.723 67.2116 160.891 67.4884 160.963 67.8014C160.987 67.8856 160.999 67.9699 160.999 68.0541C160.999 68.0782 160.999 68.0902 160.999 68.1143C160.999 68.1865 160.999 68.0662 160.999 68.1384C160.999 68.1865 160.999 68.2347 160.987 68.2708C160.975 68.3069 160.975 68.343 160.975 68.3791C160.963 68.4393 160.975 68.3791 160.975 68.3671C160.975 68.3912 160.963 68.4152 160.963 68.4273C160.951 68.4634 160.939 68.4995 160.927 68.5356C160.903 68.6078 160.951 68.4874 160.927 68.5236C160.915 68.5476 160.903 68.5717 160.891 68.5958L160.867 68.6439C160.843 68.68 160.831 68.68 160.879 68.6319C160.855 68.668 160.843 68.6921 160.819 68.7282C160.795 68.7522 160.759 68.7884 160.819 68.7282C160.807 68.7402 160.795 68.7522 160.795 68.7643C160.771 68.8004 160.735 68.8365 160.71 68.8726C160.759 68.8004 160.723 68.8485 160.71 68.8726L160.674 68.9087L160.626 68.9569C160.626 68.9569 160.566 69.005 160.602 68.9809L160.578 68.993C160.566 69.005 160.542 69.017 160.53 69.0291C160.494 69.0531 160.446 69.0772 160.41 69.1013C160.373 69.1254 160.458 69.0772 160.398 69.1133L160.337 69.1374C160.301 69.1494 160.265 69.1615 160.229 69.1735C160.157 69.1976 160.085 69.2217 160.012 69.2337C159.844 69.2578 159.687 69.2578 159.519 69.2337C159.17 69.1855 158.845 69.005 158.604 68.7402C158.496 68.6198 158.399 68.4754 158.327 68.3189C158.303 68.2828 158.291 68.2347 158.279 68.1986C158.279 68.1865 158.267 68.1745 158.267 68.1625C158.267 68.1504 158.255 68.1384 158.255 68.1264C158.255 68.1504 158.255 68.1384 158.255 68.1143C158.219 68.006 158.207 67.9217 158.195 67.8375C158.183 67.669 158.002 67.7532 157.93 67.8254C157.798 67.9338 157.725 68.1023 157.713 68.2828C157.786 69.0291 158.315 69.655 159.049 69.8355C159.423 69.9198 159.808 69.8837 160.169 69.7392C160.578 69.5587 160.915 69.2457 161.144 68.8606C161.372 68.4874 161.481 68.0662 161.469 67.6208C161.445 67.2116 161.276 66.8264 160.999 66.5376C160.494 66.032 159.748 65.8756 159.086 66.1524C158.231 66.5135 157.689 67.3681 157.713 68.2949C157.725 68.4634 157.906 68.3791 157.978 68.3069C158.111 68.1745 158.195 68.018 158.195 67.8375Z" fill="#0E1E36"/>
<path d="M152.538 62.024C152.49 61.2416 152.165 60.5074 151.635 59.9417C150.672 58.9667 149.228 58.6538 147.952 59.1473C146.664 59.6648 145.665 60.9046 145.533 62.3008C145.521 62.4813 145.509 62.6619 145.521 62.8424C145.521 62.8545 145.521 62.8545 145.521 62.8665C145.581 63.5646 145.858 64.2386 146.315 64.7682C146.772 65.3219 147.398 65.7191 148.096 65.8876C148.818 66.0561 149.577 65.9959 150.263 65.7071C150.973 65.4062 151.575 64.8766 151.972 64.2146C152.381 63.5526 152.574 62.7943 152.538 62.024Z" fill="#F5B3A6"/>
<path d="M21.5105 28.2742C20.692 27.6483 19.717 27.2751 18.694 27.1909C17.6829 27.1066 16.6598 27.3112 15.7691 27.8047C14.8784 28.2982 14.1803 29.1047 13.6989 29.9953C13.2174 30.886 13.0128 31.9091 13.1211 32.9202C13.398 35.0747 15.2034 36.7116 17.382 36.7718C18.381 36.8079 19.38 36.5551 20.2466 36.0496C21.1494 35.52 21.8715 34.7136 22.3169 33.7627C22.69 32.9081 22.8465 31.9813 22.7622 31.0545C22.7021 30.224 22.4613 29.3454 21.9197 28.6834C21.7993 28.539 21.6549 28.3945 21.5105 28.2742C21.4743 28.238 21.3901 28.2742 21.354 28.2982C21.2818 28.3464 21.2216 28.4066 21.1734 28.4908C21.1133 28.5871 21.0049 28.7917 21.1253 28.888C21.1975 28.9482 21.2697 29.0084 21.3299 29.0686C21.366 29.1047 21.3901 29.1287 21.4262 29.1648L21.4503 29.2009L21.4984 29.2611C21.6188 29.4056 21.7151 29.5741 21.8114 29.7426C21.9919 30.0916 22.1243 30.4648 22.1965 30.862C22.2447 31.0666 22.2687 31.2832 22.2808 31.4878C22.2928 31.5962 22.2928 31.7045 22.3049 31.8249C22.3049 31.873 22.3049 31.9212 22.3049 31.9693V32.0054C22.3049 31.9934 22.3049 31.9573 22.3049 32.0054C22.3049 32.0295 22.3049 32.0656 22.3049 32.0897C22.2928 32.3063 22.2808 32.5109 22.2447 32.7276C22.2326 32.7757 22.2326 32.8239 22.2206 32.872C22.2206 32.8961 22.2086 32.9202 22.2086 32.9563C22.2086 32.9924 22.2086 32.9804 22.2086 32.9804C22.2086 32.9804 22.2086 33.0526 22.2086 32.9804C22.1965 33.0766 22.1725 33.1729 22.1363 33.2692C22.1123 33.3655 22.0762 33.4618 22.0401 33.5581C22.0401 33.5701 22.0401 33.5701 22.028 33.5822C22.016 33.6183 22.0521 33.51 22.0401 33.5581L22.016 33.6183C21.9919 33.6785 21.9678 33.7266 21.9438 33.7747C21.9197 33.8229 21.8956 33.8831 21.8595 33.9433L21.8234 34.0155L21.8475 33.9794C21.8354 34.0034 21.8234 34.0155 21.8114 34.0395C21.7512 34.1358 21.691 34.2321 21.6308 34.3284C21.6188 34.3525 21.5947 34.3766 21.5827 34.4006L21.5947 34.3766L21.5706 34.4127C21.5345 34.4608 21.4984 34.509 21.4623 34.5571C21.4262 34.6053 21.4021 34.6414 21.366 34.6775C21.3299 34.7136 21.3299 34.7256 21.3058 34.7377C21.2938 34.7497 21.2818 34.7617 21.2818 34.7738C21.2938 34.7617 21.3299 34.7256 21.2938 34.7617C21.2095 34.846 21.1253 34.9302 21.041 35.0025C21.0049 35.0386 20.9688 35.0747 20.9207 35.0987L20.8485 35.1589C20.8364 35.171 20.8244 35.171 20.8124 35.183C20.8244 35.171 20.8485 35.1469 20.8244 35.171C20.6438 35.3154 20.4513 35.4358 20.2466 35.5561L20.1022 35.6283L20.0781 35.6404C20.042 35.6645 20.1142 35.6163 20.0781 35.6404L19.9939 35.6885C19.8976 35.7367 19.7893 35.7848 19.6809 35.8209C19.4763 35.9052 19.2597 35.9654 19.043 36.0255L18.8865 36.0616L18.8143 36.0737L18.7782 36.0857H18.7541C18.6338 36.1098 18.5134 36.1218 18.3931 36.1339C17.3459 36.2542 16.2867 36.0015 15.408 35.4237C14.6257 34.8821 14.0359 34.0997 13.747 33.197C13.6748 32.9804 13.6267 32.7517 13.6026 32.523C13.5906 32.4026 13.5785 32.2943 13.5785 32.1739C13.5785 32.1137 13.5785 32.0656 13.5785 32.0054V31.9693V31.873C13.5906 31.6443 13.6146 31.4156 13.6628 31.1869C13.6748 31.1508 13.6507 31.2351 13.6628 31.199L13.6748 31.1629C13.6748 31.1388 13.6869 31.1027 13.6989 31.0786C13.7109 31.0184 13.723 30.9583 13.747 30.9101C13.7831 30.8018 13.8193 30.6935 13.8554 30.5851C13.8794 30.5009 13.8313 30.6333 13.8554 30.5731L13.8915 30.4888C13.9155 30.4287 13.9396 30.3805 13.9637 30.3203C13.9878 30.2601 14.0118 30.224 14.0359 30.1759C14.0479 30.1518 14.06 30.1277 14.072 30.1037C14.0841 30.0796 14.0841 30.0796 14.0961 30.0676L14.1081 30.0555C14.0841 30.1157 14.1202 30.0315 14.1322 30.0194L14.1803 29.9472C14.2044 29.8991 14.2405 29.8509 14.2766 29.8028C14.3127 29.7546 14.3368 29.7065 14.3729 29.6583L14.4211 29.5981C14.4572 29.55 14.409 29.6222 14.397 29.6222C14.409 29.6102 14.4211 29.5981 14.4331 29.5741C14.5053 29.4778 14.5655 29.3935 14.6498 29.3093L14.7581 29.1889L14.7822 29.1528C14.8062 29.1287 14.7581 29.1769 14.7581 29.1769L14.8303 29.1047C14.9146 29.0204 14.9868 28.9482 15.071 28.876C15.1071 28.8399 15.1553 28.8038 15.1914 28.7676C15.2155 28.7556 15.2275 28.7436 15.2516 28.7195C15.1914 28.7797 15.2636 28.7075 15.2877 28.6954C15.4562 28.563 15.6488 28.4547 15.8414 28.3464L15.8775 28.3223C15.9136 28.3103 15.8414 28.3464 15.8775 28.3223L15.9376 28.2862C15.9978 28.2621 16.058 28.238 16.1062 28.214C16.2145 28.1658 16.3348 28.1177 16.4432 28.0816C16.8885 27.9251 17.3579 27.8408 17.8273 27.8288C18.7903 27.7927 19.7532 28.0214 20.5957 28.5028C20.8003 28.6232 21.0049 28.7556 21.1855 28.9C21.2336 28.9362 21.3058 28.9 21.3419 28.876C21.4142 28.8278 21.4743 28.7556 21.5225 28.6834C21.5105 28.5751 21.6188 28.3704 21.5105 28.2742Z" fill="#0E1E36"/>
<path d="M36.6882 23.0022C36.5558 21.943 36.2309 20.9199 35.7374 19.9691C35.2559 19.0423 34.618 18.1997 33.8597 17.4776C33.0774 16.7313 32.1626 16.1295 31.1515 15.7203C30.0803 15.2749 28.9248 15.0222 27.7693 14.974C25.6871 14.8777 23.6289 15.3832 21.8354 16.4424C20.9568 16.96 20.1504 17.5979 19.4523 18.3562C18.7301 19.1265 18.1403 20.0172 17.707 20.9801C17.3339 21.8227 17.0691 22.7254 16.9487 23.6402C16.8163 24.567 16.7802 25.5178 16.8644 26.4567C16.9367 27.3834 17.1172 28.2862 17.4181 29.1648C17.6829 29.9713 18.0922 30.7295 18.6217 31.3915C18.8625 31.6924 19.1513 31.9693 19.4523 32.21C19.4523 32.21 19.4523 32.21 19.4523 32.222C20.2948 32.872 21.2457 33.4016 22.2447 33.7868C23.2317 34.1599 24.2788 34.4006 25.338 34.4969C26.3972 34.5812 27.4564 34.521 28.4915 34.3164C29.5146 34.1117 30.5016 33.7627 31.4284 33.2572C32.2709 32.7878 33.0533 32.1859 33.7153 31.4758C34.4375 30.7175 35.0393 29.875 35.5328 28.9482C36.0142 28.0334 36.3633 27.0585 36.5799 26.0474C36.7725 25.0364 36.8206 24.0133 36.6882 23.0022Z" fill="#F5B3A6"/>
<path d="M118.704 115.935L112.818 114.466L101.107 111.529L92.4888 109.375C92.2841 109.327 92.0675 109.254 91.8629 109.218C91.3453 109.146 90.7435 109.23 90.2139 109.242L87.0483 109.303L74.5306 109.531L49.483 109.989L46.3897 110.037C46.3777 110.037 46.3777 110.037 46.3656 110.037C45.3546 110.061 44.2833 110.097 43.3325 110.482C42.3696 110.867 41.6113 111.614 41.2141 112.576C40.8048 113.551 40.7687 114.611 40.7687 115.658C40.7687 117.054 40.7808 118.45 40.7928 119.846C40.8169 125.431 40.841 131.028 40.8771 136.613C40.8891 139.779 40.9132 142.944 40.9252 146.11C40.9252 146.146 40.9493 146.194 40.9854 146.206C45.6434 148.794 50.5543 150.876 55.6577 152.417C60.6527 153.921 65.7922 154.92 70.9919 155.402C72.2918 155.522 73.5918 155.618 74.9037 155.666C75.5657 155.691 76.2397 155.751 76.9017 155.727C77.5878 155.703 78.2859 155.654 78.972 155.618L87.4696 155.161C88.1437 155.125 88.8297 155.125 89.5038 155.029C90.1537 154.944 90.7916 154.848 91.4416 154.752C92.6813 154.559 93.9211 154.33 95.1488 154.078C97.6764 153.56 100.18 152.922 102.647 152.164C107.522 150.671 112.24 148.71 116.73 146.302C117.308 145.989 117.873 145.676 118.439 145.363C118.632 145.231 118.752 145.014 118.752 144.786C118.776 137.323 118.788 129.849 118.812 122.386C118.812 120.28 118.824 118.161 118.824 116.055C118.812 115.995 118.764 115.935 118.704 115.935Z" fill="#26354A"/>
<path d="M117.392 60.7481C115.984 56.078 114.07 51.5644 111.578 47.3637C111.518 47.2674 111.41 47.3276 111.302 47.4239L111.265 47.2795C111.422 47.111 111.53 46.8101 111.398 46.774V46.7619C98.1217 42.0798 84.0393 40.0938 69.9809 40.9123C66.5144 41.0928 63.072 41.478 59.6417 42.0557C56.3558 42.6214 53.0939 43.4399 50.0247 44.7639C44.6083 47.0989 40.203 51.0589 36.7245 55.7771C33.246 60.4953 30.6342 65.7311 28.1787 71.0151C27.8778 71.665 27.5769 72.315 27.276 72.965C27.2399 73.0372 27.1797 73.2298 27.276 73.2779L46.2693 83.4606L51.5533 86.2892L46.5702 96.1589C44.9092 99.4448 43.188 102.695 41.5992 106.017C40.4919 108.316 39.2883 111.433 40.6724 113.864C42.1288 116.428 45.4749 116.536 48.0627 116.717C55.5012 117.247 62.9396 117.62 70.3901 117.812C77.8767 118.017 85.3512 118.041 92.8378 117.909C100.324 117.776 107.799 117.463 115.273 116.982C116.2 116.922 117.115 116.861 118.042 116.801C118.246 116.789 118.403 116.512 118.427 116.332C119.582 106.667 120.726 96.9654 120.786 87.2039C120.87 78.285 119.968 69.3059 117.392 60.7481Z" fill="#2463F5"/>
<path d="M78.7915 27.4797C78.7674 27.2992 78.7433 27.1307 78.7313 26.9501C78.7192 26.7937 78.7192 26.6372 78.7313 26.4928C78.7433 26.3243 78.7674 26.1437 78.7915 25.9752L78.8155 25.8548C78.8276 25.7706 78.8035 25.891 78.8155 25.8428L78.8276 25.7826C78.8516 25.6984 78.8637 25.6141 78.8998 25.5299C78.9359 25.4456 78.9479 25.3734 78.972 25.3012C78.984 25.2651 78.9961 25.2169 79.0201 25.1808L79.0442 25.1327C79.0201 25.2169 79.0442 25.1206 79.0563 25.1086C79.1164 24.9521 79.1887 24.7836 79.2729 24.6271L79.297 24.579L79.309 24.5549L79.321 24.5309L79.3451 24.4827C79.3933 24.4105 79.4414 24.3262 79.4896 24.254C79.5377 24.1818 79.5859 24.1096 79.634 24.0374L79.6701 23.9772C79.7062 23.917 79.6701 23.9772 79.6581 23.9892C79.6821 23.9411 79.7183 23.905 79.7544 23.8568C79.8627 23.7244 79.971 23.592 80.0793 23.4596L80.1275 23.4115C80.1636 23.3754 80.0673 23.4717 80.1275 23.4115L80.2117 23.3272C80.2719 23.267 80.3441 23.2069 80.4043 23.1346C80.4645 23.0745 80.5247 23.0143 80.5969 22.9661L80.6932 22.8939L80.7413 22.8578C80.7895 22.8217 80.7052 22.8819 80.7654 22.8337C80.9098 22.7254 81.0543 22.6291 81.1987 22.5328C81.8246 22.1236 82.5107 21.7986 83.2328 21.582C83.955 21.3533 84.7013 21.2329 85.4596 21.2209C86.1817 21.2209 86.9039 21.3172 87.602 21.4977C88.9862 21.8468 90.238 22.581 91.225 23.6161C92.248 24.7114 92.9221 26.0835 93.1748 27.564C93.2591 28.1177 93.3072 28.6834 93.3072 29.2491C93.3313 29.8268 93.3072 30.4166 93.2591 30.9943C93.235 31.1749 93.211 31.3554 93.1748 31.536C93.1628 31.5841 93.1508 31.6323 93.1508 31.6804C93.1628 31.6323 93.1387 31.7286 93.1387 31.7406C93.1147 31.8369 93.0906 31.9332 93.0665 32.0174C93.0184 32.1859 92.9702 32.3545 92.91 32.523C92.886 32.5952 92.8619 32.6794 92.8258 32.7516C92.8138 32.7878 92.8017 32.8359 92.7776 32.872C92.8017 32.7998 92.7897 32.8479 92.7776 32.86L92.7536 32.9322C92.6332 33.2572 92.4888 33.5822 92.3323 33.8831L92.3082 33.9432C92.2842 33.9914 92.3564 33.859 92.3082 33.9432L92.248 34.0395C92.1999 34.1118 92.1518 34.184 92.1036 34.2682L92.0434 34.3645C92.0314 34.3886 91.9471 34.4969 92.0073 34.4127C91.9592 34.4849 91.899 34.5571 91.8508 34.6293C91.8027 34.7015 91.7546 34.7497 91.7064 34.8099L91.6222 34.9061L91.586 34.9423L91.5499 34.9784C91.574 34.9543 91.586 34.9423 91.562 34.9663C91.4416 35.0867 91.3213 35.2071 91.1889 35.3274C91.1287 35.3756 91.0685 35.4357 91.0083 35.4839L90.9241 35.532C90.9722 35.4959 90.9361 35.532 90.9241 35.532L90.8639 35.5802C90.7194 35.6885 90.575 35.7848 90.4306 35.8811C90.2861 35.9774 90.1417 36.0496 89.9973 36.1339L89.9371 36.1579C89.925 36.1579 89.8769 36.182 89.913 36.17L89.8047 36.2181C89.7204 36.2542 89.6482 36.2903 89.564 36.3264C89.239 36.4709 88.8899 36.5792 88.5529 36.6634C87.0123 37.0366 85.3392 36.844 83.8828 36.2181C82.5347 35.6283 81.3432 34.7136 80.4164 33.5701C80.1877 33.2933 79.971 33.0044 79.7784 32.7035C79.7664 32.6794 79.7303 32.6554 79.7062 32.6554C79.321 32.7155 78.9238 32.7155 78.5387 32.6674C77.8045 32.5831 77.0582 32.2822 76.5768 31.6804C76.2398 31.2832 75.999 30.8138 75.8546 30.3083C75.8064 30.1037 75.7824 29.887 75.7703 29.6704V29.6583C75.7703 29.6824 75.7703 29.6463 75.7703 29.6342C75.7703 29.6222 75.7703 29.5861 75.7703 29.562C75.7703 29.5139 75.7703 29.4537 75.7824 29.4056C75.7824 29.3574 75.7944 29.3093 75.8065 29.2611C75.8065 29.237 75.8185 29.225 75.8185 29.2009C75.8064 29.2611 75.8185 29.2009 75.8305 29.1769C75.8426 29.1528 75.8546 29.0926 75.8666 29.0565C75.8907 29.0084 75.9027 28.9602 75.9148 28.9241C75.9148 28.9241 75.8787 29.0084 75.9027 28.9482L75.9148 28.9241C75.9268 28.9 75.9268 28.888 75.9388 28.8639C75.9629 28.8278 75.975 28.7797 75.999 28.7436C76.0111 28.7195 76.0231 28.7075 76.0351 28.6834C76.0472 28.6593 75.987 28.7556 76.0111 28.7195L76.0231 28.6954C76.0472 28.6593 76.0712 28.6232 76.0953 28.5751L76.1314 28.5269L76.1435 28.5028C76.1675 28.4667 76.0833 28.5751 76.1194 28.5389L76.1435 28.5028C76.1916 28.4427 76.0833 28.563 76.1314 28.5028C76.1555 28.4788 76.1796 28.4667 76.2036 28.4427C76.2277 28.4186 76.1555 28.4788 76.1796 28.4667L76.2036 28.4547L76.2518 28.4186C76.2759 28.3945 76.312 28.3825 76.3481 28.3584C76.3842 28.3343 76.3842 28.3343 76.3962 28.3343C76.4083 28.3343 76.3722 28.3464 76.3722 28.3464L76.4083 28.3343C76.5647 28.2621 76.7212 28.214 76.8897 28.1658C76.974 28.1417 77.0462 28.1297 77.1304 28.1056L77.2027 28.0936H77.1906H77.2147L77.3471 28.0695C77.5036 28.0455 77.66 28.0334 77.8165 28.0214C78.0091 28.0093 78.2137 28.0093 78.4063 28.0093H78.4304C78.5748 28.0093 78.7192 27.8168 78.7674 27.6964C78.8035 27.6242 78.8757 27.3714 78.7192 27.3714C78.2257 27.3594 77.7443 27.3955 77.2628 27.5038C76.9018 27.564 76.5647 27.6964 76.2638 27.901C75.9268 28.1658 75.674 28.5269 75.5176 28.9241C75.337 29.3574 75.2648 29.8148 75.2889 30.2722C75.337 30.7897 75.4935 31.2832 75.7703 31.7165C76.0111 32.1498 76.3601 32.523 76.7694 32.7998C77.1184 33.0164 77.4915 33.1609 77.8887 33.2331C78.2017 33.2933 78.5267 33.3294 78.8516 33.3294C79.0201 33.3414 79.2007 33.3174 79.3692 33.2933C79.3812 33.2933 79.3812 33.2933 79.3933 33.2933L79.321 33.2451C80.1636 34.521 81.283 35.5922 82.607 36.3746C84.0273 37.2051 85.6642 37.5902 87.3011 37.4578C88.8177 37.3254 90.2621 36.6875 91.3814 35.6524C91.9471 35.1348 92.4166 34.509 92.7656 33.8229C92.9221 33.4979 93.0665 33.1729 93.1869 32.8359C93.3313 32.4869 93.4517 32.1258 93.548 31.7526C93.6563 31.3675 93.7285 30.9823 93.7646 30.5851C93.8007 30.2 93.8128 29.8268 93.8128 29.4417C93.8128 28.9241 93.8128 28.4065 93.7767 27.901C93.6804 26.4567 93.1989 25.0725 92.3804 23.8689C91.9231 23.1948 91.3574 22.605 90.7074 22.1116C90.1297 21.6782 89.4797 21.3292 88.8057 21.0764C88.1316 20.8237 87.4215 20.6552 86.6993 20.5709C85.917 20.4867 85.1346 20.5228 84.3643 20.6792C83.5819 20.8357 82.8236 21.0885 82.1135 21.4496C81.4274 21.7866 80.7895 22.2319 80.2358 22.7615C79.1525 23.8327 78.3702 25.2891 78.2859 26.8178C78.2619 27.1788 78.2859 27.5399 78.3341 27.889C78.3581 28.0455 78.5267 27.9732 78.5989 27.901C78.6831 27.8288 78.8155 27.6362 78.7915 27.4797Z" fill="#0E1E36"/>
<path d="M85.3151 29.4898C85.3151 29.4778 85.3151 29.4657 85.3151 29.4537C85.3151 29.4417 85.3151 29.4296 85.3151 29.4657C85.3151 29.4417 85.3272 29.4056 85.3392 29.3815C85.3512 29.3574 85.3512 29.3574 85.3272 29.4056C85.3392 29.3935 85.3392 29.3815 85.3392 29.3694C85.3753 29.2732 85.3031 29.4176 85.3392 29.3574C85.3512 29.3333 85.3633 29.3213 85.3753 29.2972C85.4114 29.237 85.3151 29.3694 85.3753 29.2972L85.3994 29.2611C85.3633 29.2972 85.3633 29.3093 85.3874 29.2852L85.4475 29.225C85.4957 29.1889 85.3994 29.2611 85.4596 29.213L85.5197 29.1769C85.5438 29.1648 85.5679 29.1528 85.592 29.1408C85.5318 29.1648 85.616 29.1287 85.6281 29.1287C85.6762 29.1167 85.7244 29.1046 85.7725 29.0806C85.7966 29.0806 85.7966 29.0806 85.7845 29.0806H85.8207C85.8447 29.0806 85.8808 29.0806 85.9049 29.0806C86.1095 29.0806 86.3141 29.1408 86.4826 29.2611C86.5669 29.3213 86.6391 29.3815 86.6993 29.4657C86.7354 29.5139 86.7595 29.562 86.7836 29.6102C86.7956 29.6342 86.8076 29.6583 86.8197 29.6944C86.8197 29.7065 86.8437 29.7787 86.8437 29.7426C86.8558 29.7907 86.8678 29.8389 86.94 29.8389C87.0123 29.8268 87.0724 29.8028 87.1085 29.7546C87.1808 29.6944 87.2289 29.6102 87.265 29.5259C87.3011 29.4537 87.3252 29.3815 87.3132 29.2972C87.2048 28.876 86.8678 28.551 86.4345 28.4547C85.9651 28.3464 85.5077 28.6112 85.2188 28.9482C85.0142 29.1889 84.8818 29.4778 84.8337 29.7907C84.8217 29.8389 84.8337 29.9111 84.8818 29.9472C84.93 29.9713 84.9902 29.9592 85.0383 29.9231C85.1827 29.8268 85.279 29.6704 85.3151 29.4898Z" fill="#0E1E36"/>
<path d="M77.1665 29.2972C76.9378 29.6463 76.8656 30.0675 76.9739 30.4768C77.0702 30.7657 77.2869 31.0064 77.5758 31.1267C77.7082 31.1869 77.8526 31.0064 77.9128 30.9101C77.9609 30.8379 77.9971 30.7536 78.0091 30.6694C78.0091 30.6212 78.0211 30.537 77.9609 30.5129C77.7322 30.4166 77.5517 30.2361 77.4554 30.0074C77.4313 29.9592 77.4193 29.9111 77.4073 29.8509C77.4073 29.8148 77.3952 29.7787 77.3952 29.7426C77.3952 29.7305 77.3952 29.7065 77.3952 29.6944C77.3952 29.6824 77.3952 29.7305 77.3952 29.6824C77.3952 29.6342 77.4073 29.6102 77.4073 29.5741C77.4073 29.538 77.3952 29.6222 77.4073 29.5861C77.4073 29.5741 77.4193 29.562 77.4193 29.538C77.4193 29.5139 77.4313 29.4898 77.4434 29.4778C77.4313 29.4898 77.4193 29.538 77.4434 29.5018C77.4434 29.4898 77.4795 29.4296 77.4554 29.4778C77.4313 29.5259 77.4674 29.4657 77.4674 29.4657C77.5156 29.3935 77.5517 29.3093 77.5637 29.225C77.5637 29.1769 77.5637 29.1046 77.5156 29.0685C77.3952 29.0084 77.2267 29.225 77.1665 29.2972Z" fill="#0E1E36"/>
<path d="M94.6914 20.0293C93.9452 18.8979 92.5249 18.3081 91.2009 18.3442C91.0444 18.3442 90.9 18.3562 90.7435 18.3803C90.2139 17.4174 89.2149 16.7915 88.1557 16.5508C87.0123 16.3101 85.8087 16.5387 84.8337 17.1887C84.3763 17.4896 83.9791 17.8868 83.6782 18.3442C82.8718 18.1155 82.0172 18.1396 81.2228 18.4164C80.3442 18.7414 79.61 19.3793 79.1766 20.2098C79.0081 20.5228 78.8878 20.8718 78.8396 21.2329C77.9249 21.606 77.1305 22.244 76.5768 23.0624C75.9509 23.9651 75.7463 25.0966 75.9991 26.1678C76.1555 26.7696 76.4444 27.3233 76.8536 27.7807C76.9499 27.889 77.0944 27.7686 77.1666 27.6723C77.2027 27.6242 77.2388 27.576 77.2629 27.5279L78.3461 27.6122C78.286 27.7205 78.2619 27.8408 78.31 27.9131L78.3221 27.901C78.5748 28.2982 78.972 28.5991 79.285 28.9602C79.3211 28.9963 79.3572 29.0445 79.3813 29.0806C79.4174 29.1167 79.4535 29.2009 79.5016 29.225C79.5859 29.2371 79.6581 29.2491 79.7423 29.2371H79.959L80.8978 29.2611C80.9941 29.2491 81.0784 29.1889 81.1386 29.1167C81.2228 29.0204 81.271 28.9121 81.283 28.7917L81.5839 25.7706C83.1968 26.0113 84.8217 26.1437 86.4466 26.1678C87.9511 26.1919 89.4797 26.1678 90.9482 25.8549C92.212 25.5901 93.4878 25.0725 94.3303 24.0494C94.8118 23.4717 95.1127 22.7615 95.1729 22.0032C95.2571 21.3172 95.0766 20.6191 94.6914 20.0293Z" fill="#0E1E36"/>
<path d="M86.3382 34.2442C86.1938 34.1599 86.0012 34.1479 85.9049 34.0275C85.8086 33.9071 85.7484 33.7627 85.6521 33.6303C85.5679 33.4979 85.4114 33.4257 85.2549 33.4257C85.0985 33.4618 84.9781 33.6062 84.9781 33.7747C84.9781 33.9312 85.0262 34.0877 85.1346 34.2201C85.3994 34.5932 85.8086 34.8219 86.254 34.858C86.3984 34.87 86.5549 34.846 86.6271 34.7256C86.6993 34.5812 86.6511 34.4006 86.5067 34.3164C86.3743 34.2321 86.2178 34.196 86.0614 34.196" fill="#0E1E36"/>
<path d="M86.5308 33.9433C86.4586 33.9072 86.3743 33.871 86.2901 33.847C86.254 33.8349 86.2179 33.8109 86.1818 33.7868C86.1456 33.7627 86.1095 33.7266 86.0975 33.6905C85.9771 33.522 85.9049 33.3174 85.7244 33.197C85.2189 32.8359 84.7254 33.6303 84.7615 34.0757C84.7976 34.4608 85.1466 34.8099 85.4716 34.9904C85.7966 35.171 86.3021 35.2913 86.6271 35.0265C86.8558 34.8339 87.0363 34.4368 86.8558 34.1599C86.7234 33.9433 86.4586 33.9072 86.2299 33.8951C86.0012 33.8831 85.6883 34.509 85.941 34.533C86.0975 34.533 86.2419 34.5692 86.3743 34.6534C86.3984 34.6654 86.4104 34.6895 86.4225 34.7016C86.4345 34.7136 86.4345 34.7256 86.4466 34.7497C86.4466 34.7617 86.4586 34.7978 86.4586 34.7617C86.4586 34.7738 86.4586 34.7858 86.4586 34.7978V34.7738C86.4586 34.7978 86.4586 34.7978 86.4586 34.7738C86.4947 34.6895 86.5308 34.6173 86.591 34.5451L86.6151 34.521C86.591 34.533 86.591 34.533 86.6151 34.521L86.579 34.533C86.5188 34.5571 86.591 34.533 86.5549 34.533C86.5188 34.533 86.4947 34.533 86.4586 34.533C86.3864 34.533 86.3142 34.521 86.2299 34.509C86.0975 34.4849 85.9651 34.4367 85.8447 34.3645C85.5679 34.2321 85.3633 34.0034 85.2429 33.7266C85.2309 33.7025 85.2309 33.6785 85.2309 33.6424C85.2309 33.6303 85.2309 33.5822 85.2309 33.6183C85.2309 33.6062 85.2309 33.5822 85.2309 33.5822L85.2189 33.6183C85.2309 33.5942 85.2309 33.5942 85.2189 33.6183C85.2068 33.6424 85.1587 33.7266 85.1948 33.6664C85.1707 33.6905 85.1587 33.7146 85.1346 33.7386C85.1587 33.7146 85.1587 33.7146 85.1346 33.7386C85.1105 33.7627 85.1105 33.7507 85.1346 33.7386C85.1226 33.7627 85.1105 33.7507 85.1346 33.7386C85.1587 33.7266 85.0985 33.7386 85.1587 33.7386C85.1827 33.7386 85.2068 33.7386 85.2189 33.7507C85.2911 33.7748 85.3633 33.8229 85.4114 33.8831C85.5318 34.0275 85.592 34.2081 85.7244 34.3405C85.8327 34.4488 86.0012 34.4729 86.1336 34.5451C86.266 34.6173 86.4104 34.4247 86.4706 34.3284C86.5188 34.2562 86.5549 34.172 86.5669 34.0877C86.5669 34.0396 86.579 33.9673 86.5188 33.9312L86.5308 33.9433Z" fill="#0E1E36"/>
<path d="M90.9842 29.1648C90.9481 29.1528 90.912 29.1287 90.8759 29.0926L90.912 29.1287C90.8759 29.0926 90.8518 29.0445 90.8398 28.9963L90.8518 29.0445C90.8398 29.0084 90.8398 28.9722 90.8398 28.9361V28.9963C90.8398 28.9722 90.8398 28.9482 90.8518 28.9241L90.8398 28.9963C90.8398 28.9843 90.8518 28.9602 90.8518 28.9482L90.8157 29.0324C90.8157 29.0204 90.8278 29.0084 90.8398 28.9963L90.7917 29.0806C90.7917 29.0685 90.8037 29.0565 90.8157 29.0565L90.7555 29.1408L90.7796 29.1167L90.7194 29.1769C90.7315 29.1648 90.7435 29.1528 90.7555 29.1528L90.6954 29.2009C90.7074 29.1889 90.7194 29.1769 90.7315 29.1769L90.6713 29.2009C90.6954 29.1889 90.7194 29.1769 90.7435 29.1769L90.6954 29.1889C90.7435 29.1769 90.7916 29.1889 90.8398 29.2009L90.7917 29.1889C90.8518 29.213 90.912 29.2491 90.9602 29.2972L90.924 29.2611C90.9602 29.2972 90.9722 29.3333 90.9963 29.3815L90.9842 29.3333C90.9963 29.3574 90.9963 29.3815 90.9963 29.4056V29.3454C90.9963 29.3694 90.9963 29.3815 90.9842 29.4056L90.9963 29.3333C90.9963 29.3454 90.9842 29.3694 90.9842 29.3815L91.0203 29.2972C91.0203 29.3093 91.0083 29.3213 90.9963 29.3333L91.0444 29.2491C91.0324 29.2611 91.0324 29.2732 91.0203 29.2852L91.0805 29.2009L91.0564 29.237L91.1166 29.1769C91.1046 29.1889 91.0926 29.2009 91.0805 29.213L91.1407 29.1648C91.1287 29.1769 91.1046 29.1889 91.0926 29.2009L91.1527 29.1769C91.1287 29.1889 91.0926 29.2009 91.0685 29.2009L91.1166 29.1889C91.0685 29.2009 91.0083 29.2009 90.9602 29.1769L91.0083 29.1889C90.9481 29.1648 90.8879 29.1408 90.8398 29.0926L90.8759 29.1287C90.8639 29.1167 90.8518 29.1046 90.8518 29.0926C90.8278 29.0445 90.7676 29.0324 90.7194 29.0565C90.6472 29.0926 90.587 29.1408 90.5389 29.2009C90.4787 29.2732 90.4306 29.3574 90.4065 29.4417L90.3944 29.5139C90.3824 29.55 90.3945 29.5981 90.4065 29.6342C90.5509 29.8389 90.8398 29.899 91.0564 29.7546C91.1407 29.7065 91.2129 29.6342 91.2731 29.562C91.3453 29.4778 91.4055 29.3694 91.4416 29.2611C91.5018 29.1167 91.5138 28.9602 91.4657 28.8037C91.4536 28.7676 91.4175 28.7315 91.3935 28.6954C91.3694 28.6593 91.3333 28.6352 91.2972 28.6112C91.2249 28.563 91.1287 28.5389 91.0444 28.5389C90.912 28.551 90.7916 28.6112 90.6954 28.7074C90.5509 28.8519 90.4426 29.0445 90.4065 29.2491C90.3824 29.3694 90.3945 29.4778 90.4426 29.5861C90.4787 29.6704 90.5509 29.7426 90.6352 29.7787C90.6954 29.8028 90.7555 29.7907 90.8037 29.7426C90.8759 29.6944 90.9361 29.6222 90.9842 29.55C91.0324 29.4778 91.0685 29.3935 91.0805 29.3093C91.0444 29.2732 91.0444 29.1889 90.9842 29.1648Z" fill="#0E1E36"/>
<path d="M88.589 30.549L89.6121 32.1739C89.6482 32.2341 89.6843 32.2943 89.7204 32.3665C89.7325 32.3906 89.7445 32.4146 89.7445 32.4267C89.7445 32.4387 89.7445 32.4628 89.7445 32.4748C89.7325 32.4387 89.7445 32.3906 89.7686 32.3665C89.7806 32.3304 89.8047 32.3063 89.8288 32.2702C89.8649 32.2341 89.8649 32.2221 89.8408 32.2461C89.901 32.1859 89.8287 32.2461 89.8167 32.2582L89.7806 32.2822L89.6723 32.3304L88.8177 32.7396C88.6612 32.8239 88.5529 32.9563 88.5047 33.1248C88.4807 33.185 88.4807 33.2572 88.5047 33.3174C88.5288 33.3655 88.589 33.3775 88.6371 33.3535L89.3954 32.9924C89.5158 32.9322 89.6482 32.8841 89.7565 32.8118C89.925 32.7155 90.0574 32.5591 90.1417 32.3906C90.2259 32.2341 90.238 32.0535 90.1898 31.885C90.1417 31.7647 90.0695 31.6563 89.9973 31.548L89.5399 30.8258L89.0223 30.0074C88.8899 29.7907 88.4566 30.3564 88.589 30.549Z" fill="#0E1E36"/>
<path d="M95.6664 24.6272C92.6814 25.2531 90.3463 27.4798 88.914 30.0676C87.4696 32.7035 87.1086 35.7848 87.8909 38.6735C88.3844 40.479 89.1547 42.5974 90.3704 44.0056C92.0796 46.0036 94.0535 47.2073 97.1468 47.5804C99.7587 47.8933 102.563 47.46 104.525 45.7148C106.234 44.1982 107.173 41.9956 107.679 39.7688C108.244 37.2292 108.292 34.533 107.558 32.0295C106.824 29.5259 105.271 27.239 103.081 25.8308C100.89 24.4225 98.0134 23.7485 95.5701 24.6633" fill="#88EFD7"/>
<path d="M96.0756 26.0113C94.21 26.4085 92.5971 27.552 91.3814 28.9963C90.0334 30.5731 89.1668 32.4869 88.8779 34.5451C88.7335 35.5922 88.7575 36.6514 88.9501 37.6986C89.0464 38.2041 89.1788 38.6976 89.3353 39.179C89.4797 39.6605 89.6482 40.1299 89.8288 40.5993C90.1898 41.5141 90.6472 42.4048 91.2972 43.151C91.8388 43.7889 92.4527 44.3547 93.1387 44.8241C94.6553 45.8472 96.533 46.2684 98.3505 46.2684C100.312 46.2805 102.31 45.7268 103.755 44.3306C105.271 42.8621 106.078 40.84 106.499 38.8179C106.956 36.6033 106.944 34.2562 106.246 32.0897C105.657 30.2722 104.561 28.5991 103.033 27.4436C102.238 26.8418 101.335 26.3724 100.385 26.0715C99.4337 25.7586 98.4107 25.6382 97.4116 25.7345C96.9302 25.7826 96.4487 25.891 95.9913 26.0595C95.8349 26.1317 95.7266 26.2761 95.6784 26.4446C95.6543 26.5409 95.6543 26.7335 95.8108 26.6733C97.6524 25.9872 99.7346 26.3844 101.444 27.2751C103.105 28.1658 104.429 29.562 105.247 31.2591C106.174 33.1368 106.475 35.2793 106.294 37.3616C106.21 38.3967 106.006 39.4198 105.705 40.4067C105.669 40.5151 105.632 40.6234 105.596 40.7438C105.572 40.8039 105.56 40.8641 105.536 40.9243C105.524 40.9484 105.512 40.9724 105.512 40.9965C105.512 41.0206 105.464 41.1169 105.488 41.0447C105.404 41.2734 105.307 41.502 105.199 41.7187C105.151 41.827 105.103 41.9354 105.043 42.0316L104.97 42.1761C104.922 42.2724 105.007 42.1159 104.958 42.2002L104.898 42.3085C104.778 42.5131 104.658 42.7297 104.513 42.9223L104.477 42.9705C104.417 43.0547 104.525 42.9103 104.465 42.9945C104.429 43.0427 104.393 43.0908 104.357 43.139C104.284 43.2353 104.2 43.3316 104.116 43.4279C104.08 43.464 104.044 43.5121 104.02 43.5482L103.959 43.6204L103.923 43.6565C103.959 43.6204 103.887 43.6927 103.887 43.6927L103.815 43.7649L103.683 43.8973C103.598 43.9815 103.514 44.0537 103.43 44.126L103.285 44.2463C103.321 44.2102 103.249 44.2704 103.249 44.2704L103.177 44.3306C102.984 44.463 102.792 44.5954 102.587 44.7157C101.781 45.1611 100.89 45.4379 99.9874 45.5462C99.0365 45.6666 98.0736 45.6546 97.1228 45.5101C96.2441 45.3898 95.4016 45.149 94.5951 44.8C93.8609 44.463 93.1869 44.0056 92.5851 43.464C91.9351 42.8862 91.3814 42.2002 90.9481 41.4539C90.4787 40.5873 90.0936 39.6725 89.8167 38.7217C89.5158 37.7828 89.3353 36.8199 89.2871 35.8329C89.251 34.846 89.3834 33.859 89.6482 32.9081C89.7806 32.4267 89.9491 31.9693 90.1658 31.5239C90.2139 31.4156 90.2741 31.3073 90.3222 31.199L90.3704 31.1147C90.3704 31.1027 90.3824 31.0906 90.3945 31.0786C90.4185 31.0305 90.4546 30.9703 90.4787 30.9221C90.587 30.7296 90.7074 30.537 90.8278 30.3444C90.888 30.2481 90.9481 30.1638 91.0083 30.0796L91.0926 29.9592L91.1046 29.9472L91.1768 29.8509C91.3092 29.6704 91.4416 29.5018 91.5861 29.3333C91.6583 29.2491 91.7305 29.1648 91.8027 29.0926L91.911 28.9723L91.9351 28.9482L91.9953 28.888C92.1518 28.7315 92.3203 28.5751 92.4767 28.4186C92.561 28.3464 92.6332 28.2741 92.7175 28.214L92.8499 28.1056L92.898 28.0695C92.8619 28.1056 92.9462 28.0334 92.9462 28.0334C93.1267 27.901 93.3073 27.7686 93.4998 27.6483C93.8609 27.4075 94.2581 27.2149 94.6553 27.0464C95.0525 26.8779 95.4738 26.7576 95.8951 26.6613C95.9673 26.6372 96.0275 26.577 96.0756 26.5168C96.1358 26.4446 96.1839 26.3604 96.208 26.2761C96.2321 26.1196 96.22 25.9752 96.0756 26.0113Z" fill="#0E1E36"/>
<path d="M104.333 36.1218C104.321 33.9914 104.357 31.861 104.2 29.7426C104.176 29.4417 104.152 29.1407 104.116 28.8398C104.104 28.7676 104.104 28.6834 104.092 28.6112C104.092 28.5269 104.08 28.4426 104.056 28.3704C104.008 28.3102 103.959 28.2621 103.899 28.214C103.839 28.1538 103.791 28.0936 103.731 28.0454C103.321 27.6603 102.876 27.3112 102.407 27.0103C101.504 26.4446 100.505 26.0474 99.4699 25.8428C98.3144 25.6021 97.1107 25.6743 96.0034 26.0595L95.8229 26.6853L95.9071 26.6492C96.0636 26.577 96.1719 26.4326 96.2201 26.2641C96.2562 26.1437 96.2441 25.9993 96.0877 26.0354C94.7998 26.3243 93.6082 26.9261 92.6092 27.7927C91.5981 28.6593 90.7556 29.6944 90.1056 30.8619C89.3714 32.1859 88.926 33.6544 88.8057 35.1589C88.7455 35.8931 88.7696 36.6394 88.8779 37.3736C88.9862 38.0717 89.1668 38.7698 89.3834 39.4438C89.7927 40.7438 90.3343 42.0798 91.237 43.139C91.9833 44.0417 92.898 44.788 93.9332 45.3296C95.1007 45.9194 96.4126 46.1962 97.7005 46.2805C99.1208 46.3647 100.589 46.1962 101.889 45.6064C102.226 45.462 102.539 45.2814 102.84 45.0768C103.081 44.9204 103.129 44.6556 103.201 44.4028C103.249 44.2343 103.297 44.0778 103.334 43.9093C103.514 43.2232 103.671 42.5372 103.803 41.8391C104.08 40.3706 104.236 38.8781 104.284 37.3856C104.321 36.9403 104.321 36.531 104.333 36.1218C104.321 35.9533 104.128 36.0496 104.056 36.1098C103.923 36.2301 103.851 36.3866 103.851 36.5672C103.863 37.7347 103.803 38.8902 103.671 40.0456C103.61 40.5873 103.538 41.1289 103.442 41.6585C103.394 41.9113 103.346 42.164 103.297 42.4168C103.249 42.6696 103.201 42.8862 103.141 43.151C103.009 43.7047 102.864 44.2584 102.696 44.812L102.948 44.4509C102.034 45.0407 100.986 45.4138 99.9032 45.5342C98.7958 45.6666 97.6644 45.6185 96.5691 45.4018C95.6303 45.2333 94.7155 44.8963 93.885 44.4148C93.1026 43.9454 92.4045 43.3556 91.8148 42.6696C91.1046 41.8631 90.5991 40.8882 90.2139 39.8892C89.7927 38.8781 89.5038 37.8069 89.3473 36.7236C89.2751 36.17 89.251 35.6042 89.2751 35.0385C89.2871 34.7497 89.3112 34.4608 89.3593 34.1719C89.3834 34.0275 89.3955 33.8951 89.4195 33.7627C89.4436 33.6303 89.4677 33.5099 89.4917 33.3775C89.5519 33.1007 89.6362 32.8118 89.7204 32.547C89.7686 32.4146 89.8047 32.2822 89.8528 32.1498C89.8528 32.1498 89.8769 32.1017 89.8649 32.1258L89.8769 32.0896C89.8889 32.0656 89.901 32.0295 89.913 31.9934C89.9371 31.9332 89.9612 31.861 89.9973 31.7887C90.0575 31.6563 90.1176 31.5239 90.1778 31.3915C90.2019 31.3314 90.238 31.2712 90.2621 31.211L90.3102 31.1267C90.3223 31.1027 90.3343 31.0906 90.3343 31.0666C90.3343 31.0425 90.3584 31.0304 90.3343 31.0666C90.4546 30.8499 90.5871 30.6333 90.7195 30.4166C90.7917 30.3083 90.8639 30.1999 90.9361 30.0916C90.9722 30.0435 91.0083 29.9953 91.0324 29.9472L91.0565 29.9111C91.0083 29.9713 91.0444 29.9351 91.0565 29.9111L91.1166 29.8268C91.2611 29.6222 91.4176 29.4296 91.5861 29.237C91.6703 29.1407 91.7546 29.0445 91.8388 28.9482C91.8509 28.9361 91.899 28.888 91.8629 28.9241L91.9231 28.8639L92.0675 28.7195C92.2481 28.5389 92.4286 28.3704 92.6212 28.214L92.7656 28.0936L92.8378 28.0334L92.874 28.0093C92.9101 27.9732 92.8378 28.0334 92.886 28.0093C92.9823 27.9251 93.0906 27.8529 93.1869 27.7806C93.3915 27.6362 93.5961 27.5038 93.8128 27.3834C94.2461 27.1307 94.7035 26.9381 95.1729 26.7816C95.4136 26.7094 95.6543 26.6372 95.8951 26.589L96.0756 25.9632L95.9914 25.9993C95.8349 26.0715 95.7266 26.2159 95.6784 26.3844C95.6543 26.4807 95.6543 26.6733 95.8108 26.6131C96.8459 26.252 97.9533 26.1678 99.0366 26.3844C100.12 26.5891 101.167 26.9983 102.094 27.6001C102.659 27.9612 103.189 28.3945 103.646 28.888L103.598 28.8037C103.827 30.886 103.863 32.9803 103.851 35.0626C103.851 35.5441 103.851 36.0255 103.851 36.507C103.851 36.6755 104.056 36.5792 104.116 36.519C104.248 36.4468 104.321 36.2903 104.333 36.1218Z" fill="#0E1E36"/>
<path d="M96.2441 34.9423C95.4377 34.6414 95.2571 33.3655 95.9552 32.86C96.6533 32.3545 97.8088 32.8961 97.869 33.7507C97.881 34.3164 97.52 34.8339 96.9783 35.0024C96.4367 35.1469 95.8469 34.9423 95.5219 34.4849" fill="#0E1E36"/>
<path d="M96.4367 34.6414C96.3283 34.6053 96.2321 34.5451 96.1358 34.4608C96.1117 34.4367 96.0997 34.4247 96.0756 34.4006C96.0756 34.4006 96.0395 34.3645 96.0515 34.3766C96.0635 34.3886 96.0395 34.3525 96.0395 34.3525C96.0034 34.3043 95.9673 34.2562 95.9311 34.2081C95.9071 34.1599 95.871 34.1118 95.8589 34.0636C95.8469 34.0395 95.8349 34.0155 95.8228 33.9914L95.8108 33.9553C95.8108 33.9433 95.8108 33.9312 95.7988 33.9192C95.7988 33.9433 95.8108 33.9433 95.7988 33.9312C95.7626 33.8229 95.7506 33.7025 95.7506 33.5942C95.7506 33.5822 95.7506 33.5701 95.7506 33.5581C95.7506 33.534 95.7506 33.4979 95.7506 33.4738C95.7506 33.4498 95.7626 33.4137 95.7626 33.3896C95.7626 33.3776 95.7747 33.3294 95.7626 33.3775C95.7506 33.4257 95.7626 33.3655 95.7747 33.3535C95.7867 33.3414 95.7867 33.3053 95.7988 33.2692C95.8108 33.2211 95.7867 33.3053 95.7867 33.3053L95.8108 33.2572C95.8228 33.2211 95.883 33.1368 95.8108 33.2572C95.8228 33.2452 95.8469 33.1729 95.8589 33.1729C95.871 33.1729 95.7987 33.2572 95.8349 33.209L95.8589 33.1729C95.871 33.1609 95.883 33.1489 95.883 33.1368C95.8349 33.209 95.8469 33.1729 95.8589 33.1609C95.871 33.1489 95.9071 33.1248 95.9191 33.1007C95.9311 33.0766 95.8589 33.1489 95.9071 33.1127L95.9552 33.0887C95.9673 33.0766 96.0154 33.0405 96.0274 33.0405L96.0034 33.0526L96.0395 33.0405L96.0756 33.0285C96.1358 33.0044 96.1959 32.9924 96.2561 32.9683C96.3043 32.9563 96.2321 32.9683 96.2682 32.9683H96.3043C96.3283 32.9683 96.3645 32.9683 96.3885 32.9683C96.4487 32.9683 96.5089 32.9683 96.5811 32.9803C96.6413 32.9924 96.7015 32.9924 96.7496 33.0165L96.7857 33.0285L96.8098 33.0405C96.8339 33.0526 96.87 33.0646 96.9061 33.0766C97.0144 33.1248 97.1227 33.185 97.219 33.2572C97.2672 33.2933 97.3153 33.3294 97.3514 33.3655C97.3635 33.3775 97.4116 33.4257 97.3875 33.4016C97.4116 33.4257 97.4357 33.4498 97.4477 33.4859C97.5199 33.5822 97.5681 33.6905 97.6042 33.7988C97.6162 33.8349 97.5922 33.7507 97.6042 33.7988C97.6042 33.8109 97.6042 33.8229 97.6162 33.8349C97.6283 33.859 97.6283 33.8951 97.6283 33.9192C97.6283 33.9553 97.6283 33.9794 97.6283 34.0155C97.6283 34.0516 97.6283 33.9553 97.6283 34.0275C97.6283 34.0516 97.6283 34.0636 97.6283 34.0877C97.6283 34.1118 97.6283 34.1238 97.6162 34.1479C97.6042 34.2081 97.6162 34.1358 97.6162 34.1358C97.6162 34.1719 97.6042 34.2081 97.5922 34.2321L97.5801 34.2562C97.5681 34.2923 97.5681 34.2803 97.5922 34.2321C97.5801 34.2442 97.5801 34.2562 97.5801 34.2682C97.5681 34.2923 97.556 34.3043 97.556 34.3284C97.532 34.3886 97.6042 34.2562 97.556 34.3164C97.532 34.3405 97.5199 34.3766 97.4959 34.4127C97.544 34.3284 97.532 34.3645 97.5079 34.3886C97.4838 34.4127 97.4838 34.4127 97.4718 34.4247C97.4598 34.4367 97.4236 34.4849 97.4598 34.4367C97.4959 34.3886 97.4477 34.4367 97.4477 34.4488L97.4116 34.4729C97.3996 34.4849 97.3394 34.5571 97.3875 34.4969C97.3635 34.521 97.3274 34.5451 97.2913 34.5571L97.2431 34.5812C97.2311 34.5932 97.1829 34.6053 97.2311 34.5932C97.1589 34.6293 97.0746 34.6534 96.9903 34.6775L96.9542 34.6895C96.9903 34.6895 96.9061 34.6895 96.9061 34.6895C96.87 34.6895 96.8218 34.6895 96.7857 34.6895C96.7015 34.6895 96.6293 34.6775 96.545 34.6654C96.2321 34.6053 95.9432 34.4247 95.7506 34.1599C95.6663 34.0395 95.4978 34.184 95.4377 34.2562C95.3775 34.3284 95.3293 34.4127 95.3053 34.4969C95.2932 34.5571 95.2692 34.6414 95.3053 34.6895C95.5099 34.9784 95.8228 35.183 96.1598 35.2673C96.5089 35.3515 96.87 35.2913 97.1829 35.1228C97.544 34.9062 97.8329 34.5691 97.9773 34.184C98.2903 33.522 98.0134 32.7396 97.3635 32.4146C97.1468 32.3184 96.9181 32.2702 96.6894 32.2822C95.9673 32.3184 95.4497 32.9683 95.3293 33.6423C95.233 34.2321 95.4738 34.9543 96.0756 35.195C96.208 35.2432 96.3524 35.0747 96.4126 34.9784C96.4607 34.9062 96.4969 34.8219 96.5089 34.7377C96.4848 34.7497 96.4969 34.6654 96.4367 34.6414Z" fill="#0E1E36"/>
<path d="M97.4838 48.1341L98.3625 50.8543C98.3745 50.9024 98.4588 50.9024 98.4949 50.8904C98.5671 50.8663 98.6273 50.8061 98.6754 50.7459C98.7717 50.6256 98.856 50.4571 98.8078 50.3006L97.9292 47.5804C97.9051 47.5322 97.8329 47.5322 97.7968 47.5443C97.7246 47.5804 97.6644 47.6285 97.6162 47.6887C97.5199 47.8091 97.4357 47.9776 97.4838 48.1341Z" fill="#0E1E36"/>
<path d="M101.456 47.6165L100.577 50.5052C100.553 50.6015 100.553 50.7941 100.71 50.7339C100.866 50.6497 100.974 50.5173 101.022 50.3488L101.901 47.4601C101.925 47.3638 101.925 47.1712 101.769 47.2314C101.612 47.3036 101.504 47.448 101.456 47.6165Z" fill="#0E1E36"/>
<path d="M99.9995 50.6135C100.433 57.9797 101.143 71.6049 101.576 78.9711Z" fill="#88EFD7"/>
<path d="M98.4467 52.0338C98.543 53.6828 98.6393 55.3197 98.7236 56.9687C98.8319 58.9066 98.9402 60.8444 99.0485 62.7823L99.3856 68.9087C99.4939 70.8707 99.6022 72.8326 99.7105 74.7825C99.8068 76.4675 99.9031 78.1526 99.9994 79.8377C100.011 80.0182 100.023 80.1988 100.036 80.3793C100.036 80.7163 100.3 80.9932 100.637 81.0293C100.83 81.0293 101.023 80.9812 101.179 80.8728C101.396 80.7765 101.6 80.6441 101.769 80.4636C102.214 80.0423 102.575 79.5488 102.816 78.9952C103.021 78.5257 103.165 78.0563 103.129 77.5388C103.033 75.8898 102.936 74.2529 102.852 72.6039C102.744 70.666 102.635 68.7282 102.527 66.7903C102.419 64.7442 102.298 62.71 102.19 60.6639C102.082 58.7019 101.973 56.74 101.865 54.7901C101.769 53.1051 101.672 51.42 101.576 49.7349L101.54 49.1933C101.54 48.8562 101.275 48.5794 100.938 48.5433C100.746 48.5433 100.553 48.5914 100.397 48.6998C100.18 48.7961 99.9753 48.9285 99.8068 49.109C99.3615 49.5303 99.0004 50.0238 98.7476 50.5774C98.5551 51.0469 98.4227 51.5283 98.4467 52.0338Z" fill="#88EFD7"/>
<path d="M111.121 54.2244C109.4 54.1883 107.691 54.2365 105.969 54.3689C104.26 54.5013 102.563 54.7179 100.878 55.0309C99.3013 55.3077 97.6764 55.6086 96.2561 56.391C95.0044 57.077 93.9091 58.2325 93.548 59.6528C93.235 60.8564 93.548 62.2767 94.559 63.0591C94.6794 63.1554 94.7998 63.2276 94.9322 63.2998C95.0646 63.372 95.209 63.1795 95.2692 63.0832C95.3294 62.9869 95.4497 62.7461 95.3173 62.686C94.8118 62.4212 94.4026 61.9879 94.1739 61.4583C94.0535 61.2055 93.9693 60.9287 93.9331 60.6398C93.9091 60.4954 93.897 60.3389 93.897 60.1824C93.897 60.1704 93.897 60.1463 93.897 60.1343C93.897 60.1824 93.897 60.1343 93.897 60.1343C93.897 60.0982 93.897 60.05 93.897 60.0139C93.897 59.9417 93.9091 59.8695 93.9211 59.7972C93.9331 59.725 93.9452 59.6528 93.9572 59.5806C93.9452 59.6408 93.9572 59.5926 93.9572 59.5686C93.9572 59.5445 93.9693 59.5324 93.9693 59.5084C93.9813 59.4723 93.9933 59.4241 94.0054 59.388C94.0294 59.3158 94.0535 59.2436 94.0776 59.1593C94.0776 59.1473 94.0896 59.0991 94.0776 59.1714C94.0776 59.1593 94.0896 59.1352 94.1017 59.1232L94.1498 59.0029C94.1859 58.9306 94.222 58.8584 94.2461 58.7862C94.2461 58.7862 94.2822 58.7019 94.2581 58.7621C94.2341 58.8223 94.2702 58.7381 94.2702 58.7381C94.2942 58.7019 94.3183 58.6658 94.3424 58.6297C94.3785 58.5575 94.4266 58.4973 94.4748 58.4371L94.4989 58.389C94.535 58.3288 94.4988 58.389 94.4868 58.401C94.5109 58.3649 94.547 58.3168 94.5711 58.2807C94.6192 58.2205 94.6674 58.1603 94.7155 58.1122L94.7998 58.0159L94.8359 57.9798C94.896 57.9075 94.7877 58.0279 94.8479 57.9677C94.9562 57.8474 95.0766 57.739 95.197 57.6307C95.2571 57.5826 95.3173 57.5344 95.3655 57.4863C95.4136 57.4381 95.3414 57.5103 95.3775 57.4742L95.4256 57.4381L95.534 57.3539C95.6664 57.2576 95.7988 57.1733 95.9432 57.0891C97.2431 56.3067 98.8078 56.0058 100.3 55.729C101.937 55.4281 103.574 55.1994 105.235 55.0549C106.896 54.9105 108.557 54.8503 110.218 54.8624L110.82 54.8744C110.977 54.8744 111.109 54.6818 111.157 54.5615C111.193 54.4892 111.277 54.2365 111.121 54.2244Z" fill="#0E1E36"/>
<path d="M105.524 59.4602C104.296 59.4482 103.069 59.5565 101.865 59.7972C100.673 60.038 99.5059 60.3991 98.3866 60.8805C97.8329 61.1212 97.2792 61.386 96.7616 61.6869C96.2561 61.9758 95.7867 62.3128 95.3534 62.71C94.4868 63.5405 93.8248 64.7321 93.9572 65.9598C94.0535 66.9468 94.8118 67.8856 95.8348 68.018C95.9552 68.0301 96.0635 68.0421 96.1839 68.0301C96.3404 68.018 96.4607 67.8495 96.5209 67.7171C96.545 67.657 96.6292 67.3801 96.4728 67.3922C96.0154 67.4162 95.5701 67.2718 95.221 66.9829C95.0525 66.8385 94.896 66.682 94.7757 66.4894C94.7155 66.3931 94.6553 66.2969 94.6071 66.1885C94.5831 66.1404 94.559 66.0802 94.5349 66.0321C94.5229 66.008 94.5109 65.9839 94.5109 65.9478C94.5109 65.9358 94.4988 65.9237 94.4988 65.9117C94.4988 65.9358 94.4988 65.9117 94.4988 65.8996C94.4627 65.7673 94.4386 65.6348 94.4266 65.5145C94.4266 65.4543 94.4146 65.3941 94.4146 65.3339C94.4146 65.3219 94.4146 65.2377 94.4146 65.2738C94.4146 65.2377 94.4146 65.2015 94.4146 65.1654C94.4266 65.033 94.4386 64.9006 94.4627 64.7682C94.4507 64.8284 94.4627 64.7562 94.4747 64.7321C94.4868 64.7081 94.4868 64.6719 94.4988 64.6358C94.5229 64.5636 94.5349 64.5034 94.559 64.4312C94.571 64.4071 94.5951 64.3109 94.571 64.3951C94.5831 64.371 94.5951 64.347 94.6071 64.3109C94.6312 64.2507 94.6673 64.1785 94.6914 64.1183L94.7395 64.034C94.7516 64.022 94.7516 64.01 94.7636 63.9859C94.7636 63.9979 94.7155 64.0581 94.7516 64.0099C94.7877 63.9618 94.8238 63.8896 94.8479 63.8414C94.8719 63.7933 94.9201 63.7331 94.9562 63.6729C94.9562 63.685 94.9081 63.7452 94.9442 63.697L94.9682 63.6609C94.9923 63.6368 95.0164 63.6007 95.0405 63.5766C95.0766 63.5285 95.1247 63.4804 95.1608 63.4322L95.233 63.36C95.2451 63.348 95.2812 63.3118 95.221 63.372L95.2691 63.3239C95.3654 63.2276 95.4617 63.1313 95.558 63.047C95.6062 62.9989 95.6543 62.9628 95.7145 62.9146C95.7386 62.8906 95.7626 62.8785 95.7867 62.8545C95.8349 62.8184 95.7867 62.8545 95.7867 62.8545L95.8469 62.8063C96.0635 62.6498 96.2922 62.4934 96.5209 62.3489C96.9903 62.0721 97.4838 61.8193 97.9894 61.5907C99.0606 61.1092 100.18 60.7361 101.335 60.4833C102.467 60.2305 103.634 60.0981 104.79 60.0861H105.223C105.38 60.0861 105.512 59.8935 105.56 59.7732C105.596 59.713 105.681 59.4602 105.524 59.4602Z" fill="#0E1E36"/>
<path d="M105.44 64.6358C104.296 64.696 103.165 64.8405 102.046 65.0812C100.938 65.3219 99.867 65.6589 98.8199 66.0802C97.8088 66.4894 96.8098 66.9829 96.0876 67.8134C95.7145 68.2347 95.4377 68.7282 95.2692 69.2698C95.1247 69.7152 95.1127 70.2087 95.221 70.666C95.3414 71.0873 95.534 71.4725 95.8108 71.8095C96.0515 72.1224 96.3645 72.4354 96.7496 72.5678C96.8339 72.6039 96.9302 72.6279 97.0265 72.64C97.0866 72.652 97.1589 72.5918 97.195 72.5557C97.2672 72.4955 97.3153 72.4113 97.3514 72.327C97.3876 72.2428 97.4598 72.0261 97.3033 72.0021C97.2311 71.99 97.1589 71.978 97.0866 71.9539C97.0024 71.9178 96.9181 71.8817 96.8459 71.8335C96.6774 71.7373 96.533 71.6169 96.4006 71.4725C96.1237 71.1836 95.9071 70.8345 95.7627 70.4614C95.6904 70.3049 95.6423 70.1364 95.6182 69.9679C95.6062 69.9318 95.6062 69.8837 95.6062 69.8476C95.6062 69.8114 95.6062 69.7874 95.6062 69.7633V69.7152C95.6062 69.667 95.6062 69.7753 95.6062 69.6911C95.6062 69.5828 95.6182 69.4624 95.6423 69.3541C95.6423 69.342 95.6664 69.2457 95.6423 69.318C95.6543 69.2939 95.6543 69.2698 95.6543 69.2457C95.6664 69.1856 95.6904 69.1254 95.7025 69.0652C95.7145 69.0411 95.7145 69.0171 95.7265 68.993C95.7386 68.9689 95.7386 68.9569 95.7386 68.9448C95.7386 68.9328 95.7145 69.005 95.7265 68.9689C95.7506 68.9087 95.7747 68.8606 95.7988 68.8004L95.8469 68.7161L95.8589 68.68C95.883 68.6439 95.8349 68.7161 95.8469 68.7041C95.883 68.6439 95.9071 68.5958 95.9432 68.5356C95.9793 68.4754 96.0034 68.4393 96.0395 68.3912C96.0756 68.343 96.0034 68.4393 96.0395 68.3912L96.0997 68.3069C96.1358 68.2588 96.1719 68.2227 96.208 68.1745L96.2682 68.1023L96.2922 68.0782C96.3765 67.994 96.4608 67.9097 96.557 67.8255C96.5932 67.7893 96.6413 67.7532 96.6894 67.7171C96.7376 67.681 96.7015 67.7051 96.6894 67.7171C96.7015 67.7051 96.7135 67.6931 96.7256 67.681L96.8098 67.6208C96.9061 67.5486 97.0144 67.4764 97.1228 67.4162C97.532 67.1635 97.9773 66.9468 98.4227 66.7663C99.4217 66.345 100.457 66.008 101.516 65.7673C102.563 65.5145 103.634 65.358 104.706 65.2858C104.838 65.2738 104.982 65.2738 105.115 65.2617C105.271 65.2497 105.392 65.0691 105.452 64.9488C105.5 64.9006 105.596 64.6358 105.44 64.6358Z" fill="#0E1E36"/>
<path d="M106.427 69.33C105.392 69.5346 104.369 69.7513 103.346 70.0161C102.322 70.2689 101.311 70.5577 100.312 70.8707C99.4458 71.1355 98.5671 71.4003 97.7607 71.8095C97.0024 72.1947 96.3163 72.7604 95.9552 73.5548C95.5941 74.3732 95.6423 75.3121 96.0876 76.0824C96.5089 76.8527 97.2431 77.3944 98.0496 77.7193C98.4829 77.8878 98.9162 78.0082 99.3735 78.0925C99.843 78.1767 100.312 78.2249 100.782 78.2128C101.263 78.2008 101.745 78.1045 102.19 77.8999C102.611 77.6953 102.972 77.3944 103.249 77.0212C103.55 76.624 103.731 76.1426 103.743 75.6371C103.743 75.2278 103.598 74.8427 103.346 74.5297C103.093 74.2047 102.744 73.964 102.347 73.8316C101.865 73.6872 101.36 73.6631 100.878 73.7594C100.649 73.8075 100.409 73.8677 100.192 73.964C100.036 74.0362 99.9272 74.1807 99.8791 74.3492C99.855 74.4455 99.855 74.638 100.011 74.5779C100.818 74.2649 101.769 74.1927 102.515 74.7103C102.828 74.9149 103.069 75.2158 103.201 75.5648L103.225 75.625C103.225 75.6371 103.225 75.6491 103.237 75.6491C103.249 75.6972 103.261 75.7454 103.273 75.7935C103.285 75.8417 103.285 75.8778 103.285 75.9259C103.285 75.9741 103.285 75.9741 103.285 75.9981V76.0343C103.285 76.0704 103.285 75.9981 103.285 76.0343C103.285 76.0704 103.285 76.1185 103.273 76.1666C103.261 76.2148 103.273 76.2148 103.261 76.2389C103.249 76.2629 103.261 76.2629 103.261 76.275C103.249 76.3111 103.273 76.2268 103.261 76.2629C103.249 76.2991 103.237 76.3472 103.225 76.3833C103.225 76.4074 103.213 76.4194 103.201 76.4435C103.189 76.4916 103.225 76.3833 103.213 76.4194C103.213 76.4315 103.201 76.4435 103.201 76.4555C103.189 76.4916 103.165 76.5398 103.141 76.5759C103.141 76.5879 103.129 76.6 103.129 76.6C103.129 76.6 103.165 76.5277 103.153 76.5639L103.105 76.6361L103.069 76.6963L103.045 76.7203C103.045 76.7203 103.093 76.6481 103.069 76.6842C103.045 76.7203 103.008 76.7564 102.984 76.8046C102.96 76.8527 102.948 76.8407 102.936 76.8648C102.924 76.8888 102.96 76.8407 102.96 76.8407C102.948 76.8527 102.948 76.8527 102.936 76.8648C102.9 76.9009 102.864 76.937 102.828 76.9611L102.768 77.0092C102.756 77.0212 102.708 77.0573 102.744 77.0333C102.78 77.0092 102.72 77.0453 102.708 77.0573L102.647 77.1055C102.563 77.1657 102.479 77.2138 102.395 77.2499C102.431 77.2258 102.395 77.2499 102.371 77.262L102.286 77.2981C102.238 77.3221 102.178 77.3462 102.13 77.3582C101.925 77.4305 101.709 77.4786 101.492 77.5147C101.035 77.5629 100.565 77.5508 100.108 77.4906C99.6865 77.4425 99.2773 77.3583 98.868 77.2259C98.0857 76.9851 97.3033 76.5518 96.8098 75.8898C96.6895 75.7333 96.5932 75.5648 96.5089 75.3963C96.4608 75.3121 96.4247 75.2158 96.3885 75.1195C96.3765 75.0714 96.3524 75.0232 96.3404 74.9751C96.3404 74.963 96.3284 74.9269 96.3284 74.9269C96.3284 74.9269 96.3163 74.8788 96.3163 74.8667C96.2682 74.6741 96.2441 74.4816 96.2321 74.289C96.2321 74.2649 96.2321 74.2408 96.2321 74.2168C96.2321 74.2649 96.2321 74.1927 96.2321 74.1807C96.2321 74.1325 96.2321 74.0844 96.2441 74.0362C96.2441 73.9881 96.2561 73.952 96.2682 73.9038C96.2682 73.8918 96.2802 73.8075 96.2802 73.8557C96.2802 73.9038 96.2923 73.8196 96.2923 73.8075C96.3043 73.7594 96.3163 73.7233 96.3284 73.6751L96.3524 73.6029C96.3645 73.5668 96.3404 73.639 96.3404 73.639C96.3404 73.639 96.3524 73.615 96.3524 73.6029C96.3645 73.5668 96.3885 73.5307 96.4006 73.4826L96.4367 73.4224C96.4608 73.3863 96.4126 73.4585 96.4126 73.4585L96.4367 73.4224C96.4608 73.3863 96.4728 73.3502 96.4969 73.314L96.533 73.2659L96.5571 73.2298C96.5571 73.2418 96.5089 73.302 96.533 73.2539C96.5811 73.1817 96.6413 73.1094 96.7015 73.0492C96.7376 73.0011 96.6533 73.0974 96.7015 73.0492C96.7135 73.0372 96.7256 73.0252 96.7496 73.0011C96.7857 72.965 96.8218 72.9289 96.858 72.9048C96.8941 72.8807 96.9181 72.8446 96.9542 72.8206L97.0024 72.7844C97.0024 72.7844 97.0385 72.7604 97.0024 72.7844L97.0144 72.7724C97.1589 72.6641 97.3153 72.5558 97.4838 72.4715C97.52 72.4474 97.5681 72.4234 97.6042 72.3993L97.6644 72.3632L97.6885 72.3511C97.6885 72.3511 97.7366 72.3271 97.7125 72.3391L97.7486 72.315L97.8209 72.2789L97.9533 72.2187C98.1338 72.1345 98.3023 72.0623 98.4829 72.0021C98.8921 71.8456 99.3254 71.7132 99.7467 71.5808C100.698 71.2799 101.66 70.991 102.635 70.7383C103.61 70.4855 104.585 70.2568 105.56 70.0522C105.801 70.0041 106.042 69.9559 106.282 69.9078C106.355 69.8837 106.415 69.8235 106.463 69.7633C106.523 69.6911 106.571 69.6069 106.595 69.5226C106.619 69.4624 106.619 69.3902 106.595 69.33C106.571 69.2819 106.511 69.2819 106.463 69.2939L106.427 69.33Z" fill="#0E1E36"/>
<path d="M103.261 76.6601C104.284 78.1647 105.271 79.6933 106.234 81.2459C107.197 82.7986 108.124 84.3634 109.027 85.9401C109.929 87.5289 110.796 89.1177 111.639 90.7426C112.481 92.3555 113.288 93.9924 114.07 95.6414C114.852 97.2904 115.599 98.9514 116.309 100.624L116.573 101.25C116.634 101.395 116.838 101.202 116.886 101.142C116.971 101.034 117.079 100.853 117.019 100.697C116.309 99.0236 115.574 97.3505 114.804 95.7016C114.034 94.0526 113.227 92.4156 112.397 90.7907C111.566 89.1658 110.7 87.565 109.809 85.9762C108.918 84.3874 107.992 82.8227 107.041 81.27C106.09 79.7173 105.103 78.1887 104.092 76.6721L103.707 76.1064C103.574 75.9018 103.141 76.4675 103.261 76.6601Z" fill="#0E1E36"/>
<path d="M111.061 54.2605C110.483 53.2254 109.953 52.1542 109.46 51.083C109.231 50.6015 109.003 50.12 108.798 49.6266C108.605 49.1933 108.413 48.7359 108.389 48.2544C108.341 47.2554 109.436 46.7138 110.303 46.6175C111.241 46.5332 112.192 46.786 112.963 47.3276C113.853 47.9294 114.539 48.784 115.153 49.6627C115.815 50.6135 116.441 51.6005 117.055 52.5755C118.331 54.6096 119.534 56.6919 120.702 58.7862C123.049 63.035 125.191 67.3922 127.346 71.7493L134.146 85.4948C136.277 89.7917 138.648 94.1128 139.707 98.831C140.634 102.923 140.478 107.557 138.082 111.132C136.024 114.201 132.437 115.947 128.838 116.392C125.107 116.837 121.316 115.886 118.126 113.937C114.9 111.963 112.493 108.978 110.543 105.788C108.124 101.828 106.343 97.507 104.718 93.1739C104.308 92.0786 103.911 90.9833 103.514 89.888C103.442 89.6834 102.984 90.201 103.069 90.4296C104.73 95.0516 106.463 99.6735 108.774 104.007C110.664 107.545 112.975 111 116.188 113.467C119.209 115.79 123.037 117.186 126.864 117.138C130.572 117.09 134.363 115.742 136.975 113.046C139.972 109.953 140.995 105.547 140.646 101.359C140.249 96.508 138.082 92.0305 135.964 87.7335C133.617 82.9671 131.258 78.2128 128.911 73.4464C126.66 68.8967 124.433 64.3229 122.038 59.8574C120.834 57.6307 119.595 55.416 118.283 53.2615C117.621 52.1783 116.947 51.107 116.248 50.0478C115.659 49.1571 115.057 48.2544 114.299 47.4961C112.999 46.1842 110.844 45.3416 109.159 46.4851C108.425 46.9906 107.871 47.8211 107.931 48.7359C108.004 49.7229 108.605 50.6858 109.003 51.5644C109.508 52.6597 110.05 53.743 110.64 54.8022C110.736 55.0188 111.181 54.4652 111.061 54.2605Z" fill="#0E1E36"/>
<path d="M28.2269 72.1706C25.7354 76.7323 23.4605 81.4024 21.3903 86.1808C20.3552 88.5761 19.3802 91.0074 18.4655 93.4508C17.5628 95.8701 16.66 98.3014 15.9258 100.769C15.2157 103.164 14.7222 105.764 15.4323 108.219C16.1064 110.542 17.7072 112.432 19.2117 114.262C25.4826 121.893 32.5841 128.801 40.3956 134.844C43.9463 137.588 47.9304 140.669 52.6967 140.104C55.754 139.718 58.5223 138.13 60.3879 135.686C60.737 135.229 61.0499 134.735 61.4231 134.29C61.748 133.893 62.1091 133.52 62.4702 133.159C63.5174 132.111 64.6608 131.028 64.3358 129.415C64.1673 128.573 63.7461 127.79 63.3248 127.044C62.9276 126.334 62.5063 125.636 62.061 124.95C61.062 123.373 60.0148 121.82 58.8834 120.34C57.8844 119.028 56.7289 117.909 55.5734 116.741C52.468 113.588 49.459 110.338 46.3656 107.172C45.6916 106.486 45.0176 105.812 44.3435 105.138V105.451L47.0397 98.8671L51.3126 88.4196L52.2995 86.0244C52.4801 85.579 52.0468 85.6994 51.9144 86.0123L49.2182 92.5962L44.9454 103.056L43.9584 105.451C43.9223 105.547 43.8741 105.68 43.9584 105.764C46.9674 108.713 49.8321 111.806 52.7449 114.851C54.105 116.272 55.5012 117.668 56.8854 119.064C57.9927 120.183 58.9195 121.519 59.8222 122.807C60.8212 124.24 61.7841 125.72 62.6508 127.237C63.048 127.935 63.4572 128.645 63.71 129.403C63.9266 130.077 63.9988 130.787 63.5896 131.389C63.1563 132.027 62.5304 132.533 62.0008 133.086C61.6517 133.447 61.3147 133.821 61.0138 134.206C60.6768 134.639 60.3759 135.108 60.0268 135.53C58.751 137.106 57.0418 138.298 55.116 138.948C53.1902 139.61 51.12 139.694 49.1581 139.189C46.8832 138.587 44.8611 137.287 42.9714 135.915C39.1077 133.074 35.4246 130.017 31.91 126.755C28.3593 123.469 25.0012 120.003 21.8356 116.344C20.283 114.55 18.6821 112.745 17.3581 110.783C16.7082 109.808 16.1304 108.761 15.8295 107.618C15.5286 106.414 15.4444 105.162 15.6129 103.934C15.9017 101.407 16.8406 98.9754 17.6831 96.5802C18.5257 94.185 19.4284 91.8138 20.3792 89.4668C22.293 84.7606 24.4114 80.1386 26.7465 75.625C27.3122 74.5177 27.9019 73.4344 28.4917 72.3391C28.5399 72.2548 28.6602 72.0261 28.5399 71.9419C28.4195 71.8576 28.263 72.0863 28.2269 72.1706Z" fill="#0E1E36"/>
<path d="M44.3556 139.285C51.9023 135.819 57.8122 128.97 60.1352 121.002L71.3891 122.157L66.707 148.818L48.4599 144.497L44.3556 139.285Z" fill="#3E4B5E"/>
<path d="M103.731 75.4685C103.671 74.9269 103.382 74.4454 102.936 74.1325C102.443 73.7834 101.841 73.639 101.251 73.6992C100.878 73.7353 100.517 73.8196 100.18 73.952C100.024 74.0242 99.9152 74.1686 99.8671 74.3371C99.843 74.4334 99.843 74.626 99.9995 74.5658C100.553 74.3371 101.167 74.2649 101.757 74.3732C102.25 74.4816 102.684 74.7584 102.972 75.1676C103.129 75.3843 103.225 75.637 103.249 75.9139C103.261 76.0703 103.442 75.9981 103.514 75.9259C103.658 75.8055 103.731 75.6491 103.731 75.4685Z" fill="#0E1E36"/>
<path d="M102.924 74.1807C102.683 74.1807 102.443 74.1566 102.274 74.1445C101.684 74.1084 101.107 74.0001 100.517 73.976C100.36 74.0603 100.204 74.1686 100.072 74.277C99.9633 74.3732 99.8189 74.3973 99.6865 74.3492C99.6985 74.4936 99.6985 74.6501 99.7105 74.7945C99.8068 76.4796 99.9031 78.1647 99.9994 79.8498C100.011 80.0303 100.023 80.2109 100.036 80.3914C100.036 80.7284 100.3 81.0052 100.637 81.0414C100.83 81.0414 101.022 80.9932 101.179 80.8849C101.396 80.7886 101.6 80.6562 101.769 80.4757C102.214 80.0544 102.575 79.5609 102.816 79.0072C103.021 78.5378 103.165 78.0684 103.129 77.5508C103.057 76.4194 102.984 75.3 102.924 74.1807Z" fill="#88EFD7"/>
<path d="M99.5059 74.7223C100.18 74.4936 100.902 74.2288 101.624 74.3612C101.949 74.4214 102.262 74.5417 102.539 74.7343C102.756 74.8908 102.936 75.0954 103.045 75.3482C103.081 75.4204 103.117 75.4926 103.141 75.5648C103.153 75.6009 103.165 75.637 103.177 75.6732V75.6972C103.177 75.7213 103.189 75.7333 103.189 75.7574C103.201 75.8296 103.213 75.9018 103.225 75.9741C103.225 76.0102 103.225 76.0583 103.225 76.0944C103.225 76.0342 103.225 76.0704 103.225 76.0824C103.225 76.0944 103.225 76.1305 103.213 76.1546C103.213 76.2028 103.213 76.275 103.261 76.3111C103.309 76.3351 103.37 76.3231 103.418 76.287C103.562 76.1907 103.658 76.0342 103.683 75.8537C103.755 75.2519 103.442 74.5899 102.984 74.2047C102.708 73.9881 102.383 73.8436 102.046 73.7714C101.672 73.6872 101.299 73.6872 100.926 73.7594C100.493 73.8436 100.06 73.964 99.6384 74.1205C99.4819 74.1927 99.3615 74.3371 99.3254 74.5056C99.3013 74.6019 99.3013 74.7945 99.4578 74.7343L99.5059 74.7223Z" fill="#0E1E36"/>
</svg>
