<svg width="16" height="16" viewBox="0 0 16 16" fill="none" xmlns="http://www.w3.org/2000/svg">
<path d="M10.0327 10.0037C11.1053 9.89527 12.0764 9.32131 12.6885 8.43411C13.3012 7.54693 13.4938 6.43565 13.215 5.39403C12.9363 4.35311 12.2151 3.48604 11.241 3.02261C10.2676 2.55999 9.13977 2.54778 8.15644 2.98885C7.17228 3.43064 6.43236 4.28118 6.13058 5.31631C5.8288 6.35144 5.99697 7.46631 6.58962 8.36724L5.24197 9.71705L4.10694 8.58202V8.58274C3.96902 8.44409 3.78225 8.36651 3.58685 8.36651C3.39146 8.36651 3.20468 8.44409 3.06676 8.58274C2.92811 8.72067 2.85053 8.90744 2.85053 9.10283C2.85053 9.29823 2.92811 9.485 3.06676 9.62293L4.20107 10.7579L2.88214 12.0769H2.88286C2.74421 12.2148 2.66663 12.4016 2.66663 12.597C2.66663 12.7924 2.74421 12.9791 2.88286 13.1171C3.02078 13.2557 3.20755 13.3333 3.40295 13.3333C3.59835 13.3333 3.78512 13.2557 3.92304 13.1171L5.24197 11.7989L6.37699 12.9339V12.9332C6.51492 13.0718 6.70169 13.1494 6.89709 13.1494C7.09248 13.1494 7.27925 13.0718 7.41718 12.9332C7.55582 12.7952 7.63341 12.6085 7.63341 12.4131C7.63341 12.2177 7.55583 12.0309 7.41718 11.893L6.28287 10.7579L7.63267 9.4103C8.33956 9.88011 9.18793 10.0906 10.0328 10.0037L10.0327 10.0037ZM9.65559 4.13765C10.5485 4.13765 11.3531 4.67499 11.6943 5.49966C12.0363 6.32435 11.8473 7.27402 11.2159 7.90473C10.5852 8.53617 9.63548 8.7251 8.81082 8.38317C7.98613 8.04194 7.44881 7.23737 7.44881 6.34443C7.44881 5.12536 8.43656 4.13761 9.65563 4.13761L9.65559 4.13765Z" fill="#0E1E36"/>
</svg>
