<svg width="16" height="16" viewBox="0 0 16 16" fill="none" xmlns="http://www.w3.org/2000/svg">
<path d="M10.6621 4.1613C9.71066 4.1613 8.82359 4.46751 8.11339 4.99992C7.35542 4.37111 6.40331 4 5.33923 4C2.95186 4 1 5.95138 1 8.33859C1 10.7258 2.95203 12.6772 5.33859 12.6772C6.28998 12.6772 7.17706 12.371 7.9029 11.8386C8.64513 12.4674 9.61298 12.8385 10.6614 12.8385C13.0488 12.8385 15 10.8864 15 8.49988C15.0006 6.11252 13.0488 4.1613 10.6621 4.1613ZM7.9358 10.4677C7.53256 9.91956 7.29061 9.22585 7.29061 8.48359C7.29061 7.6771 7.58108 6.91913 8.06497 6.33817C8.17775 6.20901 8.29053 6.09623 8.40395 5.98345C8.90423 6.62864 9.19405 7.43513 9.19405 8.32226C9.19405 9.29005 8.83933 10.1607 8.2584 10.8388C8.14562 10.726 8.03284 10.6133 7.9358 10.4677ZM5.33923 11.6938C3.48431 11.6938 1.96843 10.1779 1.96843 8.32304C1.96843 6.46818 3.48437 4.95224 5.33923 4.95224C6.11359 4.95224 6.82304 5.21057 7.38755 5.64595C6.72597 6.40392 6.32273 7.40377 6.32273 8.48511C6.32273 9.46928 6.66171 10.3886 7.20987 11.1144C6.67745 11.4843 6.03226 11.6941 5.33913 11.6941L5.33923 11.6938Z" fill="#0E1E36"/>
</svg>
