<svg width="18" height="18" viewBox="0 0 18 18" fill="none" xmlns="http://www.w3.org/2000/svg">
<path d="M12.0492 12.0057C13.6579 11.843 15.1147 10.982 16.0328 9.65122C16.9519 8.32045 17.2407 6.65353 16.8226 5.0911C16.4045 3.52972 15.3227 2.22913 13.8616 1.53398C12.4015 0.840044 10.7097 0.821728 9.23473 1.48334C7.75847 2.14602 6.64861 3.42184 6.19593 4.97453C5.74326 6.52722 5.99551 8.19952 6.88449 9.55093L4.86301 11.5756L3.16048 9.87309V9.87417C2.95359 9.6662 2.67343 9.54982 2.38034 9.54982C2.08724 9.54982 1.80709 9.6662 1.6002 9.87417C1.39223 10.0811 1.27585 10.3612 1.27585 10.6543C1.27585 10.9474 1.39223 11.2276 1.6002 11.4345L3.30166 13.137L1.32327 15.1154H1.32435C1.11638 15.3223 1 15.6024 1 15.8955C1 16.1886 1.11638 16.4688 1.32435 16.6757C1.53124 16.8836 1.81139 17 2.10449 17C2.39758 17 2.67774 16.8836 2.88463 16.6757L4.86301 14.6983L6.56555 16.4009V16.3998C6.77244 16.6078 7.0526 16.7241 7.34569 16.7241C7.63878 16.7241 7.91894 16.6078 8.12583 16.3998C8.3338 16.1929 8.45018 15.9128 8.45018 15.6197C8.45018 15.3266 8.3338 15.0464 8.12583 14.8395L6.42437 13.137L8.44907 11.1155C9.5094 11.8202 10.782 12.1359 12.0492 12.0056L12.0492 12.0057ZM11.4835 3.20653C12.8229 3.20653 14.0297 4.01254 14.5416 5.24955C15.0545 6.48659 14.7711 7.91109 13.8239 8.85715C12.8778 9.80432 11.4533 10.0877 10.2163 9.57481C8.97926 9.06297 8.17327 7.85611 8.17327 6.51671C8.17327 4.68811 9.65491 3.20647 11.4835 3.20647L11.4835 3.20653Z" fill="white"/>
</svg>
