<svg width="16" height="16" viewBox="0 0 16 16" fill="none" xmlns="http://www.w3.org/2000/svg">
<path d="M5.31091 2.93274H8.14275C8.83193 2.93274 9.73922 2.93274 10.2094 3.21692C10.4934 3.38234 10.7282 3.62048 10.8896 3.90682C11.051 4.19315 11.1331 4.51733 11.1275 4.84597C11.1275 5.67588 10.6909 6.29809 9.9691 6.59268V6.61485C10.9316 6.81124 11.4561 7.53209 11.4561 8.49324C11.4561 9.63945 10.6356 10.7318 9.08307 10.7318H5.31091V2.93274ZM6.34898 6.28542H8.42783C9.60799 6.28542 10.0895 5.8596 10.0895 5.0401C10.0895 3.95904 9.32472 3.80654 8.42783 3.80654H6.34898V6.28542ZM6.34898 9.85621H8.9523C9.84827 9.85621 10.4175 9.31002 10.4175 8.45884C10.4175 7.44295 9.59713 7.15877 8.72197 7.15877H6.34898V9.85621Z" fill="#0E1E36"/>
<path d="M14.1119 6.83297C14.1119 10.1083 11.4534 12.7636 8.17313 12.7636C7.38997 12.7705 6.61322 12.6221 5.88771 12.3272C5.16219 12.0322 4.50228 11.5964 3.94607 11.0451C3.38987 10.4937 2.94838 9.83762 2.64708 9.11471C2.34579 8.3918 2.19067 7.61638 2.19067 6.83319C2.19067 6.05001 2.34579 5.27458 2.64708 4.55167C2.94838 3.82876 3.38987 3.17268 3.94607 2.62131C4.50228 2.06994 5.16219 1.6342 5.88771 1.33923C6.61322 1.04427 7.38997 0.895925 8.17313 0.902766C11.4534 0.902766 14.1119 3.55767 14.1119 6.8307M8.17313 0C4.39599 0 1.33337 3.05854 1.33337 6.83297C1.33337 10.6074 4.39599 13.6659 8.17313 13.6659C11.9503 13.6659 15.0138 10.6069 15.0138 6.83297C15.0138 3.059 11.9512 0 8.17313 0Z" fill="#0E1E36"/>
<path d="M1.34741 15.1035H14.9998V15.9999H1.34741V15.1035Z" fill="#0E1E36"/>
<path d="M14.626 14.7397C14.5603 14.7396 14.4962 14.7201 14.4416 14.6835C14.387 14.647 14.3445 14.5951 14.3195 14.5344C14.2944 14.4737 14.2879 14.4069 14.3007 14.3425C14.3136 14.2781 14.3453 14.219 14.3918 14.1726C14.4382 14.1262 14.4974 14.0946 14.5618 14.0818C14.6262 14.069 14.693 14.0756 14.7537 14.1008C14.8143 14.1259 14.8662 14.1685 14.9027 14.2231C14.9391 14.2777 14.9586 14.3419 14.9586 14.4076C14.9601 14.4517 14.9526 14.4956 14.9364 14.5366C14.9202 14.5776 14.8957 14.6148 14.8645 14.646C14.8333 14.6771 14.7961 14.7015 14.755 14.7177C14.714 14.7338 14.6701 14.7413 14.626 14.7397ZM14.626 14.1515C14.5617 14.1562 14.5016 14.185 14.4577 14.2322C14.4138 14.2795 14.3894 14.3415 14.3894 14.406C14.3894 14.4705 14.4138 14.5325 14.4577 14.5798C14.5016 14.627 14.5617 14.6558 14.626 14.6605C14.6904 14.6558 14.7507 14.6269 14.7946 14.5796C14.8386 14.5323 14.8631 14.4701 14.8631 14.4055C14.8631 14.341 14.8386 14.2788 14.7946 14.2315C14.7507 14.1842 14.6904 14.1553 14.626 14.1506V14.1515ZM14.5703 14.5841H14.4943V14.227H14.6274C14.7179 14.227 14.774 14.2533 14.774 14.3347C14.7753 14.3467 14.7741 14.3588 14.7704 14.3702C14.7667 14.3817 14.7605 14.3922 14.7523 14.401C14.7442 14.4099 14.7342 14.4169 14.7231 14.4215C14.712 14.4262 14.7 14.4284 14.688 14.4279L14.7785 14.5841H14.688L14.6065 14.4352H14.5703V14.5841ZM14.6382 14.3736C14.6722 14.3736 14.6925 14.3664 14.6925 14.3284C14.6925 14.2904 14.6532 14.289 14.6242 14.289H14.5703V14.375L14.6382 14.3736Z" fill="white"/>
</svg>
