<svg width="160" height="160" viewBox="0 0 160 160" fill="none" xmlns="http://www.w3.org/2000/svg">
<path d="M40.6897 66.7305C43.1194 67.5404 45.5282 68.371 47.9579 69.1602C49.5984 69.7001 51.2389 70.2608 52.921 70.6761C53.627 70.8422 54.3746 70.9253 55.1014 71.0291L54.9145 70.6969C54.6861 74.1233 55.8698 77.4874 57.6972 80.3531C59.5661 83.3019 62.0996 85.7315 64.5915 88.1404C67.0212 90.4662 69.4508 92.792 71.3613 95.5747C72.2958 96.9037 73.0641 98.3366 73.6456 99.8525C74.2686 101.493 74.4762 103.217 74.6631 104.94C74.8292 106.622 75.0369 108.346 75.7637 109.903C76.3659 111.212 77.3835 112.416 78.7748 112.935C81.6405 113.994 84.7139 112.105 86.2921 109.758C88.2442 106.809 88.4103 103.134 88.4934 99.7279C88.5764 95.8446 88.3688 91.9614 87.8496 88.1196C87.372 84.5479 86.7075 80.893 85.1915 77.5704C83.904 74.7462 81.9313 72.1505 79.2317 70.5307C78.5879 70.1362 77.9026 69.8247 77.1966 69.5755C76.9266 69.4717 76.6567 69.8039 76.5321 70.0116C76.4698 70.1362 76.1583 70.7176 76.4282 70.8007C79.2524 71.7975 81.5367 73.9364 83.1149 76.4491C84.9423 79.3563 85.8353 82.7412 86.4375 86.0846C87.102 89.7809 87.455 93.5396 87.5381 97.2775C87.5796 99.1049 87.5589 100.932 87.4343 102.76C87.3305 104.338 87.1643 105.937 86.6452 107.432C86.4167 108.117 86.0845 108.782 85.6899 109.384L85.6276 109.467C85.5653 109.571 85.6899 109.384 85.6276 109.467C85.5653 109.55 85.5238 109.592 85.4823 109.654C85.4407 109.716 85.3784 109.799 85.3161 109.862L85.2331 109.966C85.2123 109.986 85.1708 110.028 85.2123 109.986C84.9839 110.215 84.7555 110.443 84.5063 110.63C83.468 111.461 82.1805 111.918 80.8514 111.897C79.4809 111.835 78.2141 111.129 77.425 110.007C76.5113 108.782 76.096 107.287 75.8675 105.792C75.5976 104.026 75.5561 102.22 75.12 100.475C74.7254 98.9388 74.1232 97.4644 73.3341 96.0731C71.7143 93.2489 69.4923 90.8608 67.1873 88.5973C64.7577 86.2299 62.2242 83.9456 60.1061 81.2876C58.0502 78.7126 56.4097 75.66 55.9944 72.3581C55.8905 71.5898 55.8698 70.8214 55.9113 70.0323C55.9113 69.887 55.9113 69.7208 55.7244 69.7001C55.0599 69.5962 54.3746 69.5339 53.7101 69.3886C53.0871 69.2432 52.5057 69.0771 51.9034 68.8902C49.8061 68.2464 47.7294 67.5612 45.6528 66.8759C44.2615 66.419 42.8702 65.9414 41.4788 65.4638C41.2089 65.36 40.9389 65.6922 40.8143 65.8999C40.7105 66.0452 40.4198 66.6475 40.6897 66.7305Z" fill="white"/>
<path d="M87.2474 87.9744C92.5012 89.6772 97.9212 90.7986 103.424 91.2762C105.895 91.5046 108.574 91.8161 110.962 90.9647C113.08 90.1964 114.7 88.4312 115.261 86.2508C115.822 84.0911 115.406 81.6615 113.766 80.0625L113.08 81.3292C115.759 81.5992 118.355 80.1456 119.829 77.9651C121.283 75.8262 121.2 73.1889 120.307 70.8423C119.871 69.5964 119.123 68.4542 118.127 67.5613L117.67 68.7449C119.746 67.4159 121.242 65.1316 121.532 62.6605C121.678 61.5183 121.512 60.3554 121.055 59.2964C120.556 58.2581 119.829 57.3651 118.916 56.6591C117.898 55.8492 116.735 55.2677 115.489 54.9562L115.012 56.223C116.112 56.0153 117.068 55.2054 117.732 54.3333C118.5 53.378 118.999 52.2359 119.186 51.0107C119.331 49.8478 119.04 48.5603 118.583 47.4804C118.085 46.3175 117.234 45.3 116.175 44.6147C114.949 43.7425 113.62 42.9949 112.229 42.4343C110.838 41.8943 109.363 41.6036 107.93 41.2091C105.127 40.4407 102.344 39.6516 99.5617 38.8625C94.3494 37.3881 89.1371 35.9552 83.8417 34.7923C80.893 34.1486 77.9442 33.5671 74.9746 33.0895C72.3373 32.6534 69.6585 32.5288 67.0004 32.7157C66.0036 32.778 65.0069 32.9026 64.0101 33.0064C63.5948 33.048 63.1795 33.1103 62.7641 33.1518C62.5772 33.1726 62.3696 33.1933 62.1827 33.1933C62.0581 33.1933 61.975 33.2349 61.9335 33.2349C61.7258 33.1726 61.5182 33.0895 61.3313 32.9857L60.1476 32.4873C58.9016 31.9681 57.6557 31.449 56.3889 30.9298C55.6621 30.6183 54.9353 30.3276 54.2085 30.0369C53.7309 29.85 53.0248 31.096 53.4401 31.2621C55.7867 32.2173 58.1333 33.1933 60.4799 34.1901C60.6875 34.2732 60.9159 34.377 61.1236 34.4601C61.3728 34.5224 61.6012 34.5224 61.8504 34.4601C62.7018 34.377 63.5532 34.2732 64.4254 34.1693C66.6889 33.8994 68.994 33.8371 71.2782 33.9824C74.2478 34.1901 77.1966 34.8131 80.1246 35.3945C85.3784 36.4536 90.5492 37.7826 95.6992 39.1947C98.2742 39.9216 100.828 40.6484 103.424 41.3752C104.816 41.7697 106.228 42.1643 107.619 42.5381C109.052 42.9326 110.526 43.2234 111.876 43.8048C113.205 44.3863 114.451 45.1131 115.614 45.9645C116.631 46.6706 117.4 47.6881 117.815 48.851C118.189 49.8478 118.438 51.0522 118.147 52.1113C117.919 53.025 117.379 53.8349 116.652 54.4163C116.278 54.707 115.842 54.8939 115.385 54.977C115.032 55.0393 114.368 56.0984 114.908 56.2437C116.839 56.7629 118.708 57.9881 119.788 59.6909C120.826 61.3937 120.909 63.5326 119.996 65.3185C119.497 66.2738 118.75 67.0837 117.836 67.6443C117.566 67.8105 117.047 68.5165 117.379 68.828C118.957 70.1778 119.829 72.4206 120.016 74.4556C120.099 75.3901 119.996 76.3661 119.58 77.1552C119.061 78.0689 118.293 78.8373 117.358 79.3357C116.237 79.9587 114.949 80.2286 113.683 80.0833C113.247 80.0417 112.665 81.0177 112.997 81.35C114.285 82.596 114.763 84.4857 114.472 86.2093C114.409 86.6038 114.285 86.9776 114.14 87.3514C113.994 87.6837 113.807 87.9951 113.579 88.2859C112.977 89.0335 112.084 89.5318 111.149 89.8226C108.906 90.5494 106.435 90.2587 104.151 90.051C101.597 89.8226 99.0426 89.4695 96.5091 88.9919C93.6434 88.4312 90.7984 87.7044 88.0157 86.7699C87.5173 86.583 86.8528 87.8498 87.2474 87.9744Z" fill="white"/>
<path d="M112.748 79.5018C110.692 79.3149 108.636 79.0864 106.581 78.7957C104.525 78.5258 102.49 78.1935 100.455 77.8405C99.4371 77.6536 98.4196 77.4667 97.402 77.259C96.426 77.0721 95.45 76.8852 94.474 76.6153C92.8335 76.1584 91.1307 75.3901 90.0923 74.0195C89.5732 73.3342 89.2409 72.5451 89.0956 71.7145C89.0125 71.2576 88.9917 70.8215 88.9917 70.3647L88.9917 70.3854C88.9917 70.3439 88.9917 70.3231 88.9917 70.2816L88.9917 70.1362C88.9917 70.0116 89.0125 69.887 89.0125 69.7832C89.0333 69.5548 89.054 69.3264 89.0956 69.1187C89.1163 69.0149 89.1371 68.9318 89.1371 68.8487C89.1371 68.8072 89.1579 68.7449 89.1579 68.7034C89.1579 68.6826 89.1786 68.6203 89.1579 68.7034C89.1371 68.7864 89.1579 68.6618 89.1579 68.6618C89.1994 68.4542 89.2617 68.2673 89.324 68.0804C89.3655 67.9766 89.3863 67.8935 89.4278 67.7897C89.4278 67.7897 89.3655 67.9143 89.4071 67.852C89.4071 67.8312 89.4278 67.8104 89.4278 67.7897L89.4901 67.6235C89.5317 67.5405 89.5732 67.4366 89.6147 67.3536C89.6563 67.2705 89.5317 67.4989 89.6147 67.3743C89.6355 67.3328 89.677 67.2705 89.6978 67.229C89.7186 67.1874 89.7393 67.1459 89.7809 67.1044L89.8224 67.0629C89.8847 66.959 89.7809 67.1044 89.7809 67.1044C89.8432 67.0213 89.9055 66.9383 89.9885 66.8552C90.0093 66.8344 90.0923 66.7306 90.03 66.8137C89.9677 66.8967 90.0716 66.7721 90.0923 66.7514L90.1962 66.6475L90.2377 66.606C90.2377 66.606 90.3415 66.5229 90.2792 66.5645C90.2169 66.606 90.3415 66.5229 90.3623 66.5022L90.4661 66.4399C90.5492 66.3776 90.653 66.336 90.7361 66.2737L90.7984 66.2322C90.6946 66.2737 90.7776 66.253 90.7984 66.2322L90.9438 66.1699C91.0268 66.1284 91.1307 66.0868 91.2137 66.0661C91.4006 66.0038 91.6083 65.9415 91.8159 65.8999C91.9821 65.8584 92.169 65.8376 92.3559 65.8169C92.7712 65.7754 93.1865 65.7754 93.6018 65.7961C94.5155 65.8376 95.4292 65.983 96.343 66.0868C98.3988 66.336 100.455 66.5645 102.51 66.7929C104.566 67.0213 106.622 67.2705 108.657 67.5612C110.692 67.852 112.748 68.1635 114.783 68.558C115.282 68.6618 115.78 68.7449 116.278 68.8487C116.382 68.8695 116.548 68.7449 116.631 68.6826C116.777 68.558 116.881 68.3919 116.964 68.2258C117.047 68.0389 117.171 67.6443 116.881 67.582C114.804 67.1459 112.727 66.7929 110.63 66.5022C108.533 66.2114 106.456 65.9415 104.379 65.6923C102.303 65.4431 100.185 65.2147 98.0665 64.9655C97.0698 64.8409 96.073 64.7163 95.0762 64.6124C94.2248 64.5086 93.3734 64.5086 92.5427 64.6124C91.629 64.737 90.7776 65.1316 90.0923 65.7546C89.3655 66.4606 88.8256 67.3328 88.5349 68.3088C88.2649 69.181 88.0988 70.0739 88.078 70.9876C88.0365 71.9637 88.1819 72.9397 88.5141 73.8534C89.1371 75.5147 90.5907 76.6776 92.1897 77.3629C93.1242 77.7366 94.1002 78.0481 95.097 78.235C96.1145 78.4635 97.1321 78.6504 98.1496 78.858C100.226 79.2526 102.303 79.6056 104.4 79.9171C106.498 80.2286 108.574 80.4778 110.692 80.7062C111.211 80.7477 111.71 80.81 112.229 80.8516C112.603 80.8308 113.247 79.5433 112.748 79.5018Z" fill="white"/>
<path d="M95.9276 64.5709C95.5746 64.5293 95.2423 64.467 94.9101 64.384L95.0139 64.4047C93.9964 64.114 93.0619 63.5533 92.3559 62.7642L92.4182 62.8265C92.1482 62.5358 91.9198 62.2035 91.7329 61.8505C91.629 61.6636 91.546 61.4767 91.4837 61.2898C91.4421 61.186 91.4214 61.1029 91.3798 60.9991C91.3798 60.9783 91.3591 60.9575 91.3591 60.916C91.3591 60.8745 91.3383 60.8537 91.3591 60.8952C91.3798 60.9368 91.3591 60.8537 91.3383 60.8537L91.3176 60.7499C91.276 60.5422 91.2345 60.3346 91.2137 60.1269C91.193 60.0231 91.193 59.9192 91.193 59.8362C91.1722 59.7323 91.1722 59.6285 91.193 59.5247C91.193 59.5455 91.193 59.6285 91.193 59.5455C91.193 59.5247 91.193 59.5039 91.193 59.4832C91.193 59.4209 91.193 59.3793 91.193 59.317C91.193 59.2132 91.2137 59.1094 91.2345 59.0055C91.2553 58.9017 91.2553 58.7979 91.276 58.7148C91.276 58.694 91.276 58.6733 91.276 58.6525C91.2968 58.5694 91.2553 58.7563 91.276 58.694C91.2968 58.611 91.2968 58.5694 91.3176 58.5279C91.3383 58.4864 91.3591 58.341 91.4006 58.258C91.4214 58.2164 91.4421 58.1541 91.4421 58.1126C91.4421 58.1126 91.3798 58.2787 91.4214 58.1749L91.4629 58.1126C91.5044 58.0088 91.546 57.9257 91.5875 57.8219C91.6083 57.8011 91.6913 57.635 91.6083 57.7596C91.5252 57.8842 91.5875 57.8011 91.6083 57.7803C91.629 57.7596 91.6498 57.718 91.6706 57.6765C91.7121 57.5934 91.7744 57.5104 91.8159 57.4481C91.8575 57.3858 91.7744 57.5104 91.7744 57.5104C91.7952 57.4896 91.8159 57.4688 91.8159 57.4481C91.8575 57.4065 91.8782 57.365 91.9198 57.3235C91.9613 57.2819 91.9821 57.2404 92.0236 57.1989C92.0651 57.1573 92.1482 57.0535 92.0651 57.1366C91.9821 57.2196 92.1067 57.095 92.1274 57.0743L92.252 56.9705C92.3351 56.9082 92.3974 56.8251 92.4805 56.7628C92.522 56.742 92.6466 56.659 92.522 56.7213C92.5635 56.7005 92.6051 56.659 92.6466 56.6174C92.8127 56.4928 92.9996 56.3682 93.1865 56.2644L93.4565 56.119C93.3526 56.1813 93.498 56.0983 93.5188 56.0775L93.6641 56.0152C93.851 55.9321 94.0587 55.8491 94.2663 55.7868C95.1801 55.4961 96.1353 55.3092 97.0905 55.2884C98.1288 55.2261 99.1671 55.2469 100.185 55.2676C102.303 55.3092 104.421 55.413 106.518 55.5584C108.616 55.7037 110.734 55.9321 112.81 56.2229L113.6 56.3267C113.724 56.3475 113.87 56.2229 113.953 56.1606C114.098 56.036 114.202 55.8698 114.285 55.7037C114.368 55.5168 114.513 55.1015 114.202 55.06C111.668 54.7069 109.135 54.437 106.581 54.2501C104.047 54.0632 101.493 53.9594 98.9387 53.9801C97.6928 53.9594 96.426 54.084 95.2216 54.3747C94.1417 54.6446 93.145 55.1638 92.2936 55.8698C90.5077 57.3858 89.7601 59.7946 90.4038 62.0582C90.9853 63.9894 92.6881 65.3807 94.6194 65.8168C94.8478 65.8791 95.097 65.8999 95.3254 65.9207C95.7823 65.8999 96.426 64.6124 95.9276 64.5709Z" fill="white"/>
<path d="M97.5059 53.8762C97.2359 53.8139 96.9659 53.7516 96.696 53.6893L96.779 53.7101C95.3462 53.3363 94.0587 52.5679 93.0411 51.4881L93.1034 51.5504C92.6051 51.0105 92.2105 50.3667 91.9405 49.6814C91.899 49.5984 91.8782 49.5153 91.8367 49.4322C91.8159 49.3907 91.8159 49.3492 91.7952 49.3076C91.7744 49.2661 91.7536 49.1623 91.7744 49.2453C91.7329 49.0585 91.6913 48.8716 91.6498 48.7054C91.6083 48.5185 91.5875 48.3316 91.5875 48.1447C91.5875 48.0617 91.5875 47.9786 91.5875 47.8955C91.5875 47.8955 91.5875 47.8125 91.5875 47.8955L91.5875 47.854L91.5875 47.7087C91.5875 47.5425 91.6083 47.3764 91.6498 47.2103C91.6498 47.1687 91.6706 47.1272 91.6706 47.0649C91.6706 47.0026 91.6498 47.1272 91.6498 47.1272C91.6498 47.1064 91.6498 47.0857 91.6706 47.0649C91.6913 46.9818 91.7121 46.878 91.7329 46.7949C91.7536 46.7119 91.7744 46.6288 91.8159 46.5457C91.8159 46.525 91.8367 46.5042 91.8367 46.4835C91.8575 46.4212 91.7952 46.5665 91.8159 46.5665L91.8575 46.4419C91.899 46.3589 91.9198 46.2758 91.9613 46.2135L92.0236 46.1097C92.0444 46.0889 92.0444 46.0681 92.0651 46.0474C92.0651 46.0681 91.9821 46.1927 92.0236 46.1097C92.0651 46.0266 92.1067 45.9643 92.1482 45.902C92.169 45.8605 92.1897 45.8397 92.2105 45.7982C92.2105 45.7774 92.2313 45.7566 92.252 45.7566L92.2105 45.8189C92.252 45.7566 92.3143 45.6943 92.3766 45.6113C92.3974 45.5697 92.4389 45.549 92.4597 45.5074L92.5012 45.4659C92.5635 45.4036 92.3974 45.5697 92.4597 45.5074C92.5843 45.3828 92.7089 45.279 92.8335 45.1752C92.8958 45.1337 92.7297 45.2375 92.792 45.196L92.8335 45.1544L92.9373 45.0921C93.0204 45.0506 93.0827 44.9883 93.1657 44.9468L93.2696 44.8845L93.3319 44.8429C93.3526 44.8429 93.4357 44.8014 93.3734 44.8222C93.3111 44.8429 93.3734 44.8222 93.3942 44.8222L93.4565 44.8014C93.498 44.7806 93.5395 44.7599 93.6018 44.7391C93.768 44.656 93.9549 44.5937 94.1417 44.5522C94.2248 44.5314 94.3286 44.5107 94.4117 44.4899L94.6609 44.4484C94.6194 44.4484 94.6817 44.4484 94.6817 44.4484L94.7647 44.4276L94.8893 44.4068C94.9932 44.3861 95.097 44.3861 95.2008 44.3653C95.9692 44.303 96.7583 44.3238 97.5266 44.4068C99.3333 44.5522 101.119 44.7183 102.926 44.8845L108.387 45.3621L109.052 45.4244C109.509 45.4659 110.152 44.1784 109.633 44.1369L102.739 43.5347L99.2917 43.2232C98.2742 43.0986 97.2567 43.057 96.2391 43.057C95.2216 43.057 94.2248 43.327 93.3319 43.8254C92.4389 44.3861 91.7121 45.2167 91.2553 46.172C90.8192 47.0649 90.6115 48.0617 90.6738 49.0377C90.7361 49.9929 91.0476 50.9274 91.546 51.7373C92.5843 53.4401 94.3286 54.4992 96.2184 55.0183C96.4468 55.0806 96.6752 55.1429 96.9244 55.1845C97.0282 55.2052 97.1944 55.0806 97.2774 55.0183C97.4228 54.8937 97.5266 54.7276 97.6097 54.5615C97.6928 54.3746 97.8174 53.9593 97.5266 53.897L97.5059 53.8762Z" fill="white"/>
<path d="M94.7232 76.7399C93.228 76.5737 91.6498 76.3453 90.1546 76.6776C89.054 76.9475 88.0157 77.4874 87.1643 78.235C86.479 78.858 85.8561 79.564 85.3577 80.3532C85.2538 80.4985 85.1915 80.6646 85.1708 80.8308C85.1708 80.9346 85.1708 81.08 85.2538 81.1423C85.503 81.2876 85.8353 80.8723 85.9184 80.7062L86.0845 80.4778C86.1053 80.4362 86.1468 80.3947 86.1676 80.3739L86.126 80.4362L86.1676 80.3739C86.2714 80.2286 86.396 80.0832 86.4998 79.9378C86.5621 79.8755 86.6036 79.8132 86.6659 79.7509L86.749 79.6679C86.8321 79.5848 86.6452 79.7717 86.749 79.6679C86.8528 79.564 86.9982 79.4187 87.1228 79.3149C87.2474 79.211 87.3512 79.1072 87.4758 79.0034C87.5589 78.9411 87.372 79.0864 87.4758 79.0034L87.5589 78.9411C87.6212 78.8995 87.6835 78.858 87.7458 78.8165C87.9742 78.6711 88.2026 78.5257 88.4311 78.4011L88.4726 78.3804C88.4726 78.3804 88.3688 78.4219 88.4311 78.4011L88.5141 78.3596L88.6803 78.2765C88.7841 78.235 88.9087 78.1935 89.0125 78.1519C89.2202 78.0689 89.4278 78.0066 89.6563 77.9651L89.8016 77.9235L89.8639 77.9028L89.9055 77.9028L89.9678 77.9028L90.0301 77.9028L90.1754 77.882C90.5284 77.8405 90.8815 77.8197 91.2345 77.8197C92.2105 77.8405 93.1865 77.9028 94.1417 78.0481C94.2663 78.0274 94.3909 77.9651 94.4948 77.882C94.6401 77.7574 94.744 77.5913 94.827 77.4251C94.8893 77.2382 95.0347 76.7814 94.7232 76.7399Z" fill="white"/>
<path d="M93.2903 75.0992C95.6369 74.0609 97.1736 71.3197 96.5506 68.7863C96.3845 68.1218 96.0938 67.478 95.6784 66.9381C95.4915 66.7097 95.1801 66.9796 95.0555 67.1457C94.9309 67.2911 94.8478 67.4572 94.7855 67.6441C94.7647 67.748 94.7024 67.9349 94.7855 68.0387C95.1178 68.4748 95.367 68.9524 95.5538 69.4716L95.5746 69.5546C95.5538 69.4716 95.5954 69.5962 95.5954 69.6169C95.6161 69.6792 95.6161 69.7207 95.6369 69.783C95.6784 69.9284 95.6992 70.053 95.72 70.1984C95.7407 70.3437 95.7407 70.4683 95.7615 70.6137C95.7615 70.676 95.7615 70.7175 95.7615 70.7798C95.7615 70.9252 95.7615 70.7175 95.7615 70.8006L95.7615 70.946C95.7615 71.0705 95.7407 71.1951 95.72 71.3197C95.72 71.382 95.6992 71.4651 95.6784 71.5274C95.6577 71.5897 95.6369 71.6312 95.6784 71.5066C95.6577 71.5482 95.6577 71.5897 95.6577 71.6312C95.6369 71.7351 95.5954 71.8597 95.5538 71.9635C95.5331 72.005 95.5331 72.0258 95.5123 72.0673C95.5123 72.0673 95.5746 71.9012 95.5331 72.005C95.5123 72.0673 95.4708 72.1296 95.45 72.1919C95.4292 72.2542 95.4085 72.2957 95.367 72.358L95.3254 72.4411C95.2839 72.5242 95.4292 72.275 95.3462 72.3996C95.2631 72.5242 95.2216 72.628 95.1385 72.7318C95.1178 72.7526 95.1178 72.7734 95.097 72.7941C95.2216 72.6072 95.1593 72.6903 95.1385 72.7526C95.1178 72.8149 95.0762 72.8564 95.0347 72.898L94.9101 73.0433C94.8893 73.0641 94.8686 73.0849 94.8686 73.1056C94.7647 73.2095 94.9932 72.981 94.8893 73.0849C94.7855 73.1887 94.6817 73.2925 94.5778 73.3756L94.5155 73.4171L94.4532 73.4587C94.4117 73.5002 94.4117 73.5002 94.4532 73.4587C94.5155 73.3964 94.4532 73.4587 94.4117 73.4794L94.3079 73.5417C94.1833 73.6248 94.0794 73.7078 93.9549 73.7701C93.8926 73.8117 93.851 73.8324 93.7887 73.8532C93.8926 73.8324 93.8303 73.8324 93.7887 73.8532L93.6641 73.9155C93.3526 74.0816 93.1242 74.3516 93.0411 74.7046C92.9996 74.8292 92.9996 74.9746 93.0411 75.0992C93.0827 75.1199 93.2073 75.1615 93.2903 75.0992Z" fill="white"/>
<path d="M95.4085 63.4287C97.2151 62.1619 98.295 59.7946 97.7551 57.6141C97.6097 57.0327 97.3605 56.472 97.0282 55.9944C96.8621 55.7452 96.5299 56.0359 96.4053 56.202C96.2807 56.3474 96.1976 56.5135 96.1353 56.7004C96.1145 56.8043 96.0522 56.9912 96.1353 57.095C96.6544 57.8218 96.9452 58.7147 96.9452 59.6077C96.9452 59.6285 96.9452 59.7115 96.9452 59.6077C96.9452 59.6285 96.9452 59.67 96.9452 59.6908C96.9452 59.7115 96.9452 59.7946 96.9452 59.8361C96.9452 59.9607 96.9244 60.0853 96.9036 60.2099C96.8829 60.2722 96.8829 60.3137 96.8829 60.376C96.8829 60.376 96.9036 60.2514 96.8829 60.3137L96.8621 60.3968C96.8413 60.5006 96.7998 60.6252 96.7583 60.7291C96.7375 60.7706 96.7167 60.8329 96.7167 60.8744C96.7167 60.8744 96.779 60.7291 96.7375 60.8121L96.696 60.8952C96.6544 60.999 96.6129 61.1028 96.5506 61.2067C96.5506 61.2274 96.5299 61.2482 96.5091 61.269C96.5091 61.269 96.5922 61.1236 96.5506 61.1859C96.5091 61.2482 96.5091 61.269 96.4676 61.3313C96.426 61.4351 96.3637 61.5389 96.2807 61.622C96.2807 61.622 96.3845 61.4766 96.343 61.5389L96.2807 61.622C96.2391 61.6843 96.1976 61.7258 96.1561 61.7881L96.0522 61.9127C95.9692 61.9958 96.0938 61.8712 96.0938 61.8712C96.073 61.892 96.0522 61.9127 96.0315 61.9335C95.9484 62.0166 95.8653 62.0996 95.7615 62.1827L95.6992 62.2242C95.6161 62.2865 95.6992 62.245 95.72 62.2242C95.6992 62.2658 95.5954 62.328 95.5538 62.3488C95.2631 62.5357 95.0555 62.8472 94.9932 63.2002C94.9932 63.3041 94.9932 63.4494 95.0762 63.5117C95.1801 63.5117 95.3047 63.491 95.4085 63.4287Z" fill="white"/>
<path d="M94.9932 51.1974C96.3637 50.1384 97.1321 48.4978 97.049 46.7742C97.0282 46.3589 96.9244 45.9436 96.779 45.5698C96.7375 45.466 96.6129 45.466 96.5091 45.4867C96.3637 45.549 96.2391 45.6529 96.1353 45.7775C95.9484 46.0059 95.7407 46.3589 95.8653 46.6704C95.8861 46.7327 95.9069 46.8158 95.9276 46.8781C95.9276 46.8988 95.9484 46.9819 95.9484 46.9196L95.9899 47.0442C96.0315 47.1896 96.0522 47.3349 96.073 47.5011C96.073 47.5634 96.0938 47.6464 96.0938 47.7295C96.0938 47.771 96.0938 47.7918 96.0938 47.8333C96.0938 47.8748 96.0938 47.9787 96.0938 47.9164C96.0938 47.8541 96.0938 47.9579 96.0938 47.9787C96.0938 48.0202 96.0938 48.0617 96.0938 48.0825C96.0938 48.1656 96.073 48.2486 96.073 48.3317C96.073 48.4148 96.0522 48.4771 96.0315 48.5394C96.0315 48.5601 96.0315 48.5809 96.0315 48.6017C96.0315 48.664 96.0522 48.5394 96.0522 48.5394C96.0315 48.5809 96.0315 48.6224 96.0107 48.664C95.9899 48.747 95.9692 48.8301 95.9484 48.8924C95.9484 48.9339 95.9276 48.9547 95.9069 48.9962C95.8861 49.0377 95.8446 49.1623 95.8861 49.0585C95.9276 48.9547 95.8861 49.0585 95.8653 49.1L95.8238 49.2039C95.7823 49.2662 95.7615 49.3492 95.72 49.4115C95.6577 49.5154 95.803 49.2662 95.7407 49.37L95.6784 49.4738C95.6369 49.5361 95.5954 49.6192 95.5538 49.6815C95.5123 49.7438 95.6161 49.5984 95.6161 49.5984C95.5954 49.6192 95.5954 49.64 95.5746 49.6607L95.4915 49.7646L95.4085 49.8684C95.3877 49.8892 95.2839 49.993 95.3669 49.9099C95.45 49.8269 95.3462 49.9307 95.3254 49.9515L95.2216 50.0345L95.1178 50.1176C95.0762 50.1384 94.9516 50.2422 95.097 50.1384C94.8063 50.346 94.5986 50.6575 94.5571 51.0105C94.5571 51.1144 94.5571 51.2597 94.6609 51.322C94.7855 51.3013 94.9101 51.2805 94.9932 51.1974Z" fill="white"/>
<path d="M91.1514 80.5607L91.2968 80.706L91.2345 80.6437C91.5667 81.0175 91.8367 81.4744 92.0236 81.952C92.0444 82.0143 92.0651 82.0558 92.0859 82.1181L92.1067 82.1804L92.1274 82.2427C92.169 82.3673 92.1897 82.4919 92.2105 82.6373C92.2313 82.7826 92.252 82.8657 92.252 82.9903C92.252 83.0526 92.252 83.1149 92.252 83.1772C92.252 83.2187 92.252 83.2395 92.252 83.281C92.252 83.1564 92.252 83.281 92.252 83.3018C92.252 83.4264 92.2313 83.551 92.2105 83.6548C92.2105 83.7171 92.1897 83.7794 92.169 83.8417C92.1482 83.904 92.1274 83.9455 92.169 83.8002C92.1482 83.8417 92.1482 83.8832 92.1482 83.904C92.1274 84.0078 92.0859 84.1117 92.0444 84.2363C92.0028 84.3609 92.0859 84.1117 92.0651 84.1947L92.0236 84.2778C92.0028 84.3401 91.9821 84.4024 91.9405 84.4439C91.899 84.4855 91.7952 84.6931 91.9198 84.4855C91.8782 84.527 91.8575 84.5893 91.8367 84.6308C91.8159 84.6724 91.7744 84.7347 91.7329 84.7762C91.6913 84.8177 91.7121 84.8177 91.6913 84.8385C91.8159 84.6308 91.7329 84.7762 91.7121 84.8177C91.6498 84.9008 91.5667 85.0046 91.5044 85.0877C91.4629 85.1292 91.4006 85.1915 91.546 85.0461L91.4837 85.1084L91.3383 85.2538C91.2968 85.2953 91.2345 85.3369 91.1722 85.3992C91.1514 85.4199 91.1306 85.4199 91.1099 85.4407C91.1722 85.3784 91.1929 85.3784 91.1514 85.4199L91.1099 85.4407C91.0061 85.5238 90.8815 85.6068 90.7569 85.6691C90.6946 85.7107 90.6323 85.7314 90.57 85.773C90.5077 85.8145 90.6738 85.7314 90.57 85.773L90.4661 85.8145C90.3415 85.8768 90.2169 85.9183 90.0716 85.9599C89.7601 86.0637 89.5109 86.4375 89.4486 86.749C89.3863 86.9566 89.3863 87.3097 89.6978 87.2266C91.5667 86.5413 92.9165 84.88 93.145 82.8865C93.2073 82.2635 93.1242 81.6405 92.9373 81.0383C92.7296 80.3945 92.3766 79.8131 91.899 79.3562C91.8159 79.2732 91.6498 79.377 91.5875 79.3978C91.4421 79.5016 91.3175 79.6262 91.2345 79.7715C91.1306 79.9792 90.9438 80.353 91.1514 80.5607Z" fill="white"/>
<path d="M81.2044 111.481L81.2667 108.408C81.2875 107.411 81.329 106.394 81.329 105.397C81.329 104.566 81.246 103.673 80.7684 102.947C80.2907 102.282 79.5639 101.846 78.754 101.721C77.6742 101.514 76.5528 101.784 75.4938 102.033C75.3484 102.095 75.2238 102.199 75.12 102.324C74.9954 102.469 74.9123 102.635 74.85 102.822C74.7877 103.05 74.7877 103.362 75.0992 103.279C76.1998 103.03 77.3419 102.78 78.4633 103.092L78.3803 103.071C78.8994 103.217 79.377 103.486 79.7508 103.881L79.6885 103.819C79.8546 104.006 79.9792 104.213 80.0831 104.421C80.1246 104.525 80.1661 104.629 80.2077 104.732C80.2077 104.732 80.2284 104.816 80.2284 104.774C80.2284 104.732 80.2492 104.857 80.2492 104.836C80.27 104.899 80.27 104.961 80.2907 105.023C80.3323 105.272 80.3738 105.501 80.3738 105.75C80.3738 105.875 80.3946 105.999 80.3946 106.124C80.3946 106.186 80.3946 106.228 80.3946 106.29C80.3946 106.352 80.3946 106.352 80.3946 106.373L80.3946 106.414C80.3738 107.619 80.3323 108.823 80.3115 110.028L80.27 112.084C80.27 112.187 80.2492 112.333 80.353 112.395C80.4569 112.437 80.5815 112.416 80.6645 112.354C80.8099 112.25 80.9345 112.125 81.0175 111.98C81.1214 111.834 81.1837 111.648 81.2044 111.481Z" fill="white"/>
<path d="M52.568 28.7077C48.4147 41.0635 43.68 55.1222 39.5268 67.478L29.2268 63.8024C33.3801 51.4466 38.3639 36.6403 42.5171 24.2637L52.568 28.7077Z" fill="white"/>
<path d="M52.1319 28.8531L49.6399 36.2667L47.0649 43.9086L44.4692 51.6336L41.8942 59.2963L39.4022 66.7306L39.0907 67.6235L39.9214 66.8552L36.4327 65.6092L30.8881 63.6364L29.6214 63.1796L29.6837 63.6364L32.1964 56.1606L34.8337 48.3318L37.5125 40.3784L40.1498 32.5288L42.6833 24.9906L42.974 24.0977L42.1434 24.866L45.549 26.382L50.9274 28.7493L52.1734 29.31C52.4434 29.4346 52.7341 29.0816 52.8379 28.8739C52.921 28.7286 53.1909 28.1886 52.9417 28.0848L49.5361 26.5896L44.1577 24.2223L42.9117 23.6616C42.5172 23.4955 42.1641 24.16 42.0811 24.43L39.5684 31.9058L36.9311 39.7346L34.2522 47.688L31.6149 55.5376L29.0815 63.0757L28.7907 63.9687C28.7492 64.0725 28.6869 64.384 28.853 64.4255L32.3417 65.6715L37.8655 67.6443L39.1323 68.1011C39.5268 68.2465 39.8591 67.6235 39.9629 67.3328L42.4549 59.9193L45.0506 52.2773L47.6464 44.5523L50.2214 36.8896L52.7133 29.4554L53.0248 28.5624C53.0871 28.3548 53.0663 28.0017 52.7756 28.1056C52.4849 28.2094 52.2357 28.5832 52.1319 28.8531Z" fill="white"/>
<path d="M29.3307 63.5117L18.553 60.5006C16.954 60.0438 15.978 58.4032 16.3518 56.7835L24.4714 22.1248C25.0944 19.4252 27.8147 17.7432 30.5143 18.3869C30.9089 18.47 31.2827 18.6153 31.6357 18.8022L42.5794 24.326" fill="white"/>
<path d="M29.6214 62.8679L27.4825 62.2657L23.08 61.0405L19.4252 60.023L18.9891 59.8984L18.8645 59.8568L18.823 59.8361C17.7639 59.5246 16.9748 58.6316 16.7671 57.5518C16.6841 56.9911 16.7671 56.6173 16.9125 56.0566L17.3694 54.0839L18.0962 50.9897L19.0099 47.0441L20.0482 42.6002L21.1488 37.9278L22.2286 33.3593L23.2047 29.1853L24.0145 25.6966L24.596 23.2046C24.6998 22.8101 24.7829 22.4155 24.8659 22.021L24.8867 21.9587C24.9075 21.8548 24.9282 21.7718 24.9698 21.6679C25.0113 21.5641 25.0113 21.5226 25.0321 21.4603C25.0321 21.4395 25.0528 21.398 25.0528 21.3772C25.0321 21.4395 25.0321 21.4395 25.0528 21.3772C25.0944 21.2526 25.1567 21.1488 25.219 21.0242C25.2605 20.9619 25.3228 20.8373 25.2605 20.9619C25.302 20.8996 25.3228 20.8373 25.3643 20.7958C25.4059 20.7542 25.4266 20.6919 25.4682 20.6296C25.5512 20.505 25.4059 20.7127 25.4889 20.6089C25.572 20.505 25.6551 20.4012 25.7381 20.2974L25.8212 20.2143L25.8004 20.2351C25.8419 20.1935 25.8835 20.152 25.925 20.1105C26.0288 20.0274 26.1119 19.9443 26.2157 19.8613L26.278 19.799C26.195 19.8613 26.278 19.799 26.278 19.799L26.4234 19.6952C26.5272 19.6121 26.6311 19.5498 26.7557 19.4875C26.9426 19.3629 27.1502 19.2798 27.3579 19.1968C28.2924 18.8437 29.3307 18.7814 30.3067 19.0306C30.722 19.1552 31.1165 19.3006 31.4903 19.5083L34.3145 20.9411L38.4678 23.08L41.6657 24.6998L42.1434 24.949C42.4133 25.0736 42.704 24.6998 42.8079 24.5129C42.8909 24.3675 43.1609 23.8484 42.9117 23.7238L41.0012 22.7685L36.9311 20.7127L33.1516 18.8022C32.3002 18.3869 31.4903 17.9093 30.5559 17.7224C28.3131 17.2863 26.1119 18.4492 24.8659 20.2766C24.3883 21.0242 24.0561 21.8341 23.8692 22.7062L23.4331 24.5337L22.727 27.5448L21.8133 31.4488L20.775 35.8927L19.6744 40.6066L18.5946 45.2583L17.5978 49.5153L16.7671 53.0871L16.1649 55.6621C16.0611 56.0774 15.978 56.4927 15.8742 56.8873C15.7288 57.448 15.7081 58.0294 15.8119 58.6109C16.0403 59.753 16.8502 60.6875 17.9508 61.082C18.7192 61.3312 19.4875 61.5181 20.2766 61.7258L24.7413 62.9718L28.4169 64.0101L28.9984 64.1762C29.1022 64.197 29.2891 64.0516 29.3514 64.0101C29.4968 63.8855 29.6006 63.7193 29.6837 63.5532C29.7875 63.3456 29.8913 62.9718 29.6006 62.8887L29.6214 62.8679Z" fill="white"/>
<path d="M122.218 34.9166C123.962 36.2456 126.059 37.0555 128.26 37.2424C130.441 37.4293 132.642 36.9724 134.553 35.9133C136.484 34.8335 137.979 33.0892 139.017 31.1579C140.056 29.2267 140.533 27.0047 140.263 24.8242C139.661 20.1934 135.757 16.6839 131.064 16.5801C126.537 16.414 122.342 18.989 120.452 23.1006C119.663 24.9488 119.331 26.9631 119.518 28.9567C119.601 29.9119 119.788 30.8672 120.099 31.7601C120.369 32.57 120.785 33.3383 121.304 34.0236C121.595 34.3767 121.885 34.6674 122.218 34.9166C122.321 34.9996 122.508 34.9166 122.591 34.8543C122.757 34.7504 122.903 34.5843 123.007 34.4182C123.11 34.2521 123.194 34.0652 123.214 33.8575C123.235 33.7329 123.194 33.5875 123.11 33.5045C122.882 33.3176 122.674 33.1307 122.467 32.9023L122.529 32.9853C122.051 32.4454 121.678 31.864 121.408 31.1994C121.262 30.8464 121.117 30.4934 121.013 30.1404C121.013 30.1196 120.992 30.0988 120.992 30.0781C120.992 30.0988 121.013 30.1819 120.992 30.0988L120.951 29.9742C120.93 29.8704 120.909 29.7873 120.889 29.6835C120.847 29.4966 120.805 29.3097 120.764 29.1228C120.702 28.749 120.639 28.3545 120.619 27.9599C120.598 27.7523 120.598 27.5446 120.577 27.3577C120.577 27.2539 120.577 27.1708 120.577 27.067C120.577 27.0254 120.577 26.9631 120.577 26.9216C120.577 26.8801 120.577 26.8801 120.577 26.8593C120.577 26.9008 120.577 26.9839 120.577 26.8801C120.577 26.4855 120.598 26.091 120.66 25.6964C120.681 25.5095 120.702 25.3226 120.743 25.1357C120.764 25.0527 120.785 24.9488 120.785 24.8658C120.785 24.8242 120.805 24.7827 120.805 24.7204C120.826 24.6166 120.785 24.7827 120.785 24.8035C120.785 24.7619 120.805 24.7412 120.805 24.6996C120.889 24.3466 120.992 23.9936 121.117 23.6406L121.158 23.516C121.221 23.3498 121.096 23.6613 121.138 23.5575C121.179 23.4537 121.221 23.3706 121.262 23.2668C121.345 23.0591 121.449 22.8722 121.553 22.6853C121.574 22.6646 121.574 22.6438 121.595 22.623C121.636 22.54 121.491 22.8099 121.553 22.7061C121.574 22.6646 121.595 22.6023 121.636 22.5607C121.698 22.4569 121.74 22.3738 121.802 22.27C121.865 22.1662 121.906 22.1039 121.968 22L122.051 21.8754L122.093 21.8131C122.176 21.7093 121.989 21.9585 122.051 21.8754C122.176 21.7093 122.301 21.5432 122.446 21.3771C122.508 21.294 122.571 21.2109 122.654 21.1486C122.695 21.1071 122.716 21.0656 122.757 21.024L122.799 20.9617C122.633 21.1486 122.737 21.0448 122.757 21.0033C123.048 20.7125 123.36 20.4218 123.692 20.1519L123.754 20.1103L123.713 20.1519L123.817 20.0896C123.9 20.0273 123.983 19.965 124.066 19.9027C124.232 19.7781 124.419 19.6742 124.585 19.5496C124.751 19.425 124.959 19.342 125.146 19.2381L125.27 19.1758L125.332 19.1343C125.332 19.1343 125.208 19.1966 125.291 19.1551C125.374 19.1135 125.478 19.072 125.582 19.0097C125.955 18.8436 126.35 18.6775 126.745 18.5529C127.139 18.4283 127.534 18.3244 127.928 18.2414L128.074 18.2206C128.115 18.2206 128.24 18.1791 128.136 18.2206C128.24 18.1998 128.344 18.1791 128.447 18.1791C128.697 18.1375 128.925 18.1168 129.153 18.096C130.129 18.0129 131.126 18.096 132.081 18.2829C132.31 18.3244 132.559 18.3867 132.788 18.449L132.684 18.4075C134.303 18.8851 135.778 19.7988 136.92 21.0448L136.837 20.9617C137.398 21.5847 137.896 22.2908 138.27 23.0591C138.457 23.4537 138.623 23.8482 138.768 24.2635C138.81 24.3674 138.83 24.4504 138.872 24.5543L138.872 24.5958C138.851 24.5335 138.872 24.6166 138.872 24.6373C138.893 24.6996 138.893 24.7619 138.914 24.8242C138.955 25.0319 139.017 25.2396 139.038 25.468C139.1 25.8625 139.142 26.2779 139.163 26.6724C139.163 26.7763 139.163 26.8593 139.163 26.9631C139.163 26.9839 139.163 27.0047 139.163 27.0462C139.183 27.0047 139.163 26.9424 139.163 27.0047L139.163 27.1708C139.163 27.3785 139.142 27.5861 139.121 27.7938C139.1 28.0015 139.08 28.2091 139.038 28.396C139.017 28.4998 138.997 28.5829 138.976 28.6867C138.976 28.7075 138.976 28.7283 138.955 28.7698C138.976 28.5829 138.976 28.666 138.976 28.7075L138.934 28.8736C138.83 29.2682 138.727 29.6627 138.581 30.0573C138.519 30.2027 138.644 29.9119 138.581 30.0365L138.519 30.1611C138.477 30.265 138.436 30.348 138.394 30.4519C138.311 30.6388 138.228 30.8256 138.124 31.0125L138.062 31.1579C138.041 31.1787 138.041 31.1994 138.021 31.2202C138.021 31.2202 138.124 31.0125 138.062 31.1164L137.917 31.3863C137.813 31.5525 137.709 31.7394 137.605 31.9055C137.543 31.9885 137.501 32.0716 137.439 32.1547C137.377 32.2377 137.564 31.9678 137.46 32.1131L137.356 32.2585C137.231 32.4246 137.107 32.57 136.982 32.7361C136.92 32.8192 136.858 32.8815 136.775 32.9646L136.692 33.0684C136.671 33.0892 136.608 33.1515 136.692 33.0684C136.775 32.9853 136.712 33.0476 136.692 33.0684C136.546 33.2138 136.422 33.3383 136.276 33.4837C136.131 33.6291 135.985 33.7537 135.84 33.8783L135.736 33.9821C135.653 34.0444 135.882 33.8783 135.757 33.9821C135.674 34.0444 135.591 34.1067 135.508 34.169C135.196 34.3974 134.864 34.6051 134.532 34.7712L134.428 34.8335C134.303 34.8958 134.532 34.792 134.407 34.8335L134.117 34.9789C133.93 35.0619 133.722 35.145 133.535 35.2073C133.141 35.3527 132.725 35.4773 132.31 35.5811C132.102 35.6226 131.895 35.6849 131.687 35.7057C131.625 35.7265 131.77 35.6849 131.687 35.7057L131.604 35.7265L131.458 35.7472L131.126 35.7888C130.69 35.8303 130.275 35.8718 129.839 35.8718C128.987 35.8718 128.136 35.7888 127.305 35.6019C127.098 35.5603 126.89 35.498 126.682 35.4357L126.786 35.4773C125.436 35.0827 124.17 34.4597 123.048 33.5875C122.944 33.5045 122.778 33.5875 122.674 33.6498C122.508 33.7537 122.363 33.9198 122.259 34.0859C122.155 34.2521 122.072 34.439 122.051 34.6466C122.072 34.6881 122.114 34.8335 122.218 34.9166Z" fill="white"/>
<path d="M128.427 33.2762C129.901 34.3976 131.666 35.0829 133.514 35.2283C135.363 35.3944 137.211 34.9998 138.851 34.1069C140.492 33.1932 141.738 31.7188 142.61 30.0783C143.503 28.4377 143.856 26.5688 143.648 24.7206C143.129 20.7958 139.827 17.8678 135.882 17.7847C132.061 17.6393 128.53 19.8198 126.931 23.3085C126.267 24.866 125.997 26.5688 126.142 28.2508C126.267 29.746 126.703 31.345 127.658 32.5287C127.887 32.8194 128.136 33.0686 128.427 33.2762C128.51 33.3385 128.655 33.2762 128.738 33.2139C128.883 33.1101 129.008 32.9855 129.091 32.8402C129.195 32.6533 129.423 32.2172 129.195 32.051C129.008 31.8849 128.821 31.7188 128.634 31.5319L128.697 31.5942C128.302 31.1373 127.991 30.6389 127.762 30.099C127.638 29.8083 127.534 29.5176 127.43 29.2061C127.43 29.1645 127.409 29.1022 127.43 29.1853L127.388 29.0607C127.368 28.9777 127.347 28.8946 127.326 28.8115C127.284 28.6454 127.264 28.5 127.222 28.3339C127.16 28.0016 127.118 27.6694 127.098 27.3579C127.077 27.1918 127.077 27.0256 127.077 26.8595C127.077 26.7764 127.077 26.6934 127.077 26.6311L127.077 26.4442C127.077 26.3819 127.077 26.5688 127.077 26.4442C127.077 26.1119 127.098 25.8004 127.139 25.4682C127.16 25.302 127.181 25.1359 127.201 24.9906C127.222 24.9075 127.222 24.8244 127.243 24.7414C127.243 24.6998 127.264 24.6583 127.264 24.6168C127.264 24.6168 127.243 24.7621 127.243 24.6791C127.243 24.6583 127.243 24.6375 127.264 24.6168C127.326 24.3053 127.409 24.0145 127.513 23.7238C127.534 23.6823 127.534 23.6615 127.554 23.62C127.596 23.5162 127.492 23.7861 127.554 23.6408C127.575 23.5577 127.617 23.4954 127.658 23.4123C127.721 23.2462 127.804 23.0801 127.907 22.9139C127.907 22.8932 127.928 22.8724 127.928 22.8724C127.991 22.7686 127.887 22.9347 127.887 22.9347C127.887 22.9347 127.949 22.8309 127.949 22.8101C127.991 22.727 128.053 22.644 128.094 22.5817C128.136 22.5194 128.177 22.4363 128.24 22.374L128.323 22.2702C128.344 22.2494 128.364 22.2287 128.364 22.2079C128.406 22.1248 128.26 22.3533 128.323 22.2702C128.427 22.1248 128.53 21.9795 128.655 21.8549C128.697 21.7926 128.759 21.7303 128.821 21.668L128.904 21.5641C129.008 21.4603 128.8 21.668 128.904 21.5641C129.153 21.315 129.403 21.0658 129.693 20.8581L129.776 20.7958L130.005 20.6297C130.15 20.5258 130.296 20.422 130.441 20.3389C130.586 20.2559 130.752 20.152 130.898 20.069L131.002 20.0275C131.126 19.9652 130.96 20.0482 131.022 20.0067L131.292 19.8821C131.604 19.7367 131.915 19.6121 132.248 19.5083C132.58 19.4045 132.912 19.3214 133.244 19.2383L133.369 19.2176L133.431 19.2176C133.348 19.2383 133.41 19.2176 133.431 19.2176L133.68 19.176C133.888 19.1553 134.075 19.1345 134.283 19.1137C135.113 19.0514 135.923 19.1137 136.733 19.2799C136.941 19.3214 137.128 19.3629 137.335 19.4252L137.252 19.4045C138.623 19.799 139.869 20.5674 140.845 21.6472L140.782 21.5849C141.26 22.1248 141.655 22.7063 141.987 23.35C142.153 23.6823 142.278 24.0145 142.402 24.3676C142.423 24.4506 142.465 24.5337 142.485 24.6168C142.485 24.6375 142.506 24.6583 142.506 24.6791C142.527 24.7206 142.527 24.7829 142.548 24.8452C142.589 25.0113 142.631 25.1982 142.651 25.3643C142.714 25.7174 142.755 26.0496 142.755 26.4027C142.755 26.4857 142.755 26.5688 142.755 26.6518C142.755 26.6726 142.755 26.6934 142.755 26.7141C142.755 26.7141 142.755 26.6103 142.755 26.6726C142.755 26.7349 142.755 26.7764 142.755 26.818C142.755 26.9841 142.734 27.1502 142.714 27.3164C142.693 27.4825 142.672 27.6694 142.651 27.8355C142.631 27.9186 142.631 28.0016 142.61 28.0847C142.589 28.2301 142.631 28.0016 142.61 28.1055L142.589 28.2301C142.506 28.5623 142.402 28.8946 142.278 29.2268C142.257 29.2891 142.319 29.1438 142.298 29.1438C142.298 29.1645 142.278 29.1853 142.278 29.2061C142.257 29.2476 142.257 29.2684 142.236 29.3099C142.195 29.393 142.174 29.476 142.132 29.5591C142.07 29.7252 141.987 29.8706 141.904 30.016C141.883 30.0575 141.862 30.099 141.842 30.1406C141.821 30.1613 141.821 30.1821 141.821 30.1821C141.821 30.1821 141.904 30.0367 141.862 30.099C141.821 30.1613 141.779 30.2652 141.738 30.3275C141.655 30.4728 141.551 30.6182 141.468 30.7635L141.322 30.9712C141.281 31.0335 141.385 30.8881 141.385 30.8881C141.364 30.9089 141.364 30.9089 141.343 30.9297L141.26 31.0335C141.156 31.1789 141.052 31.3035 140.949 31.4281L140.782 31.615C140.762 31.6357 140.741 31.6772 140.699 31.698C140.616 31.7811 140.741 31.6565 140.741 31.6565L140.699 31.7188C140.575 31.8434 140.471 31.968 140.346 32.0718C140.222 32.1756 140.097 32.3002 139.973 32.4041L139.89 32.4664C139.806 32.5287 139.993 32.4041 139.89 32.4664C139.786 32.5287 139.765 32.5702 139.682 32.6117C139.412 32.7986 139.142 32.9647 138.851 33.1309L138.747 33.1724C138.664 33.2139 138.83 33.1309 138.727 33.1932L138.477 33.297C138.311 33.3593 138.145 33.4424 137.979 33.5047C137.647 33.6293 137.315 33.7331 136.961 33.8162C136.775 33.8577 136.608 33.8992 136.422 33.92L136.38 33.92L136.235 33.9408C136.152 33.9615 136.048 33.9615 135.965 33.9823C135.612 34.0238 135.259 34.0446 134.906 34.0446C134.2 34.0446 133.494 33.9408 132.788 33.7746C132.601 33.7331 132.434 33.6916 132.268 33.6293L132.351 33.65C131.209 33.3178 130.15 32.7779 129.216 32.0718C129.133 32.0095 128.967 32.0718 128.904 32.1133C128.759 32.2172 128.634 32.3418 128.551 32.4871C128.406 32.674 128.177 33.1101 128.427 33.2762Z" fill="white"/>
<path d="M118.521 133.161C118.459 131.625 118.147 130.129 117.587 128.697C117.088 127.368 116.361 126.142 115.489 125.042C114.617 123.962 113.579 123.007 112.437 122.218C111.315 121.449 110.09 120.847 108.803 120.432C107.494 120.016 106.145 119.788 104.753 119.767C104.587 119.767 104.421 119.767 104.255 119.767C103.902 119.788 103.611 120.203 103.486 120.494C103.403 120.702 103.237 121.179 103.59 121.242C105.065 121.449 106.601 121.387 107.993 120.826C109.28 120.286 110.402 119.414 111.253 118.314C112.146 117.109 112.831 115.78 113.309 114.368C113.766 112.997 114.098 111.585 114.306 110.152C114.513 108.823 114.659 107.474 114.783 106.145C114.804 105.999 114.804 105.833 114.825 105.688C114.825 105.584 114.825 105.397 114.721 105.335C114.617 105.293 114.513 105.293 114.43 105.355C114.098 105.542 113.87 105.854 113.766 106.207C113.392 107.744 113.226 109.384 113.579 110.942C113.87 112.229 114.513 113.413 115.406 114.368C116.299 115.302 117.379 116.029 118.563 116.548C119.892 117.109 121.262 117.524 122.695 117.732C124.17 117.96 125.644 118.044 127.118 117.981C127.305 117.981 127.492 117.96 127.679 117.96L128.344 116.486C127.16 116.611 125.997 116.881 124.896 117.296C123.733 117.732 122.633 118.314 121.636 119.061C120.515 119.892 119.539 120.909 118.75 122.072C117.94 123.297 117.358 124.689 117.088 126.122C116.798 127.679 116.798 129.257 117.088 130.815C117.13 131.022 117.171 131.251 117.213 131.458C117.234 131.583 117.296 131.687 117.421 131.687C117.566 131.666 117.711 131.604 117.815 131.479C117.981 131.334 118.106 131.147 118.189 130.96C118.272 130.794 118.314 130.628 118.293 130.441C118.127 129.652 118.002 128.842 117.96 128.032C117.96 127.845 117.94 127.658 117.94 127.471L117.94 127.388C117.94 127.471 117.94 127.347 117.94 127.305C117.94 127.201 117.94 127.118 117.94 127.015C117.96 126.662 117.981 126.308 118.044 125.976C118.064 125.81 118.106 125.644 118.127 125.457L118.147 125.332C118.147 125.332 118.106 125.519 118.127 125.395L118.147 125.353C118.168 125.27 118.189 125.187 118.21 125.104C118.293 124.793 118.376 124.481 118.5 124.17C118.5 124.128 118.521 124.107 118.542 124.066C118.583 123.962 118.459 124.253 118.521 124.107C118.542 124.024 118.583 123.962 118.604 123.879C118.667 123.733 118.729 123.588 118.791 123.443L118.895 123.235C118.916 123.194 118.936 123.173 118.936 123.131C118.936 123.11 118.957 123.11 118.957 123.09C119.02 122.965 118.916 123.173 118.916 123.194C118.999 123.069 119.061 122.924 119.144 122.799C119.227 122.674 119.31 122.55 119.393 122.425C119.435 122.363 119.476 122.301 119.518 122.238C119.559 122.176 119.373 122.446 119.476 122.301L119.559 122.197C119.746 121.948 119.933 121.719 120.141 121.491C120.182 121.428 120.245 121.387 120.286 121.325C120.307 121.304 120.141 121.47 120.203 121.408L120.245 121.366L120.328 121.283C120.432 121.179 120.535 121.075 120.639 120.972C120.847 120.764 121.075 120.577 121.325 120.39L121.366 120.369C121.449 120.307 121.304 120.432 121.304 120.411C121.325 120.39 121.366 120.369 121.387 120.349C121.449 120.307 121.511 120.245 121.574 120.203C121.678 120.12 121.802 120.037 121.927 119.954C122.176 119.788 122.425 119.622 122.674 119.476C122.799 119.414 122.924 119.331 123.069 119.269L123.256 119.165C123.36 119.103 123.152 119.206 123.235 119.165L123.339 119.103C123.588 118.978 123.858 118.853 124.128 118.75C124.647 118.542 125.187 118.355 125.748 118.21C126.018 118.147 126.308 118.064 126.578 118.023L126.786 117.981L126.869 117.96C126.952 117.94 126.828 117.96 126.828 117.96L126.89 117.96C127.015 117.94 127.139 117.919 127.284 117.898C127.43 117.877 127.554 117.857 127.7 117.857C128.053 117.815 128.344 117.441 128.468 117.13C128.53 116.984 128.717 116.362 128.364 116.382C126.475 116.507 124.585 116.382 122.737 116.05C122.238 115.946 121.74 115.842 121.242 115.697L121.345 115.739C119.829 115.302 118.355 114.638 117.13 113.641C116.798 113.371 116.507 113.101 116.237 112.79L116.299 112.873C115.676 112.188 115.199 111.378 114.887 110.505C114.846 110.402 114.825 110.277 114.783 110.173C114.846 110.319 114.783 110.152 114.763 110.111C114.742 110.049 114.721 109.966 114.721 109.903C114.659 109.654 114.617 109.405 114.596 109.156C114.555 108.906 114.534 108.637 114.534 108.367C114.534 108.242 114.534 108.117 114.534 107.993C114.534 108.18 114.534 107.951 114.534 107.91L114.555 107.66C114.576 107.328 114.617 106.996 114.659 106.684C114.679 106.518 114.721 106.352 114.742 106.186C114.742 106.145 114.763 106.103 114.763 106.062C114.721 106.29 114.763 106.082 114.763 106.041C114.783 105.958 114.804 105.854 114.825 105.771L113.766 106.29C113.662 107.577 113.537 108.886 113.35 110.173C113.247 110.858 113.143 111.523 112.997 112.208C112.977 112.312 113.039 112.021 112.997 112.188C112.997 112.229 112.977 112.271 112.977 112.312L112.914 112.561C112.873 112.727 112.831 112.894 112.79 113.06C112.707 113.392 112.624 113.703 112.52 114.036C112.416 114.368 112.312 114.679 112.208 114.991L112.188 115.053C112.146 115.157 112.229 114.929 112.229 114.949C112.229 114.97 112.208 115.012 112.188 115.053L112.084 115.302C112.021 115.448 111.959 115.614 111.897 115.759C111.834 115.905 111.772 116.05 111.689 116.175C111.648 116.237 111.627 116.32 111.585 116.382L111.523 116.486L111.585 116.362L111.544 116.424C111.398 116.694 111.232 116.964 111.066 117.213C111.004 117.317 110.879 117.483 111.045 117.254L110.9 117.441C110.796 117.566 110.713 117.691 110.609 117.794C110.568 117.857 110.505 117.898 110.464 117.96C110.422 118.023 110.422 118.002 110.402 118.044C110.609 117.815 110.485 117.96 110.422 118.002C110.319 118.106 110.215 118.21 110.09 118.314C109.966 118.417 109.862 118.5 109.758 118.604C109.696 118.646 109.924 118.48 109.82 118.542L109.779 118.583L109.696 118.646L109.509 118.77C109.384 118.853 109.259 118.937 109.135 119.02C109.073 119.061 109.01 119.082 108.948 119.123L108.844 119.165C108.782 119.206 108.969 119.103 108.906 119.123L108.844 119.165C108.553 119.31 108.263 119.414 107.972 119.518C107.806 119.559 107.66 119.622 107.494 119.643L107.266 119.684L107.141 119.705L107.183 119.705C107.162 119.705 107.121 119.705 107.1 119.726C106.373 119.829 105.646 119.85 104.899 119.788C104.691 119.767 104.483 119.746 104.276 119.705L103.611 121.179C105.002 121.138 106.373 121.325 107.702 121.74L107.598 121.698C110.09 122.425 112.333 123.817 114.077 125.748L114.015 125.665C114.804 126.537 115.489 127.513 116.029 128.572C116.299 129.112 116.548 129.673 116.756 130.254C116.798 130.379 116.86 130.524 116.901 130.649L116.964 130.877C116.964 130.898 117.005 131.022 116.964 130.898C116.984 130.939 116.984 131.002 117.005 131.043C117.088 131.334 117.151 131.625 117.213 131.936C117.358 132.663 117.441 133.39 117.483 134.117C117.483 134.241 117.566 134.324 117.691 134.345C117.836 134.324 117.981 134.262 118.085 134.137C118.314 133.93 118.5 133.556 118.521 133.161Z" fill="white"/>
<path d="M137.439 111.232C137.252 107.141 134.553 103.611 130.669 102.365C129.652 102.033 128.572 101.888 127.492 101.908C127.139 101.929 126.848 102.344 126.724 102.635C126.641 102.843 126.475 103.32 126.828 103.383C127.866 103.57 128.925 103.466 129.922 103.092C130.856 102.697 131.666 102.074 132.289 101.265C132.954 100.392 133.452 99.4164 133.805 98.3781C134.137 97.4229 134.366 96.4261 134.511 95.4085C134.656 94.4741 134.76 93.5396 134.843 92.6051C134.843 92.5013 134.864 92.3767 134.864 92.2729C134.864 92.169 134.864 91.9821 134.76 91.9198C134.656 91.8783 134.553 91.8783 134.47 91.9406C134.137 92.1275 133.909 92.439 133.826 92.792C133.556 93.8926 133.431 95.0763 133.68 96.1769C133.888 97.0906 134.324 97.9212 134.968 98.6065C136.255 99.9979 138.207 100.642 140.035 100.932C141.177 101.119 142.34 101.161 143.482 101.098L144.147 99.6241C142.423 99.7902 140.803 100.434 139.412 101.451C138.581 102.054 137.875 102.801 137.294 103.653C136.692 104.546 136.276 105.563 136.069 106.622C135.84 107.868 135.861 109.156 136.152 110.381C136.172 110.506 136.235 110.609 136.359 110.609C136.505 110.589 136.65 110.526 136.754 110.402C136.92 110.256 137.045 110.09 137.128 109.883C137.211 109.716 137.252 109.55 137.231 109.363C137.107 108.803 137.045 108.263 137.003 107.681C137.003 107.557 137.003 107.432 137.003 107.308C137.003 107.266 137.003 107.245 137.003 107.224C137.024 107.391 137.003 107.266 137.003 107.224C137.003 107.183 137.003 107.1 137.003 107.038C137.024 106.788 137.045 106.56 137.065 106.311C137.086 106.186 137.107 106.082 137.128 105.958L137.148 105.895C137.169 105.771 137.107 106.062 137.148 105.937C137.169 105.875 137.169 105.812 137.19 105.75C137.252 105.542 137.315 105.314 137.377 105.106C137.439 104.94 137.294 105.293 137.377 105.127C137.398 105.086 137.418 105.023 137.439 104.982C137.481 104.878 137.522 104.774 137.584 104.67C137.605 104.629 137.626 104.587 137.647 104.525C137.668 104.463 137.792 104.276 137.626 104.566C137.688 104.463 137.73 104.38 137.792 104.276C137.854 104.172 137.896 104.11 137.958 104.026L138.041 103.902C138.124 103.798 137.917 104.068 137.979 104.006L138.041 103.923C138.166 103.757 138.291 103.59 138.436 103.445C138.477 103.404 138.623 103.258 138.415 103.466L138.519 103.362C138.602 103.279 138.664 103.217 138.747 103.134C138.893 102.988 139.059 102.864 139.204 102.739C139.287 102.677 139.08 102.843 139.142 102.781L139.204 102.739L139.329 102.656C139.412 102.594 139.495 102.531 139.578 102.469C139.744 102.365 139.91 102.261 140.097 102.158L140.346 102.012L140.471 101.95C140.575 101.908 140.346 102.012 140.429 101.971L140.513 101.929C140.699 101.846 140.866 101.763 141.052 101.68C141.468 101.514 141.883 101.368 142.298 101.265C142.506 101.223 142.714 101.182 142.942 101.119C142.776 101.161 142.963 101.119 143.004 101.119L143.171 101.098C143.274 101.078 143.378 101.078 143.482 101.057C143.835 101.015 144.126 100.642 144.25 100.33C144.354 100.226 144.375 100.039 144.375 99.8525C144.354 99.7487 144.292 99.6033 144.167 99.6241C142.859 99.7071 141.551 99.6448 140.263 99.3956C139.91 99.3333 139.578 99.2503 139.225 99.1464L139.329 99.1672C138.27 98.8765 137.294 98.3989 136.422 97.7343C136.193 97.5475 135.985 97.3606 135.799 97.1321L135.882 97.2152C135.446 96.7376 135.113 96.1977 134.906 95.5954C134.885 95.5124 134.864 95.4501 134.823 95.367C134.781 95.2839 134.823 95.4085 134.843 95.4085C134.843 95.3878 134.843 95.367 134.823 95.3462C134.802 95.3047 134.802 95.2632 134.781 95.2009C134.74 95.0348 134.698 94.8479 134.677 94.6817C134.656 94.5156 134.636 94.3287 134.636 94.1418C134.636 94.0587 134.636 93.9549 134.636 93.8718C134.636 93.8718 134.636 94.0172 134.636 93.9341C134.636 93.9134 134.636 93.8926 134.636 93.8718C134.636 93.8095 134.636 93.768 134.636 93.7057C134.656 93.4773 134.677 93.2489 134.719 93.0204C134.74 92.9166 134.76 92.792 134.781 92.6882C134.781 92.6466 134.781 92.6259 134.802 92.6051C134.802 92.6466 134.76 92.7712 134.802 92.6466C134.823 92.5843 134.823 92.5013 134.843 92.439L133.784 92.9581C133.701 93.8511 133.618 94.744 133.494 95.637C133.431 96.1146 133.348 96.5714 133.244 97.0491C133.224 97.1737 133.286 96.8622 133.265 96.9868L133.244 97.0698L133.203 97.236C133.182 97.3398 133.161 97.4644 133.12 97.5682C133.057 97.7966 132.995 98.0251 132.933 98.2535C132.871 98.4819 132.788 98.6896 132.704 98.918L132.684 99.0011L132.725 98.8557L132.704 98.8973L132.642 99.0426C132.601 99.1464 132.559 99.2503 132.497 99.3749C132.434 99.4995 132.414 99.5618 132.372 99.6448L132.289 99.7902L132.248 99.8525C132.185 99.9563 132.372 99.6241 132.289 99.7694C132.185 99.9563 132.081 100.143 131.957 100.33L131.915 100.392C131.874 100.455 131.791 100.538 131.978 100.289C131.957 100.33 131.915 100.372 131.895 100.413C131.832 100.496 131.77 100.579 131.687 100.662C131.666 100.704 131.625 100.745 131.583 100.766C131.542 100.787 131.458 100.891 131.645 100.704L131.604 100.766C131.542 100.829 131.458 100.912 131.396 100.974C131.334 101.036 131.251 101.098 131.168 101.161C131.085 101.223 131.313 101.036 131.23 101.119L131.168 101.161C131.126 101.202 131.064 101.223 131.022 101.265C130.939 101.327 130.856 101.368 130.773 101.431L130.649 101.514L130.586 101.555C130.503 101.597 130.732 101.493 130.607 101.535C130.399 101.638 130.171 101.721 129.943 101.784C129.818 101.825 129.693 101.846 129.569 101.888L129.486 101.908C129.361 101.929 129.548 101.908 129.465 101.908L129.278 101.929C128.676 101.991 128.094 101.991 127.492 101.888L126.828 103.362C127.783 103.341 128.738 103.445 129.673 103.715L129.569 103.694C130.898 104.089 132.144 104.753 133.182 105.667C133.494 105.937 133.764 106.207 134.033 106.518L133.971 106.435C134.802 107.349 135.446 108.429 135.861 109.592C135.902 109.675 135.923 109.779 135.965 109.862L136.006 110.007C136.006 110.028 136.027 110.049 136.027 110.069C135.985 109.945 136.027 110.069 136.027 110.09C136.089 110.298 136.131 110.506 136.172 110.713C136.276 111.212 136.339 111.71 136.359 112.208C136.359 112.333 136.442 112.416 136.567 112.437C136.712 112.416 136.858 112.354 136.961 112.229C137.252 112.001 137.418 111.627 137.439 111.232Z" fill="white"/>
<path d="M137.169 132.31C137.045 129.569 135.259 127.201 132.642 126.35C131.957 126.122 131.23 126.018 130.482 126.039C130.129 126.039 129.839 126.475 129.714 126.765C129.631 126.973 129.465 127.471 129.818 127.513C130.524 127.638 131.251 127.554 131.915 127.305C132.58 127.015 133.161 126.558 133.597 125.997C134.532 124.813 134.947 123.339 135.196 121.885C135.3 121.2 135.383 120.494 135.446 119.788C135.446 119.684 135.446 119.497 135.342 119.435C135.259 119.393 135.155 119.414 135.072 119.456C134.74 119.643 134.511 119.954 134.428 120.307C134.22 121.075 134.179 121.885 134.324 122.654C134.47 123.277 134.76 123.858 135.196 124.315C136.069 125.249 137.377 125.706 138.602 125.893C139.37 126.018 140.139 126.059 140.907 125.997L141.572 124.523C140.388 124.647 139.287 125.063 138.332 125.769C136.339 127.201 135.404 129.693 135.965 132.081C135.985 132.206 136.048 132.31 136.172 132.31C136.318 132.289 136.463 132.227 136.567 132.102C136.733 131.957 136.858 131.77 136.941 131.583C137.024 131.417 137.065 131.251 137.045 131.064C136.961 130.711 136.92 130.337 136.899 129.963C136.899 129.88 136.899 129.797 136.899 129.735L136.899 129.673C136.899 129.673 136.899 129.797 136.899 129.735L136.899 129.59C136.899 129.423 136.92 129.257 136.941 129.112C136.941 129.05 136.961 128.967 136.982 128.904C136.982 128.884 136.982 128.863 136.982 128.863C137.003 128.78 136.941 129.029 136.961 128.946L136.982 128.842C137.024 128.697 137.065 128.551 137.107 128.406C137.107 128.385 137.128 128.364 137.128 128.344C137.107 128.385 137.086 128.427 137.086 128.468L137.128 128.364C137.148 128.302 137.19 128.24 137.211 128.157C137.231 128.136 137.231 128.094 137.252 128.074C137.273 128.053 137.335 127.908 137.252 128.074C137.169 128.24 137.231 128.094 137.252 128.074C137.273 128.053 137.294 128.011 137.315 127.97C137.335 127.928 137.377 127.866 137.418 127.804L137.481 127.721C137.501 127.7 137.335 127.908 137.398 127.845L137.439 127.804C137.522 127.7 137.605 127.596 137.688 127.492C137.73 127.451 137.834 127.347 137.647 127.534L137.73 127.451L137.896 127.305L138.041 127.181C138.083 127.139 138.166 127.098 138.207 127.056C138.207 127.056 138.062 127.181 138.124 127.118L138.145 127.077L138.228 127.015L138.394 126.89C138.498 126.807 138.623 126.745 138.727 126.682L138.893 126.599L138.976 126.558L138.893 126.599L138.934 126.578C139.059 126.516 139.183 126.475 139.308 126.412C139.578 126.309 139.848 126.205 140.139 126.142C140.284 126.101 140.409 126.08 140.554 126.059L140.492 126.059L140.554 126.059L140.658 126.039L140.866 126.018C141.219 125.976 141.509 125.602 141.634 125.291C141.717 125.125 141.758 124.959 141.738 124.772C141.717 124.668 141.655 124.523 141.53 124.543C140.429 124.626 139.329 124.523 138.249 124.232L138.353 124.253C137.46 124.024 136.629 123.567 135.985 122.903L136.069 122.986C135.882 122.778 135.736 122.571 135.612 122.321C135.549 122.197 135.487 122.072 135.446 121.948C135.425 121.885 135.404 121.823 135.383 121.761C135.446 121.885 135.383 121.781 135.383 121.74L135.363 121.636C135.342 121.491 135.3 121.366 135.3 121.221C135.3 121.138 135.279 121.055 135.279 120.972C135.279 120.93 135.279 120.909 135.279 120.868C135.279 120.702 135.279 120.972 135.279 120.868C135.279 120.702 135.3 120.536 135.321 120.369C135.321 120.286 135.342 120.203 135.363 120.12C135.383 120.037 135.425 119.892 135.363 120.12C135.383 120.079 135.383 120.016 135.404 119.975L134.345 120.494C134.303 121.075 134.241 121.678 134.158 122.259C134.117 122.571 134.054 122.882 133.992 123.194C133.971 123.297 134.033 123.007 133.992 123.152C133.992 123.194 133.971 123.214 133.971 123.256L133.909 123.484C133.867 123.63 133.826 123.796 133.784 123.941C133.743 124.087 133.701 124.232 133.639 124.356L133.618 124.398C133.597 124.481 133.701 124.211 133.66 124.294C133.639 124.336 133.639 124.356 133.618 124.398C133.597 124.46 133.556 124.543 133.535 124.606C133.514 124.668 133.473 124.73 133.452 124.793L133.41 124.876L133.39 124.917L133.452 124.813C133.369 124.938 133.307 125.063 133.224 125.187C133.203 125.229 133.12 125.353 133.224 125.187C133.327 125.021 133.244 125.146 133.224 125.187C133.203 125.229 133.12 125.312 133.078 125.374C133.037 125.436 132.891 125.561 133.078 125.374C133.037 125.416 132.974 125.478 132.933 125.519C132.891 125.561 132.829 125.623 132.788 125.644C132.788 125.644 132.954 125.519 132.871 125.582L132.829 125.602L132.746 125.665L132.58 125.769L132.497 125.81C132.372 125.872 132.601 125.748 132.497 125.81C132.351 125.872 132.206 125.935 132.04 125.976C131.957 125.997 131.874 126.018 131.811 126.039L131.749 126.039C131.666 126.059 131.832 126.018 131.77 126.039L131.645 126.059C131.251 126.101 130.856 126.101 130.462 126.039L129.797 127.513C130.42 127.492 131.064 127.575 131.666 127.741L131.562 127.721C132.725 128.074 133.764 128.697 134.553 129.59L134.47 129.506C134.947 130.026 135.321 130.628 135.591 131.272C135.653 131.438 135.716 131.604 135.778 131.77L135.819 131.915C135.84 131.957 135.84 131.957 135.819 131.895L135.861 131.957C135.882 132.04 135.902 132.123 135.923 132.206C136.006 132.58 136.048 132.954 136.069 133.348C136.069 133.473 136.152 133.556 136.276 133.577C136.422 133.556 136.567 133.494 136.671 133.369C136.982 133.099 137.148 132.725 137.169 132.31Z" fill="white"/>
<path d="M22.4363 137.792C24.2014 139.516 26.278 140.907 28.5415 141.883C30.8258 142.859 33.2347 143.482 35.7058 143.731C38.1978 143.98 40.6897 143.918 43.1609 143.503C45.6528 143.108 48.0825 142.423 50.4083 141.426C52.6925 140.45 54.7899 139.121 56.6589 137.481C58.5901 135.757 60.2722 133.784 61.6427 131.604C63.0548 129.403 64.1554 127.014 64.903 124.502C65.6506 122.01 66.0244 119.393 65.9621 116.798C65.8998 114.139 65.3391 111.502 64.3423 109.031C63.3663 106.581 61.9542 104.296 60.2099 102.303C58.4655 100.309 56.4097 98.6272 54.0839 97.3397C51.5089 95.9276 48.6847 95.0139 45.7774 94.6193C42.9532 94.2248 40.0667 94.3078 37.2633 94.8062C32.3002 95.6992 27.6901 97.9834 23.9522 101.389C22.0002 103.175 20.3389 105.252 19.0514 107.557C17.7847 109.779 16.9125 112.208 16.4349 114.721C15.9988 117.151 15.8742 119.622 16.0819 122.093C16.2688 124.564 16.7464 126.994 17.494 129.34C18.1792 131.521 19.176 133.597 20.4427 135.487C21.045 136.297 21.7095 137.086 22.4363 137.792C22.5194 137.875 22.727 137.771 22.8101 137.73C22.9762 137.626 23.1216 137.46 23.2254 137.294C23.3708 137.045 23.5784 136.629 23.3292 136.38C21.8341 134.926 20.7127 133.12 19.8198 131.251C18.8438 129.153 18.1169 126.931 17.7016 124.668C17.2448 122.321 17.0579 119.933 17.1617 117.566C17.224 116.382 17.3486 115.199 17.5563 114.036C17.577 113.89 17.5978 113.766 17.6393 113.62C17.6601 113.558 17.6601 113.496 17.6808 113.433C17.6601 113.537 17.7016 113.33 17.7224 113.288C17.7847 113.018 17.847 112.727 17.93 112.457C18.0754 111.918 18.2415 111.398 18.4284 110.858L18.5115 110.651L18.553 110.568C18.553 110.568 18.5115 110.692 18.5323 110.609C18.5946 110.464 18.6361 110.339 18.6984 110.215C18.823 109.924 18.9476 109.633 19.0722 109.343C19.2175 109.052 19.3421 108.761 19.4875 108.47L19.6121 108.242C19.6329 108.18 19.7159 108.055 19.6329 108.18C19.7159 108.034 19.799 107.889 19.8821 107.744C20.1936 107.183 20.5258 106.664 20.8996 106.124L21.0242 105.958C21.045 105.937 21.0657 105.895 21.0865 105.875C21.1488 105.771 21.0034 105.978 21.0865 105.875C21.1696 105.771 21.2734 105.605 21.3772 105.48C21.5641 105.231 21.751 104.982 21.9587 104.753C23.4746 102.926 25.2605 101.327 27.254 100.019C29.2684 98.7102 31.4488 97.6719 33.7331 96.9659C36.1627 96.2183 38.6962 95.8238 41.2504 95.7822C44.0954 95.7407 46.9403 96.1768 49.6399 97.0697C52.2357 97.9419 54.6653 99.2917 56.7627 101.057C58.7147 102.677 60.376 104.629 61.705 106.788C63.0756 109.01 64.0309 111.461 64.55 114.036C65.0276 116.465 65.0899 118.957 64.7369 121.408C64.6954 121.719 64.6331 122.031 64.5915 122.342C64.5708 122.487 64.5292 122.633 64.5085 122.778C64.4877 122.84 64.4877 122.924 64.4669 122.986C64.4877 122.882 64.4669 123.007 64.4669 123.007L64.4254 123.152C64.28 123.754 64.1347 124.356 63.9478 124.959C63.8647 125.249 63.7609 125.561 63.6571 125.852C63.6155 125.997 63.5532 126.142 63.5117 126.267C63.4909 126.329 63.4702 126.391 63.4494 126.454C63.4494 126.454 63.4079 126.578 63.4286 126.495C63.4494 126.412 63.3871 126.599 63.3871 126.599C63.1587 127.16 62.9302 127.721 62.6603 128.281C62.5357 128.551 62.3903 128.842 62.245 129.112L62.0373 129.506L62.0581 129.465L61.9958 129.589C61.9542 129.652 61.9127 129.735 61.8712 129.797C61.5597 130.337 61.2482 130.856 60.9159 131.375C60.7498 131.625 60.5629 131.895 60.3968 132.144C60.3552 132.206 60.2722 132.31 60.376 132.185L60.2306 132.372L59.9399 132.746C59.5661 133.224 59.1923 133.68 58.7978 134.137C58.694 134.241 58.6109 134.366 58.5071 134.47L58.3409 134.636L58.2786 134.719C58.1956 134.802 58.3617 134.636 58.2786 134.719C58.071 134.947 57.8633 135.155 57.6349 135.362C57.1988 135.778 56.7627 136.193 56.3058 136.588L55.9736 136.858L55.8282 136.982L55.7452 137.045C55.7452 137.045 55.5998 137.148 55.6621 137.107C55.7244 137.065 55.6206 137.128 55.6206 137.128L55.496 137.211L55.3091 137.356C55.1845 137.46 55.0599 137.543 54.9353 137.626C54.4577 137.958 53.98 138.29 53.4817 138.581C51.4466 139.786 49.2454 140.699 46.9611 141.302C44.5938 141.945 42.1641 142.298 39.7137 142.34C37.2841 142.381 34.8544 142.111 32.5079 141.488C30.2028 140.886 28.0016 139.889 26.0288 138.56C25.0528 137.896 24.1391 137.169 23.3085 136.338C23.2254 136.255 23.0177 136.359 22.9347 136.401C22.7686 136.505 22.6232 136.671 22.5194 136.837C22.3948 137.107 22.1871 137.543 22.4363 137.792Z" fill="white"/>
<path d="M86.5829 30.9711C86.6244 30.8258 86.6867 30.6804 86.7282 30.5558C86.749 30.4935 86.7698 30.4312 86.7905 30.3689C86.7282 30.5558 86.7698 30.4105 86.7905 30.3897L86.8528 30.2443C86.9567 29.9744 87.0813 29.6836 87.2059 29.4137C87.4551 28.853 87.7042 28.3131 87.9742 27.7732L88.1819 27.3994C88.2026 27.3578 88.2234 27.3371 88.2442 27.2955C88.3065 27.1709 88.1819 27.4201 88.2234 27.3371C88.2649 27.254 88.3065 27.1709 88.348 27.1086C88.4934 26.8387 88.6387 26.5895 88.8049 26.3195C89.1163 25.8004 89.4486 25.2812 89.8016 24.7828C89.8847 24.679 89.9678 24.5544 90.0301 24.4506C89.8847 24.6582 90.0508 24.4298 90.0924 24.3675L90.2377 24.1599C90.4246 23.9107 90.5907 23.6822 90.7776 23.4538C91.1514 22.9762 91.546 22.4986 91.9613 22.0625L92.2313 21.7718C92.3351 21.6679 92.1274 21.8964 92.2313 21.7718C92.252 21.751 92.2936 21.7095 92.3143 21.6887L92.4805 21.5226C92.6881 21.3149 92.8958 21.1072 93.1034 20.8996C93.5395 20.4843 93.9964 20.0689 94.4532 19.6744L94.827 19.3629L95.0139 19.2175L95.1178 19.1345L95.1801 19.0929C95.1178 19.1552 95.097 19.1552 95.1593 19.1137C95.4292 18.906 95.6992 18.6984 95.9692 18.5115C96.5091 18.1169 97.0698 17.7431 97.6512 17.4109C97.9419 17.2032 98.1496 16.8917 98.1911 16.5387C98.1911 16.4349 98.2119 16.2895 98.1081 16.2272C98.0042 16.1649 97.8797 16.2272 97.7966 16.2895C95.6161 17.6185 93.6434 19.2383 91.899 21.1072C90.1339 22.997 88.6387 25.1151 87.4343 27.3994C86.749 28.6869 86.1883 29.9951 85.7107 31.3657C85.6484 31.5526 85.6692 31.9472 85.9599 31.8226C86.2506 31.698 86.4998 31.2619 86.5829 30.9711Z" fill="white"/>
<path d="M82.1805 28.0847C82.222 27.6693 82.2843 27.254 82.3466 26.8387C82.3881 26.631 82.4296 26.4234 82.4712 26.2157C82.4712 26.2157 82.4504 26.3403 82.4504 26.2572L82.4712 26.1742L82.5127 26.0288C82.5335 25.925 82.5542 25.8212 82.5958 25.7173C82.6996 25.302 82.8242 24.9074 82.9488 24.5129C82.9696 24.4298 83.0111 24.326 83.0526 24.2429L83.0942 24.0976L83.1149 24.0353C83.1149 24.0145 83.1772 23.8899 83.1357 23.9937C83.0942 24.0976 83.1565 23.9522 83.1565 23.9314C83.1565 23.9107 83.198 23.8276 83.2188 23.7861C83.2603 23.6822 83.3018 23.5784 83.3434 23.4746C83.5095 23.1008 83.6756 22.727 83.8625 22.3532L84.0079 22.0832C84.0494 22.0209 83.9663 22.1663 83.9663 22.1663L84.0079 22.104L84.0909 21.9379C84.1948 21.751 84.2986 21.5849 84.4024 21.398C84.5063 21.2111 84.6309 21.0449 84.7555 20.858L84.9216 20.6089L85.0254 20.4635L85.0669 20.422C85.1085 20.3389 84.9631 20.5673 85.0462 20.4635C85.2954 20.1312 85.5446 19.799 85.8145 19.4875C85.9599 19.3006 86.126 19.1345 86.2714 18.9683L86.3129 18.9268C86.4167 18.823 86.2298 19.0099 86.2921 18.9476L86.4167 18.823L86.6659 18.5738C86.9982 18.2415 87.3512 17.93 87.7042 17.6393C87.8496 17.5147 87.9534 17.3486 88.0365 17.1824C88.1196 17.0371 88.1403 16.8917 88.1403 16.7256C88.078 16.3933 87.7665 16.5595 87.6004 16.7048C86.2091 17.8677 85.0046 19.2383 84.0286 20.775C83.0526 22.3117 82.2843 23.9937 81.8067 25.7589C81.5367 26.7349 81.3498 27.7316 81.246 28.7492C81.246 28.853 81.246 28.9984 81.329 29.0607C81.4329 29.1022 81.5575 29.0814 81.6405 29.0191C81.9105 28.7907 82.1182 28.4584 82.1805 28.0847Z" fill="white"/>
<path d="M76.9059 26.5064C76.9059 26.4233 76.9059 26.3402 76.9059 26.2572C76.9059 26.3818 76.9059 26.2572 76.9059 26.2364C76.9059 26.2156 76.9059 26.1533 76.9059 26.1118C76.9059 25.9457 76.9059 25.7795 76.9474 25.6342C76.9682 25.3227 77.0097 25.0112 77.072 24.7205C77.0928 24.6374 77.0928 24.5543 77.1135 24.4713C77.1135 24.4297 77.1343 24.3051 77.1135 24.4713C77.1135 24.4297 77.1343 24.3882 77.1343 24.3467C77.1758 24.1805 77.2173 24.0352 77.2589 23.8691C77.3419 23.5783 77.4458 23.2668 77.5496 22.9761C77.5911 22.8308 77.4873 23.1215 77.5496 22.9969L77.5911 22.893L77.6742 22.7062C77.7365 22.54 77.8196 22.3947 77.8819 22.2285C77.9442 22.0624 78.0065 21.9586 78.0895 21.834C78.1726 21.7094 78.0065 22.0001 78.0688 21.8547L78.1311 21.7509C78.1726 21.6886 78.2141 21.6056 78.2557 21.5433C78.3387 21.4187 78.401 21.2941 78.4841 21.1695C78.5256 21.1072 78.5671 21.0241 78.6294 20.9618C78.6917 20.8995 78.671 20.8995 78.6917 20.858C78.7125 20.8372 78.7125 20.8164 78.7333 20.7957C78.6502 20.8995 78.6502 20.9203 78.6917 20.858C78.8786 20.6088 79.0655 20.3596 79.2732 20.1312L79.4601 19.9235L79.5224 19.8612C79.377 20.0273 79.5016 19.882 79.5432 19.8404C79.6678 19.7158 79.7923 19.5912 79.9169 19.4666C80.0415 19.342 80.1661 19.2382 80.3115 19.1136C80.3738 19.0513 80.4361 18.989 80.5192 18.9475L80.4569 18.989L80.5192 18.9475L80.6438 18.8437C80.9345 18.636 81.1421 18.3245 81.1837 17.9715C81.1837 17.8676 81.2044 17.7223 81.1006 17.66C80.9968 17.6185 80.8722 17.6392 80.7891 17.7015C78.4218 19.4874 76.7813 22.1039 76.1998 25.0112C76.0544 25.7795 75.9714 26.5687 75.9921 27.3578C75.9921 27.4616 76.0752 27.5447 76.179 27.5654C76.3036 27.5447 76.4282 27.4824 76.5321 27.3993C76.719 27.1709 76.8851 26.8594 76.9059 26.5064Z" fill="white"/>
<path d="M54.2 127.785C50.5044 124.089 46.711 120.536 42.729 117.176C45.5133 113.624 48.5379 110.311 52.1379 107.576C54.5379 105.751 52.1867 101.625 49.7379 103.496C45.9467 106.376 42.2024 109.976 38.8424 113.96C36.1536 111.8 33.3714 109.64 30.5379 107.625C28.0423 105.849 25.689 109.929 28.1379 111.705C30.7779 113.625 33.369 115.593 35.9134 117.656C32.5047 122.264 29.5779 127.207 27.6579 132.105C26.5535 134.936 31.1135 136.185 32.2179 133.353C33.9935 128.842 37.0179 124.858 39.849 120.922C43.6402 124.187 47.289 127.547 50.7934 131.098C53.0003 133.305 56.3115 129.945 54.2003 127.785L54.2 127.785Z" fill="white"/>
</svg>
