<svg width="16" height="17" viewBox="0 0 16 17" fill="none" xmlns="http://www.w3.org/2000/svg">
<path d="M2 3.5C2 2.39543 2.89543 1.5 4 1.5H12C13.1046 1.5 14 2.39543 14 3.5V9.61526C14 10.1788 13.7623 10.7161 13.3453 11.0951L9.07213 14.9799C8.70399 15.3146 8.22432 15.5 7.72679 15.5H4C2.89543 15.5 2 14.6046 2 13.5V3.5Z" fill="#4A57F6" stroke="white"/>
<path d="M8.5 12.5V14.8218C8.5 15.0823 8.80909 15.219 9.0018 15.0438L13.4258 11.022C13.6287 10.8375 13.4982 10.5 13.224 10.5H10.5C9.39543 10.5 8.5 11.3954 8.5 12.5Z" fill="#4A57F6" stroke="white"/>
</svg>
