<svg width="162" height="96" viewBox="0 0 162 96" fill="none" xmlns="http://www.w3.org/2000/svg">
<path d="M160.91 39.299C160.724 38.9677 160.517 38.6365 160.31 38.3053L156.707 32.3017L151.263 23.2135L145.673 13.8769L141.636 7.14874C141.326 6.63119 141.015 6.11364 140.725 5.61679C139.939 4.29186 138.386 3.73291 136.958 4.45748C135.612 5.16134 134.329 6.09293 133.045 6.90031L124.516 12.2414L115.428 17.9552L110.086 21.3089L110.024 21.3503C106.174 19.0731 101.806 18.2657 97.4375 18.4313C97.4375 18.4313 97.4375 18.4313 97.4168 18.4313C97.2098 18.4313 97.0028 18.452 96.7958 18.4727H96.7751C96.5681 18.4934 96.3817 18.4934 96.1747 18.5141C96.154 18.5141 96.1333 18.5141 96.1126 18.5141C95.9263 18.5349 95.74 18.5556 95.533 18.5763C95.5122 18.5763 95.4708 18.5763 95.4501 18.5763C95.2638 18.597 95.0982 18.6177 94.9119 18.6384C94.8705 18.6384 94.8291 18.6384 94.8084 18.6591C94.6428 18.6798 94.4771 18.7005 94.2908 18.7212C94.2494 18.7212 94.1873 18.7419 94.1459 18.7419C93.9803 18.7626 93.8354 18.7833 93.6698 18.8247C93.6077 18.8247 93.5456 18.8454 93.4835 18.8661C93.3385 18.8868 93.1936 18.9075 93.0487 18.9489C92.9866 18.9696 92.9038 18.9696 92.8417 18.9903C92.7175 19.011 92.5726 19.0317 92.4483 19.0731C92.3655 19.0938 92.262 19.1145 92.1792 19.1352C92.055 19.1559 91.9515 19.1766 91.8273 19.1973C91.7031 19.218 91.5996 19.2594 91.4961 19.2801C91.4132 19.3008 91.3097 19.3215 91.2269 19.3422C91.0199 19.3836 90.8129 19.4457 90.6266 19.4871C87.19 20.398 83.8777 21.7023 80.7517 23.3998C79.2198 24.2279 77.7292 25.1181 76.2801 26.1118C74.8102 27.1055 73.4025 28.1406 71.8498 29.0308C69.0551 30.6248 66.2603 32.074 64.0452 34.4547C62.741 35.8831 61.5609 37.4151 60.4844 39.0299C59.3872 40.5618 58.497 42.2387 57.8346 44.019C55.2261 51.3476 59.9048 58.8831 64.8733 63.9965C70.0281 69.2962 76.7562 72.7327 84.0019 74.037C88.0388 74.7408 92.1585 74.9272 96.2368 74.5959C98.2035 74.451 100.17 74.1198 102.137 74.037C103.772 73.9749 105.387 74.0577 107.023 74.0163C109.9 73.9749 112.695 73.1675 115.179 71.7183C117.311 70.4348 119.32 68.9236 121.286 67.3916C123.067 66.0046 124.826 64.5969 126.545 63.127C126.938 62.7958 127.331 62.4852 127.704 62.154C127.807 62.1126 127.911 62.0712 127.994 62.0091C131.472 60.2287 134.95 58.4277 138.407 56.6059C144.038 53.6662 149.627 50.7058 155.196 47.6626C156.459 46.9794 157.722 46.2756 158.985 45.5717C159.005 45.551 159.026 45.551 159.067 45.5303C161.138 44.2675 162.152 41.452 160.91 39.299Z" fill="#4A57F6"/>
<path d="M1.48364 30.5834C0.531352 32.0533 0.966094 34.02 2.43594 34.9723C2.49804 35.0137 2.56015 35.0551 2.62226 35.0758L22.372 45.8822C24.3594 46.9794 26.3468 48.0973 28.0443 49.6086C31.6465 52.8381 33.5304 57.5168 36.3666 61.4294C39.6996 66.0253 44.3368 69.4618 48.8913 72.8569L69.3863 88.0936L73.506 91.3024C77.2116 94.2007 82.5527 93.559 85.451 89.874C85.5959 89.6877 85.7409 89.5014 85.8651 89.2943C90.1504 90.2673 94.4771 87.8245 95.8227 83.6427C98.7624 84.4087 102.033 84.595 104.745 83.2287C107.457 81.8623 109.341 78.5293 108.306 75.6724C110.956 76.3763 113.751 75.4654 115.448 73.3124C117.063 71.2008 117.104 67.1432 114.475 64.7625C111.991 62.5059 103.255 56.5231 98.4933 52.7139C94.9326 49.857 91.2062 47.0208 88.0181 43.7706L82.0145 23.2756C75.6383 19.984 68.434 18.6591 61.2918 19.4664C58.7661 19.7563 56.1577 20.3152 53.6941 19.6321C52.2864 19.2387 51.0029 18.452 49.7608 17.6654C43.8607 13.9804 29.4314 4.83012 23.7383 1.22796C22.4134 0.399883 20.6744 0.772521 19.8463 2.07675C15.9751 8.08033 5.68615 24.0209 1.48364 30.5834Z" fill="#2FC497"/>
<path d="M1.19377 30.3971C0.179373 32.074 0.241479 34.3512 1.98045 35.5312C2.33238 35.7796 2.72572 35.966 3.11906 36.173L8.89492 39.3197L21.6267 46.2756C22.5997 46.8138 23.5727 47.3521 24.525 47.9317C26.7401 49.2566 28.6654 50.9749 30.218 53.0244C31.6671 54.9704 32.8472 57.1027 34.11 59.1729C35.3728 61.2845 36.8634 63.2719 38.5402 65.073C42.1424 68.9236 46.5105 71.9668 50.713 75.0928L64.956 85.6715C67.5852 87.6175 70.1729 89.5842 72.74 91.5716C74.1477 92.6688 75.6796 93.4348 77.46 93.6625C79.7579 93.9316 82.0766 93.2898 83.919 91.8821C84.8092 91.1989 85.5752 90.3916 86.1963 89.46L85.6166 89.9154C90.3367 90.9298 94.829 87.928 96.3196 83.4771L95.5743 84.2638C98.9487 85.1125 102.903 85.2989 105.822 83.0837C108.203 81.2827 109.817 78.0532 108.803 75.1135L108.058 76.2935C111.308 77.1837 114.972 75.4654 116.401 72.4222C117.725 69.6274 117.125 66.1288 114.806 64.0379C112.84 62.2782 110.604 60.767 108.472 59.1936C105.739 57.2062 103.006 55.2395 100.315 53.1693C97.0855 50.6851 93.8353 48.1594 90.8128 45.4061C90.4195 45.0541 90.0468 44.7022 89.6742 44.3503C89.3016 43.9983 88.8047 43.6257 88.5149 43.2117C88.4735 43.1289 88.4321 43.046 88.4114 42.9632C88.2458 42.5078 88.1423 42.0523 87.9973 41.5762L84.4573 29.4655L82.8839 24.1037C82.7597 23.669 82.6562 23.2135 82.5113 22.7995C82.4906 22.7167 82.4492 22.6339 82.4078 22.5717C82.2629 22.4268 81.8695 22.3026 81.6832 22.1991C81.4969 22.0956 81.2692 21.9921 81.0415 21.8886C80.5239 21.6402 80.0064 21.4124 79.4681 21.2054C73.6094 18.804 67.2332 17.9759 60.9398 18.804C58.7868 19.0731 56.551 19.4664 54.398 18.9903C52.5762 18.5763 51.0028 17.4791 49.4502 16.5061C48.3944 15.8436 47.3386 15.1811 46.3035 14.5187C43.6536 12.8418 41.0038 11.1856 38.3539 9.50877C35.6212 7.79051 32.8886 6.05154 30.1766 4.33327L26.6366 2.09745L25.1667 1.16586C24.6699 0.855332 24.1937 0.482695 23.6348 0.275675C22.0407 -0.345385 20.4467 0.482695 19.5565 1.80762C18.9768 2.67711 18.4179 3.588 17.8382 4.47819C16.2648 6.92102 14.6915 9.36386 13.1181 11.786C9.72301 17.0443 6.34858 22.2819 2.95344 27.5402C2.37379 28.5339 1.79413 29.4655 1.19377 30.3971C1.09026 30.5627 0.841838 31.0389 1.09026 31.1838C1.33869 31.3287 1.66992 30.9147 1.77343 30.749C4.79592 26.029 7.81842 21.3296 10.8616 16.6303C13.8634 11.9723 16.8652 7.29366 19.8877 2.63571C20.2603 2.05605 20.6744 1.62131 21.3782 1.45569C22.1442 1.26937 22.8688 1.49709 23.5313 1.91113C24.4628 2.49079 25.3944 3.09115 26.3467 3.69151L33.8409 8.43227C38.7886 11.5583 43.7157 14.6636 48.6635 17.7689C50.1126 18.6798 51.5825 19.6735 53.2387 20.1703C55.2882 20.7914 57.4412 20.5222 59.5321 20.2531C63.6518 19.7149 67.7508 19.6942 71.8498 20.4601C73.8993 20.8535 75.9074 21.4124 77.8741 22.1577C78.8471 22.5303 79.7993 22.9444 80.7516 23.3998C81.0208 23.524 81.4762 23.6276 81.6211 23.876C81.8074 24.1658 81.8488 24.6834 81.9524 25.0146L82.5734 27.1469L86.217 39.5888L87.4384 43.7706C87.5833 44.2882 87.6661 44.371 88.0802 44.785C89.6121 46.317 91.2269 47.7247 92.9037 49.1117C98.2863 53.5627 103.917 57.641 109.527 61.7607C110.604 62.5473 111.68 63.3547 112.736 64.1828C113.689 64.9281 114.641 65.6733 115.241 66.7499C116.007 68.0955 116.276 69.6688 115.986 71.2008C115.697 72.6913 114.744 73.7678 113.419 74.4717C111.929 75.2584 110.211 75.424 108.596 74.9893C108.14 74.865 107.747 75.8587 107.851 76.1693C108.72 78.6535 107.271 81.2413 105.097 82.4627C102.385 83.9946 99.0108 83.6841 96.1125 82.9388C95.7813 82.856 95.4501 83.5185 95.3673 83.7255C94.0837 87.5347 89.9433 89.3979 86.1342 88.5905C85.9064 88.5491 85.658 88.901 85.5545 89.0459C82.9254 92.9379 77.3979 93.3519 73.8165 90.5779C71.8084 89.0252 69.8003 87.4519 67.7508 85.9406L53.9632 75.6724C49.7814 72.5671 45.434 69.5653 41.5627 66.046C39.6788 64.3691 37.9813 62.4852 36.5114 60.4357C35.1658 58.5312 34.0479 56.4609 32.8058 54.4943C31.5636 52.5276 30.2387 50.623 28.5411 49.0496C26.8436 47.4763 24.7527 46.317 22.7239 45.1784C19.1838 43.2324 15.6438 41.3071 12.1037 39.3818L5.43769 35.7382L3.45029 34.6617C2.82923 34.3098 2.22887 33.9786 1.85624 33.3368C1.38009 32.5501 1.23518 31.515 1.73202 30.6869C1.83553 30.5213 2.06326 30.0452 1.83553 29.9003C1.60781 29.7554 1.27658 30.2315 1.19377 30.3971Z" fill="#2FC497"/>
<path d="M110.853 41.2657C110.832 41.2864 110.79 41.2864 110.77 41.3071L110.128 22.6752C110.48 22.3854 110.79 21.723 110.501 21.5366C107.747 19.9012 104.725 18.804 101.557 18.3278C98.3692 17.831 95.0983 17.8931 91.9309 18.4727C88.7841 19.0524 85.7203 20.0875 82.8634 21.5366C79.9444 23.0065 77.191 24.8076 74.6654 26.8778C72.0983 28.9687 69.7383 31.2873 67.5853 33.8129C65.4116 36.3593 63.4863 39.0919 61.8094 41.9902C60.9399 43.5015 60.0912 45.0334 59.4701 46.6689C58.9111 48.1594 58.6213 49.8363 58.9939 51.4097C59.3045 52.7139 60.0497 53.9974 61.2712 54.6392C62.6996 55.4051 64.3765 55.1981 65.8463 54.6599C67.3576 54.1009 68.7653 53.2107 70.1316 52.3205C71.4566 51.4511 72.7194 50.4781 73.9201 49.4637C76.3008 47.4349 78.4331 45.1576 80.317 42.6734C80.6483 42.2594 80.9588 41.8039 81.2693 41.3692C82.6978 42.5492 84.2918 43.4808 86.0308 44.1639C87.8319 44.8471 89.7157 45.3233 91.6203 45.6131C93.6491 45.9443 95.6986 46.1306 97.7481 46.1306C102.323 46.0478 106.774 44.785 110.708 42.4457C110.997 42.2387 111.204 41.9281 111.246 41.5762C111.287 41.2243 111.101 41.1 110.853 41.2657Z" fill="#4A57F6"/>
<path d="M74.3756 86.9964C74.3756 86.3339 74.3135 85.6715 74.1686 85.009C74.0857 84.6985 73.9822 84.388 73.8373 84.0981C73.8373 84.0774 73.8373 84.0774 73.8373 84.0567C73.2991 83.063 72.3054 82.3799 71.1668 82.2556C70.2766 82.1728 69.3657 82.4834 68.6204 82.9595C68.1443 83.2493 67.7302 83.622 67.3576 84.0567C67.399 83.8704 67.4404 83.6841 67.4818 83.4771C67.6681 82.649 67.7509 81.8002 67.7509 80.9721C67.7509 80.5995 67.6888 80.2268 67.606 79.8542C67.606 79.8335 67.606 79.8335 67.606 79.8128C67.4197 79.171 67.0885 78.5707 66.633 78.0945C66.219 77.6391 65.6807 77.3079 65.1011 77.1008C64.0867 76.7903 62.9688 76.8317 61.9751 77.2251C61.6438 77.3493 61.3333 77.4942 61.0228 77.6805C61.2091 77.2872 61.3747 76.8938 61.5196 76.4798C62.0372 74.8236 61.913 72.8983 60.8779 71.4699C60.6294 71.1387 60.3603 70.8281 60.0291 70.5797C60.0291 70.5797 60.0291 70.5797 60.0084 70.559C59.3045 70.0415 58.4557 69.7102 57.5655 69.6067C56.7167 69.5032 55.868 69.5032 55.0399 69.6481C54.1083 69.793 53.2181 70.1243 52.3486 70.5176C52.4728 70.352 52.5763 70.1657 52.7006 70C53.5286 68.5923 53.9427 66.7498 53.2802 65.1972C53.1353 64.866 52.949 64.5761 52.7213 64.307C52.7006 64.2863 52.6799 64.2656 52.6592 64.2449C52.1416 63.6859 51.4791 63.2926 50.7546 63.0856C49.9886 62.8579 49.2019 62.7336 48.4152 62.7336C44.7924 62.6508 41.2109 63.6238 38.1263 65.5491C36.553 66.5221 35.2902 67.9091 34.5035 69.5653C34.1101 70.3727 33.9238 71.2422 33.9238 72.1324C33.9445 72.8776 34.1101 73.6229 34.4 74.3061C34.7105 74.9685 35.1659 75.5689 35.7456 76.0243C36.4288 76.5212 37.2362 76.7903 38.0642 76.811C38.9958 76.8317 39.9067 76.7282 40.7969 76.4798C41.7285 76.2521 42.6187 75.9622 43.5296 75.6517C43.9436 75.5068 44.3576 75.3619 44.7717 75.217C44.6475 75.3412 44.544 75.4654 44.4405 75.5896C43.7987 76.4177 43.1776 77.3079 42.8671 78.3223C42.598 79.2332 42.6394 80.2061 42.9706 81.117C43.2811 81.9244 43.778 82.649 44.4612 83.2286C45.165 83.8083 45.9931 84.2223 46.8833 84.4294C48.7879 84.9262 50.8167 84.595 52.6592 83.9739C53.5907 83.6427 54.5223 83.27 55.4125 82.8146C56.2406 82.4213 57.0273 81.9451 57.7726 81.4276C57.2757 82.2556 56.8617 83.1251 56.5097 84.036C56.0129 85.3817 55.7645 86.8101 56.0129 88.2385C56.2406 89.5221 56.8824 90.7642 57.9796 91.5302C58.994 92.2133 60.2568 92.5031 61.4782 92.2961C62.12 92.1926 62.741 91.9442 63.3 91.5923C63.9004 91.1782 64.4386 90.6814 64.8733 90.081C64.9562 89.9775 65.039 89.8533 65.1011 89.7498C65.1011 89.7705 65.1011 89.7912 65.0804 89.8119C64.894 90.9712 65.0183 92.1719 65.4323 93.2691C65.8049 94.2628 66.5709 95.0909 67.5439 95.5463C68.5376 95.9604 69.6555 95.9811 70.6699 95.5877C71.912 95.1116 72.7815 94.0765 73.3405 92.9172C73.8787 91.7786 74.1271 90.5157 74.2721 89.2736C74.3549 88.4662 74.3963 87.7417 74.3756 86.9964Z" fill="#4A57F6"/>
<path d="M160.93 39.2783C160.91 39.2576 160.889 39.2369 160.868 39.2162L159.957 37.7049L157.473 33.5438L153.995 27.7473L150.062 21.2054L146.211 14.7878L143.023 9.48809L141.036 6.15506L140.663 5.5133C139.98 4.37469 138.593 3.87784 137.351 4.31258C136.771 4.5196 136.233 4.93364 135.715 5.24417L132.921 7.00384L127.517 10.399L127.186 10.606C126.917 10.7716 126.482 11.372 126.669 11.7032L131.099 19.6321L135.55 27.6231C136.937 30.128 138.345 32.6329 139.752 35.1172C141.16 37.6014 142.63 40.065 144.162 42.4871C145.694 44.9092 147.267 47.2486 148.965 49.5465L149.606 50.416C149.71 50.5609 149.855 50.4988 149.979 50.4367C152.236 49.236 154.492 47.9938 156.749 46.7517C157.266 46.4619 157.784 46.1721 158.301 45.8822C158.798 45.6338 159.274 45.344 159.709 44.992C160.516 44.3089 161.096 43.398 161.344 42.3629C161.614 41.3485 161.469 40.2306 160.93 39.2783Z" fill="#F3A446"/>
<path d="M16.8857 35.3242L16.9064 35.2828C16.9271 35.2621 16.9686 35.1793 16.8857 35.3242Z" fill="#0E1E36"/>
<path d="M17.6308 34.1649C17.6515 34.1442 17.6515 34.1235 17.6722 34.1028C17.5894 34.2063 17.6101 34.2063 17.6308 34.1649Z" fill="#0E1E36"/>
<path d="M33.7163 11.3927L33.737 11.372C33.7784 11.3099 33.737 11.3513 33.7163 11.3927Z" fill="#0E1E36"/>
<path d="M42.5563 11.9102L40.4446 10.606L37.1116 8.5358L36.3456 8.05966C36.2421 8.01825 36.1179 8.03896 36.0351 8.10106C35.8902 8.20457 35.766 8.32878 35.6832 8.4737C35.3105 9.05335 34.9379 9.61231 34.5653 10.1713C34.3376 10.4818 34.1305 10.813 33.9028 11.1236L33.7372 11.3513C33.6958 11.4134 33.6958 11.3927 33.7165 11.372L33.6337 11.4755C33.5095 11.6411 33.406 11.8067 33.2817 11.9516C32.847 12.552 32.3916 13.1317 31.9361 13.7113C31.7291 13.9597 31.5428 14.2082 31.3151 14.4359C31.1701 14.6015 31.0045 14.7464 30.8803 14.912C31.0045 14.7671 30.8803 14.912 30.8596 14.9327L30.7561 15.0569C30.6733 15.1397 30.5905 15.2226 30.5077 15.3054C30.4249 15.3882 30.3214 15.471 30.2386 15.5538L30.0936 15.678C30.0729 15.6987 30.0522 15.6987 30.0315 15.7194C29.8452 15.8643 29.6382 15.9885 29.4519 16.1127L29.3898 16.1541C29.3898 16.1541 29.3484 16.1748 29.3277 16.1956H29.307L29.2035 16.237C29.0999 16.2784 28.9964 16.3198 28.8722 16.3612C28.7687 16.4026 28.6445 16.444 28.541 16.4647L28.3754 16.5061L28.2512 16.5268C28.2305 16.5268 28.2098 16.5475 28.1891 16.5475C28.0441 16.4854 27.8992 16.4233 27.7336 16.3819C27.5059 16.3198 27.2575 16.3198 27.0297 16.3612C26.4087 16.4854 25.8497 16.8373 25.4771 17.3549C25.1459 17.7896 24.856 18.2451 24.5248 18.6798C23.469 20.1703 22.4132 21.6816 21.4195 23.2342C20.3844 24.8283 19.3907 26.4431 18.3763 28.0578C18.19 28.3683 17.983 28.6789 17.7759 29.0101C17.7759 29.0308 17.7552 29.0308 17.7552 29.0515C17.3826 29.6105 17.2584 30.335 17.424 30.9768C17.5275 31.3287 17.7552 31.5979 18.0244 31.8256C18.0658 31.9912 18.0865 32.1568 18.1072 32.3224C18.1072 32.3845 18.1072 32.4466 18.1072 32.5087C18.1072 32.5294 18.1072 32.5294 18.1072 32.5501C18.1072 32.5708 18.1072 32.5915 18.1072 32.5915C18.1072 32.6537 18.1072 32.7158 18.0865 32.7779C18.0658 32.84 18.0658 32.9228 18.0451 33.0056C18.0451 33.047 18.0244 33.0884 18.0244 33.1091C18.0037 33.1919 17.983 33.2747 17.9623 33.3575C17.9623 33.3989 17.9416 33.4403 17.9209 33.461C17.9002 33.5024 17.8173 33.6888 17.9002 33.5231C17.838 33.6681 17.7759 33.813 17.7138 33.9579L17.6517 34.0821C17.6517 34.1028 17.631 34.1235 17.6103 34.1442C17.5689 34.2063 17.5482 34.2684 17.5068 34.3305C17.3205 34.6203 17.1342 34.9102 16.9272 35.2C16.9065 35.2414 16.8651 35.2828 16.8444 35.3242L16.6994 35.5312L16.3682 36.0074L15.685 36.939L14.3394 38.8022L12.8282 40.8724C12.7039 41.038 12.6004 41.2243 12.5383 41.452C12.5176 41.5555 12.4762 41.7625 12.6211 41.8246L14.7949 42.9633L18.2728 44.785L19.0802 45.1991C19.3493 45.344 19.6391 44.93 19.7426 44.7643C20.1153 44.2054 20.4879 43.6464 20.8812 43.0875C20.9019 43.0461 20.9641 42.984 20.9848 42.9633C21.0262 42.9219 21.0883 42.8183 21.1504 42.7562C21.2539 42.6113 21.3574 42.4664 21.4609 42.3215C21.6679 42.0524 21.8749 41.7625 22.1027 41.4934C22.5374 40.9552 22.9721 40.4169 23.4276 39.8994C23.5311 39.7751 23.6346 39.6716 23.7381 39.5474L23.8002 39.4853C23.8623 39.4232 23.9244 39.3404 24.0072 39.2783C24.1315 39.1541 24.235 39.0506 24.3592 38.9471L24.5248 38.8022L24.6076 38.7193C24.6697 38.6779 24.649 38.6779 24.5869 38.7193L24.649 38.6779C24.7939 38.5744 24.9388 38.4709 25.0838 38.3881C25.1666 38.3467 25.2287 38.3053 25.3115 38.2639C25.3322 38.2639 25.3529 38.2432 25.3736 38.2432L25.4771 38.2018C25.6427 38.119 25.8083 38.0569 25.9739 38.0155C26.1189 37.9741 26.2638 37.9327 26.4087 37.912C26.4501 37.912 26.4915 37.912 26.5329 37.912C26.7606 38.0362 26.9883 38.1397 27.2368 38.2225C27.4645 38.2846 27.7129 38.3053 27.9406 38.2846C28.541 38.2018 29.0792 37.912 29.4726 37.4772C29.8038 37.0839 30.1143 36.6491 30.3628 36.1937C30.9217 35.3656 31.46 34.5375 31.9982 33.6888C32.4744 32.9435 32.9712 32.1982 33.4267 31.4529C33.7993 30.8526 34.1512 30.2315 34.5239 29.6312C34.6688 29.4034 34.8137 29.155 34.9379 28.9273C35.1035 29.0101 35.2898 29.0515 35.4762 28.9894C36.0765 28.8652 36.4699 28.2648 36.739 27.768L37.1323 27.0434C37.3393 26.7122 37.505 26.3395 37.5878 25.9669C37.6706 25.6564 37.5464 25.3458 37.3186 25.1388C37.2772 25.1181 37.2358 25.0767 37.1944 25.056C37.1944 25.0353 37.2151 25.0353 37.2151 25.0146C37.36 24.6834 37.4222 24.3314 37.4222 23.9795C37.4015 23.462 37.1737 22.9651 36.7597 22.6132C36.7183 22.5718 36.6769 22.5511 36.6355 22.5097C36.5941 22.344 36.5734 22.1784 36.5734 22.0128C36.5734 21.9921 36.5734 21.9714 36.5734 21.93C36.5734 21.9093 36.5734 21.8886 36.5734 21.8886V21.7851C36.5734 21.6816 36.5941 21.5781 36.6148 21.4746C36.6148 21.4125 36.6355 21.3711 36.6355 21.3089C36.6355 21.2468 36.6355 21.3504 36.6355 21.3504L36.6562 21.2882C36.6769 21.1847 36.7183 21.0812 36.739 20.9777C36.7597 20.9363 36.7597 20.8949 36.7804 20.8742C36.7804 20.8535 36.8011 20.8328 36.8011 20.8328C36.8425 20.7293 36.8839 20.6258 36.9253 20.5223C36.946 20.4809 36.9667 20.4188 36.9874 20.3774C37.0081 20.336 37.1116 20.191 36.9874 20.3567C37.0495 20.2531 37.0909 20.1703 37.153 20.0668C37.2565 19.8805 37.3808 19.7149 37.505 19.5286L37.6706 19.2801L37.7534 19.1766C37.7741 19.1559 37.7741 19.1352 37.7948 19.1352L38.1053 18.7005C39.0162 17.4377 39.9064 16.1748 40.8173 14.912C41.2934 14.2289 41.7903 13.5664 42.2664 12.8832C42.3906 12.7176 42.4941 12.5313 42.5563 12.3243C42.6598 12.1794 42.6805 11.993 42.5563 11.9102Z" fill="#0E1E36"/>
<path d="M64.5836 39.0505C64.9976 39.0298 65.4324 39.0713 65.8257 39.1955L65.7429 39.1748C66.4882 39.4025 67.1506 39.8165 67.6889 40.3962L67.6268 40.3341C67.9373 40.6653 68.1857 41.0586 68.3721 41.4727C68.4135 41.5762 68.4549 41.659 68.4756 41.7625C68.4756 41.7832 68.4963 41.8246 68.4963 41.8453C68.4963 41.866 68.517 41.9488 68.4963 41.866C68.517 41.9281 68.5377 41.9902 68.5377 42.0316C68.5791 42.2594 68.6205 42.4871 68.6205 42.7355V42.839C68.6205 42.8183 68.6205 42.7355 68.6205 42.839C68.6205 42.9011 68.6205 42.9632 68.6205 43.0253C68.6205 43.1702 68.5998 43.2945 68.5791 43.4394C68.5791 43.4601 68.5791 43.5015 68.5584 43.5222C68.5377 43.5429 68.517 43.6671 68.5584 43.5636C68.5998 43.4601 68.5584 43.605 68.5377 43.605C68.517 43.605 68.517 43.6671 68.517 43.6878C68.4756 43.8327 68.4342 43.9569 68.3927 44.1018C68.372 44.1639 68.3513 44.2054 68.3306 44.2675C68.3928 44.0811 68.3306 44.2882 68.3099 44.3296C68.2478 44.4538 68.2064 44.578 68.1443 44.7229C68.0822 44.8471 68.0201 44.9506 67.958 45.0748C68.0408 44.8678 67.958 45.0748 67.9373 45.1162L67.8131 45.3233C67.5233 45.7994 67.2127 46.2548 66.9022 46.7103C66.8194 46.8138 66.7573 46.9173 66.6745 47.0208L66.571 47.1657L66.5089 47.2485C66.4675 47.3107 66.6124 47.0829 66.5089 47.2278C66.364 47.4349 66.1983 47.6626 66.0327 47.8696C65.8671 48.0766 65.7015 48.2836 65.5359 48.4907L65.4117 48.6356L65.3496 48.6977C65.3496 48.7184 65.246 48.8219 65.3289 48.7184C65.4117 48.6149 65.3081 48.7391 65.3081 48.7391L65.246 48.8012L65.1011 48.9461C65.0183 49.0289 64.9148 49.1117 64.832 49.1945L64.6871 49.3187C64.6664 49.3394 64.625 49.3601 64.6043 49.3808L64.6664 49.3394L64.6043 49.3808C64.3973 49.5258 64.1902 49.6707 63.9832 49.7949L63.9004 49.8363C63.8797 49.8363 63.7762 49.8984 63.8383 49.8777C63.9004 49.857 63.7969 49.8984 63.7969 49.8984L63.6934 49.9398C63.5692 49.9812 63.445 50.0433 63.3415 50.0847C63.2379 50.1261 63.093 50.1675 62.9481 50.1882L62.7411 50.2296C62.7204 50.2296 62.6583 50.2503 62.7411 50.2296L62.6376 50.2503C62.12 50.3331 61.5818 50.2917 61.0849 50.1468L61.1677 50.1675C60.7744 50.0433 60.4225 49.857 60.0912 49.5879C60.0084 49.5258 59.8428 49.5879 59.7807 49.65C59.6358 49.7535 59.5116 49.8777 59.4288 50.0226C59.3046 50.2296 59.1182 50.623 59.3253 50.8093C60.3811 51.7202 61.9337 51.6995 63.1758 51.2233C64.6457 50.6437 65.7636 49.4223 66.6745 48.1801C67.6682 46.8345 68.7033 45.4268 69.2829 43.8327C69.5728 43.0667 69.697 42.2387 69.6142 41.4313C69.5314 40.7688 69.3036 40.1478 68.931 39.6095C68.2064 38.5123 67.0057 37.7877 65.6808 37.6842C65.5152 37.6635 65.3703 37.6635 65.2046 37.6842C64.8941 37.7049 64.6457 38.0568 64.5215 38.3053C64.4387 38.5123 64.273 39.0505 64.5836 39.0505Z" fill="white"/>
<path d="M45.2061 63.5411C43.6742 64.6176 42.7219 66.3358 42.5977 68.199C42.5563 69.0271 42.7012 69.8552 43.0531 70.6212C43.4051 71.3457 43.9019 71.9668 44.523 72.4636C45.2268 73.0226 46.0549 73.3745 46.9451 73.4987C47.0693 73.5194 47.2142 73.3952 47.297 73.3331C47.442 73.2089 47.5455 73.0433 47.6283 72.8777C47.7111 72.7121 47.856 72.2773 47.5455 72.2359C47.3178 72.2152 47.1107 72.1531 46.883 72.091L46.9658 72.1117C46.0756 71.8426 45.289 71.3457 44.6679 70.6626L44.73 70.7247C44.3988 70.352 44.1089 69.9173 43.9019 69.4618C43.8605 69.3583 43.7984 69.2341 43.757 69.1099C43.7363 69.0478 43.7156 68.9857 43.6949 68.9443C43.6949 68.9236 43.6742 68.9029 43.6742 68.8822C43.6949 68.965 43.6535 68.8201 43.6535 68.7994C43.5914 68.551 43.55 68.3025 43.5293 68.0541C43.5086 67.9299 43.5086 67.8057 43.5086 67.6815C43.5086 67.785 43.5086 67.7229 43.5086 67.7022C43.5086 67.6815 43.5086 67.6194 43.5086 67.5987C43.5086 67.578 43.5086 67.4537 43.5293 67.3916C43.5293 67.2674 43.55 67.1432 43.5707 67.0397C43.5707 66.9776 43.5914 66.9155 43.6121 66.8534C43.5914 67.019 43.6121 66.8948 43.6121 66.8534L43.6328 66.7499C43.6742 66.6257 43.6949 66.5015 43.7363 66.3979C43.757 66.3358 43.8398 66.1495 43.757 66.3565C43.7777 66.2944 43.7984 66.2323 43.8191 66.1909C43.8605 66.0667 43.9226 65.9632 43.9847 65.8597C44.0468 65.7562 43.9019 66.0046 43.964 65.9218L44.0054 65.839C44.0468 65.7769 44.0882 65.7148 44.1296 65.6527L44.171 65.5906C44.1917 65.5699 44.2746 65.425 44.1917 65.5492C44.1089 65.6734 44.1917 65.5492 44.1917 65.5285L44.2539 65.4457C44.2953 65.3835 44.3574 65.3214 44.3988 65.28L44.4402 65.2179C44.5644 65.073 44.3574 65.3007 44.4402 65.2179C44.523 65.1351 44.6472 65.0316 44.7507 64.9281L44.8128 64.866C44.8542 64.8453 44.9577 64.7625 44.8128 64.866C44.8749 64.8246 44.937 64.7832 44.9991 64.7211C45.289 64.5141 45.496 64.2035 45.5374 63.8516C45.5374 63.7481 45.5374 63.6032 45.4339 63.5411C45.3304 63.4997 45.2061 63.5204 45.1233 63.5825H45.2061V63.5411Z" fill="white"/>
<path d="M51.2304 71.884C49.802 73.478 49.2844 75.6931 49.8641 77.7633C50.1332 78.6535 50.6508 79.4609 51.3546 80.082C52.0585 80.6823 52.9073 81.0964 53.8182 81.2827C54.8326 81.5104 55.8884 81.4276 56.8821 81.055C57.1926 80.8893 57.4203 80.6202 57.5031 80.2683C57.5445 80.082 57.5652 79.6679 57.2547 79.7921C57.0063 79.8956 56.7372 79.9784 56.468 80.0199L56.3645 80.0406H56.3231L56.1161 80.0613C55.9712 80.082 55.847 80.082 55.7021 80.082C55.1431 80.1027 54.5842 80.0199 54.0666 79.8749L54.1494 79.8956C53.2178 79.6265 52.369 79.109 51.7273 78.4051L51.7894 78.4672C51.4788 78.1153 51.2097 77.7219 51.0027 77.2872C50.8992 77.0802 50.8164 76.8524 50.7543 76.6247C50.7336 76.5626 50.775 76.7282 50.7543 76.604L50.7336 76.5419C50.7129 76.4798 50.7129 76.4384 50.6922 76.3763C50.6715 76.2521 50.6508 76.1279 50.6301 76.0037C50.5887 75.7759 50.568 75.5275 50.568 75.2998V75.1963C50.568 75.1135 50.568 75.1963 50.568 75.217C50.568 75.1549 50.568 75.0928 50.568 75.0307C50.568 74.9065 50.5887 74.7822 50.6094 74.658C50.6301 74.5338 50.6508 74.4303 50.6508 74.3268C50.6508 74.3061 50.6508 74.2854 50.6715 74.2647C50.6922 74.1405 50.6508 74.3682 50.6715 74.2854C50.6922 74.2026 50.7129 74.1612 50.7129 74.0784C50.7336 73.9749 50.775 73.8714 50.8164 73.7679L50.8785 73.6022C50.8992 73.5194 50.8164 73.7679 50.8578 73.6436C50.8785 73.6022 50.8785 73.5815 50.8992 73.5401C50.9406 73.4159 51.0027 73.2917 51.0648 73.1882C51.0855 73.1468 51.1476 73.0433 51.0234 73.2503L51.0855 73.1468C51.1269 73.0847 51.1476 73.0433 51.189 72.9812L51.2925 72.8156C51.3339 72.7742 51.396 72.6913 51.2511 72.857C51.2718 72.8363 51.2925 72.7949 51.3132 72.7742C51.396 72.6706 51.4788 72.5671 51.5824 72.4636C51.7066 72.3187 51.7894 72.1531 51.8515 71.9668C51.8929 71.8426 51.8929 71.6977 51.8515 71.5734C51.7066 71.3871 51.3339 71.7598 51.2304 71.884Z" fill="white"/>
<path d="M66.0944 87.928C66.26 89.1909 67.0467 90.3088 68.1853 90.9091C69.3653 91.5095 70.7316 91.3853 71.8703 90.7435C72.5948 90.3295 73.1952 89.7291 73.6092 89.0045C73.7127 88.8596 73.7748 88.694 73.7955 88.5077C73.7955 88.4042 73.7955 88.2593 73.7127 88.1972C73.4643 88.0522 73.1331 88.4663 73.0503 88.6319C73.0089 88.7147 72.9468 88.7975 72.8847 88.8803C72.8226 88.9631 73.0089 88.7147 72.8847 88.8803L72.7811 89.0045C72.7397 89.046 72.719 89.0667 72.6776 89.1081C72.8018 88.9424 72.719 89.0667 72.6776 89.1081C72.6362 89.1495 72.5534 89.2323 72.4913 89.2737L72.4292 89.3151C72.3878 89.3565 72.3878 89.3565 72.4706 89.2944C72.4292 89.3151 72.3878 89.3565 72.3464 89.3772C72.2636 89.4393 72.1808 89.4807 72.098 89.5428L71.9738 89.6256C71.9531 89.6463 71.8082 89.7291 71.9324 89.6463C71.8496 89.6877 71.7668 89.7291 71.6839 89.7498C71.4976 89.8119 71.332 89.874 71.125 89.9154L70.9801 89.9568C70.9387 89.9568 70.9387 89.9568 70.9801 89.9568H70.918C70.8352 89.9775 70.7317 89.9775 70.6488 89.9775C70.2555 89.9982 69.8622 89.9568 69.4895 89.8533L69.5723 89.874C68.9306 89.667 68.3302 89.2944 67.8748 88.7975L67.9369 88.8596C67.5642 88.4663 67.2951 87.9901 67.1502 87.4519C67.1709 87.5554 67.1295 87.3898 67.1295 87.3898L67.1088 87.2863C67.0881 87.1828 67.0674 87.1 67.0674 86.9964C67.026 86.6859 66.6948 86.8308 66.5291 86.9757C66.3014 87.2242 66.053 87.5968 66.0944 87.928Z" fill="white"/>
<path d="M58.0207 81.8209C57.8551 83.3322 58.3933 84.8227 59.4905 85.8578C60.5877 86.8929 62.1197 87.2242 63.5688 86.8929C64.4383 86.7066 65.225 86.2719 65.8667 85.6715C66.0117 85.5473 66.1152 85.3817 66.198 85.2161C66.2808 85.0711 66.3015 84.9262 66.3015 84.7606C66.2394 84.4501 65.9288 84.5743 65.7632 84.7399C65.6804 84.802 65.6183 84.8848 65.5355 84.9469C65.4527 85.009 65.639 84.8641 65.5355 84.9469C65.4941 84.9676 65.4527 85.009 65.4113 85.0297C65.2664 85.1332 65.1215 85.2161 64.9559 85.2989H64.9766L64.9144 85.3403L64.7695 85.4024C64.6867 85.4438 64.6039 85.4645 64.5211 85.5059C64.3555 85.568 64.1692 85.6094 63.9829 85.6508L63.8586 85.6715C63.8172 85.6715 63.8172 85.6715 63.8586 85.6715L63.7758 85.6922C63.693 85.7129 63.6102 85.7129 63.5067 85.7336C63.3204 85.7543 63.1341 85.7543 62.9478 85.7543C62.5751 85.7336 62.2025 85.6922 61.8506 85.5887L61.9334 85.6094C61.1881 85.3817 60.5256 84.9676 60.0081 84.4087L60.0702 84.4708C59.6561 84.0153 59.3456 83.4771 59.1386 82.8767C59.1179 82.8353 59.1179 82.8146 59.0972 82.7732C59.0765 82.7318 59.0972 82.7318 59.0765 82.7111C59.0765 82.7525 59.0972 82.7525 59.0765 82.7318C59.0558 82.649 59.0351 82.5662 59.0144 82.4834C58.973 82.3385 58.9523 82.1936 58.9316 82.0487C58.9109 81.9037 58.9109 81.7588 58.9109 81.5932C58.9109 81.469 58.9109 81.676 58.9109 81.5725V81.469C58.9109 81.3862 58.9316 81.3034 58.9316 81.1999C58.9316 81.0964 58.9316 80.9514 58.8488 80.8893C58.7452 80.8479 58.621 80.8686 58.5382 80.9307C58.2691 81.1792 58.0828 81.4897 58.0207 81.8209Z" fill="white"/>
<path d="M108.161 74.6373C105.739 73.4366 103.337 72.1945 100.977 70.911C98.6588 69.6274 96.3609 68.3232 94.1044 66.9362C92.8208 66.1495 91.5373 65.3628 90.2538 64.5555C90.1503 64.4933 90.0261 64.5554 89.9433 64.5969C89.7983 64.7004 89.6741 64.8246 89.5913 64.9695C89.4878 65.1144 89.4257 65.28 89.405 65.4663C89.405 65.5698 89.3843 65.7148 89.4878 65.7769C91.7443 67.2053 94.0423 68.5716 96.3402 69.9173C98.6588 71.2629 100.977 72.5464 103.317 73.7679C104.662 74.4717 106.029 75.1756 107.416 75.8381C107.685 75.9623 107.975 75.5896 108.078 75.4033C108.182 75.2584 108.244 75.0928 108.265 74.9065C108.244 74.8444 108.265 74.6787 108.161 74.6373Z" fill="#0E1E36"/>
<path d="M95.5328 82.4213C93.6903 81.4276 91.8893 80.3925 90.1296 79.2539C88.432 78.1567 86.7966 76.9766 85.2232 75.7138C84.2709 74.9685 83.36 74.2026 82.4492 73.4159C82.3663 73.3538 82.2007 73.4366 82.1386 73.478C81.9937 73.5815 81.8695 73.7057 81.7867 73.8506C81.6625 74.0577 81.4762 74.451 81.6832 74.6373C83.2565 76.0036 84.892 77.3286 86.5689 78.55C88.2043 79.7507 89.8812 80.8479 91.6201 81.883C92.6552 82.5041 93.711 83.0837 94.7668 83.6427C95.0153 83.7876 95.3258 83.3943 95.4293 83.2079C95.5328 83.063 95.5949 82.8974 95.6156 82.7318C95.6363 82.6283 95.6363 82.4834 95.5328 82.4213Z" fill="#0E1E36"/>
<path d="M85.7203 88.1351C84.209 87.2863 82.7185 86.3961 81.2693 85.4438C79.8823 84.5329 78.5159 83.5599 77.2117 82.5248C76.4457 81.9037 75.6798 81.262 74.9345 80.5788C74.8517 80.5167 74.6861 80.5995 74.624 80.6202C74.4791 80.7237 74.3548 80.8479 74.272 80.9929C74.1478 81.1999 73.9615 81.5932 74.1685 81.7795C75.4521 82.9388 76.777 84.0361 78.1847 85.0505C79.5303 86.0442 80.9381 86.955 82.3458 87.8038C83.1946 88.3214 84.0641 88.8182 84.9336 89.3151C85.182 89.46 85.4925 89.0667 85.596 88.8803C85.6996 88.7354 85.7617 88.5698 85.7824 88.4042C85.8031 88.3421 85.8238 88.1972 85.7203 88.1351Z" fill="#0E1E36"/>
<path d="M149.689 37.7256L152.67 42.7976L153.519 44.2468C153.767 44.6815 154.658 43.5636 154.409 43.1496L151.428 38.0776L150.579 36.6284C150.31 36.2144 149.441 37.3323 149.689 37.7256Z" fill="#0E1E36"/>
<path d="M152.981 38.7814C153.809 39.299 154.058 40.3755 153.54 41.2036C153.023 42.0317 151.946 42.2801 151.118 41.7625C150.29 41.245 150.041 40.1685 150.559 39.3404C151.035 38.5537 152.05 38.2846 152.857 38.6986" fill="#0E1E36"/>
<path d="M152.588 39.3818C152.712 39.4646 152.816 39.5681 152.919 39.6716L152.857 39.6095C152.981 39.7544 153.064 39.8993 153.147 40.065C153.167 40.1064 153.188 40.1478 153.188 40.1892C153.188 40.2306 153.23 40.3548 153.209 40.2513C153.23 40.3341 153.25 40.3962 153.25 40.479C153.25 40.5204 153.25 40.5618 153.271 40.6239C153.292 40.686 153.271 40.6653 153.271 40.686C153.271 40.7481 153.271 40.7274 153.271 40.6446C153.312 40.686 153.23 40.8516 153.25 40.9137C153.271 40.8102 153.271 40.7895 153.25 40.8516V40.893C153.23 40.9344 153.23 40.9758 153.209 41.0173C153.25 40.8102 153.23 40.9551 153.209 41.0173C153.167 41.1208 153.312 40.8309 153.209 40.9965C153.105 41.1622 153.312 40.893 153.23 40.9759C153.209 40.9966 153.209 41.0173 153.188 41.0173C153.147 41.0587 153.167 41.0587 153.23 40.9551C153.209 40.9759 153.167 41.0173 153.147 41.038C153.043 41.1415 153.25 40.9758 153.147 41.038C153.105 41.0794 152.981 41.1829 152.919 41.1829C152.981 41.1415 153.002 41.1415 152.94 41.1622L152.878 41.1829C152.836 41.2036 152.795 41.2243 152.753 41.2243C152.671 41.245 152.609 41.2657 152.526 41.2864C152.629 41.2657 152.484 41.2864 152.464 41.2864H152.319C152.132 41.2864 151.967 41.2657 151.78 41.2243L151.863 41.245C151.573 41.1622 151.325 40.9966 151.118 40.7688L151.18 40.8309C151.056 40.686 150.952 40.5411 150.89 40.3755C150.87 40.3341 150.849 40.2927 150.849 40.2513C150.849 40.2099 150.807 40.0857 150.828 40.1892C150.807 40.1064 150.787 40.0443 150.787 39.9614C150.787 39.92 150.787 39.8786 150.766 39.8165C150.745 39.7544 150.766 39.7751 150.766 39.7544C150.766 39.6923 150.766 39.713 150.766 39.7958C150.745 39.7751 150.766 39.6923 150.766 39.6509C150.766 39.6095 150.787 39.5681 150.787 39.506C150.766 39.6095 150.766 39.6302 150.787 39.5681V39.5267C150.807 39.4853 150.807 39.4439 150.828 39.4025C150.766 39.6095 150.807 39.4646 150.828 39.4025C150.87 39.2783 150.725 39.5888 150.828 39.4232C150.89 39.3197 150.704 39.5888 150.807 39.4439L150.849 39.4025C150.89 39.3404 150.89 39.3611 150.807 39.4646C150.828 39.4439 150.87 39.4025 150.89 39.3818C150.994 39.2783 150.787 39.4439 150.89 39.3818C150.932 39.3611 151.077 39.2369 151.118 39.2369C151.056 39.2783 151.035 39.2783 151.097 39.2576L151.159 39.2369L151.284 39.1955C151.366 39.1748 151.429 39.1541 151.511 39.1334C151.408 39.1541 151.553 39.1334 151.573 39.1334H151.718C151.905 39.1334 152.07 39.1541 152.257 39.1955L152.174 39.1748C152.277 39.1955 152.36 39.2369 152.464 39.2783C152.712 39.4025 153.023 39.0299 153.126 38.8435C153.23 38.6986 153.292 38.533 153.312 38.3674C153.312 38.2639 153.333 38.119 153.23 38.0569C152.422 37.6428 151.449 37.912 150.807 38.4709C150 39.1748 149.627 40.3134 149.979 41.3278C150.248 42.0938 150.994 42.6113 151.801 42.5699C152.898 42.5285 153.747 41.7004 154.12 40.7067C154.451 39.7958 154.223 38.6572 153.375 38.119C153.271 38.0569 153.147 38.119 153.064 38.1811C152.774 38.3881 152.588 38.6986 152.526 39.0506C152.484 39.1748 152.484 39.299 152.588 39.3818Z" fill="#0E1E36"/>
</svg>
