<svg width="200" height="200" viewBox="0 0 200 200" fill="none" xmlns="http://www.w3.org/2000/svg">
<g id="Colorful/Hand shake">
<rect width="200" height="200" fill="white"/>
<g id="Others">
<path id="Vector" d="M91.5743 42.8527C91.8227 44.1362 92.2575 45.3576 92.8992 46.4962C94.0792 48.5871 95.8803 50.2847 98.0333 51.3405C99.0891 51.8581 100.228 52.21 101.387 52.417C102.526 52.6033 103.685 52.624 104.824 52.4584C104.989 52.4377 105.155 52.3963 105.32 52.3756C105.465 52.3135 105.59 52.21 105.693 52.0858C105.797 51.9616 105.879 51.8167 105.921 51.6717C105.983 51.5268 106.086 51.0921 105.797 51.0921C104.492 51.0714 103.188 51.3819 102.029 52.003C100.994 52.624 100.124 53.5142 99.5446 54.57C98.9442 55.6672 98.5095 56.8679 98.3025 58.1101C98.0954 59.2694 97.9919 60.4701 97.9712 61.6501C97.9505 62.8301 97.9919 64.0101 98.0747 65.2109C98.0747 65.3351 98.0954 65.48 98.0954 65.6042C98.0954 65.7077 98.1782 65.7905 98.2818 65.8112C98.3853 65.8112 98.4888 65.7491 98.5716 65.687C98.8407 65.48 99.0063 65.1902 99.0477 64.8589C99.2133 63.5133 99.0684 62.1677 98.613 60.8841C98.2196 59.8697 97.5572 58.9796 96.6877 58.2964C95.7975 57.6132 94.7831 57.1164 93.6859 56.8472C92.5266 56.5367 91.3466 56.3711 90.1459 56.3711C88.8623 56.3711 87.5788 56.4746 86.316 56.723L85.8605 56.8058L85.4879 58.048C86.4609 57.7995 87.4132 57.4062 88.3034 56.9093C89.235 56.3918 90.1045 55.75 90.8497 55.0048C91.6985 54.156 92.4024 53.183 92.9199 52.0858C93.4582 51.0093 93.7687 49.8293 93.8308 48.6078C93.8929 47.2415 93.6859 45.8752 93.2512 44.5709C93.1891 44.4053 93.127 44.219 93.0648 44.0534C93.0234 43.9499 92.8785 43.9499 92.7957 43.9706C92.6508 44.0327 92.5266 44.1362 92.4231 44.2604C92.2368 44.4881 92.0297 44.8401 92.154 45.1506C92.2161 45.3162 92.2782 45.4818 92.3403 45.6474C92.361 45.7303 92.4024 45.8131 92.4231 45.8959L92.4645 46.0201L92.4852 46.1029C92.4852 46.0615 92.4852 46.0615 92.4852 46.1236C92.568 46.4341 92.6508 46.7654 92.7129 47.0759C92.8371 47.6762 92.8785 48.2973 92.8785 48.9184C92.8785 49.0426 92.8785 48.8149 92.8785 48.9184C92.8785 48.9598 92.8785 48.9805 92.8785 49.0219C92.8785 49.0633 92.8785 49.1461 92.8785 49.2082C92.8785 49.3531 92.8578 49.5187 92.8371 49.6636C92.8164 49.9328 92.775 50.2019 92.7129 50.471C92.7129 50.5124 92.6715 50.6366 92.7129 50.4503C92.7129 50.471 92.6922 50.5124 92.6922 50.5538C92.6715 50.6159 92.6508 50.678 92.6508 50.7401C92.6094 50.8851 92.568 51.0093 92.5266 51.1542C92.4852 51.2991 92.4438 51.3819 92.4231 51.4854C92.4024 51.5268 92.4024 51.5475 92.3817 51.5682C92.4645 51.3612 92.4231 51.4854 92.4024 51.5268C92.3817 51.5682 92.3403 51.6717 92.3196 51.7338C92.2782 51.8581 92.2161 51.9616 92.154 52.0858C92.1333 52.1479 92.0918 52.1893 92.0711 52.2514C92.0504 52.3135 91.9262 52.5205 92.0711 52.2721C91.9469 52.4998 91.802 52.7275 91.6571 52.9346L91.5536 53.0795L91.5122 53.1416C91.6571 52.9346 91.595 53.0381 91.5536 53.0795C91.4708 53.183 91.388 53.2865 91.3052 53.39C91.2224 53.4935 91.1396 53.5763 91.0775 53.6798C91.036 53.7212 91.0153 53.7626 90.9739 53.804C90.9325 53.8454 90.7462 54.0525 90.9325 53.8662C90.5806 54.2181 90.208 54.57 89.8353 54.8806C90.0009 54.7356 89.8353 54.8806 89.7939 54.922L89.649 55.0462C89.5455 55.1083 89.442 55.1911 89.3592 55.2532C89.1522 55.3981 88.9451 55.5223 88.7174 55.6672C88.6139 55.7293 88.4897 55.7914 88.3862 55.8535L88.1999 55.9571L88.1171 55.9985C88.0343 56.0399 88.2206 55.9364 88.0964 55.9985C87.8479 56.1227 87.6202 56.2262 87.3718 56.3297C86.8956 56.5367 86.3988 56.7023 85.8812 56.8265C85.7363 56.8886 85.6121 56.9715 85.5086 57.0957C85.3844 57.2406 85.3016 57.4062 85.2395 57.5925C85.1774 57.8202 85.1774 58.1308 85.4879 58.0687L85.8605 57.9859L86.0469 57.9445H86.109L86.1711 57.9237C86.4195 57.8823 86.6886 57.8409 86.9578 57.7995C87.4753 57.7374 87.9929 57.696 88.5104 57.6546C89.5248 57.5925 90.5599 57.6546 91.5743 57.7788C92.1126 57.8616 92.6508 57.9652 93.1891 58.1101L93.1062 58.0894C94.1621 58.3792 95.1764 58.876 96.0252 59.5592C96.253 59.7455 96.4807 59.9525 96.6877 60.1803L96.6256 60.1182C97.081 60.6357 97.4537 61.2154 97.7021 61.8571C97.7642 62.0227 97.8263 62.1884 97.8884 62.354C97.8884 62.3747 97.9091 62.3954 97.9091 62.4161C97.9298 62.4782 97.8884 62.3126 97.9091 62.4161C97.9091 62.4575 97.9298 62.4989 97.9298 62.5196C97.9505 62.6231 97.9712 62.7059 97.9919 62.8094C98.0747 63.2028 98.1368 63.5961 98.1575 63.9894C98.1575 64.1137 98.1575 64.2172 98.1782 64.3414C98.1782 64.4035 98.1782 64.4863 98.1782 64.5484C98.1782 64.5691 98.1782 64.6519 98.1782 64.507C98.1782 64.5484 98.1782 64.5691 98.1782 64.6105C98.1782 64.8796 98.1575 65.1281 98.1368 65.3972L99.0891 64.6519C99.027 63.5547 98.9649 62.4575 98.9649 61.3396C98.9649 61.2775 98.9649 61.1947 98.9649 61.1326V61.0291C98.9649 60.8841 98.9649 61.1119 98.9649 61.0084C98.9649 60.8634 98.9649 60.7185 98.9649 60.5736C98.9649 60.2838 98.9856 59.9939 99.0063 59.7041C99.0477 59.1245 99.1098 58.5655 99.1926 57.9859C99.234 57.696 99.2962 57.4269 99.3376 57.1371C99.3376 57.1164 99.2961 57.282 99.3169 57.2199L99.3376 57.1578C99.3376 57.1164 99.3583 57.0957 99.3583 57.0543C99.379 56.9922 99.3997 56.9093 99.3997 56.8472C99.4411 56.7023 99.4618 56.5781 99.5032 56.4539C99.586 56.2055 99.6688 55.9364 99.7516 55.6879C99.7723 55.6051 99.6895 55.8742 99.7309 55.7293C99.7309 55.7086 99.7516 55.6672 99.7723 55.6465C99.793 55.5844 99.8137 55.5223 99.8551 55.4602C99.8965 55.336 99.9586 55.2118 100.021 55.1083C100.041 55.0462 100.062 55.0048 100.104 54.9427L100.145 54.8598C100.186 54.7563 100.041 55.0462 100.104 54.922C100.186 54.7977 100.228 54.6942 100.311 54.5907C100.352 54.5286 100.373 54.4872 100.414 54.4251L100.455 54.363L100.476 54.3216C100.538 54.2181 100.414 54.4044 100.414 54.4044C100.497 54.3009 100.559 54.1974 100.642 54.0939C100.683 54.0525 100.725 53.9904 100.766 53.949C100.807 53.9076 100.994 53.7212 100.787 53.9076C100.87 53.8247 100.952 53.7419 101.056 53.6591C101.159 53.5763 101.242 53.4935 101.346 53.4107C101.449 53.3279 101.242 53.4935 101.304 53.4314L101.387 53.3693C101.449 53.3279 101.491 53.2865 101.553 53.2451C101.656 53.183 101.76 53.1002 101.884 53.0381L102.05 52.9346L102.132 52.8932C102.194 52.8518 102.091 52.9139 102.091 52.9139L102.153 52.8932C102.401 52.7689 102.65 52.6654 102.919 52.5826C103.209 52.4998 103.499 52.417 103.788 52.3756C103.685 52.3963 103.788 52.3756 103.83 52.3756L103.933 52.3549C104.016 52.3342 104.099 52.3342 104.182 52.3135C104.347 52.2928 104.513 52.2721 104.679 52.2721C104.844 52.2721 105.031 52.2514 105.196 52.2514L105.672 50.9886L105.61 51.0093C105.631 51.0093 105.693 50.9886 105.61 51.0093L105.507 51.03L105.258 51.0714C105.093 51.0921 104.927 51.1128 104.761 51.1335C104.43 51.1542 104.099 51.1749 103.768 51.1749C103.105 51.1749 102.422 51.1128 101.78 50.9886C101.408 50.9265 101.035 50.823 100.662 50.7194L100.745 50.7401C98.6337 50.1191 96.7291 48.9184 95.2386 47.2829L95.3007 47.345C94.2242 46.1443 93.3961 44.7159 92.8992 43.1632H92.8164C92.8164 43.1425 92.7957 43.1218 92.7957 43.1011C92.7957 43.0804 92.7543 42.9769 92.775 43.0183C92.7957 43.0597 92.775 42.9976 92.775 42.9769L92.7543 42.8941C92.7336 42.832 92.7129 42.7699 92.7129 42.7078C92.6508 42.4593 92.5887 42.2109 92.5473 41.9832C92.4852 41.6727 92.1747 41.7969 92.009 41.9625C91.8641 42.0867 91.7606 42.2523 91.6778 42.4179C91.6157 42.5628 91.5743 42.7078 91.5743 42.8527Z" fill="#0E1E36"/>
<path id="Vector_2" d="M109.067 59.3108C109.606 62.2505 111.945 64.5484 114.905 65.0039C115.692 65.1281 116.479 65.1281 117.265 64.9625C117.41 64.9003 117.535 64.7968 117.638 64.6726C117.742 64.5484 117.824 64.4035 117.866 64.2586C117.928 64.1137 118.031 63.6789 117.742 63.6789C116.934 63.6582 116.127 63.8652 115.423 64.2586C114.76 64.6726 114.202 65.2316 113.829 65.9147C113.063 67.2397 112.856 68.7716 112.835 70.2622C112.814 71.0695 112.856 71.8562 112.897 72.6636C112.897 72.7671 112.98 72.8499 113.084 72.8706C113.187 72.8706 113.291 72.8085 113.373 72.7464C113.643 72.5394 113.808 72.2496 113.85 71.9183C113.953 71.0903 113.85 70.2622 113.58 69.4962C113.332 68.8958 112.939 68.3576 112.442 67.9435C111.365 67.0741 109.895 66.8049 108.529 66.7842C107.66 66.7842 106.811 66.867 105.962 67.0534L105.589 68.2955C106.832 67.9849 107.949 67.3225 108.86 66.4323C109.937 65.3558 110.682 63.9067 110.786 62.3747C110.827 61.4224 110.661 60.4701 110.33 59.5799C110.289 59.4764 110.144 59.4764 110.061 59.4971C109.916 59.5592 109.792 59.6627 109.688 59.7869C109.502 60.0147 109.316 60.3666 109.419 60.6771C109.461 60.7806 109.481 60.8635 109.523 60.967C109.544 61.0084 109.544 61.0498 109.564 61.0912L109.585 61.174C109.585 61.1947 109.606 61.2361 109.585 61.1947C109.647 61.381 109.688 61.5673 109.73 61.7743C109.792 62.1263 109.833 62.4782 109.833 62.8301C109.833 62.9544 109.833 62.768 109.833 62.8508V62.9751C109.833 63.0579 109.833 63.1407 109.813 63.2442C109.792 63.4098 109.771 63.5547 109.751 63.7203C109.73 63.8238 109.792 63.5961 109.751 63.6996C109.751 63.741 109.73 63.7824 109.73 63.8031C109.709 63.8859 109.688 63.9688 109.668 64.0309C109.647 64.093 109.626 64.1758 109.606 64.2379C109.564 64.3414 109.668 64.093 109.626 64.1965C109.606 64.2379 109.585 64.2793 109.585 64.3207C109.523 64.4656 109.461 64.5898 109.399 64.714C109.523 64.4656 109.399 64.6933 109.357 64.7554C109.316 64.8175 109.274 64.9003 109.233 64.9625L109.171 65.0453C109.109 65.1488 109.274 64.9003 109.212 64.9832C109.171 65.0453 109.109 65.1074 109.067 65.1695C109.026 65.2316 108.985 65.273 108.922 65.3351L108.86 65.3972C108.84 65.4179 108.736 65.5421 108.819 65.4386C108.902 65.3351 108.819 65.4386 108.798 65.4593L108.715 65.5421C108.653 65.6042 108.612 65.6456 108.55 65.7077L108.405 65.8319L108.322 65.894L108.281 65.9147C108.198 65.9769 108.281 65.9147 108.322 65.894C108.094 66.0597 107.867 66.2253 107.618 66.3702L107.411 66.4944L107.308 66.5565L107.246 66.5772C107.266 66.5772 107.349 66.5358 107.287 66.5565C107.142 66.6186 106.997 66.6807 106.852 66.7428C106.562 66.867 106.273 66.9498 105.983 67.0327C105.838 67.0948 105.714 67.1983 105.61 67.3225C105.486 67.4674 105.403 67.633 105.341 67.8193C105.279 68.0471 105.279 68.3576 105.589 68.2955L105.796 68.2541L105.9 68.2334C105.921 68.2334 105.983 68.2127 105.921 68.2334C105.859 68.2541 105.962 68.2334 105.962 68.2334C106.107 68.2127 106.273 68.192 106.418 68.1713C106.728 68.1299 107.039 68.1092 107.349 68.0885C107.95 68.0678 108.55 68.0885 109.13 68.1713C109.44 68.2127 109.771 68.2955 110.082 68.3783L109.999 68.3576C110.806 68.5646 111.552 68.9993 112.111 69.5997L112.048 69.5376C112.38 69.9309 112.649 70.3864 112.794 70.8832C112.794 70.9039 112.794 70.9039 112.794 70.8418C112.794 70.8625 112.794 70.8832 112.814 70.9039C112.835 70.9246 112.835 70.9867 112.835 71.0074C112.835 71.0281 112.856 71.1524 112.877 71.2145C112.897 71.3594 112.918 71.5043 112.939 71.6492C112.959 71.7941 112.98 71.9597 112.959 72.1046C112.98 71.9597 112.959 72.1047 112.959 72.1461C112.959 72.1875 112.959 72.2082 112.959 72.2496C112.959 72.3531 112.939 72.4359 112.939 72.5394L113.87 71.8148C113.829 71.1731 113.808 70.5313 113.808 69.8895V69.786C113.808 69.7653 113.808 69.6204 113.808 69.7032C113.808 69.786 113.808 69.6618 113.808 69.6204C113.808 69.579 113.808 69.5169 113.808 69.4755C113.808 69.3099 113.829 69.1443 113.829 68.9579C113.85 68.6267 113.891 68.2955 113.932 67.9642C113.953 67.7986 113.994 67.6537 114.015 67.4881C114.036 67.4053 113.974 67.6537 113.994 67.5502L114.015 67.4881L114.036 67.3846C114.057 67.3018 114.077 67.219 114.098 67.1362C114.139 66.9913 114.202 66.8256 114.243 66.6807C114.284 66.5358 114.181 66.867 114.222 66.7221C114.243 66.6807 114.243 66.66 114.264 66.6186C114.305 66.5358 114.326 66.4737 114.367 66.3909C114.409 66.3081 114.533 66.0804 114.388 66.3495C114.429 66.2874 114.471 66.2253 114.491 66.1632C114.512 66.1011 114.574 66.039 114.616 65.9769C114.45 66.2253 114.595 65.9976 114.657 65.9354C114.698 65.8733 114.74 65.8112 114.802 65.7698C114.802 65.7698 114.657 65.9147 114.74 65.8526L114.781 65.8112C114.802 65.7905 114.843 65.7491 114.864 65.7284C114.885 65.7077 114.967 65.6249 115.03 65.5835C115.092 65.5421 114.905 65.687 115.009 65.6042L115.112 65.5214C115.175 65.48 115.257 65.4179 115.319 65.3765L115.423 65.3144C115.506 65.273 115.319 65.3558 115.382 65.3351L115.444 65.3144C115.609 65.2316 115.775 65.1695 115.961 65.1281C116.065 65.1074 116.168 65.0867 116.251 65.066L116.313 65.0453C116.417 65.0246 116.292 65.0453 116.313 65.0453L116.458 65.0246C116.686 65.0039 116.934 64.9832 117.162 64.9832L117.638 63.7203C117.535 63.741 117.7 63.7203 117.617 63.7203L117.514 63.741L117.328 63.7617C117.203 63.7824 117.079 63.7824 116.976 63.8031C116.727 63.8238 116.458 63.8238 116.21 63.8031C115.713 63.7824 115.195 63.6789 114.719 63.5547L114.802 63.5754C113.56 63.2028 112.421 62.5196 111.552 61.5466L111.614 61.6087C111.22 61.1533 110.868 60.6771 110.599 60.1389C110.454 59.8698 110.33 59.5799 110.247 59.2901C110.227 59.228 110.206 59.1452 110.185 59.0831L110.144 58.9796C110.165 59.0624 110.123 58.9175 110.123 58.8968C110.082 58.7311 110.04 58.5862 110.02 58.4206C109.958 58.1101 109.647 58.2343 109.481 58.3999C109.337 58.5241 109.233 58.6897 109.15 58.8554C109.088 59.0003 109.067 59.1659 109.067 59.3108Z" fill="#0E1E36"/>
<path id="Vector_3" d="M112.918 45.8131C113.332 48.1317 115.195 49.9535 117.534 50.3054C118.155 50.4089 118.776 50.3882 119.398 50.2847C119.542 50.2226 119.667 50.1191 119.77 49.9949C119.874 49.8707 119.957 49.7257 119.998 49.5808C120.06 49.4359 120.164 49.0012 119.874 49.0012C118.549 48.9598 117.327 49.6636 116.706 50.823C116.085 51.8995 115.899 53.1209 115.878 54.3423C115.878 54.9841 115.899 55.6051 115.92 56.2469C115.92 56.3504 116.002 56.4332 116.106 56.4539C116.209 56.4539 116.313 56.3918 116.396 56.3297C116.665 56.1227 116.831 55.8328 116.872 55.5016C116.955 54.8391 116.872 54.1767 116.665 53.5763C116.479 53.1002 116.168 52.6654 115.754 52.3549C114.905 51.6717 113.746 51.4647 112.69 51.444C112.007 51.444 111.324 51.5061 110.661 51.651L110.289 52.8932C112.462 52.3342 114.367 50.3468 114.47 48.0489C114.491 47.3036 114.367 46.5376 114.098 45.8338C114.056 45.7303 113.912 45.7303 113.829 45.751C113.684 45.8131 113.56 45.9166 113.456 46.0408C113.27 46.2685 113.083 46.6204 113.187 46.931C113.29 47.2001 113.373 47.4692 113.415 47.7591C113.456 48.0282 113.497 48.318 113.497 48.5871C113.497 48.7113 113.497 48.4836 113.497 48.5871C113.497 48.6078 113.497 48.6285 113.497 48.6492C113.497 48.7113 113.497 48.7942 113.477 48.8563C113.456 48.9805 113.435 49.1047 113.415 49.2289C113.435 49.0426 113.415 49.2289 113.415 49.2703C113.415 49.3117 113.373 49.3945 113.373 49.4359C113.373 49.4773 113.332 49.5394 113.311 49.6015C113.27 49.705 113.332 49.5187 113.332 49.5187C113.311 49.5601 113.311 49.6015 113.29 49.6429C113.249 49.7464 113.208 49.8293 113.146 49.9328C113.27 49.6843 113.166 49.8914 113.125 49.9535C113.083 50.0156 113.063 50.057 113.021 50.1191L112.98 50.1812C112.939 50.264 113.104 50.0156 113.021 50.1191L112.918 50.2433C112.876 50.2847 112.835 50.3468 112.794 50.3882C112.752 50.4296 112.773 50.4089 112.752 50.4296C112.649 50.5538 112.856 50.3261 112.773 50.4089C112.69 50.4917 112.628 50.5538 112.545 50.6159L112.421 50.7194C112.38 50.7608 112.193 50.8851 112.359 50.7608C112.173 50.8851 112.007 51.0093 111.821 51.1335L111.655 51.237L111.614 51.2577C111.489 51.3198 111.676 51.2163 111.593 51.2577C111.51 51.2991 111.386 51.3612 111.262 51.4026C111.034 51.4854 110.806 51.5682 110.579 51.6303C110.434 51.6924 110.309 51.7959 110.206 51.9202C110.082 52.0651 109.999 52.2307 109.937 52.417C109.875 52.6447 109.875 52.9553 110.185 52.8932L110.434 52.8518C110.537 52.8311 110.351 52.8725 110.454 52.8518L110.579 52.831C110.723 52.8103 110.868 52.7896 111.013 52.7689C111.324 52.7275 111.634 52.7275 111.924 52.7275C112.504 52.7275 113.083 52.7896 113.642 52.9553L113.56 52.9346C114.201 53.1002 114.781 53.4314 115.236 53.9076L115.174 53.8454C115.443 54.156 115.63 54.5079 115.754 54.8806C115.775 54.922 115.733 54.7977 115.754 54.8806C115.754 54.9013 115.775 54.9427 115.775 54.9634C115.775 54.9841 115.795 55.0669 115.816 55.129C115.837 55.2325 115.858 55.3567 115.858 55.4809C115.858 55.543 115.858 55.6051 115.858 55.6672C115.858 55.7293 115.858 55.7293 115.858 55.7707C115.858 55.8121 115.858 55.8949 115.858 55.8121V55.8535V55.9571C115.858 56.0192 115.858 56.102 115.837 56.1641L116.789 55.4188C116.768 54.922 116.727 54.4251 116.727 53.9283V53.8247C116.727 53.804 116.727 53.6798 116.727 53.7833C116.727 53.8869 116.727 53.7833 116.727 53.7419C116.727 53.7005 116.727 53.6591 116.727 53.6384C116.727 53.5142 116.727 53.3693 116.748 53.2451C116.768 52.9967 116.789 52.7275 116.831 52.4791C116.851 52.3549 116.872 52.2307 116.893 52.1065C116.913 51.9823 116.851 52.2514 116.893 52.1479L116.913 52.0651C116.934 52.003 116.934 51.9409 116.955 51.8788C116.996 51.7545 117.017 51.651 117.058 51.5268C117.1 51.4026 117.058 51.5682 117.038 51.5889C117.058 51.5682 117.058 51.5268 117.079 51.5061C117.1 51.444 117.12 51.3819 117.162 51.3405C117.203 51.2991 117.265 51.1335 117.203 51.2577C117.141 51.3819 117.224 51.2163 117.245 51.1749C117.265 51.1335 117.307 51.0714 117.348 51.03C117.389 50.9886 117.224 51.1956 117.286 51.1128C117.307 51.0921 117.327 51.0507 117.348 51.03C117.369 51.0093 117.41 50.9472 117.452 50.9058C117.286 51.1128 117.431 50.9472 117.472 50.8851L117.596 50.7816C117.659 50.7194 117.472 50.8851 117.555 50.8023L117.638 50.7401L117.804 50.6366C117.824 50.6159 117.866 50.6159 117.886 50.5952C117.907 50.5745 117.783 50.6366 117.824 50.6159L117.886 50.5952C118.011 50.5331 118.155 50.4917 118.28 50.4503L118.487 50.4089C118.528 50.4089 118.632 50.3882 118.528 50.4089L118.652 50.3882C118.818 50.3675 119.004 50.3468 119.17 50.3468L119.646 49.084C119.749 49.0633 119.605 49.084 119.584 49.084L119.439 49.1047L119.149 49.1254C118.963 49.1254 118.756 49.1254 118.569 49.1254C118.176 49.1047 117.783 49.0219 117.41 48.9184L117.493 48.9391C116.52 48.6492 115.63 48.111 114.947 47.345L115.009 47.4071C114.698 47.0552 114.429 46.6826 114.222 46.2685C114.119 46.0615 114.015 45.8338 113.953 45.606C113.932 45.5439 113.912 45.4818 113.891 45.4404C113.87 45.399 113.87 45.3576 113.891 45.4197L113.87 45.3369C113.829 45.2127 113.808 45.0885 113.787 44.9436C113.725 44.6331 113.415 44.7573 113.249 44.9229C113.104 45.0471 113.001 45.2127 112.918 45.3783C112.835 45.5232 112.814 45.6682 112.814 45.8338L112.918 45.8131Z" fill="#0E1E36"/>
<path id="Vector_4" d="M135.938 140.835C136.456 141.974 137.263 142.988 138.236 143.775C139.23 144.562 140.369 145.121 141.611 145.431C142.853 145.742 144.157 145.742 145.399 145.431C146.89 145.059 148.298 144.168 149.105 142.823C149.54 142.119 149.788 141.312 149.809 140.483C149.85 139.78 149.622 139.096 149.229 138.537C148.422 137.544 146.993 137.171 145.855 137.813C145.172 138.248 144.675 138.889 144.426 139.655C144.219 140.256 144.178 140.897 144.323 141.519C144.468 142.14 144.778 142.719 145.234 143.154C145.71 143.609 146.289 143.941 146.931 144.148C148.318 144.562 149.788 144.603 151.196 144.272C152.666 143.941 154.032 143.278 155.191 142.326C155.46 142.098 155.73 141.87 155.957 141.622C156.082 141.498 156.206 141.332 156.289 141.167C156.371 141.022 156.392 140.877 156.392 140.711C156.33 140.401 156.019 140.525 155.854 140.69C155.647 140.897 155.419 141.104 155.191 141.291C155.129 141.332 155.067 141.394 155.005 141.436C155.026 141.436 155.109 141.353 155.026 141.415L154.922 141.498C154.798 141.581 154.674 141.684 154.55 141.767C154.301 141.933 154.053 142.077 153.804 142.222L153.722 142.264C153.701 142.285 153.618 142.326 153.701 142.264L153.514 142.347C153.37 142.409 153.245 142.471 153.1 142.533C152.541 142.761 151.962 142.947 151.382 143.05L151.299 143.071C151.299 143.071 151.154 143.092 151.237 143.092L151.03 143.133C150.885 143.154 150.72 143.175 150.575 143.195C150.285 143.216 149.995 143.237 149.705 143.237C149.064 143.237 148.422 143.154 147.821 142.988L147.904 143.009C147.118 142.802 146.414 142.388 145.855 141.808L145.917 141.87C145.648 141.581 145.441 141.229 145.316 140.835C145.316 140.815 145.296 140.794 145.296 140.773C145.275 140.711 145.316 140.835 145.296 140.773C145.275 140.711 145.275 140.67 145.254 140.628C145.234 140.525 145.213 140.442 145.213 140.339C145.213 140.256 145.192 140.152 145.192 140.069C145.192 140.028 145.213 140.007 145.192 140.049V140.09C145.192 140.069 145.192 140.049 145.192 140.028C145.192 140.007 145.192 139.924 145.192 139.883C145.192 139.8 145.213 139.697 145.234 139.614C145.254 139.531 145.234 139.655 145.213 139.676C145.213 139.655 145.234 139.635 145.234 139.614C145.254 139.573 145.254 139.51 145.275 139.469L145.296 139.386C145.316 139.303 145.234 139.531 145.275 139.469C145.296 139.428 145.316 139.386 145.337 139.345L145.358 139.283C145.358 139.283 145.254 139.469 145.316 139.366C145.337 139.324 145.379 139.283 145.399 139.241C145.461 139.138 145.275 139.407 145.379 139.262L145.461 139.159C145.544 139.055 145.358 139.262 145.42 139.2L145.461 139.159C145.482 139.138 145.627 139.014 145.523 139.096C145.42 139.179 145.565 139.055 145.586 139.055L145.689 138.993C145.751 138.951 145.668 138.993 145.668 139.014C145.668 139.034 145.71 138.993 145.731 138.993C145.772 138.972 145.834 138.951 145.896 138.931C145.958 138.91 146 138.889 146.062 138.889L146.124 138.869C146.145 138.869 146.248 138.848 146.145 138.869C146.248 138.869 146.372 138.848 146.476 138.848C146.704 138.848 146.931 138.889 147.138 138.951L147.055 138.931C147.532 139.076 147.966 139.324 148.298 139.697L148.235 139.635C148.463 139.904 148.65 140.235 148.753 140.566V140.546L148.774 140.628C148.794 140.67 148.794 140.711 148.794 140.753C148.815 140.856 148.836 140.939 148.836 141.042C148.836 141.125 148.857 141.229 148.857 141.312C148.857 141.394 148.877 141.332 148.857 141.291C148.857 141.312 148.857 141.332 148.857 141.353C148.857 141.394 148.857 141.456 148.836 141.519C148.836 141.601 148.815 141.705 148.794 141.788L148.774 141.87C148.753 141.933 148.774 141.808 148.774 141.808C148.774 141.808 148.732 141.933 148.732 141.953C148.712 142.036 148.67 142.14 148.65 142.222C148.629 142.305 148.67 142.181 148.67 142.16C148.67 142.14 148.649 142.222 148.629 142.243C148.608 142.264 148.587 142.347 148.567 142.388C148.546 142.429 148.525 142.471 148.505 142.512C148.463 142.595 148.546 142.429 148.546 142.429L148.505 142.492C148.463 142.574 148.401 142.657 148.339 142.74C148.277 142.823 148.401 142.657 148.401 142.657C148.401 142.657 148.36 142.699 148.36 142.719L148.277 142.823L148.194 142.926L148.153 142.968C148.091 143.03 148.256 142.864 148.173 142.947L147.966 143.154L147.863 143.258L147.801 143.299C147.78 143.299 147.718 143.361 147.78 143.32C147.842 143.278 147.739 143.361 147.718 143.361L147.614 143.444C147.532 143.506 147.449 143.547 147.366 143.609C147.283 143.672 147.2 143.713 147.097 143.754C147.076 143.775 146.952 143.837 147.055 143.775L146.911 143.837C146.724 143.92 146.538 144.003 146.352 144.065C146.165 144.127 145.979 144.189 145.793 144.23C145.689 144.251 145.606 144.272 145.523 144.293L145.399 144.313L145.337 144.334C145.275 144.355 145.441 144.313 145.316 144.334C144.965 144.396 144.633 144.417 144.281 144.438C143.474 144.458 142.687 144.355 141.921 144.127L142.004 144.148C140.472 143.713 139.106 142.864 138.05 141.684L138.112 141.746C137.595 141.167 137.16 140.504 136.829 139.8C136.787 139.697 136.663 139.697 136.56 139.717C136.415 139.78 136.29 139.883 136.208 140.007C136.042 140.173 135.814 140.546 135.938 140.835Z" fill="#0E1E36"/>
<path id="Vector_5" d="M133.082 146.094C133.579 146.094 134.055 146.156 134.531 146.301L134.448 146.28C135.359 146.549 136.166 147.046 136.787 147.75L136.725 147.688C137.077 148.081 137.346 148.537 137.553 149.013C137.595 149.116 137.657 149.24 137.698 149.365C137.719 149.427 137.74 149.489 137.76 149.53C137.781 149.572 137.74 149.427 137.76 149.572L137.802 149.696C137.864 149.944 137.905 150.213 137.926 150.482C137.926 150.607 137.947 150.731 137.947 150.855C137.947 150.876 137.947 150.917 137.947 150.938C137.947 150.834 137.947 150.897 137.947 150.938C137.947 151.021 137.947 151.083 137.947 151.166C137.947 151.29 137.926 151.435 137.905 151.559C137.905 151.621 137.885 151.663 137.885 151.725V151.766C137.885 151.807 137.885 151.828 137.885 151.766C137.885 151.704 137.905 151.725 137.885 151.766L137.864 151.807C137.843 151.911 137.802 152.014 137.76 152.118C137.719 152.221 137.822 151.952 137.781 152.077L137.76 152.139C137.74 152.201 137.719 152.242 137.678 152.304C137.615 152.428 137.76 152.159 137.698 152.242C137.678 152.263 137.678 152.304 137.657 152.325L137.574 152.47C137.512 152.553 137.698 152.304 137.615 152.408C137.595 152.428 137.595 152.449 137.574 152.47L137.533 152.532C137.45 152.636 137.636 152.428 137.553 152.511L137.408 152.636C137.346 152.698 137.533 152.553 137.429 152.615L137.346 152.677L137.284 152.718C137.263 152.718 137.263 152.739 137.243 152.739C137.201 152.76 137.222 152.76 137.284 152.718C137.284 152.739 137.139 152.78 137.119 152.78L137.015 152.801C136.994 152.801 136.891 152.822 136.994 152.801C136.932 152.801 136.87 152.822 136.829 152.822C136.705 152.822 136.58 152.801 136.456 152.78L136.539 152.801C136.27 152.718 136.021 152.553 135.835 152.346L135.897 152.408C135.773 152.284 135.69 152.139 135.607 151.973C135.566 151.89 135.545 151.828 135.504 151.745C135.504 151.745 135.483 151.683 135.504 151.725C135.525 151.766 135.504 151.704 135.504 151.683C135.504 151.642 135.483 151.6 135.483 151.538C135.483 151.476 135.483 151.455 135.462 151.414C135.442 151.373 135.462 151.269 135.462 151.331C135.462 151.393 135.462 151.29 135.462 151.269C135.462 151.248 135.483 151.166 135.483 151.124C135.483 151.29 135.483 151.166 135.483 151.124C135.483 151.083 135.504 151.041 135.525 151C135.462 151.207 135.504 151.041 135.525 151C135.525 150.979 135.545 150.959 135.545 150.959C135.587 150.876 135.442 151.124 135.504 151.021L135.566 150.917C135.649 150.793 135.462 151.041 135.545 150.938L135.628 150.834C135.732 150.731 135.525 150.938 135.628 150.834L135.732 150.752C135.752 150.731 135.856 150.648 135.773 150.71L135.835 150.669C135.876 150.648 135.918 150.607 135.959 150.586L136.083 150.503C136.166 150.462 136.001 150.545 136.104 150.503C136.187 150.462 136.291 150.42 136.373 150.4C136.456 150.358 136.539 150.338 136.622 150.296L136.725 150.275H136.767L136.87 150.255C137.388 150.213 137.885 150.255 138.381 150.4L138.299 150.379C139.499 150.752 140.555 151.435 141.383 152.366L141.321 152.304C141.859 152.905 142.315 153.608 142.646 154.333C142.729 154.519 142.812 154.706 142.874 154.892C142.915 154.975 142.936 155.078 142.957 155.161C142.977 155.203 142.977 155.265 142.998 155.306C143.019 155.347 142.977 155.244 142.998 155.306L143.019 155.389C143.122 155.782 143.184 156.176 143.226 156.59C143.246 156.817 143.246 157.045 143.267 157.273C143.267 157.335 143.267 157.19 143.267 157.252C143.267 157.293 143.267 157.314 143.267 157.335V157.5C143.267 157.625 143.246 157.728 143.226 157.852C143.205 157.977 143.226 158.101 143.308 158.163C143.412 158.204 143.536 158.184 143.619 158.122C143.909 157.915 144.116 157.604 144.157 157.252C144.364 155.265 143.785 153.277 142.584 151.683C141.984 150.897 141.259 150.255 140.41 149.737C139.396 149.158 138.216 148.785 137.056 149.013C135.897 149.24 134.883 150.255 134.552 151.393C134.386 151.932 134.407 152.491 134.655 153.008C134.841 153.422 135.193 153.774 135.628 153.94C136.829 154.374 137.843 153.298 138.361 152.325C138.878 151.29 139.023 150.131 138.795 148.992C138.402 146.798 136.622 145.121 134.427 144.831C134.179 144.789 133.91 144.789 133.661 144.789C133.351 144.789 133.102 145.162 132.978 145.41C132.937 145.576 132.771 146.094 133.082 146.094Z" fill="#0E1E36"/>
<path id="Vector_6" d="M51.2882 139.655C49.0317 140.38 47.3341 142.367 46.5682 144.562C46.1955 145.617 46.092 146.735 46.2576 147.853C46.3404 148.474 46.5682 149.075 46.9201 149.592C47.272 150.089 47.7896 150.462 48.3899 150.586C49.7977 150.896 50.8949 149.53 51.1433 148.288C51.2468 147.75 51.1847 147.191 50.9156 146.715C50.6465 146.239 50.2117 145.845 49.7149 145.617C48.4935 145.059 47.1685 145.369 46.0299 145.969C44.9948 146.549 44.0839 147.336 43.3801 148.288C41.9723 150.172 41.2063 152.573 41.5376 154.913C41.579 155.161 41.6204 155.43 41.6825 155.679C41.7032 155.782 41.7446 155.865 41.8688 155.886C41.993 155.865 42.1172 155.803 42.2207 155.72C42.3657 155.596 42.4692 155.43 42.552 155.265C42.6348 155.12 42.6555 154.975 42.6555 154.809C42.552 154.416 42.4899 154.022 42.4485 153.608C42.4278 153.401 42.4278 153.194 42.4278 152.987C42.4278 152.967 42.4278 152.884 42.4278 153.008C42.4278 152.987 42.4278 152.967 42.4278 152.946V152.822C42.4278 152.718 42.4278 152.615 42.4485 152.511C42.4692 152.304 42.4899 152.118 42.5313 151.932C42.552 151.828 42.5727 151.745 42.5727 151.642C42.5727 151.621 42.5934 151.6 42.5934 151.559C42.5934 151.683 42.5727 151.642 42.5934 151.6C42.6141 151.559 42.6141 151.497 42.6348 151.435C42.6762 151.228 42.7383 151.041 42.8004 150.834C42.8211 150.752 42.8625 150.669 42.8832 150.565L42.9039 150.503C42.9246 150.42 42.8418 150.648 42.8832 150.565C42.9246 150.482 42.9246 150.462 42.9453 150.4C43.0281 150.213 43.1109 150.027 43.1937 149.861L43.2558 149.737L43.2972 149.675C43.1937 149.861 43.2351 149.779 43.2558 149.737C43.2972 149.654 43.3594 149.551 43.4215 149.468C43.525 149.302 43.6285 149.137 43.7527 148.971C43.8148 148.888 43.6492 149.116 43.7113 149.033L43.7527 148.971C43.7734 148.93 43.8148 148.888 43.8355 148.847C43.8976 148.764 43.9597 148.681 44.0425 148.599C44.1253 148.516 44.1667 148.454 44.2288 148.371L44.2702 148.329C44.1874 148.412 44.3116 148.288 44.3324 148.267C44.4773 148.122 44.6222 147.977 44.7878 147.853C44.8499 147.791 44.9327 147.75 44.9948 147.667C44.8913 147.791 44.9741 147.688 45.0155 147.646L45.1397 147.543C45.326 147.419 45.5124 147.294 45.6987 147.17L45.885 147.067L45.9471 147.025C46.0713 146.963 45.8643 147.067 45.9885 147.005C46.1127 146.942 46.2369 146.901 46.3611 146.839C46.6096 146.735 46.8787 146.653 47.1478 146.611C47.1892 146.611 47.2306 146.59 47.3134 146.59L47.4998 146.57C47.6447 146.549 47.7896 146.549 47.9345 146.57C48.1622 146.57 48.4106 146.611 48.6384 146.673L48.5556 146.653C49.0524 146.797 49.5079 147.067 49.8598 147.439L49.7977 147.377C50.0047 147.584 50.1496 147.853 50.2324 148.122C50.191 148.019 50.2324 148.164 50.2531 148.185C50.2531 148.226 50.2738 148.247 50.2738 148.288C50.2945 148.371 50.2945 148.474 50.2945 148.557C50.2945 148.619 50.2945 148.599 50.2945 148.516C50.2945 148.536 50.2945 148.557 50.2945 148.578L50.2738 148.702C50.2738 148.743 50.2531 148.785 50.2531 148.826C50.2738 148.723 50.2738 148.702 50.2531 148.764C50.2531 148.785 50.2531 148.806 50.2324 148.826C50.2117 148.868 50.2117 148.909 50.191 148.95C50.1496 149.075 50.2738 148.785 50.191 148.93L50.1496 149.033C50.0875 149.137 50.2531 148.847 50.1703 149.013C50.1289 149.075 50.0254 149.178 50.191 148.992L50.1082 149.095C50.0254 149.178 50.2324 148.971 50.1082 149.075C50.0668 149.116 49.9426 149.158 50.1082 149.075C50.0668 149.095 50.0461 149.116 50.0047 149.158C49.9633 149.199 49.8805 149.199 49.9426 149.199C50.0047 149.199 49.9012 149.22 49.8805 149.22C49.8598 149.22 49.7977 149.261 49.7356 149.261C49.6735 149.261 49.57 149.302 49.6528 149.282C49.6114 149.282 49.5493 149.302 49.5079 149.302C49.3008 149.323 49.0938 149.282 48.8868 149.24L48.9696 149.261C48.5763 149.137 48.2243 148.909 47.9552 148.619L48.0173 148.681C47.7482 148.371 47.5619 148.019 47.4169 147.646L47.3755 147.501C47.3755 147.481 47.3341 147.398 47.3548 147.439C47.3341 147.336 47.3134 147.232 47.272 147.129C47.2306 146.942 47.2099 146.777 47.1892 146.59C47.1685 146.425 47.1685 146.239 47.1478 146.073V145.969C47.1478 145.866 47.1478 146.052 47.1478 145.928C47.1478 145.804 47.1478 145.742 47.1685 145.659C47.1892 145.493 47.2099 145.328 47.2306 145.162C47.2513 145.079 47.2513 144.996 47.272 144.914C47.272 144.893 47.272 144.872 47.272 144.851C47.2927 144.789 47.2513 144.914 47.2513 144.914L47.272 144.769C47.3134 144.603 47.3548 144.437 47.4169 144.293C47.4377 144.21 47.4791 144.127 47.4998 144.044C47.5205 143.961 47.4377 144.189 47.4998 144.065L47.5619 143.92C47.624 143.754 47.7068 143.609 47.7689 143.464C47.7896 143.423 47.8103 143.382 47.831 143.361C47.831 143.34 47.7482 143.527 47.7896 143.444C47.7896 143.423 47.8103 143.402 47.831 143.382C47.8724 143.299 47.9138 143.237 47.9552 143.154C47.9966 143.071 48.038 143.009 48.1001 142.947L48.1622 142.843L48.1829 142.802C48.2243 142.74 48.0587 142.968 48.1415 142.864C48.2243 142.761 48.3485 142.595 48.452 142.471C48.4935 142.409 48.5556 142.347 48.6177 142.305C48.7212 142.181 48.5349 142.388 48.6177 142.305C48.6591 142.264 48.6798 142.243 48.7212 142.202C48.8454 142.077 48.9696 141.974 49.0938 141.85L49.1973 141.767L49.2594 141.725C49.3215 141.684 49.2387 141.746 49.218 141.746C49.3008 141.684 49.3836 141.643 49.4457 141.581C49.6114 141.477 49.7563 141.374 49.9426 141.27L50.0668 141.208C50.1082 141.187 50.2324 141.146 50.1082 141.187C50.191 141.146 50.2738 141.104 50.3566 141.063C50.543 140.98 50.7293 140.918 50.9156 140.856C51.2261 140.752 51.4745 140.38 51.5367 140.069C51.5988 139.862 51.5988 139.49 51.2882 139.593V139.655Z" fill="#0E1E36"/>
<path id="Vector_7" d="M47.8101 134.19C47.7894 134.211 47.6859 134.356 47.7687 134.252L47.7273 134.314C47.6652 134.418 47.5824 134.501 47.5203 134.604C47.3754 134.79 47.2512 134.956 47.1063 135.142C47.0442 135.225 46.9821 135.308 46.8993 135.391L46.7957 135.515C46.775 135.556 46.6094 135.701 46.7543 135.577C46.5887 135.722 46.4438 135.888 46.2989 136.032C46.2161 136.115 46.1333 136.177 46.0505 136.239C46.1126 136.177 46.0505 136.239 46.0298 136.26L45.8849 136.364C45.6985 136.488 45.5122 136.591 45.3259 136.716C45.2845 136.736 45.3466 136.716 45.3466 136.716L45.2638 136.757L45.1189 136.819C45.0154 136.861 44.9119 136.902 44.8083 136.943C44.7048 136.985 44.6013 137.005 44.4978 137.047L44.3322 137.109L44.2494 137.13C44.2287 137.13 44.1873 137.15 44.2287 137.13C43.7732 137.212 43.2971 137.192 42.8417 137.068L42.9245 137.088C42.4069 136.943 41.9515 136.654 41.5788 136.281L41.6409 136.343C41.4339 136.115 41.2683 135.846 41.1648 135.536C41.1648 135.515 41.1441 135.432 41.1441 135.494C41.1441 135.453 41.1234 135.411 41.1234 135.37C41.1027 135.308 41.1027 135.225 41.1027 135.163C41.1027 135.122 41.1027 135.101 41.1027 135.059C41.1027 134.977 41.1027 135.163 41.1027 135.039C41.1027 134.956 41.1234 134.894 41.1234 134.811C41.1234 134.79 41.1234 134.77 41.1234 134.77C41.1441 134.687 41.082 134.894 41.1234 134.832C41.1234 134.79 41.1441 134.77 41.1441 134.728C41.1441 134.687 41.1648 134.666 41.1648 134.625C41.1855 134.563 41.1234 134.728 41.1441 134.708C41.1441 134.687 41.1648 134.666 41.1648 134.645C41.1855 134.604 41.2062 134.583 41.2062 134.542C41.2062 134.521 41.2269 134.501 41.2269 134.501C41.2476 134.48 41.1234 134.666 41.1855 134.604C41.2062 134.583 41.2269 134.542 41.2269 134.521L41.2476 134.48C41.3097 134.397 41.1855 134.542 41.1855 134.563C41.1855 134.583 41.2476 134.48 41.2683 134.48C41.289 134.48 41.3718 134.376 41.289 134.459C41.2062 134.542 41.289 134.459 41.3097 134.438C41.3304 134.418 41.4546 134.335 41.3511 134.397C41.2476 134.459 41.3718 134.397 41.3718 134.376L41.4546 134.314L41.5374 134.273C41.5788 134.252 41.496 134.293 41.496 134.293L41.5788 134.252C41.6409 134.231 41.7237 134.19 41.8066 134.19H41.848C41.8066 134.19 41.7859 134.19 41.848 134.19L41.9929 134.169C42.1792 134.169 42.3448 134.19 42.5311 134.231L42.4483 134.211C42.8003 134.314 43.1315 134.542 43.3799 134.811L43.3178 134.749C43.442 134.894 43.5455 135.039 43.6283 135.204C43.6697 135.287 43.7111 135.349 43.7318 135.432C43.7525 135.473 43.7525 135.515 43.7732 135.556L43.7939 135.598C43.8354 135.701 43.7939 135.556 43.7939 135.618C43.8354 135.825 43.8561 136.032 43.8768 136.239C43.8768 136.302 43.8768 136.219 43.8768 136.219C43.8768 136.239 43.8768 136.281 43.8768 136.302C43.8768 136.322 43.8768 136.405 43.8561 136.446C43.8354 136.488 43.8561 136.55 43.8354 136.591C43.8147 136.633 43.794 136.736 43.8147 136.757C43.794 136.736 43.8354 136.654 43.8147 136.736C43.8147 136.757 43.8147 136.778 43.7939 136.798C43.7732 136.819 43.7732 136.902 43.7525 136.943C43.7318 136.985 43.7111 137.047 43.6904 137.109C43.6904 137.13 43.6697 137.15 43.6697 137.171C43.649 137.254 43.7318 137.026 43.6697 137.15C43.6076 137.275 43.5869 137.337 43.5455 137.44L43.4834 137.585C43.442 137.668 43.5662 137.44 43.5041 137.544L43.4627 137.627C43.4006 137.73 43.3592 137.813 43.2971 137.916L43.2143 138.041C43.1936 138.061 43.1936 138.082 43.1729 138.082C43.0901 138.185 43.2557 137.958 43.1936 138.041C43.0901 138.185 42.9659 138.351 42.8417 138.496L42.7381 138.62C42.6553 138.703 42.8417 138.496 42.7381 138.62C42.676 138.682 42.5932 138.765 42.5311 138.827C42.3862 138.972 42.2206 139.076 42.0757 139.221L42.1171 139.179L42.055 139.221L41.9515 139.303C41.8687 139.365 41.7859 139.407 41.703 139.469C41.5374 139.572 41.3718 139.676 41.2062 139.759L41.0613 139.821C41.0613 139.821 40.9992 139.862 41.0613 139.821L41.0406 139.842C40.9578 139.883 40.8543 139.924 40.7715 139.966C40.5851 140.049 40.3988 140.111 40.2125 140.173C40.0262 140.235 39.8399 140.276 39.6535 140.338C39.5707 140.359 39.4672 140.38 39.3844 140.401H39.343H39.3223L39.136 140.421C38.2044 140.545 37.2728 140.463 36.3826 140.214L36.4654 140.235C35.5338 139.966 34.6644 139.51 33.9398 138.91C33.857 138.848 33.6914 138.91 33.6293 138.951C33.4843 139.055 33.3601 139.179 33.2773 139.324C33.1531 139.531 32.9461 139.924 33.1738 140.111C34.8714 141.539 37.1486 142.057 39.3016 141.56C41.5581 140.98 43.442 139.407 44.3943 137.295C44.8705 136.219 45.0775 134.873 44.3736 133.859C44.1045 133.465 43.7111 133.155 43.2557 132.989C42.7796 132.824 42.2413 132.865 41.7859 133.093C41.2683 133.362 40.8336 133.797 40.5437 134.314C40.2332 134.832 40.0676 135.453 40.0883 136.074C40.1504 137.068 40.9164 137.896 41.7859 138.248C42.8831 138.703 44.0631 138.455 45.0775 137.937C46.1747 137.378 47.0235 136.426 47.7687 135.473C47.9758 135.204 48.1621 134.935 48.3691 134.666C48.4726 134.521 48.5347 134.356 48.5554 134.169C48.5554 134.066 48.5554 133.921 48.4519 133.859C48.2242 133.61 47.9137 134.045 47.8101 134.19Z" fill="#0E1E36"/>
</g>
<g id="Hands">
<path id="Vector_8" d="M179.91 97.299C179.724 96.9677 179.517 96.6365 179.31 96.3053L175.707 90.3017L170.263 81.2135L164.673 71.8769L160.636 65.1487C160.326 64.6312 160.015 64.1136 159.725 63.6168C158.939 62.2919 157.386 61.7329 155.958 62.4575C154.612 63.1613 153.329 64.0929 152.045 64.9003L143.516 70.2414L134.428 75.9552L129.086 79.3089L129.024 79.3503C125.174 77.0731 120.806 76.2657 116.438 76.4313C116.438 76.4313 116.438 76.4313 116.417 76.4313C116.21 76.4313 116.003 76.452 115.796 76.4727H115.775C115.568 76.4934 115.382 76.4934 115.175 76.5141C115.154 76.5141 115.133 76.5141 115.113 76.5141C114.926 76.5349 114.74 76.5556 114.533 76.5763C114.512 76.5763 114.471 76.5763 114.45 76.5763C114.264 76.597 114.098 76.6177 113.912 76.6384C113.87 76.6384 113.829 76.6384 113.808 76.6591C113.643 76.6798 113.477 76.7005 113.291 76.7212C113.249 76.7212 113.187 76.7419 113.146 76.7419C112.98 76.7626 112.835 76.7833 112.67 76.8247C112.608 76.8247 112.546 76.8454 112.483 76.8661C112.339 76.8868 112.194 76.9075 112.049 76.9489C111.987 76.9696 111.904 76.9696 111.842 76.9903C111.717 77.011 111.573 77.0317 111.448 77.0731C111.366 77.0938 111.262 77.1145 111.179 77.1352C111.055 77.1559 110.952 77.1766 110.827 77.1973C110.703 77.218 110.6 77.2594 110.496 77.2801C110.413 77.3008 110.31 77.3215 110.227 77.3422C110.02 77.3836 109.813 77.4457 109.627 77.4871C106.19 78.398 102.878 79.7023 99.7517 81.3998C98.2198 82.2279 96.7292 83.1181 95.2801 84.1118C93.8102 85.1055 92.4025 86.1406 90.8498 87.0308C88.0551 88.6248 85.2603 90.074 83.0452 92.4547C81.741 93.8831 80.5609 95.4151 79.4844 97.0299C78.3872 98.5618 77.497 100.239 76.8346 102.019C74.2261 109.348 78.9048 116.883 83.8733 121.996C89.0281 127.296 95.7562 130.733 103.002 132.037C107.039 132.741 111.159 132.927 115.237 132.596C117.204 132.451 119.17 132.12 121.137 132.037C122.772 131.975 124.387 132.058 126.023 132.016C128.9 131.975 131.695 131.167 134.179 129.718C136.311 128.435 138.32 126.924 140.286 125.392C142.067 124.005 143.826 122.597 145.545 121.127C145.938 120.796 146.331 120.485 146.704 120.154C146.807 120.113 146.911 120.071 146.994 120.009C150.472 118.229 153.95 116.428 157.407 114.606C163.038 111.666 168.627 108.706 174.196 105.663C175.459 104.979 176.722 104.276 177.985 103.572C178.005 103.551 178.026 103.551 178.067 103.53C180.138 102.267 181.152 99.452 179.91 97.299Z" fill="#4A57F6"/>
<path id="Vector_9" d="M20.4836 88.5834C19.5314 90.0533 19.9661 92.02 21.4359 92.9723C21.498 93.0137 21.5601 93.0551 21.6223 93.0758L41.372 103.882C43.3594 104.979 45.3468 106.097 47.0443 107.609C50.6465 110.838 52.5304 115.517 55.3666 119.429C58.6996 124.025 63.3368 127.462 67.8913 130.857L88.3863 146.094L92.506 149.302C96.2116 152.201 101.553 151.559 104.451 147.874C104.596 147.688 104.741 147.501 104.865 147.294C109.15 148.267 113.477 145.825 114.823 141.643C117.762 142.409 121.033 142.595 123.745 141.229C126.457 139.862 128.341 136.529 127.306 133.672C129.956 134.376 132.751 133.465 134.448 131.312C136.063 129.201 136.104 125.143 133.475 122.762C130.991 120.506 122.255 114.523 117.493 110.714C113.933 107.857 110.206 105.021 107.018 101.771L101.014 81.2756C94.6383 77.984 87.434 76.6591 80.2918 77.4664C77.7661 77.7563 75.1577 78.3152 72.6941 77.6321C71.2864 77.2387 70.0029 76.452 68.7608 75.6654C62.8607 71.9804 48.4314 62.8301 42.7383 59.228C41.4134 58.3999 39.6744 58.7725 38.8463 60.0767C34.9751 66.0803 24.6862 82.0209 20.4836 88.5834Z" fill="#2FC497"/>
<path id="Vector_10" d="M20.1938 88.3971C19.1794 90.074 19.2415 92.3512 20.9804 93.5312C21.3324 93.7796 21.7257 93.966 22.1191 94.173L27.8949 97.3197L40.6267 104.276C41.5997 104.814 42.5727 105.352 43.525 105.932C45.7401 107.257 47.6654 108.975 49.218 111.024C50.6671 112.97 51.8472 115.103 53.11 117.173C54.3728 119.285 55.8634 121.272 57.5402 123.073C61.1424 126.924 65.5105 129.967 69.713 133.093L83.956 143.672C86.5852 145.617 89.1729 147.584 91.74 149.572C93.1477 150.669 94.6796 151.435 96.46 151.662C98.7579 151.932 101.077 151.29 102.919 149.882C103.809 149.199 104.575 148.392 105.196 147.46L104.617 147.915C109.337 148.93 113.829 145.928 115.32 141.477L114.574 142.264C117.949 143.113 121.903 143.299 124.822 141.084C127.203 139.283 128.817 136.053 127.803 133.113L127.058 134.293C130.308 135.184 133.972 133.465 135.401 130.422C136.725 127.627 136.125 124.129 133.806 122.038C131.84 120.278 129.604 118.767 127.472 117.194C124.739 115.206 122.006 113.24 119.315 111.169C116.086 108.685 112.835 106.159 109.813 103.406C109.419 103.054 109.047 102.702 108.674 102.35C108.302 101.998 107.805 101.626 107.515 101.212C107.473 101.129 107.432 101.046 107.411 100.963C107.246 100.508 107.142 100.052 106.997 99.5762L103.457 87.4655L101.884 82.1037C101.76 81.669 101.656 81.2135 101.511 80.7995C101.491 80.7167 101.449 80.6339 101.408 80.5717C101.263 80.4268 100.87 80.3026 100.683 80.1991C100.497 80.0956 100.269 79.9921 100.041 79.8886C99.5239 79.6402 99.0064 79.4124 98.4681 79.2054C92.6094 76.804 86.2332 75.9759 79.9398 76.804C77.7868 77.0731 75.551 77.4664 73.398 76.9903C71.5762 76.5763 70.0028 75.4791 68.4502 74.5061C67.3944 73.8436 66.3386 73.1811 65.3035 72.5187C62.6536 70.8418 60.0038 69.1856 57.3539 67.5088C54.6212 65.7905 51.8886 64.0515 49.1766 62.3333L45.6366 60.0975L44.1667 59.1659C43.6699 58.8553 43.1937 58.4827 42.6348 58.2757C41.0407 57.6546 39.4467 58.4827 38.5565 59.8076C37.9768 60.6771 37.4179 61.588 36.8382 62.4782C35.2648 64.921 33.6915 67.3639 32.1181 69.786C28.723 75.0443 25.3486 80.2819 21.9534 85.5402C21.3738 86.5339 20.7941 87.4655 20.1938 88.3971C20.0903 88.5627 19.8418 89.0389 20.0903 89.1838C20.3387 89.3287 20.6699 88.9147 20.7734 88.749C23.7959 84.029 26.8184 79.3296 29.8616 74.6303C32.8634 69.9723 35.8652 65.2937 38.8877 60.6357C39.2603 60.056 39.6744 59.6213 40.3782 59.4557C41.1442 59.2694 41.8688 59.4971 42.5313 59.9111C43.4628 60.4908 44.3944 61.0911 45.3467 61.6915L52.8409 66.4323C57.7886 69.5583 62.7157 72.6636 67.6635 75.7689C69.1126 76.6798 70.5825 77.6735 72.2387 78.1703C74.2882 78.7914 76.4412 78.5222 78.5321 78.2531C82.6518 77.7149 86.7508 77.6942 90.8498 78.4601C92.8993 78.8535 94.9074 79.4124 96.8741 80.1577C97.8471 80.5303 98.7993 80.9444 99.7516 81.3998C100.021 81.524 100.476 81.6276 100.621 81.876C100.807 82.1658 100.849 82.6834 100.952 83.0146L101.573 85.1469L105.217 97.5888L106.438 101.771C106.583 102.288 106.666 102.371 107.08 102.785C108.612 104.317 110.227 105.725 111.904 107.112C117.286 111.563 122.917 115.641 128.527 119.761C129.604 120.547 130.68 121.355 131.736 122.183C132.689 122.928 133.641 123.673 134.241 124.75C135.007 126.095 135.276 127.669 134.986 129.201C134.697 130.691 133.744 131.768 132.419 132.472C130.929 133.258 129.211 133.424 127.596 132.989C127.14 132.865 126.747 133.859 126.851 134.169C127.72 136.654 126.271 139.241 124.097 140.463C121.385 141.995 118.011 141.684 115.113 140.939C114.781 140.856 114.45 141.518 114.367 141.726C113.084 145.535 108.943 147.398 105.134 146.59C104.906 146.549 104.658 146.901 104.555 147.046C101.925 150.938 96.3979 151.352 92.8165 148.578C90.8084 147.025 88.8003 145.452 86.7508 143.941L72.9632 133.672C68.7814 130.567 64.434 127.565 60.5627 124.046C58.6788 122.369 56.9813 120.485 55.5114 118.436C54.1658 116.531 53.0479 114.461 51.8058 112.494C50.5636 110.528 49.2387 108.623 47.5411 107.05C45.8436 105.476 43.7527 104.317 41.7239 103.178C38.1838 101.232 34.6438 99.3071 31.1037 97.3818L24.4377 93.7382L22.4503 92.6617C21.8292 92.3098 21.2289 91.9786 20.8562 91.3368C20.3801 90.5501 20.2352 89.515 20.732 88.6869C20.8355 88.5213 21.0633 88.0452 20.8355 87.9003C20.6078 87.7554 20.2766 88.2315 20.1938 88.3971Z" fill="#2FC497"/>
<path id="Vector_11" d="M129.853 99.2657C129.832 99.2864 129.79 99.2864 129.77 99.3071L129.128 80.6752C129.48 80.3854 129.79 79.723 129.501 79.5366C126.747 77.9012 123.725 76.804 120.557 76.3278C117.369 75.831 114.098 75.8931 110.931 76.4727C107.784 77.0524 104.72 78.0875 101.863 79.5366C98.9444 81.0065 96.191 82.8076 93.6654 84.8778C91.0983 86.9687 88.7383 89.2873 86.5853 91.8129C84.4116 94.3593 82.4863 97.0919 80.8094 99.9902C79.9399 101.501 79.0912 103.033 78.4701 104.669C77.9111 106.159 77.6213 107.836 77.9939 109.41C78.3045 110.714 79.0497 111.997 80.2712 112.639C81.6996 113.405 83.3765 113.198 84.8463 112.66C86.3576 112.101 87.7653 111.211 89.1316 110.321C90.4566 109.451 91.7194 108.478 92.9201 107.464C95.3008 105.435 97.4331 103.158 99.317 100.673C99.6483 100.259 99.9588 99.8039 100.269 99.3692C101.698 100.549 103.292 101.481 105.031 102.164C106.832 102.847 108.716 103.323 110.62 103.613C112.649 103.944 114.699 104.131 116.748 104.131C121.323 104.048 125.774 102.785 129.708 100.446C129.997 100.239 130.204 99.9281 130.246 99.5762C130.287 99.2243 130.101 99.1 129.853 99.2657Z" fill="#4A57F6"/>
<path id="Vector_12" d="M93.3756 144.996C93.3756 144.334 93.3135 143.671 93.1686 143.009C93.0857 142.698 92.9822 142.388 92.8373 142.098C92.8373 142.077 92.8373 142.077 92.8373 142.057C92.2991 141.063 91.3054 140.38 90.1668 140.256C89.2766 140.173 88.3657 140.483 87.6204 140.96C87.1443 141.249 86.7302 141.622 86.3576 142.057C86.399 141.87 86.4404 141.684 86.4818 141.477C86.6681 140.649 86.7509 139.8 86.7509 138.972C86.7509 138.599 86.6888 138.227 86.606 137.854C86.606 137.834 86.606 137.834 86.606 137.813C86.4197 137.171 86.0885 136.571 85.633 136.095C85.219 135.639 84.6807 135.308 84.1011 135.101C83.0867 134.79 81.9688 134.832 80.9751 135.225C80.6438 135.349 80.3333 135.494 80.0228 135.68C80.2091 135.287 80.3747 134.894 80.5196 134.48C81.0372 132.824 80.913 130.898 79.8779 129.47C79.6294 129.139 79.3603 128.828 79.0291 128.58C79.0291 128.58 79.0291 128.58 79.0084 128.559C78.3045 128.041 77.4557 127.71 76.5655 127.607C75.7167 127.503 74.868 127.503 74.0399 127.648C73.1083 127.793 72.2181 128.124 71.3486 128.518C71.4728 128.352 71.5763 128.166 71.7006 128C72.5286 126.592 72.9427 124.75 72.2802 123.197C72.1353 122.866 71.949 122.576 71.7213 122.307C71.7006 122.286 71.6799 122.266 71.6592 122.245C71.1416 121.686 70.4791 121.293 69.7546 121.086C68.9886 120.858 68.2019 120.734 67.4152 120.734C63.7924 120.651 60.2109 121.624 57.1263 123.549C55.553 124.522 54.2902 125.909 53.5035 127.565C53.1101 128.373 52.9238 129.242 52.9238 130.132C52.9445 130.878 53.1101 131.623 53.4 132.306C53.7105 132.969 54.1659 133.569 54.7456 134.024C55.4288 134.521 56.2362 134.79 57.0642 134.811C57.9958 134.832 58.9067 134.728 59.7969 134.48C60.7285 134.252 61.6187 133.962 62.5296 133.652C62.9436 133.507 63.3576 133.362 63.7717 133.217C63.6475 133.341 63.544 133.465 63.4405 133.59C62.7987 134.418 62.1776 135.308 61.8671 136.322C61.598 137.233 61.6394 138.206 61.9706 139.117C62.2811 139.924 62.778 140.649 63.4612 141.229C64.165 141.808 64.9931 142.222 65.8833 142.429C67.7879 142.926 69.8167 142.595 71.6592 141.974C72.5907 141.643 73.5223 141.27 74.4125 140.815C75.2406 140.421 76.0273 139.945 76.7726 139.428C76.2757 140.256 75.8617 141.125 75.5097 142.036C75.0129 143.382 74.7645 144.81 75.0129 146.239C75.2406 147.522 75.8824 148.764 76.9796 149.53C77.994 150.213 79.2568 150.503 80.4782 150.296C81.12 150.193 81.741 149.944 82.3 149.592C82.9004 149.178 83.4386 148.681 83.8733 148.081C83.9562 147.978 84.039 147.853 84.1011 147.75C84.1011 147.77 84.1011 147.791 84.0804 147.812C83.894 148.971 84.0183 150.172 84.4323 151.269C84.8049 152.263 85.5709 153.091 86.5439 153.546C87.5376 153.96 88.6555 153.981 89.6699 153.588C90.912 153.112 91.7815 152.076 92.3405 150.917C92.8787 149.779 93.1271 148.516 93.2721 147.274C93.3549 146.466 93.3963 145.742 93.3756 144.996Z" fill="#4A57F6"/>
<path id="Vector_13" d="M179.93 97.2783C179.91 97.2576 179.889 97.2369 179.868 97.2162L178.957 95.7049L176.473 91.5438L172.995 85.7473L169.062 79.2054L165.211 72.7878L162.023 67.4881L160.036 64.1551L159.663 63.5133C158.98 62.3747 157.593 61.8778 156.351 62.3126C155.771 62.5196 155.233 62.9336 154.715 63.2442L151.921 65.0038L146.517 68.399L146.186 68.606C145.917 68.7716 145.482 69.372 145.669 69.7032L150.099 77.6321L154.55 85.6231C155.937 88.128 157.345 90.6329 158.752 93.1172C160.16 95.6014 161.63 98.065 163.162 100.487C164.694 102.909 166.267 105.249 167.965 107.546L168.606 108.416C168.71 108.561 168.855 108.499 168.979 108.437C171.236 107.236 173.492 105.994 175.749 104.752C176.266 104.462 176.784 104.172 177.301 103.882C177.798 103.634 178.274 103.344 178.709 102.992C179.516 102.309 180.096 101.398 180.344 100.363C180.614 99.3485 180.469 98.2306 179.93 97.2783Z" fill="#F3A446"/>
<g id="Group">
<path id="Vector_14" d="M35.8857 93.3242L35.9064 93.2828C35.9271 93.2621 35.9686 93.1793 35.8857 93.3242Z" fill="#0E1E36"/>
<path id="Vector_15" d="M36.6308 92.1649C36.6515 92.1442 36.6515 92.1235 36.6722 92.1028C36.5894 92.2063 36.6101 92.2063 36.6308 92.1649Z" fill="#0E1E36"/>
<path id="Vector_16" d="M52.7163 69.3927L52.737 69.372C52.7784 69.3099 52.737 69.3513 52.7163 69.3927Z" fill="#0E1E36"/>
<path id="Vector_17" d="M61.5563 69.9102L59.4446 68.606L56.1116 66.5358L55.3456 66.0597C55.2421 66.0183 55.1179 66.039 55.0351 66.1011C54.8902 66.2046 54.766 66.3288 54.6832 66.4737C54.3105 67.0534 53.9379 67.6123 53.5653 68.1713C53.3376 68.4818 53.1305 68.813 52.9028 69.1236L52.7372 69.3513C52.6958 69.4134 52.6958 69.3927 52.7165 69.372L52.6337 69.4755C52.5095 69.6411 52.406 69.8067 52.2817 69.9516C51.847 70.552 51.3916 71.1317 50.9361 71.7113C50.7291 71.9597 50.5428 72.2082 50.3151 72.4359C50.1701 72.6015 50.0045 72.7464 49.8803 72.912C50.0045 72.7671 49.8803 72.912 49.8596 72.9327L49.7561 73.0569C49.6733 73.1397 49.5905 73.2226 49.5077 73.3054C49.4249 73.3882 49.3214 73.471 49.2386 73.5538L49.0936 73.678C49.0729 73.6987 49.0522 73.6987 49.0315 73.7194C48.8452 73.8643 48.6382 73.9885 48.4519 74.1127L48.3898 74.1541C48.3898 74.1541 48.3484 74.1748 48.3277 74.1956H48.307L48.2035 74.237C48.0999 74.2784 47.9964 74.3198 47.8722 74.3612C47.7687 74.4026 47.6445 74.444 47.541 74.4647L47.3754 74.5061L47.2512 74.5268C47.2305 74.5268 47.2098 74.5475 47.1891 74.5475C47.0441 74.4854 46.8992 74.4233 46.7336 74.3819C46.5059 74.3198 46.2575 74.3198 46.0297 74.3612C45.4087 74.4854 44.8497 74.8373 44.4771 75.3549C44.1459 75.7896 43.856 76.2451 43.5248 76.6798C42.469 78.1703 41.4132 79.6816 40.4195 81.2342C39.3844 82.8283 38.3907 84.4431 37.3763 86.0578C37.19 86.3683 36.983 86.6789 36.7759 87.0101C36.7759 87.0308 36.7552 87.0308 36.7552 87.0515C36.3826 87.6105 36.2584 88.335 36.424 88.9768C36.5275 89.3287 36.7552 89.5979 37.0244 89.8256C37.0658 89.9912 37.0865 90.1568 37.1072 90.3224C37.1072 90.3845 37.1072 90.4466 37.1072 90.5087C37.1072 90.5294 37.1072 90.5294 37.1072 90.5501C37.1072 90.5708 37.1072 90.5915 37.1072 90.5915C37.1072 90.6537 37.1072 90.7158 37.0865 90.7779C37.0658 90.84 37.0658 90.9228 37.0451 91.0056C37.0451 91.047 37.0244 91.0884 37.0244 91.1091C37.0037 91.1919 36.983 91.2747 36.9623 91.3575C36.9623 91.3989 36.9416 91.4403 36.9209 91.461C36.9002 91.5024 36.8173 91.6888 36.9002 91.5231C36.838 91.6681 36.7759 91.813 36.7138 91.9579L36.6517 92.0821C36.6517 92.1028 36.631 92.1235 36.6103 92.1442C36.5689 92.2063 36.5482 92.2684 36.5068 92.3305C36.3205 92.6203 36.1342 92.9102 35.9272 93.2C35.9065 93.2414 35.8651 93.2828 35.8444 93.3242L35.6994 93.5312L35.3682 94.0074L34.685 94.939L33.3394 96.8022L31.8282 98.8724C31.7039 99.038 31.6004 99.2243 31.5383 99.452C31.5176 99.5555 31.4762 99.7625 31.6211 99.8246L33.7949 100.963L37.2728 102.785L38.0802 103.199C38.3493 103.344 38.6391 102.93 38.7426 102.764C39.1153 102.205 39.4879 101.646 39.8812 101.087C39.9019 101.046 39.9641 100.984 39.9848 100.963C40.0262 100.922 40.0883 100.818 40.1504 100.756C40.2539 100.611 40.3574 100.466 40.4609 100.321C40.6679 100.052 40.8749 99.7625 41.1027 99.4934C41.5374 98.9552 41.9721 98.4169 42.4276 97.8994C42.5311 97.7751 42.6346 97.6716 42.7381 97.5474L42.8002 97.4853C42.8623 97.4232 42.9244 97.3404 43.0072 97.2783C43.1315 97.1541 43.235 97.0506 43.3592 96.9471L43.5248 96.8022L43.6076 96.7193C43.6697 96.6779 43.649 96.6779 43.5869 96.7193L43.649 96.6779C43.7939 96.5744 43.9388 96.4709 44.0838 96.3881C44.1666 96.3467 44.2287 96.3053 44.3115 96.2639C44.3322 96.2639 44.3529 96.2432 44.3736 96.2432L44.4771 96.2018C44.6427 96.119 44.8083 96.0569 44.9739 96.0155C45.1189 95.9741 45.2638 95.9327 45.4087 95.912C45.4501 95.912 45.4915 95.912 45.5329 95.912C45.7606 96.0362 45.9883 96.1397 46.2368 96.2225C46.4645 96.2846 46.7129 96.3053 46.9406 96.2846C47.541 96.2018 48.0792 95.912 48.4726 95.4772C48.8038 95.0839 49.1143 94.6491 49.3628 94.1937C49.9217 93.3656 50.46 92.5375 50.9982 91.6888C51.4744 90.9435 51.9712 90.1982 52.4267 89.4529C52.7993 88.8526 53.1512 88.2315 53.5239 87.6312C53.6688 87.4034 53.8137 87.155 53.9379 86.9273C54.1035 87.0101 54.2898 87.0515 54.4762 86.9894C55.0765 86.8652 55.4699 86.2648 55.739 85.768L56.1323 85.0434C56.3393 84.7122 56.505 84.3395 56.5878 83.9669C56.6706 83.6564 56.5464 83.3458 56.3186 83.1388C56.2772 83.1181 56.2358 83.0767 56.1944 83.056C56.1944 83.0353 56.2151 83.0353 56.2151 83.0146C56.36 82.6834 56.4222 82.3314 56.4222 81.9795C56.4015 81.462 56.1737 80.9651 55.7597 80.6132C55.7183 80.5718 55.6769 80.5511 55.6355 80.5097C55.5941 80.344 55.5734 80.1784 55.5734 80.0128C55.5734 79.9921 55.5734 79.9714 55.5734 79.93C55.5734 79.9093 55.5734 79.8886 55.5734 79.8886V79.7851C55.5734 79.6816 55.5941 79.5781 55.6148 79.4746C55.6148 79.4125 55.6355 79.3711 55.6355 79.3089C55.6355 79.2468 55.6355 79.3504 55.6355 79.3504L55.6562 79.2882C55.6769 79.1847 55.7183 79.0812 55.739 78.9777C55.7597 78.9363 55.7597 78.8949 55.7804 78.8742C55.7804 78.8535 55.8011 78.8328 55.8011 78.8328C55.8425 78.7293 55.8839 78.6258 55.9253 78.5223C55.946 78.4809 55.9667 78.4188 55.9874 78.3774C56.0081 78.336 56.1116 78.191 55.9874 78.3567C56.0495 78.2531 56.0909 78.1703 56.153 78.0668C56.2565 77.8805 56.3808 77.7149 56.505 77.5286L56.6706 77.2801L56.7534 77.1766C56.7741 77.1559 56.7741 77.1352 56.7948 77.1352L57.1053 76.7005C58.0162 75.4377 58.9064 74.1748 59.8173 72.912C60.2934 72.2289 60.7903 71.5664 61.2664 70.8832C61.3906 70.7176 61.4941 70.5313 61.5563 70.3243C61.6598 70.1794 61.6805 69.993 61.5563 69.9102Z" fill="#0E1E36"/>
</g>
<path id="Vector_18" d="M83.5836 97.0505C83.9976 97.0298 84.4324 97.0713 84.8257 97.1955L84.7429 97.1748C85.4882 97.4025 86.1506 97.8165 86.6889 98.3962L86.6268 98.3341C86.9373 98.6653 87.1857 99.0586 87.3721 99.4727C87.4135 99.5762 87.4549 99.659 87.4756 99.7625C87.4756 99.7832 87.4963 99.8246 87.4963 99.8453C87.4963 99.866 87.517 99.9488 87.4963 99.866C87.517 99.9281 87.5377 99.9902 87.5377 100.032C87.5791 100.259 87.6205 100.487 87.6205 100.736V100.839C87.6205 100.818 87.6205 100.736 87.6205 100.839C87.6205 100.901 87.6205 100.963 87.6205 101.025C87.6205 101.17 87.5998 101.294 87.5791 101.439C87.5791 101.46 87.5791 101.501 87.5584 101.522C87.5377 101.543 87.517 101.667 87.5584 101.564C87.5998 101.46 87.5584 101.605 87.5377 101.605C87.517 101.605 87.517 101.667 87.517 101.688C87.4756 101.833 87.4342 101.957 87.3927 102.102C87.372 102.164 87.3513 102.205 87.3306 102.267C87.3928 102.081 87.3306 102.288 87.3099 102.33C87.2478 102.454 87.2064 102.578 87.1443 102.723C87.0822 102.847 87.0201 102.951 86.958 103.075C87.0408 102.868 86.958 103.075 86.9373 103.116L86.8131 103.323C86.5233 103.799 86.2127 104.255 85.9022 104.71C85.8194 104.814 85.7573 104.917 85.6745 105.021L85.571 105.166L85.5089 105.249C85.4675 105.311 85.6124 105.083 85.5089 105.228C85.364 105.435 85.1983 105.663 85.0327 105.87C84.8671 106.077 84.7015 106.284 84.5359 106.491L84.4117 106.636L84.3496 106.698C84.3496 106.718 84.246 106.822 84.3289 106.718C84.4117 106.615 84.3081 106.739 84.3081 106.739L84.246 106.801L84.1011 106.946C84.0183 107.029 83.9148 107.112 83.832 107.195L83.6871 107.319C83.6664 107.339 83.625 107.36 83.6043 107.381L83.6664 107.339L83.6043 107.381C83.3973 107.526 83.1902 107.671 82.9832 107.795L82.9004 107.836C82.8797 107.836 82.7762 107.898 82.8383 107.878C82.9004 107.857 82.7969 107.898 82.7969 107.898L82.6934 107.94C82.5692 107.981 82.445 108.043 82.3415 108.085C82.2379 108.126 82.093 108.168 81.9481 108.188L81.7411 108.23C81.7204 108.23 81.6583 108.25 81.7411 108.23L81.6376 108.25C81.12 108.333 80.5818 108.292 80.0849 108.147L80.1677 108.168C79.7744 108.043 79.4225 107.857 79.0912 107.588C79.0084 107.526 78.8428 107.588 78.7807 107.65C78.6358 107.753 78.5116 107.878 78.4288 108.023C78.3046 108.23 78.1182 108.623 78.3253 108.809C79.3811 109.72 80.9337 109.699 82.1758 109.223C83.6457 108.644 84.7636 107.422 85.6745 106.18C86.6682 104.835 87.7033 103.427 88.2829 101.833C88.5728 101.067 88.697 100.239 88.6142 99.4313C88.5314 98.7688 88.3036 98.1478 87.931 97.6095C87.2064 96.5123 86.0057 95.7877 84.6808 95.6842C84.5152 95.6635 84.3703 95.6635 84.2046 95.6842C83.8941 95.7049 83.6457 96.0568 83.5215 96.3053C83.4387 96.5123 83.273 97.0505 83.5836 97.0505Z" fill="white"/>
<path id="Vector_19" d="M64.2061 121.541C62.6742 122.618 61.7219 124.336 61.5977 126.199C61.5563 127.027 61.7012 127.855 62.0531 128.621C62.4051 129.346 62.9019 129.967 63.523 130.464C64.2268 131.023 65.0549 131.375 65.9451 131.499C66.0693 131.519 66.2142 131.395 66.297 131.333C66.442 131.209 66.5455 131.043 66.6283 130.878C66.7111 130.712 66.856 130.277 66.5455 130.236C66.3178 130.215 66.1107 130.153 65.883 130.091L65.9658 130.112C65.0756 129.843 64.289 129.346 63.6679 128.663L63.73 128.725C63.3988 128.352 63.1089 127.917 62.9019 127.462C62.8605 127.358 62.7984 127.234 62.757 127.11C62.7363 127.048 62.7156 126.986 62.6949 126.944C62.6949 126.924 62.6742 126.903 62.6742 126.882C62.6949 126.965 62.6535 126.82 62.6535 126.799C62.5914 126.551 62.55 126.303 62.5293 126.054C62.5086 125.93 62.5086 125.806 62.5086 125.681C62.5086 125.785 62.5086 125.723 62.5086 125.702C62.5086 125.681 62.5086 125.619 62.5086 125.599C62.5086 125.578 62.5086 125.454 62.5293 125.392C62.5293 125.267 62.55 125.143 62.5707 125.04C62.5707 124.978 62.5914 124.916 62.6121 124.853C62.5914 125.019 62.6121 124.895 62.6121 124.853L62.6328 124.75C62.6742 124.626 62.6949 124.501 62.7363 124.398C62.757 124.336 62.8398 124.15 62.757 124.357C62.7777 124.294 62.7984 124.232 62.8191 124.191C62.8605 124.067 62.9226 123.963 62.9847 123.86C63.0468 123.756 62.9019 124.005 62.964 123.922L63.0054 123.839C63.0468 123.777 63.0882 123.715 63.1296 123.653L63.171 123.591C63.1917 123.57 63.2746 123.425 63.1917 123.549C63.1089 123.673 63.1917 123.549 63.1917 123.528L63.2539 123.446C63.2953 123.384 63.3574 123.321 63.3988 123.28L63.4402 123.218C63.5644 123.073 63.3574 123.301 63.4402 123.218C63.523 123.135 63.6472 123.032 63.7507 122.928L63.8128 122.866C63.8542 122.845 63.9577 122.762 63.8128 122.866C63.8749 122.825 63.937 122.783 63.9991 122.721C64.289 122.514 64.496 122.204 64.5374 121.852C64.5374 121.748 64.5374 121.603 64.4339 121.541C64.3304 121.5 64.2061 121.52 64.1233 121.582H64.2061V121.541Z" fill="white"/>
<path id="Vector_20" d="M70.2304 129.884C68.802 131.478 68.2844 133.693 68.8641 135.763C69.1332 136.654 69.6508 137.461 70.3546 138.082C71.0585 138.682 71.9073 139.096 72.8182 139.283C73.8326 139.51 74.8884 139.428 75.8821 139.055C76.1926 138.889 76.4203 138.62 76.5031 138.268C76.5445 138.082 76.5652 137.668 76.2547 137.792C76.0063 137.896 75.7372 137.978 75.468 138.02L75.3645 138.041H75.3231L75.1161 138.061C74.9712 138.082 74.847 138.082 74.7021 138.082C74.1431 138.103 73.5842 138.02 73.0666 137.875L73.1494 137.896C72.2178 137.627 71.369 137.109 70.7273 136.405L70.7894 136.467C70.4788 136.115 70.2097 135.722 70.0027 135.287C69.8992 135.08 69.8164 134.852 69.7543 134.625C69.7336 134.563 69.775 134.728 69.7543 134.604L69.7336 134.542C69.7129 134.48 69.7129 134.438 69.6922 134.376C69.6715 134.252 69.6508 134.128 69.6301 134.004C69.5887 133.776 69.568 133.528 69.568 133.3V133.196C69.568 133.113 69.568 133.196 69.568 133.217C69.568 133.155 69.568 133.093 69.568 133.031C69.568 132.906 69.5887 132.782 69.6094 132.658C69.6301 132.534 69.6508 132.43 69.6508 132.327C69.6508 132.306 69.6508 132.285 69.6715 132.265C69.6922 132.14 69.6508 132.368 69.6715 132.285C69.6922 132.203 69.7129 132.161 69.7129 132.078C69.7336 131.975 69.775 131.871 69.8164 131.768L69.8785 131.602C69.8992 131.519 69.8164 131.768 69.8578 131.644C69.8785 131.602 69.8785 131.582 69.8992 131.54C69.9406 131.416 70.0027 131.292 70.0648 131.188C70.0855 131.147 70.1476 131.043 70.0234 131.25L70.0855 131.147C70.1269 131.085 70.1476 131.043 70.189 130.981L70.2925 130.816C70.3339 130.774 70.396 130.691 70.2511 130.857C70.2718 130.836 70.2925 130.795 70.3132 130.774C70.396 130.671 70.4788 130.567 70.5824 130.464C70.7066 130.319 70.7894 130.153 70.8515 129.967C70.8929 129.843 70.8929 129.698 70.8515 129.573C70.7066 129.387 70.3339 129.76 70.2304 129.884Z" fill="white"/>
<path id="Vector_21" d="M85.0944 145.928C85.26 147.191 86.0467 148.309 87.1853 148.909C88.3653 149.51 89.7316 149.385 90.8703 148.744C91.5948 148.329 92.1952 147.729 92.6092 147.005C92.7127 146.86 92.7748 146.694 92.7955 146.508C92.7955 146.404 92.7955 146.259 92.7127 146.197C92.4643 146.052 92.1331 146.466 92.0503 146.632C92.0089 146.715 91.9468 146.798 91.8847 146.88C91.8226 146.963 92.0089 146.715 91.8847 146.88L91.7811 147.005C91.7397 147.046 91.719 147.067 91.6776 147.108C91.8018 146.942 91.719 147.067 91.6776 147.108C91.6362 147.149 91.5534 147.232 91.4913 147.274L91.4292 147.315C91.3878 147.356 91.3878 147.356 91.4706 147.294C91.4292 147.315 91.3878 147.356 91.3464 147.377C91.2636 147.439 91.1808 147.481 91.098 147.543L90.9738 147.626C90.9531 147.646 90.8082 147.729 90.9324 147.646C90.8496 147.688 90.7668 147.729 90.6839 147.75C90.4976 147.812 90.332 147.874 90.125 147.915L89.9801 147.957C89.9387 147.957 89.9387 147.957 89.9801 147.957H89.918C89.8352 147.978 89.7317 147.978 89.6488 147.978C89.2555 147.998 88.8622 147.957 88.4895 147.853L88.5723 147.874C87.9306 147.667 87.3302 147.294 86.8748 146.798L86.9369 146.86C86.5642 146.466 86.2951 145.99 86.1502 145.452C86.1709 145.555 86.1295 145.39 86.1295 145.39L86.1088 145.286C86.0881 145.183 86.0674 145.1 86.0674 144.996C86.026 144.686 85.6948 144.831 85.5291 144.976C85.3014 145.224 85.053 145.597 85.0944 145.928Z" fill="white"/>
<path id="Vector_22" d="M77.0207 139.821C76.8551 141.332 77.3933 142.823 78.4905 143.858C79.5877 144.893 81.1197 145.224 82.5688 144.893C83.4383 144.707 84.225 144.272 84.8667 143.672C85.0117 143.547 85.1152 143.382 85.198 143.216C85.2808 143.071 85.3015 142.926 85.3015 142.761C85.2394 142.45 84.9288 142.574 84.7632 142.74C84.6804 142.802 84.6183 142.885 84.5355 142.947C84.4527 143.009 84.639 142.864 84.5355 142.947C84.4941 142.968 84.4527 143.009 84.4113 143.03C84.2664 143.133 84.1215 143.216 83.9559 143.299H83.9766L83.9144 143.34L83.7695 143.402C83.6867 143.444 83.6039 143.464 83.5211 143.506C83.3555 143.568 83.1692 143.609 82.9829 143.651L82.8586 143.672C82.8172 143.672 82.8172 143.672 82.8586 143.672L82.7758 143.692C82.693 143.713 82.6102 143.713 82.5067 143.734C82.3204 143.754 82.1341 143.754 81.9478 143.754C81.5751 143.734 81.2025 143.692 80.8506 143.589L80.9334 143.609C80.1881 143.382 79.5256 142.968 79.0081 142.409L79.0702 142.471C78.6561 142.015 78.3456 141.477 78.1386 140.877C78.1179 140.835 78.1179 140.815 78.0972 140.773C78.0765 140.732 78.0972 140.732 78.0765 140.711C78.0765 140.753 78.0972 140.753 78.0765 140.732C78.0558 140.649 78.0351 140.566 78.0144 140.483C77.973 140.338 77.9523 140.194 77.9316 140.049C77.9109 139.904 77.9109 139.759 77.9109 139.593C77.9109 139.469 77.9109 139.676 77.9109 139.573V139.469C77.9109 139.386 77.9316 139.303 77.9316 139.2C77.9316 139.096 77.9316 138.951 77.8488 138.889C77.7452 138.848 77.621 138.869 77.5382 138.931C77.2691 139.179 77.0828 139.49 77.0207 139.821Z" fill="white"/>
<path id="Vector_23" d="M127.161 132.637C124.739 131.437 122.337 130.194 119.977 128.911C117.659 127.627 115.361 126.323 113.104 124.936C111.821 124.15 110.537 123.363 109.254 122.555C109.15 122.493 109.026 122.555 108.943 122.597C108.798 122.7 108.674 122.825 108.591 122.969C108.488 123.114 108.426 123.28 108.405 123.466C108.405 123.57 108.384 123.715 108.488 123.777C110.744 125.205 113.042 126.572 115.34 127.917C117.659 129.263 119.977 130.546 122.317 131.768C123.662 132.472 125.029 133.176 126.416 133.838C126.685 133.962 126.975 133.59 127.078 133.403C127.182 133.258 127.244 133.093 127.265 132.906C127.244 132.844 127.265 132.679 127.161 132.637Z" fill="#0E1E36"/>
<path id="Vector_24" d="M114.533 140.421C112.69 139.428 110.889 138.392 109.13 137.254C107.432 136.157 105.797 134.977 104.223 133.714C103.271 132.969 102.36 132.203 101.449 131.416C101.366 131.354 101.201 131.437 101.139 131.478C100.994 131.582 100.869 131.706 100.787 131.851C100.662 132.058 100.476 132.451 100.683 132.637C102.257 134.004 103.892 135.329 105.569 136.55C107.204 137.751 108.881 138.848 110.62 139.883C111.655 140.504 112.711 141.084 113.767 141.643C114.015 141.788 114.326 141.394 114.429 141.208C114.533 141.063 114.595 140.897 114.616 140.732C114.636 140.628 114.636 140.483 114.533 140.421Z" fill="#0E1E36"/>
<path id="Vector_25" d="M104.72 146.135C103.209 145.286 101.718 144.396 100.269 143.444C98.8823 142.533 97.5159 141.56 96.2117 140.525C95.4457 139.904 94.6798 139.262 93.9345 138.579C93.8517 138.517 93.6861 138.6 93.624 138.62C93.4791 138.724 93.3548 138.848 93.272 138.993C93.1478 139.2 92.9615 139.593 93.1685 139.78C94.4521 140.939 95.777 142.036 97.1847 143.05C98.5303 144.044 99.9381 144.955 101.346 145.804C102.195 146.321 103.064 146.818 103.934 147.315C104.182 147.46 104.493 147.067 104.596 146.88C104.7 146.735 104.762 146.57 104.782 146.404C104.803 146.342 104.824 146.197 104.72 146.135Z" fill="#0E1E36"/>
<path id="Vector_26" d="M168.689 95.7256L171.67 100.798L172.519 102.247C172.767 102.682 173.658 101.564 173.409 101.15L170.428 96.0776L169.579 94.6284C169.31 94.2144 168.441 95.3323 168.689 95.7256Z" fill="#0E1E36"/>
<path id="Vector_27" d="M171.981 96.7814C172.809 97.299 173.058 98.3755 172.54 99.2036C172.023 100.032 170.946 100.28 170.118 99.7625C169.29 99.245 169.041 98.1685 169.559 97.3404C170.035 96.5537 171.05 96.2846 171.857 96.6986" fill="#0E1E36"/>
<path id="Vector_28" d="M171.588 97.3818C171.712 97.4646 171.816 97.5681 171.919 97.6716L171.857 97.6095C171.981 97.7544 172.064 97.8993 172.147 98.065C172.167 98.1064 172.188 98.1478 172.188 98.1892C172.188 98.2306 172.23 98.3548 172.209 98.2513C172.23 98.3341 172.25 98.3962 172.25 98.479C172.25 98.5204 172.25 98.5618 172.271 98.6239C172.292 98.686 172.271 98.6653 172.271 98.686C172.271 98.7481 172.271 98.7274 172.271 98.6446C172.312 98.686 172.23 98.8516 172.25 98.9137C172.271 98.8102 172.271 98.7895 172.25 98.8516V98.893C172.23 98.9344 172.23 98.9758 172.209 99.0173C172.25 98.8102 172.23 98.9551 172.209 99.0173C172.167 99.1208 172.312 98.8309 172.209 98.9965C172.105 99.1622 172.312 98.893 172.23 98.9759C172.209 98.9966 172.209 99.0173 172.188 99.0173C172.147 99.0587 172.167 99.0587 172.23 98.9551C172.209 98.9759 172.167 99.0173 172.147 99.038C172.043 99.1415 172.25 98.9758 172.147 99.038C172.105 99.0794 171.981 99.1829 171.919 99.1829C171.981 99.1415 172.002 99.1415 171.94 99.1622L171.878 99.1829C171.836 99.2036 171.795 99.2243 171.753 99.2243C171.671 99.245 171.609 99.2657 171.526 99.2864C171.629 99.2657 171.484 99.2864 171.464 99.2864H171.319C171.132 99.2864 170.967 99.2657 170.78 99.2243L170.863 99.245C170.573 99.1622 170.325 98.9966 170.118 98.7688L170.18 98.8309C170.056 98.686 169.952 98.5411 169.89 98.3755C169.87 98.3341 169.849 98.2927 169.849 98.2513C169.849 98.2099 169.807 98.0857 169.828 98.1892C169.807 98.1064 169.787 98.0443 169.787 97.9614C169.787 97.92 169.787 97.8786 169.766 97.8165C169.745 97.7544 169.766 97.7751 169.766 97.7544C169.766 97.6923 169.766 97.713 169.766 97.7958C169.745 97.7751 169.766 97.6923 169.766 97.6509C169.766 97.6095 169.787 97.5681 169.787 97.506C169.766 97.6095 169.766 97.6302 169.787 97.5681V97.5267C169.807 97.4853 169.807 97.4439 169.828 97.4025C169.766 97.6095 169.807 97.4646 169.828 97.4025C169.87 97.2783 169.725 97.5888 169.828 97.4232C169.89 97.3197 169.704 97.5888 169.807 97.4439L169.849 97.4025C169.89 97.3404 169.89 97.3611 169.807 97.4646C169.828 97.4439 169.87 97.4025 169.89 97.3818C169.994 97.2783 169.787 97.4439 169.89 97.3818C169.932 97.3611 170.077 97.2369 170.118 97.2369C170.056 97.2783 170.035 97.2783 170.097 97.2576L170.159 97.2369L170.284 97.1955C170.366 97.1748 170.429 97.1541 170.511 97.1334C170.408 97.1541 170.553 97.1334 170.573 97.1334H170.718C170.905 97.1334 171.07 97.1541 171.257 97.1955L171.174 97.1748C171.277 97.1955 171.36 97.2369 171.464 97.2783C171.712 97.4025 172.023 97.0299 172.126 96.8435C172.23 96.6986 172.292 96.533 172.312 96.3674C172.312 96.2639 172.333 96.119 172.23 96.0569C171.422 95.6428 170.449 95.912 169.807 96.4709C169 97.1748 168.627 98.3134 168.979 99.3278C169.248 100.094 169.994 100.611 170.801 100.57C171.898 100.528 172.747 99.7004 173.12 98.7067C173.451 97.7958 173.223 96.6572 172.375 96.119C172.271 96.0569 172.147 96.119 172.064 96.1811C171.774 96.3881 171.588 96.6986 171.526 97.0506C171.484 97.1748 171.484 97.299 171.588 97.3818Z" fill="#0E1E36"/>
</g>
</g>
</svg>
