<svg width="200" height="200" viewBox="0 0 200 200" fill="none" xmlns="http://www.w3.org/2000/svg">
<rect width="200" height="200" fill="white"/>
<path d="M158.584 119.546C154.816 118.351 151.047 117.051 147.304 115.777C143.432 114.478 139.585 113.126 135.66 111.983C134.283 111.593 132.905 111.307 131.476 111.125C131.632 106.966 130.202 102.938 128.019 99.4549C125.68 95.7382 122.457 92.6452 119.312 89.6303C116.245 86.6673 113.126 83.7043 110.735 80.1695C109.565 78.48 108.629 76.6607 107.902 74.7373C107.122 72.554 106.914 70.2928 106.654 68.0056C106.264 64.3928 105.224 59.7144 101.222 58.5188C97.661 57.4532 93.9443 59.8963 92.0989 62.8073C89.7857 66.4721 89.5517 70.9686 89.4738 75.1792C89.3438 80.0135 89.6037 84.8479 90.2535 89.6562C83.8597 87.7069 77.2839 86.3814 70.6302 85.7576C67.5372 85.4717 64.1583 85.1078 61.1694 86.2254C58.5702 87.2131 56.6209 89.3963 55.9451 92.0994C55.3993 94.1787 55.6072 96.44 56.6729 98.2853C54.0738 98.6752 51.7086 100.261 50.2271 102.47C48.4077 105.147 48.5376 108.422 49.6553 111.359C50.1231 112.658 50.8508 113.854 51.7865 114.842C49.8372 116.505 48.5116 118.844 48.1478 121.443C47.7579 124.458 49.0055 127.136 51.3187 129.033C52.1764 129.735 53.1381 130.306 54.1517 130.722C53.424 131.32 52.8262 132.074 52.3583 132.802C51.4227 134.283 50.9028 135.973 51.0848 137.74C51.2667 139.689 52.0464 141.509 53.346 142.964C54.0478 143.718 54.9315 144.29 55.8152 144.836C56.7768 145.459 57.7645 146.005 58.8042 146.499C60.9354 147.487 63.2746 147.929 65.5099 148.552C67.6672 149.15 69.8244 149.748 71.9817 150.346C75.9843 151.463 80.013 152.633 84.0416 153.699C88.0702 154.764 92.1509 155.804 96.2575 156.688C98.4667 157.155 100.702 157.623 102.937 158.013C105.276 158.481 107.616 158.819 109.981 159.053C113.49 159.339 116.946 159.053 120.455 158.663C121.079 158.585 121.703 158.533 122.327 158.455C122.613 158.429 122.639 158.377 122.898 158.455C123.522 158.637 124.12 158.975 124.718 159.235C129.942 161.444 135.192 163.627 140.494 165.603C141.04 165.81 141.56 165.992 142.106 166.2C142.6 166.382 143.016 165.603 143.146 165.239L144.705 160.742L148.396 149.93L152.866 136.934L156.739 125.654C157.363 123.835 158.065 122.015 158.61 120.196L158.636 120.118C158.714 120.014 158.792 119.624 158.584 119.546Z" fill="#4A57F6"/>
<path d="M59.116 100.469C61.6892 100.702 64.2623 100.988 66.8354 101.352C69.4085 101.69 71.9557 102.106 74.5028 102.548C75.7764 102.782 77.0499 103.016 78.3235 103.276C79.5451 103.51 80.7667 103.743 81.9883 104.081C84.0416 104.653 86.1729 105.615 87.4724 107.33C88.1222 108.188 88.5381 109.176 88.72 110.215C88.824 110.787 88.85 111.333 88.85 111.905V111.879C88.85 111.931 88.85 111.957 88.85 112.009V112.191C88.85 112.347 88.824 112.503 88.824 112.632C88.798 112.918 88.772 113.204 88.72 113.464C88.694 113.594 88.668 113.698 88.668 113.802C88.668 113.854 88.642 113.932 88.642 113.984C88.642 114.01 88.616 114.088 88.642 113.984C88.668 113.88 88.642 114.036 88.642 114.036C88.59 114.296 88.5121 114.53 88.4341 114.764C88.3821 114.894 88.3561 114.998 88.3041 115.128C88.3041 115.128 88.3821 114.972 88.3301 115.05C88.3301 115.076 88.3041 115.102 88.3041 115.128L88.2262 115.336C88.1742 115.44 88.1222 115.569 88.0702 115.673C88.0182 115.777 88.1742 115.491 88.0702 115.647C88.0442 115.699 87.9922 115.777 87.9662 115.829C87.9403 115.881 87.9143 115.933 87.8623 115.985L87.8103 116.037C87.7323 116.167 87.8623 115.985 87.8623 115.985C87.7843 116.089 87.7063 116.193 87.6024 116.297C87.5764 116.323 87.4724 116.453 87.5504 116.349C87.6284 116.245 87.4984 116.401 87.4724 116.427L87.3425 116.557L87.2905 116.609C87.2905 116.609 87.1605 116.713 87.2385 116.661C87.3165 116.609 87.1605 116.713 87.1345 116.739L87.0046 116.817C86.9006 116.895 86.7707 116.947 86.6667 117.025L86.5887 117.077C86.7187 117.025 86.6147 117.051 86.5887 117.077L86.4068 117.155C86.3028 117.207 86.1729 117.259 86.0689 117.285C85.835 117.363 85.5751 117.441 85.3151 117.493C85.1072 117.545 84.8733 117.571 84.6394 117.597C84.1196 117.649 83.5997 117.649 83.0799 117.623C81.9363 117.571 80.7927 117.389 79.6491 117.259C77.0759 116.947 74.5028 116.661 71.9297 116.375C69.3566 116.089 66.7834 115.777 64.2363 115.414C61.6892 115.05 59.116 114.66 56.5689 114.166C55.9451 114.036 55.3213 113.932 54.6975 113.802C54.5676 113.776 54.3596 113.932 54.2557 114.01C54.0737 114.166 53.9438 114.374 53.8398 114.582C53.7358 114.816 53.5799 115.31 53.9438 115.388C56.5429 115.933 59.142 116.375 61.7671 116.739C64.3922 117.103 66.9914 117.441 69.5905 117.753C72.1896 118.065 74.8407 118.351 77.4918 118.662C78.7394 118.818 79.9869 118.974 81.2345 119.104C82.3002 119.234 83.3658 119.234 84.4055 119.104C85.5491 118.948 86.6147 118.454 87.4724 117.675C88.3821 116.791 89.0579 115.699 89.4218 114.478C89.7596 113.386 89.9676 112.269 89.9936 111.125C90.0455 109.903 89.8636 108.682 89.4477 107.538C88.668 105.459 86.8486 104.003 84.8473 103.146C83.6777 102.678 82.4561 102.288 81.2085 102.054C79.935 101.768 78.6614 101.534 77.3878 101.274C74.7887 100.78 72.1896 100.339 69.5645 99.9487C66.9394 99.5589 64.3403 99.247 61.6891 98.9611C61.0394 98.9091 60.4156 98.8311 59.7658 98.7791C59.298 98.8051 58.4922 100.417 59.116 100.469Z" fill="white"/>
<path d="M80.1691 119.156C80.611 119.208 81.0269 119.286 81.4427 119.39L81.3128 119.364C82.5863 119.728 83.7559 120.43 84.6396 121.417L84.5617 121.34C84.8995 121.703 85.1854 122.119 85.4194 122.561C85.5493 122.795 85.6533 123.029 85.7313 123.263C85.7832 123.393 85.8092 123.497 85.8612 123.627C85.8612 123.653 85.8872 123.679 85.8872 123.731C85.8872 123.783 85.9132 123.809 85.8872 123.757C85.8612 123.705 85.8872 123.809 85.9132 123.809L85.9392 123.939C85.9912 124.199 86.0432 124.458 86.0691 124.718C86.0951 124.848 86.0951 124.978 86.0951 125.082C86.1211 125.212 86.1211 125.342 86.0951 125.472C86.0951 125.446 86.0951 125.342 86.0951 125.446C86.0951 125.472 86.0951 125.498 86.0951 125.524C86.0951 125.602 86.0951 125.654 86.0951 125.732C86.0951 125.862 86.0691 125.992 86.0432 126.122C86.0172 126.252 86.0172 126.382 85.9912 126.486C85.9912 126.512 85.9912 126.538 85.9912 126.564C85.9652 126.668 86.0172 126.434 85.9912 126.512C85.9652 126.616 85.9652 126.668 85.9392 126.72C85.9132 126.772 85.8872 126.954 85.8352 127.058C85.8092 127.11 85.7832 127.188 85.7832 127.24C85.7832 127.24 85.8612 127.032 85.8092 127.162L85.7573 127.24C85.7053 127.369 85.6533 127.473 85.6013 127.603C85.5753 127.629 85.4714 127.837 85.5753 127.681C85.6793 127.525 85.6013 127.629 85.5753 127.655C85.5493 127.681 85.5233 127.733 85.4973 127.785C85.4454 127.889 85.3674 127.993 85.3154 128.071C85.2634 128.149 85.3674 127.993 85.3674 127.993C85.3414 128.019 85.3154 128.045 85.3154 128.071C85.2634 128.123 85.2374 128.175 85.1854 128.227C85.1335 128.279 85.1075 128.331 85.0555 128.383C85.0035 128.435 84.8995 128.565 85.0035 128.461C85.1075 128.357 84.9515 128.513 84.9255 128.539L84.7696 128.669C84.6656 128.747 84.5876 128.851 84.4837 128.929C84.4317 128.955 84.2758 129.059 84.4317 128.981C84.3797 129.007 84.3277 129.059 84.2758 129.111C84.0678 129.267 83.8339 129.423 83.6 129.553L83.2621 129.735C83.3921 129.657 83.2101 129.761 83.1841 129.787L83.0022 129.865C82.7683 129.969 82.5084 130.073 82.2484 130.151C81.1048 130.514 79.9092 130.748 78.7136 130.774C77.4141 130.852 76.1145 130.826 74.8409 130.8C72.1898 130.748 69.5387 130.618 66.9136 130.436C64.2885 130.255 61.6374 129.969 59.0383 129.605L58.0506 129.475C57.8947 129.449 57.7127 129.605 57.6088 129.683C57.4268 129.839 57.2969 130.047 57.1929 130.255C57.0889 130.488 56.907 131.008 57.2969 131.06C60.4678 131.502 63.6387 131.84 66.8357 132.074C70.0066 132.308 73.2035 132.438 76.4004 132.412C77.9599 132.438 79.5454 132.282 81.0528 131.918C82.4044 131.58 83.652 130.93 84.7176 130.047C86.9528 128.149 87.8885 125.134 87.0828 122.301C86.355 119.884 84.2238 118.143 81.8066 117.597C81.5207 117.519 81.2088 117.493 80.9229 117.467C80.3511 117.493 79.5454 119.104 80.1691 119.156Z" fill="white"/>
<path d="M78.1937 132.542C78.5316 132.62 78.8694 132.698 79.2073 132.776L79.1034 132.75C80.8968 133.218 82.5082 134.179 83.7818 135.531L83.7038 135.453C84.3276 136.129 84.8214 136.934 85.1593 137.792C85.2113 137.896 85.2373 138 85.2893 138.104C85.3153 138.156 85.3153 138.208 85.3413 138.26C85.3672 138.312 85.3932 138.442 85.3672 138.338C85.4192 138.572 85.4712 138.806 85.5232 139.014C85.5752 139.247 85.6012 139.481 85.6012 139.715C85.6012 139.819 85.6012 139.923 85.6012 140.027C85.6012 140.027 85.6012 140.131 85.6012 140.027V140.079V140.261C85.6012 140.469 85.5752 140.677 85.5232 140.885C85.5232 140.937 85.4972 140.989 85.4972 141.067C85.4972 141.145 85.5232 140.989 85.5232 140.989C85.5232 141.015 85.5232 141.041 85.4972 141.067C85.4712 141.171 85.4452 141.301 85.4192 141.405C85.3932 141.509 85.3672 141.613 85.3153 141.717C85.3153 141.743 85.2893 141.769 85.2893 141.795C85.2633 141.873 85.3413 141.691 85.3153 141.691L85.2633 141.847C85.2113 141.951 85.1853 142.055 85.1333 142.132L85.0554 142.262C85.0294 142.288 85.0294 142.314 85.0034 142.34C85.0034 142.314 85.1073 142.158 85.0554 142.262C85.0034 142.366 84.9514 142.444 84.8994 142.522C84.8734 142.574 84.8474 142.6 84.8214 142.652C84.8214 142.678 84.7954 142.704 84.7695 142.704L84.8214 142.626C84.7694 142.704 84.6915 142.782 84.6135 142.886C84.5875 142.938 84.5355 142.964 84.5095 143.016L84.4576 143.068C84.3796 143.146 84.5875 142.938 84.5095 143.016C84.3536 143.172 84.1976 143.302 84.0417 143.432C83.9637 143.484 84.1717 143.354 84.0937 143.406L84.0417 143.458L83.9117 143.536C83.8078 143.588 83.7298 143.666 83.6258 143.718L83.4959 143.796L83.4179 143.848C83.3919 143.848 83.288 143.9 83.3659 143.874C83.4439 143.848 83.3659 143.874 83.3399 143.874L83.262 143.9C83.21 143.926 83.158 143.952 83.08 143.978C82.8721 144.082 82.6382 144.16 82.4042 144.212C82.3003 144.238 82.1703 144.264 82.0664 144.29L81.7545 144.342C81.8065 144.342 81.7285 144.342 81.7285 144.342L81.6245 144.368L81.4686 144.394C81.3386 144.42 81.2087 144.42 81.0787 144.446C80.117 144.524 79.1294 144.498 78.1677 144.394C75.9065 144.212 73.6712 144.004 71.41 143.796L64.5743 143.198L63.7426 143.12C63.1708 143.068 62.365 144.68 63.0148 144.732L71.6439 145.485L75.9584 145.875C77.232 146.031 78.5056 146.083 79.7791 146.083C81.0527 146.083 82.3003 145.745 83.4179 145.121C84.5355 144.42 85.4452 143.38 86.017 142.184C86.5628 141.067 86.8228 139.819 86.7448 138.598C86.6668 137.402 86.2769 136.232 85.6531 135.219C84.3536 133.088 82.1703 131.762 79.8051 131.112C79.5192 131.034 79.2333 130.956 78.9214 130.904C78.7915 130.878 78.5835 131.034 78.4796 131.112C78.2976 131.268 78.1677 131.476 78.0637 131.684C77.9598 131.918 77.8038 132.438 78.1677 132.516L78.1937 132.542Z" fill="white"/>
<path d="M81.6766 103.925C84.2497 104.237 86.9788 104.523 89.4479 103.432C90.1237 103.12 90.7735 102.73 91.3453 102.262C91.5272 102.106 91.6572 101.898 91.7611 101.69C91.8391 101.508 91.8911 101.326 91.8911 101.118C91.8131 100.703 91.4233 100.91 91.2153 101.092C91.1633 101.144 91.1114 101.17 91.0594 101.222C91.0594 101.196 91.1893 101.118 91.0854 101.196L91.0334 101.248C90.9034 101.326 90.7735 101.43 90.6435 101.508C90.5136 101.586 90.4356 101.638 90.3316 101.69C90.3056 101.716 90.1237 101.794 90.2537 101.742L90.0457 101.846C89.5259 102.08 88.9801 102.236 88.4343 102.366C88.3043 102.392 88.1744 102.418 88.0704 102.444C88.1484 102.444 88.0444 102.444 88.0444 102.444L87.9144 102.47L87.6805 102.496C87.3686 102.548 87.0827 102.548 86.7708 102.574C86.0951 102.6 85.4193 102.6 84.7695 102.548C84.0158 102.496 83.262 102.418 82.5083 102.314C82.3523 102.34 82.1964 102.418 82.0664 102.522C81.8845 102.678 81.7545 102.886 81.6506 103.094C81.4686 103.328 81.2867 103.873 81.6766 103.925Z" fill="white"/>
<path d="M89.1104 91.1377C89.1623 93.0091 89.3963 94.8805 89.8381 96.6999C91.1896 102.262 94.2046 107.252 98.4932 111.047C99.8967 112.295 101.43 113.386 103.068 114.296C103.276 114.4 103.483 114.53 103.691 114.634C104.003 114.79 104.393 114.322 104.523 114.088C104.653 113.906 104.731 113.698 104.757 113.49C104.757 113.36 104.783 113.178 104.653 113.1C102.496 111.957 100.495 110.527 98.7271 108.864C98.2333 108.396 97.7394 107.876 97.2716 107.356L97.3496 107.434C94.8284 104.627 92.9051 101.352 91.6835 97.7915C91.5795 97.4796 91.4755 97.1937 91.3976 96.8818L91.3456 96.6739C91.3456 96.6479 91.3196 96.5439 91.3456 96.6479C91.3456 96.6219 91.3196 96.5959 91.3196 96.5439C91.2676 96.388 91.2416 96.232 91.1896 96.0761C91.0337 95.4783 90.8778 94.8545 90.7738 94.2307C90.5139 92.8532 90.3579 91.4496 90.3319 90.0461C90.3319 89.9161 90.228 89.8122 90.098 89.7862C89.9421 89.8122 89.7861 89.8902 89.6562 89.9941C89.3183 90.28 89.1363 90.6959 89.1104 91.1377Z" fill="white"/>
<path d="M83.4696 105.979C80.5326 107.278 78.6092 110.709 79.389 113.88C79.5969 114.712 79.9608 115.517 80.4806 116.193C80.7145 116.479 81.1044 116.141 81.2604 115.933C81.4163 115.751 81.5203 115.543 81.5982 115.31C81.6242 115.18 81.7022 114.946 81.5982 114.816C81.1824 114.27 80.8705 113.672 80.6366 113.022L80.6106 112.918C80.6366 113.022 80.5846 112.866 80.5846 112.84C80.5586 112.762 80.5586 112.71 80.5326 112.632C80.4806 112.451 80.4546 112.295 80.4286 112.113C80.4026 111.931 80.4026 111.775 80.3767 111.593C80.3767 111.515 80.3767 111.463 80.3767 111.385C80.3767 111.203 80.3767 111.463 80.3767 111.359V111.177C80.3767 111.021 80.4026 110.865 80.4286 110.709C80.4286 110.631 80.4546 110.527 80.4806 110.449C80.5066 110.371 80.5326 110.319 80.4806 110.475C80.5066 110.423 80.5066 110.371 80.5066 110.319C80.5326 110.189 80.5846 110.033 80.6366 109.903C80.6626 109.851 80.6626 109.825 80.6885 109.773C80.6885 109.773 80.6106 109.981 80.6626 109.851C80.6885 109.773 80.7405 109.695 80.7665 109.617C80.7925 109.54 80.8185 109.488 80.8705 109.41L80.9225 109.306C80.9744 109.202 80.7925 109.514 80.8965 109.358C81.0004 109.202 81.0524 109.072 81.1564 108.942C81.1824 108.916 81.1824 108.89 81.2084 108.864C81.0524 109.098 81.1304 108.994 81.1564 108.916C81.1824 108.838 81.2344 108.786 81.2863 108.734L81.4423 108.552C81.4683 108.526 81.4943 108.5 81.4943 108.474C81.6242 108.344 81.3383 108.63 81.4683 108.5C81.5982 108.37 81.7282 108.24 81.8582 108.136L81.9361 108.084L82.0141 108.032C82.0661 107.98 82.0661 107.98 82.0141 108.032C81.9361 108.11 82.0141 108.032 82.0661 108.006L82.196 107.928C82.352 107.824 82.4819 107.72 82.6379 107.642C82.7159 107.59 82.7678 107.564 82.8458 107.538C82.7159 107.564 82.7938 107.564 82.8458 107.538L83.0018 107.46C83.3916 107.252 83.6775 106.914 83.7815 106.473C83.8335 106.317 83.8335 106.135 83.7815 105.979C83.7295 105.953 83.5736 105.901 83.4696 105.979Z" fill="white"/>
<path d="M80.8185 120.586C78.5573 122.171 77.2058 125.134 77.8815 127.863C78.0635 128.591 78.3754 129.293 78.7912 129.891C78.9992 130.203 79.415 129.839 79.571 129.631C79.7269 129.449 79.8309 129.241 79.9089 129.007C79.9348 128.877 80.0128 128.643 79.9089 128.513C79.2591 127.603 78.8952 126.486 78.8952 125.368C78.8952 125.342 78.8952 125.238 78.8952 125.368C78.8952 125.342 78.8952 125.29 78.8952 125.264C78.8952 125.238 78.8952 125.134 78.8952 125.082C78.8952 124.926 78.9212 124.77 78.9472 124.614C78.9732 124.536 78.9732 124.484 78.9732 124.406C78.9732 124.406 78.9472 124.562 78.9732 124.484L78.9992 124.38C79.0252 124.251 79.0771 124.095 79.1291 123.965C79.1551 123.913 79.1811 123.835 79.1811 123.783C79.1811 123.783 79.1031 123.965 79.1551 123.861L79.2071 123.757C79.2591 123.627 79.3111 123.497 79.389 123.367C79.389 123.341 79.415 123.315 79.441 123.289C79.441 123.289 79.337 123.471 79.389 123.393C79.441 123.315 79.441 123.289 79.493 123.211C79.545 123.081 79.6229 122.951 79.7269 122.847C79.7269 122.847 79.597 123.029 79.6489 122.951L79.7269 122.847C79.7789 122.769 79.8309 122.717 79.8829 122.639L80.0128 122.483C80.1168 122.379 79.9608 122.535 79.9608 122.535C79.9868 122.509 80.0128 122.483 80.0388 122.457C80.1428 122.353 80.2467 122.249 80.3767 122.145L80.4547 122.093C80.5586 122.015 80.4547 122.067 80.4287 122.093C80.4547 122.041 80.5846 121.963 80.6366 121.937C81.0005 121.703 81.2604 121.314 81.3384 120.872C81.3384 120.742 81.3384 120.56 81.2344 120.482C81.1044 120.482 80.9485 120.508 80.8185 120.586Z" fill="white"/>
<path d="M81.3386 135.895C79.6232 137.22 78.6615 139.273 78.7655 141.431C78.7914 141.951 78.9214 142.47 79.1033 142.938C79.1553 143.068 79.3113 143.068 79.4412 143.042C79.6232 142.964 79.7791 142.834 79.9091 142.678C80.143 142.392 80.4029 141.951 80.247 141.561C80.221 141.483 80.195 141.379 80.169 141.301C80.169 141.275 80.143 141.171 80.143 141.249L80.091 141.093C80.039 140.911 80.013 140.729 79.987 140.521C79.987 140.443 79.961 140.339 79.961 140.235C79.961 140.183 79.961 140.157 79.961 140.105C79.961 140.053 79.961 139.923 79.961 140.001C79.961 140.079 79.961 139.949 79.961 139.923C79.961 139.871 79.961 139.819 79.961 139.793C79.961 139.689 79.987 139.585 79.987 139.481C79.987 139.377 80.013 139.299 80.039 139.221C80.039 139.195 80.039 139.169 80.039 139.143C80.039 139.066 80.013 139.221 80.013 139.221C80.039 139.169 80.039 139.117 80.065 139.066C80.091 138.962 80.117 138.858 80.143 138.78C80.143 138.728 80.169 138.702 80.195 138.65C80.221 138.598 80.2729 138.442 80.221 138.572C80.169 138.702 80.221 138.572 80.247 138.52L80.2989 138.39C80.3509 138.312 80.3769 138.208 80.4289 138.13C80.5069 138 80.3249 138.312 80.4029 138.182L80.4809 138.052C80.5329 137.974 80.5848 137.87 80.6368 137.792C80.6888 137.714 80.5588 137.896 80.5588 137.896C80.5848 137.87 80.5848 137.844 80.6108 137.818L80.7148 137.688L80.8188 137.558C80.8447 137.532 80.9747 137.402 80.8707 137.506C80.7668 137.61 80.8967 137.48 80.9227 137.454L81.0527 137.35L81.1826 137.246C81.2346 137.22 81.3906 137.09 81.2086 137.22C81.5725 136.96 81.8324 136.57 81.8844 136.129C81.8844 135.999 81.8844 135.817 81.7544 135.739C81.5985 135.765 81.4425 135.791 81.3386 135.895Z" fill="white"/>
<path d="M86.1467 99.1431L85.9648 98.9611L86.0428 99.0391C85.6269 98.5712 85.289 97.9994 85.0551 97.4016C85.0291 97.3237 85.0031 97.2717 84.9771 97.1937L84.9511 97.1157L84.9251 97.0378C84.8732 96.8818 84.8472 96.7259 84.8212 96.5439C84.7952 96.362 84.7692 96.258 84.7692 96.1021C84.7692 96.0241 84.7692 95.9461 84.7692 95.8682C84.7692 95.8162 84.7692 95.7902 84.7692 95.7382C84.7692 95.8942 84.7692 95.7382 84.7692 95.7122C84.7692 95.5563 84.7952 95.4003 84.8212 95.2704C84.8212 95.1924 84.8472 95.1144 84.8732 95.0364C84.8992 94.9585 84.9251 94.9065 84.8732 95.0884C84.8992 95.0364 84.8992 94.9845 84.8992 94.9585C84.9251 94.8285 84.9771 94.6986 85.0291 94.5426C85.0811 94.3867 84.9771 94.6986 85.0031 94.5946L85.0551 94.4906C85.0811 94.4127 85.1071 94.3347 85.1591 94.2827C85.211 94.2307 85.341 93.9708 85.1851 94.2307C85.237 94.1787 85.263 94.1008 85.289 94.0488C85.315 93.9968 85.367 93.9188 85.419 93.8668C85.471 93.8149 85.445 93.8149 85.471 93.7889C85.315 94.0488 85.419 93.8668 85.445 93.8149C85.5229 93.7109 85.6269 93.5809 85.7049 93.477C85.7569 93.425 85.8348 93.347 85.6529 93.529L85.7309 93.451L85.9128 93.269C85.9648 93.2171 86.0428 93.1651 86.1207 93.0871C86.1467 93.0611 86.1727 93.0611 86.1987 93.0351C86.1207 93.1131 86.0947 93.1131 86.1467 93.0611L86.1987 93.0351C86.3287 92.9312 86.4846 92.8272 86.6406 92.7492C86.7185 92.6972 86.7965 92.6712 86.8745 92.6193C86.9525 92.5673 86.7445 92.6712 86.8745 92.6193L87.0044 92.5673C87.1604 92.4893 87.3163 92.4373 87.4983 92.3853C87.8881 92.2554 88.2 91.7875 88.278 91.3977C88.356 91.1378 88.356 90.6959 87.9661 90.7999C85.6269 91.6576 83.9375 93.7369 83.6516 96.232C83.5736 97.0118 83.6776 97.7915 83.9115 98.5453C84.1714 99.351 84.6133 100.079 85.211 100.651C85.315 100.755 85.5229 100.625 85.6009 100.599C85.7829 100.469 85.9388 100.313 86.0428 100.131C86.1727 99.8708 86.4066 99.403 86.1467 99.1431Z" fill="white"/>
<path d="M98.5964 60.4421L98.5184 64.2888C98.4924 65.5364 98.4404 66.81 98.4404 68.0576C98.4404 69.0972 98.5444 70.2148 99.1422 71.1245C99.74 71.9562 100.65 72.5021 101.663 72.658C103.015 72.9179 104.418 72.58 105.744 72.2681C105.926 72.1902 106.082 72.0602 106.212 71.9043C106.368 71.7223 106.472 71.5144 106.55 71.2805C106.628 70.9946 106.628 70.6047 106.238 70.7087C104.86 71.0206 103.431 71.3325 102.027 70.9426L102.131 70.9686C101.481 70.7866 100.884 70.4488 100.416 69.9549L100.494 70.0329C100.286 69.799 100.13 69.5391 99.9999 69.2791C99.9479 69.1492 99.8959 69.0192 99.844 68.8893C99.844 68.8893 99.818 68.7853 99.818 68.8373C99.818 68.8893 99.792 68.7333 99.792 68.7593C99.766 68.6813 99.766 68.6034 99.74 68.5254C99.688 68.2135 99.636 67.9276 99.636 67.6157C99.636 67.4598 99.61 67.3038 99.61 67.1479C99.61 67.0699 99.61 67.0179 99.61 66.9399C99.61 66.862 99.61 66.862 99.61 66.836V66.784C99.636 65.2765 99.688 63.769 99.714 62.2615L99.766 59.6884C99.766 59.5584 99.792 59.3765 99.662 59.2985C99.5321 59.2465 99.3761 59.2725 99.2721 59.3505C99.0902 59.4805 98.9343 59.6364 98.8303 59.8184C98.7003 60.0003 98.6224 60.2342 98.5964 60.4421Z" fill="white"/>
<path d="M180.391 126.616C180.105 125.186 179.091 124.017 177.714 123.523C176.752 123.211 175.791 122.977 174.803 122.717L169.215 121.158L164.614 119.858L164.199 119.754C164.225 119.598 164.225 119.39 164.095 119.364L159.728 117.805L152.814 115.336L151.229 114.764C150.735 114.582 150.319 115.362 150.189 115.725L147.07 125.004L143.847 134.543L140.599 144.212L137.376 153.803L134.257 163.107L133.945 164.043C133.815 164.303 133.711 164.693 133.945 164.797L133.971 164.823L138.207 166.694L144.939 169.657L146.499 170.359C146.551 170.385 146.603 170.385 146.628 170.385L148.864 171.529L153.958 174.102L158.688 176.493C159.754 177.013 160.768 177.61 161.937 177.844C164.744 178.39 167.499 176.935 169.059 174.647C169.657 173.712 170.073 172.698 170.306 171.606L170.852 169.319L171.736 165.551L172.88 160.664L174.179 155.102L175.557 149.202L176.908 143.38L178.156 138.052L179.195 133.581L179.949 130.358C180.079 129.839 180.183 129.319 180.313 128.825C180.495 128.071 180.521 127.318 180.391 126.616Z" fill="#0E1E36"/>
<path d="M162.457 124.095C161.807 127.058 161.106 130.021 160.352 132.984C159.598 135.947 158.818 138.884 157.987 141.847C157.155 144.784 156.271 147.695 155.362 150.606C154.452 153.517 153.49 156.402 152.476 159.261C151.983 160.69 151.463 162.12 150.943 163.549C150.683 164.277 150.423 164.979 150.163 165.681C150.085 165.862 150.033 166.018 149.955 166.2C149.929 166.304 149.877 166.382 149.851 166.486L149.799 166.616V166.642C149.669 167.006 149.514 167.37 149.384 167.734C149.254 168.098 149.124 168.436 148.994 168.773C148.916 168.981 148.708 169.553 149.098 169.605C149.488 169.657 149.825 169.085 149.955 168.825C151.073 165.94 152.165 163.029 153.204 160.092C154.218 157.207 155.206 154.322 156.141 151.385C157.077 148.474 157.961 145.537 158.818 142.6C159.676 139.663 160.456 136.7 161.236 133.737C161.989 130.774 162.717 127.811 163.367 124.822C163.445 124.432 163.549 124.069 163.627 123.679C163.679 123.419 163.705 122.951 163.315 123.107C162.873 123.315 162.587 123.679 162.457 124.095Z" fill="white"/>
<path d="M142.963 162.718C143.795 163.003 144.679 162.666 145.276 162.068C146.004 161.34 146.576 160.196 146.134 159.157C145.822 158.455 145.147 157.987 144.393 157.935C143.353 157.883 142.573 158.715 142.132 159.547C141.742 160.326 141.586 161.444 142.184 162.146C142.261 162.25 142.391 162.302 142.521 162.25C142.703 162.172 142.859 162.042 142.989 161.886C143.145 161.704 143.249 161.496 143.327 161.262C143.353 161.132 143.431 160.898 143.327 160.768C143.223 160.638 143.145 160.508 143.093 160.352C143.067 160.326 143.067 160.274 143.067 160.248L143.093 160.3L143.067 160.222C143.041 160.144 143.041 160.066 143.041 160.014C143.041 159.988 143.041 159.936 143.041 159.91C143.041 159.78 143.041 160.04 143.041 159.936C143.041 159.858 143.067 159.78 143.067 159.703C143.067 159.625 143.015 159.91 143.067 159.755C143.067 159.703 143.093 159.677 143.093 159.625C143.145 159.495 143.015 159.832 143.067 159.703L143.119 159.599C143.015 159.858 143.041 159.755 143.067 159.677C143.093 159.599 143.197 159.521 143.015 159.755L143.093 159.677C143.171 159.573 142.937 159.832 143.041 159.729C143.067 159.703 143.093 159.677 143.145 159.651C143.197 159.625 142.963 159.755 143.119 159.677L143.197 159.625C143.327 159.547 143.093 159.677 143.197 159.625L143.431 159.547C143.561 159.521 143.327 159.547 143.457 159.547H143.587C143.769 159.547 143.925 159.573 144.107 159.599L144.003 159.573C144.341 159.677 144.653 159.858 144.887 160.118L144.809 160.04C144.913 160.17 145.017 160.3 145.069 160.43C145.095 160.508 145.121 160.586 145.147 160.638C145.095 160.508 145.147 160.638 145.147 160.664C145.147 160.69 145.173 160.742 145.173 160.794C145.173 160.846 145.173 160.924 145.173 160.924C145.173 160.846 145.173 160.82 145.173 160.872C145.173 160.924 145.173 160.924 145.173 160.924C145.173 160.976 145.147 161.002 145.147 161.054C145.147 160.924 145.173 160.924 145.147 161.002C145.121 161.08 145.069 161.158 145.173 160.95C145.147 160.976 145.147 161.028 145.121 161.054C145.198 160.82 145.198 160.898 145.147 160.976C145.095 161.054 145.017 161.106 145.198 160.898C145.173 160.924 145.147 160.95 145.121 161.002C145.043 161.106 145.276 160.846 145.173 160.95L145.095 161.028C144.991 161.132 145.25 160.924 145.121 161.002C145.043 161.028 144.991 161.08 144.913 161.132C144.913 161.106 145.043 161.08 144.913 161.132L144.809 161.184C144.731 161.21 144.653 161.236 144.575 161.236C144.627 161.21 144.627 161.236 144.575 161.236H144.445C144.289 161.236 144.107 161.236 143.951 161.184L144.055 161.21L143.977 161.184C143.639 161.054 143.301 161.47 143.145 161.73C143.015 161.912 142.937 162.12 142.911 162.328C142.859 162.432 142.833 162.666 142.963 162.718Z" fill="white"/>
<path d="M152.268 161.73L158.922 164.901L160.819 165.81C161.157 165.966 161.521 165.499 161.651 165.265C161.781 165.083 161.859 164.875 161.885 164.641C161.885 164.511 161.911 164.329 161.781 164.251L155.127 161.08L153.23 160.17C152.892 160.014 152.528 160.482 152.398 160.716C152.268 160.898 152.19 161.106 152.164 161.314C152.164 161.47 152.138 161.678 152.268 161.73Z" fill="white"/>
<path d="M153.334 158.559L160.04 160.014C160.17 160.04 160.404 159.884 160.482 159.806C160.664 159.651 160.794 159.443 160.898 159.235C161.002 159.001 161.158 158.507 160.794 158.429L154.088 156.973C153.958 156.947 153.724 157.103 153.646 157.181C153.464 157.337 153.334 157.545 153.23 157.753C153.126 157.987 152.971 158.481 153.334 158.559Z" fill="white"/>
<path d="M161.313 132.438L169.553 133.607L171.892 133.945C172.048 133.971 172.23 133.815 172.334 133.737C172.516 133.581 172.646 133.373 172.75 133.166C172.854 132.932 173.036 132.412 172.646 132.334L164.406 131.164L162.067 130.826C161.911 130.8 161.729 130.956 161.625 131.034C161.443 131.19 161.313 131.398 161.21 131.606C161.106 131.84 160.924 132.386 161.313 132.438Z" fill="white"/>
<path d="M47.6016 162.562C47.4197 160.352 46.7959 158.013 45.3664 156.272C45.0545 155.882 44.7166 155.544 44.3267 155.232L44.3007 155.206C42.1175 153.543 39.5184 152.555 36.7893 152.321C34.1122 152.087 31.4091 152.659 29.0439 153.932C26.7307 155.206 24.9373 157.285 23.7157 159.599C22.4421 161.938 21.9223 164.615 22.2082 167.266C22.5721 169.943 23.8457 172.412 25.821 174.284C27.9523 176.259 30.7073 177.377 33.6184 177.481C36.2695 177.584 38.8686 176.909 41.1558 175.583C43.521 174.206 45.3924 172.126 46.51 169.657C47.4457 167.396 47.8355 164.979 47.6016 162.562Z" fill="#F3A446"/>
<path d="M47.1863 156.376C45.0031 154.712 42.378 153.699 39.6229 153.491C36.8938 153.257 34.1907 153.829 31.7735 155.128C29.4083 156.454 27.537 158.585 26.2894 160.976C24.9898 163.367 24.47 166.096 24.7559 168.799C25.5357 174.595 30.396 178.936 36.218 179.066C38.8951 179.17 41.5462 178.494 43.8594 177.143C46.2766 175.713 48.2 173.582 49.3696 171.009C50.3573 168.721 50.7471 166.226 50.5132 163.757C50.4092 162.562 50.1753 161.392 49.7854 160.248C49.4476 159.235 48.9277 158.273 48.278 157.415C47.9661 157.051 47.6022 156.688 47.1863 156.376C47.0824 156.298 46.8744 156.376 46.7965 156.428C46.6145 156.558 46.4586 156.714 46.3546 156.895C46.2246 157.129 45.9387 157.675 46.2246 157.883C46.5106 158.117 46.7705 158.351 47.0304 158.637L46.9524 158.559C47.5242 159.235 48.018 159.962 48.3559 160.794C48.5379 161.236 48.7198 161.678 48.8498 162.12C48.8498 162.146 48.8758 162.172 48.8758 162.198C48.8758 162.172 48.8498 162.094 48.8758 162.198L48.9277 162.354C48.9537 162.484 48.9797 162.588 49.0057 162.718C49.0577 162.951 49.1097 163.185 49.1617 163.419C49.2396 163.887 49.3176 164.381 49.3436 164.875C49.3696 165.135 49.3696 165.395 49.3956 165.629C49.3956 165.758 49.3956 165.862 49.3956 165.992C49.3956 166.044 49.3956 166.122 49.3956 166.174C49.3956 166.226 49.3956 166.226 49.3956 166.252C49.3956 166.174 49.3956 166.148 49.3956 166.252C49.3956 166.746 49.3436 167.24 49.2916 167.734C49.2656 167.968 49.2396 168.202 49.1876 168.436C49.1617 168.54 49.1617 168.669 49.1357 168.773C49.1357 168.825 49.1097 168.877 49.1097 168.955C49.0837 169.085 49.1097 168.903 49.1357 168.903C49.1357 168.955 49.1097 168.981 49.1097 169.033C49.0057 169.475 48.8758 169.917 48.7198 170.359L48.6678 170.515C48.5898 170.723 48.7198 170.359 48.6678 170.489C48.6158 170.619 48.5639 170.723 48.5119 170.853C48.4079 171.113 48.278 171.347 48.148 171.606L48.096 171.684C48.044 171.788 48.2 171.503 48.148 171.606C48.122 171.658 48.096 171.71 48.044 171.788C47.9661 171.918 47.9141 172.022 47.8361 172.152C47.7581 172.282 47.7061 172.36 47.6282 172.49L47.5242 172.646L47.4722 172.724C47.3943 172.854 47.5762 172.568 47.5242 172.672C47.3683 172.88 47.2123 173.088 47.0304 173.296L46.7705 173.582L46.6405 173.712L46.5885 173.79C46.7705 173.582 46.6405 173.738 46.6145 173.764C46.2506 174.128 45.8608 174.492 45.4449 174.829L45.3669 174.881C45.263 174.959 45.3929 174.855 45.4189 174.855C45.3669 174.881 45.315 174.933 45.263 174.959C45.159 175.037 45.055 175.115 44.9511 175.193C44.7432 175.349 44.5092 175.479 44.3013 175.635C44.0934 175.791 43.8335 175.895 43.5995 176.025L43.4436 176.103C43.4176 176.103 43.3916 176.129 43.3656 176.155C43.3656 176.155 43.4956 176.077 43.3916 176.155L43.0277 176.337C42.5599 176.545 42.0661 176.753 41.5722 176.909C41.0784 177.065 40.5846 177.195 40.0907 177.299L39.9088 177.325L39.8308 177.351L39.4409 177.403C39.155 177.455 38.8431 177.481 38.5572 177.507C37.3357 177.61 36.0881 177.533 34.8925 177.273C34.6066 177.221 34.2947 177.143 34.0088 177.065L34.1128 177.091C32.0594 176.493 30.2141 175.349 28.7846 173.764L28.8625 173.842C27.7709 172.646 26.9652 171.243 26.4453 169.735C26.4194 169.605 26.3674 169.501 26.3414 169.371C26.3414 169.371 26.3154 169.267 26.3154 169.319L26.2894 169.267C26.2634 169.189 26.2634 169.111 26.2374 169.033C26.1854 168.773 26.1075 168.514 26.0815 168.228C26.0035 167.734 25.9515 167.214 25.9255 166.72C25.9255 166.59 25.9255 166.486 25.9255 166.356V166.252C25.9255 166.382 25.9255 166.304 25.9255 166.278V166.07C25.9255 165.81 25.9515 165.551 25.9775 165.291C26.0035 165.031 26.0295 164.771 26.0815 164.537C26.1075 164.407 26.1335 164.303 26.1335 164.173C26.1335 164.147 26.1594 164.121 26.1594 164.069C26.1594 164.173 26.1335 164.199 26.1594 164.121C26.1854 164.043 26.1854 163.991 26.2114 163.913C26.3414 163.419 26.4713 162.925 26.6533 162.432C26.7053 162.25 26.6013 162.562 26.6533 162.432L26.7313 162.25C26.7832 162.12 26.8352 162.016 26.8872 161.912C26.9912 161.678 27.0951 161.444 27.2251 161.21C27.2511 161.158 27.2771 161.106 27.3031 161.028C27.329 160.95 27.329 160.976 27.355 160.95C27.381 160.924 27.2251 161.158 27.3031 161.028L27.485 160.69C27.615 160.482 27.7449 160.248 27.9009 160.04C27.9788 159.936 28.0308 159.832 28.1088 159.729C28.1868 159.625 27.9788 159.91 28.0828 159.755L28.2127 159.573C28.3687 159.365 28.5246 159.183 28.6806 158.975L28.9405 158.689L29.0445 158.559C29.0705 158.533 29.1484 158.455 29.0445 158.559C28.9405 158.663 29.0445 158.559 29.0705 158.533C29.2524 158.351 29.4083 158.195 29.5903 158.013C29.7722 157.831 29.9542 157.675 30.1361 157.519L30.2661 157.389C30.37 157.311 30.1361 157.493 30.2661 157.389L30.5779 157.155C30.9678 156.869 31.3837 156.61 31.7995 156.402L31.9295 156.324C32.0854 156.246 31.8255 156.376 31.9815 156.298L32.3453 156.116C32.5793 156.012 32.8392 155.908 33.0731 155.83C33.5669 155.648 34.0868 155.492 34.6066 155.362C34.8665 155.31 35.1264 155.232 35.3863 155.206L35.4903 155.18L35.6722 155.154C35.8022 155.128 35.9581 155.102 36.0881 155.102C36.6079 155.05 37.1537 154.998 37.6995 154.998C38.7652 154.998 39.8308 155.102 40.8705 155.336C41.1304 155.388 41.3903 155.466 41.6502 155.544L41.5462 155.518C43.2357 156.012 44.8211 156.792 46.1987 157.883C46.3026 157.961 46.5106 157.883 46.5885 157.805C46.7705 157.675 46.9264 157.519 47.0304 157.337C47.2123 157.129 47.4982 156.584 47.1863 156.376Z" fill="#0E1E36"/>
<path d="M51.8902 33.3073C51.9682 35.2307 52.358 37.102 53.0598 38.8954C53.6836 40.5589 54.5933 42.0924 55.6849 43.4699C56.7765 44.8214 58.0761 46.017 59.5056 47.0047C60.9091 47.9664 62.4426 48.7201 64.0541 49.2399C65.6915 49.7598 67.381 50.0457 69.1224 50.0717C69.3303 50.0717 69.5382 50.0717 69.7461 50.0717C70.188 50.0457 70.5519 49.5258 70.7078 49.162C70.8118 48.9021 71.0197 48.3043 70.5779 48.2263C68.7325 47.9664 66.8091 48.0443 65.0677 48.7461C63.4563 49.4219 62.0528 50.5135 60.9871 51.891C59.8695 53.3985 59.0118 55.062 58.414 56.8294C57.8422 58.5448 57.4263 60.3122 57.1664 62.1056C56.9065 63.769 56.7246 65.4584 56.5686 67.1219C56.5426 67.3038 56.5426 67.5118 56.5166 67.6937C56.5166 67.8236 56.5166 68.0576 56.6466 68.1355C56.7765 68.1875 56.9065 68.1875 57.0105 68.1095C57.4263 67.8756 57.7122 67.4858 57.8422 67.0439C58.31 65.1206 58.518 63.0673 58.0761 61.1179C57.7122 59.5065 56.9065 58.025 55.7889 56.8294C54.6713 55.6598 53.3197 54.7501 51.8382 54.1003C50.1748 53.3985 48.4594 52.8787 46.666 52.6188C44.8206 52.3329 42.9752 52.2289 41.1298 52.3069C40.8959 52.3069 40.662 52.3329 40.4281 52.3329L39.5964 54.1783C41.0779 54.0223 42.5334 53.6844 43.9109 53.1646C45.3664 52.6188 46.7439 51.891 47.9915 50.9554C49.395 49.9157 50.6166 48.6421 51.6043 47.1866C52.6179 45.6532 53.3457 43.9117 53.6836 42.1184C54.0475 40.169 54.0475 38.1937 53.6836 36.2443C53.6316 35.9844 53.5796 35.6985 53.5276 35.4386C53.5016 35.2827 53.4237 35.1527 53.2677 35.1527C53.0858 35.1787 52.9039 35.2567 52.7739 35.4126C52.566 35.5946 52.41 35.8285 52.3061 36.0624C52.2021 36.2703 52.1501 36.4783 52.1761 36.7122C52.384 37.6998 52.54 38.7135 52.592 39.7272C52.592 39.9611 52.6179 40.195 52.6179 40.4289V40.5329C52.6179 40.4289 52.6179 40.5849 52.6179 40.6369C52.6179 40.7668 52.6179 40.8708 52.6179 41.0007C52.592 41.4426 52.566 41.8844 52.488 42.3003C52.462 42.5082 52.41 42.7161 52.384 42.9501L52.358 43.106C52.358 43.106 52.41 42.8721 52.384 43.028L52.358 43.08C52.332 43.184 52.3061 43.288 52.2801 43.3919C52.1761 43.7818 52.0721 44.1717 51.9162 44.5615C51.9162 44.6135 51.8902 44.6395 51.8642 44.6915C51.8122 44.8214 51.9682 44.4576 51.8902 44.6395C51.8642 44.7435 51.8122 44.8214 51.7862 44.9254C51.7083 45.1073 51.6303 45.2893 51.5523 45.4712L51.4224 45.7311C51.3964 45.7831 51.3704 45.8091 51.3704 45.8611C51.3704 45.8871 51.3444 45.8871 51.3444 45.9131C51.2664 46.069 51.3964 45.8091 51.3964 45.7831C51.2924 45.9391 51.2144 46.121 51.1105 46.2769C51.0065 46.4329 50.9025 46.5888 50.7986 46.7448C50.7466 46.8228 50.6946 46.9007 50.6426 46.9787C50.5906 47.0567 50.8246 46.7188 50.6946 46.9007L50.5906 47.0307C50.3567 47.3426 50.1228 47.6285 49.8629 47.9144C49.8109 47.9924 49.7329 48.0443 49.6809 48.1223C49.6549 48.1483 49.8629 47.9404 49.7849 48.0184L49.7329 48.0703L49.629 48.1743C49.499 48.3043 49.369 48.4342 49.2391 48.5642C48.9792 48.8241 48.6933 49.058 48.3814 49.2919L48.3294 49.3179C48.2254 49.3959 48.4074 49.2399 48.4074 49.2659C48.3814 49.2919 48.3294 49.3179 48.3034 49.3439C48.2254 49.3959 48.1475 49.4739 48.0695 49.5258C47.9395 49.6298 47.7836 49.7338 47.6276 49.8377C47.3157 50.0457 47.0038 50.2536 46.692 50.4355C46.536 50.5135 46.3801 50.6175 46.1981 50.6954L45.9642 50.8254C45.8342 50.9034 46.0942 50.7734 45.9902 50.8254L45.8602 50.9034C45.5483 51.0593 45.2105 51.2153 44.8726 51.3452C44.2228 51.6051 43.547 51.8391 42.8453 52.021C42.5074 52.099 42.1435 52.2029 41.8056 52.2549L41.5457 52.3069L41.4417 52.3329C41.3378 52.3589 41.4937 52.3329 41.4937 52.3329H41.4157C41.2598 52.3589 41.1038 52.3849 40.9219 52.4109C40.74 52.4369 40.584 52.4628 40.4021 52.4628C39.9602 52.5148 39.5964 52.9827 39.4404 53.3725C39.3624 53.5545 39.1285 54.3342 39.5704 54.3082C41.9356 54.1523 44.3008 54.3082 46.614 54.7241C47.2378 54.854 47.8616 54.984 48.4853 55.1659L48.3554 55.1139C50.2527 55.6598 52.0981 56.4915 53.6316 57.7391C54.0475 58.0769 54.4113 58.4148 54.7492 58.8047L54.6713 58.7007C55.451 59.5584 56.0488 60.5721 56.4387 61.6637C56.4906 61.7937 56.5166 61.9496 56.5686 62.0796C56.4906 61.8977 56.5686 62.1056 56.5946 62.1576C56.6206 62.2355 56.6466 62.3395 56.6466 62.4175C56.7246 62.7294 56.7765 63.0413 56.8025 63.3532C56.8545 63.6651 56.8805 64.0029 56.8805 64.3408C56.8805 64.4968 56.8805 64.6527 56.8805 64.8087C56.8805 64.5747 56.8805 64.8606 56.8805 64.9126L56.8545 65.2245C56.8285 65.6404 56.7765 66.0562 56.7246 66.4461C56.6986 66.654 56.6466 66.862 56.6206 67.0699C56.6206 67.1219 56.5946 67.1739 56.5946 67.2258C56.6466 66.9399 56.5946 67.1999 56.5946 67.2518C56.5686 67.3558 56.5426 67.4858 56.5166 67.5897L57.8422 66.9399C57.9721 65.3285 58.1281 63.691 58.362 62.0796C58.492 61.2219 58.6219 60.3902 58.8039 59.5325C58.8298 59.4025 58.7519 59.7664 58.8039 59.5584C58.8039 59.5065 58.8298 59.4545 58.8298 59.4025L58.9078 59.0906C58.9598 58.8827 59.0118 58.6747 59.0638 58.4668C59.1677 58.051 59.2717 57.6611 59.4016 57.2452C59.5316 56.8294 59.6616 56.4395 59.7915 56.0496L59.8175 55.9717C59.8695 55.8417 59.7655 56.1276 59.7655 56.1016C59.7655 56.0756 59.7915 56.0236 59.8175 55.9717L59.9475 55.6598C60.0254 55.4778 60.1034 55.2699 60.1814 55.088C60.2594 54.906 60.3373 54.7241 60.4413 54.5681C60.4933 54.4902 60.5193 54.3862 60.5713 54.3082L60.6492 54.1783L60.5713 54.3342L60.6232 54.2562C60.8052 53.9184 61.0131 53.5805 61.221 53.2686C61.299 53.1386 61.455 52.9307 61.247 53.2166L61.429 52.9827C61.5589 52.8267 61.6629 52.6708 61.7928 52.5408C61.8448 52.4628 61.9228 52.4109 61.9748 52.3329C62.0268 52.2549 62.0268 52.2809 62.0528 52.2289C61.7928 52.5148 61.9488 52.3329 62.0268 52.2809C62.1567 52.151 62.2867 52.021 62.4426 51.891C62.5986 51.7611 62.7285 51.6571 62.8585 51.5272C62.9365 51.4752 62.6506 51.6831 62.7805 51.6051L62.8325 51.5532L62.9365 51.4752L63.1704 51.3192C63.3263 51.2153 63.4823 51.1113 63.6382 51.0073C63.7162 50.9554 63.7942 50.9294 63.8721 50.8774L64.0021 50.8254C64.0801 50.7734 63.8461 50.9034 63.9241 50.8774L64.0021 50.8254C64.366 50.6435 64.7298 50.5135 65.0937 50.3836C65.3017 50.3316 65.4836 50.2536 65.6915 50.2276L65.9774 50.1756L66.1334 50.1496H66.0814C66.1074 50.1496 66.1594 50.1496 66.1854 50.1236C67.095 49.9937 68.0047 49.9677 68.9404 50.0457C69.2003 50.0717 69.4602 50.0976 69.7202 50.1496L70.5519 48.3043C68.8105 48.3562 67.095 48.1223 65.4316 47.6025L65.5616 47.6545C62.4426 46.7448 59.6356 45.0034 57.4523 42.5862L57.5303 42.6902C56.5426 41.5985 55.6849 40.3769 55.0091 39.0514C54.6713 38.3756 54.3594 37.6739 54.0994 36.9461C54.0475 36.7902 53.9695 36.6082 53.9175 36.4523L53.8395 36.1664C53.8395 36.1404 53.7876 35.9844 53.8395 36.1404C53.8135 36.0884 53.8135 36.0104 53.7876 35.9584C53.6836 35.5946 53.6056 35.2307 53.5276 34.8408C53.3457 33.9311 53.2417 33.0214 53.1898 32.1117C53.1898 31.9558 53.0858 31.8518 52.9298 31.8258C52.7479 31.8518 52.566 31.9298 52.436 32.0857C52.1501 32.3457 51.9162 32.8135 51.8902 33.3073Z" fill="#0E1E36"/>
<path d="M28.2123 60.754C28.4462 65.8743 31.8251 70.2928 36.6854 71.8523C37.959 72.2681 39.3106 72.4501 40.6621 72.4241C41.1039 72.3981 41.4678 71.8783 41.6238 71.5144C41.7277 71.2545 41.9357 70.6567 41.4938 70.5787C40.1943 70.3448 38.8687 70.4748 37.6211 70.9426C36.4515 71.4364 35.4379 72.2162 34.6581 73.2298C33.8264 74.3214 33.2026 75.543 32.7608 76.8426C32.3449 78.0382 32.059 79.2858 31.8771 80.5593C31.6951 81.7289 31.5652 82.8985 31.4612 84.0681C31.4612 84.1981 31.4352 84.354 31.4352 84.484C31.4352 84.614 31.4352 84.8479 31.5652 84.9259C31.6951 84.9778 31.8251 84.9778 31.9291 84.8999C32.3449 84.6659 32.6308 84.2761 32.7348 83.8342C33.0727 82.4567 33.2286 80.9752 32.9167 79.5977C32.6568 78.4541 32.111 77.4144 31.3053 76.5567C29.6938 74.8153 27.2506 74.0096 24.9634 73.6457C23.5339 73.4118 22.0784 73.3598 20.6489 73.4377L19.8172 75.2831C21.9744 75.0752 24.0017 74.2695 25.7431 72.9959C26.7828 72.2422 27.6665 71.3065 28.3942 70.2408C29.148 69.1232 29.6678 67.8496 29.9277 66.5241C30.2136 64.9646 30.1876 63.3532 29.8238 61.8197C29.7978 61.6637 29.7198 61.5338 29.5639 61.5338C29.3819 61.5598 29.2 61.6377 29.07 61.7937C28.8621 61.9756 28.7061 62.1836 28.6022 62.4435C28.4982 62.6514 28.4462 62.8593 28.4722 63.0933C28.6282 63.795 28.7061 64.4708 28.7581 65.1985C28.7581 65.3545 28.7581 65.5104 28.7581 65.6664C28.7581 65.7184 28.7581 65.7443 28.7581 65.7703C28.7321 65.5624 28.7581 65.7184 28.7581 65.7703C28.7581 65.8223 28.7581 65.9263 28.7581 66.0043C28.7321 66.3162 28.7061 66.6021 28.6802 66.914C28.6542 67.0699 28.6282 67.1999 28.6022 67.3558L28.5762 67.4338C28.5502 67.5897 28.6282 67.2259 28.5762 67.3818C28.5502 67.4598 28.5502 67.5377 28.5242 67.6157C28.4462 67.8756 28.3683 68.1615 28.2903 68.4214C28.2123 68.6294 28.3942 68.1875 28.2903 68.3955C28.2643 68.4474 28.2383 68.5254 28.2123 68.5774C28.1603 68.7073 28.1083 68.8373 28.0304 68.9673C28.0044 69.0192 27.9784 69.0712 27.9524 69.1492C27.9264 69.2272 27.7705 69.4611 27.9784 69.0972C27.9004 69.2272 27.8484 69.3311 27.7705 69.4611C27.6925 69.5911 27.6405 69.669 27.5625 69.773L27.4586 69.9289C27.3546 70.0589 27.6145 69.721 27.5365 69.799L27.4586 69.9029C27.3026 70.1109 27.1467 70.3188 26.9647 70.5007C26.9128 70.5527 26.7308 70.7347 26.9907 70.4747L26.8608 70.6047C26.7568 70.7087 26.6788 70.7866 26.5749 70.8906C26.3929 71.0725 26.185 71.2285 26.0031 71.3844C25.8991 71.4624 26.159 71.2545 26.081 71.3325L26.0031 71.3844L25.8471 71.4884C25.7431 71.5664 25.6392 71.6444 25.5352 71.7223C25.3273 71.8523 25.1194 71.9822 24.8854 72.1122L24.5735 72.2941L24.4176 72.3721C24.2876 72.4241 24.5735 72.2941 24.4696 72.3461L24.3656 72.3981C24.1317 72.5021 23.9238 72.606 23.6898 72.71C23.17 72.9179 22.6502 73.0999 22.1304 73.2298C21.8705 73.2818 21.6105 73.3338 21.3246 73.4118C21.5326 73.3598 21.2987 73.4118 21.2467 73.4118L21.0387 73.4377C20.9088 73.4637 20.7788 73.4637 20.6489 73.4897C20.207 73.5417 19.8431 74.0096 19.6872 74.3994C19.5572 74.5294 19.5312 74.7633 19.5312 74.9972C19.5572 75.1272 19.6352 75.3091 19.7912 75.2831C21.4286 75.1792 23.0661 75.2571 24.6775 75.569C25.1194 75.647 25.5352 75.751 25.9771 75.8809L25.8471 75.8549C27.1727 76.2188 28.3942 76.8166 29.4859 77.6483C29.7718 77.8822 30.0317 78.1162 30.2656 78.4021L30.1617 78.2981C30.7075 78.8959 31.1233 79.5717 31.3832 80.3254C31.4092 80.4294 31.4352 80.5074 31.4872 80.6113C31.5392 80.7153 31.4872 80.5593 31.4612 80.5593C31.4612 80.5853 31.4612 80.6113 31.4872 80.6373C31.5132 80.6893 31.5132 80.7413 31.5392 80.8192C31.5912 81.0272 31.6431 81.2611 31.6691 81.469C31.6951 81.677 31.7211 81.9109 31.7211 82.1448C31.7211 82.2488 31.7211 82.3787 31.7211 82.4827C31.7211 82.4827 31.7211 82.3007 31.7211 82.4047C31.7211 82.4307 31.7211 82.4567 31.7211 82.4827C31.7211 82.5607 31.7211 82.6126 31.7211 82.6906C31.6951 82.9765 31.6691 83.2624 31.6172 83.5483C31.5912 83.6783 31.5652 83.8342 31.5392 83.9642C31.5392 84.0162 31.5392 84.0422 31.5132 84.0681C31.5132 84.0162 31.5652 83.8602 31.5132 84.0162C31.4872 84.0941 31.4872 84.1981 31.4612 84.2761L32.7868 83.6263C32.8907 82.5087 32.9947 81.3911 33.1506 80.2734C33.2286 79.6756 33.3326 79.1038 33.4625 78.506C33.4885 78.3501 33.4106 78.74 33.4365 78.584L33.4625 78.48L33.5145 78.2721C33.5405 78.1422 33.5665 77.9862 33.6185 77.8562C33.6965 77.5703 33.7744 77.2844 33.8524 76.9985C33.9304 76.7126 34.0343 76.4527 34.1383 76.1668L34.1643 76.0629L34.1123 76.2448L34.1383 76.1928L34.2163 76.0109C34.2683 75.8809 34.3202 75.751 34.3982 75.595C34.4762 75.4391 34.5022 75.3611 34.5542 75.2571L34.6581 75.0752L34.7101 74.9972C34.7881 74.8673 34.5542 75.2831 34.6581 75.1012C34.7881 74.8673 34.918 74.6333 35.074 74.3994L35.126 74.3214C35.178 74.2435 35.2819 74.1395 35.048 74.4514C35.074 74.3994 35.126 74.3474 35.152 74.2955C35.2299 74.1915 35.3079 74.0875 35.4119 73.9836C35.4379 73.9316 35.4898 73.8796 35.5418 73.8536C35.5938 73.8276 35.6978 73.6977 35.4639 73.9316L35.5158 73.8536C35.5938 73.7756 35.6978 73.6717 35.7757 73.5937C35.8537 73.5157 35.9577 73.4377 36.0617 73.3598C36.1656 73.2818 35.8797 73.5157 35.9837 73.4118L36.0617 73.3598C36.1136 73.3078 36.1916 73.2818 36.2436 73.2298C36.3476 73.1518 36.4515 73.0999 36.5555 73.0219L36.7114 72.9179L36.7894 72.8659C36.8934 72.814 36.6075 72.9439 36.7634 72.8919C37.0233 72.762 37.3092 72.658 37.5951 72.58C37.7511 72.5281 37.907 72.5021 38.063 72.4501L38.1669 72.4241C38.3229 72.3981 38.089 72.4241 38.1929 72.4241L38.4269 72.3981C39.1806 72.3201 39.9083 72.3201 40.6621 72.4501L41.4938 70.6047C40.2982 70.6307 39.1026 70.5007 37.933 70.1629L38.063 70.1888C36.3995 69.695 34.8401 68.8633 33.5405 67.7197C33.1506 67.3818 32.8128 67.0439 32.4749 66.654L32.5528 66.758C31.5132 65.6144 30.7075 64.2629 30.1876 62.8073C30.1357 62.7034 30.1097 62.5734 30.0577 62.4695L30.0057 62.2875C30.0057 62.2615 29.9797 62.2355 29.9797 62.2095C30.0317 62.3655 29.9797 62.2095 29.9797 62.1836C29.9017 61.9236 29.8498 61.6637 29.7978 61.4038C29.6678 60.78 29.5898 60.1562 29.5639 59.5325C29.5639 59.3765 29.4599 59.2725 29.3039 59.2466C29.122 59.2725 28.9401 59.3505 28.8101 59.5065C28.4462 59.7924 28.2383 60.2602 28.2123 60.754Z" fill="#0E1E36"/>
<path d="M28.5499 34.373C28.7058 37.8038 30.9411 40.7668 34.216 41.8325C35.0737 42.1184 35.9834 42.2483 36.919 42.2223C37.3609 42.2223 37.7248 41.6765 37.8807 41.3126C37.9847 41.0527 38.1926 40.4289 37.7508 40.377C36.8671 40.221 35.9574 40.325 35.1257 40.6369C34.2939 41.0007 33.5662 41.5725 33.0204 42.2743C31.8508 43.7558 31.3309 45.6012 31.019 47.4206C30.8891 48.2783 30.7851 49.162 30.7072 50.0457C30.7072 50.1756 30.7072 50.4096 30.8371 50.4875C30.9411 50.5395 31.071 50.5135 31.175 50.4615C31.5909 50.2276 31.8768 49.8377 31.9807 49.3959C32.2406 48.4342 32.2926 47.4206 32.1107 46.4589C31.9287 45.6792 31.5649 44.9514 31.019 44.3796C29.9274 43.21 28.29 42.6382 26.7565 42.4043C25.7948 42.2483 24.8331 42.1963 23.8715 42.2743L23.0397 44.1197C24.5212 43.9637 25.8988 43.4439 27.0944 42.5602C29.5895 40.7668 30.7591 37.6479 30.0574 34.6589C30.0314 34.5029 29.9534 34.373 29.7975 34.373C29.6155 34.399 29.4336 34.4769 29.3036 34.6329C29.0957 34.8148 28.9398 35.0488 28.8358 35.2827C28.7318 35.4906 28.6798 35.6985 28.7058 35.9325C28.8098 36.3743 28.8618 36.8421 28.8878 37.31C28.8878 37.414 28.8878 37.5179 28.8878 37.5959V37.6739C28.8878 37.6739 28.8878 37.5179 28.8878 37.5959V37.7778C28.8878 37.9858 28.8618 38.1937 28.8358 38.3756C28.8358 38.4536 28.8098 38.5576 28.7838 38.6355C28.7838 38.6615 28.7838 38.6875 28.7838 38.6875C28.7578 38.7915 28.8358 38.4796 28.8098 38.5836L28.7838 38.7135C28.7318 38.8955 28.6798 39.0774 28.6279 39.2593C28.6279 39.2853 28.6019 39.3113 28.6019 39.3373C28.6279 39.2853 28.6538 39.2333 28.6538 39.1814L28.6019 39.3113C28.5759 39.3893 28.5239 39.4673 28.4979 39.5712C28.4719 39.5972 28.4719 39.6492 28.4459 39.6752C28.4199 39.7012 28.342 39.8831 28.4459 39.6752C28.5499 39.4673 28.4719 39.6492 28.4459 39.6752C28.4199 39.7012 28.3939 39.7532 28.3679 39.8051C28.342 39.8571 28.29 39.9351 28.238 40.0131L28.16 40.117C28.134 40.143 28.342 39.8831 28.264 39.9611L28.212 40.0131C28.108 40.143 28.0041 40.273 27.9001 40.4029C27.8481 40.4549 27.7182 40.5849 27.9521 40.351L27.8481 40.4549L27.6402 40.6369L27.4583 40.7928C27.4063 40.8448 27.3023 40.8968 27.2503 40.9488C27.2503 40.9488 27.4323 40.7928 27.3543 40.8708L27.3283 40.9228L27.2243 41.0007L27.0164 41.1567C26.8864 41.2607 26.7305 41.3386 26.6005 41.4166L26.3926 41.5206L26.2886 41.5725L26.3926 41.5206L26.3406 41.5466C26.1847 41.6245 26.0287 41.6765 25.8728 41.7545C25.5349 41.8844 25.197 42.0144 24.8331 42.0924C24.6512 42.1444 24.4953 42.1703 24.3133 42.1963H24.3913H24.3133L24.1834 42.2223L23.9234 42.2483C23.4816 42.3003 23.1177 42.7681 22.9618 43.158C22.8578 43.3659 22.8058 43.5739 22.8318 43.8078C22.8578 43.9377 22.9358 44.1197 23.0917 44.0937C24.4693 43.9897 25.8468 44.1197 27.1983 44.4836L27.0684 44.4576C28.186 44.7435 29.2257 45.3153 30.0314 46.147L29.9274 46.043C30.1613 46.3029 30.3433 46.5629 30.4992 46.8748C30.5772 47.0307 30.6552 47.1866 30.7072 47.3426C30.7331 47.4206 30.7591 47.4985 30.7851 47.5765C30.7072 47.4206 30.7851 47.5505 30.7851 47.6025L30.8111 47.7325C30.8371 47.9144 30.8891 48.0703 30.8891 48.2523C30.8891 48.3562 30.9151 48.4602 30.9151 48.5642C30.9151 48.6162 30.9151 48.6422 30.9151 48.6941C30.9151 48.9021 30.9151 48.5642 30.9151 48.6941C30.9151 48.9021 30.8891 49.11 30.8631 49.3179C30.8631 49.4219 30.8371 49.5259 30.8111 49.6298C30.7851 49.7338 30.7331 49.9157 30.8111 49.6298C30.7851 49.6818 30.7851 49.7598 30.7591 49.8118L32.0847 49.162C32.1367 48.4342 32.2146 47.6805 32.3186 46.9527C32.3706 46.5629 32.4486 46.173 32.5265 45.7831C32.5525 45.6532 32.4746 46.017 32.5265 45.8351C32.5265 45.7831 32.5525 45.7571 32.5525 45.7051L32.6305 45.4192C32.6825 45.2373 32.7345 45.0294 32.7864 44.8474C32.8384 44.6655 32.8904 44.4836 32.9684 44.3276L32.9944 44.2756C33.0204 44.1717 32.8904 44.5096 32.9424 44.4056C32.9684 44.3536 32.9684 44.3276 32.9944 44.2756C33.0204 44.1977 33.0724 44.0937 33.0983 44.0157C33.1243 43.9377 33.1763 43.8598 33.2023 43.7818L33.2543 43.6778L33.2803 43.6259L33.2023 43.7558C33.3063 43.5999 33.3842 43.4439 33.4882 43.288C33.5142 43.236 33.6182 43.08 33.4882 43.288C33.3583 43.4959 33.4622 43.3399 33.4882 43.288C33.5142 43.236 33.6182 43.132 33.6701 43.054C33.7221 42.9761 33.9041 42.8201 33.6701 43.054C33.7221 43.0021 33.8001 42.9241 33.8521 42.8721C33.9041 42.8201 33.982 42.7421 34.034 42.7162C34.034 42.7162 33.8261 42.8721 33.9301 42.7941L33.982 42.7681L34.086 42.6902L34.2939 42.5602L34.3979 42.5082C34.5539 42.4303 34.2679 42.5862 34.3979 42.5082C34.5798 42.4303 34.7618 42.3523 34.9697 42.3003C35.0737 42.2743 35.1776 42.2483 35.2556 42.2223H35.3336C35.4376 42.1963 35.2296 42.2483 35.3076 42.2223L35.4635 42.1963C35.9574 42.1444 36.4512 42.1444 36.945 42.2223L37.7768 40.377C36.997 40.4029 36.1913 40.299 35.4376 40.091L35.5675 40.117C34.112 39.6752 32.8124 38.8955 31.8248 37.7778L31.9287 37.8818C31.3309 37.232 30.8631 36.4783 30.5252 35.6725C30.4472 35.4646 30.3693 35.2567 30.2913 35.0488L30.2393 34.8668C30.2133 34.8148 30.2133 34.8148 30.2393 34.8928L30.1873 34.8148C30.1613 34.7109 30.1353 34.6069 30.1094 34.5029C30.0054 34.0351 29.9534 33.5673 29.9274 33.0734C29.9274 32.9175 29.8235 32.8135 29.6675 32.7875C29.4856 32.8135 29.3036 32.8915 29.1737 33.0474C28.7838 33.3853 28.5759 33.8532 28.5499 34.373Z" fill="#0E1E36"/>
<path d="M180.105 47.1866C179.871 44.0937 179.274 41.0527 178.338 38.1157C177.48 35.3866 176.233 32.7875 174.647 30.4223C173.919 29.3827 173.114 28.395 172.204 27.5113C172.204 27.5113 172.204 27.5113 172.178 27.5113C169.969 25.354 167.37 23.6386 164.537 22.417C161.678 21.1954 158.663 20.4157 155.57 20.1038C152.451 19.7919 149.332 19.8699 146.239 20.3897C143.12 20.8835 140.079 21.7412 137.168 22.9888C134.309 24.2104 131.684 25.8738 129.344 27.9271C126.901 30.0584 124.796 32.5276 123.081 35.2567C121.313 38.0117 119.936 41.0007 119 44.1457C118.064 47.2646 117.596 50.5395 117.674 53.7884C117.752 57.1153 118.454 60.4161 119.702 63.5091C120.923 66.5761 122.691 69.4351 124.874 71.9302C127.057 74.4254 129.63 76.5307 132.541 78.1421C135.764 79.9095 139.299 81.0532 142.938 81.547C146.473 82.0408 150.085 81.9369 153.594 81.3131C159.806 80.1954 165.576 77.3364 170.255 73.0739C172.698 70.8386 174.777 68.2395 176.389 65.3545C177.974 62.5734 179.066 59.5324 179.663 56.3875C180.183 53.3725 180.339 50.2796 180.105 47.1866Z" fill="#2FC497"/>
<path d="M129.942 55.01L138.597 63.6911L141.04 66.1342C141.326 66.2902 141.638 66.2902 141.924 66.1602C142.339 66.0043 142.703 65.7704 143.015 65.4585L152.268 55.8417L161.469 46.277L166.667 40.8708C166.979 40.5849 167.239 40.273 167.447 39.9351C167.707 39.5972 167.941 39.2073 168.123 38.8175C168.305 38.4796 168.409 38.1157 168.487 37.7258C168.565 37.414 168.591 37.1021 168.565 36.7902L168.435 36.3223C168.305 36.0624 168.045 35.9065 167.733 35.9065L167.265 35.9844C166.849 36.1404 166.485 36.3743 166.173 36.6862L156.92 46.3029L147.72 55.8677L142.521 61.2739L144.523 60.5981L135.868 51.917L133.424 49.4739C133.243 49.3439 132.983 49.3179 132.775 49.3959C132.489 49.4219 132.229 49.5259 131.995 49.7078C131.683 49.9157 131.397 50.1496 131.163 50.4355C130.851 50.7215 130.591 51.0593 130.383 51.4232C129.994 52.073 129.604 52.8267 129.552 53.6065V54.2043C129.552 54.5162 129.708 54.8021 129.942 55.01Z" fill="white"/>
<path d="M91.8652 161.21C91.8132 161.392 91.7352 161.574 91.6832 161.73C91.6573 161.808 91.6313 161.886 91.6053 161.964C91.6832 161.73 91.6313 161.912 91.6053 161.938L91.5273 162.12C91.3973 162.458 91.2414 162.821 91.0854 163.159C90.7735 163.861 90.4617 164.537 90.1238 165.213L89.8639 165.68C89.8379 165.732 89.8119 165.758 89.7859 165.81C89.7079 165.966 89.8639 165.654 89.8119 165.758C89.7599 165.862 89.7079 165.966 89.6559 166.044C89.474 166.382 89.2921 166.694 89.0841 167.032C88.6943 167.682 88.2784 168.332 87.8365 168.955C87.7326 169.085 87.6286 169.241 87.5506 169.371C87.7326 169.111 87.5247 169.397 87.4727 169.475L87.2907 169.735C87.0568 170.047 86.8489 170.333 86.615 170.619C86.1471 171.217 85.6533 171.814 85.1335 172.36L84.7956 172.724C84.6656 172.854 84.9255 172.568 84.7956 172.724C84.7696 172.75 84.7176 172.802 84.6916 172.828L84.4837 173.036C84.2238 173.296 83.9639 173.556 83.7039 173.816C83.1581 174.336 82.5863 174.855 82.0145 175.349L81.5467 175.739L81.3128 175.921L81.1828 176.025L81.1048 176.077C81.1828 175.999 81.2088 175.999 81.1308 176.051C80.7929 176.311 80.4551 176.571 80.1172 176.805C79.4414 177.299 78.7396 177.766 78.0119 178.182C77.648 178.442 77.3881 178.832 77.3361 179.274C77.3361 179.404 77.3101 179.586 77.4401 179.664C77.57 179.742 77.726 179.664 77.8299 179.586C80.559 177.922 83.0282 175.895 85.2114 173.556C87.4207 171.191 89.2921 168.539 90.7995 165.68C91.6573 164.069 92.359 162.432 92.9568 160.716C93.0348 160.482 93.0088 159.988 92.6449 160.144C92.281 160.3 91.9691 160.846 91.8652 161.21Z" fill="#0E1E36"/>
<path d="M97.3745 164.823C97.3225 165.343 97.2446 165.862 97.1666 166.382C97.1146 166.642 97.0626 166.902 97.0106 167.162C97.0106 167.162 97.0366 167.006 97.0366 167.11L97.0106 167.214L96.9587 167.396C96.9327 167.526 96.9067 167.656 96.8547 167.786C96.7247 168.306 96.5688 168.799 96.4128 169.293C96.3869 169.397 96.3349 169.527 96.2829 169.631L96.2309 169.813L96.2049 169.891C96.2049 169.917 96.1269 170.073 96.1789 169.943C96.2309 169.813 96.1529 169.995 96.1529 170.021C96.1529 170.047 96.101 170.151 96.075 170.203C96.023 170.333 95.971 170.463 95.919 170.593C95.7111 171.061 95.5032 171.529 95.2692 171.996L95.0873 172.334C95.0353 172.412 95.1393 172.23 95.1393 172.23L95.0873 172.308L94.9833 172.516C94.8534 172.75 94.7234 172.958 94.5935 173.192C94.4635 173.426 94.3076 173.634 94.1516 173.868L93.9437 174.18L93.8137 174.362L93.7617 174.414C93.7098 174.518 93.8917 174.232 93.7877 174.362C93.4758 174.777 93.1639 175.193 92.8261 175.583C92.6441 175.817 92.4362 176.025 92.2542 176.233L92.2023 176.285C92.0723 176.415 92.3062 176.181 92.2283 176.259L92.0723 176.415L91.7604 176.727C91.3446 177.143 90.9027 177.532 90.4609 177.896C90.2789 178.052 90.149 178.26 90.045 178.468C89.941 178.65 89.915 178.832 89.915 179.04C89.993 179.456 90.3829 179.248 90.5908 179.066C92.3322 177.61 93.8397 175.895 95.0613 173.972C96.2829 172.048 97.2446 169.943 97.8424 167.734C98.1802 166.512 98.4142 165.265 98.5441 163.991C98.5441 163.861 98.5441 163.679 98.4402 163.601C98.3102 163.549 98.1543 163.575 98.0503 163.653C97.7124 163.939 97.4525 164.355 97.3745 164.823Z" fill="#0E1E36"/>
<path d="M103.976 166.798C103.976 166.902 103.976 167.006 103.976 167.11C103.976 166.954 103.976 167.11 103.976 167.136C103.976 167.162 103.976 167.24 103.976 167.292C103.976 167.5 103.976 167.708 103.924 167.89C103.898 168.28 103.846 168.67 103.769 169.033C103.743 169.137 103.743 169.241 103.717 169.345C103.717 169.397 103.691 169.553 103.717 169.345C103.717 169.397 103.691 169.449 103.691 169.501C103.639 169.709 103.587 169.891 103.535 170.099C103.431 170.463 103.301 170.853 103.171 171.217C103.119 171.399 103.249 171.035 103.171 171.191L103.119 171.321L103.015 171.555C102.937 171.762 102.833 171.944 102.755 172.152C102.677 172.36 102.599 172.49 102.495 172.646C102.391 172.802 102.599 172.438 102.521 172.62L102.443 172.75C102.391 172.828 102.339 172.932 102.287 173.01C102.183 173.166 102.105 173.322 102.001 173.478C101.949 173.556 101.897 173.66 101.819 173.738C101.741 173.816 101.767 173.816 101.741 173.868C101.715 173.894 101.715 173.92 101.689 173.946C101.793 173.816 101.793 173.79 101.741 173.868C101.507 174.18 101.273 174.492 101.013 174.777L100.78 175.037L100.702 175.115C100.883 174.907 100.728 175.089 100.676 175.141C100.52 175.297 100.364 175.453 100.208 175.609C100.052 175.765 99.8958 175.895 99.7139 176.051C99.6359 176.129 99.5579 176.207 99.454 176.259L99.5319 176.207L99.454 176.259L99.298 176.389C98.9341 176.649 98.6742 177.039 98.6222 177.481C98.6222 177.61 98.5963 177.792 98.7262 177.87C98.8562 177.922 99.0121 177.896 99.1161 177.818C102.079 175.583 104.132 172.308 104.86 168.67C105.042 167.708 105.146 166.72 105.12 165.733C105.12 165.603 105.016 165.499 104.886 165.473C104.73 165.499 104.574 165.577 104.444 165.681C104.21 165.966 104.002 166.356 103.976 166.798Z" fill="#0E1E36"/>
</svg>
