<svg width="160" height="160" viewBox="0 0 160 160" fill="none" xmlns="http://www.w3.org/2000/svg">
<path d="M119.31 93.2696C116.881 92.4597 114.472 91.6291 112.042 90.84C110.402 90.3 108.761 89.7394 107.079 89.324C106.373 89.1579 105.625 89.0748 104.899 88.971L105.085 89.3033C105.314 85.8769 104.13 82.5127 102.303 79.647C100.434 76.6982 97.9004 74.2686 95.4085 71.8597C92.9788 69.5339 90.5492 67.2081 88.6387 64.4254C87.7042 63.0964 86.9359 61.6636 86.3544 60.1476C85.7315 58.5071 85.5238 56.7835 85.3369 55.0599C85.1708 53.3779 84.9631 51.6543 84.2363 50.0968C83.6341 48.7886 82.6165 47.5841 81.2252 47.065C78.3595 46.0059 75.2861 47.8956 73.7079 50.2422C71.7558 53.191 71.5897 56.8666 71.5067 60.2722C71.4236 64.1555 71.6313 68.0388 72.1504 71.8805C72.628 75.4523 73.2925 79.1071 74.8085 82.4297C76.096 85.2539 78.0688 87.8496 80.7683 89.4694C81.4121 89.864 82.0974 90.1754 82.8034 90.4246C83.0734 90.5285 83.3433 90.1962 83.4679 89.9886C83.5302 89.864 83.8417 89.2825 83.5718 89.1994C80.7476 88.2027 78.4633 86.0638 76.8851 83.551C75.0577 80.6438 74.1647 77.2589 73.5625 73.9156C72.898 70.2192 72.545 66.4605 72.4619 62.7226C72.4204 60.8952 72.4411 59.0678 72.5657 57.2404C72.6696 55.6621 72.8357 54.0631 73.3548 52.568C73.5833 51.8827 73.9155 51.2182 74.3101 50.616L74.3724 50.5329C74.4347 50.4291 74.3101 50.616 74.3724 50.5329C74.4347 50.4498 74.4762 50.4083 74.5177 50.346C74.5593 50.2837 74.6216 50.2006 74.6839 50.1383L74.7669 50.0345C74.7877 50.0138 74.8292 49.9722 74.7877 50.0138C75.0161 49.7853 75.2446 49.5569 75.4938 49.37C76.5321 48.5394 77.8196 48.0825 79.1486 48.1033C80.5192 48.1656 81.7859 48.8716 82.575 49.993C83.4887 51.2182 83.904 52.7133 84.1325 54.2085C84.4024 55.9736 84.444 57.7803 84.88 59.5246C85.2746 61.0613 85.8768 62.5357 86.6659 63.9271C88.2857 66.7513 90.5077 69.1394 92.8127 71.4029C95.2423 73.7702 97.7758 76.0545 99.894 78.7125C101.95 81.2875 103.59 84.3402 104.006 87.642C104.109 88.4103 104.13 89.1787 104.089 89.9678C104.089 90.1131 104.089 90.2793 104.276 90.3C104.94 90.4039 105.625 90.4662 106.29 90.6115C106.913 90.7569 107.494 90.923 108.097 91.1099C110.194 91.7537 112.271 92.439 114.347 93.1242C115.739 93.5811 117.13 94.0587 118.521 94.5363C118.791 94.6402 119.061 94.3079 119.186 94.1002C119.29 93.9549 119.58 93.3527 119.31 93.2696Z" fill="white"/>
<path d="M72.7526 72.0259C67.4988 70.323 62.0788 69.2017 56.5758 68.724C54.1046 68.4956 51.4258 68.1841 49.0377 69.0355C46.9196 69.8039 45.2998 71.569 44.7391 73.7495C44.1784 75.9091 44.5937 78.3388 46.2343 79.9378L46.9196 78.671C44.2407 78.4011 41.645 79.8547 40.1706 82.0351C38.7169 84.174 38.8 86.8113 39.6929 89.1579C40.129 90.4039 40.8766 91.546 41.8734 92.439L42.3302 91.2553C40.2536 92.5843 38.7585 94.8686 38.4677 97.3398C38.3224 98.4819 38.4885 99.6448 38.9454 100.704C39.4437 101.742 40.1706 102.635 41.0843 103.341C42.1018 104.151 43.2647 104.733 44.5107 105.044L44.9883 103.777C43.8877 103.985 42.9325 104.795 42.2679 105.667C41.4996 106.622 41.0012 107.764 40.8143 108.99C40.6689 110.152 40.9597 111.44 41.4165 112.52C41.9149 113.683 42.7663 114.7 43.8254 115.386C45.0506 116.258 46.3796 117.005 47.771 117.566C49.1623 118.106 50.6367 118.397 52.0696 118.791C54.873 119.56 57.6556 120.349 60.4383 121.138C65.6506 122.612 70.8629 124.045 76.1583 125.208C79.1071 125.852 82.0558 126.433 85.0254 126.911C87.6627 127.347 90.3415 127.471 92.9996 127.285C93.9964 127.222 94.9931 127.098 95.9899 126.994C96.4052 126.952 96.8206 126.89 97.2359 126.848C97.4228 126.828 97.6304 126.807 97.8173 126.807C97.9419 126.807 98.025 126.765 98.0665 126.765C98.2742 126.828 98.4819 126.911 98.6687 127.015L99.8524 127.513C101.098 128.032 102.344 128.551 103.611 129.07C104.338 129.382 105.065 129.673 105.792 129.963C106.269 130.15 106.975 128.904 106.56 128.738C104.213 127.783 101.867 126.807 99.5202 125.81C99.3125 125.727 99.0841 125.623 98.8764 125.54C98.6272 125.478 98.3988 125.478 98.1496 125.54C97.2982 125.623 96.4468 125.727 95.5746 125.831C93.3111 126.101 91.006 126.163 88.7218 126.018C85.7522 125.81 82.8034 125.187 79.8754 124.606C74.6216 123.547 69.4508 122.218 64.3008 120.806C61.7258 120.079 59.1716 119.352 56.5758 118.625C55.1845 118.23 53.7724 117.836 52.381 117.462C50.9482 117.068 49.4738 116.777 48.124 116.195C46.795 115.614 45.549 114.887 44.3861 114.036C43.3685 113.33 42.6002 112.312 42.1849 111.149C41.8111 110.152 41.5619 108.948 41.8526 107.889C42.081 106.975 42.621 106.165 43.3478 105.584C43.7216 105.293 44.1577 105.106 44.6145 105.023C44.9675 104.961 45.6321 103.902 45.0921 103.757C43.1609 103.237 41.2919 102.012 40.2121 100.309C39.1738 98.6065 39.0907 96.4676 40.0044 94.6817C40.5028 93.7265 41.2504 92.9166 42.1641 92.3559C42.4341 92.1898 42.9532 91.4837 42.621 91.1722C41.0427 89.8224 40.1706 87.5797 39.9837 85.5446C39.9006 84.6101 40.0044 83.6341 40.4198 82.845C40.9389 81.9313 41.7073 81.163 42.6417 80.6646C43.7631 80.0416 45.0506 79.7716 46.3173 79.917C46.7534 79.9585 47.3349 78.9825 47.0026 78.6503C45.7151 77.4043 45.2375 75.5146 45.5282 73.791C45.5905 73.3964 45.7151 73.0226 45.8605 72.6488C46.0058 72.3166 46.1927 72.0051 46.4212 71.7144C47.0234 70.9668 47.9163 70.4684 48.8508 70.1777C51.0935 69.4509 53.5647 69.7416 55.849 69.9492C58.4032 70.1777 60.9575 70.5307 63.4909 71.0083C66.3567 71.569 69.2016 72.2958 71.9843 73.2303C72.4827 73.4172 73.1472 72.1505 72.7526 72.0259Z" fill="white"/>
<path d="M47.2518 80.4985C49.3077 80.6854 51.3635 80.9138 53.4194 81.2045C55.4752 81.4745 57.5103 81.8067 59.5454 82.1598C60.5629 82.3467 61.5804 82.5336 62.598 82.7412C63.574 82.9281 64.55 83.115 65.526 83.385C67.1665 83.8418 68.8694 84.6102 69.9077 85.9807C70.4268 86.666 70.7591 87.4551 70.9044 88.2858C70.9875 88.7426 71.0083 89.1787 71.0083 89.6356V89.6148C71.0083 89.6563 71.0083 89.6771 71.0083 89.7186V89.864C71.0083 89.9886 70.9875 90.1132 70.9875 90.217C70.9667 90.4455 70.946 90.6739 70.9044 90.8815C70.8837 90.9854 70.8629 91.0684 70.8629 91.1515C70.8629 91.193 70.8421 91.2553 70.8421 91.2969C70.8421 91.3176 70.8214 91.3799 70.8421 91.2969C70.8629 91.2138 70.8421 91.3384 70.8421 91.3384C70.8006 91.5461 70.7383 91.733 70.676 91.9199C70.6345 92.0237 70.6137 92.1067 70.5722 92.2106C70.5722 92.2106 70.6345 92.086 70.5929 92.1483C70.5929 92.169 70.5722 92.1898 70.5722 92.2106L70.5099 92.3767C70.4683 92.4598 70.4268 92.5636 70.3853 92.6467C70.3438 92.7297 70.4683 92.5013 70.3853 92.6259C70.3645 92.6674 70.323 92.7297 70.3022 92.7713C70.2815 92.8128 70.2607 92.8543 70.2192 92.8959L70.1776 92.9374C70.1153 93.0412 70.2192 92.8959 70.2192 92.8959C70.1569 92.9789 70.0946 93.062 70.0115 93.1451C69.9907 93.1658 69.9077 93.2696 69.97 93.1866C70.0323 93.1035 69.9284 93.2281 69.9077 93.2489L69.8038 93.3527L69.7623 93.3942C69.7623 93.3942 69.6585 93.4773 69.7208 93.4358C69.7831 93.3942 69.6585 93.4773 69.6377 93.4981L69.5339 93.5604C69.4508 93.6227 69.347 93.6642 69.2639 93.7265L69.2016 93.768C69.3054 93.7265 69.2224 93.7473 69.2016 93.768L69.0563 93.8303C68.9732 93.8719 68.8694 93.9134 68.7863 93.9342C68.5994 93.9965 68.3917 94.0588 68.1841 94.1003C68.0179 94.1418 67.8311 94.1626 67.6442 94.1834C67.2288 94.2249 66.8135 94.2249 66.3982 94.2041C65.4845 94.1626 64.5708 94.0172 63.6571 93.9134C61.6012 93.6642 59.5454 93.4358 57.4895 93.2074C55.4337 92.9789 53.3778 92.7297 51.3427 92.439C49.3077 92.1483 47.2518 91.8368 45.2167 91.4422C44.7183 91.3384 44.22 91.2553 43.7216 91.1515C43.6177 91.1307 43.4516 91.2553 43.3686 91.3176C43.2232 91.4422 43.1194 91.6084 43.0363 91.7745C42.9532 91.9614 42.8286 92.3559 43.1194 92.4182C45.196 92.8543 47.2726 93.2074 49.37 93.4981C51.4673 93.7888 53.544 94.0588 55.6206 94.308C57.6972 94.5571 59.8153 94.7856 61.9335 95.0348C62.9302 95.1594 63.927 95.284 64.9238 95.3878C65.7752 95.4916 66.6266 95.4916 67.4573 95.3878C68.371 95.2632 69.2224 94.8686 69.9077 94.2457C70.6345 93.5396 71.1744 92.6674 71.4651 91.6914C71.7351 90.8192 71.9012 89.9263 71.922 89.0126C71.9635 88.0366 71.8181 87.0606 71.4859 86.1469C70.8629 84.4856 69.4093 83.3227 67.8103 82.6374C66.8758 82.2636 65.8998 81.9521 64.903 81.7652C63.8855 81.5368 62.8679 81.3499 61.8504 81.1422C59.7738 80.7477 57.6972 80.3946 55.5998 80.0832C53.5024 79.7717 51.4258 79.5225 49.3077 79.294C48.7885 79.2525 48.2901 79.1902 47.771 79.1487C47.3972 79.1694 46.7534 80.4569 47.2518 80.4985Z" fill="white"/>
<path d="M64.0724 95.4293C64.4254 95.4708 64.7577 95.5331 65.0899 95.6162L64.9861 95.5954C66.0036 95.8861 66.9381 96.4468 67.6442 97.2359L67.5819 97.1736C67.8518 97.4643 68.0802 97.7966 68.2671 98.1496C68.371 98.3365 68.454 98.5234 68.5163 98.7103C68.5579 98.8141 68.5786 98.8972 68.6202 99.001C68.6202 99.0218 68.6409 99.0426 68.6409 99.0841C68.6409 99.1256 68.6617 99.1464 68.6409 99.1049C68.6202 99.0633 68.6409 99.1464 68.6617 99.1464L68.6825 99.2502C68.724 99.4579 68.7655 99.6656 68.7863 99.8732C68.8071 99.977 68.8071 100.081 68.8071 100.164C68.8278 100.268 68.8278 100.372 68.8071 100.475C68.8071 100.455 68.8071 100.372 68.8071 100.455C68.8071 100.475 68.8071 100.496 68.8071 100.517C68.8071 100.579 68.8071 100.621 68.8071 100.683C68.8071 100.787 68.7863 100.891 68.7655 100.995C68.7448 101.098 68.7448 101.202 68.724 101.285C68.724 101.306 68.724 101.327 68.724 101.348C68.7032 101.431 68.7448 101.244 68.724 101.306C68.7032 101.389 68.7032 101.431 68.6825 101.472C68.6617 101.514 68.6409 101.659 68.5994 101.742C68.5786 101.784 68.5579 101.846 68.5579 101.888C68.5579 101.888 68.6202 101.721 68.5786 101.825L68.5371 101.888C68.4956 101.991 68.454 102.074 68.4125 102.178C68.3917 102.199 68.3087 102.365 68.3917 102.241C68.4748 102.116 68.4125 102.199 68.3917 102.22C68.371 102.241 68.3502 102.282 68.3294 102.324C68.2879 102.407 68.2256 102.49 68.1841 102.552C68.1425 102.614 68.2256 102.49 68.2256 102.49C68.2048 102.511 68.1841 102.531 68.1841 102.552C68.1425 102.594 68.1218 102.635 68.0802 102.677C68.0387 102.718 68.0179 102.76 67.9764 102.801C67.9349 102.843 67.8518 102.947 67.9349 102.864C68.0179 102.78 67.8934 102.905 67.8726 102.926L67.748 103.03C67.6649 103.092 67.6026 103.175 67.5196 103.237C67.478 103.258 67.3534 103.341 67.478 103.279C67.4365 103.3 67.395 103.341 67.3534 103.383C67.1873 103.507 67.0004 103.632 66.8135 103.736L66.5436 103.881C66.6474 103.819 66.502 103.902 66.4813 103.923L66.3359 103.985C66.149 104.068 65.9413 104.151 65.7337 104.213C64.82 104.504 63.8647 104.691 62.9095 104.712C61.8712 104.774 60.8329 104.753 59.8153 104.732C57.6972 104.691 55.579 104.587 53.4817 104.442C51.3843 104.296 49.2661 104.068 47.1895 103.777L46.4004 103.673C46.2758 103.653 46.1304 103.777 46.0474 103.84C45.902 103.964 45.7982 104.13 45.7151 104.296C45.6321 104.483 45.4867 104.899 45.7982 104.94C48.3317 105.293 50.8651 105.563 53.4194 105.75C55.9528 105.937 58.5071 106.041 61.0613 106.02C62.3073 106.041 63.574 105.916 64.7784 105.625C65.8583 105.355 66.855 104.836 67.7065 104.13C69.4923 102.614 70.2399 100.205 69.5962 97.942C69.0147 96.0107 67.3119 94.6194 65.3806 94.1833C65.1522 94.121 64.903 94.1002 64.6746 94.0795C64.2177 94.1002 63.574 95.3877 64.0724 95.4293Z" fill="white"/>
<path d="M62.4942 106.124C62.7641 106.186 63.0341 106.248 63.304 106.311L63.221 106.29C64.6538 106.664 65.9413 107.432 66.9589 108.512L66.8966 108.45C67.395 108.99 67.7895 109.633 68.0595 110.319C68.101 110.402 68.1218 110.485 68.1633 110.568C68.1841 110.609 68.1841 110.651 68.2048 110.692C68.2256 110.734 68.2464 110.838 68.2256 110.755C68.2671 110.942 68.3087 111.128 68.3502 111.295C68.3917 111.481 68.4125 111.668 68.4125 111.855C68.4125 111.938 68.4125 112.021 68.4125 112.104C68.4125 112.104 68.4125 112.188 68.4125 112.104V112.146V112.291C68.4125 112.457 68.3917 112.624 68.3502 112.79C68.3502 112.831 68.3294 112.873 68.3294 112.935C68.3294 112.997 68.3502 112.873 68.3502 112.873C68.3502 112.894 68.3502 112.914 68.3294 112.935C68.3087 113.018 68.2879 113.122 68.2671 113.205C68.2464 113.288 68.2256 113.371 68.1841 113.454C68.1841 113.475 68.1633 113.496 68.1633 113.517C68.1425 113.579 68.2048 113.433 68.1841 113.433L68.1425 113.558C68.101 113.641 68.0802 113.724 68.0387 113.787L67.9764 113.89C67.9556 113.911 67.9556 113.932 67.9349 113.953C67.9349 113.932 68.0179 113.807 67.9764 113.89C67.9349 113.973 67.8933 114.036 67.8518 114.098C67.831 114.14 67.8103 114.16 67.7895 114.202C67.7895 114.223 67.7687 114.243 67.748 114.243L67.7895 114.181C67.748 114.243 67.6857 114.306 67.6234 114.389C67.6026 114.43 67.5611 114.451 67.5403 114.493L67.4988 114.534C67.4365 114.596 67.6026 114.43 67.5403 114.493C67.4157 114.617 67.2911 114.721 67.1665 114.825C67.1042 114.866 67.2704 114.763 67.2081 114.804L67.1665 114.846L67.0627 114.908C66.9796 114.949 66.9173 115.012 66.8343 115.053L66.7304 115.116L66.6681 115.157C66.6474 115.157 66.5643 115.199 66.6266 115.178C66.6889 115.157 66.6266 115.178 66.6058 115.178L66.5435 115.199C66.502 115.219 66.4605 115.24 66.3982 115.261C66.2321 115.344 66.0452 115.406 65.8583 115.448C65.7752 115.469 65.6714 115.489 65.5883 115.51L65.3391 115.552C65.3806 115.552 65.3183 115.552 65.3183 115.552L65.2353 115.572L65.1107 115.593C65.0069 115.614 64.903 115.614 64.7992 115.635C64.0308 115.697 63.2417 115.676 62.4734 115.593C60.6667 115.448 58.8808 115.282 57.0742 115.116L51.6127 114.638L50.9482 114.576C50.4913 114.534 49.8476 115.822 50.3667 115.863L57.2611 116.465L60.7083 116.777C61.7258 116.901 62.7433 116.943 63.7609 116.943C64.7784 116.943 65.7752 116.673 66.6681 116.175C67.5611 115.614 68.2879 114.783 68.7448 113.828C69.1808 112.935 69.3885 111.938 69.3262 110.962C69.2639 110.007 68.9524 109.073 68.454 108.263C67.4157 106.56 65.6714 105.501 63.7817 104.982C63.5532 104.919 63.3248 104.857 63.0756 104.816C62.9718 104.795 62.8056 104.919 62.7226 104.982C62.5772 105.106 62.4734 105.272 62.3903 105.439C62.3073 105.625 62.1827 106.041 62.4734 106.103L62.4942 106.124Z" fill="white"/>
<path d="M65.2768 83.2603C66.772 83.4264 68.3502 83.6548 69.8454 83.3226C70.946 83.0526 71.9843 82.5127 72.8357 81.7651C73.521 81.1421 74.144 80.4361 74.6423 79.647C74.7462 79.5016 74.8085 79.3355 74.8292 79.1693C74.8292 79.0655 74.8292 78.9201 74.7462 78.8579C74.497 78.7125 74.1647 79.1278 74.0817 79.2939L73.9155 79.5224C73.8948 79.5639 73.8532 79.6054 73.8325 79.6262L73.874 79.5639L73.8325 79.6262C73.7286 79.7716 73.604 79.9169 73.5002 80.0623C73.4379 80.1246 73.3964 80.1869 73.3341 80.2492L73.251 80.3322C73.1679 80.4153 73.3548 80.2284 73.251 80.3322C73.1472 80.4361 73.0018 80.5814 72.8772 80.6853C72.7526 80.7891 72.6488 80.8929 72.5242 80.9968C72.4411 81.0591 72.628 80.9137 72.5242 80.9968L72.4411 81.0591C72.3788 81.1006 72.3165 81.1421 72.2542 81.1837C72.0258 81.329 71.7974 81.4744 71.569 81.599L71.5274 81.6197C71.5274 81.6197 71.6312 81.5782 71.569 81.599L71.4859 81.6405L71.3198 81.7236C71.2159 81.7651 71.0913 81.8066 70.9875 81.8482C70.7798 81.9312 70.5722 81.9935 70.3437 82.0351L70.1984 82.0766L70.1361 82.0974H70.0946H70.0323H69.97L69.8246 82.1181C69.4716 82.1597 69.1185 82.1804 68.7655 82.1804C67.7895 82.1597 66.8135 82.0974 65.8583 81.952C65.7337 81.9728 65.6091 82.0351 65.5052 82.1181C65.3599 82.2427 65.256 82.4089 65.173 82.575C65.1107 82.7619 64.9653 83.2187 65.2768 83.2603Z" fill="white"/>
<path d="M66.7097 84.9008C64.3631 85.9391 62.8264 88.6803 63.4494 91.2137C63.6155 91.8782 63.9062 92.522 64.3216 93.0619C64.5085 93.2903 64.82 93.0204 64.9446 92.8543C65.0692 92.7089 65.1522 92.5428 65.2145 92.3559C65.2353 92.252 65.2976 92.0651 65.2145 91.9613C64.8823 91.5252 64.6331 91.0476 64.4462 90.5284L64.4254 90.4454C64.4462 90.5284 64.4046 90.4038 64.4046 90.3831C64.3839 90.3208 64.3839 90.2793 64.3631 90.217C64.3216 90.0716 64.3008 89.947 64.28 89.8016C64.2593 89.6563 64.2593 89.5317 64.2385 89.3863C64.2385 89.324 64.2385 89.2825 64.2385 89.2202C64.2385 89.0748 64.2385 89.2825 64.2385 89.1994V89.054C64.2385 88.9295 64.2593 88.8049 64.28 88.6803C64.28 88.618 64.3008 88.5349 64.3216 88.4726C64.3423 88.4103 64.3631 88.3688 64.3216 88.4934C64.3423 88.4518 64.3423 88.4103 64.3423 88.3688C64.3631 88.2649 64.4046 88.1403 64.4462 88.0365C64.4669 87.995 64.4669 87.9742 64.4877 87.9327C64.4877 87.9327 64.4254 88.0988 64.4669 87.995C64.4877 87.9327 64.5292 87.8704 64.55 87.8081C64.5708 87.7458 64.5915 87.7043 64.6331 87.642L64.6746 87.5589C64.7161 87.4758 64.5708 87.725 64.6538 87.6004C64.7369 87.4758 64.7784 87.372 64.8615 87.2682C64.8823 87.2474 64.8823 87.2266 64.903 87.2059C64.7784 87.3928 64.8407 87.3097 64.8615 87.2474C64.8823 87.1851 64.9238 87.1436 64.9653 87.102L65.0899 86.9567C65.1107 86.9359 65.1314 86.9151 65.1314 86.8944C65.2353 86.7905 65.0069 87.019 65.1107 86.9151C65.2145 86.8113 65.3183 86.7075 65.4222 86.6244L65.4845 86.5829L65.5468 86.5413C65.5883 86.4998 65.5883 86.4998 65.5468 86.5413C65.4845 86.6036 65.5468 86.5413 65.5883 86.5206L65.6921 86.4583C65.8167 86.3752 65.9206 86.2922 66.0452 86.2299C66.1075 86.1883 66.149 86.1676 66.2113 86.1468C66.1075 86.1676 66.1698 86.1676 66.2113 86.1468L66.3359 86.0845C66.6474 85.9184 66.8758 85.6484 66.9589 85.2954C67.0004 85.1708 67.0004 85.0254 66.9589 84.9008C66.9173 84.8801 66.7927 84.8385 66.7097 84.9008Z" fill="white"/>
<path d="M64.5915 96.5713C62.7849 97.8381 61.705 100.205 62.245 102.386C62.3903 102.967 62.6395 103.528 62.9718 104.006C63.1379 104.255 63.4702 103.964 63.5948 103.798C63.7194 103.653 63.8024 103.486 63.8647 103.3C63.8855 103.196 63.9478 103.009 63.8647 102.905C63.3456 102.178 63.0548 101.285 63.0548 100.392C63.0548 100.372 63.0548 100.288 63.0548 100.392C63.0548 100.372 63.0548 100.33 63.0548 100.309C63.0548 100.288 63.0548 100.205 63.0548 100.164C63.0548 100.039 63.0756 99.9147 63.0964 99.7901C63.1171 99.7278 63.1171 99.6863 63.1171 99.624C63.1171 99.624 63.0964 99.7486 63.1171 99.6863L63.1379 99.6032C63.1587 99.4994 63.2002 99.3748 63.2417 99.2709C63.2625 99.2294 63.2833 99.1671 63.2833 99.1256C63.2833 99.1256 63.221 99.2709 63.2625 99.1879L63.304 99.1048C63.3456 99.001 63.3871 98.8972 63.4494 98.7933C63.4494 98.7726 63.4702 98.7518 63.4909 98.731C63.4909 98.731 63.4079 98.8764 63.4494 98.8141C63.4909 98.7518 63.4909 98.731 63.5325 98.6687C63.574 98.5649 63.6363 98.4611 63.7194 98.378C63.7194 98.378 63.6155 98.5234 63.6571 98.4611L63.7194 98.378C63.7609 98.3157 63.8024 98.2742 63.844 98.2119L63.9478 98.0873C64.0308 98.0042 63.9063 98.1288 63.9063 98.1288C63.927 98.108 63.9478 98.0873 63.9685 98.0665C64.0516 97.9834 64.1347 97.9004 64.2385 97.8173L64.3008 97.7758C64.3839 97.7135 64.3008 97.755 64.28 97.7758C64.3008 97.7342 64.4046 97.672 64.4462 97.6512C64.7369 97.4643 64.9446 97.1528 65.0069 96.7998C65.0069 96.6959 65.0069 96.5506 64.9238 96.4883C64.82 96.4883 64.6954 96.509 64.5915 96.5713Z" fill="white"/>
<path d="M65.0069 108.803C63.6363 109.862 62.8679 111.502 62.951 113.226C62.9718 113.641 63.0756 114.057 63.221 114.43C63.2625 114.534 63.3871 114.534 63.4909 114.513C63.6363 114.451 63.7609 114.347 63.8647 114.223C64.0516 113.994 64.2593 113.641 64.1347 113.33C64.1139 113.267 64.0931 113.184 64.0724 113.122C64.0724 113.101 64.0516 113.018 64.0516 113.081L64.0101 112.956C63.9685 112.811 63.9478 112.665 63.927 112.499C63.927 112.437 63.9062 112.354 63.9062 112.271C63.9062 112.229 63.9062 112.208 63.9062 112.167C63.9062 112.125 63.9062 112.021 63.9062 112.084C63.9062 112.146 63.9062 112.042 63.9062 112.021C63.9062 111.98 63.9062 111.938 63.9062 111.918C63.9062 111.835 63.927 111.751 63.927 111.668C63.927 111.585 63.9478 111.523 63.9685 111.461C63.9685 111.44 63.9685 111.419 63.9685 111.398C63.9685 111.336 63.9478 111.461 63.9478 111.461C63.9685 111.419 63.9685 111.378 63.9893 111.336C64.0101 111.253 64.0308 111.17 64.0516 111.108C64.0516 111.066 64.0724 111.045 64.0931 111.004C64.1139 110.962 64.1554 110.838 64.1139 110.942C64.0724 111.045 64.1139 110.942 64.1347 110.9L64.1762 110.796C64.2177 110.734 64.2385 110.651 64.28 110.589C64.3423 110.485 64.197 110.734 64.2593 110.63L64.3216 110.526C64.3631 110.464 64.4046 110.381 64.4462 110.319C64.4877 110.256 64.3839 110.402 64.3839 110.402C64.4046 110.381 64.4046 110.36 64.4254 110.339L64.5085 110.236L64.5915 110.132C64.6123 110.111 64.7161 110.007 64.6331 110.09C64.55 110.173 64.6538 110.069 64.6746 110.049L64.7784 109.966L64.8823 109.883C64.9238 109.862 65.0484 109.758 64.903 109.862C65.1937 109.654 65.4014 109.343 65.4429 108.99C65.4429 108.886 65.4429 108.74 65.3391 108.678C65.2145 108.699 65.0899 108.72 65.0069 108.803Z" fill="white"/>
<path d="M68.8486 79.4393L68.7032 79.294L68.7655 79.3563C68.4333 78.9825 68.1633 78.5256 67.9764 78.048C67.9557 77.9857 67.9349 77.9442 67.9141 77.8819L67.8934 77.8196L67.8726 77.7573C67.8311 77.6327 67.8103 77.5081 67.7895 77.3627C67.7688 77.2174 67.748 77.1343 67.748 77.0097C67.748 76.9474 67.748 76.8851 67.748 76.8228C67.748 76.7813 67.748 76.7605 67.748 76.719C67.748 76.8436 67.748 76.719 67.748 76.6982C67.748 76.5736 67.7688 76.449 67.7895 76.3452C67.7895 76.2829 67.8103 76.2206 67.8311 76.1583C67.8518 76.096 67.8726 76.0545 67.8311 76.1998C67.8518 76.1583 67.8518 76.1168 67.8518 76.096C67.8726 75.9922 67.9141 75.8883 67.9557 75.7637C67.9972 75.6391 67.9141 75.8883 67.9349 75.8053L67.9764 75.7222C67.9972 75.6599 68.018 75.5976 68.0595 75.5561C68.101 75.5145 68.2048 75.3069 68.0802 75.5145C68.1218 75.473 68.1425 75.4107 68.1633 75.3692C68.1841 75.3276 68.2256 75.2653 68.2671 75.2238C68.3087 75.1823 68.2879 75.1823 68.3087 75.1615C68.1841 75.3692 68.2671 75.2238 68.2879 75.1823C68.3502 75.0992 68.4333 74.9954 68.4956 74.9123C68.5371 74.8708 68.5994 74.8085 68.454 74.9539L68.5163 74.8916L68.6617 74.7462C68.7032 74.7047 68.7655 74.6631 68.8278 74.6008C68.8486 74.5801 68.8694 74.5801 68.8901 74.5593C68.8278 74.6216 68.8071 74.6216 68.8486 74.5801L68.8901 74.5593C68.994 74.4762 69.1186 74.3932 69.2432 74.3309C69.3055 74.2893 69.3677 74.2686 69.43 74.227C69.4923 74.1855 69.3262 74.2686 69.43 74.227L69.5339 74.1855C69.6585 74.1232 69.7831 74.0817 69.9284 74.0401C70.2399 73.9363 70.4891 73.5625 70.5514 73.251C70.6137 73.0434 70.6137 72.6903 70.3022 72.7734C68.4333 73.4587 67.0835 75.12 66.855 77.1135C66.7927 77.7365 66.8758 78.3595 67.0627 78.9617C67.2704 79.6055 67.6234 80.1869 68.101 80.6438C68.1841 80.7268 68.3502 80.623 68.4125 80.6022C68.5579 80.4984 68.6825 80.3738 68.7655 80.2285C68.8694 80.0208 69.0563 79.647 68.8486 79.4393Z" fill="white"/>
<path d="M78.7956 48.5186L78.7333 51.592C78.7125 52.5887 78.671 53.6063 78.671 54.603C78.671 55.4337 78.754 56.3266 79.2317 57.0534C79.7093 57.718 80.4361 58.1541 81.246 58.2787C82.3258 58.4863 83.4472 58.2164 84.5062 57.9672C84.6516 57.9049 84.7762 57.801 84.88 57.6764C85.0046 57.5311 85.0877 57.3649 85.15 57.178C85.2123 56.9496 85.2123 56.6381 84.9008 56.7212C83.8002 56.9704 82.6581 57.2196 81.5367 56.9081L81.6198 56.9289C81.1006 56.7835 80.623 56.5135 80.2492 56.119L80.3115 56.1813C80.1454 55.9944 80.0208 55.7867 79.9169 55.5791C79.8754 55.4752 79.8339 55.3714 79.7923 55.2676C79.7923 55.2676 79.7716 55.1845 79.7716 55.226C79.7716 55.2676 79.7508 55.143 79.7508 55.1637C79.73 55.1014 79.73 55.0391 79.7093 54.9768C79.6677 54.7276 79.6262 54.4992 79.6262 54.25C79.6262 54.1254 79.6054 54.0008 79.6054 53.8762C79.6054 53.8139 79.6054 53.7724 79.6054 53.7101C79.6054 53.6478 79.6054 53.6478 79.6054 53.627V53.5855C79.6262 52.3811 79.6677 51.1766 79.6885 49.9722L79.73 47.9164C79.73 47.8125 79.7508 47.6672 79.647 47.6049C79.5431 47.5633 79.4185 47.5841 79.3355 47.6464C79.1901 47.7502 79.0655 47.8748 78.9825 48.0202C78.8786 48.1655 78.8163 48.3524 78.7956 48.5186Z" fill="white"/>
<path d="M107.432 131.292C111.585 118.936 116.32 104.878 120.473 92.522L130.773 96.1976C126.62 108.553 121.636 123.36 117.483 135.736L107.432 131.292Z" fill="white"/>
<path d="M107.868 131.147L110.36 123.733L112.935 116.092L115.531 108.367L118.106 100.704L120.598 93.2696L120.909 92.3766L120.079 93.145L123.567 94.3909L129.112 96.3637L130.379 96.8206L130.316 96.3637L127.804 103.84L125.166 111.668L122.487 119.622L119.85 127.471L117.317 135.009L117.026 135.902L117.857 135.134L114.451 133.618L109.073 131.251L107.827 130.69C107.557 130.566 107.266 130.919 107.162 131.126C107.079 131.272 106.809 131.811 107.058 131.915L110.464 133.41L115.842 135.778L117.088 136.339C117.483 136.505 117.836 135.84 117.919 135.57L120.432 128.094L123.069 120.266L125.748 112.312L128.385 104.462L130.919 96.9244L131.209 96.0314C131.251 95.9276 131.313 95.6161 131.147 95.5746L127.658 94.3286L122.134 92.3558L120.868 91.899C120.473 91.7536 120.141 92.3766 120.037 92.6673L117.545 100.081L114.949 107.723L112.354 115.448L109.779 123.11L107.287 130.545L106.975 131.438C106.913 131.645 106.934 131.998 107.224 131.895C107.515 131.791 107.764 131.417 107.868 131.147Z" fill="white"/>
<path d="M130.669 96.4883L141.447 99.4994C143.046 99.9562 144.022 101.597 143.648 103.217L135.529 137.875C134.906 140.575 132.185 142.257 129.486 141.613C129.091 141.53 128.717 141.385 128.364 141.198L117.421 135.674" fill="white"/>
<path d="M130.379 97.1321L132.518 97.7343L136.92 98.9595L140.575 99.977L141.011 100.102L141.135 100.143L141.177 100.164C142.236 100.475 143.025 101.368 143.233 102.448C143.316 103.009 143.233 103.383 143.088 103.943L142.631 105.916L141.904 109.01L140.99 112.956L139.952 117.4L138.851 122.072L137.771 126.641L136.795 130.815L135.985 134.303L135.404 136.795C135.3 137.19 135.217 137.584 135.134 137.979L135.113 138.041C135.093 138.145 135.072 138.228 135.03 138.332C134.989 138.436 134.989 138.477 134.968 138.54C134.968 138.56 134.947 138.602 134.947 138.623C134.968 138.56 134.968 138.56 134.947 138.623C134.906 138.747 134.843 138.851 134.781 138.976C134.74 139.038 134.677 139.163 134.74 139.038C134.698 139.1 134.677 139.163 134.636 139.204C134.594 139.246 134.573 139.308 134.532 139.37C134.449 139.495 134.594 139.287 134.511 139.391C134.428 139.495 134.345 139.599 134.262 139.703L134.179 139.786L134.2 139.765C134.158 139.806 134.117 139.848 134.075 139.89C133.971 139.973 133.888 140.056 133.784 140.139L133.722 140.201C133.805 140.139 133.722 140.201 133.722 140.201L133.577 140.305C133.473 140.388 133.369 140.45 133.244 140.513C133.057 140.637 132.85 140.72 132.642 140.803C131.708 141.156 130.669 141.219 129.693 140.969C129.278 140.845 128.883 140.699 128.51 140.492L125.685 139.059L121.532 136.92L118.334 135.3L117.857 135.051C117.587 134.926 117.296 135.3 117.192 135.487C117.109 135.632 116.839 136.152 117.088 136.276L118.999 137.231L123.069 139.287L126.848 141.198C127.7 141.613 128.51 142.091 129.444 142.278C131.687 142.714 133.888 141.551 135.134 139.723C135.612 138.976 135.944 138.166 136.131 137.294L136.567 135.466L137.273 132.455L138.187 128.551L139.225 124.107L140.326 119.393L141.405 114.742L142.402 110.485L143.233 106.913L143.835 104.338C143.939 103.923 144.022 103.507 144.126 103.113C144.271 102.552 144.292 101.971 144.188 101.389C143.96 100.247 143.15 99.3125 142.049 98.9179C141.281 98.6688 140.513 98.4819 139.723 98.2742L135.259 97.0282L131.583 95.9899L131.002 95.8238C130.898 95.803 130.711 95.9484 130.649 95.9899C130.503 96.1145 130.399 96.2807 130.316 96.4468C130.213 96.6544 130.109 97.0282 130.399 97.1113L130.379 97.1321Z" fill="white"/>
<path d="M37.7825 125.083C36.0381 123.754 33.9407 122.944 31.7395 122.757C29.5591 122.571 27.3579 123.027 25.4474 124.087C23.5161 125.166 22.021 126.911 20.9827 128.842C19.9444 130.773 19.4667 132.995 19.7367 135.176C20.3389 139.806 24.2429 143.316 28.9361 143.42C33.4631 143.586 37.6579 141.011 39.5476 136.899C40.3367 135.051 40.669 133.037 40.4821 131.043C40.399 130.088 40.2121 129.133 39.9006 128.24C39.6306 127.43 39.2153 126.662 38.6962 125.976C38.4054 125.623 38.1147 125.332 37.7825 125.083C37.6786 125 37.4917 125.083 37.4087 125.146C37.2425 125.249 37.0972 125.416 36.9933 125.582C36.8895 125.748 36.8065 125.935 36.7857 126.142C36.7649 126.267 36.8065 126.412 36.8895 126.495C37.1179 126.682 37.3256 126.869 37.5333 127.098L37.471 127.015C37.9486 127.554 38.3224 128.136 38.5923 128.8C38.7377 129.153 38.8831 129.506 38.9869 129.86C38.9869 129.88 39.0077 129.901 39.0077 129.922C39.0077 129.901 38.9869 129.818 39.0077 129.901L39.0492 130.026C39.07 130.129 39.0907 130.213 39.1115 130.316C39.153 130.503 39.1946 130.69 39.2361 130.877C39.2984 131.251 39.3607 131.645 39.3815 132.04C39.4022 132.248 39.4022 132.455 39.423 132.642C39.423 132.746 39.423 132.829 39.423 132.933C39.423 132.974 39.423 133.037 39.423 133.078C39.423 133.12 39.423 133.12 39.423 133.141C39.423 133.099 39.423 133.016 39.423 133.12C39.423 133.514 39.4022 133.909 39.3399 134.303C39.3192 134.49 39.2984 134.677 39.2569 134.864C39.2361 134.947 39.2153 135.051 39.2153 135.134C39.2153 135.176 39.1946 135.217 39.1946 135.279C39.1738 135.383 39.2153 135.217 39.2153 135.196C39.2153 135.238 39.1946 135.259 39.1946 135.3C39.1115 135.653 39.0077 136.006 38.8831 136.359L38.8415 136.484C38.7792 136.65 38.9038 136.339 38.8623 136.442C38.8208 136.546 38.7792 136.629 38.7377 136.733C38.6546 136.941 38.5508 137.128 38.447 137.315C38.4262 137.335 38.4262 137.356 38.4054 137.377C38.3639 137.46 38.5093 137.19 38.447 137.294C38.4262 137.335 38.4054 137.398 38.3639 137.439C38.3016 137.543 38.2601 137.626 38.1978 137.73C38.1355 137.834 38.094 137.896 38.0317 138L37.9486 138.124L37.9071 138.187C37.824 138.291 38.0109 138.041 37.9486 138.124C37.824 138.291 37.6994 138.457 37.554 138.623C37.4917 138.706 37.4294 138.789 37.3464 138.851C37.3048 138.893 37.2841 138.934 37.2425 138.976L37.201 139.038C37.3671 138.851 37.2633 138.955 37.2425 138.997C36.9518 139.287 36.6403 139.578 36.3081 139.848L36.2458 139.89L36.2873 139.848L36.1835 139.91C36.1004 139.973 36.0173 140.035 35.9343 140.097C35.7681 140.222 35.5813 140.326 35.4151 140.45C35.249 140.575 35.0413 140.658 34.8544 140.762L34.7298 140.824L34.6675 140.866C34.6675 140.866 34.7921 140.803 34.7091 140.845C34.626 140.886 34.5222 140.928 34.4183 140.99C34.0446 141.156 33.65 141.322 33.2554 141.447C32.8609 141.572 32.4663 141.675 32.0718 141.759L31.9264 141.779C31.8849 141.779 31.7603 141.821 31.8641 141.779C31.7603 141.8 31.6565 141.821 31.5526 141.821C31.3034 141.862 31.075 141.883 30.8466 141.904C29.8706 141.987 28.8738 141.904 27.9185 141.717C27.6901 141.675 27.4409 141.613 27.2125 141.551L27.3163 141.592C25.6966 141.115 24.2222 140.201 23.08 138.955L23.1631 139.038C22.6024 138.415 22.104 137.709 21.7302 136.941C21.5433 136.546 21.3772 136.152 21.2319 135.736C21.1903 135.632 21.1696 135.549 21.128 135.446V135.404C21.1488 135.466 21.128 135.383 21.128 135.363C21.1073 135.3 21.1073 135.238 21.0865 135.176C21.045 134.968 20.9827 134.76 20.9619 134.532C20.8996 134.137 20.8581 133.722 20.8373 133.327C20.8373 133.224 20.8373 133.141 20.8373 133.037C20.8373 133.016 20.8373 132.995 20.8373 132.954C20.8165 132.995 20.8373 133.057 20.8373 132.995V132.829C20.8373 132.621 20.8581 132.414 20.8788 132.206C20.8996 131.998 20.9204 131.791 20.9619 131.604C20.9827 131.5 21.0034 131.417 21.0242 131.313C21.0242 131.292 21.0242 131.272 21.045 131.23C21.0242 131.417 21.0242 131.334 21.0242 131.292L21.0657 131.126C21.1696 130.732 21.2734 130.337 21.4188 129.943C21.481 129.797 21.3565 130.088 21.4188 129.963L21.481 129.839C21.5226 129.735 21.5641 129.652 21.6056 129.548C21.6887 129.361 21.7718 129.174 21.8756 128.987L21.9379 128.842C21.9587 128.821 21.9587 128.8 21.9794 128.78C21.9794 128.78 21.8756 128.987 21.9379 128.884L22.0833 128.614C22.1871 128.447 22.2909 128.261 22.3948 128.094C22.4571 128.011 22.4986 127.928 22.5609 127.845C22.6232 127.762 22.4363 128.032 22.5401 127.887L22.644 127.741C22.7685 127.575 22.8931 127.43 23.0177 127.264C23.08 127.181 23.1423 127.118 23.2254 127.035L23.3085 126.931C23.3292 126.911 23.3915 126.848 23.3085 126.931C23.2254 127.015 23.2877 126.952 23.3085 126.931C23.4538 126.786 23.5784 126.662 23.7238 126.516C23.8692 126.371 24.0145 126.246 24.1599 126.122L24.2637 126.018C24.3468 125.955 24.1183 126.122 24.2429 126.018C24.326 125.955 24.4091 125.893 24.4921 125.831C24.8036 125.602 25.1359 125.395 25.4681 125.229L25.572 125.166C25.6966 125.104 25.4681 125.208 25.5927 125.166L25.8835 125.021C26.0704 124.938 26.278 124.855 26.4649 124.793C26.8595 124.647 27.2748 124.523 27.6901 124.419C27.8978 124.377 28.1054 124.315 28.3131 124.294C28.3754 124.273 28.23 124.315 28.3131 124.294L28.3962 124.273L28.5415 124.253L28.8738 124.211C29.3099 124.17 29.7252 124.128 30.1613 124.128C31.0127 124.128 31.8641 124.211 32.6948 124.398C32.9024 124.44 33.1101 124.502 33.3177 124.564L33.2139 124.523C34.5637 124.917 35.8304 125.54 36.9518 126.412C37.0556 126.495 37.2218 126.412 37.3256 126.35C37.4917 126.246 37.6371 126.08 37.7409 125.914C37.8448 125.748 37.9278 125.561 37.9486 125.353C37.9278 125.312 37.8863 125.166 37.7825 125.083Z" fill="white"/>
<path d="M31.5734 126.724C30.099 125.603 28.3339 124.917 26.4857 124.772C24.6375 124.606 22.7893 125 21.1488 125.893C19.5083 126.807 18.2623 128.281 17.3901 129.922C16.4972 131.562 16.1442 133.431 16.3518 135.28C16.871 139.204 20.1728 142.132 24.1183 142.215C27.9393 142.361 31.4696 140.18 33.0686 136.692C33.7331 135.134 34.003 133.431 33.8577 131.749C33.7331 130.254 33.297 128.655 32.3417 127.471C32.1133 127.181 31.8641 126.932 31.5734 126.724C31.4903 126.662 31.345 126.724 31.2619 126.786C31.1165 126.89 30.9919 127.015 30.9089 127.16C30.805 127.347 30.5766 127.783 30.805 127.949C30.9919 128.115 31.1788 128.281 31.3657 128.468L31.3034 128.406C31.698 128.863 32.0095 129.361 32.2379 129.901C32.3625 130.192 32.4663 130.483 32.5702 130.794C32.5702 130.836 32.5909 130.898 32.5702 130.815L32.6117 130.939C32.6325 131.022 32.6532 131.106 32.674 131.189C32.7155 131.355 32.7363 131.5 32.7778 131.666C32.8401 131.998 32.8817 132.331 32.9024 132.642C32.9232 132.808 32.9232 132.974 32.9232 133.141C32.9232 133.224 32.9232 133.307 32.9232 133.369V133.556C32.9232 133.618 32.9232 133.431 32.9232 133.556C32.9232 133.888 32.9024 134.2 32.8609 134.532C32.8401 134.698 32.8194 134.864 32.7986 135.01C32.7778 135.093 32.7778 135.176 32.7571 135.259C32.7571 135.3 32.7363 135.342 32.7363 135.383C32.7363 135.383 32.7571 135.238 32.7571 135.321C32.7571 135.342 32.7571 135.363 32.7363 135.383C32.674 135.695 32.5909 135.986 32.4871 136.276C32.4663 136.318 32.4663 136.339 32.4456 136.38C32.404 136.484 32.5079 136.214 32.4456 136.359C32.4248 136.442 32.3833 136.505 32.3417 136.588C32.2794 136.754 32.1964 136.92 32.0925 137.086C32.0925 137.107 32.0718 137.128 32.0718 137.128C32.0095 137.232 32.1133 137.065 32.1133 137.065C32.1133 137.065 32.051 137.169 32.051 137.19C32.0095 137.273 31.9472 137.356 31.9056 137.418C31.8641 137.481 31.8226 137.564 31.7603 137.626L31.6772 137.73C31.6565 137.751 31.6357 137.771 31.6357 137.792C31.5942 137.875 31.7395 137.647 31.6772 137.73C31.5734 137.875 31.4696 138.021 31.345 138.145C31.3034 138.208 31.2411 138.27 31.1788 138.332L31.0958 138.436C30.9919 138.54 31.1996 138.332 31.0958 138.436C30.8466 138.685 30.5974 138.934 30.3067 139.142L30.2236 139.204L29.9952 139.37C29.8498 139.474 29.7044 139.578 29.5591 139.661C29.4137 139.744 29.2476 139.848 29.1022 139.931L28.9984 139.973C28.8738 140.035 29.0399 139.952 28.9776 139.993L28.7077 140.118C28.3962 140.263 28.0847 140.388 27.7524 140.492C27.4202 140.596 27.0879 140.679 26.7556 140.762L26.631 140.783H26.5688C26.6518 140.762 26.5895 140.783 26.5688 140.783L26.3196 140.824C26.1119 140.845 25.925 140.866 25.7173 140.886C24.8867 140.949 24.0768 140.886 23.2669 140.72C23.0593 140.679 22.8724 140.637 22.6647 140.575L22.7478 140.596C21.3772 140.201 20.1313 139.433 19.1552 138.353L19.2175 138.415C18.7399 137.875 18.3454 137.294 18.0131 136.65C17.847 136.318 17.7224 135.986 17.5978 135.633C17.577 135.549 17.5355 135.466 17.5147 135.383C17.5147 135.363 17.494 135.342 17.494 135.321C17.4732 135.28 17.4732 135.217 17.4524 135.155C17.4109 134.989 17.3694 134.802 17.3486 134.636C17.2863 134.283 17.2448 133.95 17.2448 133.597C17.2448 133.514 17.2448 133.431 17.2448 133.348C17.2448 133.328 17.2448 133.307 17.2448 133.286C17.2448 133.286 17.2448 133.39 17.2448 133.328C17.2448 133.265 17.2448 133.224 17.2448 133.182C17.2448 133.016 17.2655 132.85 17.2863 132.684C17.3071 132.518 17.3278 132.331 17.3486 132.165C17.3694 132.082 17.3694 131.998 17.3901 131.915C17.4109 131.77 17.3694 131.998 17.3901 131.895L17.4109 131.77C17.494 131.438 17.5978 131.106 17.7224 130.773C17.7431 130.711 17.6808 130.856 17.7016 130.856C17.7016 130.836 17.7224 130.815 17.7224 130.794C17.7431 130.753 17.7431 130.732 17.7639 130.69C17.8054 130.607 17.8262 130.524 17.8677 130.441C17.93 130.275 18.0131 130.13 18.0962 129.984C18.1169 129.943 18.1377 129.901 18.1585 129.86C18.1792 129.839 18.1792 129.818 18.1792 129.818C18.1792 129.818 18.0962 129.963 18.1377 129.901C18.1792 129.839 18.2208 129.735 18.2623 129.673C18.3454 129.527 18.4492 129.382 18.5323 129.237L18.6776 129.029C18.7192 128.967 18.6153 129.112 18.6153 129.112C18.6361 129.091 18.6361 129.091 18.6569 129.07L18.7399 128.967C18.8438 128.821 18.9476 128.697 19.0514 128.572L19.2175 128.385C19.2383 128.364 19.2591 128.323 19.3006 128.302C19.3837 128.219 19.2591 128.344 19.2591 128.344L19.3006 128.281C19.4252 128.157 19.529 128.032 19.6536 127.928C19.7782 127.824 19.9028 127.7 20.0274 127.596L20.1105 127.534C20.1935 127.471 20.0067 127.596 20.1105 127.534C20.2143 127.471 20.2351 127.43 20.3181 127.388C20.5881 127.202 20.8581 127.035 21.1488 126.869L21.2526 126.828C21.3357 126.786 21.1696 126.869 21.2734 126.807L21.5226 126.703C21.6887 126.641 21.8548 126.558 22.021 126.495C22.3532 126.371 22.6855 126.267 23.0385 126.184C23.2254 126.142 23.3915 126.101 23.5784 126.08H23.62L23.7653 126.059C23.8484 126.039 23.9522 126.039 24.0353 126.018C24.3883 125.976 24.7413 125.956 25.0944 125.956C25.8004 125.956 26.5065 126.059 27.2125 126.225C27.3994 126.267 27.5655 126.309 27.7317 126.371L27.6486 126.35C28.7907 126.682 29.8498 127.222 30.7843 127.928C30.8673 127.991 31.0335 127.928 31.0958 127.887C31.2411 127.783 31.3657 127.658 31.4488 127.513C31.5942 127.326 31.8226 126.89 31.5734 126.724Z" fill="white"/>
<path d="M41.4788 26.8387C41.5411 28.3754 41.8526 29.8706 42.4133 31.3034C42.9117 32.6324 43.6385 33.8577 44.5107 34.9583C45.3829 36.0381 46.4212 36.9933 47.5633 37.7824C48.6847 38.5508 49.9099 39.153 51.1974 39.5683C52.5056 39.9837 53.8554 40.2121 55.2468 40.2329C55.4129 40.2329 55.579 40.2329 55.7452 40.2329C56.0982 40.2121 56.3889 39.7968 56.5135 39.506C56.5966 39.2984 56.7627 38.8208 56.4097 38.7585C54.9353 38.5508 53.3986 38.6131 52.0073 39.1738C50.7198 39.7137 49.5984 40.5859 48.747 41.6865C47.854 42.8909 47.1687 44.2199 46.6911 45.632C46.2343 47.0026 45.902 48.4147 45.6944 49.8476C45.4867 51.1766 45.3413 52.5264 45.2167 53.8554C45.196 54.0008 45.196 54.1669 45.1752 54.3123C45.1752 54.4161 45.1752 54.603 45.279 54.6653C45.3829 54.7068 45.4867 54.7068 45.5698 54.6445C45.902 54.4576 46.1304 54.1462 46.2343 53.7931C46.6081 52.2564 46.7742 50.6159 46.4212 49.0585C46.1304 47.771 45.4867 46.5873 44.5937 45.632C43.7008 44.6976 42.621 43.9708 41.4373 43.4516C40.1083 42.8909 38.7377 42.4756 37.3048 42.2679C35.8304 42.0395 34.356 41.9564 32.8817 42.0187C32.6948 42.0187 32.5079 42.0395 32.321 42.0395L31.6565 43.5139C32.8401 43.3893 34.003 43.1193 35.1036 42.704C36.2665 42.2679 37.3671 41.6865 38.3639 40.9389C39.4853 40.1083 40.4613 39.0907 41.2504 37.9278C42.0603 36.7026 42.6417 35.3113 42.9117 33.8784C43.2024 32.321 43.2024 30.7427 42.9117 29.1853C42.8702 28.9776 42.8286 28.7492 42.7871 28.5415C42.7663 28.4169 42.704 28.3131 42.5794 28.3131C42.4341 28.3339 42.2887 28.3962 42.1849 28.5208C42.0187 28.6661 41.8942 28.853 41.8111 29.0399C41.728 29.206 41.6865 29.3722 41.7073 29.5591C41.8734 30.3482 41.998 31.1581 42.0395 31.9679C42.0395 32.1548 42.0603 32.3417 42.0603 32.5286V32.6117C42.0603 32.5286 42.0603 32.6532 42.0603 32.6947C42.0603 32.7986 42.0603 32.8816 42.0603 32.9855C42.0395 33.3385 42.0187 33.6915 41.9565 34.0238C41.9357 34.1899 41.8942 34.356 41.8734 34.5429L41.8526 34.6675C41.8526 34.6675 41.8942 34.4806 41.8734 34.6052L41.8526 34.6468C41.8319 34.7298 41.8111 34.8129 41.7903 34.896C41.7073 35.2074 41.6242 35.5189 41.4996 35.8304C41.4996 35.872 41.4788 35.8927 41.4581 35.9343C41.4165 36.0381 41.5411 35.7474 41.4788 35.8927C41.4581 35.9758 41.4165 36.0381 41.3958 36.1212C41.3335 36.2665 41.2712 36.4119 41.2089 36.5572L41.105 36.7649C41.0843 36.8064 41.0635 36.8272 41.0635 36.8687C41.0635 36.8895 41.0427 36.8895 41.0427 36.9103C40.9804 37.0349 41.0843 36.8272 41.0843 36.8064C41.0012 36.931 40.9389 37.0764 40.8558 37.201C40.7728 37.3256 40.6897 37.4502 40.6067 37.5748C40.5651 37.6371 40.5236 37.6994 40.4821 37.7617C40.4405 37.824 40.6274 37.554 40.5236 37.6994L40.4405 37.8032C40.2536 38.0524 40.0667 38.2808 39.8591 38.5093C39.8175 38.5716 39.7552 38.6131 39.7137 38.6754C39.6929 38.6962 39.8591 38.53 39.7968 38.5923L39.7552 38.6339L39.6722 38.7169C39.5683 38.8208 39.4645 38.9246 39.3607 39.0284C39.153 39.2361 38.9246 39.423 38.6754 39.6099L38.6339 39.6306C38.5508 39.6929 38.6962 39.5683 38.6962 39.5891C38.6754 39.6099 38.6339 39.6306 38.6131 39.6514C38.5508 39.6929 38.4885 39.7552 38.4262 39.7968C38.3224 39.8798 38.1978 39.9629 38.0732 40.046C37.824 40.2121 37.5748 40.3782 37.3256 40.5236C37.201 40.5859 37.0764 40.6689 36.931 40.7312L36.7442 40.8351C36.6403 40.8974 36.848 40.7935 36.7649 40.8351L36.6611 40.8974C36.4119 41.022 36.1419 41.1466 35.872 41.2504C35.3528 41.4581 34.8129 41.6449 34.2522 41.7903C33.9823 41.8526 33.6915 41.9357 33.4216 41.9772L33.2139 42.0187L33.1308 42.0395C33.0478 42.0603 33.1724 42.0395 33.1724 42.0395H33.1101C32.9855 42.0603 32.8609 42.081 32.7155 42.1018C32.5702 42.1226 32.4456 42.1433 32.3002 42.1433C31.9472 42.1849 31.6565 42.5587 31.5319 42.8701C31.4696 43.0155 31.2827 43.6385 31.6357 43.6177C33.5254 43.4931 35.4151 43.6177 37.2633 43.95C37.7617 44.0538 38.2601 44.1576 38.7585 44.303L38.6546 44.2615C40.1706 44.6976 41.645 45.3621 42.8702 46.3589C43.2024 46.6288 43.4931 46.8988 43.7631 47.2103L43.7008 47.1272C44.3238 47.8125 44.8014 48.6224 45.1129 49.4945C45.1544 49.5984 45.1752 49.723 45.2167 49.8268C45.1544 49.6814 45.2167 49.8476 45.2375 49.8891C45.2583 49.9514 45.279 50.0345 45.279 50.0968C45.3413 50.346 45.3829 50.5951 45.4036 50.8443C45.4452 51.0935 45.4659 51.3635 45.4659 51.6335C45.4659 51.7581 45.4659 51.8827 45.4659 52.0072C45.4659 51.8204 45.4659 52.0488 45.4659 52.0903L45.4452 52.3395C45.4244 52.6718 45.3829 53.004 45.3413 53.3155C45.3206 53.4816 45.279 53.6478 45.2583 53.8139C45.2583 53.8554 45.2375 53.897 45.2375 53.9385C45.279 53.7101 45.2375 53.9177 45.2375 53.9593C45.2167 54.0423 45.196 54.1462 45.1752 54.2292L46.2343 53.7101C46.3381 52.4226 46.4627 51.1143 46.6496 49.8268C46.7534 49.1415 46.8573 48.477 47.0026 47.7917C47.0234 47.6879 46.9611 47.9786 47.0026 47.8125C47.0026 47.771 47.0234 47.7294 47.0234 47.6879L47.0857 47.4387C47.1272 47.2726 47.1687 47.1064 47.2103 46.9403C47.2933 46.6081 47.3764 46.2966 47.4802 45.9643C47.5841 45.632 47.6879 45.3206 47.7917 45.0091L47.8125 44.9468C47.854 44.8429 47.771 45.0714 47.771 45.0506C47.771 45.0298 47.7917 44.9883 47.8125 44.9468L47.9163 44.6976C47.9786 44.5522 48.0409 44.3861 48.1032 44.2407C48.1655 44.0954 48.2278 43.95 48.3109 43.8254C48.3524 43.7631 48.3732 43.68 48.4147 43.6177L48.477 43.5139L48.4147 43.6385L48.4562 43.5762C48.6016 43.3062 48.7677 43.0363 48.9339 42.7871C48.9962 42.6833 49.1208 42.5171 48.9546 42.7456L49.1 42.5587C49.2038 42.4341 49.2869 42.3095 49.3907 42.2056C49.4323 42.1433 49.4946 42.1018 49.5361 42.0395C49.5776 41.9772 49.5776 41.998 49.5984 41.9564C49.3907 42.1849 49.5153 42.0395 49.5776 41.998C49.6814 41.8941 49.7853 41.7903 49.9099 41.6865C50.0345 41.5827 50.1383 41.4996 50.2421 41.3958C50.3044 41.3542 50.076 41.5204 50.1798 41.4581L50.2214 41.4165L50.3044 41.3542L50.4913 41.2296C50.6159 41.1466 50.7405 41.0635 50.8651 40.9804C50.9274 40.9389 50.9897 40.9181 51.052 40.8766L51.1558 40.8351C51.2181 40.7935 51.0312 40.8974 51.0935 40.8766L51.1558 40.8351C51.4466 40.6897 51.7373 40.5859 52.028 40.482C52.1942 40.4405 52.3395 40.3782 52.5056 40.3574L52.7341 40.3159L52.8587 40.2952H52.8171C52.8379 40.2952 52.8794 40.2952 52.9002 40.2744C53.627 40.1706 54.3538 40.1498 55.1014 40.2121C55.3091 40.2329 55.5167 40.2536 55.7244 40.2952L56.3889 38.8208C54.9976 38.8623 53.627 38.6754 52.298 38.2601L52.4018 38.3016C49.9099 37.5748 47.6671 36.1835 45.9228 34.2522L45.9851 34.3353C45.196 33.4631 44.5107 32.4871 43.9708 31.428C43.7008 30.8881 43.4516 30.3274 43.2439 29.746C43.2024 29.6214 43.1401 29.476 43.0986 29.3514L43.0363 29.123C43.0363 29.1022 42.9948 28.9776 43.0363 29.1022C43.0155 29.0607 43.0155 28.9984 42.9948 28.9568C42.9117 28.6661 42.8494 28.3754 42.7871 28.0639C42.6417 27.3371 42.5587 26.6103 42.5171 25.8835C42.5171 25.7589 42.4341 25.6758 42.3095 25.655C42.1641 25.6758 42.0187 25.7381 41.9149 25.8627C41.6865 26.0704 41.4996 26.4441 41.4788 26.8387Z" fill="white"/>
<path d="M22.5609 48.7678C22.7478 52.8587 25.4474 56.389 29.3306 57.6349C30.3482 57.9672 31.428 58.1125 32.5079 58.0918C32.8609 58.071 33.1516 57.6557 33.2762 57.365C33.3593 57.1573 33.5254 56.6797 33.1724 56.6174C32.1341 56.4305 31.075 56.5343 30.0782 56.9081C29.1438 57.3027 28.3339 57.9257 27.7109 58.7355C27.0464 59.6077 26.548 60.5837 26.195 61.622C25.8627 62.5773 25.6343 63.574 25.4889 64.5916C25.3435 65.5261 25.2397 66.4605 25.1567 67.395C25.1567 67.4988 25.1359 67.6234 25.1359 67.7273C25.1359 67.8311 25.1359 68.018 25.2397 68.0803C25.3435 68.1218 25.4474 68.1218 25.5304 68.0595C25.8627 67.8726 26.0911 67.5611 26.1742 67.2081C26.4442 66.1075 26.5687 64.9238 26.3196 63.8232C26.1119 62.9095 25.6758 62.0789 25.0321 61.3936C23.7446 60.0023 21.7925 59.3585 19.9651 59.0678C18.823 58.8809 17.6601 58.8394 16.5179 58.9017L15.8534 60.3761C17.577 60.2099 19.1968 59.5662 20.5881 58.5486C21.4187 57.9464 22.1248 57.1988 22.7063 56.3474C23.3085 55.4545 23.7238 54.4369 23.9315 53.3779C24.1599 52.1319 24.1391 50.8444 23.8484 49.6192C23.8276 49.4946 23.7653 49.3908 23.6407 49.3908C23.4954 49.4115 23.35 49.4738 23.2462 49.5984C23.08 49.7438 22.9554 49.9099 22.8724 50.1176C22.7893 50.2837 22.7478 50.4498 22.7685 50.6367C22.8931 51.1974 22.9554 51.7373 22.997 52.3188C22.997 52.4434 22.997 52.568 22.997 52.6926C22.997 52.7341 22.997 52.7549 22.997 52.7757C22.9762 52.6095 22.997 52.7341 22.997 52.7757C22.997 52.8172 22.997 52.9002 22.997 52.9625C22.9762 53.2117 22.9554 53.4402 22.9347 53.6894C22.9139 53.814 22.8931 53.9178 22.8724 54.0424L22.8516 54.1047C22.8308 54.2293 22.8931 53.9386 22.8516 54.0632C22.8308 54.1255 22.8308 54.1877 22.8101 54.25C22.7478 54.4577 22.6855 54.6861 22.6232 54.8938C22.5609 55.0599 22.7063 54.7069 22.6232 54.873C22.6024 54.9146 22.5817 54.9769 22.5609 55.0184C22.5194 55.1222 22.4778 55.2261 22.4155 55.3299C22.3948 55.3714 22.374 55.413 22.3532 55.4752C22.3325 55.5375 22.2079 55.7244 22.374 55.4337C22.3117 55.5375 22.2702 55.6206 22.2079 55.7244C22.1456 55.8283 22.104 55.8906 22.0417 55.9736L21.9587 56.0982C21.8756 56.2021 22.0833 55.9321 22.021 55.9944L21.9587 56.0775C21.8341 56.2436 21.7095 56.4097 21.5641 56.5551C21.5226 56.5966 21.3772 56.742 21.5849 56.5343L21.481 56.6382C21.398 56.7212 21.3357 56.7835 21.2526 56.8666C21.1073 57.0119 20.9411 57.1365 20.7958 57.2611C20.7127 57.3234 20.9204 57.1573 20.8581 57.2196L20.7958 57.2611L20.6712 57.3442C20.5881 57.4065 20.505 57.4688 20.422 57.5311C20.2558 57.6349 20.0897 57.7388 19.9028 57.8426L19.6536 57.988L19.529 58.0502C19.4252 58.0918 19.6536 57.988 19.5706 58.0295L19.4875 58.071C19.3006 58.1541 19.1345 58.2371 18.9476 58.3202C18.5323 58.4863 18.1169 58.6317 17.7016 58.7355C17.494 58.7771 17.2863 58.8186 17.0579 58.8809C17.224 58.8394 17.0371 58.8809 16.9956 58.8809L16.8294 58.9017C16.7256 58.9224 16.6218 58.9224 16.5179 58.9432C16.1649 58.9847 15.8742 59.3585 15.7496 59.67C15.6458 59.7738 15.625 59.9607 15.625 60.1476C15.6458 60.2515 15.7081 60.3968 15.8327 60.3761C17.1409 60.293 18.4492 60.3553 19.7367 60.6045C20.0897 60.6668 20.422 60.7498 20.775 60.8537L20.6712 60.8329C21.7302 61.1236 22.7063 61.6013 23.5784 62.2658C23.8069 62.4527 24.0145 62.6396 24.2014 62.868L24.1183 62.7849C24.5544 63.2625 24.8867 63.8025 25.0944 64.4047C25.1151 64.4877 25.1359 64.55 25.1774 64.6331C25.219 64.7162 25.1774 64.5916 25.1567 64.5916C25.1567 64.6123 25.1567 64.6331 25.1774 64.6539C25.1982 64.6954 25.1982 64.7369 25.219 64.7992C25.2605 64.9654 25.302 65.1523 25.3228 65.3184C25.3435 65.4845 25.3643 65.6714 25.3643 65.8583C25.3643 65.9414 25.3643 66.0452 25.3643 66.1283C25.3643 66.1283 25.3643 65.9829 25.3643 66.066C25.3643 66.0867 25.3643 66.1075 25.3643 66.1283C25.3643 66.1906 25.3643 66.2321 25.3643 66.2944C25.3435 66.5228 25.3228 66.7513 25.2812 66.9797C25.2605 67.0835 25.2397 67.2081 25.219 67.3119C25.219 67.3535 25.219 67.3742 25.1982 67.395C25.1982 67.3535 25.2397 67.2289 25.1982 67.3535C25.1774 67.4158 25.1774 67.4988 25.1567 67.5611L26.2157 67.042C26.2988 66.149 26.3819 65.2561 26.5065 64.3632C26.5687 63.8855 26.6518 63.4287 26.7556 62.9511C26.7764 62.8265 26.7141 63.138 26.7349 63.0134L26.7556 62.9303L26.7972 62.7642C26.8179 62.6603 26.8387 62.5357 26.8802 62.4319C26.9425 62.2035 27.0048 61.975 27.0671 61.7466C27.1294 61.5182 27.2125 61.3105 27.2956 61.0821L27.3163 60.999L27.2748 61.1444L27.2956 61.1029L27.3579 60.9575C27.3994 60.8537 27.4409 60.7498 27.5032 60.6252C27.5655 60.5007 27.5863 60.4384 27.6278 60.3553L27.7109 60.2099L27.7524 60.1476C27.8147 60.0438 27.6278 60.3761 27.7109 60.2307C27.8147 60.0438 27.9185 59.8569 28.0431 59.67L28.0847 59.6077C28.1262 59.5454 28.2093 59.4623 28.0224 59.7115C28.0431 59.67 28.0847 59.6285 28.1054 59.5869C28.1677 59.5039 28.23 59.4208 28.3131 59.3378C28.3339 59.2962 28.3754 59.2547 28.4169 59.2339C28.4585 59.2132 28.5415 59.1093 28.3546 59.2962L28.3962 59.2339C28.4585 59.1716 28.5415 59.0886 28.6038 59.0263C28.6661 58.964 28.7492 58.9017 28.8323 58.8394C28.9153 58.7771 28.6869 58.964 28.77 58.8809L28.8323 58.8394C28.8738 58.7978 28.9361 58.7771 28.9776 58.7355C29.0607 58.6732 29.1438 58.6317 29.2268 58.5694L29.3514 58.4863L29.4137 58.4448C29.4968 58.4033 29.2683 58.5071 29.3929 58.4656C29.6006 58.3617 29.829 58.2787 30.0575 58.2164C30.1821 58.1748 30.3067 58.1541 30.4313 58.1125L30.5143 58.0918C30.6389 58.071 30.452 58.0918 30.5351 58.0918L30.722 58.071C31.3242 58.0087 31.9056 58.0087 32.5079 58.1125L33.1724 56.6382C32.2171 56.6589 31.2619 56.5551 30.3274 56.2851L30.4313 56.3059C29.1022 55.9113 27.8563 55.2468 26.8179 54.3331C26.5065 54.0632 26.2365 53.7932 25.9665 53.4817L26.0288 53.5648C25.1982 52.6511 24.5544 51.5712 24.1391 50.4083C24.0976 50.3252 24.0768 50.2214 24.0353 50.1384L23.9938 49.993C23.9938 49.9722 23.973 49.9515 23.973 49.9307C24.0145 50.0553 23.973 49.9307 23.973 49.9099C23.9107 49.7023 23.8692 49.4946 23.8276 49.2869C23.7238 48.7886 23.6615 48.2902 23.6407 47.7918C23.6407 47.6672 23.5577 47.5841 23.4331 47.5634C23.2877 47.5841 23.1423 47.6464 23.0385 47.771C22.7478 47.9994 22.5817 48.3732 22.5609 48.7678Z" fill="white"/>
<path d="M22.8308 27.6902C22.9554 30.4313 24.7413 32.7987 27.3579 33.6501C28.0431 33.8785 28.77 33.9823 29.5175 33.9616C29.8706 33.9616 30.1613 33.5255 30.2859 33.2348C30.369 33.0271 30.5351 32.5287 30.1821 32.4872C29.476 32.3626 28.7492 32.4456 28.0847 32.6948C27.4202 32.9856 26.8387 33.4424 26.4026 34.0031C25.4681 35.1868 25.0528 36.6612 24.8036 38.1148C24.6998 38.8001 24.6167 39.5061 24.5544 40.2122C24.5544 40.316 24.5544 40.5029 24.6583 40.5652C24.7413 40.6067 24.8452 40.586 24.9282 40.5444C25.2605 40.3575 25.4889 40.046 25.572 39.693C25.7796 38.9247 25.8212 38.1148 25.6758 37.3464C25.5304 36.7235 25.2397 36.142 24.8036 35.6852C23.9315 34.7507 22.6232 34.2938 21.398 34.1069C20.6296 33.9823 19.8613 33.9408 19.0929 34.0031L18.4284 35.4775C19.6121 35.3529 20.7127 34.9376 21.6679 34.2315C23.6615 32.7987 24.596 30.3067 24.0353 27.9186C24.0145 27.794 23.9522 27.6902 23.8276 27.6902C23.6823 27.711 23.5369 27.7733 23.4331 27.8979C23.2669 28.0432 23.1423 28.2301 23.0593 28.417C22.9762 28.5831 22.9347 28.7493 22.9554 28.9362C23.0385 29.2892 23.08 29.663 23.1008 30.0368C23.1008 30.1198 23.1008 30.2029 23.1008 30.2652V30.3275C23.1008 30.3275 23.1008 30.2029 23.1008 30.2652V30.4106C23.1008 30.5767 23.08 30.7428 23.0593 30.8882C23.0593 30.9505 23.0385 31.0335 23.0177 31.0958C23.0177 31.1166 23.0177 31.1374 23.0177 31.1374C22.997 31.2204 23.0593 30.9712 23.0385 31.0543L23.0177 31.1581C22.9762 31.3035 22.9347 31.4489 22.8931 31.5942C22.8931 31.615 22.8724 31.6358 22.8724 31.6565C22.8931 31.615 22.9139 31.5735 22.9139 31.5319L22.8724 31.6358C22.8516 31.6981 22.8101 31.7604 22.7893 31.8434C22.7685 31.8642 22.7685 31.9057 22.7478 31.9265C22.727 31.9473 22.6647 32.0926 22.7478 31.9265C22.8308 31.7604 22.7685 31.9057 22.7478 31.9265C22.727 31.9473 22.7063 31.9888 22.6855 32.0303C22.6647 32.0718 22.6232 32.1341 22.5817 32.1964L22.5194 32.2795C22.4986 32.3003 22.6647 32.0926 22.6024 32.1549L22.5609 32.1964C22.4778 32.3003 22.3948 32.4041 22.3117 32.5079C22.2702 32.5495 22.1663 32.6533 22.3532 32.4664L22.2702 32.5495L22.104 32.6948L21.9587 32.8194C21.9171 32.861 21.8341 32.9025 21.7925 32.944C21.7925 32.944 21.9379 32.8194 21.8756 32.8817L21.8548 32.9233L21.7718 32.9856L21.6056 33.1102C21.5018 33.1932 21.3772 33.2555 21.2734 33.3178L21.1073 33.4009L21.0242 33.4424L21.1073 33.4009L21.0657 33.4216C20.9411 33.4839 20.8165 33.5255 20.6919 33.5878C20.422 33.6916 20.152 33.7954 19.8613 33.8577C19.7159 33.8993 19.5913 33.92 19.446 33.9408H19.5083H19.446L19.3421 33.9616L19.1345 33.9823C18.7815 34.0239 18.4907 34.3977 18.3661 34.7091C18.2831 34.8753 18.2415 35.0414 18.2623 35.2283C18.2831 35.3321 18.3454 35.4775 18.47 35.4567C19.5706 35.3737 20.6712 35.4775 21.751 35.7682L21.6472 35.7475C22.5401 35.9759 23.3708 36.4327 24.0145 37.0973L23.9315 37.0142C24.1183 37.2218 24.2637 37.4295 24.3883 37.6787C24.4506 37.8033 24.5129 37.9279 24.5544 38.0525C24.5752 38.1148 24.596 38.1771 24.6167 38.2394C24.5544 38.1148 24.6167 38.2186 24.6167 38.2602L24.6375 38.364C24.6583 38.5093 24.6998 38.6339 24.6998 38.7793C24.6998 38.8624 24.7206 38.9454 24.7206 39.0285C24.7206 39.07 24.7206 39.0908 24.7206 39.1323C24.7206 39.2985 24.7206 39.0285 24.7206 39.1323C24.7206 39.2985 24.6998 39.4646 24.679 39.6307C24.679 39.7138 24.6583 39.7968 24.6375 39.8799C24.6167 39.963 24.5752 40.1083 24.6375 39.8799C24.6167 39.9214 24.6167 39.9837 24.596 40.0253L25.655 39.5061C25.6966 38.9247 25.7589 38.3225 25.8419 37.741C25.8835 37.4295 25.9458 37.118 26.0081 36.8065C26.0288 36.7027 25.9665 36.9934 26.0081 36.8481C26.0081 36.8065 26.0288 36.7858 26.0288 36.7442L26.0911 36.5158C26.1327 36.3704 26.1742 36.2043 26.2157 36.0589C26.2573 35.9136 26.2988 35.7682 26.3611 35.6436L26.3819 35.6021C26.4026 35.519 26.2988 35.789 26.3403 35.7059C26.3611 35.6644 26.3611 35.6436 26.3819 35.6021C26.4026 35.5398 26.4442 35.4567 26.4649 35.3944C26.4857 35.3321 26.5272 35.2698 26.548 35.2075L26.5895 35.1245L26.6103 35.0829L26.548 35.1868C26.631 35.0622 26.6933 34.9376 26.7764 34.813C26.7972 34.7714 26.8802 34.6468 26.7764 34.813C26.6726 34.9791 26.7556 34.8545 26.7764 34.813C26.7972 34.7714 26.8802 34.6884 26.9218 34.6261C26.9633 34.5638 27.1087 34.4392 26.9218 34.6261C26.9633 34.5846 27.0256 34.5223 27.0671 34.4807C27.1087 34.4392 27.171 34.3769 27.2125 34.3561C27.2125 34.3561 27.0464 34.4807 27.1294 34.4184L27.171 34.3977L27.254 34.3354L27.4202 34.2315L27.5032 34.19C27.6278 34.1277 27.3994 34.2523 27.5032 34.19C27.6486 34.1277 27.794 34.0654 27.9601 34.0239C28.0431 34.0031 28.1262 33.9823 28.1885 33.9616H28.2508C28.3339 33.9408 28.1677 33.9823 28.23 33.9616L28.3546 33.9408C28.7492 33.8993 29.1438 33.8993 29.5383 33.9616L30.2028 32.4872C29.5798 32.5079 28.9361 32.4249 28.3339 32.2587L28.4377 32.2795C27.2748 31.9265 26.2365 31.3035 25.4474 30.4106L25.5304 30.4936C25.0528 29.9745 24.679 29.3723 24.4091 28.7285C24.3468 28.5624 24.2845 28.3962 24.2222 28.2301L24.1806 28.0848C24.1599 28.0432 24.1599 28.0432 24.1806 28.1055L24.1391 28.0432C24.1183 27.9602 24.0976 27.8771 24.0768 27.794C23.9938 27.4202 23.9522 27.0464 23.9315 26.6519C23.9315 26.5273 23.8484 26.4442 23.7238 26.4235C23.5784 26.4442 23.4331 26.5065 23.3292 26.6311C23.0177 26.9011 22.8516 27.2749 22.8308 27.6902Z" fill="white"/>
<path d="M137.564 22.2079C135.799 20.4843 133.722 19.093 131.458 18.117C129.174 17.141 126.765 16.518 124.294 16.2688C121.802 16.0196 119.31 16.0819 116.839 16.4972C114.347 16.8918 111.918 17.5771 109.592 18.5738C107.307 19.5498 105.21 20.8789 103.341 22.5194C101.41 24.243 99.7278 26.2158 98.3573 28.3962C96.9452 30.5974 95.8446 32.9855 95.097 35.4982C94.3494 37.9902 93.9756 40.6067 94.0379 43.2025C94.1002 45.8605 94.6609 48.4978 95.6577 50.969C96.6337 53.4194 98.0458 55.7037 99.7901 57.6972C101.534 59.6908 103.59 61.3728 105.916 62.6603C108.491 64.0724 111.315 64.9861 114.223 65.3807C117.047 65.7752 119.933 65.6922 122.737 65.1938C127.7 64.3008 132.31 62.0166 136.048 58.6109C138 56.825 139.661 54.7484 140.949 52.4434C142.215 50.2214 143.087 47.7918 143.565 45.2791C144.001 42.8494 144.126 40.3783 143.918 37.9071C143.731 35.4359 143.254 33.0063 142.506 30.6597C141.821 28.4793 140.824 26.4027 139.557 24.5129C138.955 23.7031 138.291 22.9139 137.564 22.2079C137.481 22.1248 137.273 22.2287 137.19 22.2702C137.024 22.374 136.878 22.5402 136.775 22.7063C136.629 22.9555 136.422 23.3708 136.671 23.62C138.166 25.0736 139.287 26.8803 140.18 28.7492C141.156 30.8466 141.883 33.0686 142.298 35.3321C142.755 37.6787 142.942 40.0668 142.838 42.4341C142.776 43.6178 142.651 44.8014 142.444 45.9644C142.423 46.1097 142.402 46.2343 142.361 46.3797C142.34 46.442 142.34 46.5043 142.319 46.5666C142.34 46.4627 142.298 46.6704 142.278 46.7119C142.215 46.9819 142.153 47.2726 142.07 47.5426C141.925 48.0825 141.758 48.6016 141.572 49.1416L141.489 49.3492L141.447 49.4323C141.447 49.4323 141.489 49.3077 141.468 49.3908C141.405 49.5361 141.364 49.6607 141.302 49.7853C141.177 50.076 141.052 50.3668 140.928 50.6575C140.782 50.9482 140.658 51.2389 140.512 51.5297L140.388 51.7581C140.367 51.8204 140.284 51.945 140.367 51.8204C140.284 51.9658 140.201 52.1111 140.118 52.2565C139.806 52.8172 139.474 53.3363 139.1 53.8762L138.976 54.0424C138.955 54.0631 138.934 54.1047 138.914 54.1254C138.851 54.2293 138.997 54.0216 138.914 54.1254C138.83 54.2293 138.727 54.3954 138.623 54.52C138.436 54.7692 138.249 55.0184 138.041 55.2468C136.525 57.0742 134.74 58.6732 132.746 59.9815C130.732 61.2898 128.551 62.3281 126.267 63.0341C123.837 63.7817 121.304 64.1762 118.75 64.2178C115.905 64.2593 113.06 63.8232 110.36 62.9303C107.764 62.0581 105.335 60.7083 103.237 58.9432C101.285 57.3234 99.624 55.3714 98.295 53.2117C96.9244 50.9898 95.9692 48.5394 95.45 45.9644C94.9724 43.5347 94.9101 41.0428 95.2631 38.5924C95.3046 38.2809 95.3669 37.9694 95.4085 37.6579C95.4292 37.5125 95.4708 37.3672 95.4915 37.2218C95.5123 37.1595 95.5123 37.0764 95.5331 37.0141C95.5123 37.118 95.5331 36.9934 95.5331 36.9934L95.5746 36.848C95.72 36.2458 95.8653 35.6436 96.0522 35.0414C96.1353 34.7506 96.2391 34.4391 96.3429 34.1484C96.3845 34.0031 96.4468 33.8577 96.4883 33.7331C96.5091 33.6708 96.5298 33.6085 96.5506 33.5462C96.5506 33.5462 96.5921 33.4216 96.5714 33.5047C96.5506 33.5877 96.6129 33.4008 96.6129 33.4008C96.8413 32.8402 97.0698 32.2795 97.3397 31.7188C97.4643 31.4488 97.6097 31.1581 97.755 30.8881L97.9627 30.4936L97.9419 30.5351L98.0042 30.4105C98.0458 30.3482 98.0873 30.2652 98.1288 30.2029C98.4403 29.6629 98.7518 29.1438 99.0841 28.6246C99.2502 28.3754 99.4371 28.1055 99.6032 27.8563C99.6448 27.794 99.7278 27.6902 99.624 27.8148L99.7694 27.6279L100.06 27.2541C100.434 26.7764 100.808 26.3196 101.202 25.8627C101.306 25.7589 101.389 25.6343 101.493 25.5305L101.659 25.3643L101.721 25.2813C101.804 25.1982 101.638 25.3643 101.721 25.2813C101.929 25.0529 102.137 24.8452 102.365 24.6375C102.801 24.2222 103.237 23.8069 103.694 23.4123L104.026 23.1424L104.172 23.0178L104.255 22.9555C104.255 22.9555 104.4 22.8516 104.338 22.8932C104.276 22.9347 104.379 22.8724 104.379 22.8724L104.504 22.7893L104.691 22.644C104.816 22.5402 104.94 22.4571 105.065 22.374C105.542 22.0418 106.02 21.7095 106.518 21.4188C108.553 20.2144 110.755 19.3006 113.039 18.6984C115.406 18.0547 117.836 17.7016 120.286 17.6601C122.716 17.6186 125.146 17.8885 127.492 18.5115C129.797 19.1137 131.998 20.1105 133.971 21.4396C134.947 22.1041 135.861 22.8309 136.692 23.6615C136.775 23.7446 136.982 23.6408 137.065 23.5992C137.231 23.4954 137.377 23.3293 137.481 23.1631C137.605 22.8932 137.813 22.4571 137.564 22.2079Z" fill="white"/>
<path d="M103.84 44.1785L110.755 51.1144L112.707 53.0664C112.935 53.191 113.184 53.191 113.413 53.0872C113.745 52.9626 114.036 52.7757 114.285 52.5265L121.678 44.843L129.029 37.2011L133.182 32.8817C133.431 32.6533 133.639 32.4041 133.805 32.1342C134.013 31.8642 134.2 31.5527 134.345 31.2412C134.49 30.9713 134.573 30.6805 134.636 30.369C134.698 30.1198 134.719 29.8706 134.698 29.6215L134.594 29.2477C134.49 29.04 134.283 28.9154 134.033 28.9154L133.66 28.9777C133.327 29.1023 133.037 29.2892 132.787 29.5384L125.395 37.2219L118.044 44.8638L113.89 49.1831L115.489 48.6432L108.574 41.7073L106.622 39.7553C106.477 39.6515 106.269 39.6307 106.103 39.693C105.875 39.7138 105.667 39.7969 105.48 39.9422C105.231 40.1083 105.002 40.2952 104.816 40.5237C104.566 40.7521 104.359 41.0221 104.193 41.3128C103.881 41.8319 103.57 42.4342 103.528 43.0571V43.5348C103.528 43.784 103.653 44.0124 103.84 44.1785Z" fill="white"/>
<path d="M73.4171 129.029C73.3756 129.174 73.3133 129.32 73.2718 129.444C73.251 129.506 73.2302 129.569 73.2095 129.631C73.2718 129.444 73.2302 129.59 73.2095 129.61L73.1472 129.756C73.0433 130.026 72.9187 130.316 72.7942 130.586C72.545 131.147 72.2958 131.687 72.0258 132.227L71.8181 132.601C71.7974 132.642 71.7766 132.663 71.7558 132.704C71.6935 132.829 71.8181 132.58 71.7766 132.663C71.7351 132.746 71.6935 132.829 71.652 132.891C71.5067 133.161 71.3613 133.411 71.1952 133.68C70.8837 134.2 70.5514 134.719 70.1984 135.217C70.1153 135.321 70.0323 135.446 69.97 135.549C70.1153 135.342 69.9492 135.57 69.9077 135.632L69.7623 135.84C69.5754 136.089 69.4093 136.318 69.2224 136.546C68.8486 137.024 68.454 137.501 68.0387 137.938L67.7687 138.228C67.6649 138.332 67.8726 138.104 67.7687 138.228C67.748 138.249 67.7065 138.291 67.6857 138.311L67.5196 138.477C67.3119 138.685 67.1042 138.893 66.8966 139.1C66.4605 139.516 66.0036 139.931 65.5468 140.326L65.173 140.637L64.9861 140.782L64.8823 140.866L64.82 140.907C64.8823 140.845 64.903 140.845 64.8407 140.886C64.5708 141.094 64.3008 141.302 64.0308 141.489C63.4909 141.883 62.9302 142.257 62.3488 142.589C62.0581 142.797 61.8504 143.108 61.8089 143.461C61.8089 143.565 61.7881 143.711 61.8919 143.773C61.9958 143.835 62.1204 143.773 62.2034 143.711C64.3839 142.381 66.3567 140.762 68.101 138.893C69.8661 137.003 71.3613 134.885 72.5657 132.601C73.251 131.313 73.8117 130.005 74.2893 128.634C74.3516 128.447 74.3308 128.053 74.0401 128.177C73.7494 128.302 73.5002 128.738 73.4171 129.029Z" fill="white"/>
<path d="M77.8196 131.915C77.778 132.331 77.7157 132.746 77.6534 133.161C77.6119 133.369 77.5704 133.577 77.5288 133.784C77.5288 133.784 77.5496 133.66 77.5496 133.743L77.5288 133.826L77.4873 133.971C77.4665 134.075 77.4458 134.179 77.4042 134.283C77.3004 134.698 77.1758 135.093 77.0512 135.487C77.0304 135.57 76.9889 135.674 76.9474 135.757L76.9058 135.902L76.8851 135.965C76.8851 135.986 76.8228 136.11 76.8643 136.006C76.9058 135.902 76.8436 136.048 76.8436 136.069C76.8436 136.089 76.802 136.172 76.7813 136.214C76.7397 136.318 76.6982 136.422 76.6567 136.525C76.4905 136.899 76.3244 137.273 76.1375 137.647L75.9921 137.917C75.9506 137.979 76.0337 137.834 76.0337 137.834L75.9921 137.896L75.9091 138.062C75.8052 138.249 75.7014 138.415 75.5976 138.602C75.4938 138.789 75.3692 138.955 75.2446 139.142L75.0784 139.391L74.9746 139.537L74.9331 139.578C74.8915 139.661 75.0369 139.433 74.9538 139.537C74.7046 139.869 74.4554 140.201 74.1855 140.513C74.0401 140.699 73.874 140.866 73.7286 141.032L73.6871 141.073C73.5833 141.177 73.7702 140.99 73.7079 141.052L73.5833 141.177L73.3341 141.426C73.0018 141.758 72.6488 142.07 72.2958 142.361C72.1504 142.485 72.0466 142.651 71.9635 142.818C71.8804 142.963 71.8597 143.108 71.8597 143.274C71.922 143.607 72.2335 143.441 72.3996 143.295C73.7909 142.132 74.9954 140.762 75.9714 139.225C76.9474 137.688 77.7157 136.006 78.1933 134.241C78.4633 133.265 78.6502 132.268 78.754 131.251C78.754 131.147 78.754 131.002 78.671 130.939C78.5671 130.898 78.4425 130.919 78.3595 130.981C78.0895 131.209 77.8819 131.542 77.8196 131.915Z" fill="white"/>
<path d="M83.0942 133.494C83.0942 133.577 83.0942 133.66 83.0942 133.743C83.0942 133.618 83.0942 133.743 83.0942 133.764C83.0942 133.784 83.0942 133.847 83.0942 133.888C83.0942 134.054 83.0942 134.22 83.0526 134.366C83.0319 134.677 82.9903 134.989 82.928 135.28C82.9073 135.363 82.9073 135.446 82.8865 135.529C82.8865 135.57 82.8657 135.695 82.8865 135.529C82.8865 135.57 82.8657 135.612 82.8657 135.653C82.8242 135.819 82.7827 135.965 82.7411 136.131C82.6581 136.422 82.5542 136.733 82.4504 137.024C82.4089 137.169 82.5127 136.879 82.4504 137.003L82.4089 137.107L82.3258 137.294C82.2635 137.46 82.1804 137.605 82.1181 137.771C82.0558 137.938 81.9935 138.041 81.9105 138.166C81.8274 138.291 81.9935 138 81.9313 138.145L81.869 138.249C81.8274 138.311 81.7859 138.394 81.7444 138.457C81.6613 138.581 81.599 138.706 81.5159 138.831C81.4744 138.893 81.4329 138.976 81.3706 139.038C81.3083 139.1 81.329 139.1 81.3083 139.142C81.2875 139.163 81.2875 139.184 81.2667 139.204C81.3498 139.1 81.3498 139.08 81.3083 139.142C81.1214 139.391 80.9345 139.64 80.7268 139.869L80.5399 140.077L80.4776 140.139C80.623 139.973 80.4984 140.118 80.4569 140.16C80.3323 140.284 80.2077 140.409 80.0831 140.533C79.9585 140.658 79.8339 140.762 79.6885 140.886C79.6262 140.949 79.5639 141.011 79.4808 141.053L79.5431 141.011L79.4808 141.053L79.3563 141.156C79.0655 141.364 78.8579 141.675 78.8163 142.029C78.8163 142.132 78.7956 142.278 78.8994 142.34C79.0032 142.382 79.1278 142.361 79.2109 142.298C81.5782 140.513 83.2188 137.896 83.8002 134.989C83.9456 134.22 84.0286 133.431 84.0079 132.642C84.0079 132.538 83.9248 132.455 83.821 132.435C83.6964 132.455 83.5718 132.518 83.4679 132.601C83.281 132.829 83.1149 133.141 83.0942 133.494Z" fill="white"/>
</svg>
