<svg width="24" height="24" viewBox="0 0 24 24" fill="none" xmlns="http://www.w3.org/2000/svg">
<path d="M12 0C5.40022 0 0 5.40022 0 12C0 18.5998 5.40022 24 12 24C18.5998 24 24 18.5998 24 12C24 5.40022 18.5998 0 12 0ZM20.9258 10.875H17.9262C17.7757 9.29989 17.1007 6.30025 15.0011 3.52418C18.1498 4.64923 20.4758 7.49982 20.9258 10.875ZM12.7495 3.22465C15.3751 5.92476 16.1992 9.22537 16.4242 10.875H12.7495V3.22465ZM11.2504 10.875H7.57575C7.80076 9.22537 8.55031 5.92476 11.2504 3.22465V10.875ZM11.2504 13.125V20.7754C8.62483 18.0752 7.80076 14.7746 7.57575 13.125H11.2504ZM12.7495 13.125H16.4242C16.1992 14.7746 15.4497 18.0752 12.7495 20.7754V13.125ZM9.00036 3.52418C6.90076 6.29881 6.30025 9.29989 6.07524 10.875H3.0756C3.52422 7.49982 5.85023 4.64923 9.00036 3.52418ZM3.07416 13.125H6.0738C6.22428 14.7001 6.89932 17.6997 8.99892 20.4758C5.8502 19.3508 3.52418 16.5002 3.07416 13.125ZM14.9996 20.4758C17.0992 17.7012 17.6997 14.7001 17.9248 13.125H20.9244C20.4758 16.5002 18.1498 19.3508 14.9996 20.4758Z" fill="white"/>
</svg>
