<svg width="10" height="12" viewBox="0 0 10 12" fill="none" xmlns="http://www.w3.org/2000/svg">
<path fill-rule="evenodd" clip-rule="evenodd" d="M0.525146 4.47665C0.525146 2.0082 2.53254 0 5.00002 0C7.46749 0 9.47488 2.0082 9.47488 4.47665C9.47488 8.15451 5.44539 11.7456 5.27387 11.8966C5.19561 11.9656 5.09783 12 5.00002 12C4.9022 12 4.80442 11.9655 4.7262 11.8966C4.5546 11.7455 0.525146 8.15447 0.525146 4.47665ZM1.35383 4.47665C1.35383 7.25899 4.10915 10.1545 5.00002 11.0177C5.89088 10.1544 8.6462 7.25895 8.6462 4.47665C8.6462 2.46517 7.01052 0.828687 5.00002 0.828687C2.98951 0.828687 1.35383 2.46517 1.35383 4.47665ZM2.92834 4.47653C2.92834 3.32663 3.85767 2.39111 5.00001 2.39111C6.14236 2.39111 7.07169 3.32663 7.07169 4.47653C7.07169 5.62647 6.14236 6.56194 5.00001 6.56194C3.85767 6.56194 2.92834 5.62647 2.92834 4.47653ZM3.75698 4.47653C3.75698 5.1695 4.3146 5.73325 5.00001 5.73325C5.68543 5.73325 6.24304 5.1695 6.24304 4.47653C6.24304 3.78356 5.68543 3.2198 5.00001 3.2198C4.3146 3.2198 3.75698 3.7836 3.75698 4.47653Z" fill="#0E1E36"/>
</svg>
