<svg width="242" height="235" viewBox="0 0 242 235" fill="none" xmlns="http://www.w3.org/2000/svg">
<path d="M168.979 49.9705C170.333 49.8983 171.651 49.5553 172.879 48.9595C174.125 48.3637 175.262 47.5512 176.219 46.5402C177.284 45.4388 178.097 44.1209 178.602 42.6584C178.873 41.8821 178.963 41.0697 178.873 40.2572C178.783 39.5711 178.476 38.9392 178.006 38.4518C177.158 37.5851 175.75 37.2602 174.721 38.0365C173.637 38.9031 173.258 40.3836 173.8 41.6655C174.341 42.8751 175.75 43.3987 176.995 43.3265C178.494 43.2362 179.812 42.3696 180.841 41.3405C181.96 40.2211 182.917 38.9573 183.694 37.5851C184.488 36.213 185.12 34.7325 185.571 33.216C185.68 32.8549 185.77 32.4938 185.86 32.1327C185.896 32.0424 185.896 31.9341 185.86 31.8438C185.824 31.7716 185.734 31.7536 185.662 31.7897C185.427 31.898 185.264 32.1146 185.192 32.3674C185.03 33.0715 184.831 33.7757 184.578 34.4437C184.542 34.5339 184.524 34.6062 184.488 34.6964C184.488 34.7145 184.47 34.7325 184.47 34.7506C184.47 34.7506 184.506 34.6603 184.488 34.7145C184.47 34.7686 184.452 34.8048 184.434 34.8589C184.362 35.0395 184.289 35.202 184.217 35.3825C184.073 35.7075 183.928 36.0325 183.766 36.3574C183.694 36.5199 183.603 36.6824 183.513 36.8449L183.477 36.9171L183.495 36.881L183.423 37.0074C183.387 37.0796 183.333 37.1699 183.296 37.2421C183.116 37.5671 182.917 37.874 182.719 38.1809C182.628 38.3254 182.52 38.4879 182.412 38.6323L182.34 38.7406L182.285 38.8128C182.321 38.7587 182.285 38.8128 182.285 38.8128C182.285 38.8128 182.249 38.849 182.249 38.867L182.177 38.9753C181.96 39.2642 181.744 39.5531 181.491 39.842C181.383 39.9683 181.274 40.1128 181.148 40.2391C181.094 40.3114 181.04 40.3655 180.967 40.4377C180.895 40.51 181.022 40.3836 180.949 40.4558L180.841 40.5641C180.588 40.8169 180.335 41.0516 180.065 41.2863L179.956 41.3766C180.01 41.3224 179.956 41.3766 179.938 41.3946L179.722 41.5571C179.577 41.6474 179.433 41.7557 179.288 41.8279L179.072 41.9543L179.018 41.9904L178.891 42.0446C178.729 42.1168 178.584 42.171 178.422 42.2251C178.277 42.2793 178.133 42.3154 177.97 42.3515C177.916 42.3696 177.844 42.3696 177.79 42.3876C177.718 42.4057 177.645 42.4057 177.555 42.4237C177.248 42.4598 176.923 42.4418 176.616 42.4057C176.02 42.3335 175.461 42.0988 174.991 41.7016C174.883 41.6113 174.793 41.521 174.721 41.4307C174.63 41.3224 174.558 41.2141 174.504 41.1058C174.432 40.9974 174.378 40.8711 174.341 40.7447C174.323 40.7086 174.323 40.6905 174.305 40.6544C174.305 40.6363 174.287 40.6363 174.287 40.6183C174.305 40.6725 174.287 40.6183 174.287 40.6183C174.269 40.5641 174.251 40.4919 174.251 40.4197C174.233 40.2933 174.215 40.1489 174.215 40.0225C174.215 39.9864 174.215 39.9503 174.215 39.9322C174.215 40.0044 174.215 39.9503 174.215 39.9142C174.215 39.842 174.215 39.7697 174.233 39.6975C174.251 39.6434 174.251 39.5711 174.269 39.517C174.269 39.5711 174.251 39.5892 174.269 39.5531L174.287 39.517C174.287 39.4809 174.305 39.4448 174.323 39.4086C174.341 39.3725 174.341 39.3545 174.359 39.3184C174.396 39.2281 174.305 39.4448 174.359 39.3184C174.377 39.2642 174.414 39.192 174.45 39.1378C174.45 39.1378 174.378 39.2642 174.414 39.21L174.432 39.1739L174.486 39.1017C174.54 39.0114 174.414 39.192 174.468 39.1198C174.486 39.0837 174.504 39.0656 174.54 39.0295L174.576 38.9934C174.612 38.9573 174.522 39.0476 174.54 39.0476C174.558 39.0476 174.576 39.0114 174.612 38.9753L174.684 38.9212C174.702 38.9031 174.739 38.8851 174.684 38.9212C174.63 38.9573 174.684 38.9212 174.702 38.9031C174.757 38.867 174.811 38.8309 174.865 38.7948C174.919 38.7587 174.937 38.7587 174.883 38.7948L174.991 38.7406C175.046 38.7226 175.118 38.6865 175.172 38.6684L175.262 38.6504C175.28 38.6504 175.389 38.6323 175.316 38.6323C175.84 38.5601 176.382 38.6684 176.833 38.9573C177.32 39.2281 177.7 39.6434 177.934 40.1489C178.079 40.4558 178.151 40.7808 178.187 41.1238C178.187 41.2141 178.205 41.2863 178.205 41.3766C178.205 41.4127 178.205 41.4669 178.205 41.503C178.205 41.521 178.205 41.5391 178.205 41.5571C178.205 41.503 178.205 41.5752 178.205 41.5932C178.205 41.7738 178.187 41.9543 178.151 42.1349C178.133 42.2251 178.115 42.3154 178.097 42.4057C178.097 42.4598 178.097 42.3876 178.097 42.3876C178.097 42.4057 178.079 42.4418 178.079 42.4598L178.043 42.5862C177.988 42.7668 177.934 42.9473 177.88 43.1279C177.862 43.164 177.862 43.2001 177.844 43.2362C177.898 43.1279 177.844 43.2542 177.826 43.2723C177.79 43.3626 177.754 43.4528 177.718 43.5431C177.645 43.7056 177.573 43.8681 177.483 44.0125L177.447 44.0667L177.483 44.0125C177.465 44.0486 177.447 44.0847 177.429 44.1209C177.393 44.1931 177.356 44.2653 177.302 44.3195C177.212 44.4639 177.14 44.5903 177.05 44.7347L176.923 44.9153L176.887 44.9694L176.833 45.0416C176.743 45.168 176.652 45.2944 176.544 45.4027C176.436 45.5111 176.345 45.6374 176.237 45.7638L176.075 45.9444L176.111 45.9083C176.093 45.9263 176.075 45.9444 176.057 45.9624L175.966 46.0527C175.75 46.2693 175.515 46.486 175.28 46.6846C175.226 46.7388 175.154 46.7929 175.1 46.829L175.027 46.8832L174.973 46.9193C174.991 46.9012 175.027 46.8832 174.991 46.9012C174.865 46.9915 174.739 47.0818 174.612 47.1721C174.359 47.3526 174.071 47.5332 173.8 47.6776C173.655 47.7498 173.529 47.8401 173.385 47.9123L173.276 47.9665C173.348 47.9304 173.258 47.9845 173.222 47.9845L173.005 48.0928C172.716 48.2192 172.41 48.3456 172.121 48.4539C171.814 48.5623 171.525 48.6525 171.218 48.7247C170.911 48.797 170.604 48.8692 170.333 48.9053C170.062 48.9414 169.719 48.9775 169.413 48.9956C169.178 49.0136 168.997 49.2664 168.907 49.465C168.853 49.5733 168.726 49.9886 168.979 49.9705Z" fill="white"/>
<path d="M175.732 52.3718L175.804 52.2996C175.804 52.2996 175.894 52.2093 175.84 52.2635C175.786 52.3176 175.858 52.2454 175.876 52.2274C175.894 52.2093 175.912 52.1913 175.93 52.1732C176.021 52.0829 176.129 51.9927 176.219 51.9024L176.274 51.8663C176.292 51.8482 176.382 51.776 176.292 51.8482C176.328 51.8121 176.382 51.776 176.436 51.7399C176.544 51.6677 176.653 51.5955 176.761 51.5233C176.869 51.451 176.96 51.3969 177.068 51.3427L177.158 51.2885C177.14 51.2885 177.104 51.3247 177.158 51.2885L177.357 51.1983C177.573 51.108 177.808 51.0177 178.043 50.9455C178.512 50.8011 178.982 50.7289 179.469 50.7289C179.957 50.7289 180.426 50.783 180.877 50.9275C181.78 51.1983 182.593 51.7038 183.261 52.3718C183.929 53.0579 184.506 54.0148 184.524 54.9897C184.524 55.1161 184.524 54.9175 184.524 55.0439V55.1161C184.524 55.1522 184.524 55.1883 184.506 55.2244C184.506 55.2244 184.488 55.3508 184.506 55.2786C184.524 55.2064 184.488 55.3327 184.488 55.3327C184.47 55.3688 184.47 55.3869 184.452 55.423C184.416 55.5133 184.416 55.423 184.452 55.405C184.434 55.405 184.416 55.4952 184.416 55.5133C184.38 55.5855 184.488 55.3869 184.434 55.4772C184.416 55.4952 184.398 55.5313 184.38 55.5674C184.38 55.5674 184.47 55.4591 184.416 55.5313L184.362 55.6036C184.326 55.6577 184.344 55.5855 184.38 55.5855C184.362 55.5855 184.326 55.6397 184.308 55.6577L184.254 55.6938C184.217 55.7299 184.217 55.7299 184.272 55.6758L184.217 55.7119C184.181 55.748 184.127 55.766 184.091 55.8022C184.055 55.8383 184.091 55.8022 184.091 55.8022L184.001 55.8383C183.911 55.8744 183.82 55.8924 183.73 55.9105C183.531 55.9285 183.315 55.8924 183.152 55.766C182.972 55.6577 182.827 55.4952 182.719 55.3147C182.665 55.2244 182.629 55.1161 182.593 55.0078C182.593 55.0258 182.611 55.0439 182.593 54.9897C182.593 54.9536 182.575 54.9355 182.575 54.8994C182.556 54.8272 182.556 54.7731 182.556 54.7008C182.556 54.6828 182.556 54.6467 182.556 54.6286C182.556 54.5022 182.556 54.6828 182.556 54.5745C182.556 54.5022 182.575 54.4481 182.575 54.3759C182.575 54.3397 182.593 54.3036 182.593 54.2856C182.593 54.2134 182.556 54.3759 182.593 54.2675C182.611 54.1953 182.629 54.1231 182.665 54.0328C182.665 54.0328 182.701 53.9064 182.683 53.9787C182.665 54.0509 182.701 53.9245 182.701 53.9245C182.737 53.8703 182.755 53.7981 182.791 53.744C182.827 53.6898 182.863 53.6356 182.881 53.5634L182.845 53.6176L182.881 53.5454L182.936 53.4551C182.99 53.3648 183.044 53.2926 183.098 53.2023L183.188 53.0579C183.206 53.0218 183.261 52.9676 183.17 53.094C183.188 53.0579 183.206 53.0398 183.224 53.0037C183.351 52.8412 183.477 52.6787 183.622 52.5162L183.658 52.4801C183.568 52.6065 183.622 52.5162 183.64 52.4982L183.748 52.3899C183.82 52.3176 183.911 52.2454 183.983 52.1732C184.055 52.101 184.127 52.0468 184.199 51.9746C184.236 51.9566 184.272 51.8843 184.308 51.8843L184.272 51.9205L184.326 51.8843L184.398 51.8302C184.561 51.7038 184.741 51.5955 184.904 51.4871C184.994 51.433 185.084 51.3788 185.192 51.3247L185.319 51.2524L185.373 51.2163L185.409 51.1983C185.788 51.0177 186.167 50.8552 186.565 50.7289C186.763 50.6747 186.962 50.6205 187.16 50.5664L187.323 50.5303L187.395 50.5122H187.431C187.539 50.4941 187.648 50.4761 187.756 50.458C188.171 50.4039 188.587 50.3858 189.002 50.4039C189.832 50.4219 190.645 50.6205 191.403 50.9455C191.602 51.0358 191.782 51.1261 191.963 51.2344C192.143 51.3427 192.378 51.0358 192.468 50.9094C192.541 50.8011 192.595 50.6747 192.613 50.5483C192.613 50.4761 192.631 50.3678 192.541 50.3136C190.934 49.4109 189.002 49.2484 187.215 49.6997C185.337 50.1692 183.712 51.3247 182.629 52.9315C182.25 53.4731 181.997 54.0689 181.852 54.7189C181.726 55.2786 181.834 55.8563 182.177 56.3257C182.484 56.741 183.008 56.9396 183.531 56.8313C184.109 56.7049 184.597 56.2355 184.885 55.7299C185.229 55.1341 185.337 54.43 185.174 53.762C185.048 53.2023 184.813 52.6787 184.488 52.2093C183.911 51.3608 183.098 50.6747 182.177 50.2594C181.22 49.8261 180.155 49.6636 179.126 49.8261C178.007 50.0067 176.96 50.4761 176.111 51.2163C175.894 51.4149 175.696 51.6135 175.497 51.8302C175.407 51.9385 175.335 52.0649 175.299 52.1913C175.262 52.2815 175.262 52.3899 175.299 52.4801C175.389 52.751 175.66 52.4801 175.732 52.3718Z" fill="white"/>
<path d="M168.618 43.3625C169.431 42.2793 169.972 41.0154 170.225 39.6794C170.46 38.4517 170.424 37.1879 170.099 35.9963C169.918 35.3102 169.665 34.6603 169.304 34.0464C169.124 33.7214 168.456 34.5519 168.636 34.8589C169.214 35.8519 169.557 36.9712 169.629 38.1267C169.647 38.2712 169.647 38.4156 169.647 38.56V38.7947C169.647 38.8309 169.647 38.867 169.647 38.9211C169.629 39.21 169.611 39.4989 169.575 39.7877C169.557 39.9322 169.521 40.0766 169.503 40.221C169.503 40.2391 169.503 40.2572 169.485 40.2752C169.485 40.2752 169.503 40.203 169.485 40.2391C169.467 40.2752 169.467 40.3113 169.467 40.3474C169.449 40.4196 169.431 40.4919 169.412 40.5641C169.376 40.7085 169.34 40.853 169.286 40.9974C169.268 41.0696 169.25 41.1238 169.214 41.196C169.196 41.2321 169.196 41.2682 169.178 41.2863L169.16 41.3404C169.142 41.4126 169.196 41.2502 169.178 41.3043C169.124 41.4668 169.051 41.6112 168.979 41.7557C168.943 41.8279 168.907 41.9001 168.871 41.9723L168.817 42.0807C168.763 42.189 168.853 42.0084 168.817 42.0807C168.744 42.2251 168.654 42.3695 168.564 42.514C168.528 42.5862 168.474 42.6403 168.438 42.7126L168.401 42.7487C168.365 42.8028 168.401 42.7306 168.419 42.7126C168.383 42.7487 168.365 42.7848 168.329 42.8209C168.239 42.9292 168.167 43.0556 168.131 43.182C168.094 43.2722 168.094 43.3806 168.131 43.4708C168.257 43.7056 168.546 43.4528 168.618 43.3625Z" fill="white"/>
<path d="M1.32584 125.547C0.657825 113.414 1.79526 101.227 4.91868 89.4918C7.86156 78.5688 12.4113 68.1514 18.4595 58.6006C24.3092 49.3567 31.4046 40.9433 39.5291 33.6132C47.4189 26.4636 56.1934 20.3431 65.6178 15.3782C75.0061 10.4312 85.0805 6.62175 95.4618 4.40105C106.656 1.9998 118.21 1.44011 129.567 2.52338C140.995 3.6247 152.207 6.33287 162.877 10.5757C173.457 14.7643 183.387 20.4334 192.378 27.4205C201.423 34.4798 209.386 42.9112 215.795 52.444C223.63 64.1613 229.282 77.2147 232.423 90.9722C235.258 103.285 235.998 115.996 234.626 128.58C231.899 152.935 221.807 175.864 205.702 194.316C197.578 203.596 187.955 211.45 177.249 217.57C166.38 223.763 154.464 228.114 142.205 230.606C129.892 233.097 117.272 233.675 104.778 232.339C92.3384 231.003 80.0975 227.699 68.7593 222.409C58.0891 217.444 48.2494 210.728 39.6013 202.765C30.881 194.713 23.3703 185.415 17.3221 175.196C11.2739 164.996 6.77829 153.964 3.9979 142.427C2.67992 136.867 1.79526 131.234 1.32584 125.547C1.28973 125.023 0.459226 125.926 0.495335 126.305C1.48833 138.239 4.34094 149.938 8.96288 160.987C13.6029 172.127 19.8858 182.526 27.577 191.843C35.1599 201.05 44.0788 209.067 54.0449 215.638C64.372 222.409 75.7644 227.41 87.7345 230.461C100.12 233.603 112.902 234.74 125.649 233.873C138.251 233.025 150.636 230.244 162.372 225.622C174.017 221.037 184.813 214.555 194.328 206.449C203.59 198.523 211.552 189.08 217.943 178.717C224.353 168.318 229.191 157.015 232.279 145.19C235.33 133.491 236.648 121.322 235.962 109.243C235.203 95.54 231.863 81.963 226.375 69.3971C221.211 57.6256 214.116 46.7388 205.251 37.4227C197.235 29.0093 187.883 21.8778 177.736 16.2448C167.644 10.6479 156.829 6.49536 145.581 3.93163C134.225 1.29568 122.544 0.374898 110.916 1.18735C99.7227 1.9998 88.7275 4.52743 78.292 8.6619C58.2335 16.5698 40.504 29.4607 26.7646 46.0888C19.6692 54.7008 13.8195 64.2877 9.41424 74.5427C4.82841 85.3031 1.92164 96.6955 0.820315 108.341C0.260626 114.317 0.1523 120.329 0.495335 126.323C0.513389 126.828 1.34389 125.926 1.32584 125.547Z" fill="#F5B3A6"/>
<path d="M220.218 88.3903C220.218 88.264 220.2 88.1556 220.2 88.0293C220.2 87.9751 220.2 87.9029 220.2 87.8487C220.2 87.8487 220.2 87.7223 220.2 87.8126C220.2 87.7765 220.2 87.7404 220.2 87.7043C220.2 87.4696 220.218 87.2168 220.254 86.9821C220.29 86.7474 220.308 86.5127 220.362 86.296C220.362 86.2419 220.38 86.1877 220.398 86.1335C220.416 86.0794 220.398 86.1335 220.398 86.1516C220.398 86.1155 220.416 86.0794 220.416 86.0613C220.435 85.9349 220.471 85.8266 220.507 85.7183C220.561 85.5016 220.633 85.303 220.705 85.1044C220.723 85.0503 220.741 84.9961 220.76 84.96C220.741 85.0864 220.741 85.0142 220.76 84.96C220.76 84.9419 220.778 84.9239 220.778 84.9058C220.814 84.7975 220.868 84.6892 220.922 84.5809C221.012 84.3823 221.121 84.1837 221.211 83.9851C221.121 84.1476 221.211 83.9851 221.229 83.949C221.247 83.9128 221.283 83.8587 221.301 83.8045C221.355 83.7142 221.428 83.6059 221.482 83.5156C221.536 83.4254 221.59 83.3351 221.662 83.2629C221.698 83.2268 221.716 83.1726 221.753 83.1365C221.644 83.299 221.771 83.1184 221.789 83.0823C221.915 82.9198 222.041 82.7574 222.186 82.5949C222.258 82.5226 222.33 82.4324 222.384 82.3602L222.439 82.306C222.511 82.2338 222.366 82.3782 222.421 82.3241L222.547 82.1977C222.691 82.0532 222.854 81.8907 223.016 81.7644C223.161 81.6199 223.323 81.4755 223.504 81.3491C223.395 81.4213 223.54 81.3311 223.558 81.313L223.684 81.2227C223.775 81.1505 223.865 81.0963 223.955 81.0241C224.298 80.7894 224.641 80.5908 225.002 80.3922C225.02 80.3742 225.147 80.32 225.075 80.3561C225.111 80.3381 225.165 80.32 225.201 80.2839C225.291 80.2297 225.4 80.1936 225.49 80.1395C225.67 80.0492 225.869 79.977 226.068 79.9048C226.465 79.7603 226.88 79.6339 227.313 79.5437C227.729 79.4534 228.144 79.4173 228.577 79.3992C229.028 79.3812 229.48 79.3812 229.931 79.4353C231.701 79.6159 233.398 80.2839 234.806 81.3852C236.359 82.6129 237.442 84.3461 237.893 86.278C238.002 86.7835 238.074 87.289 238.11 87.7945C238.11 87.9029 238.11 88.0293 238.128 88.1376V88.3001C238.128 88.3723 238.128 88.2098 238.128 88.3181C238.128 88.3542 238.128 88.3903 238.128 88.4265C238.128 88.6612 238.11 88.8959 238.074 89.1306C238.038 89.3653 238.02 89.6 237.965 89.8347C237.947 89.8889 237.947 89.943 237.929 89.9972C237.965 89.8708 237.911 90.0514 237.911 90.0875C237.875 90.2138 237.857 90.3222 237.821 90.4486C237.767 90.6833 237.695 90.8999 237.604 91.1346C237.586 91.1888 237.568 91.243 237.55 91.2971C237.55 91.2791 237.586 91.1888 237.568 91.261L237.532 91.3513C237.496 91.4596 237.442 91.5679 237.388 91.6763C237.297 91.8929 237.189 92.0915 237.081 92.3082C237.027 92.4165 237.135 92.1998 237.081 92.3082L237.045 92.3623L236.954 92.5068C236.9 92.6151 236.828 92.7234 236.756 92.8317C236.684 92.9401 236.629 93.0123 236.575 93.1206C236.557 93.1567 236.431 93.3012 236.539 93.1748C236.503 93.2289 236.467 93.2831 236.413 93.3373C236.268 93.5178 236.124 93.7164 235.961 93.897L235.853 94.0233C235.835 94.0414 235.817 94.0594 235.799 94.0775C235.889 93.9692 235.817 94.0594 235.799 94.0775C235.709 94.1678 235.636 94.258 235.546 94.3303C235.384 94.4928 235.203 94.6552 235.023 94.7997L234.896 94.908C234.986 94.8358 234.896 94.908 234.878 94.9261L234.824 94.9622C234.716 95.0344 234.607 95.1066 234.517 95.1788C234.318 95.3233 234.102 95.4496 233.885 95.576C233.777 95.6302 233.687 95.6843 233.578 95.7385C233.47 95.7927 233.614 95.7205 233.56 95.7566L233.488 95.7927L233.289 95.8829C233.073 95.9913 232.838 96.0816 232.603 96.1718C231.701 96.4968 230.744 96.6954 229.787 96.7315C229.299 96.7496 228.812 96.7315 228.324 96.6773C226.429 96.4607 224.659 95.6482 223.251 94.3664C222.583 93.7525 222.005 93.0303 221.536 92.254C221.066 91.4777 220.723 90.6291 220.507 89.7444C220.398 89.3111 220.326 88.8598 220.29 88.4265C220.272 88.1917 220.001 88.3001 219.893 88.4084C219.694 88.5709 219.586 88.8237 219.568 89.0945C219.748 91.0263 220.489 92.8498 221.734 94.3303C222.348 95.0705 223.07 95.7205 223.865 96.2621C224.695 96.8037 225.634 97.2009 226.591 97.4537C230.726 98.4828 235.059 96.7135 237.261 93.0665C238.363 91.3152 238.904 89.257 238.814 87.1807C238.688 85.0142 237.803 82.974 236.322 81.4033C235.023 80.0672 233.362 79.1465 231.538 78.7493C229.751 78.334 227.873 78.4604 226.158 79.1284C224.479 79.7964 222.98 80.8797 221.843 82.2699C220.579 83.7865 219.803 85.628 219.586 87.596C219.532 88.1015 219.532 88.607 219.55 89.1125C219.568 89.3653 219.839 89.2389 219.947 89.1306C220.146 88.9681 220.254 88.7153 220.272 88.4445L220.218 88.3903Z" fill="white"/>
<path d="M236.793 102.256V102.148C236.793 102.04 236.793 102.184 236.793 102.13C236.793 102.076 236.793 102.003 236.811 101.949C236.829 101.895 236.829 101.841 236.829 101.787C236.829 101.751 236.829 101.715 236.829 101.805C236.829 101.769 236.847 101.715 236.865 101.678C236.883 101.642 236.919 101.57 236.919 101.534C236.919 101.588 236.883 101.624 236.901 101.57L236.937 101.48L236.973 101.408C236.991 101.372 237.045 101.317 236.955 101.444C236.991 101.39 237.009 101.335 237.045 101.281C237.045 101.263 237.118 101.173 237.063 101.263C237.009 101.353 237.063 101.263 237.082 101.245C237.118 101.209 237.136 101.173 237.172 101.119C237.208 101.065 237.28 101.028 237.172 101.119L237.208 101.083C237.244 101.047 237.298 100.992 237.334 100.956C237.352 100.938 237.388 100.902 237.407 100.902C237.37 100.902 237.334 100.956 237.388 100.92C237.443 100.884 237.479 100.848 237.515 100.83C237.551 100.812 237.605 100.776 237.659 100.74L237.713 100.704L237.768 100.667L237.75 100.685C237.84 100.649 237.93 100.613 238.038 100.577C238.093 100.559 238.129 100.541 238.183 100.541L238.255 100.523C238.273 100.523 238.363 100.505 238.309 100.505C238.526 100.469 238.761 100.469 238.977 100.487C239.429 100.541 239.844 100.722 240.205 101.01C240.584 101.317 240.837 101.733 240.945 102.202C240.981 102.328 240.999 102.455 240.999 102.581C240.999 102.617 240.999 102.635 240.999 102.671C240.999 102.78 240.999 102.599 240.999 102.708C240.999 102.78 240.999 102.852 240.981 102.906C240.963 102.96 240.963 103.014 240.963 103.069C240.945 103.159 240.963 103.069 240.963 103.051C240.963 103.087 240.945 103.123 240.945 103.141C240.927 103.195 240.909 103.249 240.891 103.303C240.855 103.412 240.927 103.231 240.891 103.285C240.873 103.321 240.855 103.358 240.837 103.394L240.801 103.466C240.765 103.52 240.747 103.52 240.819 103.448C240.783 103.502 240.765 103.538 240.729 103.592C240.692 103.628 240.638 103.682 240.729 103.592C240.71 103.61 240.692 103.628 240.692 103.646C240.656 103.701 240.602 103.755 240.566 103.809C240.638 103.701 240.584 103.773 240.566 103.809L240.512 103.863L240.44 103.935C240.44 103.935 240.349 104.007 240.404 103.971L240.367 103.989C240.349 104.007 240.313 104.026 240.295 104.044C240.241 104.08 240.169 104.116 240.115 104.152C240.061 104.188 240.187 104.116 240.097 104.17L240.006 104.206C239.952 104.224 239.898 104.242 239.844 104.26C239.736 104.296 239.627 104.332 239.519 104.35C239.266 104.387 239.031 104.387 238.779 104.35C238.255 104.278 237.768 104.007 237.407 103.61C237.244 103.43 237.1 103.213 236.991 102.978C236.955 102.924 236.937 102.852 236.919 102.798C236.919 102.78 236.901 102.762 236.901 102.744C236.901 102.726 236.883 102.708 236.883 102.689C236.883 102.726 236.883 102.708 236.883 102.671C236.829 102.509 236.811 102.383 236.793 102.256C236.775 102.003 236.504 102.13 236.395 102.238C236.197 102.401 236.089 102.653 236.07 102.924C236.179 104.044 236.973 104.982 238.075 105.253C238.634 105.38 239.212 105.325 239.754 105.109C240.367 104.838 240.873 104.369 241.216 103.791C241.559 103.231 241.722 102.599 241.703 101.931C241.667 101.317 241.415 100.74 240.999 100.306C240.241 99.548 239.122 99.3133 238.129 99.7286C236.847 100.27 236.034 101.552 236.07 102.942C236.089 103.195 236.359 103.069 236.468 102.96C236.666 102.762 236.793 102.527 236.793 102.256Z" fill="white"/>
<path d="M228.307 93.536C228.234 92.3624 227.747 91.2611 226.953 90.4126C225.508 88.9501 223.342 88.4807 221.428 89.221C219.496 89.9973 217.998 91.8569 217.799 93.9512C217.781 94.2221 217.763 94.4929 217.781 94.7637C217.781 94.7817 217.781 94.7817 217.781 94.7998C217.871 95.8469 218.286 96.858 218.973 97.6524C219.659 98.4829 220.597 99.0787 221.645 99.3315C222.728 99.5842 223.865 99.494 224.894 99.0607C225.96 98.6093 226.862 97.8149 227.458 96.8219C228.072 95.8289 228.361 94.6915 228.307 93.536Z" fill="#F5B3A6"/>
<path d="M31.7661 42.9112C30.5384 41.9724 29.076 41.4127 27.5413 41.2863C26.0248 41.1599 24.4901 41.4669 23.1541 42.2071C21.8181 42.9473 20.7709 44.157 20.0487 45.493C19.3266 46.829 19.0196 48.3637 19.1821 49.8802C19.5974 53.112 22.3055 55.5674 25.5734 55.6577C27.0719 55.7118 28.5704 55.3327 29.8704 54.5744C31.2245 53.78 32.3077 52.5704 32.9757 51.1441C33.5354 49.8622 33.7701 48.472 33.6437 47.0818C33.5535 45.836 33.1924 44.5181 32.3799 43.5251C32.1994 43.3084 31.9827 43.0918 31.7661 42.9112C31.7119 42.8571 31.5855 42.9112 31.5314 42.9473C31.423 43.0195 31.3328 43.1098 31.2606 43.2362C31.1703 43.3806 31.0078 43.6876 31.1883 43.832C31.2967 43.9223 31.405 44.0125 31.4953 44.1028C31.5494 44.157 31.5855 44.1931 31.6397 44.2472L31.6758 44.3014L31.748 44.3917C31.9286 44.6083 32.073 44.8611 32.2174 45.1139C32.4883 45.6374 32.6869 46.1971 32.7952 46.7929C32.8674 47.0999 32.9035 47.4248 32.9216 47.7318C32.9396 47.8942 32.9396 48.0567 32.9577 48.2373C32.9577 48.3095 32.9577 48.3817 32.9577 48.4539V48.5081C32.9577 48.49 32.9577 48.4359 32.9577 48.5081C32.9577 48.5442 32.9577 48.5984 32.9577 48.6345C32.9396 48.9595 32.9216 49.2664 32.8674 49.5914C32.8494 49.6636 32.8494 49.7358 32.8313 49.808C32.8313 49.8441 32.8132 49.8802 32.8132 49.9344C32.8132 49.9886 32.8132 49.9705 32.8132 49.9705C32.8132 49.9705 32.8132 50.0788 32.8132 49.9705C32.7952 50.1149 32.7591 50.2594 32.7049 50.4038C32.6688 50.5483 32.6146 50.6927 32.5605 50.8371C32.5605 50.8552 32.5605 50.8552 32.5424 50.8732C32.5244 50.9274 32.5785 50.7649 32.5605 50.8371L32.5244 50.9274C32.4883 51.0177 32.4522 51.0899 32.416 51.1621C32.3799 51.2343 32.3438 51.3246 32.2897 51.4149L32.2355 51.5232L32.2716 51.469C32.2536 51.5051 32.2355 51.5232 32.2174 51.5593C32.1272 51.7037 32.0369 51.8482 31.9466 51.9926C31.9286 52.0287 31.8925 52.0648 31.8744 52.1009L31.8925 52.0648L31.8564 52.119C31.8022 52.1912 31.748 52.2634 31.6939 52.3356C31.6397 52.4079 31.6036 52.462 31.5494 52.5162C31.4953 52.5704 31.4953 52.5884 31.4592 52.6065C31.4411 52.6245 31.423 52.6426 31.423 52.6606C31.4411 52.6426 31.4953 52.5884 31.4411 52.6426C31.3147 52.769 31.1883 52.8953 31.062 53.0037C31.0078 53.0578 30.9536 53.112 30.8814 53.1481L30.7731 53.2384C30.755 53.2564 30.737 53.2564 30.7189 53.2745C30.737 53.2564 30.7731 53.2203 30.737 53.2564C30.4662 53.4731 30.1773 53.6536 29.8704 53.8342L29.6537 53.9425L29.6176 53.9606C29.5634 53.9967 29.6718 53.9244 29.6176 53.9606L29.4912 54.0328C29.3468 54.105 29.1843 54.1772 29.0218 54.2314C28.7149 54.3577 28.3899 54.448 28.0649 54.5383L27.8302 54.5925L27.7219 54.6105L27.6677 54.6286H27.6316C27.4511 54.6647 27.2705 54.6827 27.09 54.7008C25.5192 54.8813 23.9304 54.5022 22.6125 53.6356C21.4389 52.8231 20.5543 51.6496 20.121 50.2955C20.0126 49.9705 19.9404 49.6275 19.9043 49.2844C19.8862 49.1039 19.8682 48.9414 19.8682 48.7609C19.8682 48.6706 19.8682 48.5984 19.8682 48.5081V48.4539V48.3095C19.8862 47.9665 19.9224 47.6234 19.9946 47.2804C20.0126 47.2262 19.9765 47.3526 19.9946 47.2985L20.0126 47.2443C20.0126 47.2082 20.0307 47.154 20.0487 47.1179C20.0668 47.0276 20.0848 46.9374 20.121 46.8651C20.1751 46.7027 20.2293 46.5402 20.2834 46.3777C20.3195 46.2513 20.2473 46.4499 20.2834 46.3596L20.3376 46.2332C20.3737 46.143 20.4098 46.0707 20.4459 45.9805C20.482 45.8902 20.5181 45.836 20.5543 45.7638C20.5723 45.7277 20.5904 45.6916 20.6084 45.6555C20.6265 45.6194 20.6265 45.6194 20.6445 45.6013L20.6626 45.5833C20.6265 45.6735 20.6806 45.5472 20.6987 45.5291L20.7709 45.4208C20.807 45.3486 20.8612 45.2764 20.9153 45.2041C20.9695 45.1319 21.0056 45.0597 21.0598 44.9875L21.132 44.8972C21.1862 44.825 21.1139 44.9333 21.0959 44.9333C21.1139 44.9153 21.132 44.8972 21.1501 44.8611C21.2584 44.7167 21.3487 44.5903 21.475 44.4639L21.6375 44.2834L21.6736 44.2292C21.7097 44.1931 21.6375 44.2653 21.6375 44.2653L21.7459 44.157C21.8722 44.0306 21.9806 43.9223 22.1069 43.8139C22.1611 43.7598 22.2333 43.7056 22.2875 43.6514C22.3236 43.6334 22.3417 43.6153 22.3778 43.5792C22.2875 43.6695 22.3958 43.5612 22.4319 43.5431C22.6847 43.3445 22.9736 43.182 23.2624 43.0195L23.3166 42.9834C23.3708 42.9654 23.2624 43.0195 23.3166 42.9834L23.4069 42.9293C23.4971 42.8932 23.5874 42.8571 23.6596 42.8209C23.8221 42.7487 24.0027 42.6765 24.1652 42.6223C24.8332 42.3876 25.5373 42.2613 26.2414 42.2432C27.6858 42.189 29.1301 42.5321 30.3939 43.2543C30.7009 43.4348 31.0078 43.6334 31.2786 43.85C31.3508 43.9042 31.4592 43.85 31.5133 43.8139C31.6216 43.7417 31.7119 43.6334 31.7841 43.5251C31.7661 43.3626 31.9286 43.0557 31.7661 42.9112Z" fill="white"/>
<path d="M54.5322 35.0033C54.3336 33.4145 53.8461 31.8799 53.1059 30.4536C52.3837 29.0634 51.4268 27.7996 50.2894 26.7163C49.1159 25.5969 47.7437 24.6942 46.2271 24.0803C44.6203 23.4123 42.8871 23.0332 41.1538 22.961C38.0304 22.8165 34.9431 23.5748 32.253 25.1636C30.935 25.94 29.7254 26.8968 28.6782 28.0343C27.5949 29.1898 26.7103 30.5258 26.0603 31.9702C25.5006 33.234 25.1034 34.5881 24.9229 35.9602C24.7243 37.3504 24.6701 38.7767 24.7965 40.1849C24.9048 41.5751 25.1756 42.9292 25.627 44.2472C26.0242 45.4568 26.6381 46.5943 27.4325 47.5873C27.7935 48.0386 28.2268 48.4539 28.6782 48.815C28.6782 48.815 28.6782 48.815 28.6782 48.833C29.942 49.808 31.3683 50.6024 32.8668 51.1801C34.3473 51.7398 35.9181 52.1009 37.5068 52.2453C39.0956 52.3717 40.6844 52.2814 42.2371 51.9745C43.7717 51.6676 45.2522 51.144 46.6424 50.3857C47.9062 49.6816 49.0798 48.7789 50.0727 47.7136C51.156 46.5762 52.0587 45.3124 52.799 43.9222C53.5211 42.5501 54.0447 41.0877 54.3697 39.5711C54.6586 38.0545 54.7308 36.5199 54.5322 35.0033Z" fill="#F5B3A6"/>
<path d="M177.556 174.402L168.727 172.199L151.16 167.794L138.233 164.562C137.926 164.49 137.601 164.382 137.295 164.327C136.518 164.219 135.615 164.346 134.821 164.364L130.073 164.454L111.296 164.797L73.7248 165.483L69.0848 165.555C69.0667 165.555 69.0667 165.555 69.0486 165.555C67.5321 165.591 65.9252 165.645 64.4989 166.223C63.0546 166.801 61.9171 167.92 61.3213 169.365C60.7075 170.827 60.6533 172.416 60.6533 173.987C60.6533 176.081 60.6714 178.175 60.6894 180.27C60.7255 188.647 60.7617 197.042 60.8158 205.419C60.8339 210.168 60.87 214.916 60.888 219.664C60.888 219.719 60.9241 219.791 60.9783 219.809C67.9654 223.691 75.3316 226.814 82.9867 229.125C90.4793 231.382 98.1886 232.88 105.988 233.602C107.938 233.783 109.888 233.927 111.856 234C112.849 234.036 113.86 234.126 114.853 234.09C115.882 234.054 116.929 233.982 117.958 233.927L130.705 233.241C131.716 233.187 132.745 233.187 133.756 233.043C134.731 232.916 135.688 232.772 136.663 232.628C138.522 232.339 140.382 231.996 142.223 231.616C146.015 230.84 149.77 229.883 153.471 228.746C160.783 226.507 167.861 223.564 174.595 219.953C175.462 219.484 176.31 219.014 177.159 218.545C177.448 218.346 177.628 218.021 177.628 217.678C177.664 206.485 177.682 195.273 177.718 184.079C177.718 180.92 177.737 177.742 177.737 174.582C177.718 174.492 177.646 174.402 177.556 174.402Z" fill="#E7E9EB"/>
<path d="M175.588 91.6221C173.475 84.617 170.605 77.8465 166.867 71.5455C166.777 71.4011 166.615 71.4914 166.452 71.6358L166.398 71.4192C166.633 71.1664 166.795 70.715 166.597 70.6609V70.6428C146.683 63.6196 125.559 60.6406 104.471 61.8684C99.2715 62.1392 94.1079 62.7169 88.9624 63.5835C84.0335 64.4321 79.1408 65.6598 74.5369 67.6458C66.4124 71.1483 59.8044 77.0883 54.5867 84.1656C49.369 91.243 45.4511 99.0967 41.768 107.023C41.3167 107.998 40.8653 108.972 40.4139 109.947C40.3598 110.056 40.2695 110.345 40.4139 110.417L68.9039 125.691L76.8298 129.934L69.3552 144.738C66.8637 149.667 64.2819 154.542 61.8987 159.525C60.2377 162.973 58.4323 167.649 60.5086 171.296C62.6931 175.142 67.7123 175.305 71.594 175.575C82.7517 176.37 93.9093 176.929 105.085 177.218C116.315 177.525 127.527 177.561 138.757 177.363C149.986 177.164 161.198 176.695 172.41 175.973C173.8 175.882 175.172 175.792 176.563 175.702C176.87 175.684 177.104 175.268 177.14 174.998C178.874 160.5 180.589 145.948 180.679 131.306C180.805 117.927 179.451 104.459 175.588 91.6221Z" fill="#2463F5"/>
<path d="M117.687 41.7197C117.651 41.4488 117.615 41.1961 117.597 40.9253C117.579 40.6905 117.579 40.4558 117.597 40.2392C117.615 39.9864 117.651 39.7156 117.687 39.4628L117.723 39.2823C117.742 39.1559 117.705 39.3365 117.723 39.2642L117.742 39.174C117.778 39.0476 117.796 38.9212 117.85 38.7948C117.904 38.6684 117.922 38.5601 117.958 38.4518C117.976 38.3976 117.994 38.3254 118.03 38.2712L118.066 38.199C118.03 38.3254 118.066 38.181 118.085 38.1629C118.175 37.9282 118.283 37.6755 118.41 37.4407L118.446 37.3685L118.464 37.3324L118.482 37.2963L118.518 37.2241C118.59 37.1158 118.662 36.9894 118.735 36.8811C118.807 36.7727 118.879 36.6644 118.951 36.5561L119.005 36.4658C119.059 36.3755 119.005 36.4658 118.987 36.4839C119.023 36.4116 119.078 36.3575 119.132 36.2853C119.294 36.0867 119.457 35.8881 119.619 35.6895L119.691 35.6172C119.746 35.5631 119.601 35.7075 119.691 35.6172L119.818 35.4909C119.908 35.4006 120.016 35.3103 120.107 35.202C120.197 35.1117 120.287 35.0214 120.396 34.9492L120.54 34.8409L120.612 34.7867C120.684 34.7326 120.558 34.8228 120.648 34.7506C120.865 34.5881 121.082 34.4437 121.298 34.2993C122.237 33.6854 123.266 33.1979 124.349 32.873C125.433 32.5299 126.552 32.3494 127.69 32.3313C128.773 32.3313 129.856 32.4758 130.903 32.7466C132.979 33.2702 134.857 34.3715 136.338 35.9242C137.872 37.5671 138.883 39.6253 139.262 41.846C139.389 42.6765 139.461 43.5251 139.461 44.3737C139.497 45.2403 139.461 46.1249 139.389 46.9916C139.353 47.2624 139.317 47.5332 139.262 47.804C139.244 47.8762 139.226 47.9484 139.226 48.0207C139.244 47.9484 139.208 48.0929 139.208 48.1109C139.172 48.2554 139.136 48.3998 139.1 48.5262C139.028 48.7789 138.956 49.0317 138.865 49.2845C138.829 49.3928 138.793 49.5192 138.739 49.6275C138.721 49.6817 138.703 49.7539 138.667 49.8081C138.703 49.6997 138.685 49.7719 138.667 49.79L138.631 49.8983C138.45 50.3858 138.233 50.8733 137.999 51.3246L137.963 51.4149C137.926 51.4871 138.035 51.2885 137.963 51.4149L137.872 51.5593C137.8 51.6677 137.728 51.776 137.656 51.9024L137.565 52.0468C137.547 52.0829 137.421 52.2454 137.511 52.119C137.439 52.2274 137.349 52.3357 137.276 52.444C137.204 52.5523 137.132 52.6245 137.06 52.7148L136.933 52.8593L136.879 52.9134L136.825 52.9676C136.861 52.9315 136.879 52.9134 136.843 52.9495C136.663 53.1301 136.482 53.3106 136.283 53.4912C136.193 53.5634 136.103 53.6537 136.013 53.7259L135.886 53.7981C135.958 53.7439 135.904 53.7981 135.886 53.7981L135.796 53.8703C135.579 54.0328 135.363 54.1772 135.146 54.3217C134.929 54.4661 134.713 54.5744 134.496 54.7008L134.406 54.7369C134.388 54.7369 134.316 54.773 134.37 54.755L134.207 54.8272C134.081 54.8814 133.972 54.9355 133.846 54.9897C133.359 55.2063 132.835 55.3688 132.33 55.4952C130.019 56.0549 127.509 55.766 125.324 54.8272C123.302 53.9425 121.515 52.5704 120.125 50.8552C119.782 50.44 119.457 50.0067 119.168 49.5553C119.15 49.5192 119.096 49.4831 119.059 49.4831C118.482 49.5733 117.886 49.5733 117.308 49.5011C116.207 49.3747 115.088 48.9234 114.365 48.0207C113.86 47.4249 113.499 46.7207 113.282 45.9625C113.21 45.6555 113.174 45.3305 113.156 45.0056V44.9875C113.156 45.0236 113.156 44.9695 113.156 44.9514C113.156 44.9333 113.156 44.8792 113.156 44.8431C113.156 44.7709 113.156 44.6806 113.174 44.6084C113.174 44.5361 113.192 44.4639 113.21 44.3917C113.21 44.3556 113.228 44.3375 113.228 44.3014C113.21 44.3917 113.228 44.3014 113.246 44.2653C113.264 44.2292 113.282 44.139 113.3 44.0848C113.336 44.0126 113.354 43.9404 113.372 43.8862C113.372 43.8862 113.318 44.0126 113.354 43.9223L113.372 43.8862C113.39 43.8501 113.39 43.832 113.408 43.7959C113.445 43.7418 113.463 43.6695 113.499 43.6154C113.517 43.5793 113.535 43.5612 113.553 43.5251C113.571 43.489 113.481 43.6334 113.517 43.5793L113.535 43.5432C113.571 43.489 113.607 43.4348 113.643 43.3626L113.697 43.2904L113.715 43.2543C113.751 43.2001 113.625 43.3626 113.679 43.3084L113.715 43.2543C113.788 43.164 113.625 43.3446 113.697 43.2543C113.733 43.2182 113.77 43.2001 113.806 43.164C113.842 43.1279 113.733 43.2182 113.77 43.2001L113.806 43.1821L113.878 43.1279C113.914 43.0918 113.968 43.0737 114.022 43.0376C114.076 43.0015 114.076 43.0015 114.095 43.0015C114.113 43.0015 114.058 43.0196 114.058 43.0196L114.113 43.0015C114.347 42.8932 114.582 42.821 114.835 42.7488C114.961 42.7126 115.069 42.6946 115.196 42.6585L115.304 42.6404H115.286H115.322L115.521 42.6043C115.756 42.5682 115.99 42.5502 116.225 42.5321C116.514 42.514 116.821 42.514 117.11 42.514H117.146C117.362 42.514 117.579 42.2252 117.651 42.0446C117.705 41.9363 117.814 41.5572 117.579 41.5572C116.839 41.5391 116.117 41.5933 115.394 41.7558C114.853 41.846 114.347 42.0446 113.896 42.3516C113.39 42.7488 113.011 43.2904 112.777 43.8862C112.506 44.5361 112.397 45.2222 112.433 45.9083C112.506 46.6846 112.74 47.4249 113.156 48.0748C113.517 48.7248 114.04 49.2845 114.654 49.6997C115.178 50.0247 115.737 50.2414 116.333 50.3497C116.803 50.44 117.29 50.4941 117.778 50.4941C118.03 50.5122 118.301 50.4761 118.554 50.44C118.572 50.44 118.572 50.44 118.59 50.44L118.482 50.3677C119.746 52.2815 121.425 53.8884 123.411 55.0619C125.541 56.3077 127.996 56.8854 130.452 56.6868C132.727 56.4882 134.893 55.5313 136.572 53.9786C137.421 53.2023 138.125 52.2635 138.649 51.2344C138.883 50.7469 139.1 50.2594 139.28 49.7539C139.497 49.2303 139.678 48.6887 139.822 48.129C139.985 47.5512 140.093 46.9735 140.147 46.3777C140.201 45.8 140.219 45.2403 140.219 44.6625C140.219 43.8862 140.219 43.1098 140.165 42.3516C140.021 40.185 139.299 38.1088 138.071 36.3033C137.385 35.2923 136.536 34.4076 135.561 33.6674C134.695 33.0174 133.72 32.4938 132.709 32.1147C131.698 31.7355 130.632 31.4828 129.549 31.3564C128.376 31.23 127.202 31.2842 126.047 31.5189C124.873 31.7536 123.736 32.1327 122.67 32.6744C121.641 33.1799 120.684 33.8479 119.854 34.6423C118.229 36.2491 117.055 38.4337 116.929 40.7267C116.893 41.2683 116.929 41.8099 117.001 42.3335C117.037 42.5682 117.29 42.4599 117.398 42.3516C117.525 42.2432 117.723 41.9544 117.687 41.7197Z" fill="white"/>
<path d="M127.473 44.7347C127.473 44.7167 127.473 44.6986 127.473 44.6806C127.473 44.6625 127.473 44.6445 127.473 44.6986C127.473 44.6625 127.491 44.6083 127.509 44.5722C127.527 44.5361 127.527 44.5361 127.491 44.6083C127.509 44.5903 127.509 44.5722 127.509 44.5542C127.563 44.4097 127.455 44.6264 127.509 44.5361C127.527 44.5 127.545 44.482 127.563 44.4459C127.617 44.3556 127.473 44.5542 127.563 44.4459L127.599 44.3917C127.545 44.4459 127.545 44.4639 127.581 44.4278L127.671 44.3375C127.744 44.2834 127.599 44.3917 127.689 44.3195L127.78 44.2653C127.816 44.2473 127.852 44.2292 127.888 44.2111C127.798 44.2473 127.924 44.1931 127.942 44.1931C128.014 44.175 128.087 44.157 128.159 44.1209C128.195 44.1209 128.195 44.1209 128.177 44.1209H128.231C128.267 44.1209 128.321 44.1209 128.357 44.1209C128.664 44.1209 128.971 44.2111 129.224 44.3917C129.35 44.482 129.459 44.5722 129.549 44.6986C129.603 44.7708 129.639 44.8431 129.675 44.9153C129.694 44.9514 129.712 44.9875 129.73 45.0417C129.73 45.0597 129.766 45.168 129.766 45.1139C129.784 45.1861 129.802 45.2583 129.91 45.2583C130.018 45.2403 130.109 45.2041 130.163 45.1319C130.271 45.0417 130.343 44.9153 130.398 44.7889C130.452 44.6806 130.488 44.5722 130.47 44.4459C130.307 43.8139 129.802 43.3265 129.152 43.182C128.448 43.0196 127.762 43.4168 127.328 43.9223C127.021 44.2834 126.823 44.7167 126.751 45.1861C126.733 45.2583 126.751 45.3666 126.823 45.4208C126.895 45.4569 126.985 45.4389 127.058 45.3847C127.274 45.2403 127.419 45.0055 127.473 44.7347Z" fill="white"/>
<path d="M115.25 44.4458C114.907 44.9694 114.798 45.6013 114.961 46.2152C115.105 46.6485 115.43 47.0096 115.864 47.1901C116.062 47.2804 116.279 47.0096 116.369 46.8651C116.441 46.7568 116.495 46.6304 116.514 46.504C116.514 46.4318 116.532 46.3054 116.441 46.2693C116.098 46.1249 115.827 45.8541 115.683 45.5111C115.647 45.4388 115.629 45.3666 115.611 45.2763C115.611 45.2222 115.593 45.168 115.593 45.1139C115.593 45.0958 115.593 45.0597 115.593 45.0416C115.593 45.0236 115.593 45.0958 115.593 45.0236C115.593 44.9514 115.611 44.9153 115.611 44.8611C115.611 44.8069 115.593 44.9333 115.611 44.8791C115.611 44.8611 115.629 44.843 115.629 44.8069C115.629 44.7708 115.647 44.7347 115.665 44.7167C115.647 44.7347 115.629 44.8069 115.665 44.7528C115.665 44.7347 115.719 44.6444 115.683 44.7167C115.647 44.7889 115.701 44.6986 115.701 44.6986C115.773 44.5903 115.827 44.4639 115.846 44.3375C115.846 44.2653 115.846 44.157 115.773 44.1028C115.593 44.0125 115.34 44.3375 115.25 44.4458Z" fill="white"/>
<path d="M141.537 30.5439C140.417 28.8468 138.287 27.9621 136.301 28.0163C136.066 28.0163 135.85 28.0343 135.615 28.0704C134.82 26.6261 133.322 25.6872 131.733 25.3262C130.018 24.9651 128.213 25.3081 126.75 26.283C126.064 26.7344 125.468 27.3302 125.017 28.0163C123.807 27.6732 122.525 27.7093 121.334 28.1246C120.016 28.6121 118.914 29.569 118.265 30.8147C118.012 31.2841 117.831 31.8077 117.759 32.3493C116.387 32.909 115.195 33.8659 114.365 35.0936C113.426 36.4477 113.119 38.1448 113.498 39.7517C113.733 40.6544 114.166 41.4849 114.78 42.171C114.924 42.3335 115.141 42.1529 115.249 42.0085C115.304 41.9363 115.358 41.8641 115.394 41.7918L117.019 41.9182C116.928 42.0807 116.892 42.2612 116.965 42.3696L116.983 42.3515C117.362 42.9473 117.958 43.3987 118.427 43.9403C118.481 43.9945 118.535 44.0667 118.571 44.1209C118.626 44.175 118.68 44.3014 118.752 44.3375C118.878 44.3556 118.987 44.3736 119.113 44.3556H119.438L120.846 44.3917C120.991 44.3736 121.117 44.2833 121.207 44.175C121.334 44.0306 121.406 43.8681 121.424 43.6876L121.875 39.1559C124.295 39.517 126.732 39.7156 129.169 39.7517C131.426 39.7878 133.719 39.7517 135.922 39.2823C137.818 38.8851 139.731 38.1087 140.995 36.5741C141.717 35.7075 142.169 34.6423 142.259 33.5048C142.385 32.4757 142.114 31.4286 141.537 30.5439Z" fill="white"/>
<path d="M129.007 51.8663C128.79 51.7399 128.501 51.7218 128.357 51.5413C128.213 51.3607 128.122 51.1441 127.978 50.9455C127.851 50.7469 127.617 50.6385 127.382 50.6385C127.147 50.6927 126.967 50.9094 126.967 51.1621C126.967 51.3968 127.039 51.6315 127.202 51.8301C127.599 52.3898 128.213 52.7329 128.881 52.787C129.097 52.8051 129.332 52.769 129.44 52.5884C129.549 52.3718 129.476 52.101 129.26 51.9746C129.061 51.8482 128.826 51.794 128.592 51.794" fill="white"/>
<path d="M129.296 51.4149C129.188 51.3608 129.062 51.3066 128.935 51.2705C128.881 51.2524 128.827 51.2163 128.773 51.1802C128.719 51.1441 128.665 51.0899 128.646 51.0358C128.466 50.783 128.358 50.4761 128.087 50.2955C127.329 49.7539 126.588 50.9455 126.642 51.6135C126.697 52.1913 127.22 52.7148 127.708 52.9857C128.195 53.2565 128.953 53.437 129.441 53.0398C129.784 52.751 130.055 52.1552 129.784 51.7399C129.585 51.4149 129.188 51.3608 128.845 51.3427C128.502 51.3246 128.033 52.2635 128.412 52.2996C128.646 52.2996 128.863 52.3538 129.062 52.4801C129.098 52.4982 129.116 52.5343 129.134 52.5524C129.152 52.5704 129.152 52.5885 129.17 52.6246C129.17 52.6426 129.188 52.6968 129.188 52.6426C129.188 52.6607 129.188 52.6787 129.188 52.6968V52.6607C129.188 52.6968 129.188 52.6968 129.188 52.6607C129.242 52.5343 129.296 52.426 129.387 52.3176L129.423 52.2815C129.387 52.2996 129.387 52.2996 129.423 52.2815L129.369 52.2996C129.278 52.3357 129.387 52.2996 129.333 52.2996C129.278 52.2996 129.242 52.2996 129.188 52.2996C129.08 52.2996 128.971 52.2815 128.845 52.2635C128.646 52.2274 128.448 52.1552 128.267 52.0468C127.852 51.8482 127.545 51.5052 127.365 51.0899C127.347 51.0538 127.347 51.0177 127.347 50.9636C127.347 50.9455 127.347 50.8733 127.347 50.9275C127.347 50.9094 127.347 50.8733 127.347 50.8733L127.329 50.9275C127.347 50.8913 127.347 50.8913 127.329 50.9275C127.31 50.9636 127.238 51.0899 127.292 50.9997C127.256 51.0358 127.238 51.0719 127.202 51.108C127.238 51.0719 127.238 51.0719 127.202 51.108C127.166 51.1441 127.166 51.1261 127.202 51.108C127.184 51.1441 127.166 51.1261 127.202 51.108C127.238 51.0899 127.148 51.108 127.238 51.108C127.274 51.108 127.31 51.108 127.329 51.1261C127.437 51.1622 127.545 51.2344 127.617 51.3246C127.798 51.5413 127.888 51.8121 128.087 52.0107C128.249 52.1732 128.502 52.2093 128.701 52.3176C128.899 52.426 129.116 52.1371 129.206 51.9927C129.278 51.8843 129.333 51.758 129.351 51.6316C129.351 51.5594 129.369 51.451 129.278 51.3969L129.296 51.4149Z" fill="white"/>
<path d="M135.976 44.2472C135.922 44.2291 135.868 44.193 135.814 44.1389L135.868 44.193C135.814 44.1389 135.778 44.0666 135.759 43.9944L135.778 44.0666C135.759 44.0125 135.759 43.9583 135.759 43.9041V43.9944C135.759 43.9583 135.759 43.9222 135.778 43.8861L135.759 43.9944C135.759 43.9764 135.778 43.9403 135.778 43.9222L135.723 44.0486C135.723 44.0305 135.741 44.0125 135.759 43.9944L135.687 44.1208C135.687 44.1027 135.705 44.0847 135.723 44.0847L135.633 44.2111L135.669 44.175L135.579 44.2652C135.597 44.2472 135.615 44.2291 135.633 44.2291L135.543 44.3013C135.561 44.2833 135.579 44.2652 135.597 44.2652L135.507 44.3013C135.543 44.2833 135.579 44.2652 135.615 44.2652L135.543 44.2833C135.615 44.2652 135.687 44.2833 135.759 44.3013L135.687 44.2833C135.778 44.3194 135.868 44.3736 135.94 44.4458L135.886 44.3916C135.94 44.4458 135.958 44.4999 135.994 44.5722L135.976 44.4999C135.994 44.5361 135.994 44.5722 135.994 44.6083V44.518C135.994 44.5541 135.994 44.5722 135.976 44.6083L135.994 44.4999C135.994 44.518 135.976 44.5541 135.976 44.5722L136.03 44.4458C136.03 44.4638 136.012 44.4819 135.994 44.4999L136.066 44.3736C136.048 44.3916 136.048 44.4097 136.03 44.4277L136.121 44.3013L136.084 44.3555L136.175 44.2652C136.157 44.2833 136.139 44.3013 136.121 44.3194L136.211 44.2472C136.193 44.2652 136.157 44.2833 136.139 44.3013L136.229 44.2652C136.193 44.2833 136.139 44.3013 136.103 44.3013L136.175 44.2833C136.103 44.3013 136.012 44.3013 135.94 44.2652L136.012 44.2833C135.922 44.2472 135.832 44.2111 135.759 44.1389L135.814 44.193C135.796 44.175 135.778 44.1569 135.778 44.1389C135.741 44.0666 135.651 44.0486 135.579 44.0847C135.471 44.1389 135.38 44.2111 135.308 44.3013C135.218 44.4097 135.146 44.5361 135.11 44.6624L135.091 44.7708C135.073 44.8249 135.091 44.8971 135.11 44.9513C135.326 45.2582 135.759 45.3485 136.084 45.1319C136.211 45.0596 136.319 44.9513 136.409 44.843C136.518 44.7166 136.608 44.5541 136.662 44.3916C136.752 44.175 136.771 43.9403 136.698 43.7056C136.68 43.6514 136.626 43.5972 136.59 43.5431C136.554 43.4889 136.5 43.4528 136.446 43.4167C136.337 43.3445 136.193 43.3083 136.066 43.3083C135.868 43.3264 135.687 43.4167 135.543 43.5611C135.326 43.7778 135.164 44.0666 135.11 44.3736C135.073 44.5541 135.091 44.7166 135.164 44.8791C135.218 45.0055 135.326 45.1138 135.453 45.168C135.543 45.2041 135.633 45.186 135.705 45.1138C135.814 45.0416 135.904 44.9333 135.976 44.8249C136.048 44.7166 136.103 44.5902 136.121 44.4638C136.066 44.4097 136.066 44.2833 135.976 44.2472Z" fill="white"/>
<path d="M132.384 46.3236L133.919 48.7609C133.973 48.8512 134.027 48.9415 134.081 49.0498C134.099 49.0859 134.117 49.122 134.117 49.1401C134.117 49.1581 134.117 49.1942 134.117 49.2123C134.099 49.1581 134.117 49.0859 134.153 49.0498C134.171 48.9956 134.207 48.9595 134.244 48.9053C134.298 48.8512 134.298 48.8331 134.262 48.8692C134.352 48.779 134.244 48.8692 134.225 48.8873L134.171 48.9234L134.009 48.9956L132.727 49.6095C132.492 49.7358 132.33 49.9344 132.258 50.1872C132.221 50.2775 132.221 50.3858 132.258 50.4761C132.294 50.5483 132.384 50.5664 132.456 50.5302L133.594 49.9886C133.774 49.8983 133.973 49.8261 134.135 49.7178C134.388 49.5734 134.587 49.3386 134.713 49.0859C134.839 48.8512 134.857 48.5804 134.785 48.3276C134.713 48.1471 134.605 47.9846 134.496 47.8221L133.81 46.7388L133.034 45.5111C132.835 45.1861 132.185 46.0347 132.384 46.3236Z" fill="white"/>
<path d="M143 37.4407C138.522 38.3795 135.019 41.7196 132.871 45.6013C130.704 49.5553 130.163 54.1772 131.336 58.5103C132.077 61.2184 133.232 64.396 135.056 66.5084C137.619 69.5054 140.58 71.3109 145.22 71.8706C149.138 72.34 153.345 71.69 156.288 69.0721C158.851 66.7973 160.26 63.4933 161.018 60.1532C161.866 56.3437 161.939 52.2995 160.837 48.5442C159.736 44.7889 157.407 41.3585 154.121 39.2462C150.835 37.1338 146.52 36.1227 142.855 37.4949" fill="#88EFD7"/>
<path d="M143.614 39.517C140.815 40.1128 138.396 41.828 136.572 43.9945C134.55 46.3597 133.25 49.2303 132.817 52.3176C132.6 53.8884 132.636 55.4772 132.925 57.0479C133.07 57.8062 133.268 58.5464 133.503 59.2686C133.72 59.9908 133.973 60.6949 134.243 61.399C134.785 62.7712 135.471 64.1072 136.446 65.2266C137.258 66.1835 138.179 67.032 139.208 67.7361C141.483 69.2708 144.3 69.9027 147.026 69.9027C149.969 69.9207 152.966 69.0902 155.132 66.9959C157.407 64.7933 158.617 61.7601 159.249 58.727C159.935 55.4049 159.917 51.8843 158.87 48.6345C157.985 45.9083 156.342 43.3987 154.049 41.6655C152.857 40.7628 151.503 40.0587 150.077 39.6073C148.651 39.1379 147.116 38.9573 145.618 39.1018C144.895 39.174 144.173 39.3365 143.487 39.5892C143.252 39.6976 143.09 39.9142 143.018 40.167C142.982 40.3114 142.982 40.6003 143.216 40.51C145.979 39.4809 149.102 40.0767 151.666 41.4127C154.157 42.7488 156.143 44.8431 157.371 47.3888C158.761 50.2053 159.213 53.419 158.942 56.5424C158.815 58.0951 158.509 59.6297 158.057 61.1102C158.003 61.2726 157.949 61.4351 157.895 61.6157C157.859 61.706 157.841 61.7962 157.804 61.8865C157.786 61.9226 157.768 61.9587 157.768 61.9948C157.768 62.0309 157.696 62.1754 157.732 62.067C157.606 62.4101 157.461 62.7531 157.299 63.0781C157.227 63.2406 157.154 63.4031 157.064 63.5475L156.956 63.7642C156.884 63.9086 157.01 63.6739 156.938 63.8003L156.848 63.9628C156.667 64.2697 156.486 64.5947 156.27 64.8835L156.216 64.9558C156.125 65.0821 156.288 64.8655 156.198 64.9919C156.143 65.0641 156.089 65.1363 156.035 65.2085C155.927 65.353 155.8 65.4974 155.674 65.6418C155.62 65.696 155.566 65.7682 155.53 65.8224L155.439 65.9307L155.385 65.9849C155.439 65.9307 155.331 66.039 155.331 66.039L155.223 66.1474L155.024 66.346C154.898 66.4723 154.771 66.5807 154.645 66.689L154.428 66.8695C154.482 66.8154 154.374 66.9056 154.374 66.9056L154.266 66.9959C153.977 67.1945 153.688 67.3931 153.381 67.5737C152.171 68.2417 150.835 68.6569 149.481 68.8194C148.055 69 146.611 68.9819 145.184 68.7653C143.866 68.5847 142.603 68.2236 141.393 67.7C140.292 67.1945 139.281 66.5084 138.378 65.696C137.403 64.8294 136.572 63.8003 135.922 62.6809C135.218 61.381 134.641 60.0088 134.225 58.5825C133.774 57.1743 133.503 55.7299 133.431 54.2495C133.377 52.769 133.575 51.2885 133.973 49.8622C134.171 49.1401 134.424 48.454 134.749 47.786C134.821 47.6235 134.911 47.461 134.984 47.2985L135.056 47.1721C135.056 47.1541 135.074 47.136 135.092 47.118C135.128 47.0457 135.182 46.9555 135.218 46.8832C135.381 46.5944 135.561 46.3055 135.742 46.0166C135.832 45.8722 135.922 45.7458 136.013 45.6194L136.139 45.4389L136.157 45.4208L136.265 45.2764C136.464 45.0056 136.663 44.7528 136.879 44.5001C136.988 44.3737 137.096 44.2473 137.204 44.139L137.367 43.9584L137.403 43.9223L137.493 43.832C137.728 43.5973 137.981 43.3626 138.215 43.1279C138.342 43.0196 138.45 42.9113 138.576 42.821L138.775 42.6585L138.847 42.6043C138.793 42.6585 138.919 42.5502 138.919 42.5502C139.19 42.3516 139.461 42.153 139.75 41.9724C140.292 41.6113 140.887 41.3225 141.483 41.0697C142.079 40.8169 142.711 40.6364 143.343 40.492C143.451 40.4559 143.541 40.3656 143.614 40.2753C143.704 40.167 143.776 40.0406 143.812 39.9142C143.848 39.6795 143.83 39.4629 143.614 39.517Z" fill="white"/>
<path d="M155.999 54.6827C155.981 51.4871 156.035 48.2915 155.8 45.1139C155.764 44.6625 155.728 44.2112 155.674 43.7598C155.656 43.6515 155.656 43.5251 155.638 43.4168C155.638 43.2904 155.62 43.164 155.584 43.0557C155.511 42.9654 155.439 42.8932 155.349 42.821C155.259 42.7307 155.186 42.6404 155.096 42.5682C154.482 41.9905 153.814 41.4669 153.11 41.0155C151.756 40.167 150.257 39.5712 148.705 39.2642C146.972 38.9031 145.166 39.0115 143.505 39.5892L143.234 40.528L143.361 40.4739C143.595 40.3656 143.758 40.1489 143.83 39.8961C143.884 39.7156 143.866 39.4989 143.631 39.5531C141.7 39.9864 139.912 40.8891 138.414 42.1891C136.897 43.489 135.633 45.0417 134.658 46.7929C133.557 48.7789 132.889 50.9816 132.709 53.2384C132.618 54.3397 132.654 55.4591 132.817 56.5604C132.979 57.6076 133.25 58.6547 133.575 59.6658C134.189 61.6157 135.001 63.6197 136.356 65.2085C137.475 66.5626 138.847 67.682 140.4 68.4944C142.151 69.3791 144.119 69.7943 146.051 69.9207C148.181 70.0471 150.384 69.7943 152.334 68.9097C152.839 68.693 153.309 68.4222 153.76 68.1153C154.121 67.8806 154.193 67.4834 154.302 67.1042C154.374 66.8515 154.446 66.6168 154.5 66.364C154.771 65.3349 155.006 64.3058 155.204 63.2586C155.62 61.056 155.854 58.8172 155.927 56.5785C155.981 55.9105 155.981 55.2966 155.999 54.6827C155.981 54.43 155.692 54.5744 155.584 54.6647C155.385 54.8452 155.277 55.08 155.277 55.3508C155.295 57.1021 155.204 58.8353 155.006 60.5685C154.916 61.381 154.807 62.1934 154.663 62.9878C154.591 63.367 154.518 63.7461 154.446 64.1252C154.374 64.5044 154.302 64.8294 154.211 65.2266C154.013 66.0571 153.796 66.8876 153.543 67.7181L153.923 67.1764C152.55 68.0611 150.98 68.6208 149.355 68.8013C147.694 68.9999 145.997 68.9277 144.354 68.6027C142.945 68.35 141.573 67.8445 140.328 67.1223C139.154 66.4182 138.107 65.5335 137.222 64.5044C136.157 63.2947 135.399 61.8323 134.821 60.3338C134.189 58.8172 133.756 57.2104 133.521 55.5855C133.413 54.755 133.377 53.9064 133.413 53.0578C133.431 52.6245 133.467 52.1912 133.539 51.7579C133.575 51.5413 133.593 51.3427 133.629 51.1441C133.665 50.9455 133.702 50.7649 133.738 50.5663C133.828 50.1511 133.954 49.7178 134.081 49.3206C134.153 49.122 134.207 48.9234 134.279 48.7248C134.279 48.7248 134.315 48.6526 134.297 48.6887L134.315 48.6345C134.333 48.5984 134.351 48.5442 134.37 48.4901C134.406 48.3998 134.442 48.2915 134.496 48.1831C134.586 47.9845 134.676 47.7859 134.767 47.5873C134.803 47.4971 134.857 47.4068 134.893 47.3165L134.965 47.1901C134.983 47.154 135.001 47.136 135.001 47.0999C135.001 47.0638 135.038 47.0457 135.001 47.0999C135.182 46.7749 135.381 46.4499 135.579 46.1249C135.688 45.9624 135.796 45.7999 135.904 45.6375C135.958 45.5652 136.012 45.493 136.049 45.4208L136.085 45.3666C136.012 45.4569 136.067 45.4028 136.085 45.3666L136.175 45.2403C136.392 44.9333 136.626 44.6445 136.879 44.3556C137.005 44.2112 137.132 44.0667 137.258 43.9223C137.276 43.9042 137.349 43.832 137.294 43.8862L137.385 43.7959L137.601 43.5792C137.872 43.3084 138.143 43.0557 138.432 42.821L138.648 42.6404L138.757 42.5501L138.811 42.514C138.865 42.4599 138.757 42.5501 138.829 42.514C138.973 42.3877 139.136 42.2793 139.28 42.171C139.587 41.9543 139.894 41.7557 140.219 41.5752C140.869 41.1961 141.555 40.9072 142.259 40.6725C142.62 40.5642 142.982 40.4558 143.343 40.3836L143.613 39.4448L143.487 39.4989C143.252 39.6073 143.09 39.8239 143.018 40.0767C142.982 40.2211 142.982 40.51 143.216 40.4197C144.769 39.8781 146.43 39.7517 148.055 40.0767C149.68 40.3836 151.25 40.9975 152.641 41.9002C153.489 42.4418 154.284 43.0918 154.97 43.832L154.897 43.7056C155.241 46.8291 155.295 49.9705 155.277 53.094C155.277 53.8161 155.277 54.5383 155.277 55.2605C155.277 55.5133 155.584 55.3688 155.674 55.2786C155.872 55.1702 155.981 54.9355 155.999 54.6827Z" fill="white"/>
<path d="M143.867 52.9134C142.657 52.462 142.386 50.5483 143.433 49.79C144.48 49.0317 146.214 49.8441 146.304 51.126C146.322 51.9746 145.78 52.7509 144.968 53.0037C144.155 53.2203 143.271 52.9134 142.783 52.2273" fill="white"/>
<path d="M144.155 52.4621C143.993 52.4079 143.848 52.3176 143.704 52.1912C143.668 52.1551 143.65 52.1371 143.614 52.101C143.614 52.101 143.56 52.0468 143.578 52.0649C143.596 52.0829 143.56 52.0288 143.56 52.0288C143.505 51.9565 143.451 51.8843 143.397 51.8121C143.361 51.7399 143.307 51.6677 143.289 51.5954C143.271 51.5593 143.253 51.5232 143.235 51.4871L143.217 51.433C143.217 51.4149 143.217 51.3968 143.199 51.3788C143.199 51.4149 143.217 51.4149 143.199 51.3968C143.144 51.2344 143.126 51.0538 143.126 50.8913C143.126 50.8733 143.126 50.8552 143.126 50.8372C143.126 50.8011 143.126 50.7469 143.126 50.7108C143.126 50.6747 143.144 50.6205 143.144 50.5844C143.144 50.5663 143.162 50.4941 143.144 50.5663C143.126 50.6386 143.144 50.5483 143.162 50.5302C143.18 50.5122 143.18 50.458 143.199 50.4039C143.217 50.3316 143.18 50.458 143.18 50.458L143.217 50.3858C143.235 50.3316 143.325 50.2053 143.217 50.3858C143.235 50.3677 143.271 50.2594 143.289 50.2594C143.307 50.2594 143.199 50.3858 143.253 50.3136L143.289 50.2594C143.307 50.2414 143.325 50.2233 143.325 50.2053C143.253 50.3136 143.271 50.2594 143.289 50.2414C143.307 50.2233 143.361 50.1872 143.379 50.1511C143.397 50.115 143.289 50.2233 143.361 50.1691L143.433 50.133C143.451 50.115 143.524 50.0608 143.542 50.0608L143.505 50.0789L143.56 50.0608L143.614 50.0428C143.704 50.0067 143.794 49.9886 143.885 49.9525C143.957 49.9344 143.848 49.9525 143.903 49.9525H143.957C143.993 49.9525 144.047 49.9525 144.083 49.9525C144.173 49.9525 144.264 49.9525 144.372 49.9705C144.462 49.9886 144.553 49.9886 144.625 50.0247L144.679 50.0428L144.715 50.0608C144.751 50.0789 144.805 50.0969 144.86 50.115C145.022 50.1872 145.185 50.2775 145.329 50.3858C145.401 50.44 145.473 50.4941 145.528 50.5483C145.546 50.5663 145.618 50.6386 145.582 50.6024C145.618 50.6386 145.654 50.6747 145.672 50.7288C145.78 50.8733 145.853 51.0358 145.907 51.1982C145.925 51.2524 145.889 51.126 145.907 51.1982C145.907 51.2163 145.907 51.2344 145.925 51.2524C145.943 51.2885 145.943 51.3427 145.943 51.3788C145.943 51.433 145.943 51.4691 145.943 51.5232C145.943 51.5774 145.943 51.433 145.943 51.5413C145.943 51.5774 145.943 51.5954 145.943 51.6316C145.943 51.6677 145.943 51.6857 145.925 51.7218C145.907 51.8121 145.925 51.7038 145.925 51.7038C145.925 51.7579 145.907 51.8121 145.889 51.8482L145.871 51.8843C145.853 51.9385 145.853 51.9204 145.889 51.8482C145.871 51.8663 145.871 51.8843 145.871 51.9024C145.853 51.9385 145.834 51.9565 145.834 51.9926C145.798 52.0829 145.907 51.8843 145.834 51.9746C145.798 52.0107 145.78 52.0649 145.744 52.119C145.816 51.9926 145.798 52.0468 145.762 52.0829C145.726 52.119 145.726 52.119 145.708 52.1371C145.69 52.1551 145.636 52.2274 145.69 52.1551C145.744 52.0829 145.672 52.1551 145.672 52.1732L145.618 52.2093C145.6 52.2274 145.509 52.3357 145.582 52.2454C145.546 52.2815 145.491 52.3176 145.437 52.3357L145.365 52.3718C145.347 52.3898 145.275 52.4079 145.347 52.3898C145.239 52.444 145.112 52.4801 144.986 52.5162L144.932 52.5343C144.986 52.5343 144.86 52.5343 144.86 52.5343C144.805 52.5343 144.733 52.5343 144.679 52.5343C144.553 52.5343 144.444 52.5162 144.318 52.4982C143.848 52.4079 143.415 52.1371 143.126 51.7399C143 51.5593 142.747 51.776 142.657 51.8843C142.567 51.9926 142.494 52.119 142.458 52.2454C142.44 52.3357 142.404 52.4621 142.458 52.5343C142.765 52.9676 143.235 53.2745 143.74 53.4009C144.264 53.5273 144.805 53.437 145.275 53.1842C145.816 52.8593 146.25 52.3537 146.466 51.776C146.936 50.783 146.521 49.6095 145.546 49.122C145.221 48.9775 144.878 48.9053 144.535 48.9234C143.451 48.9775 142.675 49.9525 142.494 50.9635C142.35 51.8482 142.711 52.9315 143.614 53.2926C143.812 53.3648 144.029 53.112 144.119 52.9676C144.192 52.8593 144.246 52.7329 144.264 52.6065C144.228 52.6246 144.246 52.4982 144.155 52.4621Z" fill="white"/>
<path d="M145.726 72.7011L147.044 76.7814C147.062 76.8536 147.188 76.8536 147.243 76.8356C147.351 76.7995 147.441 76.7092 147.513 76.6189C147.658 76.4384 147.784 76.1856 147.712 75.9509L146.394 71.8706C146.358 71.7984 146.25 71.7984 146.195 71.8164C146.087 71.8706 145.997 71.9428 145.925 72.0331C145.78 72.2136 145.654 72.4664 145.726 72.7011Z" fill="white"/>
<path d="M151.684 71.9247L150.366 76.2578C150.33 76.4022 150.33 76.6911 150.565 76.6008C150.799 76.4744 150.962 76.2758 151.034 76.0231L152.352 71.69C152.388 71.5456 152.388 71.2567 152.154 71.347C151.919 71.4553 151.756 71.6719 151.684 71.9247Z" fill="white"/>
<path d="M149.499 76.4203C150.149 87.4696 151.214 107.907 151.864 118.957Z" fill="#88EFD7"/>
<path d="M147.17 78.5507C147.315 81.0242 147.459 83.4796 147.586 85.9531C147.748 88.8598 147.91 91.7666 148.073 94.6734L148.578 103.863C148.741 106.806 148.903 109.749 149.066 112.674C149.21 115.201 149.355 117.729 149.499 120.257C149.517 120.527 149.535 120.798 149.553 121.069C149.553 121.575 149.951 121.99 150.456 122.044C150.745 122.044 151.034 121.972 151.269 121.809C151.594 121.665 151.901 121.466 152.153 121.195C152.821 120.563 153.363 119.823 153.724 118.993C154.031 118.289 154.248 117.584 154.193 116.808C154.049 114.335 153.905 111.879 153.778 109.406C153.616 106.499 153.453 103.592 153.291 100.686C153.128 97.6162 152.948 94.565 152.785 91.4958C152.623 88.5529 152.46 85.61 152.298 82.6852C152.153 80.1576 152.009 77.63 151.864 75.1023L151.81 74.2899C151.81 73.7844 151.413 73.3691 150.908 73.3149C150.619 73.3149 150.33 73.3872 150.095 73.5496C149.77 73.6941 149.463 73.8927 149.21 74.1635C148.542 74.7954 148.001 75.5356 147.622 76.3661C147.333 77.0703 147.134 77.7924 147.17 78.5507Z" fill="#88EFD7"/>
<path d="M166.181 81.8366C163.6 81.7825 161.036 81.8547 158.454 82.0533C155.89 82.2519 153.345 82.5769 150.817 83.0463C148.452 83.4615 146.015 83.9129 143.884 85.0864C142.006 86.1155 140.363 87.8488 139.822 89.9792C139.352 91.7846 139.822 93.9151 141.338 95.0886C141.519 95.233 141.699 95.3414 141.898 95.4497C142.097 95.558 142.313 95.2692 142.404 95.1247C142.494 94.9803 142.674 94.6192 142.476 94.5289C141.718 94.1317 141.104 93.4818 140.761 92.6874C140.58 92.3082 140.454 91.893 140.4 91.4597C140.363 91.243 140.345 91.0083 140.345 90.7736C140.345 90.7555 140.345 90.7194 140.345 90.7014C140.345 90.7736 140.345 90.7014 140.345 90.7014C140.345 90.6472 140.345 90.575 140.345 90.5208C140.345 90.4125 140.363 90.3042 140.382 90.1958C140.4 90.0875 140.418 89.9792 140.436 89.8709C140.418 89.9611 140.436 89.8889 140.436 89.8528C140.436 89.8167 140.454 89.7986 140.454 89.7625C140.472 89.7084 140.49 89.6362 140.508 89.582C140.544 89.4737 140.58 89.3653 140.616 89.239C140.616 89.2209 140.634 89.1487 140.616 89.257C140.616 89.239 140.634 89.2028 140.652 89.1848L140.725 89.0042C140.779 88.8959 140.833 88.7876 140.869 88.6793C140.869 88.6793 140.923 88.5529 140.887 88.6432C140.851 88.7334 140.905 88.607 140.905 88.607C140.941 88.5529 140.977 88.4987 141.013 88.4446C141.068 88.3362 141.14 88.246 141.212 88.1557L141.248 88.0835C141.302 87.9932 141.248 88.0835 141.23 88.1015C141.266 88.0474 141.32 87.9751 141.356 87.921C141.429 87.8307 141.501 87.7404 141.573 87.6682L141.7 87.5238L141.754 87.4696C141.844 87.3613 141.681 87.5418 141.772 87.4516C141.934 87.271 142.115 87.1085 142.295 86.946C142.386 86.8738 142.476 86.8016 142.548 86.7294C142.62 86.6572 142.512 86.7655 142.566 86.7113L142.638 86.6572L142.801 86.5308C142.999 86.3863 143.198 86.26 143.415 86.1336C145.365 84.96 147.712 84.5087 149.95 84.0934C152.406 83.6421 154.861 83.299 157.353 83.0824C159.844 82.8657 162.336 82.7755 164.827 82.7935L165.73 82.8116C165.965 82.8116 166.163 82.5227 166.235 82.3422C166.29 82.2338 166.416 81.8547 166.181 81.8366Z" fill="white"/>
<path d="M157.786 89.6903C155.944 89.6723 154.103 89.8348 152.297 90.1958C150.51 90.5569 148.759 91.0986 147.08 91.8207C146.249 92.1818 145.419 92.579 144.642 93.0304C143.884 93.4637 143.18 93.9692 142.53 94.565C141.23 95.8108 140.237 97.5982 140.436 99.4397C140.58 100.92 141.717 102.328 143.252 102.527C143.433 102.545 143.595 102.563 143.776 102.545C144.01 102.527 144.191 102.274 144.281 102.076C144.317 101.985 144.444 101.57 144.209 101.588C143.523 101.624 142.855 101.408 142.331 100.974C142.078 100.758 141.844 100.523 141.663 100.234C141.573 100.09 141.483 99.9453 141.41 99.7828C141.374 99.7106 141.338 99.6203 141.302 99.5481C141.284 99.512 141.266 99.4758 141.266 99.4217C141.266 99.4036 141.248 99.3856 141.248 99.3675C141.248 99.4036 141.248 99.3675 141.248 99.3495C141.194 99.1509 141.158 98.9523 141.14 98.7717C141.14 98.6814 141.122 98.5912 141.122 98.5009C141.122 98.4828 141.122 98.3565 141.122 98.4106C141.122 98.3565 141.122 98.3023 141.122 98.2481C141.14 98.0495 141.158 97.8509 141.194 97.6523C141.176 97.7426 141.194 97.6343 141.212 97.5982C141.23 97.5621 141.23 97.5079 141.248 97.4537C141.284 97.3454 141.302 97.2551 141.338 97.1468C141.356 97.1107 141.392 96.9663 141.356 97.0926C141.374 97.0565 141.392 97.0204 141.41 96.9663C141.447 96.876 141.501 96.7677 141.537 96.6774L141.609 96.551C141.627 96.533 141.627 96.5149 141.645 96.4788C141.645 96.4969 141.573 96.5871 141.627 96.5149C141.681 96.4427 141.735 96.3344 141.772 96.2621C141.808 96.1899 141.88 96.0997 141.934 96.0094C141.934 96.0274 141.862 96.1177 141.916 96.0455L141.952 95.9913C141.988 95.9552 142.024 95.9011 142.06 95.8649C142.115 95.7927 142.187 95.7205 142.241 95.6483L142.349 95.54C142.367 95.5219 142.422 95.4677 142.331 95.558L142.403 95.4858C142.548 95.3414 142.692 95.1969 142.837 95.0705C142.909 94.9983 142.981 94.9442 143.071 94.872C143.108 94.8358 143.144 94.8178 143.18 94.7817C143.252 94.7275 143.18 94.7817 143.18 94.7817L143.27 94.7095C143.595 94.4747 143.938 94.24 144.281 94.0234C144.985 93.6081 145.725 93.229 146.484 92.886C148.091 92.1638 149.77 91.6041 151.503 91.2249C153.2 90.8458 154.951 90.6472 156.685 90.6292H157.335C157.569 90.6292 157.768 90.3403 157.84 90.1597C157.894 90.0695 158.021 89.6903 157.786 89.6903Z" fill="white"/>
<path d="M157.66 97.4537C155.945 97.544 154.248 97.7607 152.569 98.1218C150.908 98.4828 149.301 98.9884 147.73 99.6203C146.213 100.234 144.715 100.974 143.632 102.22C143.072 102.852 142.657 103.592 142.404 104.405C142.187 105.073 142.169 105.813 142.332 106.499C142.512 107.131 142.801 107.709 143.216 108.214C143.577 108.684 144.047 109.153 144.625 109.352C144.751 109.406 144.895 109.442 145.04 109.46C145.13 109.478 145.238 109.388 145.293 109.334C145.401 109.243 145.473 109.117 145.527 108.991C145.582 108.864 145.69 108.539 145.455 108.503C145.347 108.485 145.238 108.467 145.13 108.431C145.004 108.377 144.877 108.323 144.769 108.25C144.516 108.106 144.3 107.925 144.101 107.709C143.686 107.275 143.361 106.752 143.144 106.192C143.036 105.957 142.964 105.705 142.928 105.452C142.909 105.398 142.909 105.325 142.909 105.271C142.909 105.217 142.909 105.181 142.909 105.145V105.073C142.909 105.001 142.909 105.163 142.909 105.037C142.909 104.874 142.928 104.694 142.964 104.531C142.964 104.513 143 104.369 142.964 104.477C142.982 104.441 142.982 104.405 142.982 104.369C143 104.278 143.036 104.188 143.054 104.098C143.072 104.062 143.072 104.026 143.09 103.989C143.108 103.953 143.108 103.935 143.108 103.917C143.108 103.899 143.072 104.008 143.09 103.953C143.126 103.863 143.162 103.791 143.198 103.701L143.271 103.574L143.289 103.52C143.325 103.466 143.253 103.574 143.271 103.556C143.325 103.466 143.361 103.394 143.415 103.303C143.469 103.213 143.505 103.159 143.559 103.087C143.614 103.015 143.505 103.159 143.559 103.087L143.65 102.96C143.704 102.888 143.758 102.834 143.812 102.762L143.902 102.653L143.939 102.617C144.065 102.491 144.191 102.365 144.336 102.238C144.39 102.184 144.462 102.13 144.534 102.076C144.607 102.022 144.552 102.058 144.534 102.076C144.552 102.058 144.57 102.04 144.589 102.022L144.715 101.931C144.859 101.823 145.022 101.715 145.184 101.624C145.798 101.245 146.466 100.92 147.134 100.649C148.633 100.017 150.185 99.5119 151.774 99.1509C153.345 98.7717 154.952 98.537 156.559 98.4287C156.757 98.4106 156.974 98.4106 157.173 98.3926C157.407 98.3745 157.588 98.1037 157.678 97.9232C157.75 97.8509 157.895 97.4537 157.66 97.4537Z" fill="white"/>
<path d="M159.141 104.495C157.588 104.802 156.053 105.127 154.519 105.524C152.984 105.903 151.467 106.337 149.969 106.806C148.669 107.203 147.351 107.6 146.141 108.214C145.004 108.792 143.975 109.641 143.433 110.832C142.892 112.06 142.964 113.468 143.632 114.624C144.264 115.779 145.365 116.591 146.575 117.079C147.225 117.332 147.875 117.512 148.561 117.639C149.265 117.765 149.969 117.837 150.673 117.819C151.395 117.801 152.117 117.657 152.785 117.35C153.417 117.043 153.959 116.591 154.374 116.032C154.826 115.436 155.096 114.714 155.114 113.956C155.114 113.342 154.898 112.764 154.519 112.295C154.14 111.807 153.616 111.446 153.02 111.247C152.298 111.031 151.54 110.995 150.817 111.139C150.474 111.211 150.113 111.302 149.788 111.446C149.554 111.554 149.391 111.771 149.319 112.024C149.283 112.168 149.283 112.457 149.518 112.367C150.727 111.897 152.154 111.789 153.273 112.565C153.742 112.872 154.103 113.324 154.302 113.847L154.338 113.937C154.338 113.956 154.338 113.974 154.356 113.974C154.374 114.046 154.392 114.118 154.41 114.19C154.428 114.262 154.428 114.317 154.428 114.389C154.428 114.461 154.428 114.461 154.428 114.497V114.551C154.428 114.605 154.428 114.497 154.428 114.551C154.428 114.605 154.428 114.678 154.41 114.75C154.392 114.822 154.41 114.822 154.392 114.858C154.374 114.894 154.392 114.894 154.392 114.912C154.374 114.967 154.41 114.84 154.392 114.894C154.374 114.949 154.356 115.021 154.338 115.075C154.338 115.111 154.32 115.129 154.302 115.165C154.284 115.237 154.338 115.075 154.32 115.129C154.32 115.147 154.302 115.165 154.302 115.183C154.284 115.237 154.248 115.31 154.212 115.364C154.212 115.382 154.194 115.4 154.194 115.4C154.194 115.4 154.248 115.292 154.23 115.346L154.158 115.454L154.103 115.544L154.067 115.58C154.067 115.58 154.14 115.472 154.103 115.526C154.067 115.58 154.013 115.635 153.977 115.707C153.941 115.779 153.923 115.761 153.905 115.797C153.887 115.833 153.941 115.761 153.941 115.761C153.923 115.779 153.923 115.779 153.905 115.797C153.851 115.851 153.796 115.905 153.742 115.942L153.652 116.014C153.634 116.032 153.562 116.086 153.616 116.05C153.67 116.014 153.58 116.068 153.562 116.086L153.472 116.158C153.345 116.248 153.219 116.321 153.092 116.375C153.147 116.339 153.092 116.375 153.056 116.393L152.93 116.447C152.858 116.483 152.767 116.519 152.695 116.537C152.388 116.646 152.063 116.718 151.738 116.772C151.052 116.844 150.348 116.826 149.662 116.736C149.03 116.664 148.416 116.537 147.802 116.339C146.629 115.978 145.455 115.328 144.715 114.335C144.535 114.1 144.39 113.847 144.264 113.594C144.192 113.468 144.137 113.324 144.083 113.179C144.065 113.107 144.029 113.035 144.011 112.963C144.011 112.944 143.993 112.89 143.993 112.89C143.993 112.89 143.975 112.818 143.975 112.8C143.903 112.511 143.867 112.222 143.848 111.933C143.848 111.897 143.848 111.861 143.848 111.825C143.848 111.897 143.848 111.789 143.848 111.771C143.848 111.699 143.848 111.627 143.867 111.554C143.867 111.482 143.885 111.428 143.903 111.356C143.903 111.338 143.921 111.211 143.921 111.283C143.921 111.356 143.939 111.229 143.939 111.211C143.957 111.139 143.975 111.085 143.993 111.013L144.029 110.904C144.047 110.85 144.011 110.958 144.011 110.958C144.011 110.958 144.029 110.922 144.029 110.904C144.047 110.85 144.083 110.796 144.101 110.724L144.155 110.633C144.192 110.579 144.119 110.688 144.119 110.688L144.155 110.633C144.192 110.579 144.21 110.525 144.246 110.471L144.3 110.399L144.336 110.345C144.336 110.363 144.264 110.453 144.3 110.381C144.372 110.272 144.462 110.164 144.553 110.074C144.607 110.002 144.48 110.146 144.553 110.074C144.571 110.056 144.589 110.038 144.625 110.002C144.679 109.947 144.733 109.893 144.787 109.857C144.841 109.821 144.878 109.767 144.932 109.731L145.004 109.677C145.004 109.677 145.058 109.641 145.004 109.677L145.022 109.659C145.239 109.496 145.473 109.334 145.726 109.207C145.78 109.171 145.853 109.135 145.907 109.099L145.997 109.045L146.033 109.027C146.033 109.027 146.105 108.991 146.069 109.009L146.123 108.972L146.232 108.918L146.43 108.828C146.701 108.702 146.954 108.593 147.225 108.503C147.839 108.268 148.488 108.07 149.12 107.871C150.547 107.42 151.991 106.986 153.453 106.607C154.916 106.228 156.378 105.885 157.841 105.578C158.202 105.506 158.563 105.434 158.924 105.362C159.032 105.325 159.123 105.235 159.195 105.145C159.285 105.037 159.357 104.91 159.393 104.784C159.429 104.694 159.429 104.585 159.393 104.495C159.357 104.423 159.267 104.423 159.195 104.441L159.141 104.495Z" fill="white"/>
<path d="M154.392 115.49C155.926 117.747 157.407 120.04 158.851 122.369C160.295 124.698 161.686 127.045 163.04 129.41C164.394 131.793 165.694 134.177 166.958 136.614C168.221 139.033 169.431 141.489 170.605 143.962C171.778 146.436 172.898 148.927 173.963 151.437L174.36 152.375C174.45 152.592 174.757 152.303 174.829 152.213C174.956 152.05 175.118 151.78 175.028 151.545C173.963 149.035 172.861 146.526 171.706 144.052C170.55 141.579 169.341 139.123 168.095 136.686C166.849 134.249 165.549 131.848 164.213 129.464C162.877 127.081 161.487 124.734 160.061 122.405C158.634 120.076 157.154 117.783 155.637 115.508L155.06 114.66C154.861 114.353 154.211 115.201 154.392 115.49Z" fill="white"/>
<path d="M166.092 81.8907C165.225 80.3381 164.431 78.7312 163.69 77.1244C163.347 76.4022 163.004 75.68 162.697 74.9398C162.408 74.2898 162.12 73.6038 162.083 72.8816C162.011 71.3831 163.654 70.5706 164.954 70.4262C166.362 70.2998 167.789 70.6789 168.944 71.4914C170.28 72.3941 171.309 73.676 172.23 74.9939C173.223 76.4202 174.162 77.9007 175.083 79.3631C176.996 82.4143 178.802 85.5378 180.553 88.6792C184.074 95.0525 187.287 101.588 190.519 108.124L200.72 128.742C203.916 135.188 207.472 141.669 209.061 148.746C210.451 154.885 210.217 161.836 206.624 167.198C203.536 171.802 198.156 174.42 192.758 175.088C187.161 175.756 181.474 174.33 176.689 171.405C171.851 168.444 168.24 163.966 165.315 159.182C161.686 153.242 159.014 146.76 156.577 140.261C155.963 138.618 155.367 136.975 154.771 135.332C154.663 135.025 153.977 135.801 154.103 136.144C156.595 143.077 159.195 150.01 162.661 156.51C165.496 161.818 168.962 166.999 173.783 170.701C178.314 174.185 184.056 176.279 189.797 176.207C195.358 176.135 201.045 174.113 204.963 170.069C209.458 165.429 210.993 158.821 210.469 152.538C209.874 145.262 206.624 138.546 203.446 132.1C199.926 124.951 196.387 117.819 192.866 110.67C189.49 103.845 186.15 96.9843 182.557 90.2861C180.752 86.946 178.892 83.624 176.924 80.3922C175.931 78.7673 174.92 77.1605 173.873 75.5717C172.988 74.2357 172.086 72.8816 170.948 71.7441C168.998 69.7762 165.767 68.5124 163.239 70.2276C162.138 70.9859 161.307 72.2316 161.397 73.6038C161.506 75.0842 162.408 76.5286 163.004 77.8465C163.762 79.4895 164.575 81.1144 165.46 82.7032C165.604 83.0282 166.272 82.1977 166.092 81.8907Z" fill="white"/>
<path d="M41.8404 108.756C38.1031 115.598 34.6908 122.604 31.5855 129.771C30.0328 133.364 28.5704 137.011 27.1982 140.676C25.8441 144.305 24.4901 147.952 23.3887 151.653C22.3235 155.246 21.5833 159.146 22.6485 162.829C23.6596 166.313 26.0608 169.148 28.3176 171.892C37.724 183.339 48.3761 193.702 60.0935 202.765C65.4195 206.882 71.3956 211.504 78.5451 210.655C83.131 210.077 87.2835 207.694 90.0819 204.029C90.6055 203.343 91.0749 202.603 91.6346 201.935C92.1221 201.339 92.6637 200.779 93.2053 200.238C94.7761 198.667 96.4913 197.042 96.0038 194.623C95.751 193.359 95.1191 192.186 94.4872 191.066C93.8914 190.001 93.2595 188.954 92.5915 187.925C91.093 185.56 89.5222 183.23 87.8251 181.01C86.3266 179.042 84.5934 177.363 82.8601 175.611C78.2021 170.881 73.6885 166.007 69.0485 161.258C68.0374 160.229 67.0264 159.218 66.0153 158.207V158.676L70.0595 148.801L76.4689 133.129L77.9493 129.536C78.2201 128.868 77.5702 129.049 77.3716 129.518L73.3274 139.394L66.918 155.084L65.4376 158.676C65.3834 158.821 65.3112 159.019 65.4376 159.146C69.9512 163.569 74.2482 168.209 78.6173 172.777C80.6575 174.907 82.7518 177.002 84.8281 179.096C86.4891 180.775 87.8793 182.779 89.2334 184.711C90.7319 186.859 92.1762 189.08 93.4762 191.355C94.072 192.402 94.6858 193.467 95.065 194.605C95.3899 195.616 95.4983 196.681 94.8844 197.584C94.2345 198.541 93.2956 199.299 92.5012 200.129C91.9776 200.671 91.4721 201.231 91.0208 201.809C90.5152 202.459 90.0639 203.163 89.5403 203.795C87.6265 206.16 85.0628 207.947 82.1741 208.922C79.2854 209.915 76.18 210.041 73.2371 209.283C69.8248 208.38 66.7917 206.43 63.9571 204.372C58.1616 200.111 52.637 195.526 47.3651 190.633C42.039 185.704 37.0018 180.504 32.2535 175.016C29.9245 172.326 27.5232 169.617 25.5372 166.675C24.5623 165.212 23.6957 163.641 23.2443 161.926C22.7929 160.121 22.6666 158.243 22.9193 156.402C23.3526 152.61 24.7609 148.963 26.0247 145.37C27.2885 141.777 28.6426 138.221 30.0689 134.7C32.9395 127.641 36.1171 120.708 39.6197 113.937C40.4683 112.276 41.3529 110.652 42.2376 109.009C42.3098 108.882 42.4904 108.539 42.3098 108.413C42.1293 108.286 41.8946 108.629 41.8404 108.756Z" fill="white"/>
<path d="M66.0332 209.428C77.3533 204.228 86.2181 193.955 89.7026 182.003L106.584 183.736L99.5603 223.727L72.1898 217.245L66.0332 209.428Z" fill="#CFD2D7"/>
<path d="M155.096 113.703C155.006 112.89 154.573 112.168 153.905 111.699C153.164 111.175 152.262 110.958 151.377 111.049C150.817 111.103 150.276 111.229 149.77 111.428C149.535 111.536 149.373 111.753 149.301 112.006C149.265 112.15 149.265 112.439 149.499 112.349C150.33 112.006 151.251 111.897 152.135 112.06C152.875 112.222 153.525 112.638 153.959 113.251C154.193 113.576 154.338 113.955 154.374 114.371C154.392 114.605 154.663 114.497 154.771 114.389C154.988 114.208 155.096 113.974 155.096 113.703Z" fill="white"/>
<path d="M153.886 111.771C153.525 111.771 153.164 111.735 152.911 111.717C152.026 111.663 151.16 111.5 150.275 111.464C150.04 111.59 149.806 111.753 149.607 111.915C149.445 112.06 149.228 112.096 149.029 112.024C149.047 112.24 149.047 112.475 149.065 112.692C149.21 115.219 149.354 117.747 149.499 120.275C149.517 120.545 149.535 120.816 149.553 121.087C149.553 121.593 149.95 122.008 150.456 122.062C150.744 122.062 151.033 121.99 151.268 121.827C151.593 121.683 151.9 121.484 152.153 121.213C152.821 120.581 153.362 119.841 153.723 119.011C154.03 118.307 154.247 117.602 154.193 116.826C154.085 115.129 153.976 113.45 153.886 111.771Z" fill="#88EFD7"/>
<path d="M148.759 112.583C149.77 112.24 150.853 111.843 151.937 112.042C152.424 112.132 152.893 112.313 153.309 112.601C153.634 112.836 153.905 113.143 154.067 113.522C154.121 113.631 154.175 113.739 154.211 113.847C154.23 113.901 154.248 113.956 154.266 114.01V114.046C154.266 114.082 154.284 114.1 154.284 114.136C154.302 114.244 154.32 114.353 154.338 114.461C154.338 114.515 154.338 114.587 154.338 114.642C154.338 114.551 154.338 114.606 154.338 114.624C154.338 114.642 154.338 114.696 154.32 114.732C154.32 114.804 154.32 114.912 154.392 114.967C154.464 115.003 154.554 114.985 154.627 114.93C154.843 114.786 154.988 114.551 155.024 114.281C155.132 113.378 154.663 112.385 153.977 111.807C153.561 111.482 153.074 111.265 152.569 111.157C152.009 111.031 151.449 111.031 150.889 111.139C150.239 111.265 149.59 111.446 148.958 111.681C148.723 111.789 148.542 112.006 148.488 112.258C148.452 112.403 148.452 112.692 148.687 112.601L148.759 112.583Z" fill="white"/>
</svg>
