<svg width="24" height="24" viewBox="0 0 24 24" fill="none" xmlns="http://www.w3.org/2000/svg">
<path d="M11.344 22C10.0986 22 8.87701 21.9192 7.67915 21.7577C6.49079 21.5962 5.53536 21.3988 4.81284 21.1655L4.42781 15.3109H4.67024C5.46881 17.1503 6.45752 18.5814 7.63637 19.6043C8.81522 20.6182 10.1081 21.1252 11.5152 21.1252C12.5514 21.1252 13.35 20.9053 13.9109 20.4657C14.4718 20.017 14.7522 19.2992 14.7522 18.3122C14.7522 17.8188 14.5336 17.3432 14.0963 16.8856C13.6685 16.419 13.1361 15.9883 12.4991 15.5935C11.8621 15.1987 10.997 14.7052 9.90375 14.1131L9.10517 13.6824C8.07843 13.135 7.2038 12.5922 6.48128 12.0538C5.75877 11.5155 5.16459 10.8874 4.69876 10.1696C4.23292 9.45177 4 8.63975 4 7.73351C4 6.44145 4.37077 5.36922 5.1123 4.51682C5.86334 3.65545 6.89008 3.02288 8.19252 2.61911C9.49495 2.20637 10.9828 2 12.656 2C13.5971 2 14.5716 2.08075 15.5793 2.24226C16.587 2.40377 17.4807 2.59219 18.2603 2.80754L18.7166 8.67564H18.5169C17.8134 6.98878 16.8865 5.60251 15.7362 4.51682C14.5954 3.43113 13.3119 2.88829 11.8859 2.88829C11.0208 2.88829 10.3601 3.09915 9.90375 3.52086C9.44742 3.9336 9.21926 4.47645 9.21926 5.14939C9.21926 5.66981 9.39038 6.13638 9.73262 6.54912C10.0844 6.95289 10.5074 7.29834 11.0018 7.58546C11.4961 7.86362 12.1426 8.19112 12.9412 8.56797L14.0677 9.09287C15.2371 9.6402 16.2496 10.2279 17.1052 10.856C17.9703 11.4751 18.669 12.2198 19.2014 13.0902C19.7338 13.9515 20 14.943 20 16.0646C20 17.3926 19.6292 18.5007 18.8877 19.389C18.1557 20.2773 17.1384 20.9367 15.836 21.3674C14.5431 21.7891 13.0458 22 11.344 22Z" fill="#0E1E36"/>
</svg>
