<svg width="182" height="72" viewBox="0 0 182 72" fill="none" xmlns="http://www.w3.org/2000/svg">
<path d="M134 0H0V72H134V0Z" fill="white"/>
<path d="M5.2817 42.5069C4.4662 42.5069 3.6609 42.4226 2.8657 42.2542C2.0772 42.0857 1.3965 41.8835 0.823696 41.6476L0.581096 37.6344H0.732696C1.2584 39.0699 1.9087 40.1515 2.6837 40.8794C3.4587 41.6005 4.3483 41.961 5.3524 41.961C6.2285 41.961 6.9058 41.7555 7.3843 41.3444C7.8628 40.9265 8.102 40.2998 8.102 39.4641C8.102 38.9991 7.9605 38.5779 7.6774 38.2005C7.4011 37.8231 7.0338 37.4794 6.5756 37.1694C6.1173 36.8527 5.50739 36.4888 4.74589 36.0777L4.1394 35.7542C3.4183 35.3633 2.7983 34.9792 2.2793 34.6018C1.7672 34.2177 1.3392 33.7661 0.995496 33.2472C0.658596 32.7216 0.493496 32.1285 0.500196 31.4681C0.500196 30.592 0.736096 29.8574 1.2078 29.2644C1.6796 28.6646 2.3265 28.2198 3.1487 27.93C3.9776 27.6335 4.9245 27.4852 5.9893 27.4852C6.643 27.4852 7.33039 27.5695 8.05149 27.7379C8.77259 27.8997 9.4195 28.1019 9.9924 28.3445L10.2956 32.3577H10.1541C9.64869 30.9761 9.0286 29.9113 8.2941 29.1633C7.5662 28.4085 6.66659 28.0311 5.595 28.0311C5.13 28.0311 4.7257 28.1221 4.382 28.304C4.045 28.486 3.7856 28.7387 3.6036 29.0622C3.4216 29.3857 3.3307 29.7597 3.3307 30.1843C3.3307 30.6156 3.4385 30.993 3.6541 31.3165C3.8765 31.6399 4.17309 31.9263 4.54369 32.1757C4.91439 32.4183 5.4131 32.698 6.0398 33.0147L6.798 33.3888C7.6134 33.7864 8.3177 34.2042 8.9107 34.6422C9.5105 35.0803 9.99909 35.6059 10.3765 36.2192C10.7606 36.8257 10.9527 37.5232 10.9527 38.3117C10.9527 39.262 10.7033 40.0504 10.2046 40.6772C9.7059 41.3039 9.02859 41.7656 8.17279 42.0621C7.32359 42.3586 6.3599 42.5069 5.2817 42.5069Z" fill="#0E1E36"/>
<path d="M15.3864 42.5069C14.8136 42.5069 14.298 42.3991 13.8398 42.1834C13.3882 41.9677 13.031 41.6443 12.7682 41.213C12.5054 40.7816 12.374 40.256 12.374 39.636V32.4183H11.0801V32.297L15.2752 29.5575H15.4572V32.0342H18.5403V32.4183H15.4673V39.636C15.4673 40.1684 15.5852 40.5727 15.8211 40.849C16.0569 41.1253 16.3973 41.2635 16.8421 41.2635C17.2195 41.2635 17.5699 41.2197 17.8934 41.1321C18.2236 41.0445 18.5033 40.9198 18.7324 40.7581L18.8335 40.9097C18.4696 41.368 17.9877 41.7487 17.3879 42.052C16.7881 42.3553 16.121 42.5069 15.3864 42.5069Z" fill="#0E1E36"/>
<path d="M22.6296 42.5069C22.0972 42.5069 21.6018 42.3957 21.1436 42.1733C20.692 41.9442 20.3281 41.6005 20.0518 41.1422C19.7755 40.6839 19.6373 40.1246 19.6373 39.4641V33.783L18.4951 32.8429V32.671L22.6194 31.7713L22.7306 31.8825V38.7666C22.7306 39.454 22.8519 40.0134 23.0946 40.4447C23.3439 40.8693 23.7516 41.0815 24.3177 41.0815C24.7086 41.0815 25.1062 41.0074 25.5106 40.8591C25.9149 40.7041 26.2283 40.502 26.4507 40.2526V33.783L25.3185 32.8429V32.671L29.4429 31.7713L29.544 31.8825V40.4649L30.6054 41.5769V41.6982L26.8854 42.5069L26.5214 40.7783C26.2586 41.0546 25.9183 41.3275 25.5004 41.5971C25.0826 41.8599 24.621 42.0789 24.1155 42.2542C23.6101 42.4226 23.1148 42.5069 22.6296 42.5069Z" fill="#0E1E36"/>
<path d="M34.8667 42.5069C34.0513 42.5069 33.337 42.298 32.7237 41.8801C32.1172 41.4623 31.6488 40.8794 31.3186 40.1313C30.9883 39.3833 30.8232 38.5274 30.8232 37.5637C30.8232 36.445 31.049 35.4476 31.5005 34.5715C31.952 33.6886 32.5956 33.0013 33.4313 32.5093C34.267 32.0173 35.2374 31.7713 36.3426 31.7713C37.0705 31.7713 37.7141 31.9499 38.2734 32.3071V29.0116L37.3131 28.0614V27.8997L41.2252 27L41.3667 27.1112V40.4548L42.418 41.5769V41.6982L38.7081 42.5069L38.3341 40.9097C37.8556 41.3882 37.34 41.7757 36.7874 42.0722C36.2415 42.362 35.6013 42.5069 34.8667 42.5069ZM36.565 41.0917C37.1918 41.0917 37.7612 40.8827 38.2734 40.4649V33.9346C38.1858 33.3685 38.0005 32.9406 37.7174 32.6508C37.4344 32.361 37.0839 32.2161 36.6661 32.2161C36.127 32.2161 35.662 32.3981 35.2711 32.762C34.887 33.1259 34.5904 33.6516 34.3815 34.339C34.1793 35.0264 34.0783 35.8519 34.0783 36.8156C34.0783 38.2039 34.2939 39.2653 34.7252 39.9999C35.1565 40.7277 35.7698 41.0917 36.565 41.0917Z" fill="#0E1E36"/>
<path d="M45.335 30.3561C45.0048 30.3561 44.7083 30.2887 44.4454 30.1539C44.1893 30.0124 43.9872 29.8204 43.8389 29.5777C43.6906 29.3284 43.6165 29.0453 43.6165 28.7286C43.6165 28.4253 43.6906 28.149 43.8389 27.8997C43.9872 27.6503 44.1927 27.4549 44.4555 27.3134C44.7184 27.1718 45.0115 27.1011 45.335 27.1011C45.672 27.1011 45.9719 27.1718 46.2347 27.3134C46.5043 27.4549 46.7132 27.6503 46.8614 27.8997C47.0097 28.149 47.0838 28.4253 47.0838 28.7286C47.0838 29.2071 46.9187 29.598 46.5885 29.9012C46.265 30.2045 45.8472 30.3561 45.335 30.3561ZM48.2666 42.2643H42.6865V42.1126L43.9299 40.8591V33.783L42.7977 32.8429V32.671L46.9221 31.7713L47.0232 31.8825V40.849L48.2666 42.1126V42.2643Z" fill="#0E1E36"/>
<path d="M53.8723 42.5069C52.8277 42.5069 51.8809 42.2778 51.0317 41.8195C50.1893 41.3545 49.5255 40.7143 49.0403 39.8988C48.5551 39.0766 48.3125 38.1567 48.3125 37.1391C48.3125 36.1282 48.5551 35.2151 49.0403 34.3996C49.5255 33.5842 50.1927 32.944 51.0418 32.479C51.891 32.0072 52.8345 31.7713 53.8723 31.7713C54.9169 31.7713 55.8637 32.0039 56.7129 32.4689C57.562 32.9339 58.2292 33.5775 58.7144 34.3996C59.1996 35.2151 59.4422 36.1282 59.4422 37.1391C59.4422 38.1567 59.1996 39.0766 58.7144 39.8988C58.2292 40.7143 57.562 41.3545 56.7129 41.8195C55.8705 42.2778 54.9236 42.5069 53.8723 42.5069ZM53.8824 42.1329C54.6237 42.1329 55.1932 41.7015 55.5908 40.8389C55.9951 39.9696 56.1973 38.7363 56.1973 37.1391C56.1973 35.5554 55.9951 34.3289 55.5908 33.4595C55.1864 32.5902 54.6136 32.1555 53.8723 32.1555C53.1242 32.1555 52.5514 32.5902 52.1538 33.4595C51.7629 34.3221 51.5675 35.5487 51.5675 37.1391C51.5675 38.743 51.7663 39.9763 52.1639 40.8389C52.5615 41.7015 53.1343 42.1329 53.8824 42.1329Z" fill="#0E1E36"/>
<path d="M63.7439 42.5069C63.0835 42.5069 62.386 42.426 61.6514 42.2643C60.9236 42.1093 60.3575 41.9273 59.9531 41.7184L60.6001 38.9587H60.8023C61.0853 39.5787 61.4189 40.1886 61.803 40.7884C62.1872 41.3882 62.5713 41.8094 62.9554 42.052C63.2654 42.1059 63.5519 42.1329 63.8147 42.1329C64.5088 42.1329 65.0075 41.9846 65.3108 41.6881C65.6141 41.3848 65.7657 40.9973 65.7657 40.5256C65.7657 40.2021 65.6713 39.919 65.4826 39.6764C65.2939 39.4338 65.048 39.2215 64.7447 39.0396C64.4414 38.8509 64.0303 38.6352 63.5114 38.3926L62.9049 38.0995C62.3388 37.8366 61.8536 37.5671 61.4492 37.2907C61.0449 37.0077 60.7113 36.664 60.4485 36.2597C60.1856 35.8486 60.0542 35.3667 60.0542 34.8141C60.0542 33.81 60.4451 33.0518 61.2268 32.5396C62.0086 32.0274 63.0633 31.7713 64.3909 31.7713C64.8896 31.7713 65.4321 31.8286 66.0184 31.9432C66.6115 32.051 67.1371 32.1858 67.5954 32.3475L67.1405 35.0163H66.9787C66.5205 34.2884 66.133 33.7055 65.8162 33.2674C65.5062 32.8294 65.2097 32.479 64.9267 32.2161C64.8053 32.1757 64.6133 32.1555 64.3505 32.1555C63.7776 32.1555 63.3396 32.3037 63.0363 32.6003C62.733 32.8901 62.5814 33.254 62.5814 33.692C62.5814 34.1031 62.7432 34.4603 63.0666 34.7636C63.3969 35.0668 63.8753 35.3667 64.5021 35.6632L65.24 36.017C65.8331 36.3001 66.3419 36.5831 66.7665 36.8662C67.191 37.1492 67.5482 37.503 67.838 37.9276C68.1278 38.3454 68.2727 38.8307 68.2727 39.3833C68.2727 40.0504 68.0739 40.6199 67.6762 41.0917C67.2854 41.5567 66.7462 41.9105 66.0588 42.1531C65.3782 42.3889 64.6065 42.5069 63.7439 42.5069Z" fill="#0E1E36"/>
<path d="M68.4404 46.4695V46.3179L69.6837 45.0543V33.783L68.5414 32.8328V32.671L72.6658 31.7713L72.777 31.8825V33.2573C73.1881 32.7856 73.6632 32.4217 74.2024 32.1656C74.7482 31.9028 75.3346 31.7713 75.9613 31.7713C76.7968 31.7713 77.5348 31.9803 78.1748 32.3981C78.8158 32.8159 79.3138 33.409 79.6708 34.1772C80.0288 34.9388 80.2068 35.8216 80.2068 36.8257C80.2068 37.9175 79.9918 38.8947 79.5598 39.7573C79.1288 40.6132 78.5018 41.2871 77.6798 41.779C76.8648 42.2643 75.8939 42.5069 74.7685 42.5069C74.3641 42.5069 73.9901 42.453 73.6464 42.3451C73.3094 42.2373 73.0196 42.1025 72.777 41.9408V45.0543L74.1619 46.3179V46.4695H68.4404ZM74.3843 42.1329C74.9302 42.1329 75.3952 41.9408 75.7793 41.5567C76.1698 41.1658 76.4638 40.6233 76.6588 39.9291C76.8608 39.2283 76.9618 38.4196 76.9618 37.503C76.9618 36.0811 76.7368 34.9826 76.2848 34.2076C75.8333 33.4326 75.1863 33.0451 74.3439 33.0451C73.7441 33.0451 73.2218 33.2573 72.777 33.6819V40.9602C72.9657 41.3444 73.1982 41.6375 73.4745 41.8397C73.7576 42.0351 74.0608 42.1329 74.3843 42.1329Z" fill="#0E1E36"/>
<path d="M83.3572 42.5069C82.8312 42.5069 82.3632 42.4193 81.9522 42.2441C81.5472 42.0621 81.2302 41.8026 81.0012 41.4657C80.7722 41.1287 80.6582 40.7277 80.6582 40.2627C80.6582 39.5416 80.9202 38.9115 81.4462 38.3724C81.9792 37.8333 82.6862 37.4053 83.5692 37.0886C84.4592 36.7718 85.4422 36.5697 86.5212 36.482V35.2083C86.5212 34.5412 86.3252 34.0222 85.9342 33.6516C85.5442 33.2742 84.9372 33.0855 84.1152 33.0855C83.6432 33.0855 83.1952 33.1428 82.7702 33.2573C82.3462 33.3719 81.9152 33.5539 81.4762 33.8032L81.3452 33.6111C81.8982 33.0518 82.5722 32.6104 83.3672 32.2869C84.1692 31.9567 85.0352 31.7916 85.9652 31.7916C86.9022 31.7916 87.6362 31.9365 88.1682 32.2262C88.7082 32.516 89.0822 32.9204 89.2912 33.4393C89.5062 33.9515 89.6142 34.5816 89.6142 35.3296V40.4548L90.6752 41.5769V41.6982L86.9662 42.5069L86.6122 40.9703C86.1802 41.4421 85.6822 41.8161 85.1162 42.0924C84.5562 42.3687 83.9702 42.5069 83.3572 42.5069ZM85.0552 41.0411C85.6352 41.0411 86.1232 40.8861 86.5212 40.5761V36.8662C85.6242 37.0144 84.9172 37.3177 84.3982 37.776C83.8862 38.2342 83.6302 38.8037 83.6302 39.4844C83.6302 39.9763 83.7442 40.3604 83.9732 40.6368C84.2092 40.9063 84.5702 41.0411 85.0552 41.0411Z" fill="#0E1E36"/>
<path d="M95.8366 42.5069C94.8796 42.5069 94.0296 42.2946 93.2886 41.87C92.5476 41.4455 91.9676 40.8457 91.5496 40.0707C91.1386 39.2889 90.9336 38.3892 90.9336 37.3716C90.9336 36.2731 91.1756 35.2993 91.6616 34.4502C92.1536 33.601 92.8336 32.944 93.7036 32.479C94.5726 32.0072 95.5596 31.7713 96.6656 31.7713C97.2246 31.7713 97.8146 31.832 98.4346 31.9533C99.0606 32.0679 99.5696 32.1993 99.9606 32.3475L99.4856 35.3499H99.2836C98.8656 34.6018 98.4946 33.9818 98.1716 33.4898C97.8546 32.9911 97.5376 32.5733 97.2216 32.2364C97.2146 32.2364 97.1536 32.2229 97.0396 32.1959C96.9316 32.169 96.7996 32.1555 96.6446 32.1555C95.8496 32.1757 95.2396 32.5699 94.8156 33.3382C94.3976 34.0997 94.1886 35.1342 94.1886 36.4416C94.1886 37.3581 94.3166 38.15 94.5726 38.8172C94.8356 39.4776 95.2096 39.9831 95.6946 40.3335C96.1866 40.6839 96.7666 40.8591 97.4336 40.8591C97.9726 40.8591 98.5016 40.7682 99.0206 40.5862C99.5466 40.4043 99.9676 40.1684 100.284 39.8786L100.426 40.01C99.9406 40.8052 99.3166 41.4219 98.5556 41.8599C97.7936 42.2912 96.8876 42.5069 95.8366 42.5069Z" fill="#0E1E36"/>
<path d="M107.265 40.8591C107.838 40.8591 108.374 40.7682 108.872 40.5862C109.371 40.3975 109.786 40.1616 110.116 39.8786L110.268 40.01C109.762 40.8187 109.132 41.4387 108.377 41.87C107.629 42.2946 106.726 42.5069 105.668 42.5069C104.684 42.5069 103.818 42.2879 103.07 41.8498C102.322 41.4118 101.742 40.8019 101.331 40.0201C100.927 39.2316 100.725 38.3353 100.725 37.3312C100.725 36.2462 100.944 35.2825 101.382 34.4401C101.827 33.5977 102.447 32.944 103.242 32.479C104.037 32.0072 104.94 31.7713 105.951 31.7713C106.888 31.7713 107.7 31.9803 108.387 32.3981C109.075 32.8092 109.597 33.3719 109.954 34.0863C110.318 34.7939 110.5 35.5857 110.5 36.4618H103.889V36.7348C103.889 37.5569 104.024 38.2814 104.293 38.9082C104.563 39.5282 104.95 40.01 105.456 40.3537C105.968 40.6907 106.571 40.8591 107.265 40.8591ZM105.799 32.2161C105.125 32.2161 104.65 32.6306 104.374 33.4595C104.105 34.2817 103.946 35.1881 103.899 36.1788L107.447 35.9564C107.447 34.649 107.312 33.6988 107.043 33.1057C106.78 32.5127 106.366 32.2161 105.799 32.2161Z" fill="#0E1E36"/>
<path d="M179.5 23H136.5C135.395 23 134.5 23.8954 134.5 25V47C134.5 48.1046 135.395 49 136.5 49H179.5C180.605 49 181.5 48.1046 181.5 47V25C181.5 23.8954 180.605 23 179.5 23Z" fill="url(#paint0_linear_8039_59375)"/>
<path d="M143.76 30.2H147.89C148.375 30.2 148.814 30.27 149.206 30.41C149.598 30.55 149.929 30.7367 150.2 30.97C150.471 31.2033 150.676 31.4787 150.816 31.796C150.965 32.1133 151.04 32.4447 151.04 32.79C151.04 33.182 150.97 33.5087 150.83 33.77C150.69 34.022 150.536 34.2273 150.368 34.386C150.172 34.5727 149.953 34.7173 149.71 34.82C150.046 34.9227 150.349 35.0813 150.62 35.296C150.844 35.4827 151.049 35.73 151.236 36.038C151.432 36.3367 151.53 36.724 151.53 37.2C151.53 37.5827 151.451 37.9467 151.292 38.292C151.143 38.628 150.923 38.922 150.634 39.174C150.345 39.426 149.99 39.6267 149.57 39.776C149.159 39.9253 148.693 40 148.17 40H143.76V30.2ZM148.03 38.18C148.45 38.18 148.777 38.0727 149.01 37.858C149.243 37.634 149.36 37.3447 149.36 36.99C149.36 36.6353 149.243 36.3507 149.01 36.136C148.777 35.912 148.45 35.8 148.03 35.8H145.86V38.18H148.03ZM147.75 33.98C148.105 33.98 148.38 33.8867 148.576 33.7C148.772 33.5133 148.87 33.28 148.87 33C148.87 32.72 148.772 32.4867 148.576 32.3C148.38 32.1133 148.105 32.02 147.75 32.02H145.86V33.98H147.75ZM156.296 40.14C155.792 40.14 155.316 40.0467 154.868 39.86C154.429 39.6733 154.042 39.4167 153.706 39.09C153.379 38.7633 153.123 38.3853 152.936 37.956C152.749 37.5267 152.656 37.0647 152.656 36.57C152.656 36.0847 152.749 35.6273 152.936 35.198C153.123 34.7593 153.379 34.3767 153.706 34.05C154.033 33.7233 154.411 33.4667 154.84 33.28C155.269 33.0933 155.731 33 156.226 33C156.702 33 157.145 33.0933 157.556 33.28C157.976 33.4573 158.34 33.7 158.648 34.008C158.956 34.316 159.199 34.68 159.376 35.1C159.563 35.5107 159.656 35.954 159.656 36.43C159.656 36.5607 159.651 36.6773 159.642 36.78C159.633 36.8733 159.623 36.9573 159.614 37.032C159.605 37.1253 159.595 37.2047 159.586 37.27H154.616C154.719 37.5873 154.915 37.8673 155.204 38.11C155.503 38.3433 155.913 38.46 156.436 38.46C156.735 38.46 156.996 38.4227 157.22 38.348C157.444 38.2733 157.635 38.1847 157.794 38.082C157.971 37.97 158.125 37.8393 158.256 37.69L159.236 39.02C159.031 39.2253 158.779 39.412 158.48 39.58C158.228 39.72 157.92 39.8507 157.556 39.972C157.192 40.084 156.772 40.14 156.296 40.14ZM157.696 35.87C157.593 35.5527 157.407 35.2773 157.136 35.044C156.875 34.8013 156.548 34.68 156.156 34.68C155.764 34.68 155.433 34.8013 155.162 35.044C154.901 35.2773 154.719 35.5527 154.616 35.87H157.696ZM163.93 40.14C163.23 40.14 162.67 39.9253 162.25 39.496C161.83 39.0573 161.62 38.432 161.62 37.62V35.03H160.43V33.28H161.06C161.574 33.28 161.83 33 161.83 32.44V31.18H163.51V33.28H165.05V35.03H163.51V37.34C163.51 37.6573 163.59 37.9 163.748 38.068C163.916 38.236 164.14 38.32 164.42 38.32C164.626 38.32 164.808 38.2967 164.966 38.25C165.05 38.2313 165.125 38.208 165.19 38.18V39.93C165.078 39.9673 164.957 40.0047 164.826 40.042C164.714 40.07 164.579 40.0933 164.42 40.112C164.271 40.1307 164.108 40.14 163.93 40.14ZM168.279 40.14C167.962 40.14 167.672 40.0933 167.411 40C167.159 39.8973 166.94 39.7573 166.753 39.58C166.576 39.4027 166.436 39.1973 166.333 38.964C166.23 38.7213 166.179 38.46 166.179 38.18C166.179 37.62 166.356 37.144 166.711 36.752C167.075 36.3507 167.574 36.094 168.209 35.982L170.379 35.59C170.342 35.3473 170.22 35.1373 170.015 34.96C169.819 34.7733 169.544 34.68 169.189 34.68C168.946 34.68 168.727 34.722 168.531 34.806C168.344 34.8807 168.186 34.9693 168.055 35.072C167.896 35.184 167.761 35.31 167.649 35.45L166.529 34.33C166.725 34.0873 166.963 33.868 167.243 33.672C167.486 33.504 167.78 33.35 168.125 33.21C168.47 33.07 168.872 33 169.329 33C169.768 33 170.164 33.07 170.519 33.21C170.883 33.35 171.196 33.546 171.457 33.798C171.718 34.0407 171.919 34.33 172.059 34.666C172.199 34.9927 172.269 35.3473 172.269 35.73V40H170.379V39.16H170.309C170.16 39.3467 169.987 39.51 169.791 39.65C169.623 39.7807 169.408 39.8973 169.147 40C168.895 40.0933 168.606 40.14 168.279 40.14ZM168.909 38.6C169.329 38.6 169.679 38.46 169.959 38.18C170.239 37.8907 170.379 37.5173 170.379 37.06V36.92L168.839 37.2C168.596 37.2467 168.405 37.3307 168.265 37.452C168.134 37.5733 168.069 37.7227 168.069 37.9C168.069 38.1147 168.139 38.2873 168.279 38.418C168.419 38.5393 168.629 38.6 168.909 38.6Z" fill="white"/>
<defs>
<linearGradient id="paint0_linear_8039_59375" x1="123.631" y1="27.55" x2="146.283" y2="56.3693" gradientUnits="userSpaceOnUse">
<stop stop-color="#8153E4"/>
<stop offset="0.569909" stop-color="#E4536B"/>
<stop offset="1" stop-color="#FFA26D"/>
</linearGradient>
</defs>
</svg>
