<svg width="48" height="48" viewBox="0 0 24 24" fill="none" xmlns="http://www.w3.org/2000/svg">
<path d="M16.2603 18.8144L16.2621 20H7.73779L7.73967 18.8144C7.79092 17.8069 8.4978 16.9425 9.47279 16.6931C9.07654 16.4537 8.9478 15.9693 8.92092 15.4606C8.42655 15.3975 8.40154 14.6962 8.82092 14.5449C7.70904 12.3174 11.451 10.7987 11.7108 8.38557C11.7208 8.29369 11.6721 8.04244 11.6333 7.92993C11.5783 8.1118 11.5433 8.34305 11.3271 8.51619C11.0427 8.74307 10.3233 8.89245 9.99459 8.90681C9.44896 8.92931 9.45521 9.35245 9.10334 9.44869C8.50271 9.60806 7.95458 8.94619 8.04271 8.37557C8.07521 8.15681 9.32396 6.83868 9.58584 6.485C9.74709 6.26437 9.78209 6.1825 9.90272 5.9925C10.0415 5.77001 10.3015 5.6125 10.3771 5.49813C10.4177 5.43688 10.3815 5.32063 10.359 5.22813C10.2508 4.77063 10.304 4.42875 10.3383 4C10.9021 4.21437 11.1965 4.43938 11.6583 4.81938C11.9915 5.09938 11.814 4.98688 11.8277 4.87875C11.8602 4.61938 12.0627 4.51062 12.3408 4.52312C14.309 4.60312 15.8071 6.89817 16.0664 8.68185C16.3096 10.3638 15.7683 11.4287 15.3858 12.9593C15.2571 13.4724 15.2327 14.0074 15.1383 14.5331C15.6083 14.6493 15.5796 15.3937 15.0789 15.4612C15.0521 15.9699 14.9233 16.4543 14.5271 16.6937C15.5021 16.9431 16.209 17.8074 16.2602 18.815L16.2603 18.8144Z" fill="#ffffff"/>
</svg>
