<svg width="16" height="16" viewBox="0 0 16 16" fill="none" xmlns="http://www.w3.org/2000/svg">
<path d="M15.9999 3C15.9999 1.34277 14.6572 0 12.9999 0H12.2499C11.6972 0 11.2499 0.447275 11.2499 1C11.2499 1.55273 11.6972 2 12.2499 2H12.9999C13.2656 2 13.5195 2.10547 13.707 2.29297C13.8945 2.48048 13.9999 2.73438 13.9999 3V3.75C13.9999 4.30272 14.4472 4.75 14.9999 4.75C15.5527 4.75 15.9999 4.30272 15.9999 3.75V3Z" fill="white"/>
<path d="M1 4.75C1.26562 4.75 1.51953 4.64453 1.70703 4.45702C1.89453 4.26952 2 4.01562 2 3.75V3C2 2.44727 2.44727 2 3 2H3.75C4.30272 2 4.75 1.55273 4.75 1C4.75 0.447275 4.30272 0 3.75 0H3C1.34277 0 0 1.34277 0 3V3.75C0 4.01562 0.10547 4.26952 0.292975 4.45702C0.48048 4.64452 0.734375 4.75 1 4.75Z" fill="white"/>
<path d="M3 16H3.75C4.30272 16 4.75 15.5528 4.75 15C4.75 14.4473 4.30272 14 3.75 14H3C2.44727 14 2 13.5528 2 13V12.25C2 11.6973 1.55273 11.25 1 11.25C0.447275 11.25 0 11.6973 0 12.25V13C0 14.6573 1.34277 16 3 16Z" fill="white"/>
<path d="M12.2499 16H12.9999C14.6572 16 15.9999 14.6573 15.9999 13V12.25C15.9999 11.6973 15.5527 11.25 14.9999 11.25C14.4472 11.25 13.9999 11.6973 13.9999 12.25V13C13.9999 13.2657 13.8945 13.5196 13.707 13.7071C13.5195 13.8946 13.2656 14 12.9999 14H12.2499C11.6972 14 11.2499 14.4473 11.2499 15C11.2499 15.5528 11.6972 16 12.2499 16Z" fill="white"/>
<path d="M12.1651 11.0675C12.4297 10.7931 13.75 9.33995 13.75 8C13.75 6.66005 12.4297 5.21 12.1651 4.9325C10.9776 3.68445 9.50007 2.99988 8.00007 2.99988C6.50007 2.99988 5.02257 3.68445 3.83507 4.9325C3.57042 5.20985 2.25012 6.66005 2.25012 8C2.25012 9.33995 3.57042 10.793 3.83507 11.0675C5.02257 12.3156 6.50007 13.0001 8.00007 13.0001C9.50007 13.0001 10.9776 12.3156 12.1651 11.0675ZM8.00007 11.0001C5.75007 11.0001 4.25007 8.50012 4.25007 8.00012C4.25007 7.50012 5.75007 5.00012 8.00007 5.00012C10.2501 5.00012 11.7501 7.50012 11.7501 8.00012C11.7501 8.50012 10.2501 11.0001 8.00007 11.0001Z" fill="white"/>
<path d="M8.99994 7.99999C8.99994 9.33299 6.99994 9.33299 6.99994 7.99999C6.99994 6.66699 8.99994 6.66699 8.99994 7.99999Z" fill="white"/>
</svg>
