<svg width="370" height="63" viewBox="0 0 370 63" fill="none" xmlns="http://www.w3.org/2000/svg">
<path d="M3.58352 59.18C3.03952 59.18 2.56352 59.112 2.15552 58.976C1.75552 58.84 1.41952 58.688 1.14752 58.52C0.827516 58.328 0.559516 58.108 0.343516 57.86L1.54352 56.66C1.68752 56.828 1.85952 56.98 2.05952 57.116C2.22752 57.228 2.43152 57.332 2.67152 57.428C2.91952 57.516 3.20352 57.56 3.52352 57.56C4.00352 57.56 4.35152 57.468 4.56752 57.284C4.79152 57.1 4.90352 56.872 4.90352 56.6C4.90352 56.36 4.79952 56.172 4.59152 56.036C4.38352 55.892 4.12352 55.764 3.81152 55.652C3.49952 55.54 3.16352 55.424 2.80352 55.304C2.44352 55.184 2.10752 55.028 1.79552 54.836C1.48352 54.636 1.22352 54.384 1.01552 54.08C0.807516 53.768 0.703516 53.368 0.703516 52.88C0.703516 52.552 0.771516 52.24 0.907516 51.944C1.05152 51.64 1.25152 51.376 1.50752 51.152C1.77152 50.928 2.09152 50.752 2.46752 50.624C2.85152 50.488 3.28352 50.42 3.76352 50.42C4.22752 50.42 4.63552 50.48 4.98752 50.6C5.34752 50.72 5.64352 50.852 5.87552 50.996C6.14752 51.164 6.38352 51.352 6.58352 51.56L5.38352 52.76C5.25552 52.624 5.11552 52.504 4.96352 52.4C4.82752 52.312 4.66352 52.232 4.47152 52.16C4.27952 52.08 4.06352 52.04 3.82352 52.04C3.36752 52.04 3.04352 52.12 2.85152 52.28C2.65952 52.44 2.56352 52.64 2.56352 52.88C2.56352 53.12 2.66752 53.312 2.87552 53.456C3.08352 53.592 3.34352 53.716 3.65552 53.828C3.96752 53.94 4.30352 54.056 4.66352 54.176C5.02352 54.296 5.35952 54.456 5.67152 54.656C5.98352 54.848 6.24352 55.1 6.45152 55.412C6.65952 55.716 6.76352 56.112 6.76352 56.6C6.76352 56.944 6.69152 57.272 6.54752 57.584C6.40352 57.896 6.19152 58.172 5.91152 58.412C5.63952 58.644 5.30752 58.832 4.91552 58.976C4.52352 59.112 4.07952 59.18 3.58352 59.18ZM7.90305 53.12H9.52305V59H7.90305V53.12ZM8.70705 52.34C8.45105 52.34 8.23105 52.252 8.04705 52.076C7.87105 51.892 7.78305 51.68 7.78305 51.44C7.78305 51.2 7.87505 50.992 8.05905 50.816C8.24305 50.632 8.46305 50.54 8.71905 50.54C8.97505 50.54 9.19105 50.632 9.36705 50.816C9.55105 50.992 9.64305 51.2 9.64305 51.44C9.64305 51.68 9.55105 51.892 9.36705 52.076C9.18305 52.252 8.96305 52.34 8.70705 52.34ZM13.5388 61.52C13.0988 61.52 12.7188 61.456 12.3988 61.328C12.0788 61.208 11.8108 61.072 11.5948 60.92C11.3388 60.744 11.1268 60.544 10.9588 60.32L11.9788 59.3C12.0988 59.436 12.2388 59.556 12.3988 59.66C12.5348 59.748 12.6988 59.828 12.8908 59.9C13.0828 59.98 13.2988 60.02 13.5388 60.02C13.7628 60.02 13.9708 59.98 14.1628 59.9C14.3548 59.82 14.5188 59.708 14.6548 59.564C14.7908 59.428 14.8988 59.26 14.9788 59.06C15.0588 58.86 15.0988 58.64 15.0988 58.4V57.92H15.0388C14.9188 58.096 14.7748 58.256 14.6068 58.4C14.4628 58.52 14.2748 58.632 14.0428 58.736C13.8188 58.832 13.5508 58.88 13.2388 58.88C12.9108 58.88 12.5948 58.808 12.2908 58.664C11.9868 58.52 11.7188 58.32 11.4868 58.064C11.2548 57.808 11.0668 57.5 10.9228 57.14C10.7868 56.772 10.7188 56.372 10.7188 55.94C10.7188 55.508 10.7868 55.112 10.9228 54.752C11.0668 54.384 11.2548 54.072 11.4868 53.816C11.7188 53.56 11.9868 53.36 12.2908 53.216C12.5948 53.072 12.9108 53 13.2388 53C13.5508 53 13.8188 53.052 14.0428 53.156C14.2748 53.252 14.4628 53.36 14.6068 53.48C14.7748 53.624 14.9188 53.784 15.0388 53.96H15.0988V53.12H16.7188V58.4C16.7188 58.848 16.6388 59.264 16.4788 59.648C16.3268 60.032 16.1068 60.36 15.8188 60.632C15.5388 60.912 15.2028 61.128 14.8108 61.28C14.4268 61.44 14.0028 61.52 13.5388 61.52ZM13.7188 57.38C14.1108 57.38 14.4388 57.248 14.7028 56.984C14.9668 56.712 15.0988 56.364 15.0988 55.94C15.0988 55.516 14.9668 55.172 14.7028 54.908C14.4388 54.636 14.1108 54.5 13.7188 54.5C13.3268 54.5 12.9988 54.636 12.7348 54.908C12.4708 55.172 12.3388 55.516 12.3388 55.94C12.3388 56.364 12.4708 56.712 12.7348 56.984C12.9988 57.248 13.3268 57.38 13.7188 57.38ZM18.2741 53.12H19.8941V53.96H19.9541C20.0821 53.784 20.2301 53.624 20.3981 53.48C20.5421 53.36 20.7221 53.252 20.9381 53.156C21.1541 53.052 21.4061 53 21.6941 53C21.9901 53 22.2701 53.06 22.5341 53.18C22.7981 53.292 23.0261 53.456 23.2181 53.672C23.4181 53.88 23.5741 54.136 23.6861 54.44C23.7981 54.744 23.8541 55.084 23.8541 55.46V59H22.2341V55.7C22.2341 55.34 22.1381 55.06 21.9461 54.86C21.7541 54.66 21.4901 54.56 21.1541 54.56C20.7941 54.56 20.4941 54.684 20.2541 54.932C20.0141 55.172 19.8941 55.488 19.8941 55.88V59H18.2741V53.12ZM31.8304 59.18C31.2864 59.18 30.7904 59.092 30.3424 58.916C29.8944 58.732 29.5104 58.48 29.1904 58.16C28.8704 57.84 28.6184 57.456 28.4344 57.008C28.2584 56.56 28.1704 56.064 28.1704 55.52V50.6H29.9704V55.52C29.9704 55.824 30.0144 56.096 30.1024 56.336C30.1984 56.576 30.3264 56.784 30.4864 56.96C30.6544 57.136 30.8504 57.272 31.0744 57.368C31.3064 57.456 31.5584 57.5 31.8304 57.5C32.1024 57.5 32.3504 57.456 32.5744 57.368C32.8064 57.272 33.0024 57.136 33.1624 56.96C33.3304 56.784 33.4584 56.576 33.5464 56.336C33.6424 56.096 33.6904 55.824 33.6904 55.52V50.6H35.4904V55.52C35.4904 56.064 35.3984 56.56 35.2144 57.008C35.0384 57.456 34.7904 57.84 34.4704 58.16C34.1504 58.48 33.7624 58.732 33.3064 58.916C32.8584 59.092 32.3664 59.18 31.8304 59.18ZM37.2937 53.12H38.9137V53.96H38.9737C39.0937 53.784 39.2457 53.624 39.4297 53.48C39.5897 53.36 39.7817 53.252 40.0057 53.156C40.2377 53.052 40.5137 53 40.8337 53C41.1777 53 41.5097 53.076 41.8297 53.228C42.1497 53.38 42.4297 53.592 42.6697 53.864C42.9177 54.128 43.1137 54.448 43.2577 54.824C43.4017 55.2 43.4737 55.612 43.4737 56.06C43.4737 56.508 43.4017 56.92 43.2577 57.296C43.1137 57.672 42.9177 57.996 42.6697 58.268C42.4297 58.54 42.1497 58.752 41.8297 58.904C41.5097 59.048 41.1777 59.12 40.8337 59.12C40.5137 59.12 40.2377 59.072 40.0057 58.976C39.7817 58.872 39.5897 58.76 39.4297 58.64C39.2457 58.496 39.0937 58.336 38.9737 58.16H38.9137V61.52H37.2937V53.12ZM40.3537 57.62C40.5617 57.62 40.7577 57.58 40.9417 57.5C41.1257 57.42 41.2857 57.312 41.4217 57.176C41.5577 57.04 41.6617 56.876 41.7337 56.684C41.8137 56.492 41.8537 56.284 41.8537 56.06C41.8537 55.836 41.8137 55.628 41.7337 55.436C41.6617 55.244 41.5577 55.08 41.4217 54.944C41.2857 54.808 41.1257 54.7 40.9417 54.62C40.7577 54.54 40.5617 54.5 40.3537 54.5C40.1457 54.5 39.9497 54.54 39.7657 54.62C39.5817 54.7 39.4217 54.808 39.2857 54.944C39.1497 55.08 39.0417 55.244 38.9617 55.436C38.8897 55.628 38.8537 55.836 38.8537 56.06C38.8537 56.284 38.8897 56.492 38.9617 56.684C39.0417 56.876 39.1497 57.04 39.2857 57.176C39.4217 57.312 39.5817 57.42 39.7657 57.5C39.9497 57.58 40.1457 57.62 40.3537 57.62Z" fill="#0E1E36"/>
<path d="M142.796 50.6H144.836L148.076 59H146.156L145.436 57.08H142.196L141.476 59H139.556L142.796 50.6ZM144.836 55.46L143.84 52.7H143.792L142.796 55.46H144.836ZM151.373 61.52C150.933 61.52 150.553 61.456 150.233 61.328C149.913 61.208 149.645 61.072 149.429 60.92C149.173 60.744 148.961 60.544 148.793 60.32L149.813 59.3C149.933 59.436 150.073 59.556 150.233 59.66C150.369 59.748 150.533 59.828 150.725 59.9C150.917 59.98 151.133 60.02 151.373 60.02C151.597 60.02 151.805 59.98 151.997 59.9C152.189 59.82 152.353 59.708 152.489 59.564C152.625 59.428 152.733 59.26 152.813 59.06C152.893 58.86 152.933 58.64 152.933 58.4V57.92H152.873C152.753 58.096 152.609 58.256 152.441 58.4C152.297 58.52 152.109 58.632 151.877 58.736C151.653 58.832 151.385 58.88 151.073 58.88C150.745 58.88 150.429 58.808 150.125 58.664C149.821 58.52 149.553 58.32 149.321 58.064C149.089 57.808 148.901 57.5 148.757 57.14C148.621 56.772 148.553 56.372 148.553 55.94C148.553 55.508 148.621 55.112 148.757 54.752C148.901 54.384 149.089 54.072 149.321 53.816C149.553 53.56 149.821 53.36 150.125 53.216C150.429 53.072 150.745 53 151.073 53C151.385 53 151.653 53.052 151.877 53.156C152.109 53.252 152.297 53.36 152.441 53.48C152.609 53.624 152.753 53.784 152.873 53.96H152.933V53.12H154.553V58.4C154.553 58.848 154.473 59.264 154.313 59.648C154.161 60.032 153.941 60.36 153.653 60.632C153.373 60.912 153.037 61.128 152.645 61.28C152.261 61.44 151.837 61.52 151.373 61.52ZM151.553 57.38C151.945 57.38 152.273 57.248 152.537 56.984C152.801 56.712 152.933 56.364 152.933 55.94C152.933 55.516 152.801 55.172 152.537 54.908C152.273 54.636 151.945 54.5 151.553 54.5C151.161 54.5 150.833 54.636 150.569 54.908C150.305 55.172 150.173 55.516 150.173 55.94C150.173 56.364 150.305 56.712 150.569 56.984C150.833 57.248 151.161 57.38 151.553 57.38ZM158.868 59.12C158.436 59.12 158.028 59.04 157.644 58.88C157.268 58.72 156.936 58.5 156.648 58.22C156.368 57.94 156.148 57.616 155.988 57.248C155.828 56.88 155.748 56.484 155.748 56.06C155.748 55.644 155.828 55.252 155.988 54.884C156.148 54.508 156.368 54.18 156.648 53.9C156.928 53.62 157.252 53.4 157.62 53.24C157.988 53.08 158.384 53 158.808 53C159.216 53 159.596 53.08 159.948 53.24C160.308 53.392 160.62 53.6 160.884 53.864C161.148 54.128 161.356 54.44 161.508 54.8C161.668 55.152 161.748 55.532 161.748 55.94C161.748 56.052 161.744 56.152 161.736 56.24C161.728 56.32 161.72 56.392 161.712 56.456C161.704 56.536 161.696 56.604 161.688 56.66H157.428C157.516 56.932 157.684 57.172 157.932 57.38C158.188 57.58 158.54 57.68 158.988 57.68C159.244 57.68 159.468 57.648 159.66 57.584C159.852 57.52 160.016 57.444 160.152 57.356C160.304 57.26 160.436 57.148 160.548 57.02L161.388 58.16C161.212 58.336 160.996 58.496 160.74 58.64C160.524 58.76 160.26 58.872 159.948 58.976C159.636 59.072 159.276 59.12 158.868 59.12ZM160.068 55.46C159.98 55.188 159.82 54.952 159.588 54.752C159.364 54.544 159.084 54.44 158.748 54.44C158.412 54.44 158.128 54.544 157.896 54.752C157.672 54.952 157.516 55.188 157.428 55.46H160.068ZM162.952 53.12H164.572V53.96H164.632C164.76 53.784 164.908 53.624 165.076 53.48C165.22 53.36 165.4 53.252 165.616 53.156C165.832 53.052 166.084 53 166.372 53C166.668 53 166.948 53.06 167.212 53.18C167.476 53.292 167.704 53.456 167.896 53.672C168.096 53.88 168.252 54.136 168.364 54.44C168.476 54.744 168.532 55.084 168.532 55.46V59H166.912V55.7C166.912 55.34 166.816 55.06 166.624 54.86C166.432 54.66 166.168 54.56 165.832 54.56C165.472 54.56 165.172 54.684 164.932 54.932C164.692 55.172 164.572 55.488 164.572 55.88V59H162.952V53.12ZM172.849 59.12C172.417 59.12 172.009 59.04 171.625 58.88C171.249 58.72 170.917 58.5 170.629 58.22C170.349 57.94 170.129 57.616 169.969 57.248C169.809 56.88 169.729 56.484 169.729 56.06C169.729 55.644 169.809 55.252 169.969 54.884C170.129 54.508 170.349 54.18 170.629 53.9C170.917 53.62 171.249 53.4 171.625 53.24C172.009 53.08 172.417 53 172.849 53C173.273 53 173.637 53.064 173.941 53.192C174.245 53.312 174.501 53.448 174.709 53.6C174.949 53.776 175.149 53.976 175.309 54.2L174.289 55.22C174.177 55.084 174.049 54.964 173.905 54.86C173.777 54.772 173.625 54.692 173.449 54.62C173.273 54.54 173.073 54.5 172.849 54.5C172.641 54.5 172.445 54.54 172.261 54.62C172.077 54.7 171.917 54.808 171.781 54.944C171.645 55.08 171.537 55.244 171.457 55.436C171.385 55.628 171.349 55.836 171.349 56.06C171.349 56.284 171.385 56.492 171.457 56.684C171.537 56.876 171.645 57.04 171.781 57.176C171.917 57.312 172.077 57.42 172.261 57.5C172.445 57.58 172.641 57.62 172.849 57.62C173.073 57.62 173.273 57.584 173.449 57.512C173.625 57.432 173.777 57.348 173.905 57.26C174.049 57.156 174.177 57.036 174.289 56.9L175.309 57.92C175.149 58.144 174.949 58.344 174.709 58.52C174.501 58.672 174.245 58.812 173.941 58.94C173.637 59.06 173.273 59.12 172.849 59.12ZM177.043 61.52C176.891 61.52 176.747 61.512 176.611 61.496C176.483 61.48 176.371 61.46 176.275 61.436C176.163 61.404 176.059 61.372 175.963 61.34V59.84C176.019 59.864 176.083 59.884 176.155 59.9C176.291 59.94 176.447 59.96 176.623 59.96C176.895 59.96 177.111 59.892 177.271 59.756C177.431 59.62 177.555 59.448 177.643 59.24L177.763 58.94L175.483 53.12H177.223L178.603 57.02H178.663L179.983 53.12H181.723L179.323 59.48C179.075 60.144 178.767 60.648 178.399 60.992C178.039 61.344 177.587 61.52 177.043 61.52ZM185.025 50.6H188.745C189.193 50.6 189.597 50.668 189.957 50.804C190.325 50.94 190.637 51.132 190.893 51.38C191.149 51.628 191.345 51.928 191.481 52.28C191.617 52.624 191.685 53.004 191.685 53.42C191.685 53.9 191.609 54.3 191.457 54.62C191.313 54.94 191.149 55.192 190.965 55.376C190.757 55.592 190.517 55.76 190.245 55.88L191.985 59H190.005L188.505 56.24H186.825V59H185.025V50.6ZM188.685 54.56C189.021 54.56 189.293 54.456 189.501 54.248C189.717 54.032 189.825 53.756 189.825 53.42C189.825 53.084 189.717 52.812 189.501 52.604C189.293 52.388 189.021 52.28 188.685 52.28H186.825V54.56H188.685ZM195.829 59.12C195.397 59.12 194.989 59.04 194.605 58.88C194.229 58.72 193.897 58.5 193.609 58.22C193.329 57.94 193.109 57.616 192.949 57.248C192.789 56.88 192.709 56.484 192.709 56.06C192.709 55.644 192.789 55.252 192.949 54.884C193.109 54.508 193.329 54.18 193.609 53.9C193.889 53.62 194.213 53.4 194.581 53.24C194.949 53.08 195.345 53 195.769 53C196.177 53 196.557 53.08 196.909 53.24C197.269 53.392 197.581 53.6 197.845 53.864C198.109 54.128 198.317 54.44 198.469 54.8C198.629 55.152 198.709 55.532 198.709 55.94C198.709 56.052 198.705 56.152 198.697 56.24C198.689 56.32 198.681 56.392 198.673 56.456C198.665 56.536 198.657 56.604 198.649 56.66H194.389C194.477 56.932 194.645 57.172 194.893 57.38C195.149 57.58 195.501 57.68 195.949 57.68C196.205 57.68 196.429 57.648 196.621 57.584C196.813 57.52 196.977 57.444 197.113 57.356C197.265 57.26 197.397 57.148 197.509 57.02L198.349 58.16C198.173 58.336 197.957 58.496 197.701 58.64C197.485 58.76 197.221 58.872 196.909 58.976C196.597 59.072 196.237 59.12 195.829 59.12ZM197.029 55.46C196.941 55.188 196.781 54.952 196.549 54.752C196.325 54.544 196.045 54.44 195.709 54.44C195.373 54.44 195.089 54.544 194.857 54.752C194.633 54.952 194.477 55.188 194.389 55.46H197.029ZM199.073 53.12H200.813L202.169 57.08H202.217L203.573 53.12H205.313L203.093 59H201.293L199.073 53.12ZM206.03 53.12H207.65V59H206.03V53.12ZM206.834 52.34C206.578 52.34 206.358 52.252 206.174 52.076C205.998 51.892 205.91 51.68 205.91 51.44C205.91 51.2 206.002 50.992 206.186 50.816C206.37 50.632 206.59 50.54 206.846 50.54C207.102 50.54 207.318 50.632 207.494 50.816C207.678 50.992 207.77 51.2 207.77 51.44C207.77 51.68 207.678 51.892 207.494 52.076C207.31 52.252 207.09 52.34 206.834 52.34ZM211.966 59.12C211.534 59.12 211.126 59.04 210.742 58.88C210.366 58.72 210.034 58.5 209.746 58.22C209.466 57.94 209.246 57.616 209.086 57.248C208.926 56.88 208.846 56.484 208.846 56.06C208.846 55.644 208.926 55.252 209.086 54.884C209.246 54.508 209.466 54.18 209.746 53.9C210.026 53.62 210.35 53.4 210.718 53.24C211.086 53.08 211.482 53 211.906 53C212.314 53 212.694 53.08 213.046 53.24C213.406 53.392 213.718 53.6 213.982 53.864C214.246 54.128 214.454 54.44 214.606 54.8C214.766 55.152 214.846 55.532 214.846 55.94C214.846 56.052 214.842 56.152 214.834 56.24C214.826 56.32 214.818 56.392 214.81 56.456C214.802 56.536 214.794 56.604 214.786 56.66H210.526C210.614 56.932 210.782 57.172 211.03 57.38C211.286 57.58 211.638 57.68 212.086 57.68C212.342 57.68 212.566 57.648 212.758 57.584C212.95 57.52 213.114 57.444 213.25 57.356C213.402 57.26 213.534 57.148 213.646 57.02L214.486 58.16C214.31 58.336 214.094 58.496 213.838 58.64C213.622 58.76 213.358 58.872 213.046 58.976C212.734 59.072 212.374 59.12 211.966 59.12ZM213.166 55.46C213.078 55.188 212.918 54.952 212.686 54.752C212.462 54.544 212.182 54.44 211.846 54.44C211.51 54.44 211.226 54.544 210.994 54.752C210.77 54.952 210.614 55.188 210.526 55.46H213.166ZM215.21 53.12H216.95L218.03 56.6H218.09L219.23 53.12H220.55L221.69 56.6H221.75L222.83 53.12H224.57L222.506 59H221.03L219.914 55.58H219.866L218.75 59H217.274L215.21 53.12Z" fill="#0E1E36"/>
<path d="M317.638 50.6H319.678L322.918 59H320.998L320.278 57.08H317.038L316.318 59H314.398L317.638 50.6ZM319.678 55.46L318.682 52.7H318.634L317.638 55.46H319.678ZM323.755 53.12H325.375V53.96H325.435C325.555 53.784 325.707 53.624 325.891 53.48C326.051 53.36 326.243 53.252 326.467 53.156C326.699 53.052 326.975 53 327.295 53C327.639 53 327.971 53.076 328.291 53.228C328.611 53.38 328.891 53.592 329.131 53.864C329.379 54.128 329.575 54.448 329.719 54.824C329.863 55.2 329.935 55.612 329.935 56.06C329.935 56.508 329.863 56.92 329.719 57.296C329.575 57.672 329.379 57.996 329.131 58.268C328.891 58.54 328.611 58.752 328.291 58.904C327.971 59.048 327.639 59.12 327.295 59.12C326.975 59.12 326.699 59.072 326.467 58.976C326.243 58.872 326.051 58.76 325.891 58.64C325.707 58.496 325.555 58.336 325.435 58.16H325.375V61.52H323.755V53.12ZM326.815 57.62C327.023 57.62 327.219 57.58 327.403 57.5C327.587 57.42 327.747 57.312 327.883 57.176C328.019 57.04 328.123 56.876 328.195 56.684C328.275 56.492 328.315 56.284 328.315 56.06C328.315 55.836 328.275 55.628 328.195 55.436C328.123 55.244 328.019 55.08 327.883 54.944C327.747 54.808 327.587 54.7 327.403 54.62C327.219 54.54 327.023 54.5 326.815 54.5C326.607 54.5 326.411 54.54 326.227 54.62C326.043 54.7 325.883 54.808 325.747 54.944C325.611 55.08 325.503 55.244 325.423 55.436C325.351 55.628 325.315 55.836 325.315 56.06C325.315 56.284 325.351 56.492 325.423 56.684C325.503 56.876 325.611 57.04 325.747 57.176C325.883 57.312 326.043 57.42 326.227 57.5C326.411 57.58 326.607 57.62 326.815 57.62ZM331.137 53.12H332.757V53.96H332.817C332.937 53.784 333.089 53.624 333.273 53.48C333.433 53.36 333.625 53.252 333.849 53.156C334.081 53.052 334.357 53 334.677 53C335.021 53 335.353 53.076 335.673 53.228C335.993 53.38 336.273 53.592 336.513 53.864C336.761 54.128 336.957 54.448 337.101 54.824C337.245 55.2 337.317 55.612 337.317 56.06C337.317 56.508 337.245 56.92 337.101 57.296C336.957 57.672 336.761 57.996 336.513 58.268C336.273 58.54 335.993 58.752 335.673 58.904C335.353 59.048 335.021 59.12 334.677 59.12C334.357 59.12 334.081 59.072 333.849 58.976C333.625 58.872 333.433 58.76 333.273 58.64C333.089 58.496 332.937 58.336 332.817 58.16H332.757V61.52H331.137V53.12ZM334.197 57.62C334.405 57.62 334.601 57.58 334.785 57.5C334.969 57.42 335.129 57.312 335.265 57.176C335.401 57.04 335.505 56.876 335.577 56.684C335.657 56.492 335.697 56.284 335.697 56.06C335.697 55.836 335.657 55.628 335.577 55.436C335.505 55.244 335.401 55.08 335.265 54.944C335.129 54.808 334.969 54.7 334.785 54.62C334.601 54.54 334.405 54.5 334.197 54.5C333.989 54.5 333.793 54.54 333.609 54.62C333.425 54.7 333.265 54.808 333.129 54.944C332.993 55.08 332.885 55.244 332.805 55.436C332.733 55.628 332.697 55.836 332.697 56.06C332.697 56.284 332.733 56.492 332.805 56.684C332.885 56.876 332.993 57.04 333.129 57.176C333.265 57.312 333.425 57.42 333.609 57.5C333.793 57.58 333.989 57.62 334.197 57.62ZM338.52 53.12H340.14V53.96H340.2C340.328 53.784 340.476 53.624 340.644 53.48C340.788 53.36 340.968 53.252 341.184 53.156C341.4 53.052 341.652 53 341.94 53H342.06V54.74C342.02 54.732 341.976 54.724 341.928 54.716C341.88 54.708 341.82 54.7 341.748 54.692C341.684 54.684 341.608 54.68 341.52 54.68C341.128 54.68 340.8 54.82 340.536 55.1C340.272 55.38 340.14 55.76 340.14 56.24V59H338.52V53.12ZM345.722 59.12C345.29 59.12 344.882 59.04 344.498 58.88C344.122 58.72 343.79 58.5 343.502 58.22C343.222 57.94 343.002 57.616 342.842 57.248C342.682 56.88 342.602 56.484 342.602 56.06C342.602 55.644 342.682 55.252 342.842 54.884C343.002 54.508 343.222 54.18 343.502 53.9C343.79 53.62 344.122 53.4 344.498 53.24C344.882 53.08 345.29 53 345.722 53C346.154 53 346.558 53.08 346.934 53.24C347.318 53.4 347.65 53.62 347.93 53.9C348.218 54.18 348.442 54.508 348.602 54.884C348.762 55.252 348.842 55.644 348.842 56.06C348.842 56.484 348.762 56.88 348.602 57.248C348.442 57.616 348.218 57.94 347.93 58.22C347.65 58.5 347.318 58.72 346.934 58.88C346.558 59.04 346.154 59.12 345.722 59.12ZM345.722 57.62C345.93 57.62 346.126 57.58 346.31 57.5C346.494 57.42 346.654 57.312 346.79 57.176C346.926 57.04 347.03 56.876 347.102 56.684C347.182 56.492 347.222 56.284 347.222 56.06C347.222 55.836 347.182 55.628 347.102 55.436C347.03 55.244 346.926 55.08 346.79 54.944C346.654 54.808 346.494 54.7 346.31 54.62C346.126 54.54 345.93 54.5 345.722 54.5C345.514 54.5 345.318 54.54 345.134 54.62C344.95 54.7 344.79 54.808 344.654 54.944C344.518 55.08 344.41 55.244 344.33 55.436C344.258 55.628 344.222 55.836 344.222 56.06C344.222 56.284 344.258 56.492 344.33 56.684C344.41 56.876 344.518 57.04 344.654 57.176C344.79 57.312 344.95 57.42 345.134 57.5C345.318 57.58 345.514 57.62 345.722 57.62ZM349.2 53.12H350.94L352.296 57.08H352.344L353.7 53.12H355.44L353.22 59H351.42L349.2 53.12ZM358.917 59.12C358.485 59.12 358.077 59.04 357.693 58.88C357.317 58.72 356.985 58.5 356.697 58.22C356.417 57.94 356.197 57.616 356.037 57.248C355.877 56.88 355.797 56.484 355.797 56.06C355.797 55.644 355.877 55.252 356.037 54.884C356.197 54.508 356.417 54.18 356.697 53.9C356.977 53.62 357.301 53.4 357.669 53.24C358.037 53.08 358.433 53 358.857 53C359.265 53 359.645 53.08 359.997 53.24C360.357 53.392 360.669 53.6 360.933 53.864C361.197 54.128 361.405 54.44 361.557 54.8C361.717 55.152 361.797 55.532 361.797 55.94C361.797 56.052 361.793 56.152 361.785 56.24C361.777 56.32 361.769 56.392 361.761 56.456C361.753 56.536 361.745 56.604 361.737 56.66H357.477C357.565 56.932 357.733 57.172 357.981 57.38C358.237 57.58 358.589 57.68 359.037 57.68C359.293 57.68 359.517 57.648 359.709 57.584C359.901 57.52 360.065 57.444 360.201 57.356C360.353 57.26 360.485 57.148 360.597 57.02L361.437 58.16C361.261 58.336 361.045 58.496 360.789 58.64C360.573 58.76 360.309 58.872 359.997 58.976C359.685 59.072 359.325 59.12 358.917 59.12ZM360.117 55.46C360.029 55.188 359.869 54.952 359.637 54.752C359.413 54.544 359.133 54.44 358.797 54.44C358.461 54.44 358.177 54.544 357.945 54.752C357.721 54.952 357.565 55.188 357.477 55.46H360.117ZM365.281 59.12C364.937 59.12 364.605 59.048 364.285 58.904C363.965 58.752 363.681 58.54 363.433 58.268C363.193 57.996 363.001 57.672 362.857 57.296C362.713 56.92 362.641 56.508 362.641 56.06C362.641 55.612 362.713 55.2 362.857 54.824C363.001 54.448 363.193 54.128 363.433 53.864C363.681 53.592 363.965 53.38 364.285 53.228C364.605 53.076 364.937 53 365.281 53C365.593 53 365.865 53.052 366.097 53.156C366.329 53.252 366.525 53.36 366.685 53.48C366.869 53.624 367.021 53.784 367.141 53.96H367.201V50.6H368.821V59H367.201V58.16H367.141C367.021 58.336 366.869 58.496 366.685 58.64C366.525 58.76 366.329 58.872 366.097 58.976C365.865 59.072 365.593 59.12 365.281 59.12ZM365.761 57.62C365.969 57.62 366.165 57.58 366.349 57.5C366.533 57.42 366.693 57.312 366.829 57.176C366.965 57.04 367.069 56.876 367.141 56.684C367.221 56.492 367.261 56.284 367.261 56.06C367.261 55.836 367.221 55.628 367.141 55.436C367.069 55.244 366.965 55.08 366.829 54.944C366.693 54.808 366.533 54.7 366.349 54.62C366.165 54.54 365.969 54.5 365.761 54.5C365.553 54.5 365.357 54.54 365.173 54.62C364.989 54.7 364.829 54.808 364.693 54.944C364.557 55.08 364.449 55.244 364.369 55.436C364.297 55.628 364.261 55.836 364.261 56.06C364.261 56.284 364.297 56.492 364.369 56.684C364.449 56.876 364.557 57.04 364.693 57.176C364.829 57.312 364.989 57.42 365.173 57.5C365.357 57.58 365.553 57.62 365.761 57.62Z" fill="#0E1E36"/>
<circle cx="22.5" cy="20" r="20" fill="#2FC497"/>
<path d="M181.454 40.0142C191.922 40.0142 200.408 31.5282 200.408 21.0601C200.408 10.5921 191.922 2.10602 181.454 2.10602C170.986 2.10602 162.5 10.5921 162.5 21.0601C162.5 31.5282 170.986 40.0142 181.454 40.0142Z" fill="#F3A446"/>
<path d="M183.546 37.9082C194.014 37.9082 202.5 29.4221 202.5 18.9541C202.5 8.48604 194.014 0 183.546 0C173.078 0 164.592 8.48604 164.592 18.9541C164.592 29.4221 173.078 37.9082 183.546 37.9082Z" fill="#FFE5B6"/>
<path d="M170.084 19.2957C169.23 18.7691 168.718 19.253 168.419 19.9787C168.191 20.5336 168.135 21.1313 168.206 21.7289C168.291 22.4689 168.391 23.1946 168.561 23.9203C168.746 24.7457 169.102 26.5386 170.184 26.6525C171.863 26.809 171.678 24.1338 171.607 23.1235C171.507 21.8143 171.308 20.0641 170.084 19.2957Z" fill="#FFD99C"/>
<path d="M198.829 23.2231C198.217 24.1053 197.975 25.2295 197.52 26.1971C196.936 27.4351 196.111 28.2746 194.915 28.9577C194.247 29.3419 193.564 29.6976 193.009 30.2526C192.283 30.9925 191.813 32.0882 191.771 33.127C191.742 34.0377 192.041 34.8773 192.482 35.6884C196.936 33.2978 200.323 29.1996 201.746 24.2618C200.949 23.2373 199.697 21.9566 198.829 23.2231Z" fill="#FFD99C"/>
<path d="M168.405 11.2842C169.373 12.4938 170.54 13.6606 172.005 14.2583C174.994 15.4678 177.669 13.1341 179.305 10.8289C180.06 9.77587 180.714 8.62326 181.625 7.68409C182.592 6.67378 183.773 6.07613 185.154 5.84845C186.876 5.57808 188.597 5.62077 190.177 4.78121C191.258 4.21202 192.183 3.40092 193.037 2.53291C190.248 0.924937 187.018 0 183.56 0C176.531 0 170.397 3.82782 167.139 9.50551C167.523 10.1174 167.936 10.715 168.405 11.2842Z" fill="#FFD99C"/>
<path d="M198.687 10.4162C197.107 8.83669 195.528 7.25718 193.948 5.67768C193.749 5.47846 193.45 5.79151 193.649 5.9765C195.229 7.55601 196.808 9.13552 198.388 10.715C198.587 10.9142 198.886 10.6154 198.687 10.4162Z" fill="white"/>
<path d="M197.164 11.8392L195.556 10.2312C195.357 10.032 195.058 10.345 195.257 10.53L196.865 12.138C197.064 12.3372 197.363 12.0384 197.164 11.8392Z" fill="#FFD99C"/>
<path d="M173.059 31.5617C172.304 30.8075 171.55 30.0533 170.796 29.2991C170.597 29.0999 170.298 29.413 170.497 29.598C171.166 30.2668 171.821 30.9213 172.489 31.5901L172.76 31.8605C172.945 32.0597 173.258 31.7467 173.059 31.5617Z" fill="#FFD99C"/>
<path d="M167.381 16.2077L166.143 14.9697C165.944 14.7705 165.645 15.0836 165.844 15.2686C166.257 15.6812 166.669 16.0939 167.082 16.5065C167.281 16.7058 167.58 16.3927 167.381 16.2077Z" fill="#FFD99C"/>
<path d="M190.448 31.3198L189.594 30.466C189.395 30.2668 189.096 30.5798 189.295 30.7648L190.149 31.6186C190.334 31.8178 190.633 31.519 190.448 31.3198Z" fill="#FFD99C"/>
<path d="M174.026 8.23903C173.044 7.25717 172.062 6.27531 171.081 5.29346C170.881 5.09424 170.582 5.4073 170.782 5.59229C171.764 6.57414 172.745 7.556 173.727 8.53785C173.912 8.73707 174.211 8.42402 174.026 8.23903Z" fill="#FFE5B6"/>
<path d="M174.112 5.86267C173.514 5.26502 172.916 4.66736 172.305 4.05548C172.105 3.85627 171.806 4.16932 172.006 4.35431C172.603 4.95196 173.201 5.54961 173.813 6.16149C174.012 6.36071 174.311 6.06188 174.112 5.86267Z" fill="#FFE5B6"/>
<path d="M196.879 31.3767L196.025 30.523C195.826 30.3237 195.527 30.6368 195.726 30.8218L196.58 31.6756C196.779 31.8748 197.078 31.576 196.879 31.3767Z" fill="#FFE5B6"/>
<path d="M174.397 26.5386L168.52 20.6617C168.32 20.4625 168.022 20.7755 168.221 20.9605L174.098 26.8374C174.297 27.0366 174.596 26.7378 174.397 26.5386Z" fill="#FFE5B6"/>
<path d="M172.646 36.3144L170.084 33.7531C169.885 33.5539 169.586 33.8669 169.786 34.0519L172.347 36.6133C172.546 36.8125 172.845 36.5137 172.646 36.3144Z" fill="#FFE5B6"/>
<path d="M175.107 37.1682C174.794 36.8552 174.481 36.5421 174.154 36.2148C173.954 36.0156 173.656 36.3287 173.855 36.5137C174.168 36.8267 174.481 37.1398 174.808 37.4671C175.007 37.6663 175.306 37.3675 175.107 37.1682Z" fill="#FFE5B6"/>
<path d="M192.298 13.0345C192.298 15.6813 191.103 18.0577 189.239 19.6514C188.157 20.5763 186.848 21.2309 185.397 21.5297V25.6706C185.397 26.4248 184.927 27.0651 184.273 27.3213C184.073 27.4066 183.846 27.4493 183.618 27.4493C182.636 27.4493 181.839 26.6525 181.839 25.6706V19.936C181.839 19.7083 181.882 19.4806 181.967 19.2814C182.224 18.6269 182.864 18.1573 183.618 18.1573C184.785 18.1573 185.852 17.7731 186.706 17.1185C187.944 16.1793 188.741 14.6994 188.741 13.0345C188.741 10.217 186.45 7.91182 183.618 7.91182C181.953 7.91182 180.473 8.70869 179.534 9.94668C178.88 10.8005 178.495 11.8819 178.495 13.0345C178.495 13.7887 178.026 14.4291 177.371 14.6852C177.172 14.7706 176.944 14.8133 176.717 14.8133C175.735 14.8133 174.938 14.0164 174.938 13.0345C174.938 10.9001 175.721 8.93637 177.001 7.41378C178.595 5.53544 180.971 4.35437 183.618 4.35437C188.399 4.35437 192.298 8.25334 192.298 13.0345Z" fill="#0E1E36"/>
<path d="M185.397 31.6471C185.397 32.4013 184.927 33.0417 184.273 33.2978C184.074 33.3832 183.846 33.4259 183.618 33.4259C182.636 33.4259 181.839 32.629 181.839 31.6471C181.839 31.4195 181.882 31.1918 181.968 30.9926C182.224 30.338 182.864 29.8684 183.618 29.8684C184.6 29.8684 185.397 30.6653 185.397 31.6471Z" fill="#0E1E36"/>
<path d="M191.302 14.0306C191.302 16.1651 190.52 18.1288 189.239 19.6514C188.157 20.5763 186.848 21.2309 185.397 21.5297V22.2555C185.07 22.3693 184.742 22.4547 184.401 22.5258V26.6667C184.401 26.8944 184.358 27.1221 184.273 27.3213C184.073 27.4067 183.846 27.4493 183.618 27.4493C182.636 27.4493 181.839 26.6525 181.839 25.6706V19.936C181.839 19.7083 181.882 19.4807 181.967 19.2814C182.167 19.1961 182.394 19.1534 182.622 19.1534C184.287 19.1534 185.767 18.3565 186.706 17.1185C187.944 16.1793 188.741 14.6994 188.741 13.0346C188.741 10.2171 186.45 7.91183 183.618 7.91183C181.953 7.91183 180.473 8.7087 179.534 9.94669C178.296 10.8859 177.499 12.3658 177.499 14.0306C177.499 14.2583 177.457 14.486 177.371 14.6852C177.172 14.7706 176.944 14.8133 176.717 14.8133C175.735 14.8133 174.938 14.0164 174.938 13.0346C174.938 10.9001 175.721 8.93637 177.001 7.41378C178.524 6.11887 180.473 5.35046 182.622 5.35046C187.403 5.35046 191.302 9.24943 191.302 14.0306Z" fill="#4A57F6"/>
<path d="M184.401 32.6432C184.401 32.8708 184.358 33.0985 184.273 33.2977C184.074 33.3831 183.846 33.4258 183.618 33.4258C182.636 33.4258 181.839 32.6289 181.839 31.6471C181.839 31.4194 181.882 31.1917 181.968 30.9925C182.167 30.9071 182.394 30.8644 182.622 30.8644C183.604 30.8644 184.401 31.6613 184.401 32.6432Z" fill="#4A57F6"/>
<path d="M185.396 21.5297V23.0239L184.4 22.5258L185.396 21.5297Z" fill="#0E1E36"/>
<path d="M189.993 9.84705C189.523 9.37747 189.039 8.89366 188.57 8.42407C188.371 8.22486 188.072 8.53791 188.271 8.7229C188.741 9.19248 189.224 9.6763 189.694 10.1459C189.893 10.3451 190.192 10.032 189.993 9.84705Z" fill="#0E1E36"/>
<path d="M191.344 11.7823C191.088 11.5262 190.831 11.27 190.59 11.0281C190.39 10.8289 190.092 11.142 190.291 11.327C190.547 11.5831 190.803 11.8392 191.045 12.0811C191.244 12.2804 191.543 11.9815 191.344 11.7823Z" fill="#0E1E36"/>
<path d="M177.727 11.3839C177.314 10.9712 176.901 10.5585 176.489 10.1459C176.289 9.94666 175.991 10.2597 176.19 10.4447C176.602 10.8574 177.015 11.27 177.428 11.6827C177.627 11.8819 177.926 11.5831 177.727 11.3839Z" fill="#0E1E36"/>
<path d="M184.756 22.0135C184.158 21.4159 183.56 20.8182 182.948 20.2064C182.749 20.0071 182.45 20.3202 182.65 20.5052C183.247 21.1028 183.845 21.7005 184.457 22.3124C184.642 22.5116 184.94 22.1985 184.756 22.0135Z" fill="#0E1E36"/>
<path d="M184.001 23.8492C183.745 23.593 183.489 23.3369 183.247 23.095C183.048 22.8958 182.749 23.2088 182.948 23.3938C183.204 23.6499 183.461 23.9061 183.702 24.148C183.902 24.3472 184.2 24.0484 184.001 23.8492Z" fill="#0E1E36"/>
<path d="M171.764 18.9399C172.191 18.9256 172.547 18.5983 172.547 18.1572C172.547 17.6165 172.547 9.73318 172.547 9.19245C172.547 8.77978 172.191 8.39558 171.764 8.40981C171.337 8.42404 170.981 8.75132 170.981 9.19245C170.981 9.73318 170.981 17.6165 170.981 18.1572C170.995 18.5699 171.351 18.9541 171.764 18.9399Z" fill="white"/>
<path d="M194.759 8.82246L191.913 5.9765C191.714 5.77729 191.415 6.09034 191.614 6.27533C192.567 7.22873 193.507 8.16789 194.46 9.12129C194.645 9.32051 194.944 9.02168 194.759 8.82246Z" fill="white"/>
<circle cx="342.5" cy="20" r="20" fill="#E7E9EB"/>
<path d="M355.257 17.2356L345.607 26.8863L341.58 30.9127C340.494 31.9992 338.747 31.9992 337.66 30.9127L333.634 26.8863L339.62 20.8999L349.271 11.2598C350.347 10.1733 352.104 10.1733 353.191 11.2598L355.257 13.3263C356.333 14.4022 356.333 16.1597 355.257 17.2356Z" fill="#3E4B5E"/>
<path d="M345.606 26.8863L341.579 30.9127C340.493 31.9992 338.746 31.9992 337.659 30.9127L333.633 26.8863L328.307 21.5603C327.231 20.4738 327.231 18.7268 328.307 17.6403L330.373 15.5738C331.46 14.4873 333.207 14.4873 334.293 15.5738L345.606 26.8863Z" fill="#3E4B5E"/>
<path d="M356.694 15.7975L347.044 25.4482L343.017 29.4747C342.485 30.0073 341.782 30.2736 341.089 30.2842C340.375 30.2949 339.651 30.0179 339.108 29.4747L335.071 25.4482L341.057 19.4618L342.868 17.651L350.697 9.82175C351.304 9.21459 352.114 8.94829 352.913 9.02285C353.531 9.07611 354.138 9.34241 354.617 9.82175L356.684 11.8882C357.77 12.9641 357.77 14.7217 356.694 15.7975Z" fill="#3E4B5E"/>
<path d="M347.044 25.4483L343.018 29.4747C341.931 30.5612 340.184 30.5612 339.098 29.4747L335.071 25.4483L329.745 20.1223C328.67 19.0358 328.67 17.2888 329.745 16.2023L331.812 14.1359C332.898 13.0494 334.645 13.0494 335.732 14.1359L347.044 25.4483Z" fill="#3E4B5E"/>
<path d="M352.923 9.01222C352.902 9.1507 352.881 9.28917 352.859 9.4383C352.732 10.3437 352.838 11.1533 352.018 11.7391C351.496 12.1119 350.91 12.3782 350.495 12.9002C350.196 13.273 350.005 13.7204 349.824 14.1678C349.323 15.3715 348.971 16.7243 348.109 17.7469C347.693 18.2475 347.139 18.6097 346.479 18.6736C345.701 18.7481 345.382 18.1729 344.956 17.6403C344.657 17.2569 344.253 16.916 343.752 17.1503C343.635 17.2036 343.528 17.2888 343.432 17.3634C343.336 17.4379 343.251 17.5125 343.155 17.5764C343.07 17.6297 342.974 17.651 342.878 17.651L350.708 9.82177C351.315 9.20396 352.124 8.93766 352.923 9.01222Z" fill="#868E9A"/>
<path d="M344.583 27.9088L343.017 29.4747C342.485 30.0073 341.782 30.2736 341.089 30.2842C341.079 30.2203 341.079 30.1564 341.079 30.0925C341.057 29.6984 341.079 29.2297 341.388 28.9421C341.686 28.6651 342.123 28.6758 342.474 28.516C343.071 28.2284 343.39 27.3336 344.178 27.6532C344.317 27.7171 344.455 27.8023 344.583 27.9088Z" fill="#868E9A"/>
<path d="M347.001 22.9344C347.981 21.9544 348.95 20.9851 349.93 20.0051C350.431 19.5045 349.653 18.7162 349.153 19.2275C348.173 20.2075 347.203 21.1768 346.223 22.1568C345.712 22.6575 346.5 23.4351 347.001 22.9344Z" fill="white"/>
<path d="M331.79 19.2381C331.587 19.4618 331.577 19.8027 331.79 20.0157C332.056 20.282 332.333 20.559 332.599 20.8253C332.802 21.0277 333.174 21.049 333.377 20.8253C333.579 20.6016 333.59 20.2607 333.377 20.0477C333.11 19.7814 332.833 19.5044 332.567 19.2381C332.365 19.0358 331.992 19.0251 331.79 19.2381Z" fill="white"/>
<path d="M348.641 13.9334C348.62 13.8695 348.577 13.8269 348.514 13.8056C348.46 13.7949 348.407 13.8056 348.364 13.8482L347.949 14.2636L347.896 14.3062L346.532 15.6697C346.49 15.7123 346.479 15.7656 346.49 15.8188C346.5 15.8721 346.554 15.9253 346.618 15.9466C346.628 15.9466 346.649 15.9466 346.66 15.9466C346.703 15.9466 346.745 15.9253 346.767 15.8934L348.194 14.466L348.247 14.4234L348.599 14.0719C348.641 14.0399 348.652 13.9867 348.641 13.9334Z" fill="#3E4B5E"/>
<path d="M349.419 11.9841C349.387 11.9522 349.355 11.9415 349.313 11.9308C349.27 11.9308 349.228 11.9415 349.185 11.9841L348.631 12.538C348.556 12.6126 348.578 12.7084 348.631 12.7617C348.663 12.7937 348.706 12.815 348.748 12.815C348.791 12.815 348.823 12.8043 348.855 12.7617L349.409 12.2078C349.441 12.1758 349.462 12.1332 349.462 12.08C349.473 12.048 349.451 12.0054 349.419 11.9841Z" fill="#3E4B5E"/>
<path d="M338.501 29.7304L337.181 28.4095C337.031 28.2604 336.797 28.4947 336.946 28.6439L338.267 29.9647C338.416 30.1245 338.651 29.8901 338.501 29.7304Z" fill="#868E9A"/>
<path d="M354.106 16.8095C354.085 16.7562 354.042 16.703 353.978 16.6923C353.925 16.6817 353.872 16.6923 353.829 16.7349L351.731 18.8334C351.656 18.9079 351.677 19.0038 351.731 19.0677C351.763 19.0997 351.805 19.121 351.848 19.121C351.89 19.121 351.922 19.1103 351.954 19.0677L354.053 16.9693C354.106 16.9267 354.117 16.8627 354.106 16.8095Z" fill="#868E9A"/>
<path d="M354.33 15.5419C354.309 15.4886 354.266 15.4354 354.202 15.4141C354.149 15.4034 354.096 15.4141 354.053 15.4567L353.116 16.394C353.041 16.4686 353.062 16.5645 353.116 16.6284C353.148 16.6603 353.18 16.671 353.222 16.6816H353.233C353.275 16.6816 353.318 16.6603 353.339 16.6284L354.277 15.691C354.33 15.6484 354.341 15.5951 354.33 15.5419Z" fill="#3E4B5E"/>
<path d="M343.742 17.619C343.7 17.5764 343.636 17.5551 343.582 17.5764C343.561 17.5871 343.54 17.5977 343.518 17.619L342.634 18.5031C342.592 18.5457 342.581 18.599 342.592 18.6523C342.602 18.7055 342.656 18.7588 342.709 18.7801C342.72 18.7801 342.741 18.7801 342.752 18.7801C342.794 18.7801 342.837 18.7588 342.858 18.7268L343.742 17.8427C343.817 17.7681 343.795 17.6723 343.742 17.619Z" fill="#868E9A"/>
<path d="M343.188 19.334C343.146 19.334 343.103 19.3446 343.06 19.3872L342.73 19.7175C342.688 19.7601 342.677 19.8133 342.688 19.8666C342.709 19.9198 342.752 19.9731 342.816 19.9944C342.826 19.9944 342.847 19.9944 342.858 19.9944C342.901 19.9944 342.943 19.9731 342.965 19.9411L343.295 19.6109C343.369 19.5364 343.348 19.4405 343.295 19.3872C343.263 19.3553 343.231 19.334 343.188 19.334Z" fill="#868E9A"/>
<path d="M338.213 17.7788L336.892 16.458C336.818 16.3834 336.722 16.4047 336.668 16.458C336.615 16.5219 336.594 16.6178 336.668 16.6923L337.989 18.0132C338.021 18.0451 338.064 18.0664 338.096 18.0664H338.106C338.149 18.0664 338.181 18.0451 338.213 18.0132C338.245 17.9812 338.256 17.9493 338.266 17.9067C338.266 17.8641 338.256 17.8108 338.213 17.7788Z" fill="#868E9A"/>
<path d="M336.008 22.7533L334.847 21.5923C334.815 21.5603 334.773 21.539 334.72 21.5496C334.677 21.5496 334.645 21.5709 334.613 21.6029C334.602 21.6136 334.602 21.6242 334.592 21.6349C334.57 21.6562 334.56 21.6881 334.56 21.7094C334.56 21.752 334.57 21.7946 334.602 21.8373L335.433 22.6681L335.763 22.9983C335.795 23.0303 335.838 23.0516 335.87 23.0516C335.913 23.0516 335.955 23.0303 335.987 22.9983C336.062 22.9238 336.083 22.8279 336.008 22.7533Z" fill="#868E9A"/>
<path d="M340.152 27.0567L339.438 26.343C339.395 26.3004 339.342 26.2898 339.289 26.3004C339.225 26.3111 339.182 26.3643 339.161 26.4176C339.15 26.4708 339.161 26.5241 339.204 26.5667L339.917 27.2804C339.949 27.3124 339.992 27.323 340.024 27.323H340.035C340.077 27.323 340.109 27.3017 340.141 27.2697C340.205 27.2271 340.226 27.1313 340.152 27.0567Z" fill="#868E9A"/>
<path d="M340.259 28.3775L339.758 27.8769C339.747 27.8662 339.737 27.8662 339.737 27.8556C339.662 27.813 339.588 27.8236 339.534 27.8769C339.481 27.9301 339.46 28.0367 339.534 28.1006L340.035 28.6012C340.067 28.6332 340.11 28.6438 340.142 28.6438C340.152 28.6438 340.173 28.6438 340.184 28.6438C340.237 28.6332 340.28 28.5906 340.301 28.5373V28.5267C340.323 28.4734 340.301 28.4201 340.259 28.3775Z" fill="#3E4B5E"/>
<path d="M330.821 19.2168L330.438 18.8333C330.395 18.7907 330.342 18.7801 330.288 18.7907C330.235 18.8014 330.182 18.8546 330.171 18.9185C330.161 18.9718 330.171 19.0251 330.214 19.0677L330.597 19.4511C330.629 19.4831 330.672 19.5044 330.704 19.5044C330.747 19.5044 330.789 19.4831 330.821 19.4511C330.874 19.3872 330.896 19.2914 330.821 19.2168Z" fill="#868E9A"/>
<path d="M335.678 20.8679L332.643 17.8321C332.568 17.7575 332.472 17.7788 332.419 17.8321C332.366 17.8853 332.344 17.9919 332.419 18.0664L335.455 21.1022C335.487 21.1342 335.529 21.1555 335.561 21.1555C335.572 21.1555 335.593 21.1555 335.604 21.1555C335.657 21.1342 335.71 21.0916 335.721 21.0277C335.732 20.9744 335.721 20.9105 335.678 20.8679Z" fill="#3E4B5E"/>
<path d="M353.542 12.7085C353.531 12.6978 353.51 12.6978 353.489 12.6978C353.457 12.6978 353.414 12.7085 353.382 12.7298L352.722 13.1985C352.669 13.2304 352.647 13.2837 352.658 13.3476C352.669 13.4115 352.701 13.4648 352.754 13.4861C352.775 13.4967 352.796 13.4967 352.818 13.4967C352.85 13.4967 352.882 13.4861 352.914 13.4648L353.574 12.9961C353.595 12.9748 353.617 12.9641 353.627 12.9322C353.638 12.9002 353.649 12.8789 353.638 12.8469C353.627 12.7937 353.595 12.7298 353.542 12.7085Z" fill="white"/>
<path d="M351.976 13.7417C351.923 13.7204 351.87 13.7204 351.827 13.763L351.167 14.2316C351.082 14.2956 351.082 14.3914 351.135 14.466C351.167 14.5086 351.209 14.5406 351.263 14.5406C351.295 14.5406 351.327 14.5299 351.358 14.5086L352.019 14.0399C352.072 14.008 352.093 13.9547 352.083 13.8908C352.072 13.8162 352.03 13.763 351.976 13.7417Z" fill="white"/>
<path d="M352.785 13.9654C352.754 13.9121 352.7 13.8908 352.636 13.9015C352.572 13.9121 352.519 13.9441 352.498 13.9973C352.477 14.0506 352.477 14.1039 352.519 14.1465L352.988 14.8069C353.02 14.8495 353.062 14.8814 353.116 14.8814H353.126C353.19 14.8814 353.244 14.8388 353.265 14.7856C353.286 14.7323 353.286 14.6791 353.244 14.6365L352.785 13.9654Z" fill="white"/>
<path d="M351.753 12.4102C351.721 12.3569 351.668 12.3356 351.604 12.3356C351.54 12.3463 351.487 12.3782 351.465 12.4315C351.444 12.4848 351.444 12.538 351.476 12.5806L351.945 13.2411C351.977 13.2837 352.019 13.3156 352.072 13.3156H352.083C352.147 13.3156 352.2 13.273 352.222 13.2197C352.243 13.1665 352.243 13.1132 352.211 13.0706L351.753 12.4102Z" fill="white"/>
<line x1="54" y1="20" x2="150" y2="20" stroke="#2FC497" stroke-width="4" stroke-linecap="round"/>
<line x1="214.5" y1="20" x2="310.5" y2="20" stroke="#E7E9EB" stroke-width="4" stroke-linecap="round"/>
<path d="M11.2871 10.694L9.27747 12.7037C9.27747 12.7037 11.3389 14.6822 11.256 14.5061C11.1731 14.33 11.2871 10.694 11.2871 10.694Z" fill="#0E1E36"/>
<path d="M31.9421 30.8938H11.1933C9.70163 30.8938 8.5 29.6922 8.5 28.2005V14.5682C8.5 13.0766 9.70163 11.8749 11.1933 11.8749H31.9318C33.4235 11.8749 34.6251 13.0766 34.6251 14.5682V28.2005C34.6354 29.6922 33.4235 30.8938 31.9421 30.8938Z" fill="#0E1E36"/>
<path d="M36.5 12.7037V26.336C36.5 27.8276 35.2983 29.0293 33.8067 29.0293H13.0682C11.5765 29.0293 10.3749 27.8276 10.3749 26.336V12.7037C10.3749 11.9786 10.6649 11.3156 11.1311 10.8391C11.2139 10.7459 11.3072 10.663 11.4004 10.5905C11.5558 10.4662 11.7319 10.3522 11.908 10.2693C12.2602 10.1036 12.6538 10.0104 13.0578 10.0104H33.7963C34.2107 10.0104 34.6043 10.1036 34.9461 10.2693C35.1326 10.3522 35.2983 10.4662 35.4537 10.5905C36.096 11.0773 36.5 11.8439 36.5 12.7037Z" fill="#EAF9F5"/>
<path d="M20.4756 20.0171C17.5647 22.9279 14.6539 25.8388 11.743 28.7496C11.598 28.8946 11.8259 29.1122 11.9606 28.9671L20.6931 20.2346C20.8381 20.0896 20.6206 19.872 20.4756 20.0171Z" fill="#0E1E36"/>
<path d="M34.791 28.7496C31.8801 25.8387 28.9693 22.9279 26.0585 20.017C25.9134 19.872 25.6959 20.0999 25.8409 20.2346L34.5734 28.9671C34.7081 29.1121 34.9256 28.8946 34.791 28.7496Z" fill="#0E1E36"/>
<path d="M14.1243 12.6519C14.4558 12.6001 14.7976 12.5276 15.0462 12.2893C15.2327 12.1132 15.3363 11.8853 15.5331 11.7196C16.4447 10.9219 17.8846 11.2431 18.9723 11.2534C20.2153 11.2638 21.4998 11.3467 22.7222 11.1188C23.6234 10.953 24.3796 10.5801 24.9908 10H13.0677C12.6533 10 12.2597 10.0932 11.9179 10.259C11.7314 10.3418 11.5657 10.4558 11.4103 10.5801L13.5442 12.714C13.7307 12.714 13.9275 12.6829 14.1243 12.6519Z" fill="#EAF9F5"/>
<path d="M23.4374 21.6641C22.6812 21.6641 21.9561 21.3637 21.4278 20.825L11.2968 10.694L11.5144 10.4765L21.6453 20.6075C22.1218 21.084 22.7641 21.3533 23.4374 21.3533C24.1107 21.3533 24.753 21.0943 25.2295 20.6075L35.3605 10.4765L35.578 10.694L25.447 20.825C24.9084 21.374 24.1936 21.6641 23.4374 21.6641Z" fill="#0E1E36"/>
<path d="M14.7565 19.6545H12.4776C12.2808 19.6545 12.2808 19.9652 12.4776 19.9652H14.7565C14.9533 19.9652 14.9533 19.6545 14.7565 19.6545Z" fill="#2FC497"/>
<path d="M20.6927 26.5638H19.6568C19.46 26.5638 19.46 26.8746 19.6568 26.8746H20.6927C20.8895 26.8746 20.8895 26.5638 20.6927 26.5638Z" fill="#EAF9F5"/>
<path d="M24.5569 27.6722H21.584C21.3871 27.6722 21.3871 27.983 21.584 27.983H24.5569C24.7641 27.983 24.7641 27.6722 24.5569 27.6722Z" fill="#EAF9F5"/>
<path d="M35.6096 15.4488H33.8175C33.6207 15.4488 33.6207 15.7596 33.8175 15.7596H35.6096C35.8064 15.7596 35.8064 15.4488 35.6096 15.4488Z" fill="#2FC497"/>
<path d="M19.2732 15.9874L15.285 12.0303C15.14 11.8853 14.9225 12.1132 15.0675 12.2479L19.0556 16.205C19.1903 16.35 19.4182 16.1221 19.2732 15.9874Z" fill="#EAF9F5"/>
<path d="M19.76 14.185C19.4803 13.9053 19.211 13.6256 18.9313 13.3563C18.7863 13.2113 18.5688 13.4288 18.7138 13.5738C18.9935 13.8535 19.2628 14.1332 19.5425 14.4025C19.6772 14.5476 19.9051 14.33 19.76 14.185Z" fill="#EAF9F5"/>
<path d="M27.7054 14.8687L25.9755 13.1491C25.8305 13.0041 25.6129 13.232 25.758 13.3666C26.3381 13.9467 26.9078 14.5165 27.4879 15.0966C27.6329 15.2312 27.8505 15.0137 27.7054 14.8687Z" fill="#EAF9F5"/>
<path d="M25.2294 19.2194C25.0429 19.033 24.8564 18.8465 24.6803 18.6704C24.5353 18.5254 24.3178 18.7533 24.4628 18.8879C24.6493 19.0744 24.8357 19.2609 25.0118 19.437C25.1465 19.5716 25.3744 19.3541 25.2294 19.2194Z" fill="#EAF9F5"/>
<path d="M17.6156 26.9471H12.6434C12.5605 26.9471 12.488 26.8746 12.488 26.7917V21.8194C12.488 21.7366 12.5605 21.6641 12.6434 21.6641H17.6156C17.6985 21.6641 17.771 21.7366 17.771 21.8194V26.7917C17.771 26.8746 17.7088 26.9471 17.6156 26.9471ZM12.7987 26.6363H17.4602V21.9748H12.7987V26.6363Z" fill="#2FC497"/>
<path d="M20.8274 23.5287H18.6521C18.4553 23.5287 18.4553 23.8395 18.6521 23.8395H20.8274C21.0346 23.8395 21.0346 23.5287 20.8274 23.5287Z" fill="#2FC497"/>
<path d="M26.2027 17.7381C26.4306 17.9453 26.7828 17.966 27.0107 17.7381C27.2904 17.4584 29.7765 14.9723 30.0562 14.6926C30.2634 14.4854 30.2841 14.1021 30.0562 13.8846C29.8283 13.6774 29.4968 13.6774 29.2482 13.8846C28.606 14.4129 26.3374 16.754 26.2027 16.9301C26.0162 17.1683 25.9748 17.5309 26.2027 17.7381Z" fill="#2FC497"/>
</svg>
