<svg width="64" height="64" viewBox="0 0 64 64" fill="none" xmlns="http://www.w3.org/2000/svg">
<rect opacity="0.25" x="32.0001" y="50.0007" width="12" height="12" rx="1" transform="rotate(-20 32.0001 50.0007)" fill="#6E7886"/>
<rect opacity="0.25" width="12" height="12" rx="1" transform="matrix(-0.939693 -0.34202 -0.34202 0.939693 32 50.0005)" fill="#6E7886"/>
<path d="M31.2318 2.49823C31.6991 2.19516 32.3009 2.19516 32.7682 2.49823L37.5512 5.60029C37.8008 5.7622 38.0952 5.8411 38.3924 5.8257L44.0856 5.53072C44.6418 5.5019 45.163 5.8028 45.4162 6.29892L48.0073 11.3769C48.1426 11.6419 48.3581 11.8574 48.6231 11.9927L53.7011 14.5838C54.1972 14.837 54.4981 15.3582 54.4693 15.9144L54.1743 21.6076C54.1589 21.9048 54.2378 22.1992 54.3997 22.4488L57.5018 27.2318C57.8048 27.6991 57.8048 28.3009 57.5018 28.7682L54.3997 33.5512C54.2378 33.8008 54.1589 34.0952 54.1743 34.3924L54.4693 40.0856C54.4981 40.6418 54.1972 41.163 53.7011 41.4162L48.6231 44.0073C48.3581 44.1426 48.1426 44.3581 48.0073 44.6231L45.4162 49.7011C45.163 50.1972 44.6418 50.4981 44.0856 50.4693L38.3924 50.1743C38.0952 50.1589 37.8008 50.2378 37.5512 50.3997L32.7682 53.5018C32.3009 53.8048 31.6991 53.8048 31.2318 53.5018L26.4488 50.3997C26.1992 50.2378 25.9048 50.1589 25.6076 50.1743L19.9144 50.4693C19.3582 50.4981 18.837 50.1972 18.5838 49.7011L15.9927 44.6231C15.8574 44.3581 15.6419 44.1426 15.3769 44.0073L10.2989 41.4162C9.8028 41.163 9.5019 40.6418 9.53072 40.0856L9.8257 34.3924C9.8411 34.0952 9.7622 33.8008 9.60029 33.5512L6.49823 28.7682C6.19516 28.3009 6.19516 27.6991 6.49823 27.2318L9.60029 22.4488C9.7622 22.1992 9.8411 21.9048 9.8257 21.6076L9.53072 15.9144C9.5019 15.3582 9.8028 14.837 10.2989 14.5838L15.3769 11.9927C15.6419 11.8574 15.8574 11.6419 15.9927 11.3769L18.5838 6.29892C18.837 5.8028 19.3582 5.5019 19.9144 5.53072L25.6076 5.8257C25.9048 5.8411 26.1992 5.7622 26.4488 5.60029L31.2318 2.49823Z" fill="#6E7886"/>
<circle cx="32" cy="28" r="19" stroke="#CFD2D7" stroke-width="2" stroke-dasharray="3 3"/>
</svg>
