<svg width="24" height="24" viewBox="0 0 24 24" fill="none" xmlns="http://www.w3.org/2000/svg">
<g clip-path="url(#clip0_12910_45606)">
<path d="M12.4484 2.03818L14.8457 6.89565C15.0642 7.33836 15.4865 7.64522 15.9751 7.71621L21.3356 8.49514C21.7457 8.55473 21.9095 9.05872 21.6127 9.34799L17.7338 13.129C17.3803 13.4736 17.219 13.9701 17.3024 14.4567L18.2181 19.7956C18.2882 20.204 17.8594 20.5155 17.4926 20.3227L12.698 17.802C12.261 17.5723 11.739 17.5723 11.302 17.802L6.50738 20.3227C6.14056 20.5155 5.71185 20.204 5.7819 19.7956L6.69759 14.4567C6.78105 13.9701 6.61973 13.4736 6.2662 13.129L2.38728 9.34799C2.09052 9.05872 2.25428 8.55473 2.66438 8.49514L8.02492 7.71621C8.51349 7.64522 8.93583 7.33836 9.15433 6.89565L11.5516 2.03818C11.735 1.66655 12.265 1.66656 12.4484 2.03818Z" stroke="white"/>
</g>
<defs>
<clipPath id="clip0_12910_45606">
<rect width="24" height="24" fill="white"/>
</clipPath>
</defs>
</svg>
