<svg width="20" height="23" viewBox="0 0 20 23" fill="none" xmlns="http://www.w3.org/2000/svg">
<path d="M5.25 2.5C5.25 1.67157 5.92157 1 6.75 1H15.75C17.4069 1 18.75 2.34315 18.75 4V19C18.75 20.6569 17.4069 22 15.75 22H6.75C5.92157 22 5.25 21.3284 5.25 20.5V2.5Z" fill="#0E1E36" fill-opacity="0.25" stroke="white" stroke-width="1.5"/>
<path d="M3.75 10.75C3.33579 10.75 3 11.0858 3 11.5C3 11.9142 3.33579 12.25 3.75 12.25V10.75ZM6.75 12.25C7.16421 12.25 7.5 11.9142 7.5 11.5C7.5 11.0858 7.16421 10.75 6.75 10.75V12.25ZM3.75 12.25H6.75V10.75H3.75V12.25Z" fill="white"/>
<path d="M3.75 15.75C3.33579 15.75 3 16.0858 3 16.5C3 16.9142 3.33579 17.25 3.75 17.25V15.75ZM6.75 17.25C7.16421 17.25 7.5 16.9142 7.5 16.5C7.5 16.0858 7.16421 15.75 6.75 15.75V17.25ZM3.75 17.25H6.75V15.75H3.75V17.25Z" fill="white"/>
<path d="M3.75 5.75C3.33579 5.75 3 6.08579 3 6.5C3 6.91421 3.33579 7.25 3.75 7.25V5.75ZM6.75 7.25C7.16421 7.25 7.5 6.91421 7.5 6.5C7.5 6.08579 7.16421 5.75 6.75 5.75V7.25ZM3.75 7.25H6.75V5.75H3.75V7.25Z" fill="white"/>
<path d="M9.75 9.25C9.33579 9.25 9 9.58579 9 10C9 10.4142 9.33579 10.75 9.75 10.75V9.25ZM14.25 10.75C14.6642 10.75 15 10.4142 15 10C15 9.58579 14.6642 9.25 14.25 9.25V10.75ZM9.75 10.75H14.25V9.25H9.75V10.75Z" fill="white"/>
<path d="M10.5 12.5C10.0858 12.5 9.75 12.8358 9.75 13.25C9.75 13.6642 10.0858 14 10.5 14V12.5ZM13.5 14C13.9142 14 14.25 13.6642 14.25 13.25C14.25 12.8358 13.9142 12.5 13.5 12.5V14ZM10.5 14H13.5V12.5H10.5V14Z" fill="white"/>
</svg>
