<svg width="110" height="24" viewBox="0 0 110 24" fill="none" xmlns="http://www.w3.org/2000/svg">
<path d="M4.78166 18.5069C3.96621 18.5069 3.16088 18.4226 2.36565 18.2542C1.57717 18.0857 0.896511 17.8835 0.323679 17.6476L0.0810685 13.6344H0.2327C0.758357 15.0699 1.40869 16.1515 2.1837 16.8794C2.9587 17.6005 3.84828 17.961 4.85242 17.961C5.72851 17.961 6.4058 17.7555 6.88428 17.3444C7.36277 16.9265 7.60201 16.2998 7.60201 15.4641C7.60201 14.9991 7.46048 14.5779 7.17744 14.2005C6.90113 13.8231 6.53385 13.4794 6.07558 13.1694C5.61732 12.8527 5.00742 12.4888 4.24589 12.0777L3.63936 11.7542C2.91827 11.3633 2.29826 10.9792 1.77935 10.6018C1.26717 10.2177 0.839228 9.76615 0.495529 9.24723C0.158569 8.72157 -0.00654098 8.12853 0.000198212 7.46808C0.000198212 6.59199 0.23607 5.85742 0.707813 5.26437C1.17956 4.66458 1.82652 4.21979 2.6487 3.93001C3.47762 3.63348 4.42448 3.48522 5.48927 3.48522C6.14297 3.48522 6.83037 3.56946 7.55146 3.73794C8.27256 3.89968 8.91952 4.10186 9.49235 4.34447L9.79562 8.35766H9.65409C9.14865 6.97612 8.52865 5.91133 7.79407 5.16328C7.06624 4.40849 6.16656 4.0311 5.09503 4.0311C4.63002 4.0311 4.22567 4.12208 3.88197 4.30403C3.54501 4.48599 3.28555 4.73871 3.1036 5.06219C2.92164 5.38567 2.83066 5.7597 2.83066 6.18427C2.83066 6.61558 2.93849 6.99297 3.15414 7.31645C3.37653 7.63993 3.67306 7.92635 4.04371 8.1757C4.41437 8.41831 4.91307 8.69799 5.53981 9.01473L6.29797 9.38875C7.11342 9.78637 7.81766 10.2042 8.41071 10.6422C9.0105 11.0803 9.49909 11.6059 9.87649 12.2192C10.2606 12.8257 10.4527 13.5232 10.4527 14.3117C10.4527 15.262 10.2033 16.0504 9.70464 16.6772C9.20594 17.3039 8.52865 17.7656 7.67277 18.0621C6.82363 18.3586 5.85993 18.5069 4.78166 18.5069Z" fill="white"/>
<path d="M14.886 18.5069C14.3132 18.5069 13.7976 18.3991 13.3394 18.1834C12.8878 17.9677 12.5306 17.6443 12.2678 17.213C12.005 16.7816 11.8736 16.256 11.8736 15.636V8.41831H10.5797V8.29701L14.7748 5.55752H14.9568V8.03418H18.0399V8.41831H14.9669V15.636C14.9669 16.1684 15.0848 16.5727 15.3207 16.849C15.5565 17.1253 15.8969 17.2635 16.3417 17.2635C16.7191 17.2635 17.0695 17.2197 17.393 17.1321C17.7232 17.0445 18.0029 16.9198 18.232 16.7581L18.3331 16.9097C17.9692 17.368 17.4873 17.7487 16.8875 18.052C16.2878 18.3553 15.6206 18.5069 14.886 18.5069Z" fill="white"/>
<path d="M22.1296 18.5069C21.5972 18.5069 21.1018 18.3957 20.6436 18.1733C20.192 17.9442 19.8281 17.6005 19.5518 17.1422C19.2755 16.6839 19.1373 16.1246 19.1373 15.4641V9.783L17.9951 8.84288V8.67103L22.1194 7.77135L22.2306 7.88254V14.7666C22.2306 15.454 22.3519 16.0134 22.5946 16.4447C22.8439 16.8693 23.2516 17.0815 23.8177 17.0815C24.2086 17.0815 24.6062 17.0074 25.0106 16.8591C25.4149 16.7041 25.7283 16.502 25.9507 16.2526V9.783L24.8185 8.84288V8.67103L28.9429 7.77135L29.044 7.88254V16.4649L30.1054 17.5769V17.6982L26.3854 18.5069L26.0214 16.7783C25.7586 17.0546 25.4183 17.3275 25.0004 17.5971C24.5826 17.8599 24.121 18.0789 23.6155 18.2542C23.1101 18.4226 22.6148 18.5069 22.1296 18.5069Z" fill="white"/>
<path d="M34.3668 18.5069C33.5514 18.5069 32.8371 18.298 32.2238 17.8801C31.6173 17.4623 31.1489 16.8794 30.8187 16.1313C30.4884 15.3833 30.3233 14.5274 30.3233 13.5637C30.3233 12.445 30.5491 11.4476 31.0006 10.5715C31.4521 9.68865 32.0957 9.00125 32.9314 8.50929C33.7671 8.01733 34.7375 7.77135 35.8427 7.77135C36.5706 7.77135 37.2142 7.94994 37.7735 8.30711V5.01165L36.8132 4.06142V3.89968L40.7253 3L40.8668 3.1112V16.4548L41.9181 17.5769V17.6982L38.2082 18.5069L37.8342 16.9097C37.3557 17.3882 36.8401 17.7757 36.2875 18.0722C35.7416 18.362 35.1014 18.5069 34.3668 18.5069ZM36.0651 17.0917C36.6919 17.0917 37.2613 16.8827 37.7735 16.4649V9.93463C37.6859 9.36854 37.5006 8.9406 37.2175 8.65081C36.9345 8.36103 36.584 8.21614 36.1662 8.21614C35.6271 8.21614 35.1621 8.39809 34.7712 8.76201C34.3871 9.12593 34.0905 9.65158 33.8816 10.339C33.6795 11.0264 33.5784 11.8519 33.5784 12.8156C33.5784 14.2039 33.794 15.2653 34.2253 15.9999C34.6566 16.7277 35.2699 17.0917 36.0651 17.0917Z" fill="white"/>
<path d="M44.8351 6.35612C44.5049 6.35612 44.2084 6.28873 43.9455 6.15394C43.6894 6.01242 43.4873 5.82035 43.339 5.57774C43.1907 5.32839 43.1166 5.04535 43.1166 4.7286C43.1166 4.42534 43.1907 4.14903 43.339 3.89968C43.4873 3.65033 43.6928 3.4549 43.9556 3.31337C44.2185 3.17185 44.5116 3.10109 44.8351 3.10109C45.1721 3.10109 45.472 3.17185 45.7348 3.31337C46.0044 3.4549 46.2133 3.65033 46.3615 3.89968C46.5098 4.14903 46.5839 4.42534 46.5839 4.7286C46.5839 5.20709 46.4188 5.59796 46.0886 5.90122C45.7651 6.20449 45.3473 6.35612 44.8351 6.35612ZM47.7667 18.2643H42.1866V18.1126L43.43 16.8591V9.783L42.2978 8.84288V8.67103L46.4222 7.77135L46.5233 7.88254V16.849L47.7667 18.1126V18.2643Z" fill="white"/>
<path d="M53.3726 18.5069C52.328 18.5069 51.3812 18.2778 50.532 17.8195C49.6896 17.3545 49.0258 16.7143 48.5406 15.8988C48.0554 15.0766 47.8128 14.1567 47.8128 13.1391C47.8128 12.1282 48.0554 11.2151 48.5406 10.3996C49.0258 9.58419 49.693 8.94397 50.5421 8.47896C51.3913 8.00722 52.3348 7.77135 53.3726 7.77135C54.4172 7.77135 55.364 8.00385 56.2132 8.46885C57.0623 8.93386 57.7295 9.57745 58.2147 10.3996C58.6999 11.2151 58.9425 12.1282 58.9425 13.1391C58.9425 14.1567 58.6999 15.0766 58.2147 15.8988C57.7295 16.7143 57.0623 17.3545 56.2132 17.8195C55.3708 18.2778 54.4239 18.5069 53.3726 18.5069ZM53.3827 18.1329C54.124 18.1329 54.6935 17.7015 55.0911 16.8389C55.4954 15.9696 55.6976 14.7363 55.6976 13.1391C55.6976 11.5554 55.4954 10.3289 55.0911 9.45952C54.6867 8.59016 54.1139 8.15548 53.3726 8.15548C52.6245 8.15548 52.0517 8.59016 51.6541 9.45952C51.2632 10.3221 51.0678 11.5487 51.0678 13.1391C51.0678 14.743 51.2666 15.9763 51.6642 16.8389C52.0618 17.7015 52.6346 18.1329 53.3827 18.1329Z" fill="white"/>
<path d="M63.2444 18.5069C62.584 18.5069 61.8865 18.426 61.1519 18.2643C60.4241 18.1093 59.858 17.9273 59.4536 17.7184L60.1006 14.9587H60.3028C60.5858 15.5787 60.9194 16.1886 61.3035 16.7884C61.6877 17.3882 62.0718 17.8094 62.4559 18.052C62.7659 18.1059 63.0524 18.1329 63.3152 18.1329C64.0093 18.1329 64.508 17.9846 64.8113 17.6881C65.1146 17.3848 65.2662 16.9973 65.2662 16.5256C65.2662 16.2021 65.1718 15.919 64.9831 15.6764C64.7944 15.4338 64.5485 15.2215 64.2452 15.0396C63.9419 14.8509 63.5308 14.6352 63.0119 14.3926L62.4054 14.0995C61.8393 13.8366 61.3541 13.5671 60.9497 13.2907C60.5454 13.0077 60.2118 12.664 59.949 12.2597C59.6861 11.8486 59.5547 11.3667 59.5547 10.8141C59.5547 9.80995 59.9456 9.0518 60.7273 8.53962C61.5091 8.02744 62.5638 7.77135 63.8914 7.77135C64.3901 7.77135 64.9326 7.82863 65.5189 7.9432C66.112 8.05102 66.6376 8.18581 67.0959 8.34755L66.641 11.0163H66.4792C66.021 10.2884 65.6335 9.7055 65.3167 9.26745C65.0067 8.8294 64.7102 8.47896 64.4272 8.21614C64.3058 8.1757 64.1138 8.15548 63.851 8.15548C63.2781 8.15548 62.8401 8.30374 62.5368 8.60027C62.2335 8.89005 62.0819 9.25397 62.0819 9.69202C62.0819 10.1031 62.2437 10.4603 62.5671 10.7636C62.8974 11.0668 63.3758 11.3667 64.0026 11.6632L64.7405 12.017C65.3336 12.3001 65.8424 12.5831 66.267 12.8662C66.6915 13.1492 67.0487 13.503 67.3385 13.9276C67.6283 14.3454 67.7732 14.8307 67.7732 15.3833C67.7732 16.0504 67.5744 16.6199 67.1767 17.0917C66.7859 17.5567 66.2467 17.9105 65.5593 18.1531C64.8787 18.3889 64.107 18.5069 63.2444 18.5069Z" fill="white"/>
<path d="M67.9406 22.4695V22.3179L69.1839 21.0543V9.783L68.0416 8.83277V8.67103L72.166 7.77135L72.2772 7.88254V9.25734C72.6883 8.7856 73.1634 8.42168 73.7026 8.16559C74.2484 7.90276 74.8348 7.77135 75.4615 7.77135C76.2972 7.77135 77.0351 7.98026 77.6753 8.39809C78.3155 8.81592 78.8142 9.40897 79.1714 10.1772C79.5286 10.9388 79.7072 11.8216 79.7072 12.8257C79.7072 13.9175 79.4915 14.8947 79.0602 15.7573C78.6289 16.6132 78.0022 17.2871 77.18 17.779C76.3645 18.2643 75.3941 18.5069 74.2687 18.5069C73.8643 18.5069 73.4903 18.453 73.1466 18.3451C72.8096 18.2373 72.5198 18.1025 72.2772 17.9408V21.0543L73.6621 22.3179V22.4695H67.9406ZM73.8845 18.1329C74.4304 18.1329 74.8954 17.9408 75.2795 17.5567C75.6704 17.1658 75.9636 16.6233 76.159 15.9291C76.3612 15.2283 76.4623 14.4196 76.4623 13.503C76.4623 12.0811 76.2365 10.9826 75.785 10.2076C75.3335 9.43256 74.6865 9.04506 73.8441 9.04506C73.2443 9.04506 72.722 9.25734 72.2772 9.68191V16.9602C72.4659 17.3444 72.6984 17.6375 72.9747 17.8397C73.2578 18.0351 73.561 18.1329 73.8845 18.1329Z" fill="white"/>
<path d="M82.8567 18.5069C82.331 18.5069 81.8627 18.4193 81.4516 18.2441C81.0472 18.0621 80.7305 17.8026 80.5013 17.4657C80.2722 17.1287 80.1576 16.7277 80.1576 16.2627C80.1576 15.5416 80.4205 14.9115 80.9461 14.3724C81.4785 13.8333 82.1861 13.4053 83.069 13.0886C83.9585 12.7718 84.9425 12.5697 86.0207 12.482V11.2083C86.0207 10.5412 85.8253 10.0222 85.4344 9.65158C85.0436 9.27419 84.437 9.08549 83.6149 9.08549C83.1431 9.08549 82.6949 9.14277 82.2704 9.25734C81.8458 9.37191 81.4145 9.55386 80.9765 9.80322L80.845 9.61115C81.3977 9.0518 82.0716 8.61038 82.8668 8.2869C83.6688 7.95668 84.5348 7.79157 85.4648 7.79157C86.4015 7.79157 87.1361 7.93646 87.6685 8.22624C88.2076 8.51603 88.5816 8.92038 88.7906 9.4393C89.0062 9.95148 89.114 10.5816 89.114 11.3296V16.4548L90.1755 17.5769V17.6982L86.4655 18.5069L86.1117 16.9703C85.6804 17.4421 85.1817 17.8161 84.6156 18.0924C84.0563 18.3687 83.47 18.5069 82.8567 18.5069ZM84.555 17.0411C85.1345 17.0411 85.6231 16.8861 86.0207 16.5761V12.8662C85.1244 13.0144 84.4168 13.3177 83.8979 13.776C83.3857 14.2342 83.1296 14.8037 83.1296 15.4844C83.1296 15.9763 83.2442 16.3604 83.4733 16.6368C83.7092 16.9063 84.0697 17.0411 84.555 17.0411Z" fill="white"/>
<path d="M95.3366 18.5069C94.3796 18.5069 93.5305 18.2946 92.7892 17.87C92.0479 17.4455 91.4683 16.8457 91.0505 16.0707C90.6394 15.2889 90.4338 14.3892 90.4338 13.3716C90.4338 12.2731 90.6764 11.2993 91.1617 10.4502C91.6536 9.60104 92.3343 8.94397 93.2036 8.47896C94.073 8.00722 95.0603 7.77135 96.1655 7.77135C96.7249 7.77135 97.3146 7.832 97.9346 7.95331C98.5613 8.06787 99.0701 8.19929 99.461 8.34755L98.9859 11.3499H98.7837C98.3659 10.6018 97.9952 9.9818 97.6717 9.48984C97.355 8.99114 97.0382 8.57331 96.7215 8.23635C96.7148 8.23635 96.6541 8.22287 96.5395 8.19592C96.4317 8.16896 96.3003 8.15548 96.1453 8.15548C95.3501 8.1757 94.7402 8.56994 94.3156 9.33821C93.8978 10.0997 93.6889 11.1342 93.6889 12.4416C93.6889 13.3581 93.8169 14.15 94.073 14.8172C94.3358 15.4776 94.7099 15.9831 95.1951 16.3335C95.687 16.6839 96.2666 16.8591 96.9338 16.8591C97.4729 16.8591 98.0019 16.7682 98.5209 16.5862C99.0465 16.4043 99.4677 16.1684 99.7845 15.8786L99.926 16.01C99.4408 16.8052 98.8174 17.4219 98.0559 17.8599C97.2943 18.2912 96.3879 18.5069 95.3366 18.5069Z" fill="white"/>
<path d="M106.765 16.8591C107.338 16.8591 107.874 16.7682 108.372 16.5862C108.871 16.3975 109.286 16.1616 109.616 15.8786L109.768 16.01C109.262 16.8187 108.632 17.4387 107.877 17.87C107.129 18.2946 106.226 18.5069 105.168 18.5069C104.184 18.5069 103.318 18.2879 102.57 17.8498C101.822 17.4118 101.242 16.8019 100.831 16.0201C100.427 15.2316 100.225 14.3353 100.225 13.3312C100.225 12.2462 100.444 11.2825 100.882 10.4401C101.327 9.59767 101.947 8.94397 102.742 8.47896C103.537 8.00722 104.44 7.77135 105.451 7.77135C106.388 7.77135 107.2 7.98026 107.887 8.39809C108.575 8.80918 109.097 9.37191 109.454 10.0863C109.818 10.7939 110 11.5857 110 12.4618H103.389V12.7348C103.389 13.5569 103.524 14.2814 103.793 14.9082C104.063 15.5282 104.45 16.01 104.956 16.3537C105.468 16.6907 106.071 16.8591 106.765 16.8591ZM105.299 8.21614C104.625 8.21614 104.15 8.6306 103.874 9.45952C103.605 10.2817 103.446 11.1881 103.399 12.1788L106.947 11.9564C106.947 10.649 106.812 9.69876 106.543 9.10571C106.28 8.51266 105.866 8.21614 105.299 8.21614Z" fill="white"/>
</svg>
