<svg width="16" height="16" viewBox="0 0 16 16" fill="none" xmlns="http://www.w3.org/2000/svg">
<path fill-rule="evenodd" clip-rule="evenodd" d="M4.7007 6.06803C6.17818 6.06803 7.37591 4.8703 7.37591 3.39283C7.37591 1.91535 6.17818 0.717621 4.7007 0.717621C3.22323 0.717621 2.0255 1.91535 2.0255 3.39283C2.0255 4.8703 3.22323 6.06803 4.7007 6.06803ZM11.2402 8.00029C12.7176 8.00029 13.9154 6.80256 13.9154 5.32508C13.9154 3.84761 12.7176 2.64988 11.2402 2.64988C9.76268 2.64988 8.56495 3.84761 8.56495 5.32508C8.56495 6.80256 9.76268 8.00029 11.2402 8.00029ZM6.73216 12.9007C6.19177 13.092 5.6007 13.202 4.98987 13.202H4.41166C1.12388 13.202 -1.59156 10.0158 1.08811 8.11085C2.10774 7.38601 3.35448 6.95981 4.70077 6.95981C6.04705 6.95981 7.29379 7.38601 8.31342 8.11085C8.83919 8.4846 9.15726 8.90768 9.30407 9.34634C9.91364 9.14764 10.5644 9.04021 11.2403 9.04021C12.5866 9.04021 13.8334 9.46641 14.853 10.1913C17.5327 12.0962 14.8172 15.2824 11.5295 15.2824H10.9512C9.02544 15.2824 7.29601 14.1892 6.73216 12.9007Z" fill="#F8F8F8"/>
</svg>
