<svg width="16" height="16" viewBox="0 0 16 16" fill="none" xmlns="http://www.w3.org/2000/svg">
<path d="M15.9999 3C15.9999 1.34277 14.6572 0 12.9999 0H12.2499C11.6972 0 11.2499 0.447275 11.2499 1C11.2499 1.55273 11.6972 2 12.2499 2H12.9999C13.2656 2 13.5195 2.10547 13.707 2.29297C13.8945 2.48048 13.9999 2.73438 13.9999 3V3.75C13.9999 4.30272 14.4472 4.75 14.9999 4.75C15.5527 4.75 15.9999 4.30272 15.9999 3.75V3Z" fill="#0E1E36"/>
<path d="M1 4.75C1.26562 4.75 1.51953 4.64453 1.70703 4.45702C1.89453 4.26952 2 4.01562 2 3.75V3C2 2.44727 2.44727 2 3 2H3.75C4.30272 2 4.75 1.55273 4.75 1C4.75 0.447275 4.30272 0 3.75 0H3C1.34277 0 0 1.34277 0 3V3.75C0 4.01562 0.10547 4.26952 0.292975 4.45702C0.48048 4.64452 0.734375 4.75 1 4.75Z" fill="#0E1E36"/>
<path d="M3 16H3.75C4.30272 16 4.75 15.5527 4.75 15C4.75 14.4473 4.30272 14 3.75 14H3C2.44727 14 2 13.5527 2 13V12.25C2 11.6973 1.55273 11.25 1 11.25C0.447275 11.25 0 11.6973 0 12.25V13C0 14.6572 1.34277 16 3 16Z" fill="#0E1E36"/>
<path d="M12.2499 16H12.9999C14.6572 16 15.9999 14.6572 15.9999 13V12.25C15.9999 11.6973 15.5527 11.25 14.9999 11.25C14.4472 11.25 13.9999 11.6973 13.9999 12.25V13C13.9999 13.2656 13.8945 13.5195 13.707 13.707C13.5195 13.8945 13.2656 14 12.9999 14H12.2499C11.6972 14 11.2499 14.4473 11.2499 15C11.2499 15.5527 11.6972 16 12.2499 16Z" fill="#0E1E36"/>
<path d="M12.1651 11.0674C12.4297 10.793 13.75 9.33983 13.75 7.99988C13.75 6.65993 12.4297 5.20988 12.1651 4.93238C10.9776 3.68433 9.50007 2.99976 8.00007 2.99976C6.50007 2.99976 5.02257 3.68433 3.83507 4.93238C3.57042 5.20973 2.25012 6.65993 2.25012 7.99988C2.25012 9.33983 3.57042 10.7929 3.83507 11.0674C5.02257 12.3154 6.50007 13 8.00007 13C9.50007 13 10.9776 12.3154 12.1651 11.0674ZM8.00007 11C5.75007 11 4.25007 8.5 4.25007 8C4.25007 7.5 5.75007 5 8.00007 5C10.2501 5 11.7501 7.5 11.7501 8C11.7501 8.5 10.2501 11 8.00007 11Z" fill="#0E1E36"/>
<path d="M8.99994 7.99999C8.99994 9.33299 6.99994 9.33299 6.99994 7.99999C6.99994 6.66699 8.99994 6.66699 8.99994 7.99999Z" fill="#0E1E36"/>
</svg>
