<svg width="16" height="16" viewBox="0 0 16 16" fill="none" xmlns="http://www.w3.org/2000/svg">
<circle cx="8" cy="8" r="8" fill="#E4536B"/>
<path d="M7.91996 12.12C7.64796 12.12 7.41996 12.028 7.23596 11.844C7.05196 11.66 6.95996 11.432 6.95996 11.16C6.95996 10.888 7.05196 10.66 7.23596 10.476C7.41996 10.292 7.64796 10.2 7.91996 10.2C8.19196 10.2 8.41996 10.292 8.60396 10.476C8.78796 10.66 8.87996 10.888 8.87996 11.16C8.87996 11.432 8.78796 11.66 8.60396 11.844C8.41996 12.028 8.19196 12.12 7.91996 12.12ZM6.95996 3.60001H8.87996L8.57996 9.42001H7.25996L6.95996 3.60001Z" fill="white"/>
</svg>
