<svg width="16" height="16" viewBox="0 0 16 16" fill="none" xmlns="http://www.w3.org/2000/svg">
<circle cx="8" cy="8" r="8" fill="#F3A446"/>
<path d="M7.92001 12.12C7.64801 12.12 7.42001 12.028 7.23601 11.844C7.05201 11.66 6.96001 11.432 6.96001 11.16C6.96001 10.888 7.05201 10.66 7.23601 10.476C7.42001 10.292 7.64801 10.2 7.92001 10.2C8.19201 10.2 8.42001 10.292 8.60401 10.476C8.78801 10.66 8.88001 10.888 8.88001 11.16C8.88001 11.432 8.78801 11.66 8.60401 11.844C8.42001 12.028 8.19201 12.12 7.92001 12.12ZM6.96001 3.6H8.88001L8.58001 9.42H7.26001L6.96001 3.6Z" fill="#F8F8F8"/>
</svg>
