<svg width="30" height="20" viewBox="0 0 30 20" fill="none" xmlns="http://www.w3.org/2000/svg">
<path fill-rule="evenodd" clip-rule="evenodd" d="M26.1616 0.597366C27.3916 0.926623 28.3583 1.89323 28.6875 3.12324C29.2825 5.35042 29.2849 10 29.2849 10C29.2849 10 29.2849 14.6496 28.6875 16.8768C28.3583 18.1068 27.3916 19.0734 26.1616 19.4026C23.9345 20 14.9998 20 14.9998 20C14.9998 20 6.06526 20 3.83807 19.4026C2.60807 19.0734 1.64147 18.1068 1.31221 16.8768C0.714844 14.6496 0.714844 10 0.714844 10C0.714844 10 0.714844 5.35042 1.31221 3.12324C1.64147 1.89323 2.60807 0.926623 3.83807 0.597366C6.06526 0 14.9998 0 14.9998 0C14.9998 0 23.9345 0 26.1616 0.597366ZM19.563 10.0004L12.1406 14.2854V5.71533L19.563 10.0004Z" fill="white"/>
</svg>
