<svg width="60" height="45" viewBox="0 0 60 45" fill="none" xmlns="http://www.w3.org/2000/svg">
<g clip-path="url(#clip0_3405_12605)">
<path d="M0 0H60V45H0V0Z" fill="#EE1C25"/>
<path d="M7.20006 16.65L11.25 4.5L15.3 16.65L4.50009 9.225H17.9999L7.20006 16.65Z" fill="#FFFF00"/>
<path d="M24.766 4.73275L20.5981 5.65639L23.3783 2.4167L23.1056 6.77689L20.7927 2.91681L24.766 4.73275Z" fill="#FFFF00"/>
<path d="M28.9724 10.064L24.7725 9.29887L28.5915 7.39102L26.6492 11.3042L26.0143 6.84918L28.9724 10.064Z" fill="#FFFF00"/>
<path d="M28.3594 17.5427L24.8368 15.1312L29.1018 14.9468L25.7324 17.7275L26.9697 13.401L28.3594 17.5427Z" fill="#FFFF00"/>
<path d="M23.0615 22.4286L20.7436 18.8436L24.7489 20.3209L20.5669 21.5844L23.3792 18.0715L23.0615 22.4286Z" fill="#FFFF00"/>
</g>
<defs>
<clipPath id="clip0_3405_12605">
<rect width="60" height="45" fill="white"/>
</clipPath>
</defs>
</svg>
