<svg width="60" height="45" viewBox="0 0 60 45" fill="none" xmlns="http://www.w3.org/2000/svg">
<g clip-path="url(#clip0_3405_22852)">
<path d="M0 0H60V15H0V0Z" fill="#FF9933"/>
<path d="M0 15H60V30H0V15Z" fill="white"/>
<path d="M0 30H60V45H0V30Z" fill="#128807"/>
<path d="M30 28.5C33.3137 28.5 36 25.8137 36 22.5C36 19.1863 33.3137 16.5 30 16.5C26.6863 16.5 24 19.1863 24 22.5C24 25.8137 26.6863 28.5 30 28.5Z" fill="#000088"/>
<path d="M30 27.75C32.8995 27.75 35.25 25.3995 35.25 22.5C35.25 19.6005 32.8995 17.25 30 17.25C27.1005 17.25 24.75 19.6005 24.75 22.5C24.75 25.3995 27.1005 27.75 30 27.75Z" fill="white"/>
<path d="M30 23.5502C30.5799 23.5502 31.05 23.0801 31.05 22.5002C31.05 21.9203 30.5799 21.4502 30 21.4502C29.4201 21.4502 28.95 21.9203 28.95 22.5002C28.95 23.0801 29.4201 23.5502 30 23.5502Z" fill="#000088"/>
<path d="M35.1698 23.4554C35.3176 23.4749 35.4532 23.3708 35.4727 23.2229C35.4922 23.0751 35.3881 22.9395 35.2402 22.92C35.0924 22.9005 34.9568 23.0046 34.9373 23.1525C34.9178 23.3003 35.0219 23.4359 35.1698 23.4554Z" fill="#000088"/>
<path d="M30 27.7506L30.18 24.6006L30 23.1006L29.82 24.6006L30 27.7506Z" fill="#000088"/>
</g>
<defs>
<clipPath id="clip0_3405_22852">
<rect width="60" height="45" fill="white"/>
</clipPath>
</defs>
</svg>
