<svg width="60" height="45" viewBox="0 0 60 45" fill="none" xmlns="http://www.w3.org/2000/svg">
<g clip-path="url(#clip0_3405_26342)">
<path fill-rule="evenodd" clip-rule="evenodd" d="M-1.875 0H65.625V45H-1.875V0Z" fill="white"/>
<path fill-rule="evenodd" clip-rule="evenodd" d="M-1.875 0H65.625V22.5H-1.875V0Z" fill="#DF0000"/>
<path fill-rule="evenodd" clip-rule="evenodd" d="M13.6875 3.76864C11.9117 4.15027 10.3213 5.13124 9.1832 6.54685C8.04514 7.96246 7.42877 9.72651 7.43756 11.5428C7.44636 13.3592 8.07979 15.1172 9.2315 16.5217C10.3832 17.9262 11.9831 18.8917 13.7625 19.2561C12.7431 19.5511 11.6755 19.6419 10.621 19.5234C9.56644 19.4049 8.54566 19.0794 7.61719 18.5655C6.68872 18.0516 5.87083 17.3595 5.21042 16.5288C4.55002 15.6982 4.0601 14.7453 3.76875 13.7249C3.1901 11.6737 3.44712 9.47688 4.48363 7.61469C5.52013 5.75249 7.25179 4.37644 9.3 3.78739C10.8 3.35614 12.1875 3.34677 13.6969 3.76864H13.6875Z" fill="white"/>
<path fill-rule="evenodd" clip-rule="evenodd" d="M12.4688 10.3123L12.9281 11.7186L11.7094 10.8561L10.5094 11.7373L10.95 10.3123L9.75 9.44043L11.2406 9.42168L11.7094 8.01543L12.1781 9.42168H13.6594L12.4688 10.3123ZM14.1094 15.1873L14.5781 16.6029L13.3594 15.7404L12.15 16.6123L12.6 15.1967L11.4 14.3154L12.8906 14.3061L13.35 12.8904L13.8187 14.2967H15.3187L14.1094 15.1873ZM19.5938 15.1498L20.0531 16.5748L18.8344 15.7029L17.6344 16.5748L18.075 15.1592L16.875 14.2873L18.3656 14.2686L18.8344 12.8623L19.3031 14.2686H20.7844L19.5938 15.1498ZM21.225 10.3123L21.6844 11.7279L20.4656 10.8654L19.2656 11.7373L19.7156 10.3217L18.5062 9.44043L20.0062 9.43105L20.4562 8.01543L20.925 9.42168H22.425L21.225 10.3123ZM16.8844 7.09668L17.3531 8.52168L16.1344 7.6498L14.925 8.53105L15.375 7.10605L14.175 6.2248L15.6562 6.21543L16.125 4.7998L16.5938 6.20605H18.0938L16.8844 7.09668Z" fill="white"/>
</g>
<defs>
<clipPath id="clip0_3405_26342">
<rect width="60" height="45" fill="white"/>
</clipPath>
</defs>
</svg>
