<svg width="60" height="45" viewBox="0 0 60 45" fill="none" xmlns="http://www.w3.org/2000/svg">
<g clip-path="url(#clip0_3405_27750)">
<path fill-rule="evenodd" clip-rule="evenodd" d="M0 0H60V45H0V0Z" fill="#E30A17"/>
<path fill-rule="evenodd" clip-rule="evenodd" d="M38.1562 23.2035C38.1562 29.4098 33.0375 34.4441 26.7188 34.4441C20.4 34.4441 15.2812 29.4098 15.2812 23.1941C15.2812 16.9785 20.4 11.9629 26.7188 11.9629C33.0375 11.9629 38.1562 16.9973 38.1562 23.2035Z" fill="white"/>
<path fill-rule="evenodd" clip-rule="evenodd" d="M38.7188 23.2035C38.7188 28.1723 34.6313 32.1941 29.5781 32.1941C24.525 32.1941 20.4281 28.1629 20.4281 23.1941C20.4281 18.2254 24.525 14.2129 29.5781 14.2129C34.6313 14.2129 38.7281 18.2348 38.7281 23.2035H38.7188Z" fill="#E30A17"/>
<path fill-rule="evenodd" clip-rule="evenodd" d="M40.3781 17.9527L40.2844 22.1059L36.4125 23.1559L40.2375 24.5152L40.1438 28.3309L42.6281 25.3496L46.3969 26.6621L44.2219 23.4652L46.875 20.2871L42.7969 21.4121L40.3781 17.9434V17.9527Z" fill="white"/>
</g>
<defs>
<clipPath id="clip0_3405_27750">
<rect width="60" height="45" fill="white"/>
</clipPath>
</defs>
</svg>
