<svg width="60" height="45" viewBox="0 0 60 45" fill="none" xmlns="http://www.w3.org/2000/svg">
<g clip-path="url(#clip0_3405_27862)">
<path fill-rule="evenodd" clip-rule="evenodd" d="M0 0H85.5V3.46875H0V0ZM0 6.92813H85.5V10.3969H0V6.92813ZM0 13.8469H85.5V17.3156H0V13.8469ZM0 20.7656H85.5V24.2344H0V20.7656ZM0 27.7031H85.5V31.1531H0V27.7031ZM0 34.6125H85.5V38.0813H0V34.6125ZM0 41.5312H85.5V45H0V41.5312Z" fill="#BD3D44"/>
<path fill-rule="evenodd" clip-rule="evenodd" d="M0 3.46875H85.5V6.92813H0V3.46875ZM0 10.3875H85.5V13.8469H0V10.3875ZM0 17.3063H85.5V20.775H0V17.3063ZM0 24.2344H85.5V27.7031H0V24.2344ZM0 31.1531H85.5V34.6219H0V31.1531ZM0 38.0719H85.5V41.5406H0V38.0719Z" fill="white"/>
<path fill-rule="evenodd" clip-rule="evenodd" d="M0 0H34.2V24.2344H0V0Z" fill="#192F5D"/>
<path fill-rule="evenodd" clip-rule="evenodd" d="M2.85 1.03125L3.16875 1.99687H4.1625L3.35625 2.5875L3.66562 3.55313L2.85 2.95313L2.04375 3.54375L2.34375 2.5875L1.52812 1.99687H2.55L2.85 1.03125ZM8.55 1.03125L8.85937 1.99687H9.87187L9.05625 2.5875L9.35625 3.55313L8.55 2.95313L7.73437 3.54375L8.04375 2.5875L7.2375 1.99687H8.23125L8.55 1.03125ZM14.25 1.03125L14.5594 1.99687H15.5625L14.7562 2.5875L15.0656 3.55313L14.25 2.95313L13.4344 3.54375L13.7437 2.5875L12.9281 1.99687H13.9406L14.25 1.03125ZM19.95 1.03125L20.2594 1.99687H21.2719L20.4562 2.5875L20.7656 3.55313L19.95 2.95313L19.1344 3.54375L19.4531 2.5875L18.6281 1.99687H19.6312L19.95 1.03125ZM25.65 1.03125L25.9594 1.99687H26.9625L26.1562 2.5875L26.4656 3.55313L25.65 2.95313L24.8344 3.54375L25.1437 2.5875L24.3375 1.99687H25.3406L25.65 1.03125ZM31.35 1.03125L31.6594 1.99687H32.6719L31.8469 2.5875L32.1656 3.55313L31.35 2.95313L30.5344 3.54375L30.8531 2.5875L30.0281 1.99687H31.0406L31.35 1.03125ZM5.7 3.46875L6.00937 4.425H7.03125L6.21562 5.00625L6.51562 5.97188L5.71875 5.38125L4.90312 5.97188L5.19375 5.00625L4.40625 4.425H5.40937L5.7 3.46875ZM11.4 3.46875L11.7187 4.425H12.7219L11.8969 5.00625L12.2156 5.97188L11.4 5.38125L10.5844 5.97188L10.8937 5.00625L10.0781 4.425H11.0906L11.4 3.46875ZM17.1 3.46875L17.4094 4.425H18.4219L17.6062 5.00625L17.9156 5.97188L17.1 5.38125L16.2844 5.97188L16.5937 5.00625L15.7875 4.425H16.7812L17.1 3.46875ZM22.8 3.46875L23.1187 4.425H24.1219L23.2969 5.00625L23.6156 5.97188L22.8 5.38125L21.9937 5.97188L22.2937 5.00625L21.4781 4.425H22.5L22.8 3.46875ZM28.5 3.46875L28.8094 4.425H29.8219L29.0062 5.00625L29.3156 5.97188L28.5 5.38125L27.6844 5.97188L27.9937 5.00625L27.1875 4.425H28.1906L28.5 3.46875ZM2.85 5.86875L3.16875 6.84375H4.1625L3.35625 7.43438L3.66562 8.39063L2.85 7.8L2.04375 8.39063L2.34375 7.43438L1.52812 6.84375H2.55L2.85 5.86875ZM8.55 5.86875L8.85937 6.84375H9.87187L9.05625 7.43438L9.35625 8.39063L8.55 7.8L7.73437 8.39063L8.04375 7.425L7.2375 6.83438H8.23125L8.55 5.86875ZM14.25 5.86875L14.5594 6.83438H15.5625L14.7562 7.425L15.0656 8.38125L14.25 7.79063L13.4344 8.38125L13.7437 7.41563L12.9281 6.825H13.9406L14.25 5.86875ZM19.95 5.86875L20.2594 6.83438H21.2719L20.4562 7.425L20.7656 8.38125L19.95 7.79063L19.1344 8.38125L19.4531 7.41563L18.6281 6.825H19.6312L19.95 5.86875ZM25.65 5.86875L25.9594 6.83438H26.9625L26.1562 7.425L26.4656 8.38125L25.65 7.79063L24.8344 8.38125L25.1437 7.41563L24.3375 6.825H25.3406L25.65 5.86875ZM31.35 5.86875L31.6594 6.83438H32.6719L31.8469 7.425L32.1656 8.38125L31.35 7.79063L30.5344 8.38125L30.8531 7.41563L30.0281 6.825H31.0406L31.35 5.86875ZM5.7 8.30625L6.00937 9.2625H7.03125L6.21562 9.85313L6.525 10.8188L5.70937 10.2188L4.89375 10.8094L5.20312 9.85313L4.39687 9.2625H5.4L5.7 8.30625ZM11.4 8.30625L11.7187 9.2625H12.7219L11.8969 9.85313L12.2156 10.8188L11.4 10.2188L10.5844 10.8094L10.8937 9.85313L10.0781 9.2625H11.0906L11.4 8.30625ZM17.1 8.30625L17.4094 9.2625H18.4219L17.6062 9.85313L17.9156 10.8188L17.1 10.2188L16.2844 10.8094L16.5937 9.85313L15.7875 9.2625H16.7812L17.1 8.30625ZM22.8 8.30625L23.1187 9.2625H24.1219L23.3062 9.85313L23.6156 10.8188L22.8 10.2188L21.9937 10.8094L22.2937 9.85313L21.4781 9.2625H22.5L22.8 8.30625ZM28.5 8.30625L28.8094 9.2625H29.8219L29.0062 9.85313L29.3156 10.8188L28.5 10.2188L27.6844 10.8094L27.9937 9.85313L27.1875 9.2625H28.1906L28.5 8.30625ZM2.85 10.7344L3.16875 11.6906H4.1625L3.35625 12.2813L3.66562 13.2469L2.85 12.6469L2.04375 13.2375L2.34375 12.2813L1.52812 11.6906H2.55L2.85 10.7344ZM8.55 10.7344L8.85937 11.6906H9.87187L9.05625 12.2813L9.35625 13.2375L8.55 12.6469L7.73437 13.2375L8.04375 12.2813L7.2375 11.6906H8.23125L8.55 10.7344ZM14.25 10.7344L14.5594 11.6906H15.5625L14.7562 12.2813L15.0656 13.2469L14.25 12.6469L13.4344 13.2375L13.7437 12.2813L12.9281 11.6906H13.9406L14.25 10.7344ZM19.95 10.7344L20.2594 11.6906H21.2719L20.4562 12.2813L20.7656 13.2469L19.95 12.6469L19.1344 13.2375L19.4531 12.2813L18.6281 11.6906H19.6312L19.95 10.7344ZM25.65 10.7344L25.9594 11.6906H26.9625L26.1562 12.2813L26.4656 13.2469L25.65 12.6469L24.8344 13.2375L25.1437 12.2813L24.3375 11.6906H25.3406L25.65 10.7344ZM31.35 10.7344L31.6594 11.6906H32.6719L31.8469 12.2813L32.1656 13.2469L31.35 12.6469L30.5344 13.2375L30.8437 12.2813L30.0187 11.6906H31.0312L31.35 10.7344ZM5.7 13.1531L6.00937 14.1188H7.03125L6.21562 14.7L6.525 15.6656L5.70937 15.0656L4.89375 15.6656L5.20312 14.7L4.39687 14.1094H5.4L5.7 13.1531ZM11.4 13.1531L11.7187 14.1188H12.7219L11.8969 14.7L12.2156 15.6656L11.4 15.0656L10.5844 15.6656L10.8937 14.7L10.0781 14.1094H11.0906L11.4 13.1531ZM17.1 13.1531L17.4094 14.1188H18.4219L17.6062 14.7L17.9156 15.6656L17.1 15.0656L16.2844 15.6656L16.5937 14.7L15.7875 14.1094H16.7812L17.1 13.1531ZM22.8 13.1531L23.1187 14.1188H24.1219L23.3062 14.7L23.6156 15.6656L22.8 15.0656L21.9937 15.6656L22.2937 14.7L21.4781 14.1094H22.5L22.8 13.1531ZM28.5 13.1531L28.8094 14.1188H29.8219L29.0062 14.7L29.3156 15.6656L28.5 15.0656L27.6844 15.6656L27.9937 14.7L27.1875 14.1094H28.1906L28.5 13.1531ZM2.85 15.5719L3.16875 16.5375H4.1625L3.35625 17.1281L3.66562 18.075L2.85 17.4938L2.04375 18.075L2.34375 17.1188L1.52812 16.5281H2.55L2.85 15.5719ZM8.55 15.5719L8.85937 16.5375H9.87187L9.05625 17.1281L9.36562 18.075L8.55 17.4938L7.73437 18.075L8.05312 17.1188L7.2375 16.5281H8.23125L8.55 15.5719ZM14.25 15.5719L14.5594 16.5375H15.5625L14.7562 17.1281L15.0656 18.075L14.25 17.4938L13.4344 18.075L13.7437 17.1188L12.9281 16.5281H13.9406L14.25 15.5719ZM19.95 15.5719L20.2594 16.5375H21.2719L20.4562 17.1281L20.7656 18.075L19.95 17.4938L19.1344 18.075L19.4531 17.1188L18.6281 16.5281H19.6312L19.95 15.5719ZM25.65 15.5719L25.9594 16.5375H26.9625L26.1562 17.1281L26.4656 18.075L25.65 17.4938L24.8344 18.075L25.1437 17.1188L24.3375 16.5281H25.3406L25.65 15.5719ZM31.35 15.5719L31.6594 16.5375H32.6719L31.8469 17.1281L32.1656 18.075L31.35 17.4938L30.5344 18.075L30.8531 17.1188L30.0281 16.5281H31.0406L31.35 15.5719ZM5.7 18L6.00937 18.9563H7.03125L6.21562 19.5469L6.525 20.5125L5.70937 19.9125L4.89375 20.5031L5.20312 19.5469L4.39687 18.9563H5.4L5.7 18ZM11.4 18L11.7187 18.9563H12.7219L11.8969 19.5469L12.2156 20.5125L11.4 19.9125L10.5844 20.5031L10.8937 19.5469L10.0781 18.9563H11.0906L11.4 18ZM17.1 18L17.4094 18.9563H18.4219L17.6062 19.5469L17.9156 20.5125L17.1 19.9125L16.2844 20.5031L16.5937 19.5469L15.7875 18.9563H16.7812L17.1 18ZM22.8 18L23.1187 18.9563H24.1219L23.3062 19.5469L23.6156 20.5125L22.8 19.9125L21.9937 20.5031L22.2937 19.5469L21.4781 18.9563H22.5L22.8 18ZM28.5 18L28.8094 18.9563H29.8219L29.0062 19.5469L29.3156 20.5125L28.5 19.9125L27.6844 20.5031L27.9937 19.5469L27.1875 18.9563H28.1906L28.5 18ZM2.85 20.4281L3.16875 21.3844H4.1625L3.35625 21.975L3.66562 22.9313L2.85 22.3406L2.04375 22.9313L2.34375 21.9656L1.52812 21.375H2.55L2.85 20.4281ZM8.55 20.4281L8.85937 21.3844H9.87187L9.05625 21.975L9.36562 22.9313L8.55 22.3406L7.73437 22.9313L8.05312 21.9656L7.2375 21.375H8.23125L8.55 20.4281ZM14.25 20.4281L14.5594 21.3844H15.5625L14.775 21.975L15.0844 22.9313L14.2687 22.3406L13.4531 22.9313L13.7625 21.9656L12.9469 21.375H13.9594L14.25 20.4281ZM19.95 20.4281L20.2594 21.3844H21.2719L20.4562 21.975L20.7656 22.9313L19.95 22.3406L19.1344 22.9313L19.4531 21.9656L18.6281 21.375H19.6312L19.95 20.4281ZM25.65 20.4281L25.9594 21.3844H26.9625L26.1562 21.975L26.4656 22.9313L25.65 22.3406L24.8344 22.9313L25.1437 21.9656L24.3375 21.375H25.3406L25.65 20.4281ZM31.35 20.4281L31.6594 21.3844H32.6719L31.8469 21.975L32.1656 22.9313L31.35 22.3406L30.5344 22.9313L30.8531 21.9656L30.0281 21.375H31.0406L31.35 20.4281Z" fill="white"/>
</g>
<defs>
<clipPath id="clip0_3405_27862">
<rect width="60" height="45" fill="white"/>
</clipPath>
</defs>
</svg>
