<svg width="24" height="24" viewBox="0 0 24 24" fill="none" xmlns="http://www.w3.org/2000/svg">
<path d="M15.0492 15.0057C16.6579 14.843 18.1147 13.982 19.0328 12.6512C19.9519 11.3205 20.2407 9.65353 19.8226 8.0911C19.4045 6.52972 18.3227 5.22913 16.8616 4.53398C15.4015 3.84004 13.7097 3.82173 12.2347 4.48334C10.7585 5.14602 9.64861 6.42184 9.19593 7.97453C8.74326 9.52722 8.99551 11.1995 9.88449 12.5509L7.86301 14.5756L6.16048 12.8731V12.8742C5.95359 12.6662 5.67343 12.5498 5.38034 12.5498C5.08724 12.5498 4.80709 12.6662 4.6002 12.8742C4.39223 13.0811 4.27585 13.3612 4.27585 13.6543C4.27585 13.9474 4.39223 14.2276 4.6002 14.4345L6.30166 16.137L4.32327 18.1154H4.32435C4.11638 18.3223 4 18.6024 4 18.8955C4 19.1886 4.11638 19.4688 4.32435 19.6757C4.53124 19.8836 4.81139 20 5.10449 20C5.39758 20 5.67774 19.8836 5.88463 19.6757L7.86301 17.6983L9.56555 19.4009V19.3998C9.77244 19.6078 10.0526 19.7241 10.3457 19.7241C10.6388 19.7241 10.9189 19.6078 11.1258 19.3998C11.3338 19.1929 11.4502 18.9128 11.4502 18.6197C11.4502 18.3266 11.3338 18.0464 11.1258 17.8395L9.42437 16.137L11.4491 14.1155C12.5094 14.8202 13.782 15.1359 15.0492 15.0056L15.0492 15.0057ZM14.4835 6.20653C15.8229 6.20653 17.0297 7.01254 17.5416 8.24955C18.0545 9.48659 17.7711 10.9111 16.8239 11.8572C15.8778 12.8043 14.4533 13.0877 13.2163 12.5748C11.9793 12.063 11.1733 10.8561 11.1733 9.51671C11.1733 7.68811 12.6549 6.20647 14.4835 6.20647L14.4835 6.20653Z" fill="#0E1E36"/>
</svg>
