<svg width="24" height="24" viewBox="0 0 24 24" fill="none" xmlns="http://www.w3.org/2000/svg">
<path fill-rule="evenodd" clip-rule="evenodd" d="M4.89638 9.929C6.78013 8.0536 9.33532 7 11.9996 7C14.6637 7 17.2189 8.05368 19.1028 9.929C20.7478 11.5663 21.7634 13.7133 21.9946 15.9971C22.0505 16.5491 21.5954 17 21.0406 17C20.4858 17 20.0426 16.5485 19.9728 15.9981C19.7506 14.2459 18.9501 12.6054 17.6822 11.3432C16.1752 9.8429 14.1309 9 11.9996 9C9.86834 9 7.82418 9.84296 6.31703 11.3432C5.0491 12.6053 4.24856 14.2458 4.02639 15.9981C3.9566 16.5485 3.51339 17 2.95858 17C2.40378 17 1.94877 16.5491 2.00465 15.9971C2.23586 13.7134 3.25149 11.5665 4.89638 9.929ZM11.9994 10.0005C10.1345 10.0005 8.34582 10.738 7.02703 12.0507C5.94763 13.1251 5.25545 14.5129 5.03973 15.9994C4.96005 16.5484 5.41724 17.0005 5.97204 17.0005C6.52685 17.0005 6.9664 16.5462 7.07761 16.0027C7.27286 15.0484 7.74565 14.1639 8.44774 13.4649C9.38967 12.5272 10.6672 12.0004 11.9995 12.0004C13.3317 12.0004 14.6091 12.5272 15.5512 13.4649C16.2533 14.1638 16.7261 15.0483 16.9213 16.0027C17.0325 16.5462 17.4721 17.0005 18.0269 17.0005C18.5817 17.0005 19.0389 16.5484 18.9592 15.9994C18.7434 14.513 18.0512 13.1252 16.9719 12.0507C15.6532 10.7379 13.8646 10.0005 11.9995 10.0005H11.9994ZM11.9994 12.9998L11.9994 12.9998C10.9337 12.9998 9.91172 13.4212 9.15811 14.1714C8.64472 14.6824 8.28463 15.3175 8.10723 16.0058C7.96876 16.543 8.43096 16.9998 8.98577 16.9998C9.54057 16.9998 9.97035 16.523 10.2383 16.0372C10.4122 15.722 10.6712 15.4538 10.9949 15.2677C11.6165 14.9105 12.3824 14.9105 13.004 15.2677C13.3277 15.4538 13.5867 15.722 13.7606 16.0372C14.0285 16.523 14.4583 16.9998 15.0131 16.9998C15.5679 16.9998 16.0301 16.5431 15.8916 16.0058C15.8012 15.6548 15.6629 15.3162 15.4794 14.9998C15.1267 14.3917 14.6194 13.8867 14.0086 13.5356C13.3978 13.1846 12.7048 12.9998 11.9995 12.9998L11.9994 12.9998Z" fill="#0E1E36"/>
</svg>
