<svg width="24" height="24" viewBox="0 0 24 24" fill="none" xmlns="http://www.w3.org/2000/svg">
<path fill-rule="evenodd" clip-rule="evenodd" d="M11.5497 17.9545C15.65 17.9545 18.9732 14.6353 18.9732 10.5412V10.5384C18.9732 6.44708 15.65 3.12846 11.5497 3.12846C10.5707 3.11991 9.59981 3.30534 8.69291 3.67404C7.78602 4.04275 6.96114 4.58743 6.26588 5.27664C5.57062 5.96585 5.01875 6.78595 4.64214 7.68959C4.26552 8.59323 4.07162 9.56251 4.07162 10.5415C4.07162 11.5205 4.26552 12.4898 4.64214 13.3934C5.01875 14.297 5.57062 15.1171 6.26588 15.8063C6.96114 16.4956 7.78602 17.0402 8.69291 17.4089C9.59981 17.7776 10.5707 17.9631 11.5497 17.9545ZM3 10.5412C3 5.82318 6.82827 2 11.5497 2C16.2722 2 20.1005 5.82375 20.1005 10.5412C20.1005 15.2587 16.2711 19.0824 11.5497 19.0824C6.82827 19.0824 3 15.2592 3 10.5412ZM11.5118 5.66602H7.97199V15.4149H12.6872C14.6279 15.4149 15.6534 14.0494 15.6534 12.6166C15.6534 11.4152 14.9978 10.5141 13.7947 10.2687V10.2409C14.6969 9.8727 15.2428 9.09494 15.2428 8.05755C15.2497 7.64676 15.1471 7.24153 14.9453 6.88361C14.7436 6.52569 14.4501 6.22802 14.0951 6.02124C13.5074 5.66602 12.3733 5.66602 11.5118 5.66602ZM11.8681 9.85686H9.26958V6.75827H11.8681C12.9892 6.75827 13.9452 6.94889 13.9452 8.30021C13.9452 9.32459 13.3433 9.85686 11.8681 9.85686ZM12.5237 14.3204H9.26958V10.9486H12.2358C13.3298 10.9486 14.3553 11.3038 14.3553 12.5736C14.3553 13.6376 13.6437 14.3204 12.5237 14.3204ZM3.01757 20.8794H20.083V21.9999H3.01757V20.8794ZM19.3853 20.3546C19.4535 20.4003 19.5337 20.4247 19.6158 20.4248C19.6709 20.4268 19.7258 20.4174 19.7771 20.3973C19.8284 20.3771 19.8749 20.3466 19.9139 20.3077C19.9529 20.2687 19.9835 20.2222 20.0037 20.1709C20.024 20.1196 20.0334 20.0647 20.0315 20.0097C20.0315 19.9276 20.0072 19.8473 19.9616 19.7791C19.916 19.7108 19.8512 19.6576 19.7754 19.6261C19.6995 19.5947 19.6161 19.5864 19.5356 19.6024C19.455 19.6184 19.3811 19.6579 19.323 19.7159C19.2649 19.7739 19.2253 19.8478 19.2092 19.9283C19.1931 20.0088 19.2013 20.0923 19.2326 20.1682C19.2639 20.244 19.3171 20.3089 19.3853 20.3546ZM19.4054 19.7905C19.4602 19.7315 19.5354 19.6954 19.6158 19.6895V19.6884C19.6963 19.6943 19.7716 19.7304 19.8266 19.7895C19.8815 19.8486 19.9121 19.9264 19.9121 20.0071C19.9121 20.0879 19.8815 20.1656 19.8266 20.2247C19.7716 20.2838 19.6963 20.32 19.6158 20.3259C19.5354 20.32 19.4602 20.2839 19.4054 20.2249C19.3505 20.1659 19.32 20.0883 19.32 20.0077C19.32 19.9271 19.3505 19.8495 19.4054 19.7905ZM19.4512 20.2303H19.5462V20.0442H19.5915L19.6933 20.2303H19.8064L19.6933 20.0351C19.7083 20.0356 19.7233 20.0329 19.7372 20.0271C19.751 20.0213 19.7635 20.0125 19.7737 20.0015C19.7839 19.9904 19.7916 19.9773 19.7963 19.963C19.8009 19.9487 19.8025 19.9335 19.8007 19.9186C19.8007 19.8168 19.7306 19.784 19.6175 19.784H19.4512V20.2303ZM19.6989 19.9107C19.6989 19.9582 19.6735 19.9672 19.6311 19.9672L19.5462 19.9689V19.8615H19.6135C19.6497 19.8615 19.6989 19.8632 19.6989 19.9107Z" fill="#0E1E36"/>
</svg>
