<svg width="24" height="24" viewBox="0 0 24 24" fill="none" xmlns="http://www.w3.org/2000/svg">
<path d="M15.8029 6.23043C14.4438 6.23043 13.1766 6.66787 12.162 7.42845C11.0792 6.53016 9.71902 6 8.1989 6C4.78838 6 2 8.78769 2 12.198C2 15.6083 4.78861 18.396 8.19798 18.396C9.55712 18.396 10.8244 17.9585 11.8613 17.1979C12.9216 18.0962 14.3043 18.6264 15.802 18.6264C19.2125 18.6264 22 15.8378 22 12.4284C22.0009 9.01788 19.2125 6.23043 15.8029 6.23043ZM11.9083 15.2396C11.3322 14.4565 10.9866 13.4655 10.9866 12.4051C10.9866 11.253 11.4015 10.1702 12.0928 9.34025C12.2539 9.15573 12.415 8.99461 12.5771 8.83349C13.2918 9.7552 13.7058 10.9073 13.7058 12.1747C13.7058 13.5572 13.199 14.8011 12.3691 15.7698C12.208 15.6086 12.0469 15.4475 11.9083 15.2396ZM8.1989 16.9912C5.54901 16.9912 3.38347 14.8256 3.38347 12.1758C3.38347 9.52597 5.5491 7.36034 8.1989 7.36034C9.30513 7.36034 10.3186 7.72939 11.1251 8.35135C10.18 9.43417 9.6039 10.8625 9.6039 12.4073C9.6039 13.8133 10.0882 15.1265 10.8712 16.1635C10.1107 16.6918 9.18895 16.9916 8.19876 16.9916L8.1989 16.9912Z" fill="#0E1E36"/>
</svg>
