<svg width="16" height="16" viewBox="0 0 16 16" fill="none" xmlns="http://www.w3.org/2000/svg">
<path d="M8 0C5.87802 0 3.84388 0.842733 2.34273 2.34273C0.842732 3.84373 0 5.87794 0 8C0 10.1221 0.842732 12.1561 2.34273 13.6573C3.84373 15.1573 5.87794 16 8 16C10.1221 16 12.1561 15.1573 13.6573 13.6573C15.1573 12.1563 16 10.1221 16 8C16 5.87794 15.1573 3.84388 13.6573 2.34273C12.1563 0.842733 10.1221 0 8 0V0ZM8 14.4516C6.28932 14.4516 4.64827 13.7721 3.43847 12.5615C2.22779 11.3518 1.54836 9.71063 1.54836 7.99992C1.54836 6.28922 2.22779 4.64819 3.43847 3.43839C4.64814 2.22771 6.2893 1.54828 8 1.54828C9.7107 1.54828 11.3517 2.22771 12.5615 3.43839C13.7722 4.64806 14.4516 6.28922 14.4516 7.99992C14.4516 9.71063 13.7722 11.3517 12.5615 12.5615C11.3519 13.7721 9.7107 14.4516 8 14.4516Z" fill="white"/>
<path d="M7.22583 7.74194H8.77421V11.871H7.22583V7.74194Z" fill="white"/>
<path d="M8.77421 4.9031C8.77421 5.93535 7.22583 5.93535 7.22583 4.9031C7.22583 3.87084 8.77421 3.87084 8.77421 4.9031Z" fill="white"/>
</svg>
